<svg height="125.049" viewBox="0 0 299.64 125.049" width="299.64" xmlns="http://www.w3.org/2000/svg" xmlns:xlink="http://www.w3.org/1999/xlink"><clipPath id="a"><path d="m0 0h299.64v125.049h-299.64z"/></clipPath><g clip-path="url(#a)" fill="#fff"><path d="m67.91 47.621q0-.192-.241 2.62-.481 5.629-.481 10.868a22.288 22.288 0 0 0 .241 2.378 33.428 33.428 0 0 1 .24 4.318v.873q0 1.26-.961 1.261t-1.683-1.455a10.186 10.186 0 0 0 -3.365-4.172q-8.654 6.114-20.794 6.114-17.668 0-29.267-9.947a31.634 31.634 0 0 1 -11.599-25.084q0-15.233 10.637-24.89t27.463-9.655a46.442 46.442 0 0 1 9.8.825 46.792 46.792 0 0 1 9.074 3.348 10.467 10.467 0 0 0 3.966 1.261q1.081 0 2.043-1.552 1.56-2.716 2.524-2.717t.961.776a5.451 5.451 0 0 1 -.24 1.262q-1.328 4.656-1.323 17.466 0 1.844-.361 2.135a1.487 1.487 0 0 1 -.961.291q-1.2 0-1.563-1.844-1.563-7.761-4.447-11.547-5.891-7.762-18.51-7.763-9.736 0-15.385 5.24-10.217 9.412-10.216 27.558 0 16.206 8.414 25.132 7.33 7.763 19.471 7.762a26.109 26.109 0 0 0 11.419-2.474 18.9 18.9 0 0 0 7.934-6.744 34.252 34.252 0 0 0 4.447-10.771q.479-2.329 1.563-2.329 1.2 0 1.2 1.455" transform="translate(0 -.462)"/><path d="m242.748 35.977a32.094 32.094 0 0 1 -10.758 24.452q-10.757 10-26.382 10-16.586 0-27.885-10.14a32.253 32.253 0 0 1 -11.3-24.987q0-15.137 10.878-24.792t27.826-9.66q15.984 0 26.8 10.091a32.863 32.863 0 0 1 10.818 25.036m-13.462.488q0-17.809-9.015-27.737-5.647-6.228-15.742-6.228-9.618 0-14.9 4.768-9.735 8.76-9.735 28.515 0 15.67 6.79 24.332t19.051 8.66q11.417 0 17.188-8.175 6.37-9.05 6.37-24.135" transform="translate(-90.462 -.462)"/><path d="m426.524 69.7q0 .826-2.514.824h-29.948q-2.515 0-2.514-.875 0-.971 3.485-.972 6.129 0 7.451-1.069.6-.487.6-6.512v-50.346q0 .1-1.444 3.4-4.828 11.735-14 35.3l-5.584 15.45q-1.684 4.562-2.406 4.561-.845 0-1.8-2.329-3.471-8.833-19.629-44.078l-4.772-10.358q0 1.845 0 5.045v31.532q0 17.758.361 17.952.839 1.262 5.769 1.261 3.966 0 3.966.966 0 1.074-2.525 1.072a20.05 20.05 0 0 1 -2.884-.194 26.657 26.657 0 0 0 -3-.194l-13.822.388q-2.164 0-2.164-.875 0-.972 6.851-1.069 2.884 0 3.365-.776t.481-5.056v-46.548a70.982 70.982 0 0 0 -.241-8.745 2.932 2.932 0 0 0 -2.043-1.847 35.234 35.234 0 0 0 -6.731-.778q-1.925-.1-1.924-.873 0-1.066 3.525-1.067h8.388q7.172 0 10.09-.073.592 1.264 6.973 15.268 2.739 5.828 15.363 33.988 2.27-6.318 4.661-12.441l12.843-32.063q1.189-2.767 2.115-4.583l17.826-.1a17.62 17.62 0 0 1 4.515.292.938.938 0 0 1 .595.875q0 .974-2.043.974a34.257 34.257 0 0 0 -4.567.2 6.565 6.565 0 0 0 -3.967 1.557q-.6.681-.6 11.386v45.253q0 3.894.962 4.574 1.561.878 7.813.877h.72q2.4 0 2.4.825" transform="translate(-184.214 -1.532)"/><path d="m596.356 49.876q0 8.346-7.872 14.216t-18.931 5.871q-6.49 0-15.5-3.2a11.846 11.846 0 0 0 -3.606-.874q-1.443 0-1.8 2.687a1.382 1.382 0 0 1 -1.563 1.389 1.046 1.046 0 0 1 -1.2-1.165 4.2 4.2 0 0 1 .116-1.167 68.838 68.838 0 0 0 .961-10.965q0-.969-.241-5.434a7.955 7.955 0 0 1 -.12-1.553 1.281 1.281 0 0 1 1.442-1.456q1.2 0 1.683 2.352 3.124 17.442 20.313 17.443 7.33 0 11.358-3.348t4.027-9.461a12.509 12.509 0 0 0 -3.907-9.267q-3.907-3.831-13.4-7.617-11.421-4.56-15.866-8.831a14.067 14.067 0 0 1 -4.45-10.574 16.421 16.421 0 0 1 6.431-13.294q6.426-5.24 16.283-5.24a41.134 41.134 0 0 1 11.3 2.232 14.242 14.242 0 0 0 3.726.776 2.716 2.716 0 0 0 1.743-.388 4.444 4.444 0 0 0 .78-2.038 1.21 1.21 0 0 1 1.322-.97 1.047 1.047 0 0 1 1.2 1.164 4.281 4.281 0 0 1 -.121 1.164 37.537 37.537 0 0 0 -.361 5.628 35.7 35.7 0 0 0 .6 7.375l.12 1.552q.119 1.069-1.082 1.068-1.324 0-1.8-2.232a16.61 16.61 0 0 0 -6.25-9.558 17.57 17.57 0 0 0 -11.058-3.833q-6.011 0-9.556 3.105a10.645 10.645 0 0 0 -3.545 8.442 11.809 11.809 0 0 0 5.169 10q2.884 2.135 12.5 6.016 11.3 4.562 16.226 9.266a14.475 14.475 0 0 1 4.928 10.723" transform="translate(-296.716)"/><path d="m87.955 218.134q0 .228-.911.253a1.423 1.423 0 0 0 -1.352.67 23.058 23.058 0 0 0 -1.031 2.731q-1.207 3.668-2.144 6.238-1.6 4.391-2.917 8.489c-.073.231-.165.348-.274.348-.092 0-.178-.089-.261-.266s-.325-.8-.728-1.864q-.746-2.092-1.624-4.21-.693-1.664-1.358-3.433-1.864 4.526-3.7 9.453-.108.32-.27.32-.135 0-.324-.456-.831-1.981-6.159-16.413a6.583 6.583 0 0 0 -.562-1.272q-.188-.254-.937-.281-1.285-.053-1.285-.375 0-.241.429-.241a1.712 1.712 0 0 1 .321.027q1.42.08 3.053.08.322 0 1.111-.053t2.048-.054h.3q.455 0 .455.246 0 .3-.824.328-1.649.055-1.649.438 0 .75 4.921 13.952 1.79-4.523 2.672-6.664l-2.655-6.859a1.356 1.356 0 0 0 -.5-.72 2.506 2.506 0 0 0 -1.036-.187q-.754-.026-.754-.24 0-.294.562-.293.428 0 1.044.053t2.143.054h4.98q.991 0 2.384-.086a2.859 2.859 0 0 1 .375-.021q.643 0 .643.282 0 .253-.455.254h-.456a4.055 4.055 0 0 0 -1.82.321 5.673 5.673 0 0 0 -.991 1.926q-.325.749-1.081 2.541-.158.4-.472 1.209.187.536 1.172 2.975 1.272 3.1 2.095 5.316 1.506-4.335 3.551-10.25a27.184 27.184 0 0 0 1.082-3.5q0-.511-.938-.511-1.312 0-1.312-.3 0-.268.535-.269a5.952 5.952 0 0 1 .723.036 9.054 9.054 0 0 0 1.071.072h2.142a2.9 2.9 0 0 1 .883.063.18.18 0 0 1 .08.14m-11.326.306h-.777q-.964.055-.964.35 0 .054 1.577 4.656.611-1.339 1.437-3.537.11-.294.332-.775l.055-.213q0-.48-1.661-.481" transform="translate(-33.764 -118.401)"/><path d="m128.83 241.569a2.365 2.365 0 0 1 -.415.951 5.908 5.908 0 0 1 -.843 1.111 4.108 4.108 0 0 1 -3.079 1.179 5.28 5.28 0 0 1 -4.03-1.74 6.088 6.088 0 0 1 -1.62-4.311 6.628 6.628 0 0 1 1.539-4.472 4.856 4.856 0 0 1 3.842-1.794 4.7 4.7 0 0 1 3.187 1.111 3.85 3.85 0 0 1 1.366 2.852 13.656 13.656 0 0 1 -2.276.107h-1.874q-.188 0-3.213.08a11.216 11.216 0 0 0 -.134 1.682 7.106 7.106 0 0 0 1.031 4.148 3.354 3.354 0 0 0 2.905 1.454 2.791 2.791 0 0 0 1.713-.482 5.893 5.893 0 0 0 1.392-1.847.325.325 0 0 1 .294-.214c.143 0 .215.062.215.187m-2.33-5.462q-.107-3.213-2.3-3.213-2.168 0-2.7 3.213z" transform="translate(-64.598 -126.374)"/><path d="m169.719 236.022q0 .228-.4.228a3.976 3.976 0 0 1 -.482-.027l-3.4-.107-3.4.107a2.9 2.9 0 0 1 -.4.027q-.536 0-.536-.281 0-.309.723-.308 2.356-.026 2.356-.472a1.5 1.5 0 0 0 -.055-.21l-.219-.708-.137-.373q-.241-.832-1.176-3.672h-5.724a28.788 28.788 0 0 0 -1.6 4.927.412.412 0 0 0 .321.455q.08.027 1.338.107c.518.018.777.107.777.268q0 .268-.7.268-1.232 0-2.865-.108-.4-.026-.83-.026a3.782 3.782 0 0 0 -.829.089 1.828 1.828 0 0 1 -.348.045c-.25 0-.375-.081-.375-.242s.281-.251.844-.269a2.589 2.589 0 0 0 1.218-.255 1.54 1.54 0 0 0 .589-.873q3.445-9.887 5.607-15.879a3.116 3.116 0 0 1 .25-.711l.115-.488q.08-.3.214-.295c.054 0 .1.053.134.161q.348 1.044 1.58 4.365.964 2.6 4.793 13.039a1.281 1.281 0 0 0 .549.771 3.907 3.907 0 0 0 1.379.193q.7.025.7.254m-7.254-6.412-1.445-3.991-1.287-3.711q-1.129 2.962-2.714 7.7z" transform="translate(-82.487 -118.083)"/><path d="m197.689 234.43a1.433 1.433 0 0 1 -.375 1.017 1.261 1.261 0 0 1 -.964.4 1.176 1.176 0 0 1 -.8-.281.9.9 0 0 1 -.321-.71.926.926 0 0 1 .241-.643q.24-.267.241-.375 0-.4-.589-.4a1.525 1.525 0 0 0 -1.285.932 9.122 9.122 0 0 0 -.616 4.05v5.28q0 .32.227.4a6.92 6.92 0 0 0 1.379.107c.2.036.294.107.294.214 0 .125-.116.188-.348.188h-5.195q-.429 0-.429-.161t.348-.161h.375q.91 0 1.071-.215a4.446 4.446 0 0 0 .053-1v-7.4q0-1.48-.441-1.709a3.42 3.42 0 0 0 -1.406-.255c-.214 0-.321-.063-.321-.187s.089-.188.268-.188h.188a8.02 8.02 0 0 1 .8.04 2.821 2.821 0 0 1 .348.04 5.256 5.256 0 0 0 2.2-.563l.348-.161.214-.08a7.79 7.79 0 0 1 .107 1.286v.535a2.656 2.656 0 0 1 2.41-1.821 2.005 2.005 0 0 1 1.419.522 1.7 1.7 0 0 1 .562 1.3" transform="translate(-102.638 -126.438)"/><path d="m220.109 241.57a2.362 2.362 0 0 1 -.415.951 5.922 5.922 0 0 1 -.844 1.111 4.109 4.109 0 0 1 -3.079 1.179 5.28 5.28 0 0 1 -4.03-1.74 6.086 6.086 0 0 1 -1.619-4.311 6.627 6.627 0 0 1 1.539-4.472 4.855 4.855 0 0 1 3.842-1.794 4.7 4.7 0 0 1 3.186 1.111 3.847 3.847 0 0 1 1.366 2.852 13.759 13.759 0 0 1 -2.276.107h-1.874q-.187 0-3.214.08a11.225 11.225 0 0 0 -.134 1.681 7.107 7.107 0 0 0 1.031 4.149 3.355 3.355 0 0 0 2.905 1.454 2.788 2.788 0 0 0 1.714-.482 5.886 5.886 0 0 0 1.393-1.846.326.326 0 0 1 .294-.215c.143 0 .215.063.215.187m-2.33-5.462q-.107-3.213-2.3-3.213-2.168 0-2.7 3.213z" transform="translate(-114.214 -126.374)"/><path d="m259.324 231.738a4.294 4.294 0 0 1 -2.49 4.043 8.861 8.861 0 0 1 -3.454.8q-.616.027-3.641.027h-3.266q-.456 0-.456-.228t.83-.227q.963 0 1.137-.2a2.41 2.41 0 0 0 .174-1.218v-14.484a4.488 4.488 0 0 0 -.107-1.366q-.188-.321-1.366-.348-.723 0-.723-.282 0-.253.67-.253h.321a2.049 2.049 0 0 0 .536.081h5.221a8.061 8.061 0 0 1 4.311.964 3.588 3.588 0 0 1 1.66 3.186 3.747 3.747 0 0 1 -1.366 2.986 7.078 7.078 0 0 1 -3.829 1.46v.16a8.2 8.2 0 0 1 3.8 1.017 4.285 4.285 0 0 1 2.034 3.883m-3.588-9.238q0-2.57-1.178-3.427a4.2 4.2 0 0 0 -2.33-.455q-.456 0-1.419.08v7.765h.241l1.473-.053a3.038 3.038 0 0 0 2.37-1.084 4.334 4.334 0 0 0 .844-2.825m.776 8.943q0-3.373-2.731-4.177a12.05 12.05 0 0 0 -2.972-.241v7.973q0 .777.161.884a3.418 3.418 0 0 0 1.5.188 3.836 3.836 0 0 0 2.946-1.178 4.9 4.9 0 0 0 1.1-3.454" transform="translate(-133.696 -118.497)"/><path d="m289.74 241.57a2.362 2.362 0 0 1 -.415.951 5.925 5.925 0 0 1 -.843 1.111 4.109 4.109 0 0 1 -3.079 1.179 5.28 5.28 0 0 1 -4.03-1.74 6.087 6.087 0 0 1 -1.62-4.311 6.627 6.627 0 0 1 1.54-4.472 4.854 4.854 0 0 1 3.842-1.794 4.7 4.7 0 0 1 3.186 1.111 3.849 3.849 0 0 1 1.366 2.852 13.657 13.657 0 0 1 -2.276.107h-1.875q-.187 0-3.213.08a11.208 11.208 0 0 0 -.134 1.681 7.107 7.107 0 0 0 1.031 4.148 3.355 3.355 0 0 0 2.905 1.454 2.79 2.79 0 0 0 1.713-.482 5.894 5.894 0 0 0 1.392-1.847.326.326 0 0 1 .294-.215c.143 0 .214.063.214.187m-2.329-5.462q-.107-3.213-2.3-3.213-2.168 0-2.7 3.213z" transform="translate(-152.063 -126.374)"/><path d="m315.858 243.282q0 .456-.946.95a3.935 3.935 0 0 1 -1.824.5 1.732 1.732 0 0 1 -1.918-1.9 3.321 3.321 0 0 1 -3.143 1.981 2.692 2.692 0 0 1 -1.892-.683 2.272 2.272 0 0 1 -.746-1.754q0-2.2 2.626-3.482a14.514 14.514 0 0 1 3.13-.856v-.67a12.5 12.5 0 0 0 -.241-3.107 1.827 1.827 0 0 0 -1.927-1.365 2.407 2.407 0 0 0 -1.567.509 1.584 1.584 0 0 0 -.629 1.285c0 .143.109.214.327.214a.752.752 0 0 1 .588.322 1.113 1.113 0 0 1 .262.723 1.035 1.035 0 0 1 -1.166 1.178 1.334 1.334 0 0 1 -1.007-.414 1.465 1.465 0 0 1 -.4-1.057 2.849 2.849 0 0 1 .991-2.169 4.4 4.4 0 0 1 3.052-.991q2.945 0 3.615 1.607a7.923 7.923 0 0 1 .241 2.436v5.007q0 1.232.026 1.446.134.964.777.964a1.584 1.584 0 0 0 1.231-.536q.268-.294.4-.295c.089 0 .134.054.134.161m-4.712-2.838v-1.954a6.773 6.773 0 0 0 -2.838 1.192 2.46 2.46 0 0 0 -.858 1.968 2.035 2.035 0 0 0 .488 1.406 1.573 1.573 0 0 0 1.228.549 2.05 2.05 0 0 0 1.82-1.285 5.953 5.953 0 0 0 .159-1.875" transform="translate(-165.998 -126.373)"/><path d="m339.968 243.96q0 .188-.588.214a9.663 9.663 0 0 0 -3.669.911.432.432 0 0 1 -.188.054c-.107 0-.161-.072-.161-.214v-1.5a3.969 3.969 0 0 1 -3.427 1.714 3.28 3.28 0 0 1 -2.816-1.143 2.145 2.145 0 0 1 -.412-.878 19.538 19.538 0 0 1 -.067-2.154v-6.089a2.935 2.935 0 0 0 -.107-1.09q-.107-.159-.722-.186h-.348q-.723.054-.723-.214 0-.187.456-.188.482 0 1.392.071.455.036.535.036a13.276 13.276 0 0 0 1.741-.107v7.435a8.758 8.758 0 0 0 .268 2.718 1.691 1.691 0 0 0 1.741 1.039 2.238 2.238 0 0 0 2.089-1.173 5.773 5.773 0 0 0 .482-2.718v-4.13a8.476 8.476 0 0 0 -.08-1.36v-.879q-.027-.4-.174-.467a1.757 1.757 0 0 0 -.6-.067q-1.125.028-1.125-.24 0-.16.562-.159h3.641v7.47a21.672 21.672 0 0 0 .079 2.436q.079.509.41.59a8.37 8.37 0 0 0 1.5.08q.316 0 .317.187" transform="translate(-177.604 -126.756)"/><path d="m363.5 240.642q0 .242-.67.857a3.927 3.927 0 0 1 -2.731 1.044 3.019 3.019 0 0 1 -2.222-.748 4.292 4.292 0 0 1 -.429-2.511v-7.961a.3.3 0 0 0 -.294-.294h-1.018q-.589 0-.589-.187c0-.125.1-.2.293-.214a4.122 4.122 0 0 0 3.245-2.059.469.469 0 0 1 .4-.244.165.165 0 0 1 .186.141.153.153 0 0 1 0 .047v.562a5.863 5.863 0 0 0 .107 1.446 4.118 4.118 0 0 0 .8.054 8.99 8.99 0 0 0 1.954-.134.813.813 0 0 1 .187-.027c.142 0 .214.078.214.231q0 .385-2.169.385h-1.1v4.954a33.748 33.748 0 0 0 .188 4.7 1.108 1.108 0 0 0 1.232.95 3.145 3.145 0 0 0 1.982-.991.305.305 0 0 1 .241-.134c.125 0 .188.044.188.134" transform="translate(-193.26 -124.107)"/><path d="m382.4 233.327q0 .191-.643.218a2.692 2.692 0 0 0 -.816.109.771.771 0 0 0 -.308.464l-.188.491-.214.67q-.376 1.232-1.125 3.668-2.116 6.8-3.508 10.55-.857 2.275-2.356 2.276a1.52 1.52 0 0 1 -1.058-.375 1.242 1.242 0 0 1 -.415-.964 1.1 1.1 0 0 1 .335-.83 1.2 1.2 0 0 1 .87-.321 1.1 1.1 0 0 1 1.044.589q.242.455.4.455.241 0 .749-1.312.75-1.955 1.178-3.508-1.981-5.193-3.374-9.077a17.938 17.938 0 0 0 -1.071-2.677 1.666 1.666 0 0 0 -.87-.134q-.709 0-.71-.267c0-.143.117-.215.348-.215.2 0 .5.018.91.054s.723.054.938.054h.484q.561-.036 1.553-.072l1.365-.036c.2 0 .295.077.295.228q0 .2-.991.228-.83.026-.83.264a9.523 9.523 0 0 0 .545 1.634q.211.617.451 1.287l.468 1.334q.182.591.969 2.686.276.644.607 1.556 2.568-8.063 2.568-8.464a.268.268 0 0 0 -.2-.3 6.693 6.693 0 0 0 -1.146-.054c-.18 0-.269-.071-.269-.216 0-.125.107-.188.321-.188a.556.556 0 0 1 .215.036q.909.071 1.5.072h.749a2.279 2.279 0 0 0 .629-.054 1.057 1.057 0 0 1 .362-.054c.161 0 .241.064.241.191" transform="translate(-201.295 -126.723)"/><path d="m424 230.323c0-.036-.018.205-.054.723q-.107 1.553-.107 3c0 .107.018.326.054.656a11.292 11.292 0 0 1 .053 1.191v.241c0 .232-.071.348-.214.348s-.267-.134-.375-.4a2.744 2.744 0 0 0 -.75-1.151 6.794 6.794 0 0 1 -4.632 1.687 8.574 8.574 0 0 1 -6.52-2.745 9.7 9.7 0 0 1 -2.584-6.922 9.952 9.952 0 0 1 2.369-6.868 7.809 7.809 0 0 1 6.119-2.664 8.42 8.42 0 0 1 2.182.227 9.146 9.146 0 0 1 2.022.924 2.018 2.018 0 0 0 .883.347c.161 0 .312-.142.456-.428q.348-.749.562-.749a.189.189 0 0 1 .214.161.2.2 0 0 1 0 .053 1.817 1.817 0 0 1 -.054.348 25.669 25.669 0 0 0 -.294 4.82 1.152 1.152 0 0 1 -.08.589.29.29 0 0 1 -.214.08q-.269 0-.348-.509a9.085 9.085 0 0 0 -.991-3.186 4.486 4.486 0 0 0 -4.124-2.142 4.31 4.31 0 0 0 -3.427 1.446q-2.276 2.6-2.276 7.6a11.241 11.241 0 0 0 1.875 6.935 5.183 5.183 0 0 0 4.337 2.142 4.892 4.892 0 0 0 2.544-.683 4.61 4.61 0 0 0 1.768-1.861 10.827 10.827 0 0 0 .991-2.972q.107-.643.348-.643.268 0 .268.4" transform="translate(-222.245 -118.179)"/><path d="m453.809 234.43a1.432 1.432 0 0 1 -.375 1.017 1.259 1.259 0 0 1 -.964.4 1.178 1.178 0 0 1 -.8-.281.9.9 0 0 1 -.321-.71.928.928 0 0 1 .241-.643q.241-.267.241-.375 0-.4-.589-.4a1.524 1.524 0 0 0 -1.285.932 9.113 9.113 0 0 0 -.616 4.05v5.28a.37.37 0 0 0 .228.4 6.834 6.834 0 0 0 1.379.107c.2.036.294.107.294.214 0 .125-.117.188-.348.188h-5.194c-.286 0-.429-.054-.429-.161s.116-.161.348-.161h.375q.911 0 1.071-.215a4.4 4.4 0 0 0 .054-1v-7.4q0-1.48-.442-1.709a3.416 3.416 0 0 0 -1.4-.255c-.215 0-.321-.063-.321-.187s.088-.188.267-.188h.187a8.034 8.034 0 0 1 .8.04 2.821 2.821 0 0 1 .348.04 5.257 5.257 0 0 0 2.2-.563l.348-.161.214-.08a7.83 7.83 0 0 1 .107 1.286v.535a2.655 2.655 0 0 1 2.41-1.821 2.007 2.007 0 0 1 1.419.522 1.7 1.7 0 0 1 .562 1.3" transform="translate(-241.856 -126.438)"/><path d="m476.227 241.569a2.363 2.363 0 0 1 -.415.951 5.882 5.882 0 0 1 -.844 1.111 4.105 4.105 0 0 1 -3.079 1.179 5.28 5.28 0 0 1 -4.029-1.74 6.086 6.086 0 0 1 -1.62-4.311 6.629 6.629 0 0 1 1.539-4.472 4.856 4.856 0 0 1 3.843-1.794 4.7 4.7 0 0 1 3.187 1.111 3.845 3.845 0 0 1 1.365 2.852 13.646 13.646 0 0 1 -2.276.107h-1.875q-.187 0-3.213.08a11.212 11.212 0 0 0 -.133 1.682 7.107 7.107 0 0 0 1.031 4.148 3.354 3.354 0 0 0 2.905 1.454 2.79 2.79 0 0 0 1.713-.482 5.9 5.9 0 0 0 1.392-1.847.326.326 0 0 1 .294-.214c.142 0 .215.062.215.187m-2.33-5.462q-.108-3.213-2.3-3.213-2.168 0-2.7 3.213z" transform="translate(-253.43 -126.374)"/><path d="m502.343 243.282q0 .456-.946.95a3.939 3.939 0 0 1 -1.825.5 1.732 1.732 0 0 1 -1.918-1.9 3.32 3.32 0 0 1 -3.143 1.981 2.7 2.7 0 0 1 -1.892-.683 2.27 2.27 0 0 1 -.745-1.754q0-2.2 2.626-3.482a14.514 14.514 0 0 1 3.13-.856v-.67a12.5 12.5 0 0 0 -.241-3.107 1.827 1.827 0 0 0 -1.928-1.365 2.408 2.408 0 0 0 -1.567.509 1.584 1.584 0 0 0 -.629 1.285c0 .143.108.214.328.214a.754.754 0 0 1 .588.322 1.117 1.117 0 0 1 .262.723 1.035 1.035 0 0 1 -1.167 1.178 1.332 1.332 0 0 1 -1.007-.414 1.465 1.465 0 0 1 -.4-1.057 2.85 2.85 0 0 1 .991-2.169 4.4 4.4 0 0 1 3.052-.991q2.945 0 3.615 1.607a7.925 7.925 0 0 1 .241 2.436v5.007q0 1.232.026 1.446.133.964.777.964a1.584 1.584 0 0 0 1.231-.536q.268-.294.4-.295c.089 0 .134.054.134.161m-4.713-2.838v-1.954a6.777 6.777 0 0 0 -2.838 1.192 2.462 2.462 0 0 0 -.857 1.968 2.035 2.035 0 0 0 .488 1.406 1.574 1.574 0 0 0 1.228.549 2.05 2.05 0 0 0 1.821-1.285 5.95 5.95 0 0 0 .158-1.875" transform="translate(-267.364 -126.373)"/><path d="m521.239 240.642q0 .242-.67.857a3.927 3.927 0 0 1 -2.731 1.044 3.02 3.02 0 0 1 -2.223-.748 4.3 4.3 0 0 1 -.429-2.511v-7.961a.3.3 0 0 0 -.294-.294h-1.017q-.59 0-.589-.187t.292-.214a4.122 4.122 0 0 0 3.246-2.059.469.469 0 0 1 .4-.244.165.165 0 0 1 .186.142.143.143 0 0 1 0 .046v.562a5.838 5.838 0 0 0 .107 1.446 4.117 4.117 0 0 0 .8.054 9 9 0 0 0 1.955-.134.8.8 0 0 1 .187-.027c.143 0 .214.078.214.231q0 .385-2.169.385h-1.1v4.954a33.819 33.819 0 0 0 .187 4.7 1.109 1.109 0 0 0 1.232.95 3.148 3.148 0 0 0 1.982-.991.3.3 0 0 1 .24-.134c.125 0 .188.044.188.134" transform="translate(-279.003 -124.107)"/><path d="m541.4 241.57a2.367 2.367 0 0 1 -.415.951 5.894 5.894 0 0 1 -.843 1.111 4.11 4.11 0 0 1 -3.079 1.179 5.28 5.28 0 0 1 -4.03-1.74 6.087 6.087 0 0 1 -1.62-4.311 6.624 6.624 0 0 1 1.54-4.472 4.854 4.854 0 0 1 3.842-1.794 4.7 4.7 0 0 1 3.186 1.111 3.849 3.849 0 0 1 1.366 2.852 13.764 13.764 0 0 1 -2.276.107h-1.871q-.188 0-3.213.08a11.122 11.122 0 0 0 -.133 1.681 7.11 7.11 0 0 0 1.031 4.149 3.355 3.355 0 0 0 2.905 1.454 2.784 2.784 0 0 0 1.713-.482 5.887 5.887 0 0 0 1.393-1.847.326.326 0 0 1 .294-.215c.143 0 .214.063.214.187m-2.329-5.462q-.108-3.213-2.3-3.213-2.168 0-2.7 3.213z" transform="translate(-288.856 -126.374)"/><path d="m564.035 234.43a1.432 1.432 0 0 1 -.375 1.017 1.259 1.259 0 0 1 -.964.4 1.177 1.177 0 0 1 -.8-.281.9.9 0 0 1 -.322-.71.93.93 0 0 1 .241-.643c.161-.178.242-.3.242-.375q0-.4-.589-.4a1.524 1.524 0 0 0 -1.285.932 9.116 9.116 0 0 0 -.616 4.05v5.28a.371.371 0 0 0 .228.4 6.828 6.828 0 0 0 1.378.107c.2.036.295.107.295.214 0 .125-.117.188-.348.188h-5.194q-.429 0-.429-.161t.348-.161h.375q.911 0 1.071-.215a4.368 4.368 0 0 0 .055-1v-7.4q0-1.48-.442-1.709a3.422 3.422 0 0 0 -1.406-.255c-.214 0-.321-.063-.321-.187s.089-.188.267-.188h.188a8.036 8.036 0 0 1 .8.04 2.82 2.82 0 0 1 .348.04 5.255 5.255 0 0 0 2.195-.563l.349-.161.214-.08a7.884 7.884 0 0 1 .107 1.286v.535a2.654 2.654 0 0 1 2.41-1.821 2 2 0 0 1 1.419.522 1.7 1.7 0 0 1 .563 1.3" transform="translate(-301.77 -126.438)"/><path d="m585.206 240.6a3.532 3.532 0 0 1 -1.129 2.643 3.761 3.761 0 0 1 -2.7 1.087 5.215 5.215 0 0 1 -2.207-.643 1.335 1.335 0 0 0 -.612-.188q-.372 0-.558.509-.107.321-.292.321t-.186-.214v-3.588c0-.2.062-.294.187-.294q.214 0 .241.3a4.009 4.009 0 0 0 .7 1.942 3.418 3.418 0 0 0 2.865 1.4 2.15 2.15 0 0 0 1.552-.564 1.983 1.983 0 0 0 .589-1.5 2.153 2.153 0 0 0 -.669-1.664 2.894 2.894 0 0 0 -.682-.5q-.308-.147-1.808-.711-2.971-1.128-2.972-3.381a3.446 3.446 0 0 1 1.009-2.523 3.378 3.378 0 0 1 2.5-1.02 6.108 6.108 0 0 1 1.594.322 1.682 1.682 0 0 0 .478.08.645.645 0 0 0 .69-.536c.052-.178.133-.267.239-.267.124 0 .186.072.186.214v1.285a14.919 14.919 0 0 0 .134 2.061v.054a.191.191 0 0 1 -.214.215q-.161 0-.4-.811a3.128 3.128 0 0 0 -1.031-1.567 2.629 2.629 0 0 0 -1.7-.594 2.081 2.081 0 0 0 -1.5.563 1.886 1.886 0 0 0 -.589 1.423q0 1.341 1.794 2.04a12.472 12.472 0 0 1 3.535 1.825 3.064 3.064 0 0 1 .963 2.281" transform="translate(-313.918 -125.894)"/></g></svg>