<svg height="160.051" viewBox="0 0 376.035 160.051" width="376.035" xmlns="http://www.w3.org/2000/svg"><path d="m-116.27-20.4a1.271 1.271 0 0 1 1.32 1.32v.77a1.241 1.241 0 0 1 -1.32 1.32h-.77a1.241 1.241 0 0 1 -1.32-1.32v-.77a1.271 1.271 0 0 1 1.32-1.32zm5.06 1.32a1.271 1.271 0 0 1 1.32-1.32h.715a1.227 1.227 0 0 1 1.265 1.32v.77a1.2 1.2 0 0 1 -1.265 1.32h-.715a1.241 1.241 0 0 1 -1.32-1.32zm-3.74-5.885a1.271 1.271 0 0 1 -1.32 1.32h-.77a1.271 1.271 0 0 1 -1.32-1.32v-.715a1.271 1.271 0 0 1 1.32-1.32h.77a1.271 1.271 0 0 1 1.32 1.32zm5.06 1.32a1.271 1.271 0 0 1 -1.32-1.32v-.715a1.271 1.271 0 0 1 1.32-1.32h.715a1.227 1.227 0 0 1 1.265 1.32v.715a1.227 1.227 0 0 1 -1.265 1.32zm-.77-15.235c0-1.155.385-1.54 1.43-1.815.495-.11 3.52-.77 3.685-.77a1.977 1.977 0 0 1 .6.11 1.848 1.848 0 0 0 .77.275.6.6 0 0 0 .6-.55 7.432 7.432 0 0 0 -.77-1.76c-1.045-1.98-1.43-2.53-1.87-2.53a1.748 1.748 0 0 0 -.495.165 31.513 31.513 0 0 1 -6.38 1.43c-1.6.22-2.75.33-3.795.385-1.21.055-2.2.11-3.465.275a.893.893 0 0 1 -.5-.275c-.55-.5-4.84-1.6-5.335-1.6-.715 0-.825.88-.99 1.6a56.375 56.375 0 0 1 -7.92 19.47 3.567 3.567 0 0 0 -.88 1.76 2.3 2.3 0 0 0 .44 1.155c1.155 1.595 1.815 2.585 2.53 2.585.44 0 1.1-.495 2.09-2.09a.557.557 0 0 1 .385-.22c.22 0 .33.22.33.44v16.06c0 2.255-.11 4.51-.11 6.765 0 1.595.44 1.65 2.53 1.65 1.98 0 2.475-.055 2.475-1.65 0-2.255-.11-4.51-.11-6.765v-21.12c0-1.925.055-2.915.66-3.355.275-.22.6-.385.6-.715 0-.55-.66-.66-1.045-.66-.275-.055-.44-.22-.44-.44 0-.11 0-.11.055-.165a67.829 67.829 0 0 0 3.19-9.79 6.649 6.649 0 0 1 .44-1.375.557.557 0 0 1 .385-.22c.275 0 .44.33.5.55.44 1.925.88 2.53 1.925 2.53a17.892 17.892 0 0 0 2.42-.165 1.055 1.055 0 0 1 1.21 1.21v.385c0 .88-.385 1.265-1.32 1.265-1.65.055-3.3-.11-4.95-.11-1.155 0-1.1.715-1.1 2.09 0 1.43-.055 2.035 1.155 2.035 1.6 0 3.245-.11 4.84-.11h.33c.77 0 1.045.33 1.045 1.045v.5c0 .77-.33 1.045-1.045 1.045h-.605c-.99 0-2.035-.055-3.08-.055-1.54 0-2.09.6-2.09 2.145 0 .99.055 1.925.055 2.86v6.82c0 .935-.055 1.925-.055 2.86 0 1.6.55 2.2 2.145 2.2.99 0 2.035-.11 3.025-.11h.605c.77 0 1.045.33 1.045 1.045v.605c0 .715-.33.99-1.045.99h-.935c-1.54 0-3.08-.055-4.675-.055-1.045 0-1.045.605-1.045 1.925 0 1.265-.055 2.035.99 2.035 1.6 0 3.19-.11 4.73-.11h.44c1.1 0 1.54.495 1.54 1.54v.825c0 1.045-.385 1.6-1.43 1.705-1.705.22-3.08.22-4.07.275-2.09.11-2.805.11-2.805.825a19.649 19.649 0 0 0 .73 3.015c.44 1.43.55 1.925 1.155 1.925.385 0 .495-.22.6-.55.165-.55.44-.66 1.6-.825 2.365-.33 4.73-.55 7.04-.88 2.035-.275 4.07-.55 6.1-.88.44-.055.77.11.77.55a.782.782 0 0 1 -.11.33 1.621 1.621 0 0 0 -.275.715c0 1.045 2.695 2.255 3.685 2.255.605 0 .825-.495 1.54-1.76 4.125-7.48 6.16-20.57 6.16-29.1v-.825c0-.77.33-1.265 1.21-1.265 1.54 0 2.145.055 2.145 1.87 0 4.95-.44 18.04-1.43 22.5-.66 2.86-1.1 3.025-3.63 3.025h-1.32c-.935 0-.99.88-.99 1.76a12.4 12.4 0 0 0 .44 2.86c.33.935.88 1.045 2.75 1.045a7.03 7.03 0 0 0 5.17-1.6c2.425-2.085 2.81-8.3 3.08-11.44.5-5.61 1.045-16.335.825-21.89-.055-2.31-1.1-3.3-3.41-3.3-1.1 0-2.2.11-3.3.055-1.045 0-1.43-.495-1.43-1.485v-5.06c0-1.76.055-2.31.715-2.7.275-.22.6-.385.6-.77 0-.495-.44-.6-.825-.66-.77-.11-3.9-.33-4.675-.33-.605 0-.99.165-.99.825 0 .165.055.385.055.55q.165 1.9.165 3.8v4.51c0 .825-.385 1.21-1.265 1.21h-.55c-1.265 0-1.21.715-1.21 2.7 0 1.925-.055 2.64 1.21 2.64h.55c.825 0 1.21.33 1.21 1.155-.275 8.8-1.1 17.05-4.455 25.3a.286.286 0 0 1 -.22.11.2.2 0 0 1 -.22-.22c-.055-.715-.165-1.7-1.045-1.7-.33 0-3.135.44-3.795.55h-.165c-.77 0-1.045-.5-1.045-1.155v-.715c0-.935.385-1.32 1.32-1.32h.44c1.6 0 3.135.11 4.73.11 1.045 0 1.045-.77 1.045-1.98 0-1.265.055-1.98-1.045-1.98-1.6 0-3.135.055-4.73.055h-.715c-.715 0-1.045-.275-1.045-1.045v-.55a.91.91 0 0 1 1.045-1.045h.495c1.045 0 2.09.11 3.135.11 1.6 0 2.09-.715 2.09-2.255 0-.935-.055-1.87-.055-2.805v-6.82c0-.935.055-1.87.055-2.86 0-1.595-.6-2.145-2.2-2.145-.99 0-2.035.055-3.025.055h-.495c-.715 0-1.045-.275-1.045-1.045v-.5a.91.91 0 0 1 1.045-1.045h.77c1.65 0 3.245.11 4.9.11 1.21 0 1.1-.715 1.1-2.035s.11-2.09-1.1-2.09c-1.65 0-3.245.11-4.9.11h-.275c-1.1 0-1.54-.44-1.54-1.54zm63.69-1.65c-.605-.605-2.2-2.475-2.915-2.475-.33 0-.6.385-.825.66-2.585 3.3-7.04 7.04-10.285 9.735-1.925 1.54-5.72 4.62-7.095 6.435a6.245 6.245 0 0 0 -1.21 3.8c0 2.475 1.1 4.07 2.64 5.83 2.7 3.19 5.72 6.16 8.69 9.13 2.255 2.31 4.565 4.62 6.655 7.1.33.44 1.1 1.43 1.705 1.43 1.32 0 4.675-3.135 4.675-4.455 0-1.1-3.8-4.18-4.73-5-3.41-3.025-6.82-6.105-9.955-9.46-.935-.99-2.75-2.97-2.75-4.345 0-1.045 1.21-2.145 2.255-3.135 2.86-2.75 5.995-5.28 9.075-7.81q2.063-1.65 4.125-3.135a2.457 2.457 0 0 1 1.485-.66c.385 0 1.155.055 1.155-.5 0-.615-2.2-2.655-2.695-3.15zm49.94 7.1c0-.935.385-1.32 1.32-1.32h10.89c2.2 0 4.345.11 6.545.11 1.21 0 1.155-.715 1.155-2.31 0-1.65.055-2.365-1.155-2.365-2.2 0-4.345.11-6.545.11h-3.63c-.385 0-.825-.165-.825-.66a.819.819 0 0 1 .22-.5c.55-.77.99-1.54 1.54-2.31a1.259 1.259 0 0 1 .935-.44c.385-.055.99-.11.99-.605s-.6-.77-2.585-1.595a17.049 17.049 0 0 0 -3.355-1.1c-.44 0-.55.275-.715.66a43.656 43.656 0 0 1 -2.97 5.445 2.183 2.183 0 0 1 -2.255 1.1h-8.745c-.11 0-.275-.055-.275-.165 0-.055 0-.11.165-.22.55-.22 1.65-.6 1.65-1.32 0-.6-1.045-1.87-1.43-2.475-.605-.825-2.09-3.135-3.19-3.135-.6 0-4.125.935-4.125 2.035 0 .275.33.605.495.825a36.585 36.585 0 0 1 2.53 3.245.887.887 0 0 1 .165.495c0 .55-.385.715-.825.715h-3.9c-2.145 0-4.29-.11-6.49-.11-1.21 0-1.21.55-1.21 2.365 0 1.76 0 2.31 1.21 2.31 2.2 0 4.345-.11 6.49-.11h10.72c.88 0 1.265.385 1.265 1.32v.715c0 .88-.385 1.265-1.265 1.265h-6.215c-2.09 0-4.18-.11-6.215-.11-1.21 0-1.21.6-1.21 2.255s0 2.2 1.21 2.2c2.09 0 4.18-.11 6.215-.11h6.215c.88 0 1.265.385 1.265 1.32v.825c0 .88-.385 1.32-1.265 1.32h-12.375c-2.145 0-4.345-.165-6.545-.165-1.155 0-1.155.6-1.155 2.365 0 1.65 0 2.255 1.155 2.255 2.2 0 4.4-.11 6.545-.11h12.045c.935 0 1.375.385 1.375 1.43a5.484 5.484 0 0 1 -.11.88c-.165 1.1-.66 1.43-1.76 1.43h-10.34c-2.2 0-4.345-.11-6.545-.11-1.155 0-1.155.66-1.155 2.42 0 1.7 0 2.365 1.155 2.365 2.2 0 4.345-.165 6.545-.165h8.525c.44.055.88.22.88.715a.988.988 0 0 1 -.22.495c-4.125 4.785-11 6.875-17.16 7.755-.88.11-1.155.275-1.155.825 0 1.265 1.045 4.455 2.585 4.455a35.406 35.406 0 0 0 6.16-1.385c5.775-1.755 11.22-4.5 14.905-9.455a1.3 1.3 0 0 1 .88-.495 1.044 1.044 0 0 1 .825.44c3.575 4.51 7.7 7.04 13.035 9.02 1.485.55 6.325 2.145 7.7 2.145 1.7 0 2.86-2.75 2.86-4.18 0-.99-.44-1.155-1.32-1.32-6.325-1.155-12.815-3.245-17.49-7.92a.819.819 0 0 1 -.22-.5c0-.44.385-.55.715-.6h9.295c2.145 0 4.29.165 6.49.165 1.21 0 1.155-.66 1.155-2.365s.055-2.42-1.155-2.42c-2.145 0-4.345.11-6.49.11h-11.44c-.66 0-1.375-.22-1.375-.99a1.314 1.314 0 0 1 .165-.495.978.978 0 0 1 .44-.385c.33-.165.88-.33.88-.77 0-.6-1.045-.77-2.035-.935-.055 0-.11 0-.11-.055a.118.118 0 0 1 .11-.11h14.575c2.2 0 4.345.11 6.545.11 1.155 0 1.21-.55 1.21-2.31s0-2.31-1.21-2.31c-2.2 0-4.345.165-6.545.165h-12.32c-.935 0-1.32-.44-1.32-1.32v-.82c0-.935.385-1.32 1.32-1.32h6.325c2.09 0 4.125.11 6.215.11 1.265 0 1.21-.605 1.21-2.2 0-1.65.055-2.255-1.21-2.255-2.09 0-4.125.11-6.215.11h-6.325c-.935 0-1.32-.385-1.32-1.265zm74.14 9.23c0-.44-.55-.715-.825-.88a50.111 50.111 0 0 1 -11.055-8.085c-.275-.275-.66-.77-1.1-.77-.77 0-3.3 2.09-3.3 2.8 0 1.485 11.6 10.285 13.31 10.285 1.1.005 2.97-2.58 2.97-3.35zm-27.17-6.27c0-.44-.935-1.155-1.7-1.7-.935-.715-2.31-1.87-2.75-1.87a.9.9 0 0 0 -.66.44 40.1 40.1 0 0 1 -10.945 8.25c-.44.22-1.375.6-1.375 1.21 0 .715 1.87 3.3 2.915 3.3a6.292 6.292 0 0 0 2.255-.99 47.112 47.112 0 0 0 9.9-7.535 1.712 1.712 0 0 1 1.045-.605h.55c.325-.005.765-.115.765-.5zm9.405-9.9c-1.045 0-1.43-.385-1.54-1.43.055-1.045 0-1.76.6-2.255.385-.275.66-.385.66-.77 0-.66-1.045-.66-1.6-.715-1.1-.11-3.575-.33-4.62-.33-.495 0-1.045.055-1.045.715 0 .165.055.385.055.495a25.027 25.027 0 0 1 .22 2.86c-.055 1.045-.55 1.43-1.54 1.43h-9.505c-1.98 0-3.96-.055-5.94-.055-1.54 0-3.025.385-3.025 2.2 0 .6.11 1.65.11 2.915v2.75c0 .715-.165 1.54-.165 2.255 0 1.32.935 1.265 2.86 1.265 1.815 0 2.805.055 2.805-1.21 0-.66-.165-1.595-.165-2.31v-1.21a1.347 1.347 0 0 1 1.54-1.54h31.9c1.045 0 1.485.495 1.485 1.54v1.43c0 .715-.11 1.65-.11 2.31 0 1.21.935 1.21 2.86 1.21 2.035 0 2.805 0 2.805-1.265 0-.66-.11-1.595-.11-2.255v-2.97c0-1.21.055-2.255.055-2.915 0-1.815-1.54-2.2-3.025-2.2-1.98 0-3.96.055-5.94.055zm-10.835 36.795a1.36 1.36 0 0 1 -1.485-1.485v-4.125c0-.99.55-1.43 1.485-1.54h12.815a1.537 1.537 0 0 1 1.54 1.54v4.125a1.458 1.458 0 0 1 -1.54 1.485zm-.715-12.87a64.174 64.174 0 0 0 6.215-5.39 1.563 1.563 0 0 1 1.045-.495 1.337 1.337 0 0 1 .99.495c2.2 2.09 3.85 3.52 6.215 5.39a.6.6 0 0 1 .22.495c0 .22-.11.385-.5.44h-13.91c-.275 0-.55-.11-.55-.44 0-.22.11-.33.275-.495zm21.615 4.95c1.1.715 5.94 3.685 6.985 3.685.99 0 3.025-2.8 3.025-3.795 0-.55-1.045-.99-1.485-1.21a71.947 71.947 0 0 1 -19.085-12.87.331.331 0 0 1 -.055-.22.365.365 0 0 1 .22-.275.71.71 0 0 0 .5-.66c0-.66-.825-1.045-1.54-1.43-.165-.055-.44-.22-.77-.385a9.462 9.462 0 0 0 -2.475-1.1c-.44 0-.825.5-1.1.825-5.56 6.765-13.81 12.32-21.785 15.84-.55.22-1.54.605-1.54 1.32 0 .77 1.87 3.74 3.3 3.74.99 0 5.775-2.805 6.875-3.465a1.314 1.314 0 0 1 .495-.11c.55 0 .715.385.77.88v9.845c0 1.1-.11 2.475-.11 3.19 0 1.155.66 1.1 2.695 1.1 2.2 0 2.805.055 2.75-1.265.055-.715.33-.99 1.045-.99h13.64c.66 0 .99.275.99.99v.275c0 1.155.77 1.1 2.75 1.1 2.09 0 2.75 0 2.75-1.1 0-.165-.11-2.75-.11-3.19v-9.955c0-.495.165-.935.715-.935.22 0 .33.11.55.165zm53.79-25.135c0-1.1.44-1.54 1.485-1.54h2.42c2.145 0 4.235.11 6.325.11 1.375 0 1.32-.77 1.32-2.64s.055-2.64-1.32-2.64c-2.09 0-4.18.165-6.325.165h-12.32c-2.09 0-4.18-.165-6.325-.165-1.375 0-1.32.77-1.32 2.695 0 1.815-.055 2.585 1.32 2.585 2.145 0 4.235-.11 6.325-.11h1.7c1.045 0 1.485.44 1.485 1.54v3.08c0 1.1-.44 1.54-1.485 1.54h-1.54c-1.21 0-2.365-.055-3.52-.055-1.76 0-2.805.385-2.805 2.31 0 1.375.055 2.75.055 4.125v13.585c0 2.145-.11 4.235-.11 6.325 0 1.43.5 1.485 2.64 1.485h.275c2.42 0 2.42-.055 2.31-3.63-.055-1.045-.11-2.42-.11-4.18v-13.31c0-1.1.44-1.54 1.54-1.54h1.265c1.045 0 1.485.44 1.485 1.54v19.91c0 2.475-.11 4.95-.11 7.425 0 1.705.495 1.76 2.75 1.76 2.145 0 2.695-.055 2.695-1.705 0-2.475-.11-5.005-.11-7.48v-19.91c0-1.1.44-1.54 1.485-1.54h1.375c1.1 0 1.54.44 1.54 1.54v12.32c0 2.2-.055 2.53-1.485 2.53h-1.43c-.935 0-.99.88-.99 1.6 0 3.74.715 3.9 2.365 3.9 5.61 0 6.655-1.65 6.655-5.445 0-.99-.11-2.255-.11-3.465v-11.77c0-1.32.055-2.695.055-4.07 0-1.925-1.1-2.31-2.805-2.31-1.21 0-2.365.055-3.52.055h-1.65c-1.045 0-1.485-.44-1.485-1.54zm-22.715 28a1.458 1.458 0 0 1 -1.485 1.535h-4.73a1.574 1.574 0 0 1 -1.54-1.54v-3.41a1.574 1.574 0 0 1 1.54-1.54h4.73a1.458 1.458 0 0 1 1.485 1.54zm-7.755-23.49a1.574 1.574 0 0 1 1.54-1.54h4.07a1.537 1.537 0 0 1 1.54 1.54v2.64a1.5 1.5 0 0 1 -1.54 1.54h-4.07a1.537 1.537 0 0 1 -1.54-1.54zm6.38 29.7c.825 0 1.265.385 1.265 1.21 0 1.6.22 1.6 2.695 1.6 2.145 0 2.695.055 2.695-1.21 0-1.76-.11-3.575-.11-5.335v-5.665c0-1.32.055-2.695.055-4.015 0-2.035-.99-2.475-2.805-2.475-1.375 0-2.75.055-4.125.055h-4.51c-1.1 0-1.54-.44-1.54-1.485v-2.04c0-1.045.44-1.54 1.54-1.54h4.235c.495 0 1.21-.055 1.265.6.11.715.55.715 2.86.715 1.54 0 2.475.055 2.475-1.485 0-.935-.11-2.53-.11-4.015v-3.9c0-1.485.055-2.97.055-4.455 0-1.925-.77-2.42-2.585-2.42-1.1 0-2.2.055-3.3.055-.55-.055-.99-.22-.99-.88a1.523 1.523 0 0 1 .055-.5c.44-.99.77-1.98 1.1-2.97a.77.77 0 0 1 .66-.495c.385-.11.935-.165.935-.66 0-.44-.44-.55-1.485-.88-.55-.165-3.9-1.21-4.125-1.21-.44 0-.55.33-.66.715-.44 1.87-1.1 3.685-1.705 5.555a1.772 1.772 0 0 1 -1.87 1.265h-.77c-1.76 0-2.805.33-2.805 2.31 0 1.54.11 3.08.11 4.565v25.91c0 2.42-.165 4.895-.165 7.315 0 1.595.66 1.65 2.695 1.65 2.2 0 2.75-.055 2.75-1.705 0-.88-.055-1.815-.055-2.7 0-1.045.44-1.485 1.485-1.485zm-276.155 40.865c0-1.21-3.19-2.75-4.07-2.75-.44 0-.6.33-.77.77-1.65 5.115-4.51 12.21-7.425 16.775a1.548 1.548 0 0 0 -.33.825c0 .66 1.43 1.43 1.925 1.76a15.18 15.18 0 0 0 2.97 1.7.634.634 0 0 0 .66-.66c0-.33-.165-.825-.165-1.1a4.336 4.336 0 0 1 .55-1.54 137.97 137.97 0 0 0 5.775-13.035 15.79 15.79 0 0 0 .88-2.745zm0-21.89c0-.77-2.86-2.915-3.52-3.465-.77-.6-3.85-3.19-4.62-3.19-.935 0-3.19 2.585-3.19 3.465 0 .55.55.88.935 1.155a55.261 55.261 0 0 1 5.995 4.73c.275.275.66.715 1.1.715.935 0 3.3-2.475 3.3-3.41zm-1.485 11.99c0-.715-2.86-2.97-3.575-3.52-.605-.55-3.52-2.97-4.18-2.97-.77 0-3.245 2.42-3.245 3.52 0 .5.33.715.88 1.1a44.346 44.346 0 0 1 5.61 4.455c.275.33.77.825 1.155.825.935 0 3.355-2.42 3.355-3.41zm22-9.79a1.574 1.574 0 0 1 1.54 1.54v.88a1.537 1.537 0 0 1 -1.54 1.54h-4.51a1.392 1.392 0 0 1 -1.54-1.54v-.875c0-.935.55-1.43 1.54-1.54zm.935 26.785c-.935 0-1.32-.385-1.32-1.32v-7.7c0-1.045.44-1.54 1.54-1.54h6.1c1.045 0 1.485.495 1.485 1.54v14.85c0 1.65.11 2.475-1.6 2.475-1.1 0-2.2-.165-3.025-.165-.88 0-1.1.66-1.1 1.485 0 3.465 1.375 3.3 2.585 3.3 2.035 0 4.785-.055 6.49-1.265 1.375-.99 1.54-2.75 1.54-4.345 0-.935-.055-1.925-.055-2.915v-13.42c0-1.375.055-2.695.055-4.015 0-1.815-1.045-2.145-2.64-2.145-1.43 0-2.86.11-4.29.11h-4.95c-.935 0-1.32-.385-1.32-1.265v-.66c0-.935.385-1.32 1.32-1.32h7.04c1.98 0 3.96.11 5.995.11 1.32 0 1.265-.55 1.265-2.365 0-1.7.055-2.365-1.265-2.365-1.98 0-3.96.11-5.995.11h-.385c-1.1 0-1.54-.44-1.54-1.54v-.875c0-1.045.385-1.54 1.43-1.54 1.65-.055 3.245.11 4.9.11 1.21 0 1.21-.66 1.21-2.31 0-1.705 0-2.31-1.265-2.31-1.6 0-3.19.165-4.84.11-1.045 0-1.485-.5-1.43-1.54 0-.935 0-1.485.6-1.925.44-.33.66-.44.66-.77 0-.5-.88-.55-1.21-.605-.88-.055-3.9-.275-4.675-.275-.55 0-.935.055-.935.715v.44a13.676 13.676 0 0 1 .22 2.585c-.055 1.045-.55 1.375-1.54 1.375h-4.51c-1.1 0-1.485-.44-1.54-1.485 0-1.045 0-1.705.6-2.145.385-.275.66-.44.66-.77 0-.495-.825-.495-1.155-.55-.935-.055-3.9-.275-4.73-.275-.5 0-.935.055-.935.66v.5a22.25 22.25 0 0 1 .22 2.695c-.055.99-.495 1.375-1.43 1.375-1.65.055-3.245-.11-4.9-.11-1.21 0-1.21.66-1.21 2.31s0 2.31 1.21 2.31c1.65 0 3.245-.165 4.9-.11 1.045 0 1.43.495 1.43 1.54v.88c0 1.1-.44 1.54-1.54 1.54h-.44c-1.98 0-4.015-.11-5.995-.11-1.32 0-1.32.55-1.32 2.365 0 1.705 0 2.365 1.265 2.365 2.035 0 4.015-.11 6.05-.11h6.985c.88 0 1.265.385 1.265 1.32v.66c0 .88-.385 1.265-1.265 1.265h-4.95c-1.375 0-2.8-.055-4.235-.055-1.6 0-2.64.275-2.64 2.09 0 1.375.055 2.695.055 4.07v14.85c0 1.815-.11 3.63-.11 5.5 0 1.43.55 1.485 2.53 1.485 1.925 0 2.475 0 2.475-1.485 0-1.87-.11-3.685-.11-5.5v-14.915c0-1.045.44-1.54 1.54-1.54h5.94c1.1 0 1.54.495 1.54 1.54v7.975c0 .715-.275 1.045-1.045 1.045h-.6c-.77 0-1.045-.33-1.045-1.045v-2.365c0-1.76-.055-2.695.55-3.08.275-.22.5-.33.5-.66 0-.385-.44-.495-.715-.55-.495-.055-2.97-.22-3.41-.22-.385 0-.825 0-.825.495 0 .11.055.275.055.385a15.113 15.113 0 0 1 .11 2.255v5.39c0 1.375-.055 2.695-.055 4.07 0 1.045.33 1.155 1.925 1.155 1.54 0 1.815-.165 1.925-.77a.9.9 0 0 1 .88-.825h7.59c.495.055.715.44.99.77.275.275.66.33 1.76.33 1.6 0 1.925-.055 1.925-1.155 0-1.32-.055-2.64-.055-3.9v-3.69c0-1.815-.055-2.64.55-3.08.22-.165.495-.275.495-.6 0-.495-.6-.55-.99-.6-.66-.055-2.64-.22-3.245-.22-.385 0-.715.055-.715.55a1.074 1.074 0 0 0 .055.385 14.38 14.38 0 0 1 .11 2.2v3.455c0 .935-.385 1.32-1.265 1.32zm35.195-20.74a1.574 1.574 0 0 1 -1.54-1.54v-5.44a1.537 1.537 0 0 1 1.54-1.54h20.85a1.5 1.5 0 0 1 1.54 1.54v5.445a1.537 1.537 0 0 1 -1.54 1.54zm6.105 5.115c1.1 0 1.54.5 1.54 1.54v17.935c-.055.55-.22 1.155-.935 1.155a1.7 1.7 0 0 1 -.5-.055 12.582 12.582 0 0 1 -6.49-5.555 2.444 2.444 0 0 1 -.5-1.32 3.781 3.781 0 0 1 .275-1.32c.495-1.375.825-2.365 1.1-3.135.5-1.54.66-1.98 1.485-2.31.33-.11.77-.33.77-.715 0-.55-.715-.77-1.155-.88a38.031 38.031 0 0 0 -5.115-1.21c-.825 0-.99 1.1-1.155 1.98a43.226 43.226 0 0 1 -8.855 18.095c-.33.385-.935.99-.935 1.485 0 1.155 3.19 2.64 4.18 2.64.77 0 1.43-.825 1.87-1.375a48.926 48.926 0 0 0 4.29-6.82 1.07 1.07 0 0 1 .77-.495.948.948 0 0 1 .77.44 15.544 15.544 0 0 0 6.875 5.445c4.29 1.6 8.085 1.98 18.37 1.98h5.83c1.045 0 2.09-.055 3.135-.055a2.157 2.157 0 0 0 2.365-1.32 7.431 7.431 0 0 0 .55-2.915c0-.825-.22-1.6-1.21-1.6a9.878 9.878 0 0 0 -1.21.11c-2.255.22-6.985.33-9.4.33-2.64 0-5.28 0-7.92-.11-1.045-.055-1.43-.55-1.43-1.6v-6.535c0-1.1.44-1.54 1.54-1.54h7.15c1.98 0 3.96.11 5.885.11 1.265 0 1.265-.6 1.265-2.585 0-2.035.055-2.695-1.265-2.695-1.98 0-3.9.165-5.885.165h-7.15c-1.1-.11-1.54-.5-1.54-1.54v-4.18c0-1.045.44-1.54 1.54-1.54h6.6c.44.055.6.275.77.66.275.66.825.66 2.64.66 2.31 0 3.08.11 3.08-1.265 0-.385-.11-3.135-.11-3.9v-9.465c0-1.1.055-2.2.055-3.3 0-2.145-1.705-2.365-3.41-2.365-1.54 0-3.08.11-4.62.11h-19.14c-1.6 0-3.135-.11-4.675-.11-1.76 0-3.41.22-3.41 2.365 0 1.1.11 2.2.11 3.3v9.46c0 .715-.165 3.63-.165 3.9 0 1.375.825 1.265 3.025 1.265 1.87 0 2.42 0 2.75-.6.165-.44.33-.66.77-.715zm67.375 12.1c.88 0 1.6.055 1.6.495 0 .88-3.8 3.63-4.62 4.18a2.227 2.227 0 0 1 -1.155.385 1.979 1.979 0 0 1 -1.21-.5 27.094 27.094 0 0 1 -3.245-3.41.988.988 0 0 1 -.22-.495c0-.495.385-.6.825-.66zm-3.18 11.555a46.431 46.431 0 0 0 15.56 4.455c.385 0 1.32.165 1.705.165 1.485 0 2.2-2.64 2.2-3.85 0-1.43-.55-1.32-2.42-1.43a41.376 41.376 0 0 1 -11.825-2.31.759.759 0 0 1 -.55-.715.858.858 0 0 1 .385-.715c1.65-1.265 7.92-6.545 7.92-8.525a3.442 3.442 0 0 0 -3.52-2.75c-1.54 0-3.025.055-4.565.055h-15.015c-1.925 0-3.85-.11-5.775-.11-1.155 0-1.155.495-1.155 2.145 0 1.54 0 2.145 1.1 2.145.77 0 1.6-.055 2.365-.055.88 0 1.265.55 1.76 1.21a40.588 40.588 0 0 0 4.62 5.555.94.94 0 0 1 .385.715c0 .385-.275.6-.6.77a50.747 50.747 0 0 1 -11.225 2.255c-.825.055-1.925.055-1.925 1.155a8.641 8.641 0 0 0 .825 2.805c.385.88.715 1.375 1.815 1.375 3.63 0 11.99-2.86 15.455-4.345a3.321 3.321 0 0 1 1.21-.33 2.411 2.411 0 0 1 1.27.33zm1.76-25.905a1.537 1.537 0 0 1 1.54 1.54v.66a1.5 1.5 0 0 1 -1.54 1.54h-5.78a1.537 1.537 0 0 1 -1.54-1.54v-.665a1.574 1.574 0 0 1 1.54-1.54zm-18.15-13.31c-1.815 0-3.575-.11-5.39-.11s-3.025.385-3.025 2.475c0 1.595.11 3.135.11 4.73v7.095c0 8.25-.6 18.37-4.565 25.74a3.494 3.494 0 0 0 -.5 1.155c0 1.265 2.97 2.805 4.07 2.805a1.206 1.206 0 0 0 .99-.6 40.291 40.291 0 0 0 3.19-7.425c1.87-6.05 2.365-13.805 2.365-20.185v-.715c0-1.045.385-1.54 1.485-1.595 1.43-.055 2.915-.055 4.345-.055h.77c1.1 0 1.54.44 1.54 1.54v1.04c0 1.1-.055 2.145-.055 3.245 0 1.65.825 1.98 2.53 1.98 1.6 0 3.245-.11 4.9-.11h5.06c1.54 0 3.08.11 4.62.11 2.035 0 2.475-.6 2.475-2.035 0-1.1-.055-2.145-.055-3.19v-1.05c0-1.1.44-1.54 1.54-1.54h1.87c2.2 0 4.345.11 6.545.11 1.155 0 1.1-.66 1.1-2.2 0-1.595.055-2.255-1.1-2.255-2.2 0-4.345.165-6.545.165h-1.87c-.715 0-1.43-.33-1.43-1.155a1.276 1.276 0 0 1 .5-1.155c.385-.22.715-.385.715-.715 0-.495-.935-.55-1.32-.55-1.32-.055-3.025-.22-4.29-.22-.495 0-1.1 0-1.1.66 0 .11.055.33.055.44a6.272 6.272 0 0 1 .11 1.43c0 .935-.66 1.265-1.485 1.265h-5.785c-.715 0-1.485-.33-1.485-1.155a1.29 1.29 0 0 1 .55-1.21c.33-.22.66-.33.66-.66 0-.385-.495-.495-.825-.55-.66-.055-4.4-.22-5.115-.22-.44 0-.99 0-.99.605 0 .165.055.33.055.495a11.613 11.613 0 0 1 .11 1.43c0 .935-.66 1.265-1.485 1.265h-.77c-1.485 0-2.915-.055-4.4-.11-1.045-.055-1.43-.495-1.43-1.54v-1.26c0-1.1.44-1.54 1.54-1.54h28.6c2.145 0 4.345.11 6.49.11 1.375 0 1.32-.55 1.32-2.475s.055-2.42-1.32-2.42c-2.145 0-4.345.11-6.49.11h-11.055c-.99 0-1.485-.385-1.485-1.43 0-.88 0-1.43.66-1.87.5-.33.77-.44.77-.88 0-.6-.77-.715-1.265-.77-.825-.055-4.565-.33-5.225-.33-.55 0-1.045.11-1.045.77 0 .165.055.33.055.495.11.825.165 1.7.22 2.53-.055 1.1-.5 1.485-1.54 1.485zm56.645 22.935a1.574 1.574 0 0 1 1.54-1.54h16.555a1.574 1.574 0 0 1 1.54 1.54v9.68a1.574 1.574 0 0 1 -1.54 1.54h-16.555a1.574 1.574 0 0 1 -1.54-1.54zm1.54-6.765a1.574 1.574 0 0 1 -1.54-1.54v-8.8a1.574 1.574 0 0 1 1.54-1.54h16.555a1.574 1.574 0 0 1 1.54 1.54v8.8a1.574 1.574 0 0 1 -1.54 1.54zm17.985 24.695a1.523 1.523 0 0 0 -.055.495c0 1.485.66 1.485 3.135 1.485s3.135.055 3.135-1.485c0-2.31-.165-4.565-.165-6.875v-27.555c0-1.76.11-3.52.11-5.28 0-2.255-.935-2.805-3.025-2.805-1.595 0-3.19.11-4.785.11h-16.06c-1.65 0-3.245-.11-4.84-.11-2.145 0-3.025.66-3.025 2.86 0 1.76.11 3.465.11 5.225v27.665c0 2.255-.165 4.565-.165 6.875 0 1.485.77 1.485 3.135 1.485 2.585 0 3.135 0 3.135-1.54v-.55c0-.88.385-1.265 1.265-1.265h16.775c.88 0 1.265.385 1.32 1.265zm48.95-24.31a72.993 72.993 0 0 0 10.67 14.245c1.045 1.1 5.775 5.83 6.985 5.83 1.32 0 3.41-2.64 3.41-3.9 0-.66-.66-1.045-1.375-1.54a62.22 62.22 0 0 1 -16.445-18.485 1.606 1.606 0 0 1 -.11-.5c0-.55.495-.715.935-.77h8.415c2.145 0 4.29.11 6.435.11 1.375 0 1.32-.605 1.32-2.7 0-2.035.055-2.695-1.32-2.695-2.145 0-4.29.165-6.435.165h-11.715c-1.045-.11-1.485-.5-1.485-1.54v-4.61c0-1.705.055-2.805.6-3.245.44-.33.715-.495.715-.88 0-.55-.77-.605-1.155-.66-1.045-.11-4.345-.33-5.225-.33-.55 0-.99.11-.99.77a1.523 1.523 0 0 0 .055.5 29.657 29.657 0 0 1 .165 3.96v4.51c0 1.045-.44 1.54-1.54 1.54h-11.6c-2.145 0-4.29-.165-6.435-.165-1.375 0-1.32.66-1.32 2.75 0 1.98-.055 2.64 1.32 2.64 2.145 0 4.29-.11 6.435-.11h8.085c.22 0 .99.055.99.825a1.606 1.606 0 0 1 -.11.495 58.279 58.279 0 0 1 -16.39 19.08c-.44.33-1.155.825-1.155 1.43 0 1.045 2.475 3.685 3.63 3.685a3.866 3.866 0 0 0 1.98-1.155 67.889 67.889 0 0 0 15.455-19.415.371.371 0 0 1 .33-.22c.22 0 .33.165.33.385v11.22c0 1.1-.44 1.54-1.54 1.54h-.66c-1.76 0-3.465-.11-5.17-.11-1.485 0-1.375.77-1.375 2.75 0 1.87-.11 2.7 1.375 2.7 1.7 0 3.41-.11 5.17-.11h.66c1.045 0 1.54.385 1.54 1.43.055 2.2-.11 4.4-.11 6.655 0 1.705.605 1.76 3.025 1.76s3.025-.055 3.025-1.76c0-2.255-.165-4.455-.11-6.655 0-1.045.495-1.43 1.485-1.43h.77c1.705 0 3.465.11 5.17.11 1.485 0 1.375-.825 1.375-2.7 0-2.035.11-2.75-1.43-2.75-1.705 0-3.41.11-5.115.11h-.77c-1.045 0-1.485-.44-1.485-1.54v-11c0-.22.11-.44.33-.44a.557.557 0 0 1 .385.22zm66.33 6.1c2.475 0 4.895.165 7.37.165 1.54 0 1.43-.825 1.43-3.245 0-2.365.11-3.245-1.43-3.245-2.42 0-4.9.165-7.37.165h-29.92c-2.475 0-4.95-.165-7.37-.165-1.54 0-1.43.935-1.43 3.245 0 2.365-.11 3.245 1.43 3.245 2.42 0 4.9-.165 7.37-.165zm36.355-15.12c.6 0 .88.44.88.99a55.935 55.935 0 0 1 -1.76 10.725c-1.54 5.61-4.62 11.88-7.37 11.88-2.805 0-3.52-5.115-3.52-7.15a17.018 17.018 0 0 1 9.9-15.84 6.187 6.187 0 0 1 1.87-.605zm5.28-6.435c-12.98 0-22.825 10.23-22.825 23.1a17.24 17.24 0 0 0 1.705 7.81c1.485 2.805 4.125 5.225 7.48 5.225 3.025 0 5.445-2.035 7.26-4.235 5.28-6.325 7.205-16.115 7.81-24.145.055-.935.055-2.145 1.32-2.145a9.606 9.606 0 0 1 2.09.495c5.72 1.98 8.8 7.26 8.8 13.145 0 7.865-5.665 12.595-12.87 14.3-.55.11-1.375.22-1.375.77 0 1.21 2.255 4.62 3.685 4.62 1.32 0 4.73-1.54 5.995-2.2a19.762 19.762 0 0 0 10.73-17.765 18.6 18.6 0 0 0 -5.56-13.53 19.56 19.56 0 0 0 -14.24-5.445zm-246.125 61.105c0-.935.385-1.32 1.32-1.32h10.89c2.2 0 4.345.11 6.545.11 1.21 0 1.155-.715 1.155-2.31 0-1.65.055-2.365-1.155-2.365-2.2 0-4.345.11-6.545.11h-3.63c-.385 0-.825-.165-.825-.66a.819.819 0 0 1 .22-.5c.55-.77.99-1.54 1.54-2.31a1.259 1.259 0 0 1 .935-.44c.385-.055.99-.11.99-.605s-.605-.77-2.585-1.595a17.049 17.049 0 0 0 -3.355-1.1c-.44 0-.55.275-.715.66a43.655 43.655 0 0 1 -2.97 5.445 2.183 2.183 0 0 1 -2.255 1.1h-8.745c-.11 0-.275-.055-.275-.165 0-.055 0-.11.165-.22.55-.22 1.65-.6 1.65-1.32 0-.605-1.045-1.87-1.43-2.475-.605-.825-2.09-3.135-3.19-3.135-.605 0-4.125.935-4.125 2.035 0 .275.33.605.495.825a36.582 36.582 0 0 1 2.53 3.245.887.887 0 0 1 .165.5c0 .55-.385.715-.825.715h-3.9c-2.145 0-4.29-.11-6.49-.11-1.21 0-1.21.55-1.21 2.365 0 1.76 0 2.31 1.21 2.31 2.2 0 4.345-.11 6.49-.11h10.725c.88 0 1.265.385 1.265 1.32v.715c0 .88-.385 1.265-1.265 1.265h-6.22c-2.09 0-4.18-.11-6.215-.11-1.21 0-1.21.6-1.21 2.255s0 2.2 1.21 2.2c2.09 0 4.18-.11 6.215-.11h6.215c.88 0 1.265.385 1.265 1.32v.825c0 .88-.385 1.32-1.265 1.32h-12.375c-2.145 0-4.345-.165-6.545-.165-1.155 0-1.155.605-1.155 2.365 0 1.65 0 2.255 1.155 2.255 2.2 0 4.4-.11 6.545-.11h12.045c.935 0 1.375.385 1.375 1.43a5.483 5.483 0 0 1 -.11.88c-.165 1.1-.66 1.43-1.76 1.43h-10.34c-2.2 0-4.345-.11-6.545-.11-1.155 0-1.155.66-1.155 2.42 0 1.7 0 2.365 1.155 2.365 2.2 0 4.345-.165 6.545-.165h8.525c.44.055.88.22.88.715a.988.988 0 0 1 -.22.495c-4.125 4.785-11 6.875-17.16 7.755-.88.11-1.155.275-1.155.825 0 1.265 1.045 4.455 2.585 4.455a35.406 35.406 0 0 0 6.16-1.375c5.775-1.76 11.22-4.51 14.9-9.46a1.3 1.3 0 0 1 .88-.5 1.044 1.044 0 0 1 .825.44c3.575 4.51 7.7 7.04 13.035 9.02 1.485.55 6.325 2.145 7.7 2.145 1.7 0 2.86-2.75 2.86-4.18 0-.99-.44-1.155-1.32-1.32-6.325-1.155-12.815-3.245-17.49-7.92a.819.819 0 0 1 -.22-.495c0-.44.385-.55.715-.605h9.3c2.145 0 4.29.165 6.49.165 1.21 0 1.155-.66 1.155-2.365s.055-2.42-1.155-2.42c-2.145 0-4.345.11-6.49.11h-11.44c-.66 0-1.375-.22-1.375-.99a1.314 1.314 0 0 1 .165-.5.978.978 0 0 1 .44-.385c.33-.165.88-.33.88-.77 0-.6-1.045-.77-2.035-.935-.055 0-.11 0-.11-.055a.118.118 0 0 1 .11-.11h14.575c2.2 0 4.345.11 6.545.11 1.155 0 1.21-.55 1.21-2.31s0-2.31-1.21-2.31c-2.2 0-4.345.165-6.545.165h-12.32c-.935 0-1.32-.44-1.32-1.32v-.81c0-.935.385-1.32 1.32-1.32h6.325c2.09 0 4.125.11 6.215.11 1.265 0 1.21-.605 1.21-2.2 0-1.65.055-2.255-1.21-2.255-2.09 0-4.125.11-6.215.11h-6.325c-.935 0-1.32-.385-1.32-1.265zm74.14 9.24c0-.44-.55-.715-.825-.88a50.111 50.111 0 0 1 -11.055-8.085c-.275-.275-.66-.77-1.1-.77-.77 0-3.3 2.09-3.3 2.805 0 1.485 11.6 10.285 13.31 10.285 1.1 0 2.97-2.585 2.97-3.355zm-27.17-6.27c0-.44-.935-1.155-1.7-1.705-.935-.715-2.31-1.87-2.75-1.87a.9.9 0 0 0 -.66.44 40.1 40.1 0 0 1 -10.945 8.25c-.44.22-1.375.6-1.375 1.21 0 .715 1.87 3.3 2.915 3.3a6.292 6.292 0 0 0 2.255-.99 47.112 47.112 0 0 0 9.9-7.535 1.712 1.712 0 0 1 1.045-.605h.55c.325 0 .765-.11.765-.495zm9.405-9.9c-1.045 0-1.43-.385-1.54-1.43.055-1.045 0-1.76.6-2.255.385-.275.66-.385.66-.77 0-.66-1.045-.66-1.595-.715-1.1-.11-3.575-.33-4.62-.33-.5 0-1.045.055-1.045.715 0 .165.055.385.055.495a25.027 25.027 0 0 1 .22 2.86c-.055 1.045-.55 1.43-1.54 1.43h-9.51c-1.98 0-3.96-.055-5.94-.055-1.54 0-3.025.385-3.025 2.2 0 .6.11 1.65.11 2.915v2.75c0 .715-.165 1.54-.165 2.255 0 1.32.935 1.265 2.86 1.265 1.815 0 2.805.055 2.805-1.21 0-.66-.165-1.6-.165-2.31v-1.21a1.347 1.347 0 0 1 1.54-1.54h31.9c1.045 0 1.485.495 1.485 1.54v1.43c0 .715-.11 1.65-.11 2.31 0 1.21.935 1.21 2.86 1.21 2.035 0 2.805 0 2.805-1.265 0-.66-.11-1.6-.11-2.255v-2.97c0-1.21.055-2.255.055-2.915 0-1.815-1.54-2.2-3.025-2.2-1.98 0-3.96.055-5.94.055zm-10.835 36.8a1.36 1.36 0 0 1 -1.485-1.485v-4.125c0-.99.55-1.43 1.485-1.54h12.815a1.537 1.537 0 0 1 1.54 1.54v4.125a1.458 1.458 0 0 1 -1.54 1.485zm-.715-12.87a64.175 64.175 0 0 0 6.215-5.39 1.563 1.563 0 0 1 1.045-.5 1.337 1.337 0 0 1 .99.5c2.2 2.09 3.85 3.52 6.215 5.39a.6.6 0 0 1 .22.5c0 .22-.11.385-.5.44h-13.91c-.275 0-.55-.11-.55-.44 0-.23.11-.34.275-.505zm21.615 4.94c1.1.715 5.94 3.685 6.985 3.685.99 0 3.025-2.805 3.025-3.795 0-.55-1.045-.99-1.485-1.21a71.947 71.947 0 0 1 -19.085-12.865.331.331 0 0 1 -.055-.22.365.365 0 0 1 .22-.275.71.71 0 0 0 .5-.66c0-.66-.825-1.045-1.54-1.43-.165-.055-.44-.22-.77-.385a9.462 9.462 0 0 0 -2.475-1.1c-.44 0-.825.5-1.1.825-5.555 6.765-13.805 12.32-21.78 15.84-.55.22-1.54.6-1.54 1.32 0 .77 1.87 3.74 3.3 3.74.99 0 5.775-2.805 6.875-3.465a1.314 1.314 0 0 1 .495-.11c.55 0 .715.385.77.88v9.845c0 1.1-.11 2.475-.11 3.19 0 1.155.66 1.1 2.695 1.1 2.2 0 2.805.055 2.75-1.265.055-.715.33-.99 1.045-.99h13.64c.66 0 .99.275.99.99v.275c0 1.155.77 1.1 2.75 1.1 2.09 0 2.75 0 2.75-1.1 0-.165-.11-2.75-.11-3.19v-9.955c0-.5.165-.935.715-.935.215 0 .325.11.545.16zm39.655-16.72c-.165-.11-.11-.22.055-.275h9.515c.165.055.385.11.385.275s-.11.22-.165.33c-.495.33-1.485.99-1.485 1.65 0 .605 1.045 1.32 2.145 2.2a.819.819 0 0 1 .22.5c0 .385-.275.55-.6.605-4.015.165-8.085.495-12.155.55-.44-.055-.825-.22-.825-.77a.731.731 0 0 1 .165-.44c.495-.825.88-1.705 1.375-2.53a1.568 1.568 0 0 1 1.045-.825c.33-.055.825-.165.825-.605a.793.793 0 0 0 -.5-.66zm14.795 9.4a2.525 2.525 0 0 1 2.035.99c.44.44.77.88 1.1 1.21.77.935 1.21 1.43 1.7 1.43 1.155 0 3.74-1.705 3.74-2.97 0-1.1-7.81-8.195-9.075-9.35a.5.5 0 0 1 -.22-.44c0-.33.275-.44.55-.44h1.76c1.265 0 1.21-.66 1.21-2.255s.055-2.255-1.21-2.255c-2.09 0-4.18.11-6.27.11h-18.145c-2.09 0-4.18-.11-6.27-.11-1.21 0-1.21.66-1.21 2.31 0 1.54 0 2.2 1.21 2.2 2.09 0 4.18-.11 6.27-.11h.22c.5.055.99.22.99.825a.887.887 0 0 1 -.165.5c-.66 1.265-1.375 2.585-2.145 3.795a2.185 2.185 0 0 1 -2.2 1.21c-1.76.055-3.52.11-5.28.11h-2.035c-.55 0-1.21.055-1.21.715a35.454 35.454 0 0 0 .88 3.685c.385 1.54.66 1.925 1.1 1.925.33 0 .495-.275.66-.55.33-.5.44-.77.88-.77 10.285-.495 19.635-.935 27.83-1.54 1.485-.105 2.805-.215 3.3-.215zm-10.945 4.85a1.407 1.407 0 0 1 .55-1.32c.385-.33.66-.44.66-.825 0-.605-.825-.66-1.265-.715-.935-.11-4.345-.44-5.115-.44-.55 0-.99.11-.99.77a1.523 1.523 0 0 0 .055.495 12.024 12.024 0 0 1 .165 1.98c.055 1.1-.5 1.485-1.485 1.485h-7.26c-2.09 0-4.18-.11-6.27-.11-1.265 0-1.265.66-1.265 2.42s-.055 2.42 1.265 2.42c2.09 0 4.18-.11 6.27-.11h7.26c1.045 0 1.485.44 1.485 1.54v1.815c0 1.045-.44 1.54-1.485 1.54h-11.935c-2.2 0-4.4-.165-6.655-.165-1.265 0-1.265.55-1.265 2.475 0 1.815 0 2.42 1.21 2.42 2.255 0 4.455-.11 6.71-.11h32.725c2.255 0 4.455.11 6.71.11 1.21 0 1.21-.605 1.21-2.42 0-1.87 0-2.475-1.265-2.475-2.255 0-4.455.165-6.655.165h-11.935c-1.045 0-1.485-.495-1.485-1.54v-1.815c0-1.1.44-1.54 1.485-1.54h7.37c2.09 0 4.18.11 6.27.11 1.32 0 1.265-.715 1.265-2.42s.055-2.42-1.265-2.42c-2.09 0-4.18.11-6.27.11h-7.315c-.99 0-1.54-.385-1.485-1.43zm.11-28.325c0-.715 0-1.43.6-1.87.33-.22.715-.385.715-.715 0-.55-.715-.605-1.1-.66-1.155-.11-4.235-.33-5.335-.33-.495 0-1.1 0-1.1.66 0 .165.055.33.055.5a18 18 0 0 1 .22 2.475 1.321 1.321 0 0 1 -1.54 1.375h-9.07c-2.035 0-4.07-.055-6.105-.055-1.43 0-3.19.275-3.19 2.09 0 .55.11 1.32.11 2.585v1.98c0 .6-.11 1.54-.11 2.09 0 1.21 1.045 1.1 2.915 1.1 1.98 0 3.025.11 3.025-1.1 0-.44-.11-1.54-.11-2.09v-.39c0-1.045.44-1.54 1.54-1.54h31.185c1.1 0 1.54.5 1.54 1.54v.605c0 .33-.055 1.1-.055 1.485a2.678 2.678 0 0 0 -.055.66c0 1.155 1.155 1.1 3.025 1.1 1.925 0 2.915.055 2.915-1.155 0-.165-.055-.44-.055-.6 0-.385-.11-1.155-.11-1.485v-2.2c0-1.1.11-2.035.11-2.64 0-1.76-1.815-2.035-3.135-2.035-2.035 0-4.07.055-6.1.055h-9.3c-.99-.005-1.43-.39-1.485-1.435zm36.3 31.46a4.837 4.837 0 0 1 4.9 4.895 4.9 4.9 0 1 1 -4.9-4.895zm0-2.75a7.645 7.645 0 1 0 7.645 7.645 7.629 7.629 0 0 0 -7.645-7.645z" fill="#4a4a4a" transform="translate(189.64 46.53)"/></svg>