<svg xmlns="http://www.w3.org/2000/svg" width="19.367" height="19.367" viewBox="0 0 19.367 19.367">
  <g id="arrow" transform="translate(-3.375 -3.375)">
    <path id="パス_10072" data-name="パス 10072" d="M14.679,10.244a.9.9,0,0,1,1.271,0L20.392,14.7a.9.9,0,0,1,.028,1.238l-4.376,4.39a.9.9,0,1,1-1.271-1.266l3.72-3.776-3.813-3.776A.888.888,0,0,1,14.679,10.244Z" transform="translate(-3.73 -2.233)" fill="#fff"/>
    <path id="パス_10073" data-name="パス 10073" d="M3.375,13.059a9.684,9.684,0,1,0,9.684-9.684A9.682,9.682,0,0,0,3.375,13.059Zm1.49,0A8.19,8.19,0,0,1,18.85,7.267,8.19,8.19,0,1,1,7.267,18.85,8.123,8.123,0,0,1,4.865,13.059Z" fill="#fff"/>
  </g>
</svg>
