<svg height="76.5" viewBox="0 0 196.5 76.5" width="196.5" xmlns="http://www.w3.org/2000/svg" xmlns:xlink="http://www.w3.org/1999/xlink"><clipPath id="a"><path d="m0 0h22.468v21.372h-22.468z"/></clipPath><path d="m0 .5h196v76h-196z" fill="#00b900"/><g clip-path="url(#a)" transform="translate(29.976 22.128)"><path d="m22.468 9.1c0-5.018-5.04-9.1-11.234-9.1s-11.234 4.083-11.234 9.1c0 4.5 4 8.267 9.4 8.979.365.079.863.241.99.553a2.293 2.293 0 0 1 .036 1.014s-.131.791-.16.96c-.049.283-.226 1.109.973.6a36.256 36.256 0 0 0 8.821-6.506 8.089 8.089 0 0 0 2.408-5.6m-15.632 2.987h-2.236a.589.589 0 0 1 -.589-.588v-4.457a.589.589 0 0 1 1.178 0v3.868h1.647a.588.588 0 1 1 0 1.177m2.309-.587a.589.589 0 0 1 -1.178 0v-4.458a.589.589 0 0 1 1.178 0zm5.373 0a.59.59 0 0 1 -.59.588.592.592 0 0 1 -.471-.235l-2.287-3.112v2.759a.589.589 0 0 1 -1.178 0v-4.458a.589.589 0 0 1 1.06-.353l2.288 3.111v-2.758a.589.589 0 0 1 1.178 0zm3.612-2.818a.588.588 0 1 1 0 1.176h-1.643v1.052h1.643a.588.588 0 1 1 0 1.177h-2.23a.59.59 0 0 1 -.589-.588v-2.227-2.23a.589.589 0 0 1 .589-.588h2.23a.588.588 0 1 1 0 1.176h-1.643v1.052z" fill="#fff"/></g><g fill="#fff"><path d="m184.684 776 12.342 12.342v-12.342z" stroke="#fff" transform="translate(-1.025 -775.5)"/><path d="m2.87-1.97h4.34v.44h-4.34zm0-1.1h4.34v.43h-4.34zm0-1.11h4.34v.43h-4.34zm5.55 3.37v-4.08h-3.26a2.657 2.657 0 0 0 .98-1.23h1.01v1.05h1.06v-1.05h1.26v-.86h-3.13c.01-.1.01-.2.01-.29v-.05a15.61 15.61 0 0 0 2.73-.43l-.72-.71a15.434 15.434 0 0 1 -2.24.41l-.8-.19v.91a1.81 1.81 0 0 1 -.35 1.16v-.81h-2.75c.01-.1.01-.21.01-.3v-.05a12.808 12.808 0 0 0 2.54-.43l-.73-.7a12.214 12.214 0 0 1 -2.08.4l-.76-.19v.91a2.714 2.714 0 0 1 -.85 2.14 3.428 3.428 0 0 1 .78.74 3.341 3.341 0 0 0 .96-1.66h.88v1.04h1.06v-1.04h.9a2.463 2.463 0 0 1 -.58.5 2.842 2.842 0 0 1 .69.73h-3.32v4.08h1.48a11.742 11.742 0 0 1 -2.75.84 12.061 12.061 0 0 1 .88.87 12.391 12.391 0 0 0 3.12-1.31l-.91-.4h2.92l-.9.52a19.718 19.718 0 0 1 2.6 1.18l1.38-.53c-.68-.33-1.83-.81-2.85-1.17zm5.31-6.37v.54h-1.53v-.54zm-1.53 1.91v-.57h1.53v.57zm2.64.9v-3.72h-3.82v8.96h1.18v-5.24zm1.15 1.67v1.18h-1.65v-1.18zm1.11 2.16v-3.14h-3.87v3.7h1.11v-.56zm-.44-4.72v-.58h1.58v.58zm1.58-1.93v.55h-1.58v-.55zm1.2-.9h-3.91v3.73h2.71v3.79c0 .18-.07.24-.26.24s-.87.02-1.45-.02a4.258 4.258 0 0 1 .4 1.22 4.912 4.912 0 0 0 1.96-.23c.42-.19.55-.53.55-1.19zm5.96 3.01a1.289 1.289 0 0 0 -1.28 1.28 1.289 1.289 0 0 0 1.28 1.28 1.289 1.289 0 0 0 1.28-1.28 1.289 1.289 0 0 0 -1.28-1.28zm9.56-3.04h-1.38a8.048 8.048 0 0 1 .07.88c0 .17 0 .46-.01.81-.2.01-.4.02-.58.02a11.089 11.089 0 0 1 -1.38-.08l.02 1.21a12.26 12.26 0 0 0 1.4.05c.16 0 .34-.01.53-.02v.84c0 .23 0 .47.01.71-1.23.53-2.23 1.44-2.23 2.31 0 1.06 1.37 1.9 2.34 1.9.66 0 1.1-.33 1.1-1.57 0-.34-.02-1.12-.04-1.91a6.742 6.742 0 0 1 1.88-.28c.87 0 1.47.4 1.47 1.08 0 .73-.64 1.13-1.45 1.28a7.7 7.7 0 0 1 -1.23.07l.46 1.29a9.156 9.156 0 0 0 1.31-.16c1.59-.4 2.21-1.29 2.21-2.47 0-1.38-1.21-2.18-2.75-2.18a8.286 8.286 0 0 0 -1.92.26v-.37c0-.29 0-.6.01-.9.65-.08 1.34-.18 1.91-.31l-.03-1.24a12.247 12.247 0 0 1 -1.84.36c.01-.25.02-.49.03-.71.02-.26.06-.69.09-.87zm2.85 1.08-.55.97a15.91 15.91 0 0 1 2.41 1.46l.6-1.02a20.9 20.9 0 0 0 -2.46-1.41zm-5.17 5.6c0-.35.41-.76 1.02-1.09.02.54.03 1 .03 1.25 0 .34-.14.42-.32.42-.26 0-.73-.27-.73-.58zm11.69-5.74v.54h-1.53v-.54zm-1.53 1.91v-.57h1.53v.57zm2.64.9v-3.72h-3.82v8.96h1.18v-5.24zm1.15 1.67v1.18h-1.65v-1.18zm1.11 2.16v-3.14h-3.87v3.7h1.11v-.56zm-.44-4.72v-.58h1.58v.58zm1.58-1.93v.55h-1.58v-.55zm1.2-.9h-3.91v3.73h2.71v3.79c0 .18-.07.24-.26.24s-.87.02-1.45-.02a4.258 4.258 0 0 1 .4 1.22 4.912 4.912 0 0 0 1.96-.23c.42-.19.55-.53.55-1.19zm7.95 5.92v1.63h-3.95v-1.63zm-5.12 3.05h1.17v-.37h3.95v.37h1.22v-4.1h-6.34zm1.11-6.14a10.218 10.218 0 0 0 1.99-2.03 10.955 10.955 0 0 0 2.05 2.03zm1.32-3.2a10.587 10.587 0 0 1 -4.07 3.56 4.856 4.856 0 0 1 .75.97 13.933 13.933 0 0 0 1.55-.98v.7h4.98v-.69a12 12 0 0 0 1.53.95 5.812 5.812 0 0 1 .77-1.07 10.046 10.046 0 0 1 -4.28-3.44zm13.55.61h-1.34a8.413 8.413 0 0 1 .07.92v1.13c-.91.08-1.88.17-2.73.25 0-.39.01-.73.01-.96a6.625 6.625 0 0 1 .06-1.04h-1.41a7.724 7.724 0 0 1 .08 1.11v1.01c-.32.03-.58.05-.76.07-.51.05-.97.07-1.26.07l.14 1.28c.26-.04.88-.14 1.2-.18.17-.02.4-.04.67-.07 0 .93 0 1.9.01 2.33.05 1.73.36 2.27 2.95 2.27a28.289 28.289 0 0 0 2.85-.16l.05-1.36a20.147 20.147 0 0 1 -2.99.25c-1.5 0-1.59-.22-1.61-1.2-.02-.43-.01-1.35 0-2.27.85-.09 1.83-.18 2.72-.25a11.017 11.017 0 0 1 -.08 1.21c-.02.19-.11.23-.31.23a5.3 5.3 0 0 1 -.92-.13l-.03 1.11a15.135 15.135 0 0 0 1.51.15c.51 0 .76-.13.87-.66a17.543 17.543 0 0 0 .15-2c.29-.02.55-.03.77-.04.26-.01.79-.02.96-.01v-1.23c-.29.03-.68.05-.96.07-.23.01-.48.03-.75.05.01-.33.01-.69.02-1.08.01-.27.04-.71.06-.87z" transform="translate(62.5 56.5)"/><path d="m-45.17.24a7.193 7.193 0 0 0 5.78-2.5l-2.08-1.92a4.461 4.461 0 0 1 -3.52 1.66 4.3 4.3 0 0 1 -4.48-4.48 4.3 4.3 0 0 1 4.48-4.48 4.5 4.5 0 0 1 3.52 1.64l2.08-1.92a7.228 7.228 0 0 0 -5.76-2.48c-4.36 0-7.6 3.02-7.6 7.24s3.24 7.24 7.58 7.24zm15.44 0c4.4 0 7.66-3.06 7.66-7.24s-3.26-7.24-7.66-7.24c-4.42 0-7.66 3.08-7.66 7.24s3.24 7.24 7.66 7.24zm0-2.76a4.271 4.271 0 0 1 -4.38-4.48 4.271 4.271 0 0 1 4.38-4.48 4.271 4.271 0 0 1 4.38 4.48 4.271 4.271 0 0 1 -4.38 4.48zm20.74-11.48v8.5l-6.96-8.5h-2.68v14h3.2v-8.5l6.98 8.5h2.66v-14zm10.42 14h3.24v-11.36h4.48v-2.64h-12.2v2.64h4.48zm20.22 0h3.4l-6.26-14h-3.2l-6.24 14h3.32l1.24-3h6.5zm-6.7-5.46 2.22-5.36 2.22 5.36zm19.06 5.7a7.193 7.193 0 0 0 5.78-2.5l-2.08-1.92a4.461 4.461 0 0 1 -3.52 1.66 4.3 4.3 0 0 1 -4.48-4.48 4.3 4.3 0 0 1 4.48-4.48 4.5 4.5 0 0 1 3.52 1.64l2.08-1.92a7.228 7.228 0 0 0 -5.76-2.48c-4.36 0-7.6 3.02-7.6 7.24s3.24 7.24 7.58 7.24zm11.72-.24h3.24v-11.36h4.48v-2.64h-12.2v2.64h4.48z" transform="translate(112.024 38.5)"/></g></svg>