<svg xmlns="http://www.w3.org/2000/svg" width="193.681" height="21.359" viewBox="0 0 193.681 21.359">
  <path id="パス_10067" data-name="パス 10067" d="M12.54.18a10.211,10.211,0,0,0,7.71-3.09L18.84-4.32A8.238,8.238,0,0,1,12.63-1.8a8.582,8.582,0,0,1-8.88-8.7,8.582,8.582,0,0,1,8.88-8.7,8.323,8.323,0,0,1,6.21,2.49l1.41-1.41a10.168,10.168,0,0,0-7.68-3.06c-6.33,0-11.01,4.53-11.01,10.68S6.24.18,12.54.18Zm21.18,0c6.3,0,11.01-4.53,11.01-10.68S40.02-21.18,33.72-21.18c-6.36,0-11.04,4.56-11.04,10.68S27.36.18,33.72.18Zm0-1.98a8.539,8.539,0,0,1-8.85-8.7,8.539,8.539,0,0,1,8.85-8.7,8.507,8.507,0,0,1,8.79,8.7A8.507,8.507,0,0,1,33.72-1.8ZM65.07-21V-3.96L51.54-21H49.71V0h2.22V-17.04L65.43,0h1.83V-21ZM78.18,0H80.4V-19.08h7.38V-21H70.8v1.92h7.38Zm27.78,0h2.34L98.7-21H96.51L86.91,0h2.31l2.52-5.61h11.7ZM92.55-7.41l5.04-11.28,5.04,11.28ZM120.6.18a10.211,10.211,0,0,0,7.71-3.09L126.9-4.32a8.238,8.238,0,0,1-6.21,2.52,8.582,8.582,0,0,1-8.88-8.7,8.582,8.582,0,0,1,8.88-8.7,8.323,8.323,0,0,1,6.21,2.49l1.41-1.41a10.168,10.168,0,0,0-7.68-3.06c-6.33,0-11.01,4.53-11.01,10.68S114.3.18,120.6.18ZM136.86,0h2.22V-19.08h7.38V-21H129.48v1.92h7.38Zm29.46.18c5.37,0,8.61-3.12,8.61-9.15V-21h-2.16V-9.06c0,4.98-2.34,7.26-6.45,7.26-4.08,0-6.42-2.28-6.42-7.26V-21h-2.22V-8.97C157.68-2.94,160.95.18,166.32.18Zm21.09,0c5.37,0,7.83-2.64,7.83-5.73,0-7.65-12.93-4.17-12.93-9.93,0-2.1,1.71-3.81,5.55-3.81a10.812,10.812,0,0,1,5.76,1.74l.75-1.77a11.854,11.854,0,0,0-6.51-1.86c-5.34,0-7.74,2.67-7.74,5.76,0,7.77,12.93,4.23,12.93,9.99,0,2.07-1.71,3.72-5.64,3.72a10.312,10.312,0,0,1-6.93-2.55l-.87,1.71C181.17-.93,184.26.18,187.41.18Z" transform="translate(-1.56 21.18)" fill="#4a4a4a"/>
</svg>
