<svg height="70" viewBox="0 0 337 70" width="337" xmlns="http://www.w3.org/2000/svg" xmlns:xlink="http://www.w3.org/1999/xlink"><clipPath id="a"><path d="m0 0h21.574v20.522h-21.574z"/></clipPath><path d="m0 0h337v70h-337z" fill="#00b900"/><path d="m6.22-7.01c.01-.08.01-.16.02-.31a15.309 15.309 0 0 0 2.93-.38l-.64-.84a7.355 7.355 0 0 1 -1.4.33c-.39.05-1.31.12-1.64.12a2.092 2.092 0 0 1 -.31-.02 2.186 2.186 0 0 1 .03.36 3.1 3.1 0 0 1 -.58 2.09 3.6 3.6 0 0 1 .48.41h-1.27v-.87h.26a5.045 5.045 0 0 1 .71.04v-.97a4.731 4.731 0 0 1 -.73.04h-1.99a2.628 2.628 0 0 0 .01-.3 10.616 10.616 0 0 0 2.76-.41l-.61-.84a4.523 4.523 0 0 1 -1 .3 12.228 12.228 0 0 1 -1.85.17c-.02 0-.1 0-.2-.01h-.17a3.905 3.905 0 0 1 .04.46 3.268 3.268 0 0 1 -.8 2.58 5.156 5.156 0 0 1 .83.85 3.024 3.024 0 0 0 .48-.71c.02.35.02.49.02.97v2.01a8.887 8.887 0 0 1 -.05 1.18 10.469 10.469 0 0 1 1.08-.04h.58a6.232 6.232 0 0 1 -2.8.71 3.99 3.99 0 0 1 .54 1.01 8.549 8.549 0 0 0 3.27-1.09l-.81-.63h3.13l-.81.59a8.305 8.305 0 0 0 3.32 1.14 3.831 3.831 0 0 1 .51-1.02 7.177 7.177 0 0 1 -2.88-.71h.72a10.014 10.014 0 0 1 1.07.04 7.45 7.45 0 0 1 -.05-1.14v-2.04a10.185 10.185 0 0 1 .05-1.35c-.17.02-.2.02-.41.03v-.86h.66a4.4 4.4 0 0 1 .76.05v-.98a5.783 5.783 0 0 1 -.77.04zm.83.89v.87h-1.32a3.6 3.6 0 0 0 .35-.87zm-4.45.87c-.36 0-.53 0-.86-.02a3.294 3.294 0 0 0 .26-.85h.84v.87zm.06.83h4.7v.43h-4.7zm0 1.17h4.7v.42h-4.7zm0 1.17h4.7v.43h-4.7zm9.43-2.6h1.8c.33 0 .68.01.92.03-.02-.22-.03-.45-.03-.9v-1.65c0-.39.01-.62.03-.94a8.449 8.449 0 0 1 -1.02.04h-1.77a9.341 9.341 0 0 1 -1.02-.04 11.181 11.181 0 0 1 .04 1.13v6.55a8.94 8.94 0 0 1 -.06 1.24h1.17a8.577 8.577 0 0 1 -.06-1.23zm0-2.6h1.71v.52h-1.71zm0 1.29h1.71v.53h-1.71zm7.31-1.03a8.805 8.805 0 0 1 .05-1.12 9.544 9.544 0 0 1 -1.03.04h-1.9a9 9 0 0 1 -1.02-.04c.02.29.03.56.03.94v1.65c0 .43-.01.63-.02.9.22-.02.58-.03.91-.03h1.93v4.09c0 .22-.05.26-.33.26a11.68 11.68 0 0 1 -1.23-.09 3.491 3.491 0 0 1 .28 1.06c.66.04.77.04.93.04a2.039 2.039 0 0 0 1.05-.16c.26-.16.35-.42.35-.97zm-2.88-.26h1.83v.52h-1.83zm0 1.29h1.83v.53h-1.83zm.63 2.69a6.6 6.6 0 0 1 .03-.69c-.21.02-.46.03-.77.03h-2.47c-.29 0-.52-.01-.74-.03.02.21.03.43.03.7v2.14a8.912 8.912 0 0 1 -.05.97h1.06v-.67h2.23c.29 0 .5.01.71.03a6.261 6.261 0 0 1 -.03-.68zm-2.91.23h1.9v1.31h-1.9zm11.16-1.92a1.186 1.186 0 0 0 -1.19 1.19 1.186 1.186 0 0 0 1.19 1.19 1.186 1.186 0 0 0 1.19-1.19 1.186 1.186 0 0 0 -1.19-1.19zm9.33 1.93a6.4 6.4 0 0 1 1.92-.33c1.07 0 1.77.56 1.77 1.42a1.028 1.028 0 0 1 -1.01 1.11.692.692 0 0 1 -.63-.34 1.927 1.927 0 0 1 -.14-.88 3.467 3.467 0 0 1 .02-.44 4.219 4.219 0 0 1 -1.11.44 3.341 3.341 0 0 0 .17 1.28 1.614 1.614 0 0 0 1.64 1.11 2.222 2.222 0 0 0 2.27-2.28 2.575 2.575 0 0 0 -2.86-2.44 6.934 6.934 0 0 0 -2.04.28v-1.3c.38-.04.58-.07.91-.13.69-.12.88-.15 1.06-.18l-.04-1.12a11.153 11.153 0 0 1 -1.93.38v-.64a6.14 6.14 0 0 1 .06-1.09h-1.25a6.852 6.852 0 0 1 .06 1.15v.66c-.11 0-.16 0-.4.01-.14.01-.25.01-.35.01a6.133 6.133 0 0 1 -1.21-.09l.01 1.12a1.875 1.875 0 0 1 .21-.01c.03 0 .12 0 .25.01s.4.01.55.01c.25 0 .39 0 .54-.01.33-.02.33-.02.41-.02l.01 1.54a5.35 5.35 0 0 0 -1.46.85 2.134 2.134 0 0 0 -.86 1.48 1.469 1.469 0 0 0 .55 1.13 3.115 3.115 0 0 0 1.89.71.879.879 0 0 0 .92-.58 2.978 2.978 0 0 0 .08-.85zm-1.12 1.82c0 .33-.05.42-.22.42a1.2 1.2 0 0 1 -.64-.22c-.23-.14-.33-.29-.33-.46 0-.36.44-.8 1.19-1.2zm6.46-4.22a8.482 8.482 0 0 0 -1.98-2.05l-.94.63a8.539 8.539 0 0 1 2 2.16zm2.62.78h1.8c.33 0 .68.01.92.03-.02-.22-.03-.45-.03-.9v-1.65c0-.39.01-.62.03-.94a8.449 8.449 0 0 1 -1.02.04h-1.77a9.341 9.341 0 0 1 -1.02-.04 11.18 11.18 0 0 1 .04 1.13v6.55a8.939 8.939 0 0 1 -.06 1.24h1.17a8.577 8.577 0 0 1 -.06-1.23zm0-2.6h1.71v.52h-1.71zm0 1.29h1.71v.53h-1.71zm7.31-1.03a8.805 8.805 0 0 1 .05-1.12 9.544 9.544 0 0 1 -1.03.04h-1.9a9 9 0 0 1 -1.02-.04c.02.29.03.56.03.94v1.65c0 .43-.01.63-.02.9.22-.02.58-.03.91-.03h1.93v4.09c0 .22-.05.26-.33.26a11.68 11.68 0 0 1 -1.23-.09 3.491 3.491 0 0 1 .28 1.06c.66.04.77.04.93.04a2.039 2.039 0 0 0 1.05-.16c.26-.16.35-.42.35-.97zm-2.88-.26h1.83v.52h-1.83zm0 1.29h1.83v.53h-1.83zm.63 2.69a6.6 6.6 0 0 1 .03-.69c-.21.02-.46.03-.77.03h-2.47c-.29 0-.52-.01-.74-.03.02.21.03.43.03.7v2.14a8.912 8.912 0 0 1 -.05.97h1.06v-.67h2.23c.29 0 .5.01.71.03a6.262 6.262 0 0 1 -.03-.68zm-2.91.23h1.9v1.31h-1.9zm8.59-1.33a7.529 7.529 0 0 1 .86-.04h3.42a7.28 7.28 0 0 1 .9.04v-.7a9.719 9.719 0 0 0 1.63.88 5.384 5.384 0 0 1 .55-1.1 9.4 9.4 0 0 1 -2.55-1.37 6.534 6.534 0 0 1 -1.68-1.69h-1.19a6.983 6.983 0 0 1 -1.57 1.67 9.992 9.992 0 0 1 -2.55 1.44 3.873 3.873 0 0 1 .58 1.02 10.181 10.181 0 0 0 1.6-.84zm.87-1.08h-.28a7 7 0 0 0 1.96-1.95 9.135 9.135 0 0 0 2.06 1.95zm-.49 6.24v-.51h4.37v.51h1.19a6.247 6.247 0 0 1 -.06-1.05v-2.34a6.816 6.816 0 0 1 .05-.99 6.56 6.56 0 0 1 -.87.04h-5a6.3 6.3 0 0 1 -.86-.04 9.029 9.029 0 0 1 .05.99v2.33a8 8 0 0 1 -.06 1.06zm0-3.37h4.37v1.88h-4.37zm15.96 1.3a8.132 8.132 0 0 1 -2.89.38c-1.63 0-2.06-.21-2.14-1.05-.02-.2-.05-1.29-.05-1.81v-.21c.01-.53.01-.53.01-.58v-.27c1.39-.08 1.39-.08 2.91-.14a8.619 8.619 0 0 1 -.09 1.25c-.06.39-.17.52-.43.52a3.1 3.1 0 0 1 -1.31-.49 5.323 5.323 0 0 1 .07.82c0 .14 0 .2-.01.4a3.278 3.278 0 0 0 1.43.34 1.219 1.219 0 0 0 1.22-.75 6.393 6.393 0 0 0 .26-2.12c.47 0 1.04-.01 1.39-.01a3.506 3.506 0 0 1 .57.03l-.02-1.19a19.284 19.284 0 0 1 -1.94.09v-1.25a4.558 4.558 0 0 1 .05-.69h-1.25a10.816 10.816 0 0 1 .06 1.98c-1.49.07-1.49.07-2.89.14a11.65 11.65 0 0 1 .09-1.95h-1.34a9.867 9.867 0 0 1 .07 1.7c0 .06 0 .15-.01.31-.99.06-1.54.09-1.63.09-.05 0-.15 0-.29-.01l.08 1.17a13.658 13.658 0 0 1 1.85-.18c-.01.78-.01.82-.01.97a9.9 9.9 0 0 0 .18 2.73c.3.96 1.11 1.32 2.98 1.32.66 0 1.98-.07 2.71-.15.34-.04.34-.04.45-.05z" fill="#fff" transform="translate(133 61)"/><path d="m-39.033.216a6.474 6.474 0 0 0 5.2-2.25l-1.867-1.728a4.015 4.015 0 0 1 -3.168 1.494 3.865 3.865 0 0 1 -4.032-4.032 3.865 3.865 0 0 1 4.032-4.032 4.054 4.054 0 0 1 3.168 1.476l1.872-1.728a6.5 6.5 0 0 0 -5.184-2.232c-3.924 0-6.84 2.718-6.84 6.516a6.469 6.469 0 0 0 6.819 6.516zm13.356 0c3.96 0 6.894-2.754 6.894-6.516s-2.934-6.516-6.894-6.516c-3.978 0-6.894 2.772-6.894 6.516s2.916 6.516 6.894 6.516zm0-2.484a3.844 3.844 0 0 1 -3.942-4.032 3.844 3.844 0 0 1 3.942-4.032 3.844 3.844 0 0 1 3.942 4.032 3.844 3.844 0 0 1 -3.942 4.032zm18.126-10.332v7.65l-6.264-7.65h-2.412v12.6h2.88v-7.65l6.282 7.65h2.394v-12.6zm8.838 12.6h2.913v-10.224h4.035v-2.376h-10.98v2.376h4.032zm17.658 0h3.06l-5.634-12.6h-2.88l-5.616 12.6h2.988l1.116-2.7h5.85zm-6.03-4.914 2-4.824 2 4.824zm16.614 5.13a6.474 6.474 0 0 0 5.2-2.25l-1.87-1.728a4.015 4.015 0 0 1 -3.168 1.494 3.865 3.865 0 0 1 -4.032-4.032 3.865 3.865 0 0 1 4.032-4.032 4.054 4.054 0 0 1 3.168 1.476l1.872-1.728a6.5 6.5 0 0 0 -5.184-2.232c-3.924 0-6.84 2.718-6.84 6.516a6.469 6.469 0 0 0 6.822 6.516zm10.008-.216h2.916v-10.224h4.032v-2.376h-10.985v2.376h4.032z" fill="#fff" transform="translate(168 47)"/><g clip-path="url(#a)" transform="translate(158 6.477)"><path d="m21.574 8.739c0-4.819-4.839-8.739-10.787-8.739s-10.787 3.92-10.787 8.739c0 4.32 3.838 7.938 9.021 8.622.351.076.829.232.95.531a2.2 2.2 0 0 1 .035.973s-.126.76-.154.922c-.047.272-.217 1.065.934.58a34.814 34.814 0 0 0 8.475-6.253 7.767 7.767 0 0 0 2.313-5.377m-15.01 2.869h-2.143a.566.566 0 0 1 -.566-.565v-4.279a.565.565 0 0 1 1.131 0v3.715h1.578a.565.565 0 1 1 0 1.13m2.217-.565a.565.565 0 0 1 -1.131 0v-4.28a.565.565 0 0 1 1.131 0zm5.159 0a.566.566 0 0 1 -.566.565.569.569 0 0 1 -.452-.226l-2.2-2.986v2.647a.566.566 0 0 1 -1.131 0v-4.28a.566.566 0 0 1 1.018-.339l2.2 2.986v-2.647a.566.566 0 0 1 1.131 0zm3.468-2.7a.565.565 0 1 1 0 1.129h-1.577v1.01h1.577a.565.565 0 1 1 0 1.13h-2.143a.566.566 0 0 1 -.566-.565v-2.146-2.138a.566.566 0 0 1 .566-.565h2.143a.565.565 0 1 1 0 1.129h-1.577v1.01z" fill="#fff"/></g></svg>