<svg height="76.5" viewBox="0 0 197.525 76.5" width="197.525" xmlns="http://www.w3.org/2000/svg" xmlns:xlink="http://www.w3.org/1999/xlink"><clipPath id="a"><path d="m0 0h17.376v21.372h-17.376z"/></clipPath><g transform="translate(0 -775.5)"><path d="m0 776h197v76h-197z" fill="#00aed1"/><g fill="#fff"><g clip-path="url(#a)" transform="translate(50.25 796.314)"><path d="m14.2 21.372h-11.11a.6.6 0 0 0 -.141-.076 3.529 3.529 0 0 1 -2.949-3.696q0-5.528.012-11.055a1.012 1.012 0 0 1 .257-.645c1.798-1.822 3.615-3.625 5.424-5.435.144-.145.269-.31.407-.465h8.185a2.262 2.262 0 0 0 .232.08 3.561 3.561 0 0 1 2.852 3.535c.013 4.74.021 9.48-.006 14.221a3.382 3.382 0 0 1 -2.137 3.2 8.5 8.5 0 0 1 -1.023.331m-12.857-14.684c-.015.132-.032.213-.032.293 0 3.616-.01 7.232.006 10.848a2.2 2.2 0 0 0 2.28 2.219q5.03 0 10.059 0a2.25 2.25 0 0 0 2.4-2.4q.007-6.926 0-13.852a2.27 2.27 0 0 0 -2.471-2.464q-3.235 0-6.47 0c-.134 0-.268.014-.436.022v3.236a1.88 1.88 0 0 1 -2.082 2.098z"/><path d="m0 0h9.545v.841h-9.545z" transform="translate(3.875 10.91)"/><path d="m0 0h9.562v.852h-9.562z" transform="translate(3.867 13.72)"/><path d="m107.749 82.5c-.513 0-1.027 0-1.54 0-.675 0-1.034-.476-.715-1.061a4.9 4.9 0 0 1 .962-1.049.374.374 0 0 1 .331 0 2 2 0 0 0 1.95-.011.378.378 0 0 1 .23-.048 1.928 1.928 0 0 1 1.133 1.516c-.02.433-.211.637-.646.646-.569.012-1.137 0-1.706 0" transform="translate(-96.58 -73.629)"/><path d="m116.132 40.322a1.481 1.481 0 0 1 1.5-1.626 1.65 1.65 0 0 1 -.036 3.285 1.484 1.484 0 0 1 -1.463-1.659" transform="translate(-106.437 -35.466)"/><path d="m0 0h6.639v.877h-6.639z" transform="translate(3.867 16.488)"/></g><path d="m-32.1-2.6v-3.24h6.5v-2.52h-6.5v-3.04h7.36v-2.6h-10.58v14h10.84v-2.6zm20.84-11.4v8.5l-6.96-8.5h-2.68v14h3.2v-8.5l6.98 8.5h2.66v-14zm10.42 14h3.24v-11.36h4.48v-2.64h-12.2v2.64h4.48zm22.86 0-3.14-4.5a4.552 4.552 0 0 0 2.88-4.42c0-3.14-2.34-5.08-6.08-5.08h-6.06v14h3.24v-3.9h2.98l2.7 3.9zm-3.54-8.92c0 1.52-1 2.44-2.98 2.44h-2.64v-4.88h2.64c1.98 0 2.98.9 2.98 2.44zm18.8-5.08h-3.18l-3.74 6.22-3.74-6.22h-3.44l5.42 9v5h3.24v-4.96z" transform="translate(109.75 814)"/><path d="m184.684 776 12.342 12.342v-12.342z" stroke="#fff"/><path d="m-28.03-6.18h7.22v-1.13h-3.61v-1.15h-1.24v1.15h-3.56v2.52a10.653 10.653 0 0 1 -.89 4.97 5.523 5.523 0 0 1 1.03.67 12.437 12.437 0 0 0 1.05-5.64zm5.25 1.48a12.6 12.6 0 0 0 -2.42-1.45l-.79.78a11.536 11.536 0 0 1 2.35 1.56zm-4.37 4.7a9.209 9.209 0 0 0 .74-3.27l-1.07-.23a8.278 8.278 0 0 1 -.73 3.03zm2.59-.38c-.28 0-.32-.05-.32-.41v-3.48h-1.18v3.49c0 1.11.25 1.46 1.31 1.46h1.11c.93 0 1.23-.48 1.34-2.19a3.13 3.13 0 0 1 -1.05-.48c-.04 1.38-.1 1.61-.4 1.61zm1.61-2.97a11.89 11.89 0 0 1 1.22 3.34l1.17-.48a11.914 11.914 0 0 0 -1.33-3.27zm5.56-3.3h1.16v-.35h2.14v.35h1.17v-.35h2.11v-.94h-2.11v-.52h-1.17v.52h-2.14v-.52h-1.16v.52h-2.1v.94h2.1zm1.45 4.4c-.03.19-.06.36-.1.52h-1.23a5.165 5.165 0 0 0 .78-.67h2.68a5.574 5.574 0 0 0 .7.67h-1.78a4.339 4.339 0 0 0 .09-.52zm-1.46-2.52h4.5v.4h-4.5zm0-1.04h4.5v.39h-4.5zm6.73 3.41v-.92h-5.12c.07-.12.13-.24.19-.36h3.9v-2.82h-6.84v2.82h1.71a3.751 3.751 0 0 1 -.24.36h-2.55v.92h1.56a6.8 6.8 0 0 1 -1.87.84 2.651 2.651 0 0 1 .68.84 10.193 10.193 0 0 0 1.15-.5v.34h1.6a3.947 3.947 0 0 1 -2.31.89 3.318 3.318 0 0 1 .57.91c1.81-.36 2.65-.93 3.07-1.8h1.71a1.329 1.329 0 0 1 -.21.72.438.438 0 0 1 -.32.09c-.17 0-.56-.01-.96-.05a2.2 2.2 0 0 1 .29.93 11.267 11.267 0 0 0 1.2-.01 1.187 1.187 0 0 0 .73-.29 3.025 3.025 0 0 0 .43-1.68 6.3 6.3 0 0 0 1.21.56 4.666 4.666 0 0 1 .76-.95 6.727 6.727 0 0 1 -2.03-.84zm4.43-5.53-1.61-.02a6.378 6.378 0 0 1 .13 1.35c0 .86-.1 3.49-.1 4.83 0 1.71 1.06 2.43 2.7 2.43a5.177 5.177 0 0 0 4.34-2.3l-.91-1.1a4 4 0 0 1 -3.42 2.04 1.209 1.209 0 0 1 -1.38-1.34c0-1.24.08-3.48.12-4.56.02-.4.07-.91.13-1.33zm6.9 1.05.13 1.37c1.16-.25 3.2-.47 4.14-.57a4.027 4.027 0 0 0 -1.48 3.09c0 2.16 1.98 3.29 4.07 3.43l.47-1.37c-1.69-.09-3.23-.69-3.23-2.33a3.042 3.042 0 0 1 2.11-2.81 11.316 11.316 0 0 1 1.93-.13l-.01-1.28c-.7.02-1.8.09-2.83.17-1.83.16-3.48.31-4.31.38-.2.02-.59.04-.99.05zm11.63-.69.05 1.29c.26-.04.61-.07.81-.08.46-.03 1.32-.06 1.72-.08-.23.47-.52 1.15-.8 1.81-2.01.09-3.42 1.27-3.42 2.82a1.5 1.5 0 0 0 1.54 1.62 1.743 1.743 0 0 0 1.56-.88 19.656 19.656 0 0 0 1.13-2.4 6.933 6.933 0 0 1 2.37.81 4.308 4.308 0 0 1 -2.54 2.51l1.06.87a5 5 0 0 0 2.54-2.71 10.427 10.427 0 0 1 .86.7l.58-1.39c-.29-.2-.65-.43-1.07-.67a16.241 16.241 0 0 0 .19-1.85l-1.31-.15a6.586 6.586 0 0 1 0 1.09c-.01.11-.02.22-.03.34a9 9 0 0 0 -2.17-.64 21.307 21.307 0 0 1 1-2.15 2.411 2.411 0 0 1 .34-.42l-.8-.62a2.148 2.148 0 0 1 -.68.14c-.47.04-1.53.09-2.1.09-.22 0-.56-.02-.83-.05zm-.47 5.57c0-.63.63-1.31 1.75-1.48a11.2 11.2 0 0 1 -.81 1.63c-.18.25-.32.35-.52.35-.23 0-.42-.17-.42-.5zm12.43.82c0-.25.24-.48.62-.48.54 0 .91.42.97 1.07a5.221 5.221 0 0 1 -.58.03c-.6 0-1.01-.25-1.01-.62zm-1.7-6.44.04 1.3c.23-.03.55-.06.82-.08.53-.03 1.91-.09 2.42-.1-.49.43-1.53 1.27-2.09 1.73-.59.49-1.8 1.51-2.51 2.08l.91.94c1.07-1.22 2.07-2.03 3.6-2.03 1.18 0 2.08.61 2.08 1.51a1.449 1.449 0 0 1 -.83 1.36 2 2 0 0 0 -2.13-1.71 1.676 1.676 0 0 0 -1.79 1.56c0 1 1.05 1.64 2.44 1.64 2.42 0 3.62-1.25 3.62-2.83a2.711 2.711 0 0 0 -2.99-2.52 3.906 3.906 0 0 0 -.95.11c.63-.5 1.68-1.38 2.22-1.76.23-.17.47-.31.7-.46l-.65-.89a4.369 4.369 0 0 1 -.76.11c-.57.05-2.71.09-3.24.09a6.939 6.939 0 0 1 -.91-.05z" transform="translate(98.5 832)"/></g></g></svg>