<svg height="70" viewBox="0 0 337 70" width="337" xmlns="http://www.w3.org/2000/svg" xmlns:xlink="http://www.w3.org/1999/xlink"><clipPath id="a"><path d="m0 0h16.685v20.522h-16.685z"/></clipPath><path d="m0 0h337v70h-337z" fill="#00aed1"/><g fill="#fff"><g clip-path="url(#a)" transform="translate(160 6.471)"><path d="m13.632 20.522h-10.665a.577.577 0 0 0 -.135-.073 3.388 3.388 0 0 1 -2.832-3.549q0-5.308.01-10.616a.972.972 0 0 1 .247-.62c1.728-1.748 3.472-3.479 5.209-5.217.139-.139.259-.3.387-.447h7.859a2.172 2.172 0 0 0 .222.077 3.419 3.419 0 0 1 2.738 3.395c.013 4.552.02 9.1-.006 13.655a3.248 3.248 0 0 1 -2.051 3.073 8.163 8.163 0 0 1 -.983.318m-12.34-14.101c-.014.127-.031.2-.031.282 0 3.472-.01 6.944.006 10.417a2.114 2.114 0 0 0 2.185 2.13q4.83 0 9.659 0a2.161 2.161 0 0 0 2.306-2.3q.006-6.651 0-13.3a2.18 2.18 0 0 0 -2.373-2.366q-3.106 0-6.212 0c-.129 0-.258.013-.418.022v3.108a1.805 1.805 0 0 1 -2 2.011h-3.122"/><path d="m0 0h9.166v.807h-9.166z" transform="translate(3.721 10.476)"/><path d="m0 0h9.181v.818h-9.181z" transform="translate(3.713 13.174)"/><path d="m107.655 82.419c-.493 0-.986 0-1.479 0-.648 0-.992-.457-.687-1.019a4.707 4.707 0 0 1 .924-1.007.359.359 0 0 1 .318 0 1.92 1.92 0 0 0 1.873-.01.363.363 0 0 1 .221-.046 1.851 1.851 0 0 1 1.088 1.455c-.019.416-.2.611-.62.62-.546.012-1.092 0-1.638 0" transform="translate(-96.93 -73.896)"/><path d="m116.132 40.258a1.422 1.422 0 0 1 1.44-1.562 1.584 1.584 0 0 1 -.034 3.154 1.425 1.425 0 0 1 -1.405-1.593" transform="translate(-106.822 -35.594)"/><path d="m0 0h6.375v.842h-6.375z" transform="translate(3.714 15.832)"/></g><path d="m-25.25-6.45-.77.68a9.621 9.621 0 0 1 2.54 1.83l.77-.85a12.736 12.736 0 0 0 -2.5-1.66h3.31a9.678 9.678 0 0 1 1.17.05v-1.11a8.531 8.531 0 0 1 -1.18.06h-2.59v-.43a2.258 2.258 0 0 1 .05-.58h-1.21a2.575 2.575 0 0 1 .05.57v.44h-2.55a8.042 8.042 0 0 1 -1.04-.05c.03.34.04.68.04 1.4a28.053 28.053 0 0 1 -.21 4.23 4.859 4.859 0 0 1 -.65 1.74 3.836 3.836 0 0 1 .9.86c.84-1.56 1.02-2.83 1.03-7.18zm-1.91 6.52a13.063 13.063 0 0 0 .79-3.95l-1.04-.27a12.454 12.454 0 0 1 -.22 1.93 6.058 6.058 0 0 1 -.54 1.64zm1.24-4.81a4.452 4.452 0 0 1 .06.93v3.76c0 .6.35.75 1.74.75.85 0 1.26-.11 1.48-.39s.31-.78.39-2.15a4.366 4.366 0 0 1 -1.06-.35c0 1.8-.01 1.84-.8 1.84-.6 0-.68-.04-.68-.31v-3.14a7.217 7.217 0 0 1 .05-.94zm5.35 4.12a17.959 17.959 0 0 0 -1.27-3.58l-.95.47a12.006 12.006 0 0 1 1.15 3.62zm2.86-.45a5 5 0 0 1 .87-.05h.66a4.024 4.024 0 0 1 -2.79 1.11 3.6 3.6 0 0 1 .54.88c1.76-.27 2.83-.89 3.42-1.99h1.79c-.09.92-.15.98-.81.98a6.079 6.079 0 0 1 -1-.1 2.526 2.526 0 0 1 .32.97c.39.02.58.03.77.03 1.41 0 1.58-.21 1.77-2.15a8.5 8.5 0 0 0 1.38.59 4.134 4.134 0 0 1 .51-.95 6.117 6.117 0 0 1 -1.31-.36 4.807 4.807 0 0 1 -1.07-.57h1.08a8.375 8.375 0 0 1 1.1.05v-.95c-.33.03-.64.05-1.13.05h-3.74a2.956 2.956 0 0 0 .21-.32h2.66c.33 0 .57.01.8.02a6.872 6.872 0 0 1 -.03-.69v-1.43c0-.28.01-.48.03-.7a6.8 6.8 0 0 1 -.79.03h-.55v-.38h1.38a7.267 7.267 0 0 1 1.1.07v-.97a9.4 9.4 0 0 1 -1.13.06h-1.35v-.05a2.768 2.768 0 0 1 .04-.54h-1.11a4.162 4.162 0 0 1 .03.54v.05h-2.06v-.05a2.7 2.7 0 0 1 .04-.54h-1.12a2.834 2.834 0 0 1 .04.54v.05h-1.28a9.227 9.227 0 0 1 -1.12-.06v.97a7.267 7.267 0 0 1 1.1-.07h1.3v.38h-.44a6.8 6.8 0 0 1 -.79-.03c.02.23.03.44.03.7v1.43c0 .26-.01.46-.03.69.23-.01.46-.02.79-.02h1.35a1.651 1.651 0 0 1 -.25.32h-1.97a11.242 11.242 0 0 1 -1.13-.05v.95a10.59 10.59 0 0 1 1.1-.05h1.05a7.158 7.158 0 0 1 -2.24.99 3.223 3.223 0 0 1 .58.87 10.5 10.5 0 0 0 1.4-.65zm3.75-1.61a6.031 6.031 0 0 0 .93.77h-1.65c.08-.31.14-.49.15-.53l-1.12-.04a1.549 1.549 0 0 1 -.09.57h-1.26a7.242 7.242 0 0 0 .93-.77zm-.1-3.94h-2.06v-.38h2.06zm-3.3.69h4.64v.32h-4.64zm0 .99h4.64v.35h-4.64zm9.55-3.05a4.973 4.973 0 0 1 .04.68c0 .14 0 .35-.01.65-.06 2.51-.08 3.51-.08 4.03 0 1.34.29 2.11.98 2.57a3.26 3.26 0 0 0 1.75.44 3.785 3.785 0 0 0 3-1.27 6.16 6.16 0 0 0 1.19-2.55 4.319 4.319 0 0 1 -1.21-.77 6.7 6.7 0 0 1 -.46 1.68 2.573 2.573 0 0 1 -2.42 1.71 1.583 1.583 0 0 1 -1.34-.52 2.779 2.779 0 0 1 -.26-1.61c0-.71.06-2.74.1-3.67a9.141 9.141 0 0 1 .12-1.35zm8.52 2.34a14.516 14.516 0 0 1 1.66-.2c2.17-.16 2.56-.19 3.37-.31a4.407 4.407 0 0 0 -1.39 1 3.525 3.525 0 0 0 -.95 2.36 2.676 2.676 0 0 0 1.43 2.41 6.016 6.016 0 0 0 2.34.66 2.124 2.124 0 0 1 .34.06l.18-1.36c-.1.01-.19.01-.2.01a6.068 6.068 0 0 1 -1.49-.26 1.679 1.679 0 0 1 -1.33-1.63 3.251 3.251 0 0 1 2.02-2.67 4.472 4.472 0 0 1 1.98-.54 1.548 1.548 0 0 1 .21.01l-.07-1.28a5.646 5.646 0 0 1 -1.15.1c-2.77.13-4.43.22-4.99.25-1.47.1-1.47.1-1.65.1-.05 0-.16 0-.38-.01zm11.14-.95a7.776 7.776 0 0 1 .79-.06c.98-.04 1.22-.05 1.73-.09-.25.92-.37 1.3-.63 2.09a3.561 3.561 0 0 0 -1.89.48 2.516 2.516 0 0 0 -1.24 2.19 1.721 1.721 0 0 0 1.6 1.9 1.58 1.58 0 0 0 1.37-.95 13.322 13.322 0 0 0 .99-2.46 7.636 7.636 0 0 1 2.25.69 4.071 4.071 0 0 1 -.89 1.48 4.7 4.7 0 0 1 -1.55 1.05 3.635 3.635 0 0 1 .91.9 5.794 5.794 0 0 0 1.51-1.13 4.722 4.722 0 0 0 1.09-1.76 10.212 10.212 0 0 1 1.38.93l.45-1.32a3.531 3.531 0 0 1 -.46-.24c-.31-.18-.75-.41-1.07-.57a16.66 16.66 0 0 0 .18-2.12 3.242 3.242 0 0 1 .06-.67l-1.26-.05a3 3 0 0 1 .04.53 10.862 10.862 0 0 1 -.1 1.85 8.149 8.149 0 0 0 -2.21-.63c.09-.31.7-2.15.75-2.27a1.492 1.492 0 0 1 .21-.42l-.79-.68a.758.758 0 0 1 -.4.12c-.37.05-1.26.09-1.86.09a5.93 5.93 0 0 1 -1.01-.05zm1.58 2.99a13.044 13.044 0 0 1 -.65 1.67c-.23.45-.38.63-.57.63-.27 0-.49-.33-.49-.74a1.406 1.406 0 0 1 .38-.96 1.978 1.978 0 0 1 1.33-.6zm10.76-.54a3.925 3.925 0 0 0 .41-.26c.2-.13.92-.67 1.1-.82.34-.29 1.07-.94 1.57-1.4a2.143 2.143 0 0 1 .52-.41l-.62-.88a1.473 1.473 0 0 1 -.62.13c-.97.07-2.19.12-3.04.12a9.044 9.044 0 0 1 -1.18-.06l.05 1.2a3.373 3.373 0 0 1 .48-.05c1.81-.08 2.45-.12 2.83-.17l.01.01-.18.18a33.391 33.391 0 0 1 -2.99 2.6 8.993 8.993 0 0 1 -1.41.94l.68 1.08a6.162 6.162 0 0 1 4.12-1.68c1.21 0 1.98.51 1.98 1.29 0 .71-.36 1.14-1.19 1.45a2.689 2.689 0 0 0 -.46-.9 2.152 2.152 0 0 0 -1.73-.82 1.539 1.539 0 0 0 -1.72 1.43 1.427 1.427 0 0 0 .6 1.15 3.383 3.383 0 0 0 1.94.46 4.948 4.948 0 0 0 2.42-.57 2.444 2.444 0 0 0 1.36-2.21c0-1.37-1.1-2.25-2.81-2.25a4.881 4.881 0 0 0 -2.1.46zm1.44 3.56a2.707 2.707 0 0 1 -.52.04c-.74 0-1.19-.23-1.19-.63 0-.28.23-.46.59-.46.56 0 .94.36 1.12 1.05z" transform="translate(168 60.993)"/><path d="m4.392-2.34v-2.916h5.85v-2.268h-5.85v-2.736h6.624v-2.34h-9.522v12.6h9.756v-2.34zm18.216-10.26v7.65l-6.264-7.65h-2.412v12.6h2.88v-7.65l6.282 7.65h2.394v-12.6zm8.838 12.6h2.916v-10.224h4.032v-2.376h-10.98v2.376h4.032zm20.034 0-2.826-4.05a4.1 4.1 0 0 0 2.592-3.978c0-2.826-2.106-4.572-5.472-4.572h-5.454v12.6h2.916v-3.51h2.682l2.43 3.51zm-3.186-8.028c0 1.368-.9 2.2-2.682 2.2h-2.376v-4.392h2.376c1.782-.004 2.682.806 2.682 2.192zm16.38-4.572h-2.862l-3.366 5.6-3.366-5.6h-3.1l4.878 8.1v4.5h2.916v-4.464z" transform="translate(136 46.993)"/></g></svg>