<svg xmlns="http://www.w3.org/2000/svg" xmlns:xlink="http://www.w3.org/1999/xlink" width="22.121" height="27.207" viewBox="0 0 22.121 27.207">
  <defs>
    <clipPath id="clip-path">
      <rect id="長方形_398" data-name="長方形 398" width="22.121" height="27.207" fill="#fff"/>
    </clipPath>
  </defs>
  <g id="entry_icon" clip-path="url(#clip-path)">
    <path id="パス_29" data-name="パス 29" d="M18.074,27.207H3.933a.765.765,0,0,0-.179-.1A4.492,4.492,0,0,1,0,22.406Q0,15.369.015,8.332A1.288,1.288,0,0,1,.343,7.51C2.632,5.191,4.944,2.9,7.247.592,7.431.408,7.59.2,7.761,0H18.18a2.88,2.88,0,0,0,.295.1,4.533,4.533,0,0,1,3.63,4.5c.017,6.034.026,12.069-.008,18.1a4.306,4.306,0,0,1-2.721,4.08,10.822,10.822,0,0,1-1.3.422M1.714,8.508c-.019.168-.041.271-.041.373,0,4.6-.013,9.207.007,13.81a2.8,2.8,0,0,0,2.9,2.824q6.4,0,12.806,0a2.865,2.865,0,0,0,3.057-3.053q.008-8.817,0-17.634a2.89,2.89,0,0,0-3.146-3.137q-4.118,0-8.236,0c-.171,0-.342.017-.555.029,0,1.4,0,2.76,0,4.12A2.393,2.393,0,0,1,5.855,8.507H1.714" transform="translate(0)" fill="#fff"/>
    <rect id="長方形_395" data-name="長方形 395" width="12.151" height="1.07" transform="translate(4.933 13.889)" fill="#fff"/>
    <rect id="長方形_396" data-name="長方形 396" width="12.172" height="1.084" transform="translate(4.923 17.466)" fill="#fff"/>
    <path id="パス_30" data-name="パス 30" d="M108.4,83.1c-.653,0-1.307,0-1.96,0-.859-.006-1.316-.607-.911-1.351a6.24,6.24,0,0,1,1.225-1.335.476.476,0,0,1,.422,0,2.546,2.546,0,0,0,2.483-.014.481.481,0,0,1,.292-.061,2.454,2.454,0,0,1,1.443,1.93c-.026.551-.268.81-.822.822-.724.016-1.448,0-2.172,0" transform="translate(-94.178 -71.798)" fill="#fff"/>
    <path id="パス_31" data-name="パス 31" d="M116.132,40.766a1.885,1.885,0,0,1,1.909-2.07,2.1,2.1,0,0,1-.046,4.182,1.889,1.889,0,0,1-1.863-2.112" transform="translate(-103.79 -34.584)" fill="#fff"/>
    <rect id="長方形_397" data-name="長方形 397" width="8.451" height="1.116" transform="translate(4.923 20.99)" fill="#fff"/>
  </g>
</svg>
