<svg xmlns="http://www.w3.org/2000/svg" width="44.264" height="44.264" viewBox="0 0 44.264 44.264">
  <g id="footer_logo" transform="translate(-59.434 -24103.805)">
    <circle id="楕円形_5" data-name="楕円形 5" cx="22.132" cy="22.132" r="22.132" transform="translate(59.434 24103.805)" fill="#fff"/>
    <path id="パス_1" data-name="パス 1" d="M7.352,6.015q0-.021-.026.284-.052.609-.052,1.177a2.418,2.418,0,0,0,.026.257,3.607,3.607,0,0,1,.026.467V8.3q0,.136-.1.137T7.04,8.274a1.1,1.1,0,0,0-.364-.452,3.8,3.8,0,0,1-2.251.662A4.7,4.7,0,0,1,1.256,7.407,3.425,3.425,0,0,1,0,4.692,3.474,3.474,0,0,1,1.152,2,4.254,4.254,0,0,1,4.125.952a5.034,5.034,0,0,1,1.061.089,5.068,5.068,0,0,1,.982.362A1.134,1.134,0,0,0,6.6,1.54q.117,0,.221-.168.169-.294.273-.294t.1.084A.6.6,0,0,1,7.17,1.3,8.159,8.159,0,0,0,7.027,3.19q0,.2-.039.231a.161.161,0,0,1-.1.032q-.13,0-.169-.2A3.1,3.1,0,0,0,6.233,2a2.354,2.354,0,0,0-2-.84,2.353,2.353,0,0,0-1.666.567A3.856,3.856,0,0,0,1.457,4.713a3.813,3.813,0,0,0,.911,2.721,2.763,2.763,0,0,0,2.108.84,2.826,2.826,0,0,0,1.236-.268,2.045,2.045,0,0,0,.859-.73A3.708,3.708,0,0,0,7.053,6.11q.052-.252.169-.252t.13.158" transform="translate(65.061 24118.258)"/>
    <path id="パス_2" data-name="パス 2" d="M194.583,4.755A3.475,3.475,0,0,1,193.418,7.4a4.04,4.04,0,0,1-2.856,1.082,4.354,4.354,0,0,1-3.019-1.1,3.492,3.492,0,0,1-1.223-2.705A3.426,3.426,0,0,1,187.5,2,4.369,4.369,0,0,1,190.51.952a4.093,4.093,0,0,1,2.9,1.093,3.557,3.557,0,0,1,1.171,2.71m-1.457.053a4.306,4.306,0,0,0-.976-3,2.185,2.185,0,0,0-1.7-.674,2.326,2.326,0,0,0-1.614.516,3.971,3.971,0,0,0-1.054,3.087,4.177,4.177,0,0,0,.735,2.634,2.471,2.471,0,0,0,2.062.938,2.129,2.129,0,0,0,1.861-.885,4.455,4.455,0,0,0,.69-2.613" transform="translate(-113.035 24118.258)"/>
    <path id="パス_3" data-name="パス 3" d="M388.905,10.395q0,.089-.272.089h-3.242q-.272,0-.272-.095t.377-.105a1.626,1.626,0,0,0,.807-.116,1.747,1.747,0,0,0,.065-.7V4.013q0,.011-.156.368Q385.689,5.651,384.7,8.2l-.6,1.672q-.182.494-.26.494t-.2-.252q-.376-.956-2.125-4.772l-.517-1.121q0,.2,0,.546V8.183a18.64,18.64,0,0,0,.039,1.943q.091.137.625.137.429,0,.429.1t-.273.116a2.163,2.163,0,0,1-.312-.021,2.878,2.878,0,0,0-.325-.021l-1.5.042q-.234,0-.234-.095t.742-.116q.312,0,.364-.084a1.542,1.542,0,0,0,.052-.547V4.6a7.731,7.731,0,0,0-.026-.947.318.318,0,0,0-.221-.2,3.814,3.814,0,0,0-.729-.084q-.208-.01-.208-.095,0-.115.382-.116h.908q.776,0,1.092-.008.064.137.755,1.653.3.631,1.663,3.68.246-.684.5-1.347l1.391-3.471q.129-.3.229-.5l1.93-.01a1.912,1.912,0,0,1,.489.032.1.1,0,0,1,.064.095q0,.105-.221.105a3.711,3.711,0,0,0-.494.021.71.71,0,0,0-.429.169,5.06,5.06,0,0,0-.065,1.233v4.9q0,.422.1.5a2.218,2.218,0,0,0,.846.095h.078q.26,0,.26.089" transform="translate(-297.611 24116.152)"/>
    <path id="パス_4" data-name="パス 4" d="M616.6,5.4a1.873,1.873,0,0,1-.852,1.539,3.331,3.331,0,0,1-2.049.636,5.154,5.154,0,0,1-1.679-.347,1.281,1.281,0,0,0-.39-.095q-.156,0-.2.291a.149.149,0,0,1-.169.15.113.113,0,0,1-.13-.126.451.451,0,0,1,.013-.126,7.442,7.442,0,0,0,.1-1.187q0-.1-.026-.588a.866.866,0,0,1-.013-.168.139.139,0,0,1,.156-.158q.13,0,.182.255a2.036,2.036,0,0,0,2.2,1.888A1.872,1.872,0,0,0,614.982,7a1.258,1.258,0,0,0,.436-1.024,1.355,1.355,0,0,0-.423-1,4.519,4.519,0,0,0-1.451-.825,5.561,5.561,0,0,1-1.718-.956,1.523,1.523,0,0,1-.481-1.145,1.777,1.777,0,0,1,.7-1.439A2.7,2.7,0,0,1,613.8.042a4.453,4.453,0,0,1,1.223.242,1.544,1.544,0,0,0,.4.084.294.294,0,0,0,.189-.042A.482.482,0,0,0,615.7.105.131.131,0,0,1,615.848,0a.113.113,0,0,1,.13.126.457.457,0,0,1-.013.126,4.079,4.079,0,0,0-.039.609,3.849,3.849,0,0,0,.065.8l.013.168q.013.116-.117.116t-.2-.242a1.8,1.8,0,0,0-.677-1.035,1.9,1.9,0,0,0-1.2-.415,1.515,1.515,0,0,0-1.034.336,1.153,1.153,0,0,0-.384.914,1.278,1.278,0,0,0,.56,1.082,7.285,7.285,0,0,0,1.353.651,5.683,5.683,0,0,1,1.757,1A1.567,1.567,0,0,1,616.6,5.4" transform="translate(-519.102 24119.168)"/>
    <path id="パス_5" data-name="パス 5" d="M72.339,243.9q0,.025-.1.027a.154.154,0,0,0-.146.072,2.505,2.505,0,0,0-.112.3q-.131.4-.232.675-.174.475-.316.919c-.008.025-.018.038-.03.038s-.019-.01-.028-.029-.035-.086-.079-.2q-.081-.227-.176-.456-.075-.18-.147-.372-.2.49-.4,1.023-.012.035-.029.035t-.035-.049q-.09-.214-.667-1.777a.713.713,0,0,0-.061-.138q-.02-.027-.1-.03-.139-.006-.139-.041c0-.017.016-.026.046-.026a.181.181,0,0,1,.035,0q.154.009.33.009.035,0,.12-.006t.222-.006h.032q.049,0,.049.027t-.089.035q-.178.006-.178.047,0,.081.533,1.51.194-.49.289-.721l-.286-.742a.147.147,0,0,0-.054-.078.271.271,0,0,0-.112-.02q-.082,0-.082-.026t.061-.032q.046,0,.113.006t.232.006h.539q.107,0,.258-.009l.041,0q.07,0,.07.031t-.049.027h-.049a.439.439,0,0,0-.2.035.615.615,0,0,0-.107.208l-.117.275-.051.131q.02.058.127.322.138.335.227.576l.384-1.11a2.927,2.927,0,0,0,.117-.379q0-.055-.1-.055-.142,0-.142-.032t.058-.029a.638.638,0,0,1,.078,0,.97.97,0,0,0,.116.008h.232a.314.314,0,0,1,.1.007.019.019,0,0,1,.009.015m-1.226.033h-.084q-.1.006-.1.038s.057.172.171.5q.066-.145.156-.383.012-.032.036-.084l.006-.023q0-.052-.18-.052" transform="translate(-1.412 23886.064)"/>
    <path id="パス_6" data-name="パス 6" d="M134.132,261.271a.256.256,0,0,1-.045.1.641.641,0,0,1-.091.12.445.445,0,0,1-.333.128.571.571,0,0,1-.436-.188.659.659,0,0,1-.175-.467.717.717,0,0,1,.167-.484.526.526,0,0,1,.416-.194.509.509,0,0,1,.345.12.417.417,0,0,1,.148.309,1.478,1.478,0,0,1-.246.012h-.2l-.348.009a1.212,1.212,0,0,0-.014.182.769.769,0,0,0,.112.449.363.363,0,0,0,.315.157.3.3,0,0,0,.186-.052.637.637,0,0,0,.151-.2.035.035,0,0,1,.032-.023q.023,0,.023.02m-.252-.591q-.012-.348-.249-.348t-.293.348Z" transform="translate(-62.118 23870.369)"/>
    <path id="パス_7" data-name="パス 7" d="M171.839,245.244q0,.025-.043.025a.431.431,0,0,1-.052,0l-.368-.012-.368.012a.314.314,0,0,1-.043,0q-.058,0-.058-.03t.078-.033q.255,0,.255-.051a.166.166,0,0,0-.006-.023l-.024-.077-.015-.04q-.026-.09-.127-.4h-.62a3.12,3.12,0,0,0-.174.533.045.045,0,0,0,.035.049q.009,0,.145.012.084,0,.084.029t-.075.029q-.133,0-.31-.012l-.09,0a.413.413,0,0,0-.09.01.2.2,0,0,1-.038,0c-.027,0-.041-.009-.041-.026s.03-.027.091-.029a.281.281,0,0,0,.132-.028.167.167,0,0,0,.064-.094q.373-1.07.607-1.719a.339.339,0,0,1,.027-.077l.012-.053q.009-.032.023-.032t.015.017q.038.113.171.473.1.281.519,1.412a.139.139,0,0,0,.059.083.422.422,0,0,0,.149.021q.075,0,.075.027m-.785-.694-.156-.432-.139-.4q-.122.321-.294.834Z" transform="translate(-97.334 23886.691)"/>
    <path id="パス_8" data-name="パス 8" d="M212.361,260.615a.155.155,0,0,1-.041.11.136.136,0,0,1-.1.043.127.127,0,0,1-.087-.03.1.1,0,0,1-.035-.077.1.1,0,0,1,.026-.07c.017-.019.026-.033.026-.041q0-.044-.064-.043a.165.165,0,0,0-.139.1.987.987,0,0,0-.067.438v.571a.04.04,0,0,0,.025.043.734.734,0,0,0,.149.012q.032.006.032.023t-.038.02h-.562c-.031,0-.046-.006-.046-.017s.013-.017.038-.017h.041q.1,0,.116-.023a.485.485,0,0,0,.006-.108v-.8q0-.16-.048-.185a.372.372,0,0,0-.152-.028q-.035,0-.035-.02t.029-.02h.02q.043,0,.087,0l.038,0a.569.569,0,0,0,.238-.061l.038-.017.023-.009a.846.846,0,0,1,.012.139v.058a.287.287,0,0,1,.261-.2.217.217,0,0,1,.154.057.184.184,0,0,1,.061.141" transform="translate(-137.009 23870.244)"/>
    <path id="パス_9" data-name="パス 9" d="M236.323,261.271a.256.256,0,0,1-.045.1.641.641,0,0,1-.091.12.445.445,0,0,1-.333.128.571.571,0,0,1-.436-.188.659.659,0,0,1-.175-.467.717.717,0,0,1,.167-.484.526.526,0,0,1,.416-.194.509.509,0,0,1,.345.12.417.417,0,0,1,.148.309,1.478,1.478,0,0,1-.246.012h-.2l-.348.009a1.212,1.212,0,0,0-.014.182.769.769,0,0,0,.112.449.363.363,0,0,0,.314.157.3.3,0,0,0,.186-.052.638.638,0,0,0,.151-.2.035.035,0,0,1,.032-.023q.023,0,.023.02m-.252-.591q-.012-.348-.249-.348t-.293.348Z" transform="translate(-159.798 23870.369)"/>
    <path id="パス_10" data-name="パス 10" d="M276.815,245.552a.465.465,0,0,1-.27.438.957.957,0,0,1-.374.087q-.067,0-.394,0h-.354q-.049,0-.049-.025t.09-.025q.1,0,.123-.022a.261.261,0,0,0,.019-.132v-1.568a.489.489,0,0,0-.012-.148q-.02-.035-.148-.038-.078,0-.078-.031t.072-.027h.035a.223.223,0,0,0,.058.009h.565a.873.873,0,0,1,.467.1.388.388,0,0,1,.18.345.406.406,0,0,1-.148.323.766.766,0,0,1-.415.158v.017a.887.887,0,0,1,.412.11.464.464,0,0,1,.22.42m-.388-1a.437.437,0,0,0-.128-.371.454.454,0,0,0-.252-.049q-.049,0-.154.009v.841h.026l.159-.006a.329.329,0,0,0,.257-.117.469.469,0,0,0,.091-.306m.084.968a.414.414,0,0,0-.3-.452,1.306,1.306,0,0,0-.322-.026v.864q0,.084.017.1a.37.37,0,0,0,.162.02.415.415,0,0,0,.319-.128.53.53,0,0,0,.119-.374" transform="translate(-198.154 23885.875)"/>
    <path id="パス_11" data-name="パス 11" d="M314.28,261.271a.256.256,0,0,1-.045.1.642.642,0,0,1-.091.12.445.445,0,0,1-.333.128.571.571,0,0,1-.436-.188.659.659,0,0,1-.175-.467.717.717,0,0,1,.167-.484.526.526,0,0,1,.416-.194.509.509,0,0,1,.345.12.417.417,0,0,1,.148.309,1.478,1.478,0,0,1-.246.012h-.2l-.348.009a1.216,1.216,0,0,0-.014.182.77.77,0,0,0,.112.449.363.363,0,0,0,.315.157.3.3,0,0,0,.185-.052.636.636,0,0,0,.151-.2.035.035,0,0,1,.032-.023c.016,0,.023.007.023.02m-.252-.591q-.012-.348-.249-.348t-.293.348Z" transform="translate(-234.314 23870.369)"/>
    <path id="パス_12" data-name="パス 12" d="M343.032,261.455q0,.049-.1.1a.426.426,0,0,1-.2.054.187.187,0,0,1-.208-.206.36.36,0,0,1-.34.215.291.291,0,0,1-.2-.074.246.246,0,0,1-.081-.19.422.422,0,0,1,.284-.377,1.571,1.571,0,0,1,.339-.093v-.072a1.354,1.354,0,0,0-.026-.336.2.2,0,0,0-.209-.148.261.261,0,0,0-.17.055.172.172,0,0,0-.068.139q0,.023.035.023a.082.082,0,0,1,.064.035.121.121,0,0,1,.028.078.112.112,0,0,1-.126.128.144.144,0,0,1-.109-.045.159.159,0,0,1-.043-.115.308.308,0,0,1,.107-.235.475.475,0,0,1,.33-.107q.319,0,.391.174a.86.86,0,0,1,.026.264v.542q0,.133,0,.157.015.1.084.1a.171.171,0,0,0,.133-.058q.029-.032.043-.032c.01,0,.014.006.014.017m-.51-.307v-.212a.733.733,0,0,0-.307.129.267.267,0,0,0-.093.213.22.22,0,0,0,.053.152.171.171,0,0,0,.133.059.222.222,0,0,0,.2-.139.643.643,0,0,0,.017-.2" transform="translate(-261.747 23870.369)"/>
    <path id="パス_13" data-name="パス 13" d="M367.236,262.241q0,.02-.064.023a1.045,1.045,0,0,0-.4.1.047.047,0,0,1-.02.006q-.017,0-.017-.023v-.162a.43.43,0,0,1-.371.185.355.355,0,0,1-.3-.124.233.233,0,0,1-.045-.095,2.092,2.092,0,0,1-.007-.233v-.659a.318.318,0,0,0-.012-.118c-.008-.012-.034-.018-.078-.02h-.038q-.078.006-.078-.023t.049-.02q.052,0,.151.008l.058,0a1.441,1.441,0,0,0,.188-.012v.8a.947.947,0,0,0,.029.294.183.183,0,0,0,.188.112.242.242,0,0,0,.226-.127.626.626,0,0,0,.052-.294v-.447a.92.92,0,0,0-.009-.147v-.1c0-.029-.008-.046-.019-.051a.189.189,0,0,0-.065-.007q-.122,0-.122-.026t.061-.017h.394v.809a2.337,2.337,0,0,0,.009.264c.006.037.021.058.044.064a.9.9,0,0,0,.162.009c.023,0,.034.007.034.02" transform="translate(-284.597 23869.615)"/>
    <path id="パス_14" data-name="パス 14" d="M398.911,256.957q0,.026-.073.093a.425.425,0,0,1-.3.113.327.327,0,0,1-.241-.081.465.465,0,0,1-.046-.272v-.862a.032.032,0,0,0-.032-.032h-.11c-.042,0-.064-.007-.064-.02s.011-.021.032-.023a.446.446,0,0,0,.351-.223.051.051,0,0,1,.043-.026.018.018,0,0,1,.02.02v.061a.638.638,0,0,0,.012.157.45.45,0,0,0,.087.006.971.971,0,0,0,.212-.014l.02,0c.015,0,.023.008.023.025s-.078.042-.235.042H398.5v.536a3.667,3.667,0,0,0,.02.509.12.12,0,0,0,.133.1.34.34,0,0,0,.214-.107.033.033,0,0,1,.026-.014c.013,0,.02,0,.02.014" transform="translate(-315.42 23874.826)"/>
    <path id="パス_15" data-name="パス 15" d="M415.907,261.03c0,.014-.023.022-.07.024a.3.3,0,0,0-.088.012.084.084,0,0,0-.033.05l-.02.053-.023.072-.122.4q-.229.736-.38,1.142-.093.246-.255.246a.165.165,0,0,1-.115-.041.134.134,0,0,1-.045-.1.119.119,0,0,1,.036-.09.13.13,0,0,1,.094-.035.119.119,0,0,1,.113.064c.017.033.032.049.043.049s.044-.047.081-.142q.081-.212.128-.38-.214-.562-.365-.983a1.952,1.952,0,0,0-.116-.29.18.18,0,0,0-.094-.014q-.077,0-.077-.029c0-.016.013-.023.038-.023s.054,0,.1.006.078.006.1.006h.052l.168-.008.148,0c.021,0,.032.008.032.025s-.036.023-.107.025-.09.011-.09.029a1.028,1.028,0,0,0,.059.177l.049.139.051.144q.02.064.1.291.03.07.066.169.278-.873.278-.916a.029.029,0,0,0-.022-.032.727.727,0,0,0-.124-.006c-.02,0-.029-.008-.029-.023s.012-.02.035-.02a.059.059,0,0,1,.023,0q.1.008.162.008h.081a.248.248,0,0,0,.068-.006.116.116,0,0,1,.039-.006c.017,0,.026.007.026.021" transform="translate(-331.24 23869.68)"/>
    <path id="パス_16" data-name="パス 16" d="M459.387,244.806s0,.022-.006.078q-.012.168-.012.325c0,.012,0,.035.006.071a1.251,1.251,0,0,1,.006.129v.026c0,.025-.008.038-.023.038s-.029-.014-.041-.043a.3.3,0,0,0-.081-.125.735.735,0,0,1-.5.183.928.928,0,0,1-.706-.3,1.05,1.05,0,0,1-.28-.749,1.077,1.077,0,0,1,.257-.744.846.846,0,0,1,.662-.288.914.914,0,0,1,.236.025,1,1,0,0,1,.219.1.219.219,0,0,0,.1.038c.017,0,.034-.015.049-.046.025-.054.045-.081.061-.081a.021.021,0,0,1,.023.023.2.2,0,0,1-.006.038,2.773,2.773,0,0,0-.032.522.125.125,0,0,1-.009.064.031.031,0,0,1-.023.009c-.019,0-.032-.018-.038-.055a.983.983,0,0,0-.107-.345.486.486,0,0,0-.447-.232.466.466,0,0,0-.371.157,1.495,1.495,0,0,0-.044,1.574.561.561,0,0,0,.47.232.53.53,0,0,0,.275-.074.5.5,0,0,0,.191-.2,1.17,1.17,0,0,0,.107-.322q.012-.07.038-.07t.029.043" transform="translate(-372.484 23886.502)"/>
    <path id="パス_17" data-name="パス 17" d="M499.1,260.615a.155.155,0,0,1-.041.11.136.136,0,0,1-.1.043.127.127,0,0,1-.087-.03.1.1,0,0,1-.035-.077.1.1,0,0,1,.026-.07c.017-.019.026-.033.026-.041q0-.044-.064-.043a.165.165,0,0,0-.139.1.988.988,0,0,0-.067.438v.571a.04.04,0,0,0,.025.043.734.734,0,0,0,.149.012c.021,0,.032.012.032.023s-.013.02-.038.02h-.562c-.031,0-.046-.006-.046-.017s.013-.017.038-.017h.041q.1,0,.116-.023a.478.478,0,0,0,.006-.108v-.8q0-.16-.048-.185a.371.371,0,0,0-.152-.028q-.035,0-.035-.02t.029-.02h.02q.043,0,.087,0l.038,0a.57.57,0,0,0,.238-.061l.038-.017.023-.009a.857.857,0,0,1,.012.139v.058a.287.287,0,0,1,.261-.2.217.217,0,0,1,.154.057.184.184,0,0,1,.061.141" transform="translate(-411.093 23870.244)"/>
    <path id="パス_18" data-name="パス 18" d="M523.061,261.271a.257.257,0,0,1-.045.1.637.637,0,0,1-.091.12.444.444,0,0,1-.333.128.572.572,0,0,1-.436-.188.659.659,0,0,1-.175-.467.717.717,0,0,1,.167-.484.526.526,0,0,1,.416-.194.509.509,0,0,1,.345.12.417.417,0,0,1,.148.309,1.479,1.479,0,0,1-.246.012h-.2l-.348.009a1.208,1.208,0,0,0-.015.182.768.768,0,0,0,.112.449.363.363,0,0,0,.314.157.3.3,0,0,0,.186-.052.637.637,0,0,0,.151-.2.035.035,0,0,1,.032-.023c.015,0,.023.007.023.02m-.252-.591q-.012-.348-.249-.348t-.293.348Z" transform="translate(-433.88 23870.369)"/>
    <path id="パス_19" data-name="パス 19" d="M551.813,261.455q0,.049-.1.1a.425.425,0,0,1-.2.054.187.187,0,0,1-.208-.206.359.359,0,0,1-.34.215.291.291,0,0,1-.2-.074.246.246,0,0,1-.081-.19.422.422,0,0,1,.284-.377,1.571,1.571,0,0,1,.339-.093v-.072a1.35,1.35,0,0,0-.026-.336.2.2,0,0,0-.209-.148.261.261,0,0,0-.17.055.172.172,0,0,0-.068.139q0,.023.035.023a.081.081,0,0,1,.064.035.121.121,0,0,1,.029.078.112.112,0,0,1-.126.128.144.144,0,0,1-.109-.045.159.159,0,0,1-.043-.115.308.308,0,0,1,.107-.235.475.475,0,0,1,.33-.107q.319,0,.391.174a.859.859,0,0,1,.026.264v.542q0,.133,0,.157.015.1.084.1a.171.171,0,0,0,.133-.058q.029-.032.044-.032c.01,0,.014.006.014.017m-.51-.307v-.212a.734.734,0,0,0-.307.129.267.267,0,0,0-.093.213.22.22,0,0,0,.053.152.17.17,0,0,0,.133.059.222.222,0,0,0,.2-.139.64.64,0,0,0,.017-.2" transform="translate(-461.313 23870.369)"/>
    <path id="パス_20" data-name="パス 20" d="M575.513,256.957q0,.026-.073.093a.425.425,0,0,1-.3.113.327.327,0,0,1-.241-.081.465.465,0,0,1-.046-.272v-.862a.032.032,0,0,0-.032-.032h-.11c-.043,0-.064-.007-.064-.02s.01-.021.032-.023a.446.446,0,0,0,.351-.223.05.05,0,0,1,.043-.026.018.018,0,0,1,.02.02v.061a.644.644,0,0,0,.011.157.451.451,0,0,0,.087.006.97.97,0,0,0,.212-.014l.02,0c.016,0,.023.008.023.025s-.078.042-.235.042H575.1v.536a3.652,3.652,0,0,0,.02.509.12.12,0,0,0,.133.1.341.341,0,0,0,.215-.107.033.033,0,0,1,.026-.014c.013,0,.02,0,.02.014" transform="translate(-484.227 23874.826)"/>
    <path id="パス_21" data-name="パス 21" d="M596.027,261.271a.257.257,0,0,1-.045.1.642.642,0,0,1-.091.12.444.444,0,0,1-.333.128.571.571,0,0,1-.436-.188.659.659,0,0,1-.175-.467.717.717,0,0,1,.167-.484.526.526,0,0,1,.416-.194.509.509,0,0,1,.345.12.417.417,0,0,1,.148.309,1.477,1.477,0,0,1-.246.012h-.2l-.348.009a1.232,1.232,0,0,0-.014.182.769.769,0,0,0,.112.449.363.363,0,0,0,.315.157.3.3,0,0,0,.185-.052.635.635,0,0,0,.151-.2.035.035,0,0,1,.032-.023c.016,0,.023.007.023.02m-.252-.591q-.012-.348-.249-.348t-.293.348Z" transform="translate(-503.626 23870.369)"/>
    <path id="パス_22" data-name="パス 22" d="M622.5,260.615a.155.155,0,0,1-.041.11.136.136,0,0,1-.1.043.127.127,0,0,1-.087-.03.1.1,0,0,1-.035-.077.1.1,0,0,1,.026-.07c.017-.019.026-.033.026-.041q0-.044-.064-.043a.165.165,0,0,0-.139.1.987.987,0,0,0-.067.438v.571c0,.023.008.038.025.043a.732.732,0,0,0,.149.012c.021,0,.032.012.032.023s-.013.02-.038.02h-.562c-.031,0-.046-.006-.046-.017s.012-.017.038-.017h.041q.1,0,.116-.023a.48.48,0,0,0,.006-.108v-.8q0-.16-.048-.185a.372.372,0,0,0-.152-.028q-.035,0-.035-.02t.029-.02h.02q.043,0,.087,0l.038,0a.569.569,0,0,0,.238-.061l.038-.017.023-.009a.85.85,0,0,1,.012.139v.058a.287.287,0,0,1,.261-.2.217.217,0,0,1,.154.057.184.184,0,0,1,.061.141" transform="translate(-529.051 23870.244)"/>
    <path id="パス_23" data-name="パス 23" d="M647.4,260.275a.382.382,0,0,1-.122.286.407.407,0,0,1-.292.118.565.565,0,0,1-.239-.07.144.144,0,0,0-.066-.02c-.027,0-.047.018-.06.055s-.018.035-.032.035-.02-.008-.02-.023v-.388q0-.032.02-.032c.015,0,.024.011.026.032a.435.435,0,0,0,.075.21.37.37,0,0,0,.31.152.233.233,0,0,0,.168-.061.215.215,0,0,0,.064-.163.233.233,0,0,0-.072-.18.313.313,0,0,0-.074-.054q-.033-.016-.2-.077-.322-.122-.322-.366a.373.373,0,0,1,.109-.273.365.365,0,0,1,.27-.11.662.662,0,0,1,.173.035.183.183,0,0,0,.052.009.07.07,0,0,0,.075-.058c.006-.019.014-.029.026-.029s.02.008.02.023v.139a1.635,1.635,0,0,0,.014.223v.006a.02.02,0,0,1-.023.023q-.017,0-.044-.088a.338.338,0,0,0-.112-.17.285.285,0,0,0-.184-.064.225.225,0,0,0-.162.061.2.2,0,0,0-.064.154q0,.145.194.221a1.355,1.355,0,0,1,.383.2.332.332,0,0,1,.1.247" transform="translate(-552.967 23871.311)"/>
  </g>
</svg>
