<svg xmlns="http://www.w3.org/2000/svg" width="320" height="151.922" viewBox="0 0 320 151.922">
  <g id="グループ_3798" data-name="グループ 3798" transform="translate(-36.5 -18735.1)">
    <path id="パス_9522" data-name="パス 9522" d="M338.328,14248.547h320" transform="translate(-301.828 4590.453)" fill="none" stroke="#505050" stroke-width="1"/>
    <path id="パス_10055" data-name="パス 10055" d="M8.95-1.725a21.262,21.262,0,0,1-4.15.75c-1.025.1-1.475.1-1.475.575A3.619,3.619,0,0,0,3.575.625c.35.85.725.85.975.85.275,0,.55-.05.825-.075a25.051,25.051,0,0,0,7.6-2.075,16.888,16.888,0,0,0,5.625-4,1.647,1.647,0,0,0,.525-.95,1.681,1.681,0,0,0-1.7-1.5c-.775,0-1.525.025-2.3.025H11.95c-.1-.025-.225-.05-.225-.175a.178.178,0,0,1,.075-.15.618.618,0,0,1,.225-.1c.175,0,.7-.025.7-.3s-.3-.325-.525-.375c-.05,0-.15-.025-.15-.075,0-.025.05-.05.075-.05h7.7c.5,0,.675.2.7.7,0,.275-.05.65-.05.925,0,.5.4.475,1.225.475.85,0,1.225.025,1.225-.475,0-.25-.05-.65-.05-.9v-.5c0-.45.025-.8.025-1.1,0-.85-.575-.975-1.775-.975-.55,0-1.225.025-2.025.025H5.9c-.825,0-1.55-.05-2.125-.05-1.1,0-1.7.15-1.7.975,0,.275.05.65.05,1.125v.45c0,.275-.05.65-.05.9,0,.5.35.5,1.225.5.825,0,1.2,0,1.2-.475,0-.25-.05-.65-.05-.9.05-.5.2-.65.7-.7H8.625c.15.025.325.075.325.25a.372.372,0,0,1-.1.225A15.5,15.5,0,0,1,4.3-4.95c-.775.3-1,.375-1,.65,0,.425.675,1.6,1.225,1.6.775,0,3.6-1.725,4.325-2.225a1.78,1.78,0,0,1,1.2-.35h4.725c.3,0,.575.025.575.175,0,.175-.725.725-.875.85A16.853,16.853,0,0,1,12.5-3.125.936.936,0,0,1,12.05-3a.9.9,0,0,1-.6-.275,8,8,0,0,0-1.95-1.5c-.45,0-1.7.85-1.7,1.175,0,.15.45.525.825.825.2.15.35.3.475.4a.5.5,0,0,1,.15.325C9.25-1.875,9.125-1.775,8.95-1.725ZM16-13.75c0-.45.25-.65.675-.7H17.8a.7.7,0,0,1,.7.7v.25a.663.663,0,0,1-.7.675H16.675A.618.618,0,0,1,16-13.5Zm-4.725,0a.684.684,0,0,1,.7-.7h1.15a.7.7,0,0,1,.7.7v.25a.663.663,0,0,1-.7.675h-1.15a.626.626,0,0,1-.7-.675Zm-2.925-.7a.7.7,0,0,1,.7.7v.25a.663.663,0,0,1-.7.675H7.25a.663.663,0,0,1-.7-.675v-.25a.7.7,0,0,1,.7-.7Zm2.725-1.625c-.4-.05-.55-.225-.55-.6-.025-.45.25-.625.675-.625h2.7c.45,0,.65.175.675.65-.05.375-.175.575-.55.575ZM5.1-19.175c-.975,0-1.95-.05-2.95-.05-.6,0-.575.225-.575,1,0,.75,0,.975.575.975,1,0,1.975-.05,2.95-.05H7.15c.45,0,.625.175.65.625-.025.35-.15.575-.525.6-.575-.025-1.175-.05-1.75-.05s-1.4.05-1.4.825c0,.2.025.425.025.9v1.575c0,.475-.025.7-.025.9,0,.8.875.825,1.475.825.625,0,1.25-.05,1.875-.05H17.6c.625,0,1.275.05,1.9.05.6,0,1.425-.05,1.425-.825,0-.25-.025-.45-.025-.9V-14.4c0-.45.025-.65.025-.9,0-.8-.875-.825-1.45-.825s-1.125.025-1.675.05c-.375-.025-.475-.25-.525-.6a.581.581,0,0,1,.675-.625h2.075c.975,0,1.975.05,2.95.05.6,0,.575-.225.575-.975s.025-1-.575-1c-1,0-1.975.05-2.95.05h-2.1c-.325,0-.675-.1-.675-.5a.55.55,0,0,1,.3-.5c.15-.1.275-.15.275-.3,0-.25-.4-.275-.6-.275-.5-.05-1.775-.15-2.25-.15-.2,0-.45,0-.45.275a.692.692,0,0,0,.025.225,4.1,4.1,0,0,1,.05.575c0,.475-.225.65-.675.65h-2.75c-.325,0-.675-.1-.675-.475v-.075a.527.527,0,0,1,.275-.45c.15-.1.275-.15.275-.3,0-.25-.375-.275-.575-.275-.525-.05-1.8-.15-2.275-.15-.2,0-.45.025-.45.275a.692.692,0,0,0,.025.225c.025.175.05.375.075.575,0,.475-.225.65-.675.65Zm31.35-1.55c-.25,0-.3.25-.35.525a13.717,13.717,0,0,1-1.35,3.225c-.225.3-.9.325-1.55.325h-.725c-.725,0-1.375-.05-1.8-.05-.625,0-.725.15-.725,1.15,0,1.275.1,1.4.65,1.4.775,0,1.35-.075,1.75-.075.35,0,.55.075.55.3,0,.475-3.625,5.5-4.2,6.125-.125.15-.325.35-.325.55,0,.45,1.675,1.45,2.125,1.45a.416.416,0,0,0,.35-.25,16.387,16.387,0,0,1,2.1-2.925,8.4,8.4,0,0,1,4.675-2.2,1.04,1.04,0,0,1,1.1.85,3.433,3.433,0,0,1,.125.7c0,.3-.2.45-.45.575-.525.25-1.05.525-1.55.825-1.725,1.025-3.55,2.25-3.55,4.5A3.8,3.8,0,0,0,35.8-.15,9.262,9.262,0,0,0,39.75.5a33.156,33.156,0,0,0,4.8-.325c.55-.125.575-.325.575-1.075,0-1.425-.175-1.7-.5-1.7a3.078,3.078,0,0,0-.5.05,18.279,18.279,0,0,1-4.65.625c-1.2,0-3.625-.15-3.625-1.825,0-1.55,2.575-2.65,2.7-2.65.25,0,.325.2.325.425,0,.525-.05,1.075-.05,1.625,0,.65.45.7,1.525.7.95,0,1.075-.1,1.075-1,0-.775-.025-1.525-.025-2.3v-.325c0-.5.2-.65.65-.825C43.025-8.525,44-8.95,45-9.325c.125-.05.25-.075.35-.125.475-.15.75-.25.75-.55,0-.425-.6-2.35-1.075-2.35a2.062,2.062,0,0,0-.65.25,22.255,22.255,0,0,1-2.925,1.425c-.25,0-.325-.2-.375-.425a2.549,2.549,0,0,0-2.85-2.25,6.917,6.917,0,0,0-2.725.65.963.963,0,0,1-.45.15.193.193,0,0,1-.2-.175,8.071,8.071,0,0,1,.85-1.45.882.882,0,0,1,.75-.4c1.575-.175,3.15-.45,4.725-.775.525-.1,1.325-.2,1.325-.625a7.988,7.988,0,0,0-.2-1.35c-.075-.35-.2-.75-.625-.75a1.9,1.9,0,0,0-.625.15,18.088,18.088,0,0,1-2.9.7.243.243,0,0,1-.275-.25,1.679,1.679,0,0,1,.25-.575c.325-.575.425-.7.825-.85.125-.05.3-.15.3-.3C39.25-19.575,36.675-20.725,36.45-20.725Zm21.525,6.2c.675,0,1.425.05,2,.05.55,0,.525-.275.525-1.05s.025-1.05-.525-1.05c-.625,0-1.3.05-2,.05h-3.9c-.675,0-1.35-.05-1.975-.05-.575,0-.55.3-.55,1.05s-.025,1.05.55,1.05,1.3-.05,1.975-.05ZM57.2-7.775c.6,0,1.2.025,1.75.025s.525-.275.525-1.05c0-.725.025-1.05-.525-1.05-.425,0-1.1.05-1.75.05H55.25c-.675,0-1.35-.05-1.775-.05-.525,0-.525.3-.525,1.05,0,.8,0,1.05.525,1.05s1.15-.025,1.775-.025Zm0-3.4c.625,0,1.225.05,1.75.05.55,0,.525-.325.525-1.05S59.5-13.2,58.95-13.2c-.475,0-1.125.05-1.75.05H55.25c-.625,0-1.3-.05-1.775-.05-.525,0-.525.275-.525,1.025s0,1.05.525,1.05c.475,0,1.15-.05,1.775-.05Zm.025-6.675c.6,0,1.2.05,1.75.05s.525-.3.525-1.1c0-.775.025-1.1-.525-1.1s-1.15.05-1.75.05h-1.9c-.625,0-1.225-.05-1.75-.05-.55,0-.55.3-.55,1.1,0,.775,0,1.1.525,1.1s1.15-.05,1.775-.05Zm8.1,15.9a.637.637,0,0,1-.675-.7V-4.275a.637.637,0,0,1,.675-.7h3.55a.715.715,0,0,1,.7.7V-2.65c-.05.45-.275.7-.7.7ZM69.55.775a.937.937,0,0,0-.025.275c0,.575.275.575,1.3.575.975,0,1.275,0,1.275-.575,0-.625-.05-1.275-.05-1.9v-3.8c0-.5.05-1,.05-1.475,0-.925-.575-1.075-1.35-1.075-.575,0-1.15.05-1.7.05H65.2c-.575,0-1.15-.05-1.725-.05-.75,0-1.325.15-1.325,1.025,0,.525.025,1.025.025,1.525v3.8c0,.625-.05,1.275-.05,1.9,0,.575.325.575,1.275.575,1,0,1.3,0,1.3-.575,0-.1-.025-.2-.025-.3C64.7.35,64.85.2,65.25.2h3.725C69.375.2,69.525.375,69.55.775ZM55.9-1.725a.626.626,0,0,1-.7-.675V-3.925c0-.425.25-.65.7-.7h.775a.715.715,0,0,1,.7.7V-2.4a.663.663,0,0,1-.7.675ZM57.325,1c0,.6.25.625,1.175.625.9,0,1.175-.025,1.175-.6,0-.625-.05-1.25-.05-1.875V-3.925c0-.55.05-1.075.05-1.6,0-.8-.45-1.05-1.2-1.05-.475,0-.925.025-1.375.025H55.375c-.475,0-.975-.025-1.45-.025-.75,0-1.2.25-1.2,1.075,0,.525.025,1.05.025,1.575V-.85c0,.625-.025,1.25-.025,1.875,0,.575.25.6,1.25.6s1.25-.025,1.25-.6V.775A.5.5,0,0,1,55.8.2h.95c.425,0,.575.175.575.575ZM66-13.05c.1-.475.3-.625.8-.625h1.4c.475,0,.675.225.675.7v1.425c0,.475-.2.675-.675.675H66.275c-.325,0-.575-.125-.575-.5v-.15Zm5.3.2c0-.6.05-1.2.05-1.825,0-.925-.425-1.125-1.275-1.125-.65,0-1.275.025-1.9.025H67.2c-.3,0-.575-.125-.575-.5,0-.05.025-.1.025-.15l.125-.775c.075-.5.325-.625.825-.625h1.775c.8,0,1.6.05,2.4.05.6,0,.6-.275.6-1.1s0-1.1-.6-1.1c-.8,0-1.6.05-2.4.05H64.15c-.8,0-1.6-.05-2.4-.05-.6,0-.575.3-.575,1.1,0,.775-.025,1.1.575,1.1.675,0,1.325-.075,2-.05a.486.486,0,0,1,.55.5v.175l-.15.75c-.1.45-.3.6-.775.625-.35-.025-.7-.05-1.075-.05-.525,0-.55.175-.55,1.1,0,.9,0,1.1.525,1.1a6.092,6.092,0,0,0,.675-.025c.3.025.55.15.55.5v.125l-.275,1.5c-.125.45-.3.625-.775.65-.375-.025-.725-.05-1.075-.05-.625,0-.6.35-.6,1.15,0,.85-.025,1.15.6,1.15.825,0,1.65-.05,2.475-.05h6.6c.825,0,1.675.05,2.5.05.6,0,.6-.325.6-1.15,0-.8.025-1.15-.6-1.15-.325,0-.65.025-.975.05-.475-.025-.675-.225-.675-.7Zm12.025-7.325c-.275,0-.4.075-.4.35,0,.175.025.475.025.775,0,1.1-.1,2.6-.1,3.275a1.622,1.622,0,0,1-.125.75c-.3.6-3.475,1.15-4.225,1.25-.3.05-.825.05-.825.45a7.387,7.387,0,0,0,.525,1.7c.125.325.325.7.725.7A17.28,17.28,0,0,0,81.95-11.95a1.518,1.518,0,0,1,.45-.125c.225,0,.325.175.325.375s-.05.425-.05.65a2.349,2.349,0,0,1-.3,1.175C81.225-7.8,80.05-5.75,78.7-3.775a2.67,2.67,0,0,0-.5.9c0,.425,1.45,1.65,1.875,1.65.15,0,.25-.15.325-.3C80.65-2,81.425-3.35,81.7-3.8c.25-.375.425-.75.6-.75s.225.2.225.325c0,1.125-.15,3.9-.15,4.125,0,.5.45.5,1.05.5,1.85,0,1.825-.25,1.825-.425,0-.275-.075-1.625-.125-2.65C85.1-3.1,85.05-3.85,85.05-4c0-.575-.1-3.625,0-3.95a8.35,8.35,0,0,1,1.4-1.6,25.166,25.166,0,0,1,2.725-2.425,3.755,3.755,0,0,1,1.95-1c.75,0,.75.875.75,1.425,0,2.25-.325,4.525-.325,6.775,0,1.575.2,4,2.3,4a6.469,6.469,0,0,0,3.525-1.45c.275-.2,1.2-.85,1.2-1.2,0-.4-.725-2.275-1.15-2.275a.716.716,0,0,0-.475.275c-.45.5-1.525,1.575-2.2,1.575-.575,0-.55-.875-.55-1.475,0-1.05.075-2.175.125-3.25.075-1.275.125-2.575.125-3.875A4.547,4.547,0,0,0,94-14.825a2.7,2.7,0,0,0-2.15-1.1,5.889,5.889,0,0,0-3.625,1.775c-.6.5-1.6,1.4-2.125,1.95-.05.05-.125.125-.2.125-.15,0-.2-.125-.2-.25a1.943,1.943,0,0,1,.05-.4c.075-.175.55-1.05.675-1.225.05-.075.15-.175.15-.275a1.791,1.791,0,0,0-.85-1.15c-.225-.075-.4-.15-.4-.425,0-.35.175-1.575.225-2,.15-1.025.125-1.1.45-1.375a.56.56,0,0,0,.2-.375c0-.15-.15-.225-.275-.275C85.675-19.9,83.6-20.175,83.325-20.175ZM112.5-2.75c0,.4-.2.85-.675.85-.75,0-1.95-.425-1.95-1.325a1.035,1.035,0,0,1,1.075-1A1.528,1.528,0,0,1,112.5-2.75Zm2.325-16.2a3.411,3.411,0,0,0-.95.275,23.169,23.169,0,0,1-6.325.925h-.6c-.75,0-.775.05-.775.625,0,.425.075,2.3.625,2.3.4,0,3.925-.725,4.525-.875a6,6,0,0,1,.6-.1c.2,0,.425.075.425.3,0,.25-.45.7-.65.9a100.177,100.177,0,0,1-7.775,7.85c-.225.175-.6.45-.6.75,0,.4,1.275,1.8,1.8,1.8a.339.339,0,0,0,.275-.175c.9-1.025,1.8-2.05,2.775-3a7.59,7.59,0,0,1,5.6-2.45c2.175,0,4.225,1,4.225,3.425a4.063,4.063,0,0,1-3.025,3.85c-.2,0-.275-.15-.3-.325a2.486,2.486,0,0,0-.45-1.6A4.078,4.078,0,0,0,110.9-6.25a3.139,3.139,0,0,0-3.2,3.025c0,2.55,2.95,3.4,5.025,3.4,4.025,0,7.95-2.3,7.95-6.725A5.167,5.167,0,0,0,117.7-11.4a7.332,7.332,0,0,0-3.075-.75,4.75,4.75,0,0,0-1.025.1,1.463,1.463,0,0,1-.325.05c-.225,0-.425-.125-.425-.325a.747.747,0,0,1,.25-.425,24.211,24.211,0,0,1,3.625-3.35c.275-.2.55-.35.55-.525C117.275-17.05,115.825-18.95,114.825-18.95Zm15.55,14.025A2.2,2.2,0,0,1,132.6-2.7a2.23,2.23,0,0,1-2.225,2.225A2.23,2.23,0,0,1,128.15-2.7,2.23,2.23,0,0,1,130.375-4.925Zm0-1.25A3.468,3.468,0,0,0,126.9-2.7,3.5,3.5,0,0,0,130.375.775,3.484,3.484,0,0,0,133.85-2.7,3.468,3.468,0,0,0,130.375-6.175ZM12.325,4.925a9.434,9.434,0,0,0-1.25-.4c-.25,0-.3.225-.375.5-.2.725-.75,2.5-.975,3.35-.075.275-.175.6-.575.6A.77.77,0,0,1,8.825,8.9a15.611,15.611,0,0,1-1.7-.875A1.359,1.359,0,0,0,6.55,7.75c-.525,0-.925,1.725-.925,2.15,0,.45.5.675,2.25,1.35.35.125.8.275.8.825a5.172,5.172,0,0,1-.1.55c-.075.375-.175.7-.225.975-.15.725-.225,1.075-.65,1.075a4.536,4.536,0,0,1-1.6-.7,1.376,1.376,0,0,0-.625-.25c-.625,0-.875,1.975-.875,2.125,0,.325.2.45.475.6a8.3,8.3,0,0,0,1.475.6c.575.175,1,.325,1,.875,0,.25-.1,1.2-.1,1.825,0,3.8,2.225,5.975,6,5.975,3.325,0,6.9-1.35,6.9-5.225a13.705,13.705,0,0,0-.825-4.375c-.2-.55-.275-.95-.675-.95-.275,0-2.125.325-2.125.925a1.316,1.316,0,0,0,.1.45,10.8,10.8,0,0,1,.85,3.625,2.516,2.516,0,0,1-.55,1.775c-.775.875-2.5,1.175-3.625,1.175A2.973,2.973,0,0,1,10.175,19.8c0-1.075,0-1.7.675-1.7a2.493,2.493,0,0,1,.4.05c.6.075,1.775.25,2.35.25.425,0,.575-.2.7-.575a5.529,5.529,0,0,0,.325-1.675c0-.25-.075-.425-.75-.425-.75,0-1.5-.025-2.25-.1-.35-.025-.875-.05-.875-.575,0-.2.35-1.775.425-2.075.1-.325.275-.6.675-.6a.73.73,0,0,1,.225.05,31.414,31.414,0,0,0,3.4.375c.35,0,.45-.2.55-.55a7.369,7.369,0,0,0,.275-1.625c0-.5-.375-.475-.85-.475-.85-.025-1.7-.1-2.55-.2-.35-.05-.675-.15-.675-.575a.882.882,0,0,1,.075-.35c.2-.6.4-1.225.625-1.825.35-.9.525-.925.875-1.1.125-.075.225-.15.225-.275C14.025,5.425,12.75,5.075,12.325,4.925Zm20.8,2.4c0,.4.55.525,1.6.8a52.85,52.85,0,0,0,5.75,1.125c.4,0,.55-.25.675-.75a10.77,10.77,0,0,0,.25-1.525c0-.375-.275-.375-.625-.4a26.153,26.153,0,0,1-6.25-1.25.878.878,0,0,0-.4-.15c-.3,0-.4.25-.5.475A5.858,5.858,0,0,0,33.125,7.325Zm4.75,3.125A14.355,14.355,0,0,0,31.2,12.475c-.3.15-.75.375-.75.775,0,.575.8,2.375,1.4,2.375a1.134,1.134,0,0,0,.525-.25,8.329,8.329,0,0,1,5.35-2.35,3.223,3.223,0,0,1,3.475,3.45c0,3.475-3.7,6.2-6.7,7.15-.225.075-.5.175-.5.425,0,.4,1.025,2.1,1.775,2.1a7.366,7.366,0,0,0,2.15-.925C41.1,23.3,44,20.2,44,16.275,44,12.6,41.425,10.45,37.875,10.45ZM69.3,16.825c1.125,0,2.225.075,3.35.075.7,0,.65-.375.65-1.475,0-1.075.05-1.475-.65-1.475-1.1,0-2.225.075-3.35.075H55.7c-1.125,0-2.25-.075-3.35-.075-.7,0-.65.425-.65,1.475,0,1.075-.05,1.475.65,1.475,1.1,0,2.225-.075,3.35-.075ZM91.175,19.1c.4,0,.725.025.725.225,0,.4-1.725,1.65-2.1,1.9a1.012,1.012,0,0,1-.525.175.9.9,0,0,1-.55-.225,12.316,12.316,0,0,1-1.475-1.55.449.449,0,0,1-.1-.225c0-.225.175-.275.375-.3Zm-1.45,5.25A21.105,21.105,0,0,0,96.8,26.375c.175,0,.6.075.775.075.675,0,1-1.2,1-1.75,0-.65-.25-.6-1.1-.65A18.807,18.807,0,0,1,92.1,23a.345.345,0,0,1-.25-.325.39.39,0,0,1,.175-.325c.75-.575,3.6-2.975,3.6-3.875a1.564,1.564,0,0,0-1.6-1.25c-.7,0-1.375.025-2.075.025H85.125c-.875,0-1.75-.05-2.625-.05-.525,0-.525.225-.525.975,0,.7,0,.975.5.975.35,0,.725-.025,1.075-.025.4,0,.575.25.8.55a18.45,18.45,0,0,0,2.1,2.525.427.427,0,0,1,.175.325c0,.175-.125.275-.275.35a23.067,23.067,0,0,1-5.1,1.025c-.375.025-.875.025-.875.525A3.928,3.928,0,0,0,80.75,25.7c.175.4.325.625.825.625,1.65,0,5.45-1.3,7.025-1.975a1.51,1.51,0,0,1,.55-.15A1.1,1.1,0,0,1,89.725,24.35Zm.8-11.775a.7.7,0,0,1,.7.7v.3a.684.684,0,0,1-.7.7H87.9a.7.7,0,0,1-.7-.7v-.3a.715.715,0,0,1,.7-.7Zm-8.25-6.05c-.825,0-1.625-.05-2.45-.05S78.45,6.65,78.45,7.6c0,.725.05,1.425.05,2.15v3.225c0,3.75-.275,8.35-2.075,11.7a1.588,1.588,0,0,0-.225.525c0,.575,1.35,1.275,1.85,1.275a.548.548,0,0,0,.45-.275,18.314,18.314,0,0,0,1.45-3.375,33.172,33.172,0,0,0,1.075-9.175v-.325c0-.475.175-.7.675-.725.65-.025,1.325-.025,1.975-.025h.35c.5,0,.7.2.7.7v.475c0,.5-.025.975-.025,1.475,0,.75.375.9,1.15.9.725,0,1.475-.05,2.225-.05h2.3c.7,0,1.4.05,2.1.05.925,0,1.125-.275,1.125-.925,0-.5-.025-.975-.025-1.45v-.475c0-.5.2-.7.7-.7h.85c1,0,1.975.05,2.975.05.525,0,.5-.3.5-1,0-.725.025-1.025-.5-1.025-1,0-1.975.075-2.975.075h-.85c-.325,0-.65-.15-.65-.525a.58.58,0,0,1,.225-.525c.175-.1.325-.175.325-.325,0-.225-.425-.25-.6-.25-.6-.025-1.375-.1-1.95-.1-.225,0-.5,0-.5.3,0,.05.025.15.025.2a2.851,2.851,0,0,1,.05.65c0,.425-.3.575-.675.575H87.9c-.325,0-.675-.15-.675-.525a.586.586,0,0,1,.25-.55c.15-.1.3-.15.3-.3,0-.175-.225-.225-.375-.25-.3-.025-2-.1-2.325-.1-.2,0-.45,0-.45.275,0,.075.025.15.025.225a5.279,5.279,0,0,1,.05.65c0,.425-.3.575-.675.575h-.35c-.675,0-1.325-.025-2-.05-.475-.025-.65-.225-.65-.7V9.35c0-.5.2-.7.7-.7h13c.975,0,1.975.05,2.95.05.625,0,.6-.25.6-1.125s.025-1.1-.6-1.1c-.975,0-1.975.05-2.95.05H89.7c-.45,0-.675-.175-.675-.65,0-.4,0-.65.3-.85.225-.15.35-.2.35-.4,0-.275-.35-.325-.575-.35-.375-.025-2.075-.15-2.375-.15-.25,0-.475.05-.475.35,0,.075.025.15.025.225.05.375.075.775.1,1.15-.025.5-.225.675-.7.675Zm19.85,14.825c0,.225.275.375.45.475a15.4,15.4,0,0,1,3.8,3.4c.125.15.3.375.5.375.575,0,1.825-1.375,1.825-1.925,0-.625-4.3-4.075-4.875-4.075A3.414,3.414,0,0,0,102.125,21.35ZM15.8,30.325a1.831,1.831,0,0,0-.575.225A35.239,35.239,0,0,1,8.35,31.825c-.45.05-.7.075-.7.55s.325,2.3.95,2.3a2.371,2.371,0,0,0,.575-.125c.375-.1,2.975-.8,3.175-.8a.2.2,0,0,1,.225.2.464.464,0,0,1-.175.3c-1.975,1.825-4.55,4.275-6.65,5.9a3.167,3.167,0,0,1-1.6.75c-.825.2-1.15.225-1.15.6,0,.475.45,2.2,1.025,2.2a2.106,2.106,0,0,0,.675-.2c1-.4,3.4-1.2,4.425-1.5.275-.075,1.575-.45,1.75-.45a.24.24,0,0,1,.25.225A.3.3,0,0,1,11,42c-1.2,1.075-2.175,2.175-2.175,3.9,0,2.15,1.625,3.5,3.475,4.2a12.288,12.288,0,0,0,3.35.775.711.711,0,0,0,.75-.5,9.725,9.725,0,0,0,.45-1.825c0-.325-.25-.325-.5-.35-1.6-.1-4.85-.4-4.85-2.575,0-1.825,1.95-3.375,3.375-4.225a13.764,13.764,0,0,1,5.15-1.7c.75-.1,1-.1,1-.575,0-.225-.2-1.7-.25-1.925-.05-.15-.15-.375-.35-.375a1.255,1.255,0,0,0-.3.05c-.875.275-9.2,2.5-9.5,2.5A.2.2,0,0,1,10.4,39.2c0-.15.175-.3.275-.4,1.175-.95,5.075-4.475,6-5,.525-.3,1.025-.525,1.025-.875C17.7,32.35,16.55,30.325,15.8,30.325ZM28.05,47.3c-.025.05-.45,1.075-.45,1.1,0,.425,2,1.15,2.4,1.15.425,0,.475-.45.55-.775a17.31,17.31,0,0,1,2.3-5.25A7.424,7.424,0,0,1,35.4,41.25a4.657,4.657,0,0,1,2.15-.7c.725,0,.95.5.95,1.15a11.262,11.262,0,0,1-.275,2.025,16.1,16.1,0,0,0-.325,2.9c0,1.575.725,3.1,2.5,3.1,1.95,0,3.65-1.375,5.025-2.625.6-.55,1.175-1.125,1.75-1.7a.964.964,0,0,0,.275-.55c0-.35-.85-2.325-1.3-2.325-.2,0-.375.2-.5.35C44.875,43.975,42.5,47,41.1,47c-.5,0-.65-.525-.65-.95a14.288,14.288,0,0,1,.4-2.45,13.157,13.157,0,0,0,.325-2.425A4.182,4.182,0,0,0,40.9,39.6a2.971,2.971,0,0,0-2.65-1.475,5.619,5.619,0,0,0-2.65.85,1,1,0,0,1-.45.175.269.269,0,0,1-.25-.25,32.509,32.509,0,0,1,2.525-4A24.787,24.787,0,0,1,39,32.85a1.081,1.081,0,0,1,.65-.325c.225-.025.45-.125.45-.4s-.9-.9-1.15-1.075a6.307,6.307,0,0,0-1.4-.95c-.175,0-.3.25-.375.375-.325.6-.65,1.125-1.025,1.725a77.306,77.306,0,0,0-5.225,8.825C29.9,43.1,28.975,45.2,28.05,47.3Zm34.9-.925c1.25,0,1.275.275,1.275.775,0,.875-.4,1.35-1.3,1.35-.65,0-1.65-.4-1.65-1.175C61.275,46.525,62.35,46.375,62.95,46.375Zm1.225-8.825c-.375,0-.6.15-.6.55,0,.125.025.225.025.35.075.975.45,4.6.45,5.4,0,.3-.225.425-.525.425h-.65c-1.975,0-4.15.8-4.15,3.1,0,2.325,2.375,3.4,4.4,3.4,1.7,0,3.175-.625,3.475-2.45.025-.225.125-.575.4-.575a7.109,7.109,0,0,1,2,1.15c.175.125.4.35.65.35.625,0,1.55-1.425,1.55-1.825,0-.6-2.95-1.975-3.525-2.2-.075-.025-.175-.075-.25-.1-.375-.15-.7-.25-.775-.625-.125-.525-.25-4.125-.25-4.85,0-.525.05-1.275.05-1.325,0-.3-.225-.45-.5-.525A10.467,10.467,0,0,0,64.175,37.55ZM68,33.7c-.525,0-1.675,1.375-1.675,1.725,0,.175.225.325.325.4a14.167,14.167,0,0,1,3.125,3.225c.125.175.3.45.55.45.45,0,1.875-1.125,1.875-1.725C72.2,37.125,68.625,33.7,68,33.7Zm-8.4-4.075c-.225,0-.225.25-.225.425a15.261,15.261,0,0,1-.8,4.2c-.2.325-.425.35-.75.4a22.2,22.2,0,0,1-2.575.125H54.1c-.275,0-.45.075-.45.4,0,.25.125,1.15.175,1.45.1.575.2.8.625.8.575,0,2.5-.25,2.7-.25a.336.336,0,0,1,.35.325,9.773,9.773,0,0,1-.575,1.525A46.681,46.681,0,0,1,53.95,44.8a2.766,2.766,0,0,0-.45.9c0,.525,1.675,1.25,2.225,1.25.275,0,.35-.1.5-.35A63.612,63.612,0,0,0,60.3,37.7c.3-.825.275-1,1.175-1.15,2.3-.425,2.6-.475,2.6-1.025A11.87,11.87,0,0,0,63.95,34.2c-.05-.3-.075-.75-.375-.75a.888.888,0,0,0-.25.05,12.1,12.1,0,0,1-1.425.375.291.291,0,0,1-.275-.325,8.1,8.1,0,0,1,.275-1.125,4.361,4.361,0,0,1,.45-1.325c.225-.175.4-.275.4-.45s-.275-.25-.4-.3C61.95,30.225,59.875,29.625,59.6,29.625Zm20.875,6.65c-.975,0-2.1-.05-2.825-.05-.6,0-.625.325-.625,1.525,0,.625.025,1.15.65,1.15.825,0,1.825-.075,2.8-.075h.775a.667.667,0,0,1,.675.65v2.4c0,.8-.05,1.6-.05,2.4,0,.65.3.625,1.175.625,1.5,0,1.625.1,1.625-1,0-.7-.05-1.375-.05-2.075V39.45a.64.64,0,0,1,.65-.625h4.35c.475,0,.65.375.65.8,0,5-.875,7.075-5.625,9.05-.175.075-.4.2-.4.4A4.154,4.154,0,0,0,86.075,50.9a10.281,10.281,0,0,0,2.5-1.275c3.9-2.575,4.325-5.6,4.4-9.95,0-.325,0-.85.775-.85h.675c.95,0,1.9.05,2.875.05.625,0,.7-.225.7-1.475,0-.975-.175-1.175-.625-1.175-.525,0-2.175.05-2.95.05H93.75c-.5,0-.725-.275-.725-.775v-.15c0-.25-.025-.5-.025-.75v-.95a7.991,7.991,0,0,1,.15-2.1c.175-.175.275-.275.275-.4,0-.225-.35-.225-.775-.275-.4-.025-1.8-.175-2.15-.175a.31.31,0,0,0-.325.3c0,.1.025.2.025.3.05.75.1,3.35.1,4.25,0,.5-.275.725-.625.725h-4.4a.645.645,0,0,1-.65-.65V33.9c0-1.625-.025-1.825.3-2.225a.425.425,0,0,0,.15-.25c0-.225-.525-.3-1.15-.35a18.1,18.1,0,0,0-1.85-.125c-.175,0-.25.075-.25.25,0,.025.1,1.35.1,2.75v1.7c0,.475-.45.625-.85.625Zm36.875-.35a.716.716,0,0,1,.75.725V44a.752.752,0,0,1-.75.75h-9.7a.752.752,0,0,1-.75-.75V36.65a.731.731,0,0,1,.75-.725ZM107.7,33.35c-.675,0-1.375-.025-2.05-.025-1,0-1.5.25-1.5,1.3,0,.75.025,1.5.025,2.25V45.35c0,.875-.05,1.75-.05,2.625,0,.9.2.9,1.375.9,1.5,0,1.425-.125,1.45-.825.05-.725.375-.75,1.225-.75h8.65c.875,0,1.15.025,1.2.75.05.7,0,.825,1.45.825,1.175,0,1.4,0,1.4-.875s-.05-1.775-.05-2.65V36.875c0-.725.025-1.475.025-2.225,0-1.15-.575-1.325-1.6-1.325-.65,0-1.3.025-1.95.025Zm38.8,2.2a.614.614,0,0,0-.425.275c-3.55,4.525-9.8,9.25-15.325,10.875-.325.1-.775.15-.775.425a7.006,7.006,0,0,0,.75,1.5c.175.3.7,1.3.975,1.3a.251.251,0,0,0,.25-.15c.2-.425.225-.45,1.05-.85A43.428,43.428,0,0,0,146.575,39.5c.325-.325,1.325-1.3,1.325-1.725C147.9,37.4,147,35.55,146.5,35.55Zm-14.775-4c-.575,0-1.575,1.6-1.575,1.975,0,.225.2.35.4.475a31.181,31.181,0,0,1,3.325,2.325,2.673,2.673,0,0,0,1,.675c.475,0,1.65-1.35,1.65-1.925,0-.375-1.2-1.2-1.525-1.425A19.853,19.853,0,0,0,131.725,31.55Zm20.9,2.8a11.2,11.2,0,0,0,.275,1.8c.075.275.2.825.55.825a1.93,1.93,0,0,0,.375-.05c1.6-.425,3.85-.775,5.525-1.025.25-.025,1.4-.225,1.575-.225s.375.075.375.3c0,.125-.15.3-.425.6a11.1,11.1,0,0,0-2.75,7.175c0,4.875,3.65,6.225,7.9,6.225.425,0,.625-.05.8-.425a7.075,7.075,0,0,0,.375-2.05c0-.4-.2-.425-.575-.425-.275,0-.825.025-1.25.025-2.55,0-4.4-.7-4.4-3.6a9.36,9.36,0,0,1,1.2-4.4,7.6,7.6,0,0,1,4.25-3.725,12.384,12.384,0,0,1,4.15-.525c.6-.025,1.125.025,1.125-.525a11.376,11.376,0,0,0-.225-1.825c-.05-.3-.1-.625-.475-.625a1.425,1.425,0,0,0-.325.025c-1.875.3-3.775.55-5.675.775-3.625.425-7.275.8-10.925,1.025C152.975,33.775,152.625,33.7,152.625,34.35Zm18.9,1.45c-.3,0-1.275.65-1.275.95a.6.6,0,0,0,.175.325,21.155,21.155,0,0,1,1.625,2.075c.1.125.2.325.375.325.3,0,1.275-.7,1.275-1.05A10.16,10.16,0,0,0,171.525,35.8ZM168.5,37.175c-.275,0-1.275.625-1.275.925,0,.125.15.275.225.35.55.675,1.1,1.375,1.6,2.1.1.125.175.3.35.3.275,0,1.275-.675,1.275-1.05A9.683,9.683,0,0,0,168.5,37.175Zm16.15,3.55a.578.578,0,0,1,.6.6v.35a.564.564,0,0,1-.6.6h-.35a.564.564,0,0,1-.6-.6v-.35a.578.578,0,0,1,.6-.6Zm2.3.6a.578.578,0,0,1,.6-.6h.325a.558.558,0,0,1,.575.6v.35a.545.545,0,0,1-.575.6h-.325a.564.564,0,0,1-.6-.6Zm-1.7-2.675a.578.578,0,0,1-.6.6h-.35a.578.578,0,0,1-.6-.6v-.325a.578.578,0,0,1,.6-.6h.35a.578.578,0,0,1,.6.6Zm2.3.6a.578.578,0,0,1-.6-.6v-.325a.578.578,0,0,1,.6-.6h.325a.558.558,0,0,1,.575.6v.325a.558.558,0,0,1-.575.6Zm-.35-6.925c0-.525.175-.7.65-.825.225-.05,1.6-.35,1.675-.35a.9.9,0,0,1,.275.05.84.84,0,0,0,.35.125.274.274,0,0,0,.275-.25,3.378,3.378,0,0,0-.35-.8c-.475-.9-.65-1.15-.85-1.15A.794.794,0,0,0,189,29.2a14.324,14.324,0,0,1-2.9.65c-.725.1-1.25.15-1.725.175-.55.025-1,.05-1.575.125a.406.406,0,0,1-.225-.125,10.278,10.278,0,0,0-2.425-.725c-.325,0-.375.4-.45.725a25.625,25.625,0,0,1-3.6,8.85,1.621,1.621,0,0,0-.4.8,1.047,1.047,0,0,0,.2.525c.525.725.825,1.175,1.15,1.175.2,0,.5-.225.95-.95a.253.253,0,0,1,.175-.1c.1,0,.15.1.15.2v7.3c0,1.025-.05,2.05-.05,3.075,0,.725.2.75,1.15.75.9,0,1.125-.025,1.125-.75,0-1.025-.05-2.05-.05-3.075v-9.6c0-.875.025-1.325.3-1.525.125-.1.275-.175.275-.325,0-.25-.3-.3-.475-.3-.125-.025-.2-.1-.2-.2,0-.05,0-.05.025-.075a30.833,30.833,0,0,0,1.45-4.45,3.023,3.023,0,0,1,.2-.625.253.253,0,0,1,.175-.1c.125,0,.2.15.225.25.2.875.4,1.15.875,1.15a8.132,8.132,0,0,0,1.1-.075.48.48,0,0,1,.55.55v.175c0,.4-.175.575-.6.575-.75.025-1.5-.05-2.25-.05-.525,0-.5.325-.5.95,0,.65-.025.925.525.925.725,0,1.475-.05,2.2-.05h.15c.35,0,.475.15.475.475v.225c0,.35-.15.475-.475.475h-.275c-.45,0-.925-.025-1.4-.025-.7,0-.95.275-.95.975,0,.45.025.875.025,1.3v3.1c0,.425-.025.875-.025,1.3,0,.725.25,1,.975,1,.45,0,.925-.05,1.375-.05h.275c.35,0,.475.15.475.475v.275c0,.325-.15.45-.475.45H184.1c-.7,0-1.4-.025-2.125-.025-.475,0-.475.275-.475.875,0,.575-.025.925.45.925.725,0,1.45-.05,2.15-.05h.2c.5,0,.7.225.7.7V47.8c0,.475-.175.725-.65.775-.775.1-1.4.1-1.85.125-.95.05-1.275.05-1.275.375a8.931,8.931,0,0,0,.325,1.375c.2.65.25.875.525.875.175,0,.225-.1.275-.25.075-.25.2-.3.725-.375,1.075-.15,2.15-.25,3.2-.4.925-.125,1.85-.25,2.775-.4.2-.025.35.05.35.25a.355.355,0,0,1-.05.15.737.737,0,0,0-.125.325c0,.475,1.225,1.025,1.675,1.025.275,0,.375-.225.7-.8,1.875-3.4,2.8-9.35,2.8-13.225V37.25c0-.35.15-.575.55-.575.7,0,.975.025.975.85a75.584,75.584,0,0,1-.65,10.225c-.3,1.3-.5,1.375-1.65,1.375h-.6c-.425,0-.45.4-.45.8a5.638,5.638,0,0,0,.2,1.3c.15.425.4.475,1.25.475a3.2,3.2,0,0,0,2.35-.725c1.1-.95,1.275-3.775,1.4-5.2.225-2.55.475-7.425.375-9.95-.025-1.05-.5-1.5-1.55-1.5-.5,0-1,.05-1.5.025-.475,0-.65-.225-.65-.675v-2.3c0-.8.025-1.05.325-1.225.125-.1.275-.175.275-.35,0-.225-.2-.275-.375-.3-.35-.05-1.775-.15-2.125-.15-.275,0-.45.075-.45.375,0,.075.025.175.025.25q.075.862.075,1.725v2.05c0,.375-.175.55-.575.55h-.25c-.575,0-.55.325-.55,1.225,0,.875-.025,1.2.55,1.2h.25c.375,0,.55.15.55.525a32.225,32.225,0,0,1-2.025,11.5.13.13,0,0,1-.1.05.092.092,0,0,1-.1-.1c-.025-.325-.075-.775-.475-.775-.15,0-1.425.2-1.725.25h-.075c-.35,0-.475-.225-.475-.525v-.325c0-.425.175-.6.6-.6h.2c.725,0,1.425.05,2.15.05.475,0,.475-.35.475-.9,0-.575.025-.9-.475-.9-.725,0-1.425.025-2.15.025h-.325c-.325,0-.475-.125-.475-.475v-.25a.413.413,0,0,1,.475-.475h.225c.475,0,.95.05,1.425.05.725,0,.95-.325.95-1.025,0-.425-.025-.85-.025-1.275v-3.1c0-.425.025-.85.025-1.3,0-.725-.275-.975-1-.975-.45,0-.925.025-1.375.025h-.225c-.325,0-.475-.125-.475-.475V35.5a.413.413,0,0,1,.475-.475h.35c.75,0,1.475.05,2.225.05.55,0,.5-.325.5-.925s.05-.95-.5-.95c-.75,0-1.475.05-2.225.05H187.9c-.5,0-.7-.2-.7-.7Zm28.95-.75c-.275-.275-1-1.125-1.325-1.125-.15,0-.275.175-.375.3a34.1,34.1,0,0,1-4.675,4.425A24.294,24.294,0,0,0,206.55,38.1a2.839,2.839,0,0,0-.55,1.725,3.8,3.8,0,0,0,1.2,2.65c1.225,1.45,2.6,2.8,3.95,4.15,1.025,1.05,2.075,2.1,3.025,3.225.15.2.5.65.775.65.6,0,2.125-1.425,2.125-2.025,0-.5-1.725-1.9-2.15-2.275-1.55-1.375-3.1-2.775-4.525-4.3-.425-.45-1.25-1.35-1.25-1.975,0-.475.55-.975,1.025-1.425,1.3-1.25,2.725-2.4,4.125-3.55q.938-.75,1.875-1.425a1.117,1.117,0,0,1,.675-.3c.175,0,.525.025.525-.225C217.375,32.725,216.375,31.8,216.15,31.575Zm14.225,13.5A2.2,2.2,0,0,1,232.6,47.3a2.225,2.225,0,1,1-2.225-2.225Zm0-1.25A3.475,3.475,0,1,0,233.85,47.3,3.468,3.468,0,0,0,230.375,43.825Z" transform="translate(72 18756)" fill="#4a4a4a"/>
    <path id="パス_10057" data-name="パス 10057" d="M4.18.06A3.4,3.4,0,0,0,6.75-.97l-.47-.47A2.746,2.746,0,0,1,4.21-.6,2.861,2.861,0,0,1,1.25-3.5,2.861,2.861,0,0,1,4.21-6.4a2.774,2.774,0,0,1,2.07.83l.47-.47A3.389,3.389,0,0,0,4.19-7.06,3.514,3.514,0,0,0,.52-3.5,3.512,3.512,0,0,0,4.18.06Zm7.06,0A3.52,3.52,0,0,0,14.91-3.5a3.52,3.52,0,0,0-3.67-3.56A3.523,3.523,0,0,0,7.56-3.5,3.523,3.523,0,0,0,11.24.06Zm0-.66A2.846,2.846,0,0,1,8.29-3.5a2.846,2.846,0,0,1,2.95-2.9,2.836,2.836,0,0,1,2.93,2.9A2.836,2.836,0,0,1,11.24-.6ZM23.23-7,20.22-1.81,17.18-7h-.61V0h.71V-5.57L20.03-.89h.35L23.13-5.6V0h.71V-7ZM28.05.06c1.79,0,2.61-.88,2.61-1.91,0-2.55-4.31-1.39-4.31-3.31,0-.7.57-1.27,1.85-1.27a3.6,3.6,0,0,1,1.92.58l.25-.59a3.951,3.951,0,0,0-2.17-.62c-1.78,0-2.58.89-2.58,1.92,0,2.59,4.31,1.41,4.31,3.33,0,.69-.57,1.24-1.88,1.24a3.437,3.437,0,0,1-2.31-.85l-.29.57A3.8,3.8,0,0,0,28.05.06ZM38.93-5.26v1.01A2.374,2.374,0,0,0,36.85-5.3a2.5,2.5,0,0,0-2.64,2.54A2.517,2.517,0,0,0,36.85-.2,2.367,2.367,0,0,0,38.9-1.22v.67c0,1.3-.61,1.91-1.94,1.91A3.131,3.131,0,0,1,34.89.64l-.36.54a3.668,3.668,0,0,0,2.45.81A2.308,2.308,0,0,0,39.61-.64V-5.26ZM36.92-.83a1.88,1.88,0,0,1-1.99-1.93,1.872,1.872,0,0,1,1.99-1.92,1.881,1.881,0,0,1,2,1.92A1.888,1.888,0,0,1,36.92-.83Zm5.36-3.4V-5.26H41.6V0h.71V-2.68a1.7,1.7,0,0,1,1.77-1.94c.05,0,.11.01.17.01V-5.3A1.984,1.984,0,0,0,42.28-4.23ZM47.63.05A2.587,2.587,0,0,0,50.3-2.63,2.579,2.579,0,0,0,47.63-5.3a2.587,2.587,0,0,0-2.68,2.67A2.6,2.6,0,0,0,47.63.05Zm0-.63a1.926,1.926,0,0,1-1.96-2.05,1.926,1.926,0,0,1,1.96-2.05,1.918,1.918,0,0,1,1.95,2.05A1.918,1.918,0,0,1,47.63-.58Zm8.15-4.68V-2.5A1.71,1.71,0,0,1,53.99-.59a1.472,1.472,0,0,1-1.58-1.69V-5.26H51.7v3.05A2.037,2.037,0,0,0,53.92.05,2.092,2.092,0,0,0,55.81-.96V0h.68V-5.26Zm5.41-.04a2.291,2.291,0,0,0-2.03,1.08V-5.26h-.68v7.2h.71V-.99a2.3,2.3,0,0,0,2,1.04,2.547,2.547,0,0,0,2.62-2.68A2.545,2.545,0,0,0,61.19-5.3ZM61.14-.58a1.926,1.926,0,0,1-1.96-2.05,1.931,1.931,0,0,1,1.96-2.05A1.937,1.937,0,0,1,63.1-2.63,1.931,1.931,0,0,1,61.14-.58ZM73.62,0,71.91-2.4a2.17,2.17,0,0,0,1.6-2.2c0-1.5-1.08-2.4-2.86-2.4H68.03V0h.74V-2.22h1.88a4.983,4.983,0,0,0,.56-.03L72.81,0ZM70.63-2.85H68.77V-6.36h1.86c1.4,0,2.14.64,2.14,1.76C72.77-3.5,72.03-2.85,70.63-2.85ZM76-.64v-2.6h3.62v-.63H76V-6.36h4.06V-7h-4.8V0h4.95V-.64Zm8.95.7A3.4,3.4,0,0,0,87.52-.97l-.47-.47a2.746,2.746,0,0,1-2.07.84,2.861,2.861,0,0,1-2.96-2.9,2.861,2.861,0,0,1,2.96-2.9,2.774,2.774,0,0,1,2.07.83l.47-.47a3.389,3.389,0,0,0-2.56-1.02A3.514,3.514,0,0,0,81.29-3.5,3.512,3.512,0,0,0,84.95.06ZM94.69,0,92.98-2.4a2.17,2.17,0,0,0,1.6-2.2c0-1.5-1.08-2.4-2.86-2.4H89.1V0h.74V-2.22h1.88a4.983,4.983,0,0,0,.56-.03L93.88,0ZM91.7-2.85H89.84V-6.36H91.7c1.4,0,2.14.64,2.14,1.76C93.84-3.5,93.1-2.85,91.7-2.85ZM99.15.06c1.79,0,2.87-1.04,2.87-3.05V-7h-.72v3.98c0,1.66-.78,2.42-2.15,2.42s-2.14-.76-2.14-2.42V-7h-.74v4.01C96.27-.98,97.36.06,99.15.06Zm5.1-.06h.74V-7h-.74Zm4.38,0h.74V-6.36h2.46V-7h-5.66v.64h2.46Zm8.93.06c1.79,0,2.61-.88,2.61-1.91,0-2.55-4.31-1.39-4.31-3.31,0-.7.57-1.27,1.85-1.27a3.6,3.6,0,0,1,1.92.58l.25-.59a3.951,3.951,0,0,0-2.17-.62c-1.78,0-2.58.89-2.58,1.92,0,2.59,4.31,1.41,4.31,3.33,0,.69-.57,1.24-1.88,1.24a3.437,3.437,0,0,1-2.31-.85l-.29.57A3.8,3.8,0,0,0,117.56.06ZM121.78,0h.74V-7h-.74Zm4.38,0h.74V-6.36h2.46V-7H123.7v.64h2.46Zm5.12-.64v-2.6h3.62v-.63h-3.62V-6.36h4.06V-7h-4.8V0h4.95V-.64Z" transform="translate(79 18869.031)"/>
    <path id="パス_10056" data-name="パス 10056" d="M4.18.06A3.4,3.4,0,0,0,6.75-.97l-.47-.47A2.746,2.746,0,0,1,4.21-.6,2.861,2.861,0,0,1,1.25-3.5,2.861,2.861,0,0,1,4.21-6.4a2.774,2.774,0,0,1,2.07.83l.47-.47A3.389,3.389,0,0,0,4.19-7.06,3.514,3.514,0,0,0,.52-3.5,3.512,3.512,0,0,0,4.18.06ZM10.1.05a2.587,2.587,0,0,0,2.67-2.68A2.579,2.579,0,0,0,10.1-5.3,2.587,2.587,0,0,0,7.42-2.63,2.6,2.6,0,0,0,10.1.05Zm0-.63A1.926,1.926,0,0,1,8.14-2.63,1.926,1.926,0,0,1,10.1-4.68a1.918,1.918,0,0,1,1.95,2.05A1.918,1.918,0,0,1,10.1-.58ZM16.93-5.3A2.291,2.291,0,0,0,14.9-4.22V-5.26h-.68v7.2h.71V-.99a2.3,2.3,0,0,0,2,1.04,2.547,2.547,0,0,0,2.62-2.68A2.545,2.545,0,0,0,16.93-5.3ZM16.88-.58a1.926,1.926,0,0,1-1.96-2.05,1.931,1.931,0,0,1,1.96-2.05,1.937,1.937,0,0,1,1.96,2.05A1.931,1.931,0,0,1,16.88-.58Zm7.69-4.68L22.59-.79,20.61-5.26h-.74L22.22-.01,21.99.5c-.3.66-.62.88-1.09.88a1.314,1.314,0,0,1-.96-.4l-.33.53a1.8,1.8,0,0,0,1.28.48c.75,0,1.31-.33,1.75-1.36l2.63-5.89Zm2.38,1.03V-5.26h-.68V0h.71V-2.68a1.7,1.7,0,0,1,1.77-1.94c.05,0,.11.01.17.01V-5.3A1.984,1.984,0,0,0,26.95-4.23Zm3.61-2.18a.51.51,0,0,0,.52-.52.5.5,0,0,0-.52-.49.512.512,0,0,0-.52.5A.514.514,0,0,0,30.56-6.41ZM30.2,0h.71V-5.26H30.2Zm6.88-5.26v1.01A2.374,2.374,0,0,0,35-5.3a2.5,2.5,0,0,0-2.64,2.54A2.517,2.517,0,0,0,35-.2a2.367,2.367,0,0,0,2.05-1.02v.67c0,1.3-.61,1.91-1.94,1.91A3.131,3.131,0,0,1,33.04.64l-.36.54a3.668,3.668,0,0,0,2.45.81A2.308,2.308,0,0,0,37.76-.64V-5.26ZM35.07-.83a1.88,1.88,0,0,1-1.99-1.93,1.872,1.872,0,0,1,1.99-1.92,1.881,1.881,0,0,1,2,1.92A1.888,1.888,0,0,1,35.07-.83ZM42.43-5.3a2.223,2.223,0,0,0-1.97.96V-7.42h-.71V0h.71V-2.76a1.725,1.725,0,0,1,1.84-1.9,1.469,1.469,0,0,1,1.58,1.68V0h.71V-3.05A2.014,2.014,0,0,0,42.43-5.3ZM49.04-.83a1.175,1.175,0,0,1-.78.27.842.842,0,0,1-.91-.96V-4.66h1.6v-.6h-1.6V-6.41h-.71v1.15H45.7v.6h.94v3.18A1.393,1.393,0,0,0,48.18.05a1.691,1.691,0,0,0,1.11-.37Zm7.21.86a3.5,3.5,0,0,0,3.54-3.55,3.442,3.442,0,0,0-3.52-3.51A3.488,3.488,0,0,0,52.73-3.5,3.483,3.483,0,0,0,56.25.03Zm0-.37A3.108,3.108,0,0,1,53.1-3.5a3.113,3.113,0,0,1,3.17-3.16,3.071,3.071,0,0,1,3.14,3.14A3.133,3.133,0,0,1,56.25-.34Zm.09-1.08a1.869,1.869,0,0,0,1.59-.78l-.43-.31a1.383,1.383,0,0,1-1.17.57,1.471,1.471,0,0,1-1.5-1.56,1.471,1.471,0,0,1,1.5-1.56,1.383,1.383,0,0,1,1.17.57l.43-.32a1.886,1.886,0,0,0-1.59-.77A2.006,2.006,0,0,0,54.26-3.5,2.006,2.006,0,0,0,56.34-1.42ZM67.1.06A3.4,3.4,0,0,0,69.67-.97l-.47-.47a2.746,2.746,0,0,1-2.07.84,2.861,2.861,0,0,1-2.96-2.9,2.861,2.861,0,0,1,2.96-2.9,2.774,2.774,0,0,1,2.07.83l.47-.47a3.389,3.389,0,0,0-2.56-1.02A3.514,3.514,0,0,0,63.44-3.5,3.512,3.512,0,0,0,67.1.06Zm7.06,0A3.52,3.52,0,0,0,77.83-3.5a3.52,3.52,0,0,0-3.67-3.56A3.523,3.523,0,0,0,70.48-3.5,3.523,3.523,0,0,0,74.16.06Zm0-.66a2.846,2.846,0,0,1-2.95-2.9,2.846,2.846,0,0,1,2.95-2.9,2.836,2.836,0,0,1,2.93,2.9A2.836,2.836,0,0,1,74.16-.6ZM86.15-7,83.14-1.81,80.1-7h-.61V0h.71V-5.57L82.95-.89h.35L86.05-5.6V0h.71V-7ZM90.97.06c1.79,0,2.61-.88,2.61-1.91,0-2.55-4.31-1.39-4.31-3.31,0-.7.57-1.27,1.85-1.27a3.6,3.6,0,0,1,1.92.58l.25-.59a3.951,3.951,0,0,0-2.17-.62c-1.78,0-2.58.89-2.58,1.92,0,2.59,4.31,1.41,4.31,3.33,0,.69-.57,1.24-1.88,1.24a3.437,3.437,0,0,1-2.31-.85l-.29.57A3.8,3.8,0,0,0,90.97.06Zm11.77-1.2a3.031,3.031,0,0,1-1.83.54,2.868,2.868,0,0,1-2.99-2.9,2.865,2.865,0,0,1,3-2.9,2.855,2.855,0,0,1,2.11.82l.46-.47a3.449,3.449,0,0,0-2.6-1.01,3.522,3.522,0,0,0-3.7,3.56A3.52,3.52,0,0,0,100.88.06a3.863,3.863,0,0,0,2.57-.89V-3.5h-.71ZM111.13,0l-1.71-2.4a2.17,2.17,0,0,0,1.6-2.2c0-1.5-1.08-2.4-2.86-2.4h-2.62V0h.74V-2.22h1.88a4.983,4.983,0,0,0,.56-.03L110.32,0Zm-2.99-2.85h-1.86V-6.36h1.86c1.4,0,2.14.64,2.14,1.76C110.28-3.5,109.54-2.85,108.14-2.85ZM115.83.06A3.52,3.52,0,0,0,119.5-3.5a3.52,3.52,0,0,0-3.67-3.56,3.523,3.523,0,0,0-3.68,3.56A3.523,3.523,0,0,0,115.83.06Zm0-.66a2.846,2.846,0,0,1-2.95-2.9,2.846,2.846,0,0,1,2.95-2.9,2.836,2.836,0,0,1,2.93,2.9A2.836,2.836,0,0,1,115.83-.6Zm8.15.66c1.79,0,2.87-1.04,2.87-3.05V-7h-.72v3.98c0,1.66-.78,2.42-2.15,2.42s-2.14-.76-2.14-2.42V-7h-.74v4.01C121.1-.98,122.19.06,123.98.06ZM131.7-7h-2.62V0h.74V-2.21h1.88c1.78,0,2.86-.9,2.86-2.39S133.48-7,131.7-7Zm-.02,4.14h-1.86v-3.5h1.86c1.4,0,2.14.64,2.14,1.76C133.82-3.5,133.08-2.86,131.68-2.86Zm8.89-2.44a3.34,3.34,0,0,0-2.14.71l.32.53a2.68,2.68,0,0,1,1.75-.62c.98,0,1.49.49,1.49,1.39v.32h-1.67c-1.51,0-2.03.68-2.03,1.49,0,.91.73,1.53,1.92,1.53a1.975,1.975,0,0,0,1.81-.87V0h.68V-3.26A1.868,1.868,0,0,0,140.57-5.3Zm-.25,4.79c-.84,0-1.33-.38-1.33-.99,0-.54.33-.94,1.35-.94h1.65v.86A1.683,1.683,0,0,1,140.32-.51Zm4.31.51h.71V-7.42h-.71Zm2.69,0h.71V-7.42h-.71Zm5.99-4.23V-5.26h-.68V0h.71V-2.68a1.7,1.7,0,0,1,1.77-1.94c.05,0,.11.01.17.01V-5.3A1.984,1.984,0,0,0,153.31-4.23Zm3.61-2.18a.51.51,0,0,0,.52-.52.5.5,0,0,0-.52-.49.512.512,0,0,0-.52.5A.514.514,0,0,0,156.92-6.41ZM156.56,0h.71V-5.26h-.71Zm6.88-5.26v1.01a2.374,2.374,0,0,0-2.08-1.05,2.5,2.5,0,0,0-2.64,2.54A2.517,2.517,0,0,0,161.36-.2a2.367,2.367,0,0,0,2.05-1.02v.67c0,1.3-.61,1.91-1.94,1.91A3.131,3.131,0,0,1,159.4.64l-.36.54a3.668,3.668,0,0,0,2.45.81,2.308,2.308,0,0,0,2.63-2.63V-5.26ZM161.43-.83a1.88,1.88,0,0,1-1.99-1.93,1.872,1.872,0,0,1,1.99-1.92,1.881,1.881,0,0,1,2,1.92A1.888,1.888,0,0,1,161.43-.83Zm7.36-4.47a2.223,2.223,0,0,0-1.97.96V-7.42h-.71V0h.71V-2.76a1.725,1.725,0,0,1,1.84-1.9,1.469,1.469,0,0,1,1.58,1.68V0h.71V-3.05A2.014,2.014,0,0,0,168.79-5.3ZM175.4-.83a1.175,1.175,0,0,1-.78.27.842.842,0,0,1-.91-.96V-4.66h1.6v-.6h-1.6V-6.41H173v1.15h-.94v.6H173v3.18A1.393,1.393,0,0,0,174.54.05a1.691,1.691,0,0,0,1.11-.37Zm2.95.88c1.37,0,2.17-.59,2.17-1.5,0-2.02-3.41-.95-3.41-2.37,0-.5.42-.87,1.37-.87a2.7,2.7,0,0,1,1.55.45l.31-.57a3.564,3.564,0,0,0-1.86-.49c-1.34,0-2.08.64-2.08,1.5,0,2.08,3.41,1,3.41,2.37,0,.52-.41.86-1.41.86a3.177,3.177,0,0,1-1.87-.59l-.32.56A3.514,3.514,0,0,0,178.35.05Zm6.78-4.28V-5.26h-.68V0h.71V-2.68a1.7,1.7,0,0,1,1.77-1.94c.05,0,.11.01.17.01V-5.3A1.984,1.984,0,0,0,185.13-4.23Zm7.79,1.6a2.507,2.507,0,0,0-2.55-2.67,2.533,2.533,0,0,0-2.57,2.67A2.6,2.6,0,0,0,190.56.05a2.589,2.589,0,0,0,2.03-.86l-.4-.46a2.073,2.073,0,0,1-1.61.69,1.947,1.947,0,0,1-2.07-1.83h4.4C192.91-2.49,192.92-2.57,192.92-2.63Zm-2.55-2.06a1.83,1.83,0,0,1,1.87,1.75h-3.73A1.827,1.827,0,0,1,190.37-4.69ZM195.78.05c1.37,0,2.17-.59,2.17-1.5,0-2.02-3.41-.95-3.41-2.37,0-.5.42-.87,1.37-.87a2.7,2.7,0,0,1,1.55.45l.31-.57a3.564,3.564,0,0,0-1.86-.49c-1.34,0-2.08.64-2.08,1.5,0,2.08,3.41,1,3.41,2.37,0,.52-.41.86-1.41.86a3.177,3.177,0,0,1-1.87-.59l-.32.56A3.514,3.514,0,0,0,195.78.05Zm8.07-2.68A2.507,2.507,0,0,0,201.3-5.3a2.533,2.533,0,0,0-2.57,2.67A2.6,2.6,0,0,0,201.49.05a2.589,2.589,0,0,0,2.03-.86l-.4-.46a2.073,2.073,0,0,1-1.61.69,1.947,1.947,0,0,1-2.07-1.83h4.4C203.84-2.49,203.85-2.57,203.85-2.63ZM201.3-4.69a1.83,1.83,0,0,1,1.87,1.75h-3.73A1.827,1.827,0,0,1,201.3-4.69Zm4.68.46V-5.26h-.68V0h.71V-2.68a1.7,1.7,0,0,1,1.77-1.94c.05,0,.11.01.17.01V-5.3A1.984,1.984,0,0,0,205.98-4.23Zm7.2-1.03L211.19-.78l-1.97-4.48h-.74L210.81,0h.73l2.34-5.26Zm6.14,2.63a2.507,2.507,0,0,0-2.55-2.67,2.533,2.533,0,0,0-2.57,2.67A2.6,2.6,0,0,0,216.96.05a2.589,2.589,0,0,0,2.03-.86l-.4-.46a2.073,2.073,0,0,1-1.61.69,1.947,1.947,0,0,1-2.07-1.83h4.4C219.31-2.49,219.32-2.57,219.32-2.63Zm-2.55-2.06a1.83,1.83,0,0,1,1.87,1.75h-3.73A1.827,1.827,0,0,1,216.77-4.69Zm8.09-2.73v3.16a2.3,2.3,0,0,0-2-1.04,2.545,2.545,0,0,0-2.62,2.67A2.553,2.553,0,0,0,222.86.05a2.279,2.279,0,0,0,2.03-1.09V0h.68V-7.42ZM222.92-.58a1.926,1.926,0,0,1-1.96-2.05,1.926,1.926,0,0,1,1.96-2.05,1.924,1.924,0,0,1,1.95,2.05A1.924,1.924,0,0,1,222.92-.58Zm4.7.63a.546.546,0,0,0,.54-.55.538.538,0,0,0-.54-.54.529.529,0,0,0-.53.54A.538.538,0,0,0,227.62.05Z" transform="translate(79 18885.031)"/>
  </g>
</svg>
