<svg height="81.338" viewBox="0 0 151.29 81.338" width="151.29" xmlns="http://www.w3.org/2000/svg" xmlns:xlink="http://www.w3.org/1999/xlink"><clipPath id="a"><path d="m0 0h151.104v63.06h-151.104z"/></clipPath><g fill="#4a4a4a"><path d="m4.18.12a3.6 3.6 0 0 0 2.89-1.25l-1.04-.96a2.231 2.231 0 0 1 -1.76.83 2.147 2.147 0 0 1 -2.24-2.24 2.147 2.147 0 0 1 2.24-2.24 2.252 2.252 0 0 1 1.76.82l1.04-.96a3.614 3.614 0 0 0 -2.88-1.24 3.6 3.6 0 0 0 -3.8 3.62 3.594 3.594 0 0 0 3.79 3.62zm7.42 0a3.622 3.622 0 0 0 3.83-3.62 3.622 3.622 0 0 0 -3.83-3.62 3.622 3.622 0 0 0 -3.83 3.62 3.622 3.622 0 0 0 3.83 3.62zm0-1.38a2.135 2.135 0 0 1 -2.19-2.24 2.135 2.135 0 0 1 2.19-2.24 2.135 2.135 0 0 1 2.19 2.24 2.135 2.135 0 0 1 -2.19 2.24zm13.14 1.26-.02-7h-1.33l-2.58 4.35-2.62-4.35h-1.34v7h1.52v-4.11l2.05 3.37h.73l2.06-3.46.01 4.2zm4.16.12c2 0 2.97-1 2.97-2.17 0-2.57-4.07-1.68-4.07-2.97 0-.44.37-.8 1.33-.8a3.954 3.954 0 0 1 1.94.55l.5-1.23a4.7 4.7 0 0 0 -2.43-.62c-1.99 0-2.95.99-2.95 2.18 0 2.6 4.07 1.7 4.07 3.01 0 .43-.39.75-1.35.75a4.117 4.117 0 0 1 -2.31-.73l-.55 1.22a4.989 4.989 0 0 0 2.85.81zm12.04-1.68a2.572 2.572 0 0 1 -1.26.3 2.161 2.161 0 0 1 -2.27-2.24 2.155 2.155 0 0 1 2.29-2.24 2.369 2.369 0 0 1 1.81.79l1.04-.96a3.732 3.732 0 0 0 -2.93-1.21 3.611 3.611 0 0 0 -3.85 3.62 3.6 3.6 0 0 0 3.82 3.62 4.83 4.83 0 0 0 2.83-.89v-2.84h-1.48zm9.38 1.56-1.57-2.25a2.276 2.276 0 0 0 1.44-2.21c0-1.57-1.17-2.54-3.04-2.54h-3.03v7h1.62v-1.95h1.49l1.35 1.95zm-1.77-4.46c0 .76-.5 1.22-1.49 1.22h-1.32v-2.44h1.32c.99 0 1.49.45 1.49 1.22zm6.51 4.58a3.622 3.622 0 0 0 3.83-3.62 3.622 3.622 0 0 0 -3.83-3.62 3.622 3.622 0 0 0 -3.83 3.62 3.622 3.622 0 0 0 3.83 3.62zm0-1.38a2.135 2.135 0 0 1 -2.19-2.24 2.135 2.135 0 0 1 2.19-2.24 2.135 2.135 0 0 1 2.19 2.24 2.135 2.135 0 0 1 -2.19 2.24zm8.36 1.38a2.9 2.9 0 0 0 3.17-3.2v-3.92h-1.6v3.86c0 1.33-.57 1.88-1.56 1.88s-1.56-.55-1.56-1.88v-3.86h-1.62v3.92a2.9 2.9 0 0 0 3.17 3.2zm8-7.12h-3.03v7h1.62v-1.93h1.41c1.87 0 3.04-.97 3.04-2.53s-1.17-2.54-3.04-2.54zm-.09 3.75h-1.32v-2.43h1.32c.99 0 1.49.45 1.49 1.22s-.5 1.21-1.49 1.21zm13.81 3.25-1.57-2.25a2.276 2.276 0 0 0 1.44-2.21c0-1.57-1.17-2.54-3.04-2.54h-3.03v7h1.62v-1.95h1.49l1.35 1.95zm-1.77-4.46c0 .76-.5 1.22-1.49 1.22h-1.32v-2.44h1.32c.99 0 1.49.45 1.49 1.22zm4.73 3.16v-1.62h3.25v-1.26h-3.25v-1.52h3.68v-1.3h-5.29v7h5.42v-1.3zm8.63 1.42a3.6 3.6 0 0 0 2.89-1.25l-1.04-.96a2.231 2.231 0 0 1 -1.76.83 2.147 2.147 0 0 1 -2.24-2.24 2.147 2.147 0 0 1 2.24-2.24 2.252 2.252 0 0 1 1.76.82l1.04-.96a3.614 3.614 0 0 0 -2.88-1.24 3.6 3.6 0 0 0 -3.8 3.62 3.594 3.594 0 0 0 3.79 3.62zm10.38-.12-1.57-2.25a2.276 2.276 0 0 0 1.44-2.21c0-1.57-1.17-2.54-3.04-2.54h-3.03v7h1.62v-1.95h1.49l1.35 1.95zm-1.77-4.46c0 .76-.5 1.22-1.49 1.22h-1.32v-2.44h1.32c.99 0 1.49.45 1.49 1.22zm6.23 4.58a2.9 2.9 0 0 0 3.17-3.2v-3.92h-1.6v3.86c0 1.33-.57 1.88-1.56 1.88s-1.56-.55-1.56-1.88v-3.86h-1.62v3.92a2.9 2.9 0 0 0 3.17 3.2zm4.97-.12h1.62v-7h-1.62zm4.93 0h1.62v-5.68h2.24v-1.32h-6.1v1.32h2.24zm10.26.12c2 0 2.97-1 2.97-2.17 0-2.57-4.07-1.68-4.07-2.97 0-.44.37-.8 1.33-.8a3.954 3.954 0 0 1 1.94.55l.5-1.23a4.7 4.7 0 0 0 -2.43-.62c-1.99 0-2.95.99-2.95 2.18 0 2.6 4.07 1.7 4.07 3.01 0 .43-.39.75-1.35.75a4.117 4.117 0 0 1 -2.31-.73l-.55 1.22a4.989 4.989 0 0 0 2.85.81zm4.28-.12h1.62v-7h-1.62zm4.93 0h1.62v-5.68h2.24v-1.32h-6.1v1.32h2.24zm6.54-1.3v-1.62h3.25v-1.26h-3.25v-1.52h3.68v-1.3h-5.29v7h5.42v-1.3z" transform="translate(0 81.219)"/><g clip-path="url(#a)"><path d="m34.246 24.538q0-.1-.121 1.321-.243 2.838-.242 5.481a11.263 11.263 0 0 0 .121 1.2 16.8 16.8 0 0 1 .121 2.177v.44q0 .635-.485.636t-.849-.734a5.135 5.135 0 0 0 -1.7-2.1 17.7 17.7 0 0 1 -10.486 3.083q-8.91 0-14.759-5.016a15.953 15.953 0 0 1 -5.846-12.654 16.18 16.18 0 0 1 5.364-12.551q5.364-4.869 13.85-4.869a23.449 23.449 0 0 1 4.94.416 23.607 23.607 0 0 1 4.576 1.688 5.282 5.282 0 0 0 2 .636q.545 0 1.03-.783.787-1.37 1.273-1.37t.485.391a2.773 2.773 0 0 1 -.121.636 38 38 0 0 0 -.667 8.808q0 .93-.182 1.076a.751.751 0 0 1 -.485.147q-.607 0-.788-.93a14.426 14.426 0 0 0 -2.243-5.823q-2.969-3.913-9.332-3.913a10.96 10.96 0 0 0 -7.758 2.643q-5.154 4.746-5.153 13.896 0 8.173 4.243 12.674a12.869 12.869 0 0 0 9.819 3.915 13.165 13.165 0 0 0 5.758-1.248 9.526 9.526 0 0 0 4-3.4 17.274 17.274 0 0 0 2.243-5.432q.241-1.175.788-1.174.605 0 .606.734" transform="translate(0 -.756)"/><path d="m224.809 18.666a16.187 16.187 0 0 1 -5.425 12.334 18.819 18.819 0 0 1 -13.3 5.04 20.282 20.282 0 0 1 -14.062-5.114 16.267 16.267 0 0 1 -5.7-12.6 15.958 15.958 0 0 1 5.485-12.5q5.483-4.874 14.03-4.874a19.064 19.064 0 0 1 13.517 5.089 16.57 16.57 0 0 1 5.455 12.625m-6.789.246q0-8.981-4.546-13.987a10.177 10.177 0 0 0 -7.94-3.141q-4.85 0-7.516 2.4-4.91 4.418-4.909 14.379 0 7.9 3.424 12.27a11.51 11.51 0 0 0 9.607 4.367q5.758 0 8.668-4.123 3.212-4.564 3.212-12.171" transform="translate(-148.014 -.756)"/><path d="m423.6 36.881q0 .416-1.268.416h-15.1q-1.269 0-1.268-.441 0-.49 1.758-.49 3.091 0 3.758-.539.3-.245.3-3.284v-25.389q0 .049-.729 1.713-2.435 5.918-7.062 17.8l-2.815 7.789q-.85 2.3-1.213 2.3-.426 0-.91-1.175-1.75-4.454-9.9-22.228l-2.406-5.224q0 .93 0 2.544v15.9q0 8.955.182 9.053.423.636 2.909.636 2 0 2 .487 0 .541-1.273.54a10.08 10.08 0 0 1 -1.455-.1 13.405 13.405 0 0 0 -1.515-.1l-6.97.2q-1.091 0-1.091-.441 0-.49 3.455-.539 1.455 0 1.7-.391a7.184 7.184 0 0 0 .243-2.549v-23.469a35.887 35.887 0 0 0 -.121-4.41 1.479 1.479 0 0 0 -1.03-.931 17.773 17.773 0 0 0 -3.394-.392q-.971-.048-.97-.441 0-.538 1.778-.538h4.23q3.616 0 5.088-.037.3.637 3.516 7.7 1.381 2.939 7.747 17.14 1.145-3.186 2.351-6.274l6.48-16.17q.6-1.4 1.067-2.311l8.989-.048a8.9 8.9 0 0 1 2.277.147.472.472 0 0 1 .3.441q0 .491-1.03.491a17.285 17.285 0 0 0 -2.3.1 3.31 3.31 0 0 0 -2 .785q-.3.344-.3 5.742v22.82q0 1.964.485 2.307a10.328 10.328 0 0 0 3.94.442h.364q1.212 0 1.212.416" transform="translate(-301.412 -2.506)"/><path d="m636.594 25.152q0 4.209-3.97 7.169a15.517 15.517 0 0 1 -9.547 2.961 24.01 24.01 0 0 1 -7.819-1.615 5.971 5.971 0 0 0 -1.818-.44q-.727 0-.909 1.355a.7.7 0 0 1 -.788.7.527.527 0 0 1 -.606-.587 2.11 2.11 0 0 1 .061-.587 34.664 34.664 0 0 0 .485-5.529q0-.488-.121-2.74a4.047 4.047 0 0 1 -.06-.783.646.646 0 0 1 .727-.734q.605 0 .849 1.186 1.575 8.8 10.243 8.8a8.72 8.72 0 0 0 5.728-1.688 5.859 5.859 0 0 0 2.031-4.771 6.309 6.309 0 0 0 -1.97-4.673 21.044 21.044 0 0 0 -6.758-3.841q-5.759-2.3-8-4.453a7.094 7.094 0 0 1 -2.243-5.334 8.279 8.279 0 0 1 3.243-6.7 12.574 12.574 0 0 1 8.21-2.648 20.739 20.739 0 0 1 5.7 1.125 7.2 7.2 0 0 0 1.879.391 1.37 1.37 0 0 0 .879-.2 2.241 2.241 0 0 0 .394-1.028.61.61 0 0 1 .665-.488.528.528 0 0 1 .606.587 2.148 2.148 0 0 1 -.061.587 18.906 18.906 0 0 0 -.182 2.838 17.938 17.938 0 0 0 .3 3.719l.06.783q.06.539-.545.538-.668 0-.909-1.125a8.372 8.372 0 0 0 -3.152-4.82 8.857 8.857 0 0 0 -5.576-1.933 7.056 7.056 0 0 0 -4.82 1.566 5.369 5.369 0 0 0 -1.783 4.26 5.953 5.953 0 0 0 2.606 5.04 33.912 33.912 0 0 0 6.3 3.034 26.471 26.471 0 0 1 8.182 4.673 7.3 7.3 0 0 1 2.485 5.407" transform="translate(-485.491)"/><path d="m82.572 244.024q0 .115-.459.127a.718.718 0 0 0 -.682.338 11.68 11.68 0 0 0 -.52 1.377q-.608 1.85-1.081 3.146-.81 2.214-1.471 4.281c-.037.117-.083.176-.138.176s-.09-.045-.132-.134-.164-.4-.367-.94q-.376-1.055-.819-2.123-.349-.839-.685-1.731-.94 2.282-1.867 4.767-.054.161-.136.161t-.163-.23q-.419-1-3.106-8.277a3.328 3.328 0 0 0 -.283-.642q-.095-.128-.472-.142-.648-.027-.648-.189 0-.121.216-.122a.858.858 0 0 1 .162.014q.716.04 1.539.04.162 0 .56-.027t1.033-.027h.147q.229 0 .229.124 0 .152-.416.165-.831.028-.831.221 0 .378 2.482 7.036.9-2.281 1.347-3.361l-1.333-3.458a.684.684 0 0 0 -.251-.363 1.262 1.262 0 0 0 -.522-.094q-.38-.013-.38-.121 0-.148.284-.148.216 0 .527.027t1.08.027h2.511q.5 0 1.2-.043a1.445 1.445 0 0 1 .189-.011q.324 0 .324.142t-.229.128h-.23a2.043 2.043 0 0 0 -.918.162 2.864 2.864 0 0 0 -.5.971q-.163.378-.545 1.282l-.238.61q.094.27.591 1.5.642 1.563 1.056 2.681.759-2.186 1.791-5.169a13.644 13.644 0 0 0 .546-1.764q0-.257-.473-.258-.662 0-.662-.149t.27-.136a2.958 2.958 0 0 1 .365.018 4.506 4.506 0 0 0 .54.036h1.08a1.466 1.466 0 0 1 .446.032.09.09 0 0 1 .04.07m-5.712.154h-.392q-.486.028-.486.176 0 .027.8 2.348.308-.675.725-1.784.056-.148.168-.39l.028-.108q0-.242-.837-.242" transform="translate(-55.245 -193.73)"/><path d="m138.087 264.865a1.191 1.191 0 0 1 -.209.479 2.983 2.983 0 0 1 -.425.56 2.072 2.072 0 0 1 -1.553.594 2.662 2.662 0 0 1 -2.032-.878 3.07 3.07 0 0 1 -.817-2.174 3.341 3.341 0 0 1 .776-2.255 2.45 2.45 0 0 1 1.938-.9 2.371 2.371 0 0 1 1.607.56 1.942 1.942 0 0 1 .689 1.438 6.9 6.9 0 0 1 -1.148.054h-.945q-.095 0-1.621.04a5.647 5.647 0 0 0 -.067.848 3.585 3.585 0 0 0 .52 2.092 1.691 1.691 0 0 0 1.465.733 1.407 1.407 0 0 0 .864-.243 2.97 2.97 0 0 0 .7-.931.164.164 0 0 1 .148-.108q.108 0 .108.094m-1.175-2.754q-.054-1.62-1.161-1.62t-1.364 1.62z" transform="translate(-105.696 -206.774)"/><path d="m178.954 252.683q0 .115-.2.115a2.01 2.01 0 0 1 -.243-.014l-1.715-.054-1.715.054a1.462 1.462 0 0 1 -.2.014q-.27 0-.27-.141t.364-.156q1.188-.013 1.188-.238a.765.765 0 0 0 -.028-.106l-.11-.357-.069-.188q-.121-.419-.593-1.852h-2.887a14.533 14.533 0 0 0 -.809 2.484.208.208 0 0 0 .162.229q.04.014.675.054c.261.009.392.054.392.135s-.117.135-.351.135q-.621 0-1.445-.054c-.135-.009-.275-.013-.419-.013a1.921 1.921 0 0 0 -.418.045.9.9 0 0 1 -.176.023c-.126 0-.189-.04-.189-.122s.142-.126.425-.136a1.31 1.31 0 0 0 .614-.129.776.776 0 0 0 .3-.44q1.737-4.986 2.828-8.007a1.567 1.567 0 0 1 .126-.358l.058-.246q.04-.149.108-.149c.027 0 .049.027.068.081q.175.527.8 2.2.486 1.31 2.417 6.576a.646.646 0 0 0 .277.389 1.97 1.97 0 0 0 .7.1q.351.013.351.128m-3.658-3.234-.728-2.013-.649-1.872q-.569 1.494-1.369 3.884z" transform="translate(-134.965 -193.208)"/><path d="m215.87 261.336a.723.723 0 0 1 -.189.513.636.636 0 0 1 -.486.2.593.593 0 0 1 -.405-.142.456.456 0 0 1 -.162-.358.468.468 0 0 1 .122-.324q.121-.135.121-.189 0-.2-.3-.2a.769.769 0 0 0 -.648.47 4.6 4.6 0 0 0 -.311 2.042v2.66a.187.187 0 0 0 .115.2 3.438 3.438 0 0 0 .7.054c.1.018.149.054.149.108s-.059.095-.176.095h-2.62q-.216 0-.216-.081c0-.054.058-.081.176-.081h.189q.459 0 .54-.109a2.244 2.244 0 0 0 .027-.5v-3.732q0-.746-.223-.862a1.732 1.732 0 0 0 -.709-.129c-.108 0-.162-.032-.162-.095s.045-.095.135-.095h.095q.2 0 .4.02a1.441 1.441 0 0 1 .176.02 2.649 2.649 0 0 0 1.107-.284l.176-.081.108-.041a3.941 3.941 0 0 1 .054.648v.27a1.338 1.338 0 0 1 1.215-.918 1.011 1.011 0 0 1 .716.263.857.857 0 0 1 .283.655" transform="translate(-167.938 -206.877)"/><path d="m240.278 264.865a1.191 1.191 0 0 1 -.209.479 2.984 2.984 0 0 1 -.425.56 2.072 2.072 0 0 1 -1.553.594 2.662 2.662 0 0 1 -2.032-.878 3.07 3.07 0 0 1 -.817-2.174 3.341 3.341 0 0 1 .776-2.255 2.45 2.45 0 0 1 1.938-.9 2.371 2.371 0 0 1 1.607.56 1.941 1.941 0 0 1 .689 1.438 6.9 6.9 0 0 1 -1.148.054h-.945q-.095 0-1.62.04a5.653 5.653 0 0 0 -.067.848 3.584 3.584 0 0 0 .52 2.092 1.691 1.691 0 0 0 1.465.733 1.407 1.407 0 0 0 .864-.243 2.97 2.97 0 0 0 .7-.931.164.164 0 0 1 .148-.108q.108 0 .108.094m-1.175-2.754q-.054-1.62-1.161-1.62t-1.364 1.62z" transform="translate(-186.878 -206.774)"/><path d="m282.107 250.992a2.165 2.165 0 0 1 -1.256 2.039 4.464 4.464 0 0 1 -1.742.405q-.311.014-1.836.014h-1.647c-.153 0-.23-.038-.23-.115s.139-.114.419-.114q.486 0 .574-.1a1.213 1.213 0 0 0 .088-.614v-7.307a2.267 2.267 0 0 0 -.054-.689q-.1-.162-.689-.176-.364 0-.364-.142t.338-.128h.162a1.029 1.029 0 0 0 .27.041h2.633a4.065 4.065 0 0 1 2.174.486 1.808 1.808 0 0 1 .837 1.607 1.889 1.889 0 0 1 -.689 1.506 3.567 3.567 0 0 1 -1.931.736v.081a4.133 4.133 0 0 1 1.917.513 2.161 2.161 0 0 1 1.026 1.958m-1.809-4.659a2.036 2.036 0 0 0 -.594-1.728 2.116 2.116 0 0 0 -1.175-.229q-.23 0-.716.041v3.916h.121l.743-.027a1.532 1.532 0 0 0 1.2-.547 2.186 2.186 0 0 0 .425-1.425m.391 4.51a1.928 1.928 0 0 0 -1.377-2.106 6.078 6.078 0 0 0 -1.5-.122v4.024q0 .392.081.445a1.726 1.726 0 0 0 .756.095 1.933 1.933 0 0 0 1.485-.594 2.469 2.469 0 0 0 .553-1.742" transform="translate(-218.755 -193.887)"/><path d="m318.235 264.865a1.193 1.193 0 0 1 -.209.479 2.99 2.99 0 0 1 -.425.56 2.072 2.072 0 0 1 -1.553.594 2.662 2.662 0 0 1 -2.032-.878 3.07 3.07 0 0 1 -.817-2.174 3.34 3.34 0 0 1 .776-2.255 2.45 2.45 0 0 1 1.938-.9 2.371 2.371 0 0 1 1.607.56 1.94 1.94 0 0 1 .689 1.438 6.906 6.906 0 0 1 -1.148.054h-.945q-.095 0-1.62.04a5.645 5.645 0 0 0 -.068.848 3.584 3.584 0 0 0 .52 2.092 1.691 1.691 0 0 0 1.465.733 1.407 1.407 0 0 0 .864-.243 2.974 2.974 0 0 0 .7-.931.164.164 0 0 1 .148-.108q.108 0 .108.094m-1.175-2.754q-.054-1.62-1.161-1.62t-1.364 1.62z" transform="translate(-248.807 -206.774)"/><path d="m347.179 265.729q0 .23-.477.479a1.981 1.981 0 0 1 -.92.25.873.873 0 0 1 -.967-.959 1.675 1.675 0 0 1 -1.585 1 1.358 1.358 0 0 1 -.954-.344 1.145 1.145 0 0 1 -.376-.884 1.965 1.965 0 0 1 1.325-1.756 7.321 7.321 0 0 1 1.579-.432v-.338a6.3 6.3 0 0 0 -.122-1.566.921.921 0 0 0 -.972-.689 1.217 1.217 0 0 0 -.79.257.8.8 0 0 0 -.317.648c0 .072.055.108.165.108a.38.38 0 0 1 .3.162.562.562 0 0 1 .132.365.522.522 0 0 1 -.588.594.672.672 0 0 1 -.508-.209.739.739 0 0 1 -.2-.533 1.436 1.436 0 0 1 .5-1.094 2.215 2.215 0 0 1 1.539-.5q1.485 0 1.823.81a4 4 0 0 1 .122 1.229v2.525q0 .621.013.729.068.486.392.486a.8.8 0 0 0 .621-.27c.09-.1.158-.149.2-.149s.068.027.068.081m-2.382-1.429v-.986a3.413 3.413 0 0 0 -1.431.6 1.243 1.243 0 0 0 -.432.992 1.026 1.026 0 0 0 .246.709.794.794 0 0 0 .619.277 1.034 1.034 0 0 0 .918-.648 2.99 2.99 0 0 0 .08-.945" transform="translate(-271.606 -206.773)"/><path d="m372.474 266.5c0 .063-.1.1-.3.108a4.865 4.865 0 0 0 -1.85.459.219.219 0 0 1 -.095.027c-.054 0-.081-.036-.081-.108v-.756a2 2 0 0 1 -1.728.864 1.654 1.654 0 0 1 -1.42-.577 1.083 1.083 0 0 1 -.208-.443 9.745 9.745 0 0 1 -.033-1.086v-3.071a1.48 1.48 0 0 0 -.054-.55q-.054-.081-.365-.094h-.175q-.365.027-.365-.108 0-.095.23-.095t.7.036q.229.018.27.018a6.7 6.7 0 0 0 .878-.054v3.749a4.413 4.413 0 0 0 .135 1.371.853.853 0 0 0 .878.524 1.128 1.128 0 0 0 1.053-.591 2.911 2.911 0 0 0 .243-1.371v-2.083a4.287 4.287 0 0 0 -.04-.685v-.443q-.014-.2-.088-.235a.883.883 0 0 0 -.3-.034q-.567.014-.567-.121 0-.08.284-.08h1.836v3.767a10.9 10.9 0 0 0 .04 1.229c.026.171.1.27.207.3a4.21 4.21 0 0 0 .754.04c.107 0 .16.032.16.094" transform="translate(-290.596 -207.4)"/><path d="m402.06 261.835q0 .122-.338.432a1.981 1.981 0 0 1 -1.377.526 1.522 1.522 0 0 1 -1.121-.377 2.166 2.166 0 0 1 -.216-1.266v-4.014a.15.15 0 0 0 -.148-.148h-.513q-.3 0-.3-.094c0-.063.049-.1.148-.108a2.077 2.077 0 0 0 1.637-1.038.236.236 0 0 1 .2-.123.083.083 0 0 1 .094.095v.28a2.961 2.961 0 0 0 .054.729 2.081 2.081 0 0 0 .405.027 4.531 4.531 0 0 0 .986-.067.4.4 0 0 1 .094-.014q.108 0 .108.117 0 .194-1.094.194h-.554v2.5a17.076 17.076 0 0 0 .095 2.37.559.559 0 0 0 .621.479 1.586 1.586 0 0 0 1-.5.153.153 0 0 1 .122-.068c.063 0 .094.022.094.068" transform="translate(-316.213 -203.069)"/><path d="m420.69 261.105c0 .064-.108.1-.324.11a1.374 1.374 0 0 0 -.412.055.389.389 0 0 0 -.155.234l-.094.248-.108.337q-.189.621-.567 1.85-1.067 3.43-1.769 5.32-.432 1.148-1.188 1.148a.766.766 0 0 1 -.534-.189.626.626 0 0 1 -.209-.486.553.553 0 0 1 .169-.419.606.606 0 0 1 .439-.162.554.554 0 0 1 .526.3c.081.153.149.229.2.229q.122 0 .378-.662.378-.986.594-1.769-1-2.619-1.7-4.577a9.075 9.075 0 0 0 -.54-1.35.841.841 0 0 0 -.439-.067q-.358 0-.358-.135c0-.072.059-.108.176-.108.1 0 .252.009.459.027s.364.027.473.027h.243q.284-.018.783-.036l.689-.018c.1 0 .149.039.149.115s-.167.106-.5.115q-.419.013-.419.133a4.818 4.818 0 0 0 .275.824q.107.311.227.649l.236.673q.092.3.489 1.354.139.325.306.785 1.3-4.065 1.295-4.267a.135.135 0 0 0 -.1-.149 3.357 3.357 0 0 0 -.578-.027c-.091 0-.136-.036-.136-.109s.054-.095.162-.095a.279.279 0 0 1 .108.018q.458.036.756.036h.378a1.138 1.138 0 0 0 .317-.027.54.54 0 0 1 .182-.027c.081 0 .122.032.122.1" transform="translate(-329.36 -207.347)"/><path d="m465.378 249.917q0-.027-.027.364-.054.783-.054 1.513 0 .081.027.331a5.8 5.8 0 0 1 .027.6v.122q0 .175-.108.176c-.072 0-.135-.067-.189-.2a1.39 1.39 0 0 0 -.378-.581 3.426 3.426 0 0 1 -2.336.851 4.323 4.323 0 0 1 -3.288-1.384 4.891 4.891 0 0 1 -1.3-3.49 5.017 5.017 0 0 1 1.195-3.464 3.939 3.939 0 0 1 3.085-1.343 4.25 4.25 0 0 1 1.1.115 4.652 4.652 0 0 1 1.02.466 1.02 1.02 0 0 0 .445.175q.122 0 .23-.216.175-.378.284-.378a.1.1 0 0 1 .108.108.915.915 0 0 1 -.027.176 12.971 12.971 0 0 0 -.148 2.431.578.578 0 0 1 -.041.3.145.145 0 0 1 -.108.041q-.135 0-.176-.257a4.58 4.58 0 0 0 -.5-1.607 2.262 2.262 0 0 0 -2.08-1.08 2.173 2.173 0 0 0 -1.728.729 6.962 6.962 0 0 0 -.2 7.332 2.615 2.615 0 0 0 2.187 1.08 2.468 2.468 0 0 0 1.283-.344 2.324 2.324 0 0 0 .891-.938 5.45 5.45 0 0 0 .5-1.5q.054-.324.176-.324c.09 0 .135.067.135.2" transform="translate(-363.638 -193.365)"/><path d="m502.61 261.336a.723.723 0 0 1 -.189.513.636.636 0 0 1 -.486.2.594.594 0 0 1 -.405-.142.455.455 0 0 1 -.162-.358.468.468 0 0 1 .121-.324q.122-.135.122-.189 0-.2-.3-.2a.769.769 0 0 0 -.648.47 4.6 4.6 0 0 0 -.311 2.042v2.66a.187.187 0 0 0 .115.2 3.434 3.434 0 0 0 .7.054c.1.018.148.054.148.108s-.059.095-.175.095h-2.62c-.144 0-.216-.027-.216-.081s.058-.081.175-.081h.189q.459 0 .54-.109a2.23 2.23 0 0 0 .027-.5v-3.732q0-.746-.223-.862a1.729 1.729 0 0 0 -.709-.129c-.108 0-.162-.032-.162-.095s.044-.095.135-.095h.094q.2 0 .405.02a1.441 1.441 0 0 1 .176.02 2.649 2.649 0 0 0 1.107-.284l.176-.081.108-.041a3.964 3.964 0 0 1 .054.648v.27a1.339 1.339 0 0 1 1.216-.918 1.011 1.011 0 0 1 .715.263.858.858 0 0 1 .284.655" transform="translate(-395.726 -206.877)"/><path d="m527.016 264.865a1.194 1.194 0 0 1 -.209.479 2.974 2.974 0 0 1 -.425.56 2.072 2.072 0 0 1 -1.553.594 2.662 2.662 0 0 1 -2.032-.878 3.069 3.069 0 0 1 -.817-2.174 3.341 3.341 0 0 1 .776-2.255 2.451 2.451 0 0 1 1.938-.9 2.371 2.371 0 0 1 1.607.56 1.942 1.942 0 0 1 .689 1.438 6.905 6.905 0 0 1 -1.148.054h-.942q-.095 0-1.62.04a5.629 5.629 0 0 0 -.068.848 3.583 3.583 0 0 0 .52 2.092 1.691 1.691 0 0 0 1.465.733 1.406 1.406 0 0 0 .864-.243 2.971 2.971 0 0 0 .7-.931.165.165 0 0 1 .149-.108c.072 0 .108.032.108.094m-1.175-2.754q-.054-1.62-1.161-1.62t-1.364 1.62z" transform="translate(-414.664 -206.774)"/><path d="m555.959 265.729q0 .23-.477.479a1.982 1.982 0 0 1 -.92.25.873.873 0 0 1 -.967-.959 1.675 1.675 0 0 1 -1.585 1 1.359 1.359 0 0 1 -.954-.344 1.144 1.144 0 0 1 -.376-.884 1.964 1.964 0 0 1 1.32-1.757 7.32 7.32 0 0 1 1.579-.432v-.338a6.325 6.325 0 0 0 -.121-1.566.921.921 0 0 0 -.972-.689 1.217 1.217 0 0 0 -.79.257.8.8 0 0 0 -.317.648c0 .072.055.108.165.108a.38.38 0 0 1 .3.162.562.562 0 0 1 .132.365.522.522 0 0 1 -.588.594.672.672 0 0 1 -.508-.209.74.74 0 0 1 -.2-.533 1.436 1.436 0 0 1 .5-1.094 2.216 2.216 0 0 1 1.539-.5q1.485 0 1.823.81a4 4 0 0 1 .121 1.229v2.525q0 .621.013.729.067.486.392.486a.8.8 0 0 0 .621-.27c.09-.1.157-.149.2-.149s.068.027.068.081m-2.376-1.431v-.986a3.414 3.414 0 0 0 -1.431.6 1.242 1.242 0 0 0 -.432.992 1.026 1.026 0 0 0 .246.709.793.793 0 0 0 .619.277 1.034 1.034 0 0 0 .918-.648 3 3 0 0 0 .08-.945" transform="translate(-437.463 -206.773)"/><path d="m578.662 261.835q0 .122-.338.432a1.981 1.981 0 0 1 -1.377.526 1.521 1.521 0 0 1 -1.121-.377 2.166 2.166 0 0 1 -.216-1.266v-4.014a.15.15 0 0 0 -.148-.148h-.514q-.3 0-.3-.094c0-.063.049-.1.147-.108a2.077 2.077 0 0 0 1.637-1.038.236.236 0 0 1 .2-.123.083.083 0 0 1 .094.095v.28a2.975 2.975 0 0 0 .054.729 2.083 2.083 0 0 0 .405.027 4.533 4.533 0 0 0 .986-.067.406.406 0 0 1 .094-.014c.072 0 .108.039.108.117q0 .194-1.094.194h-.554v2.5a17.009 17.009 0 0 0 .095 2.37.558.558 0 0 0 .621.479 1.587 1.587 0 0 0 1-.5.153.153 0 0 1 .121-.068c.063 0 .095.022.095.068" transform="translate(-456.507 -203.069)"/><path d="m599.982 264.865a1.191 1.191 0 0 1 -.209.479 2.99 2.99 0 0 1 -.426.56 2.072 2.072 0 0 1 -1.553.594 2.662 2.662 0 0 1 -2.032-.878 3.069 3.069 0 0 1 -.817-2.174 3.341 3.341 0 0 1 .776-2.255 2.45 2.45 0 0 1 1.938-.9 2.371 2.371 0 0 1 1.607.56 1.943 1.943 0 0 1 .689 1.438 6.91 6.91 0 0 1 -1.148.054h-.945q-.094 0-1.62.04a5.645 5.645 0 0 0 -.067.848 3.586 3.586 0 0 0 .52 2.092 1.692 1.692 0 0 0 1.465.733 1.406 1.406 0 0 0 .864-.243 2.969 2.969 0 0 0 .7-.931.164.164 0 0 1 .148-.108q.108 0 .108.094m-1.175-2.754q-.054-1.62-1.161-1.62t-1.364 1.62z" transform="translate(-472.628 -206.774)"/><path d="m626.014 261.336a.723.723 0 0 1 -.189.513.636.636 0 0 1 -.486.2.594.594 0 0 1 -.405-.142.456.456 0 0 1 -.162-.358.469.469 0 0 1 .121-.324q.122-.135.122-.189 0-.2-.3-.2a.769.769 0 0 0 -.648.47 4.6 4.6 0 0 0 -.311 2.042v2.66a.187.187 0 0 0 .115.2 3.437 3.437 0 0 0 .7.054c.1.018.149.054.149.108s-.059.095-.176.095h-2.62c-.144 0-.216-.027-.216-.081s.058-.081.175-.081h.189q.459 0 .54-.109a2.225 2.225 0 0 0 .027-.5v-3.732q0-.746-.223-.862a1.729 1.729 0 0 0 -.708-.129c-.108 0-.162-.032-.162-.095s.045-.095.135-.095h.095q.2 0 .405.02a1.42 1.42 0 0 1 .175.02 2.65 2.65 0 0 0 1.107-.284l.176-.081.108-.041a3.951 3.951 0 0 1 .054.648v.27a1.339 1.339 0 0 1 1.215-.918 1.011 1.011 0 0 1 .716.263.858.858 0 0 1 .284.655" transform="translate(-493.758 -206.877)"/><path d="m650.441 263.835a1.78 1.78 0 0 1 -.57 1.333 1.9 1.9 0 0 1 -1.361.548 2.627 2.627 0 0 1 -1.113-.324.671.671 0 0 0 -.309-.095c-.125 0-.219.086-.281.257q-.054.162-.148.162c-.062 0-.094-.036-.094-.108v-1.808q0-.148.094-.148t.122.15a2.021 2.021 0 0 0 .351.979 1.724 1.724 0 0 0 1.445.707 1.086 1.086 0 0 0 .783-.284 1 1 0 0 0 .3-.758 1.085 1.085 0 0 0 -.337-.839 1.456 1.456 0 0 0 -.344-.251q-.155-.074-.912-.359-1.5-.568-1.5-1.705a1.737 1.737 0 0 1 .509-1.272 1.7 1.7 0 0 1 1.259-.514 3.08 3.08 0 0 1 .8.162.854.854 0 0 0 .241.04.325.325 0 0 0 .348-.27c.027-.09.067-.135.12-.135s.094.036.094.108v.648a7.548 7.548 0 0 0 .067 1.04v.027a.1.1 0 0 1 -.108.108q-.081 0-.2-.409a1.578 1.578 0 0 0 -.52-.79 1.326 1.326 0 0 0 -.857-.3 1.05 1.05 0 0 0 -.756.284.95.95 0 0 0 -.3.717q0 .676.9 1.029a6.289 6.289 0 0 1 1.783.92 1.547 1.547 0 0 1 .486 1.15" transform="translate(-513.635 -205.991)"/></g></g></svg>