<svg id="グループ_2566" data-name="グループ 2566" xmlns="http://www.w3.org/2000/svg" xmlns:xlink="http://www.w3.org/1999/xlink" width="72.777" height="69.229" viewBox="0 0 72.777 69.229">
  <defs>
    <clipPath id="clip-path">
      <rect id="長方形_1177" data-name="長方形 1177" width="72.777" height="69.228" fill="#00b900"/>
    </clipPath>
  </defs>
  <g id="グループ_2531" data-name="グループ 2531" clip-path="url(#clip-path)">
    <path id="パス_9453" data-name="パス 9453" d="M72.778,29.48C72.778,13.225,56.454,0,36.389,0S0,13.225,0,29.48C0,44.053,12.946,56.258,30.434,58.567c1.184.255,2.8.781,3.205,1.792a7.424,7.424,0,0,1,.117,3.284s-.425,2.564-.519,3.111c-.158.918-.731,3.591,3.152,1.958s20.955-12.32,28.589-21.093h0c5.274-5.772,7.8-11.632,7.8-18.138M22.145,39.152h-7.23a1.909,1.909,0,0,1-1.908-1.906V22.81a1.908,1.908,0,0,1,3.815,0V35.341h5.323a1.906,1.906,0,1,1,0,3.811m7.478-1.906a1.907,1.907,0,0,1-3.814,0V22.81a1.907,1.907,0,0,1,3.814,0Zm17.4,0a1.911,1.911,0,0,1-1.91,1.906,1.919,1.919,0,0,1-1.525-.762L36.183,28.315v8.93a1.908,1.908,0,0,1-3.817,0V22.81A1.909,1.909,0,0,1,35.8,21.667l7.412,10.075V22.81a1.908,1.908,0,0,1,3.815,0Zm11.7-9.122a1.9,1.9,0,1,1,0,3.81h-5.32v3.408h5.32a1.906,1.906,0,1,1,0,3.811H51.5a1.91,1.91,0,0,1-1.908-1.906V22.81a1.909,1.909,0,0,1,1.908-1.9h7.23a1.9,1.9,0,1,1,0,3.81h-5.32v3.408Z" transform="translate(-0.001)" fill="#00b900"/>
  </g>
</svg>
