<svg xmlns="http://www.w3.org/2000/svg" xmlns:xlink="http://www.w3.org/1999/xlink" width="28.602" height="27.207" viewBox="0 0 28.602 27.207">
  <defs>
    <clipPath id="clip-path">
      <rect id="長方形_394" data-name="長方形 394" width="28.602" height="27.207" fill="#fff"/>
    </clipPath>
  </defs>
  <g id="line-icon" clip-path="url(#clip-path)">
    <path id="パス_28" data-name="パス 28" d="M28.6,11.586C28.6,5.2,22.186,0,14.3,0S0,5.2,0,11.586C0,17.313,5.088,22.11,11.96,23.017c.465.1,1.1.307,1.26.7a2.919,2.919,0,0,1,.046,1.29s-.167,1.008-.2,1.223C13,26.6,12.775,27.646,14.3,27s8.235-4.842,11.236-8.29h0A10.3,10.3,0,0,0,28.6,11.586m-19.9,3.8H5.861a.75.75,0,0,1-.75-.749V8.965a.75.75,0,0,1,1.5,0v4.925H8.7a.749.749,0,1,1,0,1.5m2.939-.749a.75.75,0,0,1-1.5,0V8.965a.75.75,0,0,1,1.5,0Zm6.84,0a.751.751,0,0,1-.751.749.754.754,0,0,1-.6-.3L14.22,11.128v3.51a.75.75,0,0,1-1.5,0V8.965a.75.75,0,0,1,1.35-.449l2.913,3.959V8.965a.75.75,0,0,1,1.5,0Zm4.6-3.585a.749.749,0,1,1,0,1.5H20.989v1.339H23.08a.749.749,0,1,1,0,1.5H20.238a.751.751,0,0,1-.75-.749V8.965a.75.75,0,0,1,.75-.749H23.08a.749.749,0,1,1,0,1.5H20.989v1.339Z" fill="#fff"/>
  </g>
</svg>
