<svg height="66.058" viewBox="0 0 158.288 66.058" width="158.288" xmlns="http://www.w3.org/2000/svg" xmlns:xlink="http://www.w3.org/1999/xlink"><clipPath id="a"><path d="m0 0h158.288v66.058h-158.288z"/></clipPath><g clip-path="url(#a)" fill="#4a4a4a"><path d="m35.874 25.557q0-.1-.127 1.384-.254 2.973-.254 5.741a11.774 11.774 0 0 0 .127 1.256 17.659 17.659 0 0 1 .127 2.281v.461q0 .665-.508.666t-.889-.769a5.381 5.381 0 0 0 -1.778-2.2 18.544 18.544 0 0 1 -10.984 3.223q-9.333 0-15.461-5.254a16.711 16.711 0 0 1 -6.127-13.246 16.949 16.949 0 0 1 5.619-13.15q5.62-5.1 14.509-5.1a24.533 24.533 0 0 1 5.175.436 24.718 24.718 0 0 1 4.797 1.768 5.529 5.529 0 0 0 2.1.666q.571 0 1.079-.82.824-1.435 1.333-1.435t.508.41a2.88 2.88 0 0 1 -.127.666q-.7 2.46-.7 9.227 0 .974-.19 1.128a.785.785 0 0 1 -.508.154q-.636 0-.826-.974a15.114 15.114 0 0 0 -2.349-6.1q-3.112-4.1-9.778-4.1a11.482 11.482 0 0 0 -8.127 2.768q-5.4 4.972-5.4 14.558 0 8.561 4.445 13.276a13.48 13.48 0 0 0 10.286 4.1 13.792 13.792 0 0 0 6.032-1.307 9.983 9.983 0 0 0 4.191-3.563 18.094 18.094 0 0 0 2.349-5.69q.253-1.23.826-1.23.634 0 .635.769" transform="translate(0 -.645)"/><path d="m206.743 19.406a16.954 16.954 0 0 1 -5.683 12.917 19.712 19.712 0 0 1 -13.937 5.28 21.247 21.247 0 0 1 -14.73-5.357 17.038 17.038 0 0 1 -5.969-13.2 16.718 16.718 0 0 1 5.746-13.1q5.745-5.1 14.7-5.1a19.971 19.971 0 0 1 14.159 5.331 17.36 17.36 0 0 1 5.715 13.226m-7.112.258q0-9.408-4.762-14.653-2.985-3.289-8.318-3.29-5.081 0-7.874 2.519-5.143 4.628-5.143 15.063 0 8.278 3.587 12.854t10.064 4.575q6.031 0 9.08-4.319 3.365-4.781 3.365-12.749" transform="translate(-126.296 -.645)"/><path d="m385.189 38.149q0 .436-1.328.435h-15.82q-1.329 0-1.328-.462 0-.513 1.841-.513 3.238 0 3.936-.565.318-.257.318-3.44v-26.596q0 .052-.763 1.794-2.551 6.2-7.4 18.65l-2.945 8.159q-.89 2.41-1.271 2.409-.446 0-.953-1.23-1.833-4.666-10.369-23.285l-2.521-5.472q0 .975 0 2.665v16.66q0 9.381.191 9.483.443.667 3.047.666 2.095 0 2.1.51 0 .567-1.334.566a10.592 10.592 0 0 1 -1.524-.1 14.08 14.08 0 0 0 -1.587-.1l-7.3.2q-1.143 0-1.143-.462 0-.513 3.619-.565 1.524 0 1.778-.41a7.531 7.531 0 0 0 .254-2.671v-24.588a37.494 37.494 0 0 0 -.127-4.62 1.549 1.549 0 0 0 -1.079-.976 18.613 18.613 0 0 0 -3.556-.411q-1.017-.05-1.016-.461 0-.563 1.862-.563h4.429q3.789 0 5.33-.038.312.668 3.683 8.066 1.447 3.079 8.116 17.955 1.2-3.338 2.462-6.572l6.788-16.939q.628-1.462 1.117-2.421l9.417-.05a9.308 9.308 0 0 1 2.385.154.5.5 0 0 1 .314.462q0 .515-1.079.514a18.1 18.1 0 0 0 -2.412.1 3.468 3.468 0 0 0 -2.1.823q-.318.36-.318 6.015v23.908q0 2.057.508 2.416a10.808 10.808 0 0 0 4.127.463h.381q1.269 0 1.27.436" transform="translate(-257.186 -2.139)"/><path d="m572.542 26.348q0 4.409-4.159 7.51a16.253 16.253 0 0 1 -10 3.1 25.148 25.148 0 0 1 -8.19-1.692 6.258 6.258 0 0 0 -1.9-.462q-.762 0-.953 1.419a.73.73 0 0 1 -.826.734.552.552 0 0 1 -.635-.615 2.218 2.218 0 0 1 .064-.615 36.362 36.362 0 0 0 .508-5.792q0-.512-.127-2.871a4.2 4.2 0 0 1 -.063-.82.677.677 0 0 1 .762-.769q.634 0 .889 1.243 1.65 9.214 10.731 9.214a9.134 9.134 0 0 0 6-1.768 6.14 6.14 0 0 0 2.127-5 6.608 6.608 0 0 0 -2.064-4.9 22.044 22.044 0 0 0 -7.079-4.024q-6.033-2.409-8.381-4.665a7.431 7.431 0 0 1 -2.355-5.575 8.674 8.674 0 0 1 3.4-7.023 13.168 13.168 0 0 1 8.6-2.768 21.729 21.729 0 0 1 5.969 1.179 7.524 7.524 0 0 0 1.968.41 1.435 1.435 0 0 0 .921-.205 2.348 2.348 0 0 0 .413-1.077.639.639 0 0 1 .7-.512.553.553 0 0 1 .635.615 2.26 2.26 0 0 1 -.064.615 19.83 19.83 0 0 0 -.191 2.973 18.862 18.862 0 0 0 .318 3.9l.064.82q.063.565-.572.564-.7 0-.952-1.179a8.774 8.774 0 0 0 -3.3-5.049 9.282 9.282 0 0 0 -5.842-2.025 7.389 7.389 0 0 0 -5.048 1.64 5.623 5.623 0 0 0 -1.873 4.459 6.238 6.238 0 0 0 2.73 5.28 35.587 35.587 0 0 0 6.6 3.178q5.967 2.41 8.572 4.895a7.647 7.647 0 0 1 2.6 5.665" transform="translate(-414.254)"/><path d="m75.766 217.988q0 .12-.481.134a.752.752 0 0 0 -.714.354 12.181 12.181 0 0 0 -.544 1.443q-.638 1.938-1.133 3.3-.848 2.32-1.541 4.484c-.039.122-.087.184-.145.184s-.094-.047-.138-.141-.172-.422-.384-.985q-.394-1.105-.858-2.224-.366-.879-.718-1.813-.985 2.391-1.956 4.994-.057.169-.143.169t-.171-.241q-.439-1.046-3.253-8.671a3.478 3.478 0 0 0 -.3-.672q-.1-.134-.5-.149-.679-.028-.679-.2 0-.127.226-.127a.9.9 0 0 1 .17.014q.75.042 1.613.042.17 0 .587-.028t1.082-.028h.156q.24 0 .24.13 0 .159-.435.173-.871.029-.871.231 0 .4 2.6 7.37.945-2.389 1.411-3.52l-1.4-3.623a.716.716 0 0 0 -.263-.38 1.324 1.324 0 0 0 -.547-.1q-.4-.014-.4-.127 0-.155.3-.155.226 0 .551.028t1.132.028h2.64q.523 0 1.259-.046a1.511 1.511 0 0 1 .2-.011q.34 0 .34.149 0 .134-.24.134h-.241a2.142 2.142 0 0 0 -.962.169 3 3 0 0 0 -.523 1.018q-.171.4-.571 1.343l-.25.639q.1.283.619 1.572.672 1.637 1.106 2.808.8-2.29 1.876-5.415a14.362 14.362 0 0 0 .572-1.848q0-.27-.5-.27-.693 0-.693-.156t.283-.142a3.145 3.145 0 0 1 .382.019 4.784 4.784 0 0 0 .566.038h1.132a1.535 1.535 0 0 1 .467.033.1.1 0 0 1 .042.074m-5.983.162h-.41q-.509.029-.509.185 0 .029.833 2.46.323-.708.759-1.869.058-.156.176-.409l.029-.113q0-.253-.877-.254" transform="translate(-47.139 -165.303)"/><path d="m124.119 237.287a1.249 1.249 0 0 1 -.219.5 3.121 3.121 0 0 1 -.446.587 2.17 2.17 0 0 1 -1.627.623 2.789 2.789 0 0 1 -2.129-.919 3.216 3.216 0 0 1 -.856-2.277 3.5 3.5 0 0 1 .813-2.362 2.565 2.565 0 0 1 2.03-.948 2.484 2.484 0 0 1 1.683.587 2.034 2.034 0 0 1 .721 1.507 7.212 7.212 0 0 1 -1.2.056h-.99q-.1 0-1.7.042a5.924 5.924 0 0 0 -.071.888 3.754 3.754 0 0 0 .545 2.191 1.772 1.772 0 0 0 1.535.768 1.474 1.474 0 0 0 .905-.255 3.113 3.113 0 0 0 .735-.976.172.172 0 0 1 .156-.113c.076 0 .113.033.113.1m-1.231-2.885q-.056-1.7-1.216-1.7t-1.429 1.7z" transform="translate(-90.188 -176.434)"/><path d="m161.243 227.162q0 .12-.212.121a2.1 2.1 0 0 1 -.255-.014l-1.8-.057-1.8.057a1.528 1.528 0 0 1 -.212.014q-.283 0-.283-.148t.382-.163q1.245-.014 1.245-.249a.793.793 0 0 0 -.029-.111l-.115-.374-.073-.2q-.127-.439-.621-1.94h-3.024a15.207 15.207 0 0 0 -.848 2.6.218.218 0 0 0 .17.24q.042.015.707.057c.274.01.41.056.41.141s-.122.142-.368.142q-.651 0-1.514-.057-.212-.014-.439-.014a2 2 0 0 0 -.438.047.966.966 0 0 1 -.184.024c-.132 0-.2-.043-.2-.128s.149-.133.446-.142a1.368 1.368 0 0 0 .644-.135.813.813 0 0 0 .311-.461q1.82-5.223 2.962-8.388a1.646 1.646 0 0 1 .132-.375l.061-.258q.042-.156.113-.156c.028 0 .052.028.071.085q.184.552.835 2.306.509 1.372 2.532 6.888a.677.677 0 0 0 .29.407 2.064 2.064 0 0 0 .728.1q.368.013.368.134m-3.832-3.387-.763-2.108-.68-1.961q-.6 1.565-1.434 4.069z" transform="translate(-115.162 -164.859)"/><path d="m193.508 233.572a.757.757 0 0 1 -.2.537.666.666 0 0 1 -.509.212.621.621 0 0 1 -.424-.148.477.477 0 0 1 -.17-.375.489.489 0 0 1 .127-.339q.127-.141.127-.2 0-.212-.311-.212a.806.806 0 0 0 -.679.492 4.819 4.819 0 0 0 -.325 2.139v2.787q0 .169.12.211a3.656 3.656 0 0 0 .729.056c.1.019.156.056.156.113s-.061.1-.184.1h-2.744q-.226 0-.226-.085t.184-.085h.2q.481 0 .566-.114a2.349 2.349 0 0 0 .028-.526v-3.909q0-.782-.233-.9a1.807 1.807 0 0 0 -.743-.135c-.113 0-.17-.033-.17-.1s.047-.1.142-.1h.1a4.236 4.236 0 0 1 .424.021 1.489 1.489 0 0 1 .184.021 2.777 2.777 0 0 0 1.16-.3l.184-.085.113-.042a4.115 4.115 0 0 1 .057.679v.283a1.4 1.4 0 0 1 1.273-.962 1.059 1.059 0 0 1 .75.276.9.9 0 0 1 .3.686" transform="translate(-143.296 -176.523)"/><path d="m215.4 237.288a1.247 1.247 0 0 1 -.219.5 3.129 3.129 0 0 1 -.446.587 2.171 2.171 0 0 1 -1.627.623 2.789 2.789 0 0 1 -2.129-.919 3.215 3.215 0 0 1 -.855-2.277 3.5 3.5 0 0 1 .813-2.362 2.565 2.565 0 0 1 2.03-.948 2.483 2.483 0 0 1 1.683.587 2.032 2.032 0 0 1 .721 1.507 7.267 7.267 0 0 1 -1.2.056h-.99q-.1 0-1.7.042a5.929 5.929 0 0 0 -.071.888 3.754 3.754 0 0 0 .545 2.192 1.772 1.772 0 0 0 1.535.768 1.473 1.473 0 0 0 .905-.255 3.109 3.109 0 0 0 .735-.976.172.172 0 0 1 .155-.114c.075 0 .113.033.113.1m-1.231-2.885q-.056-1.7-1.216-1.7t-1.428 1.7z" transform="translate(-159.458 -176.435)"/><path d="m253.021 225.258a2.268 2.268 0 0 1 -1.315 2.136 4.681 4.681 0 0 1 -1.825.424q-.325.014-1.924.014h-1.725q-.241 0-.241-.12t.439-.12q.509 0 .6-.106a1.273 1.273 0 0 0 .092-.644v-7.652a2.371 2.371 0 0 0 -.056-.721q-.1-.17-.721-.184-.382 0-.382-.149 0-.134.354-.134h.17a1.083 1.083 0 0 0 .283.043h2.758a4.258 4.258 0 0 1 2.277.509 1.9 1.9 0 0 1 .877 1.683 1.979 1.979 0 0 1 -.721 1.577 3.739 3.739 0 0 1 -2.023.771v.085a4.329 4.329 0 0 1 2.009.537 2.264 2.264 0 0 1 1.075 2.051m-1.9-4.88a2.132 2.132 0 0 0 -.622-1.811 2.219 2.219 0 0 0 -1.231-.24q-.241 0-.75.042v4.1h.127l.778-.028a1.6 1.6 0 0 0 1.252-.573 2.29 2.29 0 0 0 .446-1.492m.41 4.724a2.02 2.02 0 0 0 -1.443-2.206 6.366 6.366 0 0 0 -1.57-.128v4.215q0 .411.085.467a1.806 1.806 0 0 0 .792.1 2.026 2.026 0 0 0 1.556-.622 2.588 2.588 0 0 0 .58-1.825" transform="translate(-186.657 -165.438)"/><path d="m285.029 237.288a1.248 1.248 0 0 1 -.219.5 3.13 3.13 0 0 1 -.446.587 2.171 2.171 0 0 1 -1.627.623 2.789 2.789 0 0 1 -2.129-.919 3.216 3.216 0 0 1 -.856-2.277 3.5 3.5 0 0 1 .813-2.362 2.564 2.564 0 0 1 2.03-.948 2.482 2.482 0 0 1 1.683.587 2.033 2.033 0 0 1 .721 1.507 7.213 7.213 0 0 1 -1.2.056h-.99q-.1 0-1.7.042a5.922 5.922 0 0 0 -.071.888 3.754 3.754 0 0 0 .545 2.191 1.772 1.772 0 0 0 1.535.768 1.474 1.474 0 0 0 .905-.255 3.113 3.113 0 0 0 .735-.976.172.172 0 0 1 .156-.113c.075 0 .113.033.113.1m-1.227-2.887q-.056-1.7-1.216-1.7t-1.429 1.7z" transform="translate(-212.299 -176.435)"/><path d="m310.919 238.192q0 .241-.5.5a2.079 2.079 0 0 1 -.964.262.915.915 0 0 1 -1.013-1 1.754 1.754 0 0 1 -1.66 1.046 1.422 1.422 0 0 1 -1-.361 1.2 1.2 0 0 1 -.394-.926 2.059 2.059 0 0 1 1.387-1.839 7.667 7.667 0 0 1 1.654-.452v-.354a6.605 6.605 0 0 0 -.127-1.641.965.965 0 0 0 -1.018-.721 1.272 1.272 0 0 0 -.828.269.837.837 0 0 0 -.332.679c0 .076.057.113.173.113a.4.4 0 0 1 .311.17.588.588 0 0 1 .139.382.547.547 0 0 1 -.616.622.7.7 0 0 1 -.532-.219.774.774 0 0 1 -.21-.559 1.5 1.5 0 0 1 .523-1.146 2.323 2.323 0 0 1 1.612-.523q1.556 0 1.909.849a4.186 4.186 0 0 1 .127 1.287v2.645q0 .651.014.764.071.509.41.509a.837.837 0 0 0 .651-.283q.142-.156.212-.156c.047 0 .071.028.071.085m-2.489-1.5v-1.034a3.578 3.578 0 0 0 -1.5.63 1.3 1.3 0 0 0 -.453 1.04 1.075 1.075 0 0 0 .258.743.831.831 0 0 0 .649.29 1.083 1.083 0 0 0 .962-.679 3.145 3.145 0 0 0 .084-.99" transform="translate(-231.754 -176.433)"/><path d="m333.728 238.882q0 .1-.311.113a5.1 5.1 0 0 0 -1.938.481.228.228 0 0 1 -.1.028c-.057 0-.085-.038-.085-.113v-.791a2.1 2.1 0 0 1 -1.81.905 1.733 1.733 0 0 1 -1.487-.6 1.133 1.133 0 0 1 -.218-.464 10.309 10.309 0 0 1 -.035-1.138v-3.217a1.55 1.55 0 0 0 -.056-.576q-.057-.084-.382-.1h-.184q-.382.029-.382-.113 0-.1.241-.1t.736.038q.24.019.283.019a7.014 7.014 0 0 0 .92-.056v3.928a4.627 4.627 0 0 0 .142 1.436.893.893 0 0 0 .92.549 1.182 1.182 0 0 0 1.1-.619 3.05 3.05 0 0 0 .255-1.436v-2.182a4.475 4.475 0 0 0 -.042-.718v-.464q-.014-.211-.092-.246a.928.928 0 0 0 -.318-.035q-.594.015-.594-.127 0-.084.3-.084h1.924v3.946a11.448 11.448 0 0 0 .042 1.287q.042.269.217.312a4.422 4.422 0 0 0 .79.042q.167 0 .168.1" transform="translate(-247.958 -176.968)"/><path d="m359.745 234.83q0 .128-.354.453a2.074 2.074 0 0 1 -1.443.552 1.594 1.594 0 0 1 -1.174-.4 2.267 2.267 0 0 1 -.227-1.327v-4.205a.157.157 0 0 0 -.155-.155h-.538q-.311 0-.311-.1c0-.066.051-.1.155-.113a2.177 2.177 0 0 0 1.714-1.088.248.248 0 0 1 .211-.129.087.087 0 0 1 .1.075.079.079 0 0 1 0 .025v.3a3.1 3.1 0 0 0 .057.764 2.175 2.175 0 0 0 .425.028 4.749 4.749 0 0 0 1.032-.071.43.43 0 0 1 .1-.014c.075 0 .113.041.113.122q0 .2-1.146.2h-.58v2.617a17.829 17.829 0 0 0 .1 2.483.585.585 0 0 0 .651.5 1.662 1.662 0 0 0 1.047-.523.161.161 0 0 1 .127-.071c.066 0 .1.023.1.071" transform="translate(-269.816 -173.27)"/><path d="m376.705 233.237q0 .1-.339.115a1.423 1.423 0 0 0 -.431.058.407.407 0 0 0 -.163.245l-.1.259-.113.354q-.2.651-.594 1.938-1.118 3.593-1.853 5.573-.453 1.2-1.245 1.2a.8.8 0 0 1 -.559-.2.656.656 0 0 1 -.219-.509.581.581 0 0 1 .177-.439.634.634 0 0 1 .46-.169.581.581 0 0 1 .552.311q.128.24.212.24.127 0 .4-.693.4-1.033.622-1.853-1.047-2.743-1.782-4.795a9.475 9.475 0 0 0 -.566-1.414.88.88 0 0 0 -.46-.071q-.375 0-.375-.141c0-.075.062-.114.184-.114.1 0 .264.01.481.028s.382.029.5.029h.255q.3-.019.82-.038l.721-.019c.1 0 .156.041.156.12s-.174.11-.523.12q-.439.014-.439.139a5.031 5.031 0 0 0 .288.863q.112.326.238.68l.247.7q.1.312.512 1.419.146.34.321.822 1.357-4.258 1.357-4.47a.142.142 0 0 0 -.107-.156 3.538 3.538 0 0 0 -.605-.028c-.095 0-.142-.038-.142-.114s.057-.1.17-.1a.293.293 0 0 1 .113.019q.48.038.792.038h.4a1.2 1.2 0 0 0 .333-.028.558.558 0 0 1 .191-.028c.085 0 .127.034.127.1" transform="translate(-281.033 -176.922)"/><path d="m416.86 224.235c0-.019-.009.109-.029.382q-.056.82-.057 1.584c0 .057.01.172.029.346a5.968 5.968 0 0 1 .028.629v.127q0 .184-.113.184c-.076 0-.141-.071-.2-.212a1.449 1.449 0 0 0 -.4-.608 3.589 3.589 0 0 1 -2.447.891 4.529 4.529 0 0 1 -3.444-1.45 5.123 5.123 0 0 1 -1.365-3.657 5.257 5.257 0 0 1 1.251-3.628 4.125 4.125 0 0 1 3.232-1.407 4.448 4.448 0 0 1 1.153.12 4.832 4.832 0 0 1 1.068.488 1.066 1.066 0 0 0 .467.183c.085 0 .165-.075.241-.226q.184-.4.3-.4a.1.1 0 0 1 .113.085.107.107 0 0 1 0 .028.958.958 0 0 1 -.028.184 13.559 13.559 0 0 0 -.155 2.546.609.609 0 0 1 -.042.311.153.153 0 0 1 -.113.042q-.142 0-.184-.269a4.8 4.8 0 0 0 -.523-1.683 2.37 2.37 0 0 0 -2.179-1.132 2.277 2.277 0 0 0 -1.81.764 7.293 7.293 0 0 0 -.212 7.681 2.738 2.738 0 0 0 2.291 1.132 2.584 2.584 0 0 0 1.344-.361 2.435 2.435 0 0 0 .934-.983 5.72 5.72 0 0 0 .523-1.57q.056-.34.184-.339t.142.212" transform="translate(-310.282 -164.994)"/><path d="m449.629 233.572a.756.756 0 0 1 -.2.537.665.665 0 0 1 -.509.212.622.622 0 0 1 -.424-.148.477.477 0 0 1 -.17-.375.49.49 0 0 1 .127-.339q.127-.141.128-.2 0-.212-.311-.212a.805.805 0 0 0 -.679.492 4.813 4.813 0 0 0 -.326 2.139v2.787a.2.2 0 0 0 .121.211 3.609 3.609 0 0 0 .728.056c.1.019.155.056.155.113s-.062.1-.184.1h-2.744c-.151 0-.226-.028-.226-.085s.061-.085.184-.085h.2q.481 0 .566-.114a2.325 2.325 0 0 0 .028-.526v-3.909q0-.782-.233-.9a1.8 1.8 0 0 0 -.742-.135c-.114 0-.17-.033-.17-.1s.047-.1.141-.1h.1a4.243 4.243 0 0 1 .424.021 1.489 1.489 0 0 1 .184.021 2.777 2.777 0 0 0 1.16-.3l.184-.085.113-.042a4.138 4.138 0 0 1 .057.679v.283a1.4 1.4 0 0 1 1.273-.962 1.06 1.06 0 0 1 .75.276.9.9 0 0 1 .3.686" transform="translate(-337.662 -176.523)"/><path d="m471.516 237.287a1.249 1.249 0 0 1 -.219.5 3.109 3.109 0 0 1 -.446.587 2.169 2.169 0 0 1 -1.626.623 2.789 2.789 0 0 1 -2.129-.919 3.215 3.215 0 0 1 -.856-2.277 3.5 3.5 0 0 1 .813-2.362 2.565 2.565 0 0 1 2.03-.948 2.484 2.484 0 0 1 1.684.587 2.031 2.031 0 0 1 .721 1.507 7.207 7.207 0 0 1 -1.2.056h-.99q-.1 0-1.7.042a5.922 5.922 0 0 0 -.07.888 3.754 3.754 0 0 0 .545 2.191 1.772 1.772 0 0 0 1.535.768 1.474 1.474 0 0 0 .905-.255 3.114 3.114 0 0 0 .735-.976.172.172 0 0 1 .155-.113c.075 0 .113.033.113.1m-1.231-2.885q-.057-1.7-1.216-1.7t-1.429 1.7z" transform="translate(-353.821 -176.434)"/><path d="m497.4 238.192q0 .241-.5.5a2.081 2.081 0 0 1 -.964.262.915.915 0 0 1 -1.013-1 1.754 1.754 0 0 1 -1.656 1.046 1.424 1.424 0 0 1 -1-.361 1.2 1.2 0 0 1 -.394-.926 2.059 2.059 0 0 1 1.387-1.839 7.667 7.667 0 0 1 1.654-.452v-.354a6.605 6.605 0 0 0 -.127-1.641.965.965 0 0 0 -1.018-.721 1.272 1.272 0 0 0 -.828.269.837.837 0 0 0 -.332.679c0 .076.057.113.173.113a.4.4 0 0 1 .311.17.59.59 0 0 1 .139.382.547.547 0 0 1 -.616.622.7.7 0 0 1 -.532-.219.774.774 0 0 1 -.21-.559 1.505 1.505 0 0 1 .523-1.146 2.323 2.323 0 0 1 1.612-.523q1.556 0 1.91.849a4.186 4.186 0 0 1 .127 1.287v2.645q0 .651.014.764.07.509.41.509a.836.836 0 0 0 .65-.283q.141-.156.212-.156c.047 0 .071.028.071.085m-2.49-1.5v-1.034a3.58 3.58 0 0 0 -1.5.63 1.3 1.3 0 0 0 -.453 1.04 1.075 1.075 0 0 0 .258.743.832.832 0 0 0 .649.29 1.083 1.083 0 0 0 .962-.679 3.143 3.143 0 0 0 .084-.99" transform="translate(-373.274 -176.433)"/><path d="m517.488 234.83q0 .128-.354.453a2.074 2.074 0 0 1 -1.443.552 1.6 1.6 0 0 1 -1.174-.4 2.271 2.271 0 0 1 -.227-1.326v-4.206a.157.157 0 0 0 -.155-.155h-.535q-.312 0-.311-.1t.154-.113a2.177 2.177 0 0 0 1.715-1.088.248.248 0 0 1 .211-.129.087.087 0 0 1 .1.075.076.076 0 0 1 0 .024v.3a3.086 3.086 0 0 0 .057.764 2.175 2.175 0 0 0 .424.029 4.752 4.752 0 0 0 1.033-.071.424.424 0 0 1 .1-.014c.076 0 .113.041.113.122q0 .2-1.146.2h-.58v2.617a17.862 17.862 0 0 0 .1 2.483.586.586 0 0 0 .651.5 1.663 1.663 0 0 0 1.047-.523.161.161 0 0 1 .127-.071c.066 0 .1.023.1.071" transform="translate(-389.524 -173.27)"/><path d="m536.69 237.288a1.25 1.25 0 0 1 -.219.5 3.114 3.114 0 0 1 -.446.587 2.171 2.171 0 0 1 -1.625.625 2.789 2.789 0 0 1 -2.129-.919 3.216 3.216 0 0 1 -.856-2.277 3.5 3.5 0 0 1 .813-2.362 2.564 2.564 0 0 1 2.03-.948 2.483 2.483 0 0 1 1.683.587 2.033 2.033 0 0 1 .722 1.507 7.27 7.27 0 0 1 -1.2.056h-.99q-.1 0-1.7.042a5.878 5.878 0 0 0 -.07.888 3.755 3.755 0 0 0 .544 2.192 1.772 1.772 0 0 0 1.535.768 1.471 1.471 0 0 0 .905-.255 3.11 3.11 0 0 0 .736-.976.173.173 0 0 1 .155-.113c.076 0 .113.033.113.1m-1.231-2.885q-.057-1.7-1.217-1.7t-1.428 1.7z" transform="translate(-403.28 -176.435)"/><path d="m559.854 233.572a.756.756 0 0 1 -.2.537.665.665 0 0 1 -.509.212.622.622 0 0 1 -.424-.148.478.478 0 0 1 -.17-.375.491.491 0 0 1 .127-.339c.085-.094.128-.16.128-.2q0-.212-.311-.212a.8.8 0 0 0 -.679.492 4.815 4.815 0 0 0 -.326 2.139v2.787a.2.2 0 0 0 .121.211 3.606 3.606 0 0 0 .728.056c.1.019.156.056.156.113s-.062.1-.184.1h-2.744q-.227 0-.227-.085t.184-.085h.2q.481 0 .566-.114a2.311 2.311 0 0 0 .029-.526v-3.909q0-.782-.234-.9a1.807 1.807 0 0 0 -.743-.135c-.113 0-.17-.033-.17-.1s.047-.1.141-.1h.1a4.244 4.244 0 0 1 .424.021 1.488 1.488 0 0 1 .184.021 2.776 2.776 0 0 0 1.16-.3l.184-.085.113-.042a4.165 4.165 0 0 1 .056.679v.283a1.4 1.4 0 0 1 1.273-.962 1.059 1.059 0 0 1 .749.276.9.9 0 0 1 .3.686" transform="translate(-421.31 -176.523)"/><path d="m581.581 236.359a1.866 1.866 0 0 1 -.6 1.4 1.986 1.986 0 0 1 -1.426.574 2.755 2.755 0 0 1 -1.166-.34.706.706 0 0 0 -.323-.1q-.2 0-.295.269-.056.17-.154.169t-.1-.113v-1.9c0-.1.033-.155.1-.155s.118.052.128.157a2.117 2.117 0 0 0 .368 1.026 1.806 1.806 0 0 0 1.514.741 1.136 1.136 0 0 0 .82-.3 1.047 1.047 0 0 0 .311-.794 1.137 1.137 0 0 0 -.353-.879 1.529 1.529 0 0 0 -.361-.263q-.163-.078-.955-.375-1.569-.6-1.57-1.786a1.82 1.82 0 0 1 .533-1.333 1.784 1.784 0 0 1 1.319-.539 3.226 3.226 0 0 1 .842.17.89.89 0 0 0 .253.042.341.341 0 0 0 .365-.283c.028-.094.07-.141.126-.141s.1.038.1.113v.679a7.884 7.884 0 0 0 .071 1.089v.028a.1.1 0 0 1 -.085.113.1.1 0 0 1 -.028 0q-.085 0-.212-.428a1.652 1.652 0 0 0 -.545-.828 1.389 1.389 0 0 0 -.9-.314 1.1 1.1 0 0 0 -.792.3 1 1 0 0 0 -.311.752q0 .709.948 1.078a6.587 6.587 0 0 1 1.867.964 1.619 1.619 0 0 1 .509 1.205" transform="translate(-438.271 -175.765)"/></g></svg>