<svg id="logo_blk" xmlns="http://www.w3.org/2000/svg" xmlns:xlink="http://www.w3.org/1999/xlink" width="239" height="84" viewBox="0 0 239 84">
  <defs>
    <clipPath id="clip-path">
      <rect id="長方形_1893" data-name="長方形 1893" width="239" height="84" fill="#242424"/>
    </clipPath>
  </defs>
  <g id="グループ_3908" data-name="グループ 3908" clip-path="url(#clip-path)">
    <path id="パス_10060" data-name="パス 10060" d="M69.337,51.588a4.189,4.189,0,0,1-1.756-2.948,65.646,65.646,0,0,1-.329-8.4V12.407a46.756,46.756,0,0,1,.46-8.584,3.517,3.517,0,0,1,1.823-2.468Q70.9.694,75.288.693h1.273V0H55.637V.693h1.273q4.523,0,5.885.723a3.574,3.574,0,0,1,1.757,2.607,53.3,53.3,0,0,1,.395,8.384V40.236a56.085,56.085,0,0,1-.395,8.685,4.005,4.005,0,0,1-1.866,2.748q-1.471.883-5.291.882H55.637a9.643,9.643,0,0,1-4.677-1.383,7.681,7.681,0,0,1-2.481-3.028l-2.723-5.7L28.642,5.272l1.071-2.365h0A3.188,3.188,0,0,1,31.2,1.356Q32.56.694,36.952.693h1.274V0H29.6L26.483,6.8h0L25.137,9.735h0L12.646,36.986q-1.888,4.052-2.107,4.653Q7.814,48.017,5.884,50A9.914,9.914,0,0,1,0,52.55v.695H16.94V52.55a8.033,8.033,0,0,1-4.677-1.263,4.226,4.226,0,0,1-1.822-3.71q0-2.287,3.425-9.789l1.537-3.45H38.019l4.567,10.069q2.02,4.371,2.02,5.255a2.245,2.245,0,0,1-1.515,2.306,19.015,19.015,0,0,1-5.819.581v.695H76.561V52.55H74.805q-4.041,0-5.468-.962m-53.1-19.055L26.765,9.418,37.272,32.533Z" fill="#242424"/>
    <path id="パス_10061" data-name="パス 10061" d="M264.765,60.054a4.193,4.193,0,0,1-1.757-2.948,89.952,89.952,0,0,1-.329-9.555V40.991a63.967,63.967,0,0,1,.461-9.735,3.513,3.513,0,0,1,1.822-2.468q1.36-.662,5.752-.662h1.274v-.693H251.065v.693h1.273q4.522,0,5.885.723a3.574,3.574,0,0,1,1.756,2.607,73.224,73.224,0,0,1,.395,9.535V47.55a76.472,76.472,0,0,1-.395,9.836,4,4,0,0,1-1.865,2.748q-1.472.883-5.292.882h-3.513q-4.041,0-5.467-.962a4.188,4.188,0,0,1-1.757-2.948c-.219-1.324-.329-7.011-.329-11.29v-.747h0c0-4.984.1-9.169-3.107-12.555a13.049,13.049,0,0,0-10.765-4.619c-3.971,0-6.621.89-9.29,3.22v-3.68H207.128v.693H208.4q4.523,0,5.885.723a3.572,3.572,0,0,1,1.756,2.607,73.223,73.223,0,0,1,.395,9.535V47.55a76.471,76.471,0,0,1-.395,9.836,4,4,0,0,1-1.865,2.748q-1.472.883-5.292.882h-1.756v.695H271.99v-.695h-1.757q-4.04,0-5.467-.962m-27.6-14.985v.747a113.342,113.342,0,0,1-.395,11.57,4,4,0,0,1-1.866,2.748q-1.471.883-5.291.882h-3.469q-4.041,0-5.467-.962a4.192,4.192,0,0,1-1.757-2.948c-.182-1.1-.288-4.386-.318-7.524h-.01V45.068h.007c.021-5.676.4-10.646,2.142-13.057,1.767-2.439,3.811-3.427,7.141-3.427,3.355,0,5.406.995,7.161,3.447,1.733,2.423,2.1,7.386,2.123,13.036h0Z" transform="translate(-62.846 -8.466)" fill="#242424"/>
    <path id="パス_10062" data-name="パス 10062" d="M143.021,53.792h-1.932c-1.581,4.814-5.27,7.911-11.065,7.911-4.3,0-8.778-2.147-10.9-5.063a20.3,20.3,0,0,1-3.94-12.115,17.794,17.794,0,0,1,3.72-11.232c1.977-2.488,6.186-4.422,10.109-4.422a7.041,7.041,0,0,1,4.436,1.384,6.673,6.673,0,0,1,1.624,3.479q.658,3.091,3.557,3.088a2.544,2.544,0,0,0,2.086-.882,2.92,2.92,0,0,0,.724-1.885c0-1.791-1.3-3.079-3.908-4.323a19.513,19.513,0,0,0-8.562-1.635,19.343,19.343,0,0,0-13.394,4.784,16.165,16.165,0,0,0-5.665,12.847A15.293,15.293,0,0,0,115.157,57.9c3.5,3.183,7.809,4.544,12.933,4.544,7.963,0,12.939-2.425,14.931-8.656" transform="translate(-33.349 -8.671)" fill="#242424"/>
    <path id="パス_10063" data-name="パス 10063" d="M326.75,53.792c-1.58,4.814-5.269,7.911-11.065,7.911-4.3,0-8.777-2.147-10.9-5.063a20.3,20.3,0,0,1-3.939-12.115,17.794,17.794,0,0,1,3.72-11.232c1.977-2.488,6.186-4.422,10.109-4.422a7.04,7.04,0,0,1,4.436,1.384,6.673,6.673,0,0,1,1.624,3.479q.659,3.091,3.557,3.088a2.543,2.543,0,0,0,2.086-.882,2.92,2.92,0,0,0,.724-1.885c0-1.791-1.3-3.079-3.908-4.323a21.873,21.873,0,0,0-21.957,3.149,16.166,16.166,0,0,0-5.665,12.847A15.291,15.291,0,0,0,300.819,57.9c3.5,3.183,7.809,4.544,12.933,4.544,7.962,0,12.938-2.425,14.93-8.656Z" transform="translate(-89.682 -8.671)" fill="#242424"/>
    <path id="パス_10064" data-name="パス 10064" d="M187.222,32.733c-3.689-3.4-6.982-4.634-12.4-4.634-5.386,0-8.663,1.231-12.352,4.614s-5.029,7.589-5.029,12.616c0,5.43,1.363,9.755,5.095,12.977s6.988,4.143,12.286,4.143,8.562-.894,12.309-4.063,5.117-7.521,5.117-13.057c0-5-1.341-9.2-5.029-12.6M183.63,58.706c-2.035,2.34-4.97,3.049-8.805,3.049-3.747,0-6.66-.709-8.738-3.049s-3.118-7.346-3.118-13.176c0-5.8,1.016-10.849,3.052-13.3s4.969-3.44,8.8-3.44c3.865,0,6.807,1,8.827,3.461s3.03,7.5,3.03,13.276c0,5.83-1.018,10.836-3.052,13.176" transform="translate(-47.771 -8.672)" fill="#242424"/>
    <path id="パス_10065" data-name="パス 10065" d="M284.268,4.352a2.193,2.193,0,0,0,1.563-.606,1.943,1.943,0,0,0,.642-1.467A1.923,1.923,0,0,0,285.831.83a2.193,2.193,0,0,0-1.563-.606,2.23,2.23,0,0,0-1.574.606,1.91,1.91,0,0,0-.653,1.448,1.93,1.93,0,0,0,.653,1.467,2.23,2.23,0,0,0,1.574.606" transform="translate(-85.576 -0.069)" fill="#242424"/>
    <path id="パス_10066" data-name="パス 10066" d="M128.749,103.59a4.54,4.54,0,0,0-1.712-.3,5.174,5.174,0,0,0-1.982.342,6.48,6.48,0,0,0-1.3.682l.707,1.061q.2-.143.543-.342a3.891,3.891,0,0,1,.843-.342,4.024,4.024,0,0,1,1.114-.144,3.555,3.555,0,0,1,.724.072,1.9,1.9,0,0,1,.607.234,1.113,1.113,0,0,1,.408.44,1.533,1.533,0,0,1,.145.71v.613h-2.973a2.65,2.65,0,1,0,0,5.3h1.762a2.661,2.661,0,0,0,1.648-.588l1.011.41V105.81a2.249,2.249,0,0,0-.408-1.365,2.566,2.566,0,0,0-1.142-.855m.1,5.68h-.006a1.21,1.21,0,0,1-1.2,1.206h-1.762a1.206,1.206,0,0,1,0-2.412h2.973Z" transform="translate(-37.386 -31.877)" fill="#242424"/>
    <path id="パス_10067" data-name="パス 10067" d="M158.34,104.33a4.255,4.255,0,0,0-.662-.48,4.609,4.609,0,0,0-4.391,0,4.159,4.159,0,0,0-1.549,1.528,4.629,4.629,0,0,0,0,4.45,4.132,4.132,0,0,0,1.549,1.537,4.609,4.609,0,0,0,4.391,0,4.219,4.219,0,0,0,.662-.481v.679a3.186,3.186,0,0,1-.408,1.7,2.529,2.529,0,0,1-1.023.961,2.785,2.785,0,0,1-1.25.306,3,3,0,0,1-1.413-.315,2.38,2.38,0,0,1-.924-.828l-1.267.774a3.486,3.486,0,0,0,1.458,1.267,4.9,4.9,0,0,0,2.146.449,4.287,4.287,0,0,0,1.992-.485,3.9,3.9,0,0,0,1.539-1.448,4.424,4.424,0,0,0,.6-2.381v-8.089H158.34Zm-.389,4.806a2.827,2.827,0,0,1-4.945,0,3.088,3.088,0,0,1-.371-1.529,3.139,3.139,0,0,1,.371-1.537,2.712,2.712,0,0,1,1.014-1.051,3.006,3.006,0,0,1,2.917,0,2.712,2.712,0,0,1,1.014,1.051,3.147,3.147,0,0,1,.371,1.537,3.1,3.1,0,0,1-.371,1.529" transform="translate(-45.867 -31.877)" fill="#242424"/>
    <path id="パス_10068" data-name="パス 10068" d="M188.383,103.851a4.609,4.609,0,0,0-4.391,0,4.159,4.159,0,0,0-1.549,1.528,4.629,4.629,0,0,0,0,4.45,4.132,4.132,0,0,0,1.549,1.537,4.609,4.609,0,0,0,4.391,0,4.152,4.152,0,0,0,1.539-1.537,4.619,4.619,0,0,0,0-4.45,4.179,4.179,0,0,0-1.539-1.528m.272,5.286a2.827,2.827,0,0,1-4.945,0,3.088,3.088,0,0,1-.371-1.529,3.139,3.139,0,0,1,.371-1.537,2.712,2.712,0,0,1,1.014-1.051,3.006,3.006,0,0,1,2.917,0,2.712,2.712,0,0,1,1.014,1.051,3.146,3.146,0,0,1,.371,1.537,3.1,3.1,0,0,1-.371,1.529" transform="translate(-55.184 -31.877)" fill="#242424"/>
    <path id="パス_10069" data-name="パス 10069" d="M101.649,103.85a4.605,4.605,0,0,0-4.392,0,4.224,4.224,0,0,0-.652.467v-.845H95.138v8.269h1.467v-4.135a3.137,3.137,0,0,1,.371-1.537,2.713,2.713,0,0,1,1.014-1.052,3.01,3.01,0,0,1,2.917,0,2.723,2.723,0,0,1,1.014,1.052,3.145,3.145,0,0,1,.371,1.537v4.135h1.467v-4.135a4.317,4.317,0,0,0-.571-2.229,4.169,4.169,0,0,0-1.539-1.528" transform="translate(-28.867 -31.877)" fill="#242424"/>
    <path id="パス_10070" data-name="パス 10070" d="M243.72,103.59a4.54,4.54,0,0,0-1.711-.3,5.174,5.174,0,0,0-1.982.342,6.482,6.482,0,0,0-1.3.682l.707,1.061q.2-.143.543-.342a3.892,3.892,0,0,1,.843-.342,4.024,4.024,0,0,1,1.114-.144,3.555,3.555,0,0,1,.724.072,1.9,1.9,0,0,1,.607.234,1.113,1.113,0,0,1,.407.44,1.533,1.533,0,0,1,.145.71v.613h-2.973a2.65,2.65,0,1,0,0,5.3h1.762a2.661,2.661,0,0,0,1.648-.588l1.011.41V105.81a2.249,2.249,0,0,0-.408-1.365,2.565,2.565,0,0,0-1.142-.855m.1,5.68h-.006a1.21,1.21,0,0,1-1.2,1.206h-1.762a1.206,1.206,0,0,1,0-2.412h2.973Z" transform="translate(-72.271 -31.877)" fill="#242424"/>
    <path id="パス_10071" data-name="パス 10071" d="M214.085,109.157l-3-5.6h-1.662l3.833,7.154-2.715,5.069H212.2l6.548-12.223h-1.662Z" transform="translate(-63.542 -31.958)" fill="#242424"/>
  </g>
</svg>
