<svg height="127.72" viewBox="0 0 393 127.72" width="393" xmlns="http://www.w3.org/2000/svg"><g fill="#fff"><path d="m0 0h224v33h-224z"/><path d="m0 46h185v33h-185z"/><path d="m0 92h393v33h-393z"/></g><path d="m14.32-2.76a34.02 34.02 0 0 1 -6.64 1.2c-1.64.16-2.36.16-2.36.92a5.79 5.79 0 0 0 .4 1.64c.56 1.36 1.16 1.36 1.56 1.36.44 0 .88-.08 1.32-.12a40.082 40.082 0 0 0 12.16-3.32 27.021 27.021 0 0 0 9-6.4 2.635 2.635 0 0 0 .84-1.52 2.689 2.689 0 0 0 -2.72-2.4c-1.24 0-2.44.04-3.68.04h-5.08c-.16-.04-.36-.08-.36-.28a.285.285 0 0 1 .12-.24.988.988 0 0 1 .36-.16c.28 0 1.12-.04 1.12-.48s-.48-.52-.84-.6c-.08 0-.24-.04-.24-.12 0-.04.08-.08.12-.08h12.32c.8 0 1.08.32 1.12 1.12 0 .44-.08 1.04-.08 1.48 0 .8.64.76 1.96.76 1.36 0 1.96.04 1.96-.76 0-.4-.08-1.04-.08-1.44v-.8c0-.72.04-1.28.04-1.76 0-1.36-.92-1.56-2.84-1.56-.88 0-1.96.04-3.24.04h-21.12c-1.32 0-2.48-.08-3.4-.08-1.76 0-2.72.24-2.72 1.56 0 .44.08 1.04.08 1.8v.72c0 .44-.08 1.04-.08 1.44 0 .8.56.8 1.96.8 1.32 0 1.92 0 1.92-.76 0-.4-.08-1.04-.08-1.44.08-.8.32-1.04 1.12-1.12h5.56c.24.04.52.12.52.4a.6.6 0 0 1 -.16.36 24.8 24.8 0 0 1 -7.28 4.64c-1.24.48-1.6.6-1.6 1.04 0 .68 1.08 2.56 1.96 2.56 1.24 0 5.76-2.76 6.92-3.56a2.849 2.849 0 0 1 1.92-.56h7.56c.48 0 .92.04.92.28 0 .28-1.16 1.16-1.4 1.36a26.965 26.965 0 0 1 -3.16 1.8 1.5 1.5 0 0 1 -.72.2 1.436 1.436 0 0 1 -.96-.44c-.48-.48-2.6-2.4-3.12-2.4-.72 0-2.72 1.36-2.72 1.88 0 .24.72.84 1.32 1.32.32.24.56.48.76.64a.793.793 0 0 1 .24.52c0 .28-.2.44-.48.52zm11.28-19.24c0-.72.4-1.04 1.08-1.12h1.8a1.118 1.118 0 0 1 1.12 1.12v.4a1.06 1.06 0 0 1 -1.12 1.08h-1.8a.989.989 0 0 1 -1.08-1.08zm-7.56 0a1.094 1.094 0 0 1 1.12-1.12h1.84a1.118 1.118 0 0 1 1.12 1.12v.4a1.06 1.06 0 0 1 -1.12 1.08h-1.84a1 1 0 0 1 -1.12-1.08zm-4.68-1.12a1.118 1.118 0 0 1 1.12 1.12v.4a1.06 1.06 0 0 1 -1.12 1.08h-1.76a1.06 1.06 0 0 1 -1.12-1.08v-.4a1.118 1.118 0 0 1 1.12-1.12zm4.36-2.6c-.64-.08-.88-.36-.88-.96-.04-.72.4-1 1.08-1h4.32c.72 0 1.04.28 1.08 1.04-.08.6-.28.92-.88.92zm-9.56-4.96c-1.56 0-3.12-.08-4.72-.08-.96 0-.92.36-.92 1.6 0 1.2 0 1.56.92 1.56 1.6 0 3.16-.08 4.72-.08h3.28c.72 0 1 .28 1.04 1-.04.56-.24.92-.84.96-.92-.04-1.88-.08-2.8-.08s-2.24.08-2.24 1.32c0 .32.04.68.04 1.44v2.52c0 .76-.04 1.12-.04 1.44 0 1.28 1.4 1.32 2.36 1.32 1 0 2-.08 3-.08h16.2c1 0 2.04.08 3.04.08.96 0 2.28-.08 2.28-1.32 0-.4-.04-.72-.04-1.44v-2.52c0-.72.04-1.04.04-1.44 0-1.28-1.4-1.32-2.32-1.32s-1.8.04-2.68.08c-.6-.04-.76-.4-.84-.96a.93.93 0 0 1 1.08-1h3.32c1.56 0 3.16.08 4.72.08.96 0 .92-.36.92-1.56s.04-1.6-.92-1.6c-1.6 0-3.16.08-4.72.08h-3.36c-.52 0-1.08-.16-1.08-.8a.88.88 0 0 1 .48-.8c.24-.16.44-.24.44-.48 0-.4-.64-.44-.96-.44-.8-.08-2.84-.24-3.6-.24-.32 0-.72 0-.72.44a1.107 1.107 0 0 0 .04.36 6.565 6.565 0 0 1 .08.92c0 .76-.36 1.04-1.08 1.04h-4.4c-.52 0-1.08-.16-1.08-.76v-.12a.843.843 0 0 1 .44-.72c.24-.16.44-.24.44-.48 0-.4-.6-.44-.92-.44-.84-.08-2.88-.24-3.64-.24-.32 0-.72.04-.72.44a1.107 1.107 0 0 0 .04.36c.04.28.08.6.12.92 0 .76-.36 1.04-1.08 1.04zm50.16-2.48c-.4 0-.48.4-.56.84a21.948 21.948 0 0 1 -2.16 5.16c-.36.48-1.44.52-2.48.52h-1.16c-1.16 0-2.2-.08-2.88-.08-1 0-1.16.24-1.16 1.84 0 2.04.16 2.24 1.04 2.24 1.24 0 2.16-.12 2.8-.12.56 0 .88.12.88.48 0 .76-5.8 8.8-6.72 9.8-.2.24-.52.56-.52.88 0 .72 2.68 2.32 3.4 2.32a.665.665 0 0 0 .56-.4 26.22 26.22 0 0 1 3.36-4.68c1.56-1.6 5.24-3.52 7.48-3.52a1.664 1.664 0 0 1 1.76 1.36 5.493 5.493 0 0 1 .2 1.12c0 .48-.32.72-.72.92-.84.4-1.68.84-2.48 1.32-2.76 1.64-5.68 3.6-5.68 7.2a6.076 6.076 0 0 0 4 5.72 14.82 14.82 0 0 0 6.32 1.04 53.05 53.05 0 0 0 7.68-.52c.88-.2.92-.52.92-1.72 0-2.28-.28-2.72-.8-2.72a4.924 4.924 0 0 0 -.8.08 29.246 29.246 0 0 1 -7.44 1c-1.92 0-5.8-.24-5.8-2.92 0-2.48 4.12-4.24 4.32-4.24.4 0 .52.32.52.68 0 .84-.08 1.72-.08 2.6 0 1.04.72 1.12 2.44 1.12 1.52 0 1.72-.16 1.72-1.6 0-1.24-.04-2.44-.04-3.68v-.52c0-.8.32-1.04 1.04-1.32 1.56-.68 3.12-1.36 4.72-1.96.2-.08.4-.12.56-.2.76-.24 1.2-.4 1.2-.88 0-.68-.96-3.76-1.72-3.76a3.3 3.3 0 0 0 -1.04.4 35.607 35.607 0 0 1 -4.68 2.28c-.4 0-.52-.32-.6-.68-.52-2.52-2-3.6-4.56-3.6a11.067 11.067 0 0 0 -4.36 1.04 1.542 1.542 0 0 1 -.72.24.309.309 0 0 1 -.32-.28 12.914 12.914 0 0 1 1.36-2.32 1.411 1.411 0 0 1 1.2-.64c2.52-.28 5.04-.72 7.56-1.24.84-.16 2.12-.32 2.12-1a12.781 12.781 0 0 0 -.32-2.16c-.12-.56-.32-1.2-1-1.2a3.042 3.042 0 0 0 -1 .24 28.941 28.941 0 0 1 -4.64 1.12.389.389 0 0 1 -.44-.4 2.686 2.686 0 0 1 .4-.92c.52-.92.68-1.12 1.32-1.36.2-.08.48-.24.48-.48 0-.6-4.12-2.44-4.48-2.44zm34.44 9.92c1.08 0 2.28.08 3.2.08.88 0 .84-.44.84-1.68s.04-1.68-.84-1.68c-1 0-2.08.08-3.2.08h-6.24c-1.08 0-2.16-.08-3.16-.08-.92 0-.88.48-.88 1.68s-.04 1.68.88 1.68 2.08-.08 3.16-.08zm-1.24 10.8c.96 0 1.92.04 2.8.04s.84-.44.84-1.68c0-1.16.04-1.68-.84-1.68-.68 0-1.76.08-2.8.08h-3.12c-1.08 0-2.16-.08-2.84-.08-.84 0-.84.48-.84 1.68 0 1.28 0 1.68.84 1.68s1.84-.04 2.84-.04zm0-5.44c1 0 1.96.08 2.8.08.88 0 .84-.52.84-1.68s.04-1.64-.84-1.64c-.76 0-1.8.08-2.8.08h-3.12c-1 0-2.08-.08-2.84-.08-.84 0-.84.44-.84 1.64s0 1.68.84 1.68c.76 0 1.84-.08 2.84-.08zm.04-10.68c.96 0 1.92.08 2.8.08s.84-.48.84-1.76c0-1.24.04-1.76-.84-1.76s-1.84.08-2.8.08h-3.04c-1 0-1.96-.08-2.8-.08-.88 0-.88.48-.88 1.76 0 1.24 0 1.76.84 1.76s1.84-.08 2.84-.08zm12.96 25.44a1.019 1.019 0 0 1 -1.08-1.12v-2.6a1.019 1.019 0 0 1 1.08-1.12h5.68a1.145 1.145 0 0 1 1.12 1.12v2.6c-.08.72-.44 1.12-1.12 1.12zm6.76 4.36a1.5 1.5 0 0 0 -.04.44c0 .92.44.92 2.08.92 1.56 0 2.04 0 2.04-.92 0-1-.08-2.04-.08-3.04v-6.08c0-.8.08-1.6.08-2.36 0-1.48-.92-1.72-2.16-1.72-.92 0-1.84.08-2.72.08h-6.16c-.92 0-1.84-.08-2.76-.08-1.2 0-2.12.24-2.12 1.64 0 .84.04 1.64.04 2.44v6.08c0 1-.08 2.04-.08 3.04 0 .92.52.92 2.04.92 1.6 0 2.08 0 2.08-.92 0-.16-.04-.32-.04-.48.04-.64.28-.88.92-.88h5.96c.64 0 .88.28.92.92zm-21.84-4a1 1 0 0 1 -1.12-1.08v-2.44c0-.68.4-1.04 1.12-1.12h1.24a1.145 1.145 0 0 1 1.12 1.12v2.44a1.06 1.06 0 0 1 -1.12 1.08zm2.28 4.36c0 .96.4 1 1.88 1 1.44 0 1.88-.04 1.88-.96 0-1-.08-2-.08-3v-4.92c0-.88.08-1.72.08-2.56 0-1.28-.72-1.68-1.92-1.68-.76 0-1.48.04-2.2.04h-2.76c-.76 0-1.56-.04-2.32-.04-1.2 0-1.92.4-1.92 1.72 0 .84.04 1.68.04 2.52v4.92c0 1-.04 2-.04 3 0 .92.4.96 2 .96s2-.04 2-.96v-.4a.808.808 0 0 1 .92-.92h1.52c.68 0 .92.28.92.92zm13.88-22.48c.16-.76.48-1 1.28-1h2.24c.76 0 1.08.36 1.08 1.12v2.28c0 .76-.32 1.08-1.08 1.08h-3.08c-.52 0-.92-.2-.92-.8v-.24zm8.48.32c0-.96.08-1.92.08-2.92 0-1.48-.68-1.8-2.04-1.8-1.04 0-2.04.04-3.04.04h-1.56c-.48 0-.92-.2-.92-.8 0-.08.04-.16.04-.24l.2-1.24c.12-.8.52-1 1.32-1h2.84c1.28 0 2.56.08 3.84.08.96 0 .96-.44.96-1.76s0-1.76-.96-1.76c-1.28 0-2.56.08-3.84.08h-8.36c-1.28 0-2.56-.08-3.84-.08-.96 0-.92.48-.92 1.76 0 1.24-.04 1.76.92 1.76 1.08 0 2.12-.12 3.2-.08a.778.778 0 0 1 .88.8v.28l-.24 1.2c-.16.72-.48.96-1.24 1-.56-.04-1.12-.08-1.72-.08-.84 0-.88.28-.88 1.76 0 1.44 0 1.76.84 1.76a9.748 9.748 0 0 0 1.08-.04c.48.04.88.24.88.8v.2l-.44 2.4c-.2.72-.48 1-1.24 1.04-.6-.04-1.16-.08-1.72-.08-1 0-.96.56-.96 1.84 0 1.36-.04 1.84.96 1.84 1.32 0 2.64-.08 3.96-.08h10.56c1.32 0 2.68.08 4 .08.96 0 .96-.52.96-1.84 0-1.28.04-1.84-.96-1.84-.52 0-1.04.04-1.56.08-.76-.04-1.08-.36-1.08-1.12zm19.24-11.72c-.44 0-.64.12-.64.56 0 .28.04.76.04 1.24 0 1.76-.16 4.16-.16 5.24a2.6 2.6 0 0 1 -.2 1.2c-.48.96-5.56 1.84-6.76 2-.48.08-1.32.08-1.32.72a11.819 11.819 0 0 0 .84 2.72c.2.52.52 1.12 1.16 1.12a27.648 27.648 0 0 0 4.84-1.64 2.428 2.428 0 0 1 .72-.2c.36 0 .52.28.52.6s-.08.68-.08 1.04a3.758 3.758 0 0 1 -.48 1.88c-1.84 3.32-3.72 6.6-5.88 9.76a4.273 4.273 0 0 0 -.8 1.44c0 .68 2.32 2.64 3 2.64.24 0 .4-.24.52-.48.4-.76 1.64-2.92 2.08-3.64.4-.6.68-1.2.96-1.2s.36.32.36.52c0 1.8-.24 6.24-.24 6.6 0 .8.72.8 1.68.8 2.96 0 2.92-.4 2.92-.68 0-.44-.12-2.6-.2-4.24-.04-.68-.12-1.88-.12-2.12 0-.92-.16-5.8 0-6.32a13.361 13.361 0 0 1 2.24-2.56 40.266 40.266 0 0 1 4.36-3.88c.84-.64 2-1.6 3.12-1.6 1.2 0 1.2 1.4 1.2 2.28 0 3.6-.52 7.24-.52 10.84 0 2.52.32 6.4 3.68 6.4 2 0 4.04-1.16 5.64-2.32.44-.32 1.92-1.36 1.92-1.92 0-.64-1.16-3.64-1.84-3.64a1.146 1.146 0 0 0 -.76.44c-.72.8-2.44 2.52-3.52 2.52-.92 0-.88-1.4-.88-2.36 0-1.68.12-3.48.2-5.2.12-2.04.2-4.12.2-6.2a7.275 7.275 0 0 0 -.72-3.8 4.319 4.319 0 0 0 -3.44-1.76c-2.2 0-4.2 1.44-5.8 2.84-.96.8-2.56 2.24-3.4 3.12-.08.08-.2.2-.32.2-.24 0-.32-.2-.32-.4a3.109 3.109 0 0 1 .08-.64c.12-.28.88-1.68 1.08-1.96.08-.12.24-.28.24-.44a2.866 2.866 0 0 0 -1.36-1.84c-.36-.12-.64-.24-.64-.68 0-.56.28-2.52.36-3.2.24-1.64.2-1.76.72-2.2a.9.9 0 0 0 .32-.6c0-.24-.24-.36-.44-.44-.4-.12-3.72-.56-4.16-.56zm46.68 27.88c0 .64-.32 1.36-1.08 1.36-1.2 0-3.12-.68-3.12-2.12a1.657 1.657 0 0 1 1.72-1.6 2.444 2.444 0 0 1 2.48 2.36zm3.72-25.92a5.457 5.457 0 0 0 -1.52.44c-2.32.92-7.56 1.48-10.12 1.48h-.96c-1.2 0-1.24.08-1.24 1 0 .68.12 3.68 1 3.68.64 0 6.28-1.16 7.24-1.4a9.6 9.6 0 0 1 .96-.16c.32 0 .68.12.68.48 0 .4-.72 1.12-1.04 1.44a160.286 160.286 0 0 1 -12.44 12.56c-.36.28-.96.72-.96 1.2 0 .64 2.04 2.88 2.88 2.88a.543.543 0 0 0 .44-.28c1.44-1.64 2.88-3.28 4.44-4.8a12.143 12.143 0 0 1 8.96-3.92c3.48 0 6.76 1.6 6.76 5.48 0 4.04-3.8 6.16-4.84 6.16-.32 0-.44-.24-.48-.52a3.978 3.978 0 0 0 -.72-2.56 6.525 6.525 0 0 0 -5.32-2.84 5.023 5.023 0 0 0 -5.12 4.84c0 4.08 4.72 5.44 8.04 5.44 6.44 0 12.72-3.68 12.72-10.76a8.267 8.267 0 0 0 -4.76-7.76 11.731 11.731 0 0 0 -4.92-1.2 7.6 7.6 0 0 0 -1.64.16 2.341 2.341 0 0 1 -.52.08c-.36 0-.68-.2-.68-.52a1.2 1.2 0 0 1 .4-.68 38.737 38.737 0 0 1 5.8-5.36c.44-.32.88-.56.88-.84 0-.68-2.32-3.72-3.92-3.72zm24.88 22.44a3.518 3.518 0 0 1 3.56 3.56 3.568 3.568 0 0 1 -3.56 3.56 3.568 3.568 0 0 1 -3.56-3.56 3.568 3.568 0 0 1 3.56-3.56zm0-2a5.548 5.548 0 0 0 -5.56 5.56 5.6 5.6 0 0 0 5.56 5.56 5.574 5.574 0 0 0 5.56-5.56 5.548 5.548 0 0 0 -5.56-5.56zm-188.88 22.76a15.1 15.1 0 0 0 -2-.64c-.4 0-.48.36-.6.8-.32 1.16-1.2 4-1.56 5.36-.12.44-.28.96-.92.96a1.232 1.232 0 0 1 -.52-.12 24.978 24.978 0 0 1 -2.72-1.4 2.174 2.174 0 0 0 -.92-.44c-.84 0-1.48 2.76-1.48 3.44 0 .72.8 1.08 3.6 2.16.56.2 1.28.44 1.28 1.32a8.275 8.275 0 0 1 -.16.88c-.12.6-.28 1.12-.36 1.56-.24 1.16-.36 1.72-1.04 1.72a7.257 7.257 0 0 1 -2.56-1.12 2.2 2.2 0 0 0 -1-.4c-1 0-1.4 3.16-1.4 3.4 0 .52.32.72.76.96a13.281 13.281 0 0 0 2.36.96c.92.28 1.6.52 1.6 1.4 0 .4-.16 1.92-.16 2.92 0 6.08 3.56 9.56 9.6 9.56 5.32 0 11.04-2.16 11.04-8.36a21.928 21.928 0 0 0 -1.32-7c-.32-.88-.44-1.52-1.08-1.52-.44 0-3.4.52-3.4 1.48a2.105 2.105 0 0 0 .16.72 17.288 17.288 0 0 1 1.36 5.8 4.026 4.026 0 0 1 -.88 2.84c-1.24 1.4-4 1.88-5.8 1.88-3.48 0-5.32-1.84-5.32-5.32 0-1.72 0-2.72 1.08-2.72a3.988 3.988 0 0 1 .64.08c.96.12 2.84.4 3.76.4.68 0 .92-.32 1.12-.92a8.847 8.847 0 0 0 .52-2.68c0-.4-.12-.68-1.2-.68-1.2 0-2.4-.04-3.6-.16-.56-.04-1.4-.08-1.4-.92 0-.32.56-2.84.68-3.32.16-.52.44-.96 1.08-.96a1.168 1.168 0 0 1 .36.08 50.262 50.262 0 0 0 5.44.6c.56 0 .72-.32.88-.88a11.79 11.79 0 0 0 .44-2.6c0-.8-.6-.76-1.36-.76-1.36-.04-2.72-.16-4.08-.32-.56-.08-1.08-.24-1.08-.92a1.412 1.412 0 0 1 .12-.56c.32-.96.64-1.96 1-2.92.56-1.44.84-1.48 1.4-1.76.2-.12.36-.24.36-.44 0-.64-2.04-1.2-2.72-1.44zm33.28 3.84c0 .64.88.84 2.56 1.28a84.559 84.559 0 0 0 9.2 1.8c.64 0 .88-.4 1.08-1.2a17.23 17.23 0 0 0 .4-2.44c0-.6-.44-.6-1-.64-2.76-.28-7.48-.92-10-2a1.4 1.4 0 0 0 -.64-.24c-.48 0-.64.4-.8.76a9.372 9.372 0 0 0 -.8 2.68zm7.6 5c-3.72 0-7.48 1.48-10.68 3.24-.48.24-1.2.6-1.2 1.24 0 .92 1.28 3.8 2.24 3.8a1.814 1.814 0 0 0 .84-.4c2.48-2.08 5.2-3.76 8.56-3.76a5.157 5.157 0 0 1 5.56 5.52c0 5.56-5.92 9.92-10.72 11.44-.36.12-.8.28-.8.68 0 .64 1.64 3.36 2.84 3.36a11.786 11.786 0 0 0 3.44-1.48c5.08-3.08 9.72-8.04 9.72-14.32 0-5.88-4.12-9.32-9.8-9.32zm50.28 10.2c1.8 0 3.56.12 5.36.12 1.12 0 1.04-.6 1.04-2.36 0-1.72.08-2.36-1.04-2.36-1.76 0-3.56.12-5.36.12h-21.76c-1.8 0-3.6-.12-5.36-.12-1.12 0-1.04.68-1.04 2.36 0 1.72-.08 2.36 1.04 2.36 1.76 0 3.56-.12 5.36-.12zm35 3.64c.64 0 1.16.04 1.16.36 0 .64-2.76 2.64-3.36 3.04a1.62 1.62 0 0 1 -.84.28 1.439 1.439 0 0 1 -.88-.36 19.7 19.7 0 0 1 -2.36-2.48.719.719 0 0 1 -.16-.36c0-.36.28-.44.6-.48zm-2.32 8.4a33.768 33.768 0 0 0 11.32 3.24c.28 0 .96.12 1.24.12 1.08 0 1.6-1.92 1.6-2.8 0-1.04-.4-.96-1.76-1.04a30.092 30.092 0 0 1 -8.6-1.68.552.552 0 0 1 -.4-.52.624.624 0 0 1 .28-.52c1.2-.92 5.76-4.76 5.76-6.2a2.5 2.5 0 0 0 -2.56-2c-1.12 0-2.2.04-3.32.04h-10.92c-1.4 0-2.8-.08-4.2-.08-.84 0-.84.36-.84 1.56 0 1.12 0 1.56.8 1.56.56 0 1.16-.04 1.72-.04.64 0 .92.4 1.28.88a29.517 29.517 0 0 0 3.36 4.04.684.684 0 0 1 .28.52c0 .28-.2.44-.44.56a36.907 36.907 0 0 1 -8.16 1.64c-.6.04-1.4.04-1.4.84a6.285 6.285 0 0 0 .6 2.04c.28.64.52 1 1.32 1 2.64 0 8.72-2.08 11.24-3.16a2.416 2.416 0 0 1 .88-.24 1.753 1.753 0 0 1 .92.24zm1.28-18.84a1.118 1.118 0 0 1 1.12 1.12v.48a1.094 1.094 0 0 1 -1.12 1.12h-4.2a1.118 1.118 0 0 1 -1.12-1.12v-.48a1.145 1.145 0 0 1 1.12-1.12zm-13.2-9.68c-1.32 0-2.6-.08-3.92-.08s-2.2.28-2.2 1.8c0 1.16.08 2.28.08 3.44v5.16c0 6-.44 13.36-3.32 18.72a2.541 2.541 0 0 0 -.36.84c0 .92 2.16 2.04 2.96 2.04a.877.877 0 0 0 .72-.44 29.3 29.3 0 0 0 2.32-5.4c1.36-4.4 1.72-10.04 1.72-14.68v-.52c0-.76.28-1.12 1.08-1.16 1.04-.04 2.12-.04 3.16-.04h.56c.8 0 1.12.32 1.12 1.12v.76c0 .8-.04 1.56-.04 2.36 0 1.2.6 1.44 1.84 1.44 1.16 0 2.36-.08 3.56-.08h3.68c1.12 0 2.24.08 3.36.08 1.48 0 1.8-.44 1.8-1.48 0-.8-.04-1.56-.04-2.32v-.76c0-.8.32-1.12 1.12-1.12h1.36c1.6 0 3.16.08 4.76.08.84 0 .8-.48.8-1.6 0-1.16.04-1.64-.8-1.64-1.6 0-3.16.12-4.76.12h-1.36c-.52 0-1.04-.24-1.04-.84a.928.928 0 0 1 .36-.84c.28-.16.52-.28.52-.52 0-.36-.68-.4-.96-.4-.96-.04-2.2-.16-3.12-.16-.36 0-.8 0-.8.48 0 .08.04.24.04.32a4.561 4.561 0 0 1 .08 1.04c0 .68-.48.92-1.08.92h-4.2c-.52 0-1.08-.24-1.08-.84a.938.938 0 0 1 .4-.88c.24-.16.48-.24.48-.48 0-.28-.36-.36-.6-.4-.48-.04-3.2-.16-3.72-.16-.32 0-.72 0-.72.44 0 .12.04.24.04.36a8.447 8.447 0 0 1 .08 1.04c0 .68-.48.92-1.08.92h-.56c-1.08 0-2.12-.04-3.2-.08-.76-.04-1.04-.36-1.04-1.12v-.92c0-.8.32-1.12 1.12-1.12h20.8c1.56 0 3.16.08 4.72.08 1 0 .96-.4.96-1.8s.04-1.76-.96-1.76c-1.56 0-3.16.08-4.72.08h-8.04c-.72 0-1.08-.28-1.08-1.04 0-.64 0-1.04.48-1.36.36-.24.56-.32.56-.64 0-.44-.56-.52-.92-.56-.6-.04-3.32-.24-3.8-.24-.4 0-.76.08-.76.56 0 .12.04.24.04.36.08.6.12 1.24.16 1.84-.04.8-.36 1.08-1.12 1.08zm31.76 23.72c0 .36.44.6.72.76a24.636 24.636 0 0 1 6.08 5.44c.2.24.48.6.8.6.92 0 2.92-2.2 2.92-3.08 0-1-6.88-6.52-7.8-6.52-.68 0-2.72 2.12-2.72 2.8zm-138.12 19.36a2.929 2.929 0 0 0 -.92.36c-1.88.88-8.72 1.84-11 2.04-.72.08-1.12.12-1.12.88s.52 3.68 1.52 3.68a3.793 3.793 0 0 0 .92-.2c.6-.16 4.76-1.28 5.08-1.28a.327.327 0 0 1 .36.32.742.742 0 0 1 -.28.48c-3.16 2.92-7.28 6.84-10.64 9.44a5.067 5.067 0 0 1 -2.56 1.2c-1.32.32-1.84.36-1.84.96 0 .76.72 3.52 1.64 3.52a3.369 3.369 0 0 0 1.08-.32c1.6-.64 5.44-1.92 7.08-2.4.44-.12 2.52-.72 2.8-.72a.384.384 0 0 1 .4.36.477.477 0 0 1 -.2.36c-1.92 1.72-3.48 3.48-3.48 6.24 0 3.44 2.6 5.6 5.56 6.72a19.661 19.661 0 0 0 5.36 1.24 1.137 1.137 0 0 0 1.2-.8 15.56 15.56 0 0 0 .72-2.92c0-.52-.4-.52-.8-.56-2.56-.16-7.76-.64-7.76-4.12 0-2.92 3.12-5.4 5.4-6.76a22.022 22.022 0 0 1 8.24-2.72c1.2-.16 1.6-.16 1.6-.92 0-.36-.32-2.72-.4-3.08-.08-.24-.24-.6-.56-.6a2.008 2.008 0 0 0 -.48.08c-1.4.44-14.72 4-15.2 4a.323.323 0 0 1 -.36-.28c0-.24.28-.48.44-.64 1.88-1.52 8.12-7.16 9.6-8 .84-.48 1.64-.84 1.64-1.4 0-.92-1.84-4.16-3.04-4.16zm19.6 27.16c-.04.08-.72 1.72-.72 1.76 0 .68 3.2 1.84 3.84 1.84.68 0 .76-.72.88-1.24a27.7 27.7 0 0 1 3.68-8.4 11.878 11.878 0 0 1 4.08-3.64 7.451 7.451 0 0 1 3.44-1.12c1.16 0 1.52.8 1.52 1.84a18.019 18.019 0 0 1 -.44 3.24 25.756 25.756 0 0 0 -.52 4.64c0 2.52 1.16 4.96 4 4.96 3.12 0 5.84-2.2 8.04-4.2.96-.88 1.88-1.8 2.8-2.72a1.543 1.543 0 0 0 .44-.88c0-.56-1.36-3.72-2.08-3.72-.32 0-.6.32-.8.56-1.24 1.76-5.04 6.6-7.28 6.6-.8 0-1.04-.84-1.04-1.52a22.861 22.861 0 0 1 .64-3.92 21.051 21.051 0 0 0 .52-3.88 6.692 6.692 0 0 0 -.44-2.52 4.753 4.753 0 0 0 -4.24-2.36 8.991 8.991 0 0 0 -4.24 1.36 1.6 1.6 0 0 1 -.72.28.43.43 0 0 1 -.4-.4c0-.56 3.48-5.64 4.04-6.4a39.658 39.658 0 0 1 2.52-3.28 1.73 1.73 0 0 1 1.04-.52c.36-.04.72-.2.72-.64s-1.44-1.44-1.84-1.72a10.091 10.091 0 0 0 -2.24-1.52c-.28 0-.48.4-.6.6-.52.96-1.04 1.8-1.64 2.76a123.69 123.69 0 0 0 -8.36 14.12c-1.64 3.32-3.12 6.68-4.6 10.04zm55.84-1.48c2 0 2.04.44 2.04 1.24 0 1.4-.64 2.16-2.08 2.16-1.04 0-2.64-.64-2.64-1.88 0-1.28 1.72-1.52 2.68-1.52zm1.96-14.12c-.6 0-.96.24-.96.88 0 .2.04.36.04.56.12 1.56.72 7.36.72 8.64 0 .48-.36.68-.84.68h-1.04c-3.16 0-6.64 1.28-6.64 4.96 0 3.72 3.8 5.44 7.04 5.44 2.72 0 5.08-1 5.56-3.92.04-.36.2-.92.64-.92.64 0 2.6 1.4 3.2 1.84.28.2.64.56 1.04.56 1 0 2.48-2.28 2.48-2.92 0-.96-4.72-3.16-5.64-3.52-.12-.04-.28-.12-.4-.16-.6-.24-1.12-.4-1.24-1-.2-.84-.4-6.6-.4-7.76 0-.84.08-2.04.08-2.12 0-.48-.36-.72-.8-.84a16.748 16.748 0 0 0 -2.84-.4zm6.12-6.16c-.84 0-2.68 2.2-2.68 2.76 0 .28.36.52.52.64a22.667 22.667 0 0 1 5 5.16c.2.28.48.72.88.72.72 0 3-1.8 3-2.76 0-1.04-5.72-6.52-6.72-6.52zm-13.44-6.52c-.36 0-.36.4-.36.68 0 1.28-.68 5.72-1.28 6.72-.32.52-.68.56-1.2.64a35.519 35.519 0 0 1 -4.12.2h-1.84c-.44 0-.72.12-.72.64 0 .4.2 1.84.28 2.32.16.92.32 1.28 1 1.28.92 0 4-.4 4.32-.4a.538.538 0 0 1 .56.52 15.638 15.638 0 0 1 -.92 2.44 74.69 74.69 0 0 1 -4.76 9.24 4.425 4.425 0 0 0 -.72 1.44c0 .84 2.68 2 3.56 2 .44 0 .56-.16.8-.56a101.78 101.78 0 0 0 6.52-14.24c.48-1.32.44-1.6 1.88-1.84 3.68-.68 4.16-.76 4.16-1.64a18.992 18.992 0 0 0 -.2-2.12c-.08-.48-.12-1.2-.6-1.2a1.421 1.421 0 0 0 -.4.08 19.357 19.357 0 0 1 -2.28.6.466.466 0 0 1 -.44-.52 12.967 12.967 0 0 1 .44-1.8 6.978 6.978 0 0 1 .72-2.12c.36-.28.64-.44.64-.72s-.44-.4-.64-.48c-.64-.2-3.96-1.16-4.4-1.16zm33.4 10.64c-1.56 0-3.36-.08-4.52-.08-.96 0-1 .52-1 2.44 0 1 .04 1.84 1.04 1.84 1.32 0 2.92-.12 4.48-.12h1.24a1.067 1.067 0 0 1 1.08 1.04v3.84c0 1.28-.08 2.56-.08 3.84 0 1.04.48 1 1.88 1 2.4 0 2.6.16 2.6-1.6 0-1.12-.08-2.2-.08-3.32v-3.8a1.025 1.025 0 0 1 1.04-1h6.96c.76 0 1.04.6 1.04 1.28 0 8-1.4 11.32-9 14.48-.28.12-.64.32-.64.64 0 .64 2.32 2.92 2.92 2.92.68 0 3.36-1.6 4-2.04 6.24-4.12 6.92-8.96 7.04-15.92 0-.52 0-1.36 1.24-1.36h1.08c1.52 0 3.04.08 4.6.08 1 0 1.12-.36 1.12-2.36 0-1.56-.28-1.88-1-1.88-.84 0-3.48.08-4.72.08h-1.08c-.8 0-1.16-.44-1.16-1.24v-.24c0-.4-.04-.8-.04-1.2v-1.52a12.785 12.785 0 0 1 .24-3.36c.28-.28.44-.44.44-.64 0-.36-.56-.36-1.24-.44-.64-.04-2.88-.28-3.44-.28a.5.5 0 0 0 -.52.48c0 .16.04.32.04.48.08 1.2.16 5.36.16 6.8 0 .8-.44 1.16-1 1.16h-7.04a1.033 1.033 0 0 1 -1.04-1.04v-2.76c0-2.6-.04-2.92.48-3.56a.68.68 0 0 0 .24-.4c0-.36-.84-.48-1.84-.56a28.956 28.956 0 0 0 -2.96-.2c-.28 0-.4.12-.4.4 0 .04.16 2.16.16 4.4v2.72c0 .76-.72 1-1.36 1zm59-.56a1.146 1.146 0 0 1 1.2 1.16v11.76a1.2 1.2 0 0 1 -1.2 1.2h-15.52a1.2 1.2 0 0 1 -1.2-1.2v-11.76a1.17 1.17 0 0 1 1.2-1.16zm-15.44-4.12c-1.08 0-2.2-.04-3.28-.04-1.6 0-2.4.4-2.4 2.08 0 1.2.04 2.4.04 3.6v13.56c0 1.4-.08 2.8-.08 4.2 0 1.44.32 1.44 2.2 1.44 2.4 0 2.28-.2 2.32-1.32.08-1.16.6-1.2 1.96-1.2h13.84c1.4 0 1.84.04 1.92 1.2.08 1.12 0 1.32 2.32 1.32 1.88 0 2.24 0 2.24-1.4s-.08-2.84-.08-4.24v-13.56c0-1.16.04-2.36.04-3.56 0-1.84-.92-2.12-2.56-2.12-1.04 0-2.08.04-3.12.04zm62.08 3.52a.982.982 0 0 0 -.68.44c-5.68 7.24-15.68 14.8-24.52 17.4-.52.16-1.24.24-1.24.68a11.21 11.21 0 0 0 1.2 2.4c.28.48 1.12 2.08 1.56 2.08a.4.4 0 0 0 .4-.24c.32-.68.36-.72 1.68-1.36a69.485 69.485 0 0 0 21.72-15.08c.52-.52 2.12-2.08 2.12-2.76 0-.6-1.44-3.56-2.24-3.56zm-23.64-6.4c-.92 0-2.52 2.56-2.52 3.16 0 .36.32.56.64.76a49.887 49.887 0 0 1 5.32 3.72 4.277 4.277 0 0 0 1.6 1.08c.76 0 2.64-2.16 2.64-3.08 0-.6-1.92-1.92-2.44-2.28-.76-.56-4.6-3.36-5.24-3.36zm33.44 4.48a17.917 17.917 0 0 0 .44 2.88c.12.44.32 1.32.88 1.32a3.088 3.088 0 0 0 .6-.08c2.56-.68 6.16-1.24 8.84-1.64.4-.04 2.24-.36 2.52-.36s.6.12.6.48c0 .2-.24.48-.68.96a17.766 17.766 0 0 0 -4.4 11.48c0 7.8 5.84 9.96 12.64 9.96.68 0 1-.08 1.28-.68a11.32 11.32 0 0 0 .6-3.28c0-.64-.32-.68-.92-.68-.44 0-1.32.04-2 .04-4.08 0-7.04-1.12-7.04-5.76a14.976 14.976 0 0 1 1.92-7.04 12.156 12.156 0 0 1 6.8-5.96 19.814 19.814 0 0 1 6.64-.84c.96-.04 1.8.04 1.8-.84a18.2 18.2 0 0 0 -.36-2.92c-.08-.48-.16-1-.76-1a2.281 2.281 0 0 0 -.52.04c-3 .48-6.04.88-9.08 1.24-5.8.68-11.64 1.28-17.48 1.64-1.76.12-2.32 0-2.32 1.04zm30.24 2.32c-.48 0-2.04 1.04-2.04 1.52a.956.956 0 0 0 .28.52 33.841 33.841 0 0 1 2.6 3.32c.16.2.32.52.6.52.48 0 2.04-1.12 2.04-1.68 0-.48-3.08-4.2-3.48-4.2zm-4.84 2.2c-.44 0-2.04 1-2.04 1.48 0 .2.24.44.36.56.88 1.08 1.76 2.2 2.56 3.36.16.2.28.48.56.48.44 0 2.04-1.08 2.04-1.68 0-.48-3.04-4.2-3.48-4.2zm25.84 5.68a.924.924 0 0 1 .96.96v.56a.9.9 0 0 1 -.96.96h-.56a.9.9 0 0 1 -.96-.96v-.56a.924.924 0 0 1 .96-.96zm3.68.96a.924.924 0 0 1 .96-.96h.52a.893.893 0 0 1 .92.96v.56a.873.873 0 0 1 -.92.96h-.52a.9.9 0 0 1 -.96-.96zm-2.72-4.28a.924.924 0 0 1 -.96.96h-.56a.924.924 0 0 1 -.96-.96v-.52a.924.924 0 0 1 .96-.96h.56a.924.924 0 0 1 .96.96zm3.68.96a.924.924 0 0 1 -.96-.96v-.52a.924.924 0 0 1 .96-.96h.52a.893.893 0 0 1 .92.96v.52a.893.893 0 0 1 -.92.96zm-.56-11.08c0-.84.28-1.12 1.04-1.32.36-.08 2.56-.56 2.68-.56a1.438 1.438 0 0 1 .44.08 1.344 1.344 0 0 0 .56.2.438.438 0 0 0 .44-.4 5.4 5.4 0 0 0 -.56-1.28c-.76-1.44-1.04-1.84-1.36-1.84a1.271 1.271 0 0 0 -.36.12 22.919 22.919 0 0 1 -4.64 1.04c-1.16.16-2 .24-2.76.28-.88.04-1.6.08-2.52.2a.649.649 0 0 1 -.36-.2 16.445 16.445 0 0 0 -3.88-1.16c-.52 0-.6.64-.72 1.16a41 41 0 0 1 -5.76 14.16 2.594 2.594 0 0 0 -.64 1.28 1.675 1.675 0 0 0 .32.84c.84 1.16 1.32 1.88 1.84 1.88.32 0 .8-.36 1.52-1.52a.4.4 0 0 1 .28-.16c.16 0 .24.16.24.32v11.68c0 1.64-.08 3.28-.08 4.92 0 1.16.32 1.2 1.84 1.2 1.44 0 1.8-.04 1.8-1.2 0-1.64-.08-3.28-.08-4.92v-15.36c0-1.4.04-2.12.48-2.44.2-.16.44-.28.44-.52 0-.4-.48-.48-.76-.48-.2-.04-.32-.16-.32-.32 0-.08 0-.08.04-.12a49.329 49.329 0 0 0 2.32-7.12 4.835 4.835 0 0 1 .32-1 .4.4 0 0 1 .28-.16c.2 0 .32.24.36.4.32 1.4.64 1.84 1.4 1.84a13.012 13.012 0 0 0 1.76-.12.768.768 0 0 1 .88.88v.28c0 .64-.28.92-.96.92-1.2.04-2.4-.08-3.6-.08-.84 0-.8.52-.8 1.52 0 1.04-.04 1.48.84 1.48 1.16 0 2.36-.08 3.52-.08h.24c.56 0 .76.24.76.76v.36c0 .56-.24.76-.76.76h-.44c-.72 0-1.48-.04-2.24-.04-1.12 0-1.52.44-1.52 1.56 0 .72.04 1.4.04 2.08v4.96c0 .68-.04 1.4-.04 2.08 0 1.16.4 1.6 1.56 1.6.72 0 1.48-.08 2.2-.08h.44c.56 0 .76.24.76.76v.44c0 .52-.24.72-.76.72h-.68c-1.12 0-2.24-.04-3.4-.04-.76 0-.76.44-.76 1.4 0 .92-.04 1.48.72 1.48 1.16 0 2.32-.08 3.44-.08h.32c.8 0 1.12.36 1.12 1.12v.6c0 .76-.28 1.16-1.04 1.24-1.24.16-2.24.16-2.96.2-1.52.08-2.04.08-2.04.6a14.29 14.29 0 0 0 .52 2.2c.32 1.04.4 1.4.84 1.4.28 0 .36-.16.44-.4.12-.4.32-.48 1.16-.6 1.72-.24 3.44-.4 5.12-.64 1.48-.2 2.96-.4 4.44-.64.32-.04.56.08.56.4a.568.568 0 0 1 -.08.24 1.179 1.179 0 0 0 -.2.52c0 .76 1.96 1.64 2.68 1.64.44 0 .6-.36 1.12-1.28 3-5.44 4.48-14.96 4.48-21.16v-.6c0-.56.24-.92.88-.92 1.12 0 1.56.04 1.56 1.36 0 3.6-.32 13.12-1.04 16.36-.48 2.08-.8 2.2-2.64 2.2h-.96c-.68 0-.72.64-.72 1.28a9.02 9.02 0 0 0 .32 2.08c.24.68.64.76 2 .76a5.113 5.113 0 0 0 3.76-1.16c1.76-1.52 2.04-6.04 2.24-8.32.36-4.08.76-11.88.6-15.92-.04-1.68-.8-2.4-2.48-2.4-.8 0-1.6.08-2.4.04-.76 0-1.04-.36-1.04-1.08v-3.68c0-1.28.04-1.68.52-1.96.2-.16.44-.28.44-.56 0-.36-.32-.44-.6-.48-.56-.08-2.84-.24-3.4-.24-.44 0-.72.12-.72.6 0 .12.04.28.04.4q.12 1.38.12 2.76v3.28c0 .6-.28.88-.92.88h-.4c-.92 0-.88.52-.88 1.96 0 1.4-.04 1.92.88 1.92h.4c.6 0 .88.24.88.84-.2 6.4-.8 12.4-3.24 18.4a.208.208 0 0 1 -.16.08.147.147 0 0 1 -.16-.16c-.04-.52-.12-1.24-.76-1.24-.24 0-2.28.32-2.76.4h-.12c-.56 0-.76-.36-.76-.84v-.52c0-.68.28-.96.96-.96h.32c1.16 0 2.28.08 3.44.08.76 0 .76-.56.76-1.44 0-.92.04-1.44-.76-1.44-1.16 0-2.28.04-3.44.04h-.52c-.52 0-.76-.2-.76-.76v-.4a.662.662 0 0 1 .76-.76h.36c.76 0 1.52.08 2.28.08 1.16 0 1.52-.52 1.52-1.64 0-.68-.04-1.36-.04-2.04v-4.96c0-.68.04-1.36.04-2.08 0-1.16-.44-1.56-1.6-1.56-.72 0-1.48.04-2.2.04h-.36c-.52 0-.76-.2-.76-.76v-.36a.662.662 0 0 1 .76-.76h.56c1.2 0 2.36.08 3.56.08.88 0 .8-.52.8-1.48s.08-1.52-.8-1.52c-1.2 0-2.36.08-3.56.08h-.2c-.8 0-1.12-.32-1.12-1.12zm46.32-1.2c-.44-.44-1.6-1.8-2.12-1.8-.24 0-.44.28-.6.48a54.561 54.561 0 0 1 -7.48 7.08 38.869 38.869 0 0 0 -5.16 4.68 4.542 4.542 0 0 0 -.88 2.76 6.08 6.08 0 0 0 1.92 4.24c1.96 2.32 4.16 4.48 6.32 6.64 1.64 1.68 3.32 3.36 4.84 5.16.24.32.8 1.04 1.24 1.04.96 0 3.4-2.28 3.4-3.24 0-.8-2.76-3.04-3.44-3.64-2.48-2.2-4.96-4.44-7.24-6.88-.68-.72-2-2.16-2-3.16 0-.76.88-1.56 1.64-2.28 2.08-2 4.36-3.84 6.6-5.68q1.5-1.2 3-2.28a1.787 1.787 0 0 1 1.08-.48c.28 0 .84.04.84-.36 0-.44-1.6-1.92-1.96-2.28zm22.76 21.6a3.518 3.518 0 0 1 3.56 3.56 3.56 3.56 0 1 1 -3.56-3.56zm0-2a5.56 5.56 0 1 0 5.56 5.56 5.548 5.548 0 0 0 -5.56-5.56z" fill="#4a4a4a" transform="translate(10 35)"/></svg>