<svg xmlns="http://www.w3.org/2000/svg" xmlns:xlink="http://www.w3.org/1999/xlink" width="294.897" height="141.242" viewBox="0 0 294.897 141.242">
  <defs>
    <clipPath id="clip-path">
      <rect id="長方形_1893" data-name="長方形 1893" width="294.897" height="104" fill="#fff"/>
    </clipPath>
  </defs>
  <g id="mv_logo" transform="translate(-49.052 -446.186)">
    <g id="グループ_3909" data-name="グループ 3909" transform="translate(49.052 446.186)">
      <g id="グループ_3908" data-name="グループ 3908" clip-path="url(#clip-path)">
        <path id="パス_10060" data-name="パス 10060" d="M85.553,63.87a5.19,5.19,0,0,1-2.167-3.65,81.552,81.552,0,0,1-.406-10.4V15.361q0-8.392.568-10.627A4.353,4.353,0,0,1,85.8,1.679q1.679-.819,7.1-.82h1.571V0H68.649V.859h1.57q5.581,0,7.261.895a4.425,4.425,0,0,1,2.168,3.228,66.209,66.209,0,0,1,.487,10.38V49.815a69.673,69.673,0,0,1-.487,10.752,4.959,4.959,0,0,1-2.3,3.4q-1.815,1.093-6.529,1.091H68.649a11.869,11.869,0,0,1-5.771-1.713A9.5,9.5,0,0,1,59.817,59.6l-3.36-7.054L35.341,6.527,36.662,3.6h0A3.941,3.941,0,0,1,38.5,1.679q1.679-.819,7.1-.82h1.572V0H36.523L32.676,8.422h0l-1.658,3.63h0L15.6,45.792q-2.33,5.017-2.6,5.761Q9.642,59.45,7.26,61.909T0,65.062v.86H20.9v-.86A9.886,9.886,0,0,1,15.131,63.5,5.238,5.238,0,0,1,12.883,58.9q0-2.831,4.226-12.119l1.9-4.271h27.9l5.635,12.467q2.492,5.412,2.493,6.507a2.78,2.78,0,0,1-1.869,2.855q-1.871.72-7.179.72v.86H94.467v-.86H92.3q-4.986,0-6.747-1.192M20.036,40.279l12.99-28.618L45.989,40.279Z" fill="#fff"/>
        <path id="パス_10061" data-name="パス 10061" d="M278.245,67.82a5.194,5.194,0,0,1-2.168-3.65,111.741,111.741,0,0,1-.406-11.83V44.219c0-5.595.19-10.563.569-12.053a4.348,4.348,0,0,1,2.248-3.055q1.679-.819,7.1-.82h1.572v-.859H261.341v.859h1.57q5.58,0,7.261.895a4.425,4.425,0,0,1,2.167,3.228,90.967,90.967,0,0,1,.487,11.805V52.34a95,95,0,0,1-.487,12.178,4.956,4.956,0,0,1-2.3,3.4q-1.817,1.093-6.53,1.091h-4.334q-4.986,0-6.746-1.192a5.188,5.188,0,0,1-2.168-3.65c-.271-1.639-.406-8.68-.406-13.978v-.925l0,0c0-6.171.118-11.352-3.833-15.544S238.537,28,232.735,28c-4.9,0-8.17,1.1-11.463,3.986V27.433H207.128v.859h1.57q5.581,0,7.261.895a4.423,4.423,0,0,1,2.167,3.228,90.967,90.967,0,0,1,.487,11.805V52.34a95,95,0,0,1-.487,12.178,4.954,4.954,0,0,1-2.3,3.4q-1.817,1.093-6.53,1.091h-2.167v.86h80.031v-.86h-2.168q-4.986,0-6.746-1.192M244.19,49.267v.925c0,5.629-.162,12.785-.487,14.325a4.955,4.955,0,0,1-2.3,3.4q-1.815,1.093-6.529,1.091h-4.28q-4.986,0-6.746-1.192a5.194,5.194,0,0,1-2.168-3.65c-.224-1.362-.355-5.43-.393-9.316h-.013V49.266h.009c.026-7.027.488-13.181,2.643-16.166,2.181-3.02,4.7-4.242,8.812-4.242,4.14,0,6.671,1.232,8.836,4.268,2.138,3,2.594,9.145,2.62,16.14h0Z" transform="translate(-29.102 -3.95)" fill="#fff"/>
        <path id="パス_10062" data-name="パス 10062" d="M150.764,59.91H148.38c-1.95,5.96-6.5,9.794-13.653,9.794-5.311,0-10.831-2.659-13.449-6.269a25.187,25.187,0,0,1-4.861-15,22.078,22.078,0,0,1,4.591-13.906c2.439-3.08,7.632-5.475,12.473-5.475a8.669,8.669,0,0,1,5.473,1.714,8.273,8.273,0,0,1,2,4.307q.812,3.826,4.389,3.824a3.134,3.134,0,0,0,2.574-1.092,3.622,3.622,0,0,0,.893-2.334c0-2.217-1.607-3.813-4.822-5.352A24,24,0,0,0,133.427,28.1c-6.359,0-11.867,1.784-16.526,5.924a20.044,20.044,0,0,0-6.99,15.906c0,6.49,2.159,11.135,6.475,15.074s9.636,5.626,15.957,5.626c9.825,0,15.965-3,18.422-10.717" transform="translate(-15.443 -4.046)" fill="#fff"/>
        <path id="パス_10063" data-name="パス 10063" d="M334.041,59.91c-1.949,5.96-6.5,9.794-13.653,9.794-5.31,0-10.83-2.659-13.449-6.269a25.187,25.187,0,0,1-4.86-15,22.078,22.078,0,0,1,4.59-13.906c2.439-3.08,7.632-5.475,12.473-5.475a8.667,8.667,0,0,1,5.473,1.714,8.273,8.273,0,0,1,2,4.307q.813,3.826,4.389,3.824a3.133,3.133,0,0,0,2.574-1.092,3.623,3.623,0,0,0,.894-2.334c0-2.217-1.608-3.813-4.822-5.352A24.011,24.011,0,0,0,319.088,28.1c-6.359,0-11.866,1.784-16.526,5.924a20.046,20.046,0,0,0-6.989,15.906c0,6.49,2.158,11.135,6.475,15.074s9.636,5.626,15.957,5.626c9.824,0,15.964-3,18.422-10.717Z" transform="translate(-41.529 -4.046)" fill="#fff"/>
        <path id="パス_10064" data-name="パス 10064" d="M194.186,33.836c-4.552-4.2-8.615-5.737-15.3-5.737-6.646,0-10.69,1.525-15.241,5.712s-6.206,9.4-6.206,15.62c0,6.723,1.681,12.077,6.286,16.067s8.622,5.129,15.16,5.129,10.564-1.107,15.188-5.031,6.314-9.312,6.314-16.166c0-6.191-1.655-11.389-6.2-15.595m-4.432,32.157c-2.511,2.9-6.133,3.775-10.865,3.775-4.623,0-8.218-.877-10.782-3.775s-3.847-9.1-3.847-16.313c0-7.185,1.254-13.432,3.765-16.463s6.132-4.26,10.863-4.26c4.768,0,8.4,1.239,10.892,4.285s3.739,9.284,3.739,16.437c0,7.218-1.256,13.416-3.765,16.313" transform="translate(-22.121 -4.046)" fill="#fff"/>
        <path id="パス_10065" data-name="パス 10065" d="M284.789,5.334a2.7,2.7,0,0,0,1.929-.751,2.41,2.41,0,0,0,.792-1.816,2.384,2.384,0,0,0-.792-1.792,2.7,2.7,0,0,0-1.929-.751,2.746,2.746,0,0,0-1.942.751,2.368,2.368,0,0,0-.806,1.792,2.393,2.393,0,0,0,.806,1.816,2.746,2.746,0,0,0,1.942.751" transform="translate(-39.627 -0.032)" fill="#fff"/>
        <path id="パス_10066" data-name="パス 10066" d="M130.043,103.66a5.585,5.585,0,0,0-2.112-.366,6.365,6.365,0,0,0-2.446.423,7.988,7.988,0,0,0-1.6.845l.872,1.313q.245-.177.67-.423a4.793,4.793,0,0,1,1.04-.423,4.949,4.949,0,0,1,1.374-.178,4.372,4.372,0,0,1,.894.089,2.335,2.335,0,0,1,.749.289,1.376,1.376,0,0,1,.5.545,1.9,1.9,0,0,1,.179.879v.758H126.5a3.281,3.281,0,1,0,0,6.562h2.175a3.276,3.276,0,0,0,2.034-.728l1.248.508v-7.345a2.791,2.791,0,0,0-.5-1.691,3.167,3.167,0,0,0-1.409-1.058m.124,7.033h-.008a1.5,1.5,0,0,1-1.486,1.493H126.5a1.493,1.493,0,0,1,0-2.986h3.668Z" transform="translate(-17.312 -14.873)" fill="#fff"/>
        <path id="パス_10067" data-name="パス 10067" d="M160.017,104.577a5.252,5.252,0,0,0-.817-.594,5.67,5.67,0,0,0-5.418,0,5.14,5.14,0,0,0-1.912,1.892,5.748,5.748,0,0,0,0,5.509,5.107,5.107,0,0,0,1.912,1.9,5.67,5.67,0,0,0,5.418,0,5.207,5.207,0,0,0,.817-.6v.841a3.955,3.955,0,0,1-.5,2.1,3.124,3.124,0,0,1-1.263,1.19,3.427,3.427,0,0,1-1.542.379,3.7,3.7,0,0,1-1.743-.389,2.94,2.94,0,0,1-1.141-1.025l-1.563.958a4.305,4.305,0,0,0,1.8,1.569,6.025,6.025,0,0,0,2.648.556,5.275,5.275,0,0,0,2.457-.6,4.816,4.816,0,0,0,1.9-1.792,5.492,5.492,0,0,0,.738-2.948V103.517h-1.788Zm-.48,5.95a3.463,3.463,0,0,1-1.251,1.3,3.628,3.628,0,0,1-3.6,0,3.463,3.463,0,0,1-1.251-1.3,3.834,3.834,0,0,1-.458-1.893,3.9,3.9,0,0,1,.458-1.9,3.352,3.352,0,0,1,1.251-1.3,3.7,3.7,0,0,1,3.6,0,3.352,3.352,0,0,1,1.251,1.3,3.906,3.906,0,0,1,.457,1.9,3.843,3.843,0,0,1-.457,1.893" transform="translate(-21.24 -14.873)" fill="#fff"/>
        <path id="パス_10068" data-name="パス 10068" d="M189.906,103.983a5.67,5.67,0,0,0-5.418,0,5.14,5.14,0,0,0-1.912,1.892,5.748,5.748,0,0,0,0,5.509,5.107,5.107,0,0,0,1.912,1.9,5.67,5.67,0,0,0,5.418,0,5.132,5.132,0,0,0,1.9-1.9,5.736,5.736,0,0,0,0-5.509,5.165,5.165,0,0,0-1.9-1.892m.336,6.544a3.463,3.463,0,0,1-1.251,1.3,3.628,3.628,0,0,1-3.6,0,3.463,3.463,0,0,1-1.251-1.3,3.834,3.834,0,0,1-.458-1.893,3.9,3.9,0,0,1,.458-1.9,3.352,3.352,0,0,1,1.251-1.3,3.7,3.7,0,0,1,3.6,0,3.352,3.352,0,0,1,1.251,1.3,3.906,3.906,0,0,1,.457,1.9,3.843,3.843,0,0,1-.457,1.893" transform="translate(-25.554 -14.873)" fill="#fff"/>
        <path id="パス_10069" data-name="パス 10069" d="M103.172,103.983a5.666,5.666,0,0,0-5.419,0,5.214,5.214,0,0,0-.8.579v-1.046h-1.81v10.238h1.81v-5.119a3.9,3.9,0,0,1,.458-1.9,3.354,3.354,0,0,1,1.251-1.3,3.7,3.7,0,0,1,3.6,0,3.366,3.366,0,0,1,1.251,1.3,3.9,3.9,0,0,1,.457,1.9v5.119h1.81v-5.119a5.359,5.359,0,0,0-.7-2.76,5.153,5.153,0,0,0-1.9-1.892" transform="translate(-13.367 -14.873)" fill="#fff"/>
        <path id="パス_10070" data-name="パス 10070" d="M245.014,103.66a5.585,5.585,0,0,0-2.112-.366,6.365,6.365,0,0,0-2.446.423,7.988,7.988,0,0,0-1.6.845l.872,1.313q.245-.177.67-.423a4.792,4.792,0,0,1,1.04-.423,4.949,4.949,0,0,1,1.374-.178,4.372,4.372,0,0,1,.894.089,2.336,2.336,0,0,1,.749.289,1.376,1.376,0,0,1,.5.545,1.9,1.9,0,0,1,.179.879v.758H241.47a3.281,3.281,0,1,0,0,6.562h2.175a3.276,3.276,0,0,0,2.034-.728l1.248.508v-7.345a2.791,2.791,0,0,0-.5-1.691,3.167,3.167,0,0,0-1.409-1.058m.124,7.033h-.008a1.5,1.5,0,0,1-1.486,1.493H241.47a1.493,1.493,0,0,1,0-2.986h3.668Z" transform="translate(-33.466 -14.873)" fill="#fff"/>
        <path id="パス_10071" data-name="パス 10071" d="M215.175,110.491l-3.7-6.937h-2.051l4.729,8.857-3.35,6.276h2.051l8.079-15.133h-2.051Z" transform="translate(-29.424 -14.911)" fill="#fff"/>
      </g>
    </g>
    <path id="パス_10125" data-name="パス 10125" d="M6.512-7.854,11.022,0h3.652V-.726c-1.782.066-1.98-.66-2.794-2.068L8.932-8.052c2.112-.264,4.136-1.782,4.136-4.026,0-3.146-3.3-4.026-5.874-4.026H.726v.726c2.156,0,2.046,1.276,2.046,3.058v8.58C2.772-1.3,2.464-.726.726-.726V0H7V-.726C5.258-.726,4.95-1.3,4.95-3.74V-7.854ZM4.95-12.98c0-1.65.044-2.4,1.892-2.4,1.98,0,3.916,1.122,3.916,3.3,0,2.53-2.442,3.652-4.664,3.5H4.95ZM28.4-11.506h-.616c-.154,2.376-1.562,2.75-3.63,2.75h-.9V-12.87c0-2.156.132-2.508,2.376-2.508,3.234,0,3.96.792,5.9,3.366l.55-.33L30.536-16.1H19.03v.726c1.738,0,2.046.594,2.046,3.014V-3.74c0,2.442-.308,3.014-2.046,3.014V0H30.822L32.45-4.18l-.528-.22C29.722-1.628,29.084-.726,25.5-.726c-2,0-2.244-.44-2.244-2.222V-8.03h.9c1.738-.11,3.63.022,3.608,2.838H28.4Zm21.472-4.62a3.225,3.225,0,0,1-1.5.462,4.344,4.344,0,0,1-1.408-.33,5.072,5.072,0,0,0-1.826-.352,6.37,6.37,0,0,0-5.17,3.212,10.308,10.308,0,0,0-1.782,5.676c0,4.114,2.75,7.7,7.084,7.7,2.948,0,5.148-2,6.336-4.6L51.15-4.62C50.028-2.728,48.466-1.1,46.112-1.1c-3.762,0-5.39-4.29-5.39-7.458,0-2.948,1.034-6.886,4.686-6.886,2.068,0,4.2,2,5.39,3.564l.55-.264ZM63.162-7.854,67.672,0h3.652V-.726c-1.782.066-1.98-.66-2.794-2.068L65.582-8.052c2.112-.264,4.136-1.782,4.136-4.026,0-3.146-3.3-4.026-5.874-4.026H57.376v.726c2.156,0,2.046,1.276,2.046,3.058v8.58c0,2.442-.308,3.014-2.046,3.014V0h6.27V-.726C61.908-.726,61.6-1.3,61.6-3.74V-7.854ZM61.6-12.98c0-1.65.044-2.4,1.892-2.4,1.98,0,3.916,1.122,3.916,3.3,0,2.53-2.442,3.652-4.664,3.5H61.6ZM87.758-6.358c0,2.97-.4,5.72-4.048,5.7-3.454.022-4.026-2.618-4.026-5.522v-6.182c0-2.42.286-3.014,2.112-3.014V-16.1H75.57v.726c1.65,0,1.936.594,1.936,3.014v7.436c0,3.41,2.222,5.17,5.566,5.17,3.916,0,5.7-1.914,5.7-5.808v-6.8c0-2.42.286-3.014,2.046-3.014V-16.1H85.778v.726c1.694,0,1.98.594,1.98,3.014Zm12.76-6.006c0-2.42.308-3.014,2.09-3.014V-16.1H96.272v.726c1.76,0,2.068.594,2.068,3.014V-3.74c0,2.442-.308,3.014-2.068,3.014V0h6.336V-.726c-1.782,0-2.09-.572-2.09-3.014Zm15.092-.572c0-1.1-.286-2.442,1.21-2.442a6.161,6.161,0,0,1,5.06,3.586l.55-.242-1.54-4.07H108.2l-1.584,4.07.594.242c.946-1.87,2.772-3.586,5.016-3.586,1.5,0,1.21,1.342,1.21,2.442v9.2c0,2.442-.286,3.014-2.288,3.014V0h6.776V-.726c-2.024,0-2.31-.572-2.31-3.014Zm15.136.572c0-2.42.308-3.014,2.09-3.014V-16.1H126.5v.726c1.76,0,2.068.594,2.068,3.014V-3.74c0,2.442-.308,3.014-2.068,3.014V0h6.336V-.726c-1.782,0-2.09-.572-2.09-3.014Zm11.528-3.74h-3.828v.726c1.76,0,2.068.594,2.068,3.014V-3.74c0,2.442-.308,3.014-2.068,3.014V0h5.126V-.726c-1.76,0-2.046-.572-2.046-3.014V-13.4L151.052,0h.748V-12.364c0-2.42.308-3.014,2.046-3.014V-16.1h-5.1v.726c1.76,0,2.046.594,2.046,3.014v8.25Zm29.436-.352a3.456,3.456,0,0,1-1.672.506c-.792,0-1.738-.4-2.97-.4-4.51,0-7.04,4.642-7.04,8.668,0,4.334,2.552,7.92,7.172,7.92,1.848,0,3.19-.814,4.686-.814a3.131,3.131,0,0,1,.924.176V-3.652c0-1.606,0-2.75,1.892-2.816v-.726h-6.27v.726c1.8,0,2.442.2,2.442,2.112,0,2.266-.7,3.872-3.212,3.872-3.52,0-5.1-4.048-5.1-7,0-3.036,1.122-8.14,4.95-8.14,2.266,0,3.938,1.826,5.038,3.586l.638-.286Zm27.5.33a1.424,1.424,0,0,1-1.078.418,3.415,3.415,0,0,1-1.188-.264,4.435,4.435,0,0,0-1.76-.374,4.32,4.32,0,0,0-4.664,4.488c0,5.9,9,3.3,9,8.4a3.066,3.066,0,0,1-3.256,2.97c-2.288,0-4.268-2.09-5.61-3.872l-.66.308L191.6.242A2.089,2.089,0,0,1,192.94-.4c.88,0,2.068.638,3.454.638a4.667,4.667,0,0,0,4.928-4.686c0-3.5-2.838-4.246-5.61-5.1-1.54-.462-3.564-1.232-3.564-3.146a2.884,2.884,0,0,1,2.926-2.926c2.2,0,3.872,1.936,4.95,3.674l.638-.308Zm14.916,3.19c0-1.1-.286-2.442,1.21-2.442a6.161,6.161,0,0,1,5.06,3.586l.55-.242-1.54-4.07H206.712l-1.584,4.07.594.242c.946-1.87,2.772-3.586,5.016-3.586,1.5,0,1.21,1.342,1.21,2.442v9.2c0,2.442-.286,3.014-2.288,3.014V0h6.776V-.726c-2.024,0-2.31-.572-2.31-3.014Zm16.39-3.168-4,12.012c-.506,1.518-1.1,3.344-2.992,3.366V0h5.632V-.726c-.9,0-2.068-.154-2.068-1.276a15.4,15.4,0,0,1,.88-2.992l.286-.836h5.61l.9,2.706a5.335,5.335,0,0,1,.374,1.408c0,1.144-1.386.924-2.134.99V0h6.468V-.726a2.152,2.152,0,0,1-1.43-.638,11.9,11.9,0,0,1-1.452-3.322l-4-11.968Zm3.036,9.262H228.6l2.486-7.392Zm14.432-1.1h.9c1.738-.11,3.63.022,3.608,2.838h.638v-6.314h-.616c-.154,2.376-1.562,2.75-3.63,2.75h-.9v-3.74c0-2.156.088-2.97,2.09-2.97,3.432,0,4.268.814,6.2,3.432l.528-.352L255.354-16.1H243.738v.726c1.76,0,2.068.594,2.068,3.014V-3.74c0,2.442-.308,3.014-2.068,3.014V0H250.4V-.726c-2.112,0-2.42-.572-2.42-3.014Zm17.732,0h.9c1.738-.11,3.63.022,3.608,2.838h.638v-6.314h-.616c-.154,2.376-1.562,2.75-3.63,2.75h-.9v-3.74c0-2.156.088-2.97,2.09-2.97,3.432,0,4.268.814,6.2,3.432l.528-.352L273.086-16.1H261.47v.726c1.76,0,2.068.594,2.068,3.014V-3.74c0,2.442-.308,3.014-2.068,3.014V0h6.666V-.726c-2.112,0-2.42-.572-2.42-3.014Z" transform="translate(59 587.186)" fill="#fff"/>
  </g>
</svg>
