<svg id="people02_written" xmlns="http://www.w3.org/2000/svg" width="307" height="82.043" viewBox="0 0 307 82.043">
  <rect id="長方形_1794" data-name="長方形 1794" width="286.11" height="16.712" transform="translate(0 10.309)" fill="#fff"/>
  <rect id="長方形_1793" data-name="長方形 1793" width="307" height="16.712" transform="translate(0 56.267)" fill="#fff"/>
  <path id="パス_1880" data-name="パス 1880" d="M17.52,88.062l1.757-.085c2.326-.115,4.651-.25,6.978-.332a9.533,9.533,0,0,1,1.646.229,6.762,6.762,0,0,0,.465-2.07c.1-.607.141-1.226.295-1.818.258-1,.777-1.269,1.73-.882a4.056,4.056,0,0,0,2.1.19,11.788,11.788,0,0,1,4.146.241c.472.108.935.255,1.4.38A2.593,2.593,0,0,1,39.954,86.8c-.1,1.029-.213,2.057-.319,3.086-.023.225-.047.45-.068.676-.089.974-.09.978.861,1.2.328.076.652.167.707.554.068.475-.32.548-.646.7-.579.279-1.142.594-1.7.919-.347.2-.7.421-1.086.2a2.465,2.465,0,0,0-1.8-.076c-1.272.231-2.534.518-3.8.769-.31.061-.578.155-.615.508-.042.41-.1.786-.611.847a1.3,1.3,0,0,1-1.306-.471,6.918,6.918,0,0,1-1.453-2.822,24.985,24.985,0,0,1-.19-2.6c-.016-.29.019-.583.017-.874,0-.451-.236-.643-.684-.586q-3.942.5-7.885.991c-.449.055-.9.054-1.353.106-.869.1-1.149.365-1.4,1.223-.179.62-.407,1.226-.565,1.851a11.426,11.426,0,0,0-.172,1.319c.444-.1.714-.177.989-.22a.733.733,0,0,1,.885.42.615.615,0,0,1-.3.82c-.45.307-.893.623-1.342.931a1.985,1.985,0,0,0-.839,1.257,3.907,3.907,0,0,1-1.019,1.954.8.8,0,0,1-1.322.022,2.019,2.019,0,0,1-.234-2.718,3.3,3.3,0,0,0,.177-.354c-.38-.188-.754-.347-1.1-.554a2.153,2.153,0,0,1-.807-.623c-.625-1.122-1.562-2.07-1.836-3.4-.1-.506-.4-.6-1-.373a7.071,7.071,0,0,1-2.77.374,1.2,1.2,0,0,1-1.125-.783c-.3-.672-.073-1.163.645-1.3C5.585,89.651,6.3,89.6,7,89.5c1.684-.24,1.674-.244,1.663-1.894-.005-.647.047-1.293.068-1.941a1.4,1.4,0,0,1,1.181-1.456,14.638,14.638,0,0,1,2.111-.236,3.348,3.348,0,0,0,1.664-.378c.717-.428,1.433.012,2.082.34a5.688,5.688,0,0,1,.987.777,2.455,2.455,0,0,1,.9,2.6c-.041.183-.071.368-.143.751m16.519,1.452a5.074,5.074,0,0,0-2.645.493,10.852,10.852,0,0,1-1.189.626.645.645,0,0,0-.447.832c.049.253.079.511.138.761.175.73.346.858,1.077.761a8.576,8.576,0,0,1,1.714-.263,15.911,15.911,0,0,0,4-.6.886.886,0,0,0,.784-.842,1.142,1.142,0,0,0-.722-1.408,4.017,4.017,0,0,0-2.708-.356m3.567-.815a3.074,3.074,0,0,0,.308-1.926,1.241,1.241,0,0,0-1.01-1.442,8.1,8.1,0,0,0-4.388-.242,2.309,2.309,0,0,0-.875.386c-.439.311-.839.68-1.252,1.031a1.071,1.071,0,0,0-.266,1.16c.1.416.487.359.8.339a6.252,6.252,0,0,0,.958-.127,6.644,6.644,0,0,1,3.987.261c.535.214,1.1.357,1.736.56M14.926,90.2a10.933,10.933,0,0,0-1.108.115c-.874.191-1.108.513-1.147,1.4a9.609,9.609,0,0,1-.18,1.032,3.348,3.348,0,0,0-.089.851,1.386,1.386,0,0,0,1.144.9c.5.026.557-.4.631-.719.259-1.125.475-2.259.749-3.587M13.4,88.409c1.573.267,2.476-.532,2.2-1.824a.935.935,0,0,0-.5-.615.841.841,0,0,0-.749.221,4.607,4.607,0,0,0-.954,2.219M11.48,86.562a1.268,1.268,0,0,0-.881,1.83c.056.13.216.319.308.308.16-.019.4-.145.437-.273a3.411,3.411,0,0,0,.136-1.865" transform="translate(5.146 -22.605)"/>
  <path id="パス_1881" data-name="パス 1881" d="M326.656,86.706a.826.826,0,0,0-1.253.239c-.879,1.352-1.845,2.674-1.907,4.385a1.812,1.812,0,0,1-.069.478.748.748,0,0,1-1.351.294,1.467,1.467,0,0,1-.3-1.458c.274-1,.593-1.982.895-2.971.081-.266.17-.53.258-.805-.663-.4-1.219-.063-1.75.06a2.871,2.871,0,0,1-1.791.137.512.512,0,0,0-.7.362,14.877,14.877,0,0,0-.576,2.246,2.519,2.519,0,0,0,.343,1.177c.239.556.237,1.013-.111,1.224a.974.974,0,0,1-1.162-.19,2.046,2.046,0,0,1-.82-1.78,7.324,7.324,0,0,1,.667-3.3c.34-.655.627-1.338.956-2.047a1,1,0,0,0-1.044.142c-1.2.7-2.4,1.4-3.55,2.173a6.462,6.462,0,0,0-2.417,2.713,2.111,2.111,0,0,1-2.418.987,1.094,1.094,0,0,1-.534-1.722,1.879,1.879,0,0,1,.281-.267c.85-.692,1.7-1.388,2.554-2.069a1.122,1.122,0,0,0,.5-.993c-.1-1.517-.195-3.033-.3-4.55a3.206,3.206,0,0,0-.1-.572c-.154-.6-.276-.727-.876-.626-.76.129-1.5.349-2.253.535a7.684,7.684,0,0,1-1.026.265.853.853,0,1,1-.5-1.63,2.173,2.173,0,0,1,.632-.239c.946-.2,1.9-.38,2.846-.575.8-.166.8-.172.949-.971.141-.781.47-1.013,1.212-.746a3.221,3.221,0,0,1,1.157.685,2.023,2.023,0,0,0,1.581.586c.356-.008.712,0,1.068.01.766.031,1.1.221,1.152.642.053.439-.221.667-1.017.789-.607.092-1.223.133-1.83.226-.891.137-1.044.3-1.063,1.189-.023,1.032-.015,2.063,0,3.095a1.909,1.909,0,0,0,.135.493c.1.016.147.036.162.023a12.72,12.72,0,0,1,5.741-2.395c1.042-.223,2.056-.607,3.1-.769,1.659-.256,3.335-.407,5.008-.563,1.156-.107,2.318-.164,3.478-.205a2,2,0,0,1,.833.209.8.8,0,0,1,.425.982c-.079.447-.378.746-.809.666-1.562-.291-3.095.148-4.645.143a11.93,11.93,0,0,0-2.111.271,1.715,1.715,0,0,0-.785.348,2.281,2.281,0,0,1-1.329.515,1.185,1.185,0,0,0-1.146.932,2.712,2.712,0,0,0,2.067.092,25.785,25.785,0,0,1,8.659-.605c1.539.137,2.2,1.077,1.733,2.547a39.741,39.741,0,0,1-2.759,6.617c-.212.4-.4.811-.622,1.206a5.051,5.051,0,0,1-.569.9,1.048,1.048,0,0,1-1.622.15,2.9,2.9,0,0,1-1.124-2.369.966.966,0,0,1,.338-.627c.06-.053.374.136.54.258a8.026,8.026,0,0,1,.663.619,8.433,8.433,0,0,0,.984-1.363c.742-1.65,1.425-3.326,2.111-5,.131-.319.305-.762-.106-.954a2.01,2.01,0,0,0-1.1-.067,1.244,1.244,0,0,0-.631.428,18.122,18.122,0,0,0-1.811,2.14c-.79,1.217-1.449,2.52-2.174,3.78-.579,1.007-1.208,1.989-1.751,3.015-.33.623-.536,1.312-.807,1.967a.7.7,0,0,1-.955.417.819.819,0,0,1-.621-.878,2.33,2.33,0,0,1,.185-.749c.283-.652.559-1.312.905-1.931,1.213-2.173,2.456-4.328,3.679-6.494.152-.269.259-.564.4-.873" transform="translate(-75.407 -20.853)"/>
  <path id="パス_1882" data-name="パス 1882" d="M243.027,25.57c-.5,1-.928,1.871-1.376,2.728-.389.745-.789,1.485-1.213,2.21a1.544,1.544,0,0,1-1.205.88c-.654.057-.909-.268-.669-.874a5.148,5.148,0,0,1,.311-.6c.615-1.1,1.234-2.195,1.845-3.3a1.311,1.311,0,0,0,.162-.452c.047-.359-.117-.566-.494-.533s-.767.124-1.152.136a1.738,1.738,0,0,1-.847-.128,1.008,1.008,0,0,1-.487-.626.752.752,0,0,1,.389-.586,17.2,17.2,0,0,1,1.739-.6c.524-.167,1.064-.288,1.577-.482a3.22,3.22,0,0,0,1.564-2.7c-.058-.356-.3-.463-.618-.5a10.171,10.171,0,0,1-1.247-.167,1.485,1.485,0,0,1-.674-.346.605.605,0,0,1,.209-1.078,3.494,3.494,0,0,1,.85-.162,11.781,11.781,0,0,0,1.248-.155,1.6,1.6,0,0,0,1.161-1.6c-.016-.3-.167-.508-.5-.441-.347.072-.682.2-1.026.292a1.955,1.955,0,0,1-1.681-.2c-.652-.441-.637-1.077.053-1.44a4.735,4.735,0,0,1,1.008-.332c.531-.139,1.064-.279,1.6-.376a1.711,1.711,0,0,0,1.4-1.536,3.931,3.931,0,0,1,.1-.669c.1-.249.266-.629.447-.655a1.239,1.239,0,0,1,.948.256,2.056,2.056,0,0,1,.443,1.033c.164.85.156.906,1,1.045a4.459,4.459,0,0,1,2.892,1.124c.159-.071.268-.087.325-.149q1.41-1.535,2.8-3.083a2.613,2.613,0,0,0,.33-.479c.356-.636.3-1-.343-1.381a7.716,7.716,0,0,0-3.184-1.1c-1.189-.125-2.385-.22-3.579-.255a14.824,14.824,0,0,0-5.713.887,7.238,7.238,0,0,1-.75.2,2.2,2.2,0,0,0-1.6,1.132,1.2,1.2,0,0,1-1.462.776c-.66-.138-.894.086-.95.773-.178,2.179-.231,4.347,1.069,6.28.071.106.173.238.16.346a1.392,1.392,0,0,1-.212.763.7.7,0,0,1-.681-.072,6.6,6.6,0,0,1-1.178-1.5,11.079,11.079,0,0,1-.749-5.613A5.757,5.757,0,0,1,236,9.333a2.711,2.711,0,0,1,2.15-1.278c1.344-.153,2.667-.484,4-.737.73-.139,1.46-.284,2.193-.41,1.107-.19,1.291-.42,1.138-1.571-.1-.768-.243-1.531-.371-2.3-.057-.343-.044-.666.324-.822a.7.7,0,0,1,.861.263,2.113,2.113,0,0,1,.324.586,2.437,2.437,0,0,1,.1.572c.079.674.145,1.35.231,2.024.089.706.334.966,1.034,1.053.674.085,1.352.135,2.029.195a13.633,13.633,0,0,1,4.121,1.066,5.168,5.168,0,0,1,1.581,1.244,1.581,1.581,0,0,1,.218,1.819,6.657,6.657,0,0,1-4.111,3.858,1.86,1.86,0,0,0-1.021.667c-.369.511-.55.519-1.15.16a3.823,3.823,0,0,0-2.626-.432,1.858,1.858,0,0,0-1.306,2.222,1.6,1.6,0,0,0,.882.663c.638.226,1.318.329,1.973.508a1.951,1.951,0,0,1,.787.346.763.763,0,0,1,.221.655.724.724,0,0,1-.6.325c-.674-.057-1.336-.248-2.01-.3a2.1,2.1,0,0,0-2.363,2.275.585.585,0,0,0,.568.657,4.679,4.679,0,0,0,.967-.029c1.155-.148,2.306-.332,3.462-.466a7.475,7.475,0,0,1,1.642-.04.877.877,0,0,1,.615.5c.107.339-.163.6-.5.725a2.043,2.043,0,0,1-.375.1c-1.555.271-3.111.536-4.664.813-.932.165-1.208.784-.6,1.526a8.4,8.4,0,0,0,1.637,1.505,13.085,13.085,0,0,0,4.16,2.041c1.782.476,3.562.963,5.346,1.429.467.121.953.169,1.426.267a2.745,2.745,0,0,1,.828.239.654.654,0,0,1,.29.527.613.613,0,0,1-.465.366,14.821,14.821,0,0,1-2.419-.069,42.17,42.17,0,0,1-6.5-1.587,11.565,11.565,0,0,1-3.952-2.223c-.815-.682-1.545-1.465-2.325-2.19a6.647,6.647,0,0,0-.733-.5" transform="translate(-56.532 -0.589)"/>
  <path id="パス_1883" data-name="パス 1883" d="M191.71,22.23a3.409,3.409,0,0,0-.956-.27c-1.324.023-2.647.1-3.97.161-1.031.049-2.062.143-3.094.153-1.108.01-1.383.137-1.653,1.216a27.054,27.054,0,0,0-.808,3.882,18.354,18.354,0,0,0,.17,3.284c.047.553.463.743.962.766.456.021,1.015-.033,1.108.538.1.6-.494.769-.913.976a1.806,1.806,0,0,1-2.706-1.146,10.729,10.729,0,0,1-.3-4.61c.179-1.215.366-2.428.513-3.647.076-.63-.124-.822-.757-.823-.224,0-.448.076-.672.081-.872.023-1.745.055-2.616.03a1.564,1.564,0,0,1-.8-.3c-.662-.466-.59-1.108.164-1.376a4.022,4.022,0,0,1,1.234-.206c.938-.023,1.879.036,2.816,0a10.113,10.113,0,0,0,1.918-.244.868.868,0,0,0,.681-1.325,3.048,3.048,0,0,1-.068-2.332c.441-1.747.8-3.514,1.2-5.335-.275-.164-.585-.331-.877-.527-.628-.421-.693-.935-.118-1.421a2.13,2.13,0,0,1,1.03-.47c1.729-.228,3.462-.463,5.2-.574,1.419-.09,2.849-.025,4.272.009A5.27,5.27,0,0,1,194,8.97a.725.725,0,0,1,.554.815c-.062.466-.464.48-.826.481-1.716,0-3.432-.009-5.147.008-.549.005-1.1.081-1.643.133a1.919,1.919,0,0,0-1.755,1.44c-.226.675-.1.965.592.922a18.333,18.333,0,0,0,2.971-.383,7.4,7.4,0,0,1,3.361.045,1.3,1.3,0,0,1,1.055.765,1.059,1.059,0,0,1-.053.8c-.091.151-.438.148-.672.21a.169.169,0,0,1-.095-.015c-2.593-.964-4.957.17-7.371.817a1.254,1.254,0,0,0-.628.423,1.07,1.07,0,0,0-.292,1.156.945.945,0,0,0,1.069.49c.9-.087,1.8-.241,2.7-.292.869-.05,1.744-.031,2.614,0a1.275,1.275,0,0,1,1.145.628,1.178,1.178,0,0,1,.089.885c-.072.169-.482.275-.737.268-.644-.016-1.29-.194-1.927-.155-1.028.062-2.048.242-3.071.38a10.666,10.666,0,0,0-1.528.253.958.958,0,0,0-.575.533c-.044.134.222.446.418.56a1.762,1.762,0,0,0,.826.213c1.063.022,2.127,0,3.191.005,1.618,0,3.238,0,4.856.02a4.328,4.328,0,0,1,1.243.151A.955.955,0,0,1,195,21.983c-.338.679-.6,1.437-1.466,1.7-.255.079-.457.349-.666.549-.727.69-1.442,1.391-2.169,2.08-.479.455-.466.79.1,1.142a9.568,9.568,0,0,0,1.282.687,24.955,24.955,0,0,0,6.989,1.912c.708.079,1.024.3,1.025.682,0,.358-.3.531-1.1.506a15.576,15.576,0,0,1-7.4-1.66,23.226,23.226,0,0,0-2.284-1.068,10.892,10.892,0,0,1-3.591-2.76,2.531,2.531,0,0,1-.487-.931c-.1-.3-.182-.711.191-.857a1.678,1.678,0,0,1,.916.028c.168.038.314.22.447.358.269.279.52.577.786.861a.945.945,0,0,0,1.52.1c.927-.891,1.79-1.848,2.68-2.778-.021-.1-.041-.206-.063-.308" transform="translate(-40.415 -2.364)"/>
  <path id="パス_1884" data-name="パス 1884" d="M87.43,20.925a4.118,4.118,0,0,0-.908-.04,23.449,23.449,0,0,0-5.2,1.11,10.8,10.8,0,0,1-2.171.483,1.518,1.518,0,0,1-.578-.014c-.439-.089-.823-.306-.877-.784-.055-.5.3-.767.74-.882.845-.22,1.7-.405,2.547-.614a9.412,9.412,0,0,0,1.02-.3,1.047,1.047,0,0,0,.722-1.224,22.709,22.709,0,0,1,.33-5.6,16.565,16.565,0,0,1,.836-2.979,1.11,1.11,0,0,1,.551-.628,3.036,3.036,0,0,0,1.568-1.87c.433-.973.934-1.916,1.429-2.86a2.823,2.823,0,0,1,.533-.686.947.947,0,0,1,1.311-.161.937.937,0,0,1,.294,1.29,13.083,13.083,0,0,1-.871,1.4c-.3.46-.664.885-.918,1.368-.394.749-.119,1.165.732,1.168.679,0,1.363-.08,2.038-.035a17.365,17.365,0,0,1,2.1.316,1.675,1.675,0,0,1,1.368,1.562A15.762,15.762,0,0,0,94.4,12.74a1.051,1.051,0,0,1-.186.993,2.017,2.017,0,0,0-.3,1.666c.029.139.16.257.3.468.583-.419,1.112-.826,1.669-1.189a2.908,2.908,0,0,1,1.034-.489,1,1,0,0,1,.846.265,1.361,1.361,0,0,1,.04.983,1.641,1.641,0,0,1-.543.666c-.9.786-1.805,1.573-2.739,2.321a1.776,1.776,0,0,0-.714,1.309,22.354,22.354,0,0,0-.229,4.344,14.7,14.7,0,0,1-.2,3.376,2.285,2.285,0,0,1-.657,1.146,1.464,1.464,0,0,1-2.237-.388.6.6,0,0,1,.317-.889c.8-.319.879-.986.893-1.672.026-1.421.008-2.841.008-4.369-.177,0-.455-.083-.637.014a22.284,22.284,0,0,0-2.248,1.328c-1.167.813-2.241,1.767-3.447,2.513a19.267,19.267,0,0,0-3.343,2.788,10.025,10.025,0,0,1-.781.722c-.3.24-.644.347-.954.018a.716.716,0,0,1-.054-.981,18.208,18.208,0,0,1,1.314-1.419c.272-.274.581-.509.877-.757q1.147-.96,2.3-1.917,1.4-1.171,2.806-2.345c-.034-.106-.068-.213-.1-.32m1.691-4.13c-1.187.189-2.559.393-3.925.634a.817.817,0,0,0-.765,1.026,1,1,0,0,0,1.082.884c.418-.039.831-.135,1.248-.175,1.063-.1,2.136-.137,3.188-.308a3.328,3.328,0,0,0,1.473-.642c.6-.473.474-.983-.273-1.176a15.506,15.506,0,0,0-2.027-.242m1.619-3.214c-1.347.117-2.6.225-3.85.336-.257.023-.514.052-.768.089a3.736,3.736,0,0,0-.471.108c-.607.175-.927.5-.875.871.055.395.4.481,1.1.466,1.477-.033,2.955,0,4.432,0a5.666,5.666,0,0,0,1.054,0,.958.958,0,0,0,.725-1.1c-.033-.488-.371-.645-.774-.719a4.992,4.992,0,0,0-.578-.049m-.962-1.325c0-.028,0-.057.006-.084.161,0,.322,0,.482,0a7.233,7.233,0,0,0,1.344-.054.856.856,0,0,0,.574-.528c.033-.2-.2-.512-.4-.657a1.284,1.284,0,0,0-.813-.251c-1.146.132-2.289.309-3.423.514a.638.638,0,0,0-.39.466c-.011.123.258.367.424.39.728.1,1.464.142,2.2.2" transform="translate(-14.468 -1.005)"/>
  <path id="パス_1885" data-name="パス 1885" d="M4.345,13.718a47.111,47.111,0,0,0,5.382-1.242,4.432,4.432,0,0,1,3.776.436,2.065,2.065,0,0,1,1.11,1.723c.185,2.024.405,4.046.556,6.073a10.492,10.492,0,0,1-.23,1.424c-.145,2.064-.284,4.128-.372,6.195A2.627,2.627,0,0,0,14.9,29.5a.679.679,0,0,1-.063.878c-.067.07-.132.142-.2.213-.256.277-.47.688-.783.789-.242.078-.6-.266-.925-.359a2.038,2.038,0,0,0-.847-.081c-2.14.33-4.28.661-6.41,1.043a11.089,11.089,0,0,0-2.127.642,4.022,4.022,0,0,0-1.079.752c-.384.336-.613.375-1.005.056-.323-.264-.651-.522-.967-.794a1.025,1.025,0,0,1-.056-1.72,1.275,1.275,0,0,0,.47-1.1q-.166-3.1-.329-6.193a7.713,7.713,0,0,1,.008-.87c.083-1.32.214-2.639.252-3.96a28.742,28.742,0,0,1,.476-5.4c.063-.283.14-.564.23-.839a.784.784,0,0,1,.694-.578c.831-.132.885-.223,1.045-1.1.248-1.368.457-2.745.776-4.1A16.509,16.509,0,0,1,4.924,4.41c.14-.344.394-.626.83-.46.409.154.767.9.529,1.217-1.066,1.426-1,3.165-1.372,4.779-.234,1.005-.386,2.031-.562,3.049a5.231,5.231,0,0,0,0,.722M2.484,21.747c.288-.043.6-.076.9-.137.917-.186,1.829-.387,2.745-.574a8.469,8.469,0,0,0,1.517-.3,16.966,16.966,0,0,1,3.588-.778c.414-.073.836-.1,1.248-.186.708-.143.865-.342.849-1.06-.018-.84-.03-1.683-.1-2.521a3.944,3.944,0,0,0-.3-1.312,1.3,1.3,0,0,0-.72-.7,6.966,6.966,0,0,0-2.19-.233,20.649,20.649,0,0,0-3.136.627A5.951,5.951,0,0,0,4.05,15.958c-.439.444-.812.771-1.413.685a13.515,13.515,0,0,0-.153,5.105M13.14,25.585a4.186,4.186,0,0,0-.664,0c-1.384.3-2.769.6-4.147.92a18.122,18.122,0,0,1-2.225.575,15.937,15.937,0,0,0-3.242.93.811.811,0,0,0-.638.853c0,.354.01.71.035,1.064a.614.614,0,0,0,.7.634q1.058-.059,2.113-.187c.574-.07,1.14-.216,1.715-.28,1.763-.2,3.527-.377,5.292-.55a.779.779,0,0,0,.8-.7c.111-1.048.172-2.1.262-3.263m-10.725.466a1.323,1.323,0,0,0,.419-.121A3,3,0,0,1,5,25.256a3.427,3.427,0,0,0,.668-.1c2.075-.286,4.147-.6,6.228-.842,1.29-.149,1.3-.1,1.426-1.365a5.312,5.312,0,0,0,.038-.579c-.007-.8-.272-1.037-1.08-.947-.48.053-.954.191-1.434.2a6.137,6.137,0,0,0-2.427.583c-.41.185-.85.3-1.274.455-1.333.475-2.676.921-3.993,1.437C2.11,24.5,2,24.843,2.416,26.051" transform="translate(6.267 -1.063)"/>
  <path id="パス_1886" data-name="パス 1886" d="M154.63,14.241c-.786.073-1.723.143-2.653.254-.749.089-.895.33-.644,1.045a18.132,18.132,0,0,0,2.183,4.31c.294.426.573.863.879,1.28.668.912.962.915,1.688.02.306-.376.575-.783.888-1.154a14.2,14.2,0,0,1,1.114-1.214,1.816,1.816,0,0,1,2.672.151.935.935,0,0,1,.207.685c-.025.137-.332.3-.525.319-1.94.2-2.784,1.72-3.729,3.092a1.118,1.118,0,0,0,.127,1.365,10.187,10.187,0,0,0,.968,1.085c.832.765,1.7,1.493,2.539,2.249a1.111,1.111,0,0,0,1.322.221c.854-.36,1.234-.019,1.08.882a1.426,1.426,0,0,1-2.366,1.054,2.563,2.563,0,0,1-.388-.289c-1.165-1.074-2.34-2.138-3.486-3.232-.819-.782-1.208-.8-1.874.109a18.293,18.293,0,0,0-1.086,1.832c-.127.224-.207.474-.319.708-.355.741-.746.975-1.229.744-.458-.218-.65-.77-.312-1.449a24.089,24.089,0,0,1,1.835-3.191,1.678,1.678,0,0,0,.092-2.12c-.881-1.392-1.74-2.8-2.563-4.228-.467-.81-.842-1.674-1.265-2.51a10.365,10.365,0,0,0-.512-.935,1.128,1.128,0,0,0-1.346-.515,5.744,5.744,0,0,0-3.169,1.939,3.007,3.007,0,0,0-.276.4c-.455.88-.3,1.13.689,1.332a6.087,6.087,0,0,1,1.739.571,4.2,4.2,0,0,1,1.656,5.251c-.5,1.359-1.181,2.655-1.81,3.966a8.894,8.894,0,0,1-.877,1.5c-.474.631-.925.6-1.411-.022a2.143,2.143,0,0,1-.355-1.841,1.067,1.067,0,0,1,.89-.8,1.271,1.271,0,0,0,.923-.889,30.576,30.576,0,0,0,1.243-3.35A2.111,2.111,0,0,0,144.8,20.15a1.652,1.652,0,0,0-1.595,1.063,1.742,1.742,0,0,1-.937,1.042,1.5,1.5,0,0,0-.668.667c-.6,1.217-1.218,2.433-1.7,3.7a19.059,19.059,0,0,0-.7,2.808,1.612,1.612,0,0,0,.092.66,3.314,3.314,0,0,0,.165.35c.221.593.167.973-.154,1.132-.361.179-.807.016-1.173-.432a3.009,3.009,0,0,1-.465-2.858,20.026,20.026,0,0,1,1.939-4.851,3.467,3.467,0,0,0,.315-.6,28.756,28.756,0,0,1,2.088-4.37,7.526,7.526,0,0,0,.491-1.162c.184-.531.063-.775-.436-1a.58.58,0,0,0-.094-.027c-.5-.124-.986-.336-.968-.917.016-.548.542-.729.956-.986,1.495-.927,3.216-.9,4.86-1.187,1.048-.18,1.273-.432,1.136-1.464a6.122,6.122,0,0,1-.062-1.448,1.051,1.051,0,0,1,1.358-.893,1.071,1.071,0,0,1,.849,1.289,4.666,4.666,0,0,0,.036,1.424c.146.691.393.8,1.107.788,1.423-.03,2.846-.058,4.269-.04a2.526,2.526,0,0,1,1.1.3.748.748,0,0,1,.335.614.737.737,0,0,1-.517.468,16.041,16.041,0,0,1-1.8.023" transform="translate(-30.452 -2.546)"/>
  <path id="パス_1887" data-name="パス 1887" d="M53.962,25.229c.139-3.134.249-6.269.443-9.4a3.272,3.272,0,0,1,.656-1.674,3.292,3.292,0,0,0,.749-1.843A3.58,3.58,0,0,1,57,9.84a2.811,2.811,0,0,1,2.745-.456.492.492,0,0,1,.134.907,2.732,2.732,0,0,1-.87.41,2.332,2.332,0,0,0-1.619,2c-.178.807.327,1.442,1.248,1.061.358-.148.719-.3,1.09-.41a13.392,13.392,0,0,1,6.619-.271,2.845,2.845,0,0,1,2.366,2.977c-.086,1.743-.237,3.482-.347,5.224-.069,1.1-.105,2.2-.172,3.294-.051.838-.123,1.675-.193,2.512a2.525,2.525,0,0,0,.333,1.952c.1.124.153.448.076.523a7.205,7.205,0,0,1-1.4,1.159c-.247.139-.671-.043-1.016-.074a7.754,7.754,0,0,0-1.613-.121c-1.926.239-3.84.56-5.763.82-.831.113-1.672.172-2.511.215a1.4,1.4,0,0,1-1.492-.973,9.68,9.68,0,0,1-.62-3.51c-.02-.614,0-1.229,0-1.843h-.028m4.346,4.41c0,.02.005.04.008.06l6.641-.75a1.723,1.723,0,0,0,.19-.039A1.015,1.015,0,0,0,66.021,28c.092-.737.205-1.474.251-2.214.035-.576-.192-.879-.753-.932a21.491,21.491,0,0,0-3.576-.2c-1.769.131-3.527.45-5.284.719-.8.121-1.066.421-1.061,1.239,0,.773.1,1.547.185,2.318a.752.752,0,0,0,.874.709c.55-.005,1.1,0,1.651,0M64.6,18.627v.158c.356,0,.713.009,1.069,0,.7-.022.976-.2,1.032-.887a12.9,12.9,0,0,0-.064-2.118,1.121,1.121,0,0,0-1.005-1.032,9.644,9.644,0,0,0-6.274.512,22.741,22.741,0,0,0-2.694,1.695A1.74,1.74,0,0,0,56.032,19a.486.486,0,0,0,.607.345c.252-.051.495-.155.748-.2a22.674,22.674,0,0,1,2.851-.5c1.449-.084,2.906-.022,4.36-.022m-7.605,2.8c-1.078-.225-1.308-.008-1.258,1.01.036.723.308.987,1.026.978.193,0,.384-.052.578-.063a24.423,24.423,0,0,1,5.793-.118c.762.137,1.527.263,2.294.358.586.072.9-.091.971-.55a16.876,16.876,0,0,0,.155-1.928.649.649,0,0,0-.585-.67,4.886,4.886,0,0,0-.96-.1c-1.228-.012-2.458.039-3.682-.023a6.26,6.26,0,0,0-2.707.618c-.522.212-1.082.327-1.625.487" transform="translate(-8.441 -2.517)"/>
  <path id="パス_1888" data-name="パス 1888" d="M366.107,73.212c.268-.616.5-1.144.728-1.671.431-.974.841-1.959,1.305-2.917a1.026,1.026,0,0,1,1.524-.522,1.038,1.038,0,0,1,.346,1.517c-.391.7-.844,1.374-1.272,2.058a4.311,4.311,0,0,0-.875,1.99c.564.348,1.059.092,1.535-.055a19.671,19.671,0,0,1,5.727-.909,23.023,23.023,0,0,1,2.324.139c.741.071.979.316.922.851-.055.516-.338.711-1.068.714-.97,0-1.941-.006-2.911,0a3.886,3.886,0,0,0-.677.047.572.572,0,0,0-.533.662c0,.833-.107,1.665-.132,2.5a18.13,18.13,0,0,0,.037,1.936q.325,4.207.689,8.413c.139,1.578.28,3.158.5,4.725a15.137,15.137,0,0,1,.007,3.964c-.1.835-.173,1.675-.317,2.5a2.909,2.909,0,0,1-.436,1.15c-.293.418-.759.311-.828-.195a13.593,13.593,0,0,1-.1-2.218c.024-.839.2-1.677.187-2.515-.012-.93-.152-1.858-.247-2.786-.2-1.994-.436-3.985-.612-5.981-.145-1.642-.122-3.3-.367-4.928-.233-1.546-.241-3.092-.33-4.638-.028-.481.009-.965,0-1.448a5.751,5.751,0,0,0-.1-.672,6.959,6.959,0,0,0-2.877.944,14.416,14.416,0,0,1-1.589.694,2.1,2.1,0,0,0-1.234,1.013,10.513,10.513,0,0,0-1.023,6.116c.044.547.161,1.088.218,1.635a2.6,2.6,0,0,1-.018.866.682.682,0,0,1-1.069.436,1.339,1.339,0,0,1-.727-1.187,31.106,31.106,0,0,1,.085-5.813c.126-.73.095-1.488.231-2.215.188-1.013.466-2.008.708-3.012.068-.283.121-.572.215-.846.232-.682.575-.85,1.269-.638.212.065.415.156.784.3" transform="translate(-90.598 -18.518)"/>
  <path id="パス_1889" data-name="パス 1889" d="M294.913,16.03a4.029,4.029,0,0,1-.825.1,4.124,4.124,0,0,0-2.729,1.1c-.555.391-.506.949.151,1.319a16.239,16.239,0,0,0,2.634,1.219c1,.346,2.059.536,3.092.8.125.031.292.036.362.119a1.422,1.422,0,0,1,.405.674c.01.124-.351.4-.548.4a8.28,8.28,0,0,1-2.021-.124,16.04,16.04,0,0,1-4.868-1.883,1.206,1.206,0,0,0-1.6.089c-.9.835-1.789,1.679-2.683,2.519a14.311,14.311,0,0,1-1.135,1.051.857.857,0,0,1-1.155.012.942.942,0,0,1,.127-1.311c.653-.626,1.352-1.2,2.012-1.822.589-.554,1.163-1.125,1.724-1.707.418-.433.418-.631.056-1.083a2.844,2.844,0,0,0-.412-.41,13.239,13.239,0,0,1-3.513-5.272c-.6-1.387-.965-1.589-2.265-1.4-1.885.27-3.772.548-5.664.762a2.741,2.741,0,0,0-2.439,2.3,41.367,41.367,0,0,0-1.576,7.288,16.508,16.508,0,0,0,.049,2.507c.065.75,0,1.146-.38,1.274-.333.113-.8-.22-.99-.884a6.861,6.861,0,0,1-.249-1.911,23.25,23.25,0,0,1,1.051-6.59c.378-1.233.644-2.5.981-3.747a2.015,2.015,0,0,1,1.955-1.707c2.312-.263,4.622-.541,6.938-.776a1.223,1.223,0,0,0,1.131-.88c.3-.75.859-.886,1.53-.433a.536.536,0,0,1,.15.121c.673.98,1.664.926,2.692.9a30.39,30.39,0,0,1,3.19.143,1.762,1.762,0,0,1,.869.375.675.675,0,0,1,.186.591.664.664,0,0,1-.482.367c-.447.044-.9-.012-1.356-.009-1,.007-2.006-.009-3.005.052-.841.051-1.045.352-.741,1.138a10.772,10.772,0,0,0,3.125,4.815c.7.562.843.539,1.506-.014.274-.228.543-.46.812-.693a3.019,3.019,0,0,1,3.506-.256,2.9,2.9,0,0,1,.524.62l-.123.259" transform="translate(-65.992 -2.005)"/>
  <path id="パス_1890" data-name="パス 1890" d="M152.553,80.581a15.07,15.07,0,0,0-5.988,1.085c-.732.3-.972.528-.9,1.278.116,1.178.035,2.407.842,3.429a.666.666,0,0,1,.016.969.848.848,0,0,1-1.159.071,3.5,3.5,0,0,1-.971-1.17,8.918,8.918,0,0,1-.495-1.96c-.151-.826-.241-1.664-.363-2.5a1.849,1.849,0,0,1,1.982-2.227,13.906,13.906,0,0,0,2.787-.3,14.13,14.13,0,0,1,4.226-.38c1.673.149,3.364.1,5.036.253,1.315.123,2.614.428,3.918.658a2.435,2.435,0,0,1,.461.151c1.3.514,1.557,1.146.952,2.407a9.535,9.535,0,0,1-.693,1.165c-.735,1.1-1.491,2.19-2.227,3.29-.447.669-.881,1.348-1.312,2.028-.951,1.5-1.939,2.98-2.829,4.515a17.937,17.937,0,0,0-1.058,2.481c-.165.421-.253.866-.708,1.106a1.012,1.012,0,0,1-1.578-.673,2.022,2.022,0,0,1,.116-1.123,19.656,19.656,0,0,1,1.076-2.061c.6-1.034,1.159-2.1,1.854-3.065a32.143,32.143,0,0,0,2.982-5.087,15.247,15.247,0,0,1,1.546-2.22c.075-.1.184-.183.261-.287.349-.468.268-.777-.279-.938a8.546,8.546,0,0,0-1.509-.354c-1.993-.2-3.991-.37-5.987-.551" transform="translate(-32.073 -21.491)"/>
  <path id="パス_1891" data-name="パス 1891" d="M209.535,81.019a6.023,6.023,0,0,0-2.521-.567c-2.328-.04-4.657-.021-6.986-.034a10.334,10.334,0,0,0-3.692,1.075,1.07,1.07,0,0,0-.716,1.154c.075.93.176,1.858.287,2.784.042.351.153.694.213,1.044a.712.712,0,0,1-.378.819.777.777,0,0,1-.975-.175,1.7,1.7,0,0,1-.419-.638,12.871,12.871,0,0,1-.389-6.7c.276-1.114.777-1.392,1.848-.983a4.118,4.118,0,0,0,2.183.153,24.307,24.307,0,0,1,5.684-.4c1.7.14,3.426-.02,5.117.274a12.622,12.622,0,0,1,2.5.725,1.272,1.272,0,0,1,.692,1.915,17.03,17.03,0,0,1-1.835,3.062c-1.286,1.776-2.409,3.671-3.6,5.515-.21.324-.436.639-.652.96-.7,1.043-1.4,2.091-2.107,3.127a1.136,1.136,0,0,0-.068,1.016,1.65,1.65,0,0,1-1.819,1.888,1.245,1.245,0,0,1-.919-1.494,7.531,7.531,0,0,1,.866-2.136c.651-1.037,1.458-1.974,2.163-2.978.686-.977,1.34-1.977,1.982-2.982.783-1.226,1.579-2.445,2.294-3.71.469-.832.8-1.74,1.247-2.719" transform="translate(-45.494 -21.399)"/>
  <path id="パス_1892" data-name="パス 1892" d="M118.126,84.048c-.511,0-.926.028-1.336-.007a.968.968,0,0,1-.976-.792c-.107-.546.226-.849.658-1.061a13.366,13.366,0,0,1,1.679-.755,2.819,2.819,0,0,0,1.473-1.045,2.039,2.039,0,0,1,1.384-.818,1.027,1.027,0,0,1,1.27.767c.126.6.5.737.989.9A5.72,5.72,0,0,1,124.9,82c.522.388.388.876-.248,1.055a3.474,3.474,0,0,1-1.049.04c-.581-.02-1.16-.085-1.74-.1a1.371,1.371,0,0,0-1.362.92,13.633,13.633,0,0,0-.628,2.238c-.116.57.1.806.68.777a16.206,16.206,0,0,0,1.624-.258,5.523,5.523,0,0,1,1.337-.15,1.02,1.02,0,0,1,.713.518c.071.164-.173.517-.353.718a1.261,1.261,0,0,1-.6.29c-.81.222-1.624.434-2.443.626-1,.233-1.265.508-1.266,1.52a3.237,3.237,0,0,0,.881,2.484,1.065,1.065,0,0,0,1.146.332c.726-.264,1.446-.552,2.144-.882,1.6-.761,3.184-1.575,4.8-2.316a2.575,2.575,0,0,1,1.229-.15.48.48,0,0,1,.313.85,2.016,2.016,0,0,1-.462.348c-.9.566-1.789,1.17-2.724,1.679-1.419.77-2.85,1.526-4.322,2.187a3.26,3.26,0,0,1-3.906-.807,4.813,4.813,0,0,1-1.208-2.6c-.05-.282-.126-.559-.188-.839a1.022,1.022,0,0,0-1.167-.9,2.355,2.355,0,0,1-1.157-.38.771.771,0,0,1-.3-1.026,1.322,1.322,0,0,1,.722-.532c.362-.119.785-.054,1.145-.177.344-.118.8-.3.926-.584a6.01,6.01,0,0,0,.685-2.833" transform="translate(-24.339 -21.682)"/>
  <path id="パス_1893" data-name="パス 1893" d="M322.154,69.563c.116-.514.2-1.06.364-1.581.215-.686.523-.915,1.24-.769a1.849,1.849,0,0,0,1.671-.5,9.443,9.443,0,0,1,5.614-1.855,3.623,3.623,0,0,1,1.67.428,2.409,2.409,0,0,1,1.129,2.734,13.421,13.421,0,0,1-1.525,3.952c-.5.877-.45.9.212,1.641a.737.737,0,0,1-.43,1.3c-.956.105-1.926.077-2.889.137a6.9,6.9,0,0,0-1.319.206c-1,.264-1.98.6-2.982.846-1.082.271-1.68-.2-1.827-1.266-.132-.956-.356-1.9-.526-2.849-.142-.794-.265-1.591-.4-2.425m2.413,1.047c.449-.045.853-.065,1.25-.129a10.542,10.542,0,0,1,4.416.024c.454.119.8.007.941-.423a16.21,16.21,0,0,0,.7-2.4c.137-.8-.155-1.115-.966-1.063a10.527,10.527,0,0,0-2.566.442,6.186,6.186,0,0,0-2.951,2.264c-.284.371-.506.789-.82,1.29m5.378,2.061a1.129,1.129,0,0,0-1.175-.6c-.64.068-1.285.119-1.917.233a6.323,6.323,0,0,0-2.279,1.094c.384.164.575.324.752.309a12.812,12.812,0,0,0,4.618-1.032" transform="translate(-79.9 -17.677)"/>
  <path id="パス_1894" data-name="パス 1894" d="M218.695,27.514a3.137,3.137,0,0,0,.551.2c.222.033.453,0,.678.02.372.03.735.119.777.57s-.3.638-.653.72a6.29,6.29,0,0,1-1.242.136,5.306,5.306,0,0,1-.768-.111c-.946-.117-1.311.1-1.64.967a1.074,1.074,0,0,0,.768,1.582,6.809,6.809,0,0,0,1.822.124c.9-.035,1.8-.16,2.706-.226.759-.056,1.072.081,1.144.453s-.212.661-.935.775c-1.4.219-2.814.419-4.229.556a3.431,3.431,0,0,1-3.152-1.571,1.6,1.6,0,0,1-.211-1.568,14.778,14.778,0,0,1,.578-1.439,1.154,1.154,0,0,0-.19-1.434,3.407,3.407,0,0,1-.972-3.46,3.26,3.26,0,0,0,.067-.48c.022-.468-.162-.675-.622-.621-.349.041-.685.191-1.033.251a.923.923,0,0,1-.652-1.728,5.325,5.325,0,0,1,1.774-.4,2.833,2.833,0,0,0,2.222-.951,1.7,1.7,0,0,1,2.575.044,2.864,2.864,0,0,0,2.076,1.069,10.475,10.475,0,0,1,1.611.348,1.353,1.353,0,0,1,.617.255,1.185,1.185,0,0,1,.391.7c0,.351-.356.424-.656.421-.42,0-.839-.049-1.259-.072-1.16-.063-2.319-.174-3.479-.168-1.253.006-2.287,1.917-1.7,3.042.228.435.528.569,1.055.283a3.477,3.477,0,0,1,2.366-.153,1.541,1.541,0,0,1,.7.3.731.731,0,0,1,.275.554c-.028.165-.263.335-.445.426-.292.146-.741-.02-.919.589" transform="translate(-50.131 -5.261)"/>
  <path id="パス_1895" data-name="パス 1895" d="M255.906,86.009a4.517,4.517,0,0,0-.961-.368,11.506,11.506,0,0,0-5.176.126,3.542,3.542,0,0,1-1.8-.061,1.079,1.079,0,0,1-.626-.744c-.037-.2.268-.579.511-.7a4.823,4.823,0,0,1,1.37-.417,13.487,13.487,0,0,1,6.711.268,12.35,12.35,0,0,1,1.879.77,1.219,1.219,0,0,1,.343,2.139,13.448,13.448,0,0,1-1.879,1.5c-1.037.716-2.138,1.34-3.161,2.074a4.817,4.817,0,0,0-1.926,2.936,1.429,1.429,0,0,0,1.091,1.853,4.141,4.141,0,0,0,1.053.145,13.734,13.734,0,0,0,4.322-.438c.7-.218,1.318-.009,1.455.4.144.431-.211.849-.955,1.149a12.516,12.516,0,0,1-6.011.663,4.7,4.7,0,0,1-2.9-1.641,2.1,2.1,0,0,1-.452-1.234,4.817,4.817,0,0,1,1.127-3.3,21.116,21.116,0,0,1,5.335-4.584c.179-.122.336-.274.647-.532" transform="translate(-59.879 -22.773)"/>
  <path id="パス_1896" data-name="パス 1896" d="M291.72,88.284a1.3,1.3,0,0,0-1.344-1.165,1.821,1.821,0,0,1-1.312-.521.82.82,0,0,1,.152-1.384c.27-.166.61-.215.893-.364.681-.357,1.362-.719,2.011-1.13a1.872,1.872,0,0,0,.547-.667,1.378,1.378,0,0,0-1.924-1.958c-.4.207-.787.454-1.2.63a.663.663,0,0,1-1.012-.53,1.425,1.425,0,0,1,.444-1.411,3.975,3.975,0,0,1,4.157-.514,3.127,3.127,0,0,1,1.513,3.631,10.138,10.138,0,0,1-1.128,2.339,1.382,1.382,0,0,0-.108,1.608,4.951,4.951,0,0,1,.485,1.159,2.161,2.161,0,0,0,1.86,1.611c.693.147,1.375.347,2.055.547.327.1.607.29.527.695a.729.729,0,0,1-.8.679c-.676-.045-1.352-.1-2.025-.175-.942-.1-.947-.054-1.434.737a8.17,8.17,0,0,1-1.346,1.635,1.863,1.863,0,0,1-2.257-.1,5.966,5.966,0,0,1-.994-.921,2.608,2.608,0,0,1,1.272-4.028c.247-.071.5-.132.743-.209.056-.017.1-.079.229-.194m.844,2.779c-.348-.165-.524-.319-.7-.317a.592.592,0,0,0-.572.72c.049.156.375.388.426.356a7.1,7.1,0,0,0,.845-.759" transform="translate(-70.9 -21.505)"/>
  <path id="パス_1897" data-name="パス 1897" d="M3.9,73.051c1.2-.162,2.182-.3,3.165-.426.706-.093,1.41-.192,2.118-.264,1.705-.174,3.412-.328,5.118-.5a33.309,33.309,0,0,1,7.744.222,1.317,1.317,0,0,1,.77.323,1.087,1.087,0,0,1,.185.784c-.015.116-.351.26-.548.273a17.323,17.323,0,0,1-2.038.046,60.032,60.032,0,0,0-11.61.709c-1.306.186-2.6.492-3.9.73a6.5,6.5,0,0,1-1.061.109,1,1,0,0,0-1.049.826c-.231.909-.419,1.829-.672,2.731a3.688,3.688,0,0,1-.521,1.122c-.27.381-.658.327-.8-.118A2.92,2.92,0,0,1,.7,78.388c.126-.9.345-1.779.509-2.669.116-.631.2-1.269.311-1.9a1.342,1.342,0,0,1,.182-.636,7.062,7.062,0,0,0,1.17-2.944C3.4,68.505,3.891,66.765,4.4,65.029a2.324,2.324,0,0,1,.1-.274c.2-.449.383-.974.966-.953a1.681,1.681,0,0,1,1.41.734c.392.6.311.939-.34,1.278a2.6,2.6,0,0,0-1.389,1.765C4.78,69.054,4.386,70.521,4.019,72A9.519,9.519,0,0,0,3.9,73.051" transform="translate(6.083 -17.39)"/>
  <path id="パス_1898" data-name="パス 1898" d="M126.644,24.02a6.1,6.1,0,0,1-1.056,3.58c-.779,1.223-1.714,2.348-2.609,3.495a2.363,2.363,0,0,1-.706.487c-.29.167-.609.293-.885-.01a.752.752,0,0,1-.1-.984,15.606,15.606,0,0,1,1.424-1.95,9.79,9.79,0,0,0,2.039-3.495,4.225,4.225,0,0,0,.092-2.008,1.926,1.926,0,0,0-2.758-1.267,1.242,1.242,0,0,0-.606,1.237,6.03,6.03,0,0,1-1.146,3.251,6.872,6.872,0,0,1-2.184,2.174,2.29,2.29,0,0,1-2.23.151,1.979,1.979,0,0,1-1.308-2.4c.367-2.35,1.892-3.817,3.786-5a8.149,8.149,0,0,1,1.278-.695,6.612,6.612,0,0,1,4.73-.253c1.536.534,2.258,1.8,2.238,3.692m-9.63,3.025a4.987,4.987,0,0,0,2.508-3c.086-.259-.065-.6-.108-.9-.3.05-.661.008-.884.165a5.962,5.962,0,0,0-1.894,2.293,1.045,1.045,0,0,0,.378,1.436" transform="translate(-24.349 -5.451)"/>
  <path id="パス_1899" data-name="パス 1899" d="M104.708,81.243c.633.085,1.274.152,1.908.265a2.074,2.074,0,0,1,.71.292c1.182.735,1.282,1.264.364,2.32-.739.852-1.579,1.616-2.311,2.473a38.237,38.237,0,0,0-2.519,3.189,1.624,1.624,0,0,0,1.014,2.643,6.47,6.47,0,0,0,2.781.237,5.057,5.057,0,0,1,1.253-.034c.191.019.49.2.514.34a1.148,1.148,0,0,1-.228.67.814.814,0,0,1-.38.289,6.292,6.292,0,0,1-6.042-.24,2.764,2.764,0,0,1-1.327-3.572,20,20,0,0,1,1.745-3.226,7.231,7.231,0,0,1,1.91-2.168,2.326,2.326,0,0,0,.554-.54c.136-.193.33-.559.259-.641a1,1,0,0,0-.714-.326,23.3,23.3,0,0,0-2.593.289,3.035,3.035,0,0,0-1.867.952,1.443,1.443,0,0,1-.38.3,1.33,1.33,0,0,1-1.781-.451c-.323-.553-.125-1.11.562-1.531a9.312,9.312,0,0,1,3.276-1.152c1.08-.192,2.181-.254,3.291-.375" transform="translate(-19.764 -22.144)"/>
  <path id="パス_1900" data-name="パス 1900" d="M349.464,84c-.453-.045-.741-.055-1.019-.106a1.083,1.083,0,0,1-.969-.826.913.913,0,0,1,.586-1.01,15.234,15.234,0,0,1,6.7-2.052,3.375,3.375,0,0,1,.58.043c1.758.24,2.39,1.235,1.674,2.871a9.238,9.238,0,0,1-1.505,2.237,10.109,10.109,0,0,1-1.814,1.593,1.194,1.194,0,0,1-1.728-.246c-.448-.513-.329-.955.226-1.346.866-.609,1.683-1.288,2.517-1.944a.683.683,0,0,0,.245-.295,1.688,1.688,0,0,0,.156-.877c-.046-.142-.494-.191-.767-.212a4.493,4.493,0,0,0-.869.061,1.212,1.212,0,0,0-1.189,1.037,18.7,18.7,0,0,1-1,2.075,13.447,13.447,0,0,0-.81,2.569c-.305,1.712-.5,3.445-.728,5.17-.109.81-.218,1.6.615,2.179.333.231.253.641.04.967a1.071,1.071,0,0,1-1.269.444,2.078,2.078,0,0,1-.746-.717,3.66,3.66,0,0,1-.422-2.344,47.511,47.511,0,0,1,1.3-7.829A10.548,10.548,0,0,0,349.464,84" transform="translate(-86.438 -21.806)"/>
  <path id="パス_1901" data-name="パス 1901" d="M67.634,80.987a4.264,4.264,0,0,0,.471,2.265c.24.607.522.658,1.032.274a.941.941,0,0,0,.144-.13c1.089-1.261,2.344-.965,3.627-.385.375.169.7.412.608.876-.086.416-.468.461-.829.541a9.946,9.946,0,0,0-1.843.514A3.048,3.048,0,0,0,69.4,86.326a7.644,7.644,0,0,1-1.8,2.134,4.788,4.788,0,0,0-1.161,1.523,1.715,1.715,0,0,0,1.107,2.547,6.363,6.363,0,0,0,2.194.175c.9-.053,1.79-.271,2.689-.381a2.025,2.025,0,0,1,.943.078c.535.208.549.715.071,1.03a.577.577,0,0,1-.086.046C71.2,94.4,69,95,66.662,94.271a3.537,3.537,0,0,1-2.033-5.437c.46-.732.985-1.425,1.5-2.123a2.459,2.459,0,0,0,.286-2.965,5.672,5.672,0,0,1-.968-3.4c.075-.943.309-1.328.921-1.341.713-.017,1.192.474,1.266,1.314.02.225,0,.452,0,.667" transform="translate(-10.821 -21.534)"/>
  <path id="パス_1902" data-name="パス 1902" d="M40.389,25.985c.074,2.369-1.026,4.381-1.964,6.434A.915.915,0,0,1,37.169,33a1.073,1.073,0,0,1-.426-1.427,2.306,2.306,0,0,1,.285-.506,9.4,9.4,0,0,0,1.544-6.645c-.057-.813-.4-1.251-1.184-1.288a6.881,6.881,0,0,0-2.175.317,1.6,1.6,0,0,0-.823.775,13.219,13.219,0,0,0-1.237,2.713,27.818,27.818,0,0,1-1.394,3.617,4.551,4.551,0,0,0-.442,2.16,3.012,3.012,0,0,1,0,.388c-.024.435-.079.866-.6.978a1.015,1.015,0,0,1-1-.768,4.513,4.513,0,0,1-.017-1.434,20.93,20.93,0,0,1,1.584-4.465,22.623,22.623,0,0,0,.786-2.49c.169-.672-.052-.893-.751-.847-.353.023-.7.145-1.053.159a2.567,2.567,0,0,1-.937-.113.808.808,0,0,1-.6-.8.8.8,0,0,1,.735-.775c.758-.16,1.519-.308,2.278-.469.82-.173,1.636-.359,2.457-.529a5.689,5.689,0,0,1,1.33-.217,19.567,19.567,0,0,1,2.7.272,2.352,2.352,0,0,1,2.06,2.247c.045.353.089.707.107,1.062s0,.709,0,1.064" transform="translate(-1.561 -5.816)"/>
  <path id="パス_1903" data-name="パス 1903" d="M235.174,86.37a8.945,8.945,0,0,0-2.68-.281,11.551,11.551,0,0,0-3.476,1.161c-.251.1-.425.457-.575.728s-.2.617-.356.9a1.1,1.1,0,0,1-1.241.538.85.85,0,0,1-.594-1c.442-2.254.938-3.93,3.656-4.13a39.626,39.626,0,0,1,5.031.015,5.047,5.047,0,0,1,1.9.64,1.015,1.015,0,0,1,.493,1.475,9.015,9.015,0,0,1-.687,1.388c-1.448,2.326-2.949,4.621-4.362,6.967-.6.99-1.022,2.081-1.525,3.126a6.147,6.147,0,0,1-.34.7.891.891,0,0,1-1.657-.654A12.384,12.384,0,0,1,229.7,95.4c1.138-1.989,2.387-3.913,3.583-5.868.6-.985,1.186-1.981,1.893-3.164" transform="translate(-54.234 -22.953)"/>
  <path id="パス_1904" data-name="パス 1904" d="M176.861,82.718a8.614,8.614,0,0,0,2.923-.167,7.163,7.163,0,0,1,2.4.135,1.3,1.3,0,0,1,1,2.052c-.524,1.1-1.191,2.134-1.816,3.185-.923,1.552-1.866,3.092-2.8,4.638a12.805,12.805,0,0,0-1.4,3.588,2.528,2.528,0,0,1-.162.455.978.978,0,0,1-1.857-.23,2.427,2.427,0,0,1,.113-1.131,27.142,27.142,0,0,1,1.469-3.264c1.149-2.019,2.41-3.973,3.594-5.973.244-.413.81-.863.4-1.375-.354-.442-.967-.209-1.468-.129-.284.046-.549.194-.832.256a7.377,7.377,0,0,1-1.5.265,1.042,1.042,0,0,0-1.122.714c-.259.693-.543,1.376-.817,2.064a4.089,4.089,0,0,1-.252.627.829.829,0,0,1-.916.4.755.755,0,0,1-.643-.638,1.4,1.4,0,0,1-.048-.479,7.794,7.794,0,0,1,1.329-3.9,2.551,2.551,0,0,1,2.4-1.1" transform="translate(-40.025 -22.489)"/>
  <path id="パス_1905" data-name="パス 1905" d="M274.01,78.512c.6.1,1.27.147,1.5.937.126.433.476.552.893.615a9.863,9.863,0,0,1,1.8.382,3.742,3.742,0,0,1,1.223.741.784.784,0,0,1,.089,1.067.686.686,0,0,1-.955.18,4.577,4.577,0,0,0-2.233-.546c-.8,0-1.1.23-1.13.871a1.129,1.129,0,0,0,1.084,1.327,14.8,14.8,0,0,0,1.643-.077c.192-.012.382-.09.572-.087.371.007.731.1.832.517a.7.7,0,0,1-.5.839,15.989,15.989,0,0,1-1.674.473c-.948.239-1.075.423-.812,1.351.183.649.412,1.285.618,1.929a1.382,1.382,0,0,1-.146,1.462c-.253.287-.576.388-.831.079a5.993,5.993,0,0,1-.821-1.283c-.322-.7-.551-1.447-.843-2.163-.322-.789-.468-.844-1.315-.825a3.119,3.119,0,0,1-1.22-.172,1.15,1.15,0,0,1-.58-.685c-.108-.394.22-.652.554-.808a5.308,5.308,0,0,1,.738-.227c.342-.1.706-.173.709-.653a1.183,1.183,0,0,0-.789-1.2c-.379-.067-.785,0-1.154-.093a1.946,1.946,0,0,1-.9-.473.724.724,0,0,1,.214-1.21,4.389,4.389,0,0,1,1.194-.358,1.019,1.019,0,0,0,.95-.917c.157-.845.477-1.048,1.3-.993" transform="translate(-65.984 -21.398)"/>
  <path id="パス_1906" data-name="パス 1906" d="M342.493,18.833c-.044.979.217,1.218,1.24.967.685-.168,1.348-.42,2.033-.58a1.605,1.605,0,0,1,.931.034.73.73,0,0,1,.287.644,1.027,1.027,0,0,1-.506.635,8.418,8.418,0,0,1-1.392.406c-.5.129-1.013.223-1.507.374-.564.172-.757.442-.615,1.015.248,1,.575,1.981.864,2.971a8.8,8.8,0,0,1,.365,1.393.727.727,0,0,1-.354.6.692.692,0,0,1-.631-.242,17.261,17.261,0,0,1-1.048-2.063c-.338-.8-.573-1.648-.9-2.455-.254-.624-.335-.617-1.04-.5a12.994,12.994,0,0,1-1.731.2,1.712,1.712,0,0,1-.911-.232.935.935,0,0,1-.451-1.086c.116-.409.479-.507.841-.535.644-.05,1.293-.047,1.936-.1.67-.061.776-.172.826-.83a12.135,12.135,0,0,0,.036-1.551c-.028-.538-.252-.729-.757-.562a3.975,3.975,0,0,0-1.344.714,1.557,1.557,0,0,1-1.885.194,1.38,1.38,0,0,1-.572-.815.692.692,0,0,1,.551-.808c1.139-.348,2.294-.646,3.44-.976a7.45,7.45,0,0,0,1.439-.482,1.537,1.537,0,0,1,2.146.329,8.1,8.1,0,0,0,1.274,1.022,1.828,1.828,0,0,1,.841,1.35c.041.344-.012.662-.382.8a.59.59,0,0,1-.8-.354,1.871,1.871,0,0,0-1.064-.935c-.634-.271-.986-.08-1.094.6-.041.255-.041.516-.066.863" transform="translate(-83.366 -4.052)"/>
  <path id="パス_1907" data-name="パス 1907" d="M362.336,18.751c1.135.138,2.286.274,3.433.423a1.981,1.981,0,0,1,.555.169c.943.431,1.06,1.039.332,1.768-1.345,1.346-2.719,2.665-4.032,4.042a7.715,7.715,0,0,0-1.22,1.726,1.675,1.675,0,0,0,1.336,2.574,32.628,32.628,0,0,0,3.676-.006c.255,0,.51-.108.765-.11,1.809-.011,3.618-.007,5.427-.007.1,0,.194.006.29.015.311.031.589.124.612.492.025.434-.29.543-.632.573q-2.27.2-4.542.38a39.622,39.622,0,0,1-5.323.175,3.91,3.91,0,0,1-3.023-1.488,2.4,2.4,0,0,1-.184-2.825,20.38,20.38,0,0,1,1.943-2.764c.735-.9,1.585-1.7,2.363-2.569.156-.175.357-.515.287-.639a1,1,0,0,0-.67-.442,8.3,8.3,0,0,0-4.576.324.918.918,0,0,1-.645.11,1.124,1.124,0,0,1-.563-.578.749.749,0,0,1,.216-.661,2.05,2.05,0,0,1,.959-.411c1.055-.125,2.118-.184,3.213-.272" transform="translate(-89.293 -5.111)"/>
  <path id="パス_1908" data-name="パス 1908" d="M318.644,32.621a6.713,6.713,0,0,1-3.766-1.208,2.566,2.566,0,0,1-1-2.571,10.723,10.723,0,0,1,1.211-3.46c.494-.907,1-1.806,1.48-2.723a1.942,1.942,0,0,0,.089-.631,2.676,2.676,0,0,0-.7-.064c-.7.12-1.384.3-2.081.42a1.5,1.5,0,0,1-.758-.089.731.731,0,0,1-.161-1.31,2.009,2.009,0,0,1,.706-.3,16.631,16.631,0,0,1,4.327-.452c1.1.049,1.413.63.883,1.592-.671,1.214-1.378,2.409-2.015,3.641a25.977,25.977,0,0,0-1.181,2.651,1.907,1.907,0,0,0,1.222,2.643,7.023,7.023,0,0,0,4.107.084,5.644,5.644,0,0,1,1.144-.145c.154,0,.42.157.44.275a.725.725,0,0,1-.183.583,2.129,2.129,0,0,1-.845.454c-.968.233-1.947.412-2.921.613" transform="translate(-77.359 -5.511)"/>
  <path id="パス_1909" data-name="パス 1909" d="M82.055,90.752c2.1,0,3.751.317,5.074,1.621a2.4,2.4,0,0,1,.468,3.393,6.08,6.08,0,0,1-3.807,2.649,2.9,2.9,0,0,1-1.423-.1.926.926,0,0,1-.733-.925c0-.511.391-.728.826-.81a6.779,6.779,0,0,0,2.719-1.232c.079-.057.16-.11.239-.167,1.045-.765.755-1.677-.2-2.225a3.72,3.72,0,0,0-3.006-.289c-.526.154-1.064.27-1.6.372a2.379,2.379,0,0,1-.678,0c-.769-.078-1.29-.522-1.285-1.078.005-.528.436-.9,1.234-1,.834-.1,1.675-.16,2.179-.207" transform="translate(-14.739 -24.736)"/>
  <path id="パス_1910" data-name="パス 1910" d="M277.576,27.966a3.885,3.885,0,0,1-1.879-.738,2.444,2.444,0,0,1-.752-2.373,1.771,1.771,0,0,1,1.339-1.6.971.971,0,0,1,1.085.107,1.062,1.062,0,0,0,1.173.148c.4-.124.8-.261,1.2-.359a1.542,1.542,0,0,1,1.607.395c.45.495.313,1.039.137,1.629a3.94,3.94,0,0,1-3.913,2.8" transform="translate(-67.284 -6.29)"/>
  <path id="パス_1911" data-name="パス 1911" d="M291.674,39.27c.93-.212,1.971-.427,3-.7.443-.116.824-.218,1.065.3.206.441.06.823-.443,1.13a1.58,1.58,0,0,1-.438.2c-2.031.482-4.062.845-6.1.023-.509-.205-1.04-.356-1.567-.512a6.6,6.6,0,0,1-3.66-3.01,1.914,1.914,0,0,1,.132-2.1.913.913,0,0,1,1.109-.36.844.844,0,0,1,.569.909c-.007.5-.164.989.231,1.476a3.97,3.97,0,0,0,1.878,1.458c.77.243,1.509.586,2.283.815.582.172,1.2.232,1.946.37" transform="translate(-69.491 -9.315)"/>
  <path id="パス_1912" data-name="パス 1912" d="M355.329,72.529c.959.129,1.924.233,2.876.4a1,1,0,0,1,.676.45,1.331,1.331,0,0,1-.048.908c-.135.344-.493.36-.837.312-.8-.111-1.595-.223-2.395-.311a10.336,10.336,0,0,0-4.838.768,6.3,6.3,0,0,0-1.612,1.029c-.679.543-1.039.634-1.425.22-.414-.444-.345-.986.167-1.528a4.258,4.258,0,0,1,1.931-1.242c1.8-.519,3.563-1.222,5.5-1.007" transform="translate(-86.438 -19.758)"/>
  <path id="パス_1913" data-name="パス 1913" d="M24.981,15.627A26.165,26.165,0,0,1,26.6,9.146c.268-.829.566-1.651.893-2.457.276-.682.661-.935,1.134-.852.556.1,1.482.855,1.45,1.285a1.177,1.177,0,0,1-.42.788,4.447,4.447,0,0,0-1.574,2.043A33.775,33.775,0,0,0,26.8,13.708a18.474,18.474,0,0,0-.354,2.58c-.02.159.006.324-.015.484-.044.339.029.785-.439.86s-.711-.282-.809-.676c-.108-.433-.138-.885-.2-1.329" transform="translate(-0.542 -1.587)"/>
  <path id="パス_1914" data-name="パス 1914" d="M342.169,35.917a13.524,13.524,0,0,1-3.949-1.165,16.406,16.406,0,0,1-2.429-1.4,30.524,30.524,0,0,1-2.65-2.543.872.872,0,0,1,.716-1.515c.226,0,.452.013.677.027.413.025.711.234.679.658-.073.955.549,1.473,1.183,1.974a14.961,14.961,0,0,0,5.521,2.718c.311.082.623.166.928.271s.578.3.442.625c-.07.17-.39.245-.608.34a2,2,0,0,1-.511.006" transform="translate(-82.456 -7.985)"/>
  <path id="パス_1915" data-name="パス 1915" d="M270.25,93.912a1.354,1.354,0,0,1,1.341.972,2.4,2.4,0,0,0,1.438,1.364q1.477.608,2.953,1.222a1.751,1.751,0,0,1,.527.234c.15.14.333.375.308.538a.827.827,0,0,1-.407.573,1.76,1.76,0,0,1-.951.071,11.856,11.856,0,0,1-4.191-1.438,16.628,16.628,0,0,1-2.1-1.849,1.087,1.087,0,0,1-.351-1.229c.135-.362.475-.483,1.437-.457" transform="translate(-65.624 -25.596)"/>
  <path id="パス_1916" data-name="パス 1916" d="M44.516,14.335a3.883,3.883,0,0,1-.041.5c-.1.364-.106.841-.61.864-.449.02-.527-.4-.632-.738a26.858,26.858,0,0,0-2.192-5.036A18.326,18.326,0,0,1,40.2,8.178.965.965,0,0,1,40.4,6.943a1.176,1.176,0,0,1,1.353.126,2.855,2.855,0,0,1,.565.978c.519,1.387,1.013,2.785,1.5,4.182.266.758.507,1.524.7,2.106" transform="translate(-4.656 -1.85)"/>
  <path id="パス_1917" data-name="パス 1917" d="M261.412,75.222a26.291,26.291,0,0,1,.579-2.918c.371-1.192,1.325-1.381,2.236-.543a.773.773,0,0,1,.127,1.192,5.265,5.265,0,0,0-.867,4.124c.019.127.052.252.072.38a.745.745,0,0,1-.485.849.656.656,0,0,1-.915-.294,6.171,6.171,0,0,1-.57-1.513,5.843,5.843,0,0,1-.017-1.253l-.159-.024" transform="translate(-63.684 -19.42)"/>
  <path id="パス_1918" data-name="パス 1918" d="M272.283,39.933a4.417,4.417,0,0,1,.2-.989c.587-1.4,1.206-2.78,1.835-4.158a1.366,1.366,0,0,1,1.416-.826.953.953,0,0,1,.7.379.828.828,0,0,1-.108.781c-1.28,1.109-1.573,2.709-2.143,4.168a3.613,3.613,0,0,0-.155.948c-.073.754-.379,1.159-.9,1.162-.5,0-.873-.569-.845-1.464" transform="translate(-66.589 -9.255)"/>
  <path id="パス_1919" data-name="パス 1919" d="M279.717,16.362c1,.083,1.992.156,2.985.256a4.1,4.1,0,0,1,.842.216.671.671,0,0,1,.517.73c-.045.42-.363.586-.755.609a2.236,2.236,0,0,1-.482-.028,11.933,11.933,0,0,0-5,.276,1.29,1.29,0,0,1-1.2-.123c-.676-.512-.642-1.059.158-1.353a12.081,12.081,0,0,1,1.961-.474,5.362,5.362,0,0,1,.967-.01l.007-.1" transform="translate(-67.607 -4.46)"/>
  <path id="パス_1920" data-name="パス 1920" d="M323.652,15.187c.281-1.52.553-3.042.847-4.56a.834.834,0,0,1,.75-.777,1.044,1.044,0,0,1,1.007.633.932.932,0,0,1,0,1.171c-1.21,1.412-1.143,3.076-.954,4.765a2.945,2.945,0,0,1,.1.472c-.015.238-.04.645-.146.674a1.017,1.017,0,0,1-.794-.114,1.606,1.606,0,0,1-.492-.8,11.83,11.83,0,0,1-.224-1.432l-.093-.028" transform="translate(-80.35 -2.684)"/>
  <path id="パス_1921" data-name="パス 1921" d="M270.663,72.415c-.068.326-.1.549-.16.767a6.391,6.391,0,0,0-.147,3.07c.106.467.193,1-.365,1.281-.37.188-.76-.106-1.1-.859a4.123,4.123,0,0,1-.4-1.285c-.093-1.03-.125-2.066-.136-3.1a1.1,1.1,0,0,1,.732-1.144,1.223,1.223,0,0,1,1.292.463,3.258,3.258,0,0,1,.282.807" transform="translate(-65.547 -19.38)"/>
  <path id="パス_1922" data-name="パス 1922" d="M303.011,7.1c-.111.143-.234.455-.447.54-.385.153-.575-.177-.685-.5a14.976,14.976,0,0,1-.555-1.756,8.377,8.377,0,0,0-1.8-3.6,2.475,2.475,0,0,1-.454-1.042.748.748,0,0,1,.258-.653.917.917,0,0,1,.791.015,2.1,2.1,0,0,1,.749.861c.717,1.724,1.714,3.343,1.984,5.235.036.255.087.508.156.9" transform="translate(-73.761)"/>
  <path id="パス_1923" data-name="パス 1923" d="M332,14.142c.156-1.085.258-2.083.458-3.062a3.387,3.387,0,0,1,.586-1.213.861.861,0,0,1,1.564.1,1.238,1.238,0,0,1-.06,1.542,4.788,4.788,0,0,0-1.11,3.035,5.474,5.474,0,0,1-.251,1.135c-.04.133-.2.326-.3.321-.161-.008-.412-.124-.455-.252-.182-.543-.3-1.106-.429-1.605" transform="translate(-82.225 -2.565)"/>
  <path id="パス_1924" data-name="パス 1924" d="M168.74,5.81a1.069,1.069,0,0,1,1.013,1,6.4,6.4,0,0,0,1.5,3.9.783.783,0,0,1,.081.692c-.156.308-.493.259-.766.1a1.975,1.975,0,0,1-.532-.41A9.258,9.258,0,0,1,168,7.407a3.029,3.029,0,0,1-.1-.862.746.746,0,0,1,.839-.735" transform="translate(-38.645 -1.583)"/>
  <path id="パス_1925" data-name="パス 1925" d="M290.357,33.347v-.193c0-.525.015-1.091.536-1.36a1.759,1.759,0,0,1,1.751.169c.461.275.537.631.14,1.018a1.519,1.519,0,0,0-.336,1.6,2.316,2.316,0,0,0,.1.273c.161.434.335.881-.188,1.192a1.127,1.127,0,0,1-1.417-.49,3.924,3.924,0,0,1-.581-2.211" transform="translate(-71.435 -8.621)"/>
  <path id="パス_1926" data-name="パス 1926" d="M296.721,30.957c1.07-.019,1.493.6,1.182,1.6a6.363,6.363,0,0,0-.151,1.5,3.8,3.8,0,0,0,.083.472c.029.386.092.818-.385.976a.8.8,0,0,1-.949-.493,5.256,5.256,0,0,1-.794-3.122.914.914,0,0,1,1.016-.93" transform="translate(-72.865 -8.438)"/>
  <path id="パス_1927" data-name="パス 1927" d="M43.638,91.948a4.013,4.013,0,0,1,2.708.356,1.141,1.141,0,0,1,.722,1.408.886.886,0,0,1-.784.842,15.91,15.91,0,0,1-4,.6,8.522,8.522,0,0,0-1.714.263c-.732.1-.9-.031-1.077-.76-.06-.25-.089-.508-.138-.761a.645.645,0,0,1,.447-.832,10.735,10.735,0,0,0,1.189-.626,5.073,5.073,0,0,1,2.645-.492" transform="translate(-4.454 -25.039)" fill="#fff"/>
  <path id="パス_1928" data-name="パス 1928" d="M47.329,89.436c-.639-.2-1.2-.346-1.736-.56a6.641,6.641,0,0,0-3.988-.26,6.317,6.317,0,0,1-.957.127c-.316.02-.7.077-.8-.339a1.071,1.071,0,0,1,.266-1.16c.412-.351.812-.719,1.252-1.031a2.31,2.31,0,0,1,.875-.386,8.1,8.1,0,0,1,4.387.242,1.242,1.242,0,0,1,1.011,1.442,3.074,3.074,0,0,1-.308,1.926" transform="translate(-4.578 -23.342)" fill="#fff"/>
  <path id="パス_1929" data-name="パス 1929" d="M18.029,92.922c-.273,1.328-.49,2.462-.749,3.588-.073.32-.128.745-.631.719a1.384,1.384,0,0,1-1.143-.9,3.341,3.341,0,0,1,.088-.851,9.62,9.62,0,0,0,.18-1.033c.04-.89.274-1.213,1.147-1.4.3-.065.619-.067,1.108-.115" transform="translate(2.043 -25.328)" fill="#fff"/>
  <path id="パス_1930" data-name="パス 1930" d="M16.883,89.538a4.6,4.6,0,0,1,.953-2.219.841.841,0,0,1,.749-.221.933.933,0,0,1,.5.615c.272,1.292-.631,2.091-2.2,1.824" transform="translate(1.665 -23.735)" fill="#fff"/>
  <path id="パス_1931" data-name="パス 1931" d="M13.862,87.921a3.411,3.411,0,0,1-.136,1.865c-.034.128-.277.254-.437.273-.092.011-.252-.177-.308-.308a1.268,1.268,0,0,1,.881-1.83" transform="translate(2.764 -23.964)" fill="#fff"/>
  <path id="パス_1932" data-name="パス 1932" d="M91.639,21.707a15.633,15.633,0,0,1,2.027.242c.748.194.874.7.274,1.177a3.344,3.344,0,0,1-1.473.642c-1.051.17-2.125.2-3.187.308-.418.041-.831.136-1.249.175a1,1,0,0,1-1.081-.885.815.815,0,0,1,.765-1.025c1.365-.242,2.737-.444,3.924-.634" transform="translate(-16.96 -5.917)" fill="#fff"/>
  <path id="パス_1933" data-name="パス 1933" d="M93.394,17.289a5,5,0,0,1,.577.049c.4.074.741.231.773.719a.958.958,0,0,1-.723,1.1,5.674,5.674,0,0,1-1.055,0c-1.477-.006-2.956-.037-4.432,0-.707.016-1.05-.07-1.106-.465-.053-.375.268-.7.874-.871a3.775,3.775,0,0,1,.471-.108c.255-.038.511-.067.768-.089,1.251-.111,2.5-.219,3.851-.336" transform="translate(-17.092 -4.712)" fill="#fff"/>
  <path id="パス_1934" data-name="パス 1934" d="M93.325,14.876c-.733-.063-1.469-.1-2.2-.2-.167-.023-.435-.267-.424-.39a.638.638,0,0,1,.39-.466c1.135-.205,2.277-.382,3.423-.514a1.284,1.284,0,0,1,.813.251c.2.145.435.459.4.657a.856.856,0,0,1-.574.528,7.233,7.233,0,0,1-1.344.054c-.161,0-.322,0-.482,0,0,.028,0,.056-.006.084" transform="translate(-17.974 -3.624)" fill="#fff"/>
  <path id="パス_1935" data-name="パス 1935" d="M3.349,25.5A13.486,13.486,0,0,1,3.5,20.4c.6.086.973-.24,1.412-.685a5.966,5.966,0,0,1,2.838-1.383,20.656,20.656,0,0,1,3.135-.626,6.971,6.971,0,0,1,2.19.233,1.3,1.3,0,0,1,.719.7,3.945,3.945,0,0,1,.3,1.312c.066.837.077,1.68.1,2.521.016.718-.141.917-.849,1.059-.412.084-.834.113-1.248.187a16.956,16.956,0,0,0-3.588.778,8.533,8.533,0,0,1-1.517.3c-.916.187-1.829.388-2.745.573-.3.061-.607.094-.9.137" transform="translate(5.402 -4.821)" fill="#fff"/>
  <path id="パス_1936" data-name="パス 1936" d="M13.974,33.706c-.09,1.162-.151,2.215-.262,3.263a.778.778,0,0,1-.8.7c-1.765.174-3.53.354-5.292.55-.575.065-1.141.211-1.715.281q-1.053.129-2.113.187a.614.614,0,0,1-.7-.635c-.025-.354-.031-.709-.034-1.064a.809.809,0,0,1,.637-.852,15.891,15.891,0,0,1,3.242-.93,18.254,18.254,0,0,0,2.225-.575c1.378-.323,2.763-.621,4.147-.92a4.188,4.188,0,0,1,.664,0" transform="translate(5.434 -9.184)" fill="#fff"/>
  <path id="パス_1937" data-name="パス 1937" d="M3.237,32.609c-.412-1.208-.306-1.547.733-1.953,1.317-.516,2.66-.962,3.993-1.437.425-.151.865-.27,1.274-.455a6.137,6.137,0,0,1,2.427-.583c.479-.012.954-.15,1.434-.2.807-.09,1.073.149,1.08.947a5.312,5.312,0,0,1-.038.579c-.129,1.268-.136,1.216-1.426,1.365-2.081.24-4.153.556-6.228.842a3.428,3.428,0,0,1-.668.1,3,3,0,0,0-2.16.674,1.322,1.322,0,0,1-.419.121" transform="translate(5.446 -7.621)" fill="#fff"/>
  <path id="パス_1938" data-name="パス 1938" d="M58.921,35.409c-.55,0-1.1,0-1.651,0A.752.752,0,0,1,56.4,34.7c-.08-.772-.18-1.545-.185-2.319-.005-.817.266-1.117,1.061-1.238,1.758-.268,3.515-.588,5.285-.719a21.4,21.4,0,0,1,3.575.2c.561.053.788.355.753.931-.045.741-.159,1.477-.251,2.215a1.016,1.016,0,0,1-.875.911,1.913,1.913,0,0,1-.19.039l-6.641.75c0-.02-.005-.04-.008-.06" transform="translate(-9.054 -8.286)" fill="#fff"/>
  <path id="パス_1939" data-name="パス 1939" d="M65.329,20.584c-1.453,0-2.91-.062-4.36.022a22.51,22.51,0,0,0-2.85.5c-.254.048-.5.152-.749.2a.487.487,0,0,1-.607-.345,1.74,1.74,0,0,1,.628-2.05,22.647,22.647,0,0,1,2.694-1.695,9.645,9.645,0,0,1,6.274-.513,1.121,1.121,0,0,1,1.005,1.032,12.986,12.986,0,0,1,.065,2.118c-.057.689-.331.866-1.033.887-.356.011-.712,0-1.069,0v-.158" transform="translate(-9.174 -4.474)" fill="#fff"/>
  <path id="パス_1940" data-name="パス 1940" d="M57.652,25.573c.543-.159,1.1-.275,1.625-.487a6.26,6.26,0,0,1,2.707-.618c1.224.062,2.454.011,3.682.023a4.886,4.886,0,0,1,.96.1.649.649,0,0,1,.585.67,16.876,16.876,0,0,1-.155,1.928c-.072.459-.386.622-.971.55-.767-.095-1.533-.22-2.294-.358A24.423,24.423,0,0,0,58,27.5c-.193.012-.385.06-.578.063-.719.009-.991-.255-1.026-.978-.049-1.018.18-1.234,1.258-1.01" transform="translate(-9.102 -6.668)" fill="#fff"/>
  <path id="パス_1941" data-name="パス 1941" d="M325.471,71.268c.315-.5.537-.919.821-1.29a6.19,6.19,0,0,1,2.951-2.264,10.563,10.563,0,0,1,2.566-.442c.81-.052,1.1.268.966,1.063a16.186,16.186,0,0,1-.7,2.4c-.145.431-.487.543-.942.423a10.55,10.55,0,0,0-4.415-.024c-.4.065-.8.084-1.25.129" transform="translate(-80.813 -18.335)" fill="#fff"/>
  <path id="パス_1942" data-name="パス 1942" d="M330.852,75.37a12.813,12.813,0,0,1-4.619,1.032c-.177.015-.368-.145-.752-.309A6.323,6.323,0,0,1,327.76,75c.632-.113,1.277-.165,1.917-.233a1.129,1.129,0,0,1,1.175.6" transform="translate(-80.826 -20.376)" fill="#fff"/>
  <path id="パス_1943" data-name="パス 1943" d="M293.609,95.5a7.129,7.129,0,0,1-.845.759c-.05.033-.376-.2-.425-.356a.592.592,0,0,1,.572-.72c.175,0,.351.152.7.317" transform="translate(-71.967 -25.944)" fill="#fff"/>
  <path id="パス_1944" data-name="パス 1944" d="M117.736,28.225a1.045,1.045,0,0,1-.378-1.436,5.962,5.962,0,0,1,1.894-2.293c.223-.157.586-.115.884-.165.042.3.194.638.108.9a4.987,4.987,0,0,1-2.508,3" transform="translate(-25.076 -6.632)" fill="#fff"/>
  <rect id="長方形_1686" data-name="長方形 1686" width="281.515" height="82.043" transform="translate(6.267)" fill="none"/>
</svg>
