<svg xmlns="http://www.w3.org/2000/svg" xmlns:xlink="http://www.w3.org/1999/xlink" width="304.84" height="64.673" viewBox="0 0 304.84 64.673">
  <defs>
    <clipPath id="clip-path">
      <rect id="長方形_1685" data-name="長方形 1685" width="304.84" height="64.673" fill="none"/>
    </clipPath>
  </defs>
  <g id="people01_written" transform="translate(-44.08 -2414.397)">
    <rect id="長方形_1792" data-name="長方形 1792" width="279.745" height="16.456" transform="translate(46.137 2421.331)" fill="#fff"/>
    <rect id="長方形_1791" data-name="長方形 1791" width="300.315" height="16.456" transform="translate(46.137 2454.243)" fill="#fff"/>
    <g id="グループ_3454" data-name="グループ 3454" transform="translate(44.08 2414.397)">
      <g id="グループ_3451" data-name="グループ 3451" transform="translate(0 0)">
        <g id="グループ_3447" data-name="グループ 3447" transform="translate(0 0)" clip-path="url(#clip-path)">
          <path id="パス_1804" data-name="パス 1804" d="M110.934,73.35c-.68.169-1.358.357-2.044.5-1.065.226-2.133.439-3.2.626a.769.769,0,0,0-.743.815,11.206,11.206,0,0,0,.738,3.838c.605-.183,1.057-.913,1.817-.6.434.177.874.343,1.293.551.093.046.113.244.208.474-.383.107-.7.224-1.036.285a1.419,1.419,0,0,0-1.2,2.013,11.332,11.332,0,0,0,2.492,4.241,5.657,5.657,0,0,0,1.1.876c.483.289.7.216,1.064-.23.278-.342.512-.724.81-1.047.191-.208.525-.183.535.119a3,3,0,0,1-.623,2.229,1.748,1.748,0,0,1-1.923.588,4.068,4.068,0,0,1-1.537-1,13.872,13.872,0,0,1-2.889-4.095,2.925,2.925,0,0,0-.462-.6,5.707,5.707,0,0,0-1.861,2.552c-.07.343-.171.547-.531.574s-.535-.187-.658-.481a1.113,1.113,0,0,1,.153-1.158c.659-.94,1.265-1.917,1.917-2.862a1.063,1.063,0,0,0,.13-1c-.185-.59-.382-1.18-.529-1.781s-.224-1.209-.356-1.81c-.144-.657-.295-1.314-.5-1.955a.6.6,0,0,0-.485-.263c-.381.006-.758.111-1.139.15-1.583.161-3.168.3-4.749.474-1.317.148-2.63.337-3.943.515-.817.111-1.63.262-2.449.349-1.072.113-1.3.309-1.486,1.386-.086.494-.216.979-.3,1.473-.059.366-.07.739-.114,1.244.406-.118.676-.208.952-.273.916-.219,1.825-.488,2.753-.622.794-.115,1.254.153,1.205.556-.071.59-.612.53-1.02.648-1.1.321-2.219.612-3.3.991a1.727,1.727,0,0,0-1.053,1.337c-.262,1.207-.476,2.426-.664,3.647-.125.815-.18,1.641-.244,2.464a2.507,2.507,0,0,0,.056.79c.11.438.356.538.795.374.162-.06.321-.13.487-.179.04-.012.1.046.152.071a1.52,1.52,0,0,1-1.246,1.334,1.046,1.046,0,0,1-1.286-.686,3.85,3.85,0,0,1-.327-1.616c.1-1.527.278-3.049.464-4.569.088-.721.262-1.431.425-2.29-1.112.309-2.133.555-3.128.879-.835.271-1.643.629-2.46.957a.85.85,0,0,1-1.1-.241.769.769,0,0,1,.49-.992c.723-.327,1.475-.592,2.223-.86.549-.2,1.111-.357,1.663-.533a13.311,13.311,0,0,1-.616-2.08,13.363,13.363,0,0,1,.061-3.775,43.3,43.3,0,0,0,.27-4.753,1.115,1.115,0,0,0-.1-.334c-.654-.269-1.352.267-2.015-.142a1.261,1.261,0,0,1,.993-1.117q.518-.111,1.042-.184c1.05-.147,2.1-.31,3.154-.421q1.67-.177,3.349-.257a2.034,2.034,0,0,1,.928.227.636.636,0,0,1,.258.495c0,.111-.211.3-.351.323-.723.14-1.453.248-2.182.352-.934.133-1.872.239-2.8.38-.668.1-.9.318-.909.976-.026,1.442-.213,1.634,1.4,1.593.29-.008.58,0,.982,0,.071-.854.138-1.657.206-2.468a.814.814,0,0,1,1.053.65c.111.422.087.879.176,1.31a2.725,2.725,0,0,0,.35.962c.447.663.469.657-.1,1.224a.96.96,0,0,0-.139.217.242.242,0,0,0-.01.086c.843.412,4.317-.166,5.656-.985a8.864,8.864,0,0,0-.472-.788,2.218,2.218,0,0,1-.654-1.673.4.4,0,0,0-.553-.475c-.5.143-.992.33-1.485.5-.082.028-.15.1-.231.127a.93.93,0,0,1-1.112-.281c-.192-.329-.044-.785.476-.99a16.459,16.459,0,0,1,2.449-.735,11.7,11.7,0,0,1,2.02-.227.765.765,0,0,0,.811-.755,14.006,14.006,0,0,0,.168-1.672,3.22,3.22,0,0,1,.237-1.639c.067-.118-.008-.335-.057-.494-.1-.32-.077-.644.237-.76a1.071,1.071,0,0,1,.811.048.755.755,0,0,1,.258.658,18.367,18.367,0,0,1-.98,4.121c-.023.046,0,.113,0,.209l5.436-.393a12.024,12.024,0,0,1-.3-1.492,7.636,7.636,0,0,1,.014-2c.1-.521.673-.363,1.063-.348.414.014.851.1.992.568.028.093-.206.353-.359.4-.511.144-.556.477-.429.891a40.612,40.612,0,0,1,1,5.831c.111.728.2.779.922.646,1.335-.249,2.679-.451,4-.742a8.511,8.511,0,0,1,2.6-.436,1.589,1.589,0,0,1,.524.035c.223.111.51.27.576.471a.887.887,0,0,1-.235.675,4.465,4.465,0,0,1-.805.689c-.561.41-.7.346-.915-.426M97.15,74a30.625,30.625,0,0,0,5.674-.824c.053-.144.1-.2.09-.252-.081-.521-.179-1.04-.255-1.562-.157-1.081-.264-1.2-1.355-1.307a4.425,4.425,0,0,0-.792.025q-1.935.155-3.868.318a3.692,3.692,0,0,0-1.4,1.042.428.428,0,0,0-.011.26,6.832,6.832,0,0,0,.483,1.027.472.472,0,0,0,.818.074c.5-.6,1.379-.833,1.6-1.694.026-.1.149-.179.244-.245a.6.6,0,0,1,.808.019.524.524,0,0,1,.061.723,4.585,4.585,0,0,1-.506.72c-.468.518-.96,1.014-1.591,1.676M86.363,76.641c-.145.01-.321.014-.5.035-.875.1-1.049.289-1.031,1.181.013.616.068,1.231.122,1.846a2.187,2.187,0,0,0,.14.6,1.135,1.135,0,0,0,1.121.674c.561-.089.744-.316.825-.947.078-.61.191-1.216.273-1.826A9.363,9.363,0,0,0,87.4,77.15a.449.449,0,0,0-.48-.507c-.176-.006-.352,0-.56,0M85.173,75.4c.346-.03.6-.057.857-.071s.526-.013.789-.021c.915-.029,1.031-.215.693-1.185-.592,0-1.2-.006-1.809,0a.482.482,0,0,0-.527.475c-.019.229,0,.46,0,.8" transform="translate(-33.533 -26.835)"/>
          <path id="パス_1805" data-name="パス 1805" d="M150.643,79.38c.223-1.255.221-1.275,1.5-1.387,1.35-.118,2.7-.188,4.054-.288,1.029-.077,2.056-.171,3.084-.249.792-.062,1.587-.1,2.379-.172.848-.077,1.694-.181,2.541-.27a2.126,2.126,0,0,1,.354-.005c.572.035.943.342.911.749-.029.379-.617.942-1.014.813-1.236-.4-2.388.2-3.587.209s-2.4.2-3.606.307a13.168,13.168,0,0,1-1.5.071,1.9,1.9,0,0,0-1.9,1.18c-.113.23-.219.465-.361.767a12.476,12.476,0,0,0,2.777.072,11.251,11.251,0,0,1,1.938.015,33.234,33.234,0,0,1,3.545.756,4.405,4.405,0,0,1,1.467.792,2.756,2.756,0,0,1,.919,2.807,19.99,19.99,0,0,1-1.005,3.1c-.154.438-.369.854-.556,1.281a1.531,1.531,0,0,1-.108.24,3.833,3.833,0,0,1-3.809,1.288.982.982,0,0,1-.383-.212c-.747-.771-1.482-1.553-2.3-2.411-.173.148-.444.358-.69.594-.745.716-1.478,1.443-2.218,2.164-.127.124-.241.3-.394.347-.231.07-.563.144-.716.032a.835.835,0,0,1-.167-.688,1.216,1.216,0,0,1,.385-.576c1.118-1.09,2.259-2.159,3.37-3.257.395-.39.729-.843,1.086-1.273.6-.723,1.16-1.483,1.8-2.166.78-.828,1.741-.607,2.667-.419a.559.559,0,0,1-.436.744c-1.689.588-2.517,2.069-3.519,3.369a.924.924,0,0,0-.024,1.08,2.781,2.781,0,0,0,3.08,1.393,1.485,1.485,0,0,0,.73-.565,12.656,12.656,0,0,0,1.463-2.9,3.557,3.557,0,0,0,.147-2,1.37,1.37,0,0,0-.775-1.116,19.972,19.972,0,0,0-1.973-.715c-.363-.112-.763-.1-1.13-.2a1.575,1.575,0,0,0-1.614.463c-1.062,1.023-2.1,2.074-3.187,3.068-.332.3-.231.611-.2.926-.1.078-.164.156-.241.178-.439.126-.886.212-1.2-.235a1.02,1.02,0,0,1,.3-1.271c.768-.775,1.575-1.511,2.354-2.275.225-.22.412-.48.628-.734a2.64,2.64,0,0,0-2.589.168c-.045.037-.076.118-.12.124-1.133.13-1.525,1.138-2.1,1.866-.763.97-1.375,2.059-2.047,3.1a3.466,3.466,0,0,0-.189.477l.652.314a1.111,1.111,0,0,1-1.227.761.808.808,0,0,1-.8-.88,1.688,1.688,0,0,1,.154-.773c.494-.869,1.015-1.724,1.554-2.566,1.142-1.783,2.7-3.281,3.594-5.237a6.355,6.355,0,0,1,.588-.857,2.318,2.318,0,0,0-1.862.4,18.848,18.848,0,0,1-2.972,1.731c-1.471.741-2.974,1.421-4.473,2.1a2.7,2.7,0,0,1-.853.175.626.626,0,0,1-.755-.462.649.649,0,0,1,.444-.776c.728-.317,1.473-.6,2.211-.89a1.307,1.307,0,0,1,.173-.038c1.172-.285,1.22-.365.847-1.477-.128-.38-.172-.908-.443-1.088s-.776-.017-1.178,0c-.148.006-.3.019-.442.031-.325.027-.619-.055-.7-.4-.087-.39.173-.6.513-.708.5-.167,1.008-.329,1.634-.533,0-.217.02-.5,0-.786a1.85,1.85,0,0,1,.543-1.364c.38-.443.913-.19,1.467-.1-.074.2-.085.421-.191.487-.674.415-.715.951-.308,1.689.411-.034.871-.081,1.332-.108a12.556,12.556,0,0,1,1.5-.039c.147.009.339.222.4.382.033.089-.139.344-.264.386a13.438,13.438,0,0,1-1.781.5c-.93.173-.97.182-.955,1.119.006.342.033.684.055,1.1l3.726-1.256" transform="translate(-59.659 -31.489)"/>
          <path id="パス_1806" data-name="パス 1806" d="M346.176,12.285c.571-.039,1.026-.08,1.483-.1a17.325,17.325,0,0,1,2.029-.041,2.332,2.332,0,0,1,2.124,2.314,6.694,6.694,0,0,1-.164,1.4c-.394,1.9-.811,3.8-1.215,5.7a2.4,2.4,0,0,0,0,.423l1.18.118.069.16a3.948,3.948,0,0,1-.593.407c-.67.3-1.346.6-2.032.857a2.955,2.955,0,0,1-.849.149,7.369,7.369,0,0,0-1.213.035,34.535,34.535,0,0,1-4.983.745c-1.935.186-3.856.522-5.791.718a29.489,29.489,0,0,1-6.447-.135,3.824,3.824,0,0,1-.437-.066c-.34-.081-.607-.231-.6-.644.008-.372.26-.487.557-.586a11.319,11.319,0,0,0,1.654-.6,2.582,2.582,0,0,0,1.561-2.552,25.464,25.464,0,0,1,.09-2.556c.05-.87-.3-1.272-1.165-1.278a1.719,1.719,0,0,1-.612-.012.905.905,0,0,1-.457-.438.371.371,0,0,1,.335-.515,7.625,7.625,0,0,1,1.747-.1c.686.084.907.553.962,1.236a27.946,27.946,0,0,0,.19,3.52,2.993,2.993,0,0,1-.9,2.912,2.535,2.535,0,0,0-.224.271c.829.465,4.512.384,6.087-.139a5.074,5.074,0,0,0-.32-.7,7.944,7.944,0,0,1-1.13-3.773c-.1-1.175-.175-2.352-.217-3.531a4.258,4.258,0,0,1,.172-1.216c.268-1.018.705-1.13,1.583-.392-.985,1.659-.275,3.429-.249,5.16a7.123,7.123,0,0,0,1.16,3.4,1.393,1.393,0,0,0,1.583.791c1.372-.186,2.761-.251,4.136-.427,1.018-.13,2.024-.36,3.036-.537a.814.814,0,0,0,.628-.672c.25-.846.5-1.695.688-2.555.283-1.264.521-2.537.772-3.809.241-1.223-.189-1.832-1.45-1.83a26.518,26.518,0,0,0-3.7.263,17.106,17.106,0,0,0-4.328,1.214c-.621.267-1.183.534-1.251,1.3-.777-.209-1.046-.79-.583-1.369a3.447,3.447,0,0,1,1.233-.953c.989-.449,2.024-.794,3.092-1.2-.007-.136,0-.306-.026-.472-.161-1.136-.349-2.269-.483-3.409-.075-.634.183-.874.847-.976a3.2,3.2,0,0,1,1.9.2,8.483,8.483,0,0,0,1.047.331l.772-1.909a1.919,1.919,0,0,0-.5-.193,16.914,16.914,0,0,0-5.329.69,2.048,2.048,0,0,0-1.061,1.783,5.021,5.021,0,0,0,.752,2.6,6.1,6.1,0,0,1,.523,1.021.6.6,0,0,1-.12.543.583.583,0,0,1-.545-.072,3.983,3.983,0,0,1-1.377-1.807,6.607,6.607,0,0,1-.218-4,1.062,1.062,0,0,1,.63-.774,14.391,14.391,0,0,1,5.662-1.2c.413,0,.828-.07,1.238-.043a3.41,3.41,0,0,1,1.111.22.9.9,0,0,1,.582,1.288,15.645,15.645,0,0,1-.773,1.971c-.517,1.09-1.086,2.156-1.628,3.235-.075.149-.124.311-.239.606m-.208-2.82a7.921,7.921,0,0,0-.782-.23c-.707-.124-.933.038-.969.749a17.1,17.1,0,0,0,0,1.944c.012.182.214.474.355.491a.649.649,0,0,0,.515-.342c.311-.821.565-1.662.878-2.613" transform="translate(-138.075 -3.751)"/>
          <path id="パス_1807" data-name="パス 1807" d="M268.216,13.155c.193-1.343,1.188-1.645,2.146-1.946.728-.229,1.484-.375,2.231-.538,1.186-.259,1.263-.331,1.168-1.525-.042-.539.147-1.087-.219-1.622-.213-.311.12-.7.519-.73a.88.88,0,0,1,.962,1.044c-.093.784-.148,1.573-.23,2.485a15.347,15.347,0,0,0,2.787-.216,8.451,8.451,0,0,1,3.511-.075c1.123.251,1.8.682.934,2.3-.974,1.808-2.507,3.115-3.813,4.624a1.633,1.633,0,0,1-.766.565c-.742.16-.783.661-.8,1.37.885-.207,1.709-.38,2.521-.6a1.5,1.5,0,0,1,1.276.106c.417.271.426.669-.015.895a5.738,5.738,0,0,1-1.166.4q-2.183.567-4.374,1.1a2.714,2.714,0,0,0-1.452.953c-.354.419-.32.663.165.9a14.062,14.062,0,0,0,5.776,1.808,1.725,1.725,0,0,1,.439.047.461.461,0,0,1,.221.818,1.2,1.2,0,0,1-.676.372,7.623,7.623,0,0,1-2.011-.018,11.53,11.53,0,0,1-3.678-1.477,9.1,9.1,0,0,1-1.034-.857c-.063.048-.191.1-.233.184q-1.194,2.508-2.367,5.028a6.844,6.844,0,0,0-.3.918c-.085.286-.246.473-.566.449a.5.5,0,0,1-.5-.524,2.63,2.63,0,0,1,.125-1.035,27.477,27.477,0,0,1,2.27-4.98,8.439,8.439,0,0,0,.667-1.783c-.425.114-.691.2-.963.253a5.334,5.334,0,0,1-1.05.126.605.605,0,0,1-.473-.278.782.782,0,0,1,.151-.55.722.722,0,0,1,.365-.235,14.051,14.051,0,0,1,2.087-.709c.878-.168,1.135-.723,1.261-1.506a1.545,1.545,0,0,0-1.2.167c-.162.065-.32.245-.463.229a3.8,3.8,0,0,1-.789-.259c.112-.217.172-.5.348-.639a4.591,4.591,0,0,1,2.213-1.022c.419-.053.647-.267.488-.838-.917.08-1.883-.128-2.7.583a.825.825,0,0,1-1.158-.139.742.742,0,0,1,.327-1.043c.738-.285,1.51-.48,2.271-.7.139-.041.294-.029.437-.06.453-.1.9-.205,1.357-.309a4.938,4.938,0,0,0,.336-1.883c-.04-.2-.008-.553.111-.618a.983.983,0,0,1,.73-.017,3.1,3.1,0,0,1,.686.481c-.09.463-.541.665-.414,1.174s.182.924.742,1.177a1,1,0,0,1,.549,1.263c-.118.467-.376.568-.762.291-.094-.068-.163-.172-.257-.241a1.457,1.457,0,0,0-.267-.118,1.328,1.328,0,0,0-.252.219,2.155,2.155,0,0,0-.164.4l1.435.654c.289-.386.573-.788.882-1.17.757-.937,1.528-1.865,2.288-2.8a3.137,3.137,0,0,0,.4-.568c.219-.443.407-.9.623-1.388a2.259,2.259,0,0,0-1.607-.277c-1.382.1-2.764.222-4.139.395-1.255.157-2.5.39-3.747.6a3.976,3.976,0,0,0-.683.182c-.755.271-1.531.526-1.645,1.522h-1.109a7.313,7.313,0,0,0,.433,3A8.987,8.987,0,0,1,268.874,18a.428.428,0,0,1-.109.383.545.545,0,0,1-.4.024.566.566,0,0,1-.282-.2,4.169,4.169,0,0,1-.769-1.058,21.81,21.81,0,0,1-.964-5.1c-.031-.316.055-.643.4-.686a1.157,1.157,0,0,1,.8.187c.15.124.16.466.159.71,0,.443-.024.443.5.892m7.383,5.221c-.815.05-1,.221-1.028.967,1.042,0,1.216-.167,1.028-.967" transform="translate(-111.867 -4.521)"/>
          <path id="パス_1808" data-name="パス 1808" d="M195.54,32.613c-.884-.024-1.678.009-2.458-.078A7.878,7.878,0,0,1,189,31.269a2.829,2.829,0,0,1-1.225-2.241,4.9,4.9,0,0,0-.107-.612,5.167,5.167,0,0,0-1.857.124c-.143.016-.3.141-.418.106a.981.981,0,0,1-.548-.329c-.132-.219.015-.4.248-.565a3.3,3.3,0,0,1,2.128-.689,1.23,1.23,0,0,0,1.326-.92c.492-1.291.992-2.584,1.579-3.834a8.291,8.291,0,0,1,1.179-1.634.738.738,0,0,1,.562-.171,17.172,17.172,0,0,0,3.6-.255,6.74,6.74,0,0,1,4.4,1.017,2.119,2.119,0,0,1,.909,2.168c-.055.58-.151,1.156-.244,1.851a16.422,16.422,0,0,0,2.515-.188,20.644,20.644,0,0,1,2.54-.275,2.244,2.244,0,0,1,.745.258,2.1,2.1,0,0,1-1.471.918c-1.208.268-2.42.527-3.637.748a1.987,1.987,0,0,0-1.736,1.286c-.379,1.013-.865,1.985-1.336,3.044a1.656,1.656,0,0,0,.468.1,23.319,23.319,0,0,0,5.439-1.148.886.886,0,0,1,.426-.093c.16.023.386.089.442.2a.623.623,0,0,1,0,.554,4.219,4.219,0,0,1-.982.722,11.724,11.724,0,0,1-3.842.964c-.611.089-1.23.147-1.847.175a1.586,1.586,0,0,0-1.346.713c-.329.488-.675.965-1.011,1.448-.5.725-.984,1.468-1.516,2.172-.463.613-.984.745-1.337.416-.3-.276-.183-.742.364-1.3a10.558,10.558,0,0,0,2.006-2.883,3.3,3.3,0,0,0,.12-.5m-5.917-5.795a9.791,9.791,0,0,0,3.891-.316,1.434,1.434,0,0,0,.789-.64,10.476,10.476,0,0,0,1.029-3.269,7.29,7.29,0,0,0,.007-1.023,21.519,21.519,0,0,0-2.565.267,2.644,2.644,0,0,0-1.151.756,3.556,3.556,0,0,0-.577.987q-.623,1.269-1.216,2.554a5.656,5.656,0,0,0-.208.684m6.043-.778c.176.071.259.137.335.129.408-.039.814-.1,1.221-.148,1.968-.221,1.908-.174,2.224-2.12.214-1.317-.074-1.756-1.355-2.123-.3-.086-.619-.123-.833-.164-.159.4-.276.7-.4.995-.1.24-.221.47-.3.715-.224.666-.432,1.337-.649,2.005-.077.236-.158.47-.24.712m2.664,1.345a11.072,11.072,0,0,0-3.3.442.72.72,0,0,0-.374.353,4.444,4.444,0,0,0-.574,2.377c.062.63.143.713.756.717a7.477,7.477,0,0,0,.882-.06,1.86,1.86,0,0,0,1.868-1.738,10.421,10.421,0,0,1,.441-1.333c.075-.213.164-.421.3-.759m-5.142.6c-1.27.117-2.434.216-3.6.334-.4.04-.526.318-.51.689a1.666,1.666,0,0,0,1.165,1.513,15.466,15.466,0,0,0,2.188.627,1.25,1.25,0,0,0,.53-.077c.077-1.069.146-2.013.223-3.086" transform="translate(-77.618 -10.154)"/>
          <path id="パス_1809" data-name="パス 1809" d="M18.347,11.636c-.132-.1-.31-.161-.354-.275a3.8,3.8,0,0,1-.14-.714c.249-.027.531-.142.741-.064a1.246,1.246,0,0,1,.715,1.136c.05.373.095.747.152,1.2a5.836,5.836,0,0,0,.744-.095c.769-.208,1.524-.474,2.3-.643a6.883,6.883,0,0,1,1.747-.172c.686.031.872.346.839,1.133-.049.03-.107.093-.147.084a3.738,3.738,0,0,0-2.235.22c-.688.26-1.408.437-2.119.635a1.348,1.348,0,0,0-1.05,1.268,9.816,9.816,0,0,0-.045,2.935c.3,0,.559.007.815,0,1.032-.034,2.065-.115,3.1-.1a2.017,2.017,0,0,1,2.2,1.758,1.547,1.547,0,0,0,.446.7c.553.483.651,1.052.07,1.452a3.392,3.392,0,0,0-1.285,1.937,11.087,11.087,0,0,1-.759,1.534.224.224,0,0,0,.025.114c.512.808.513.837-.336,1.2-.814.345-1.664.614-2.457,1-1.49.726-3.1,1.105-4.64,1.676-.191.071-.364.2-.557.264a6.03,6.03,0,0,1-.925.261c-.307.053-.6-.005-.7-.37a.583.583,0,0,1,.335-.735c.263-.128.549-.209.82-.321.919-.379,1.836-.763,2.794-1.161-.208-.9-.4-1.72-.607-2.63-.465.1-.924.161-1.363.294-1.153.353-2.3.721-3.442,1.114a1.772,1.772,0,0,0-1.021.8,1.248,1.248,0,0,1-1.5.257c-.369-.238-.376-.7.061-1.034a10.277,10.277,0,0,1,1.5-.931,18.158,18.158,0,0,1,4.505-1.551,3.587,3.587,0,0,0,.589-.187c.738-.3.719-.3.738-1.1.014-.617.087-1.231.123-1.848a3.683,3.683,0,0,0-.028-.474c-.1-.058-.161-.119-.2-.11a7.1,7.1,0,0,0-3.494,1.56c-.447.418-.438.425-.076,1.013a1.643,1.643,0,0,1,.1.312c-.2.057-.4.182-.567.149a1.52,1.52,0,0,1-1.036-1,.862.862,0,0,1,.341-1.018A8.34,8.34,0,0,1,16.71,19.05c.086-.02.173-.036.258-.062,1.046-.321,1.089-.374,1.155-1.47.043-.707.084-1.413.117-2.12a2.65,2.65,0,0,0-.08-.456,7.472,7.472,0,0,0-.751.129c-1.25.35-2.495.72-3.747,1.061a2.471,2.471,0,0,1-.955.1.685.685,0,0,1-.474-.419.658.658,0,0,1,.244-.582,12.475,12.475,0,0,1,1.73-.649c1.042-.314,2.1-.587,3.145-.884a.943.943,0,0,0,.78-.94,7.912,7.912,0,0,1,.215-1.118m.916,11.187c.668-.179,1.2-.312,1.729-.464.675-.194,1.346-.4,2.019-.606.253-.076.513-.132.759-.226a.882.882,0,0,0,.581-1.257,1.091,1.091,0,0,0-1.081-.756q-1.278-.034-2.557-.02a1.284,1.284,0,0,0-1.431,1.146,15.844,15.844,0,0,0-.02,2.182m4.472.439-.162-.23c-.986.255-1.98.483-2.956.772a1.473,1.473,0,0,0-1.242,1.829c.094,1.279.383,1.458,1.531.943.321-.144.647-.28.963-.435a.976.976,0,0,0,.427-.286c.495-.855.962-1.727,1.438-2.593" transform="translate(-4.296 -6.102)"/>
          <path id="パス_1810" data-name="パス 1810" d="M291.134,61.646c-1.236.193-1.112,1.13-1.262,2.024a7.883,7.883,0,0,0,2.051-.294,9.771,9.771,0,0,1,1.467-.293c.43-.039.693-.213.691-.632,0-.636.257-1.267-.042-1.917-.176-.385.114-.643.511-.488a1.142,1.142,0,0,1,.834,1.038c.019.5,0,.995,0,1.491.8.085.9.021,1.037-.659a12.728,12.728,0,0,1,.258-1.3c.069-.221.266-.537.44-.562a3.008,3.008,0,0,1,1.1.14.722.722,0,0,1-.021.528,1.625,1.625,0,0,0-.3,1.4c.759.1.841.038,1.006-.507.159-.529.38-1.039.543-1.567.108-.351.245-.614.673-.485a.814.814,0,0,1,.556.9,3.765,3.765,0,0,1-.19.494,2.261,2.261,0,0,0-.114.425,1.465,1.465,0,0,0,.072.367c.6-.115,1.193-.22,1.782-.345.354-.075.73-.176,1,.124a1.188,1.188,0,0,1,.334.752c-.011.182-.3.44-.512.5a12.023,12.023,0,0,1-2.071.447,1.9,1.9,0,0,0-1.691,1.226c-.347.836-.643,1.694-.984,2.6.794,0,1.494.049,2.184-.009,2.086-.175,4.168-.411,6.255-.582,1-.083,1.223.177,1.217,1.32-1.161.184-2.148,1.054-3.4,1.021l-.083-.182.834-.549a4.451,4.451,0,0,0-.641,0,49.942,49.942,0,0,1-6.43.563c-1.441.064-2.875.293-4.315.421-.763.067-1.542.008-2.3.121-1.424.214-2.836.507-4.251.778a3.815,3.815,0,0,0-.846.245,1.265,1.265,0,0,0-.528.411c-.44.665-.861.758-1.486.265a2.014,2.014,0,0,1-.275-.331c.421-1.017,1.4-1.275,2.222-1.646a19.972,19.972,0,0,1,2.684-.8L288.1,65.72c-.621.078-1.271.039-1.592.79a.41.41,0,0,1-.668.153.647.647,0,0,1-.128-.611c.429-.762.863-1.5,1.893-1.645.895-.129.882-.209,1.013-1.119.08-.554.15-1.11.25-1.661.071-.391.241-.821.665-.84a4.492,4.492,0,0,1,1.432.259c.1.028.1.351.167.6m2.664,2.9a1.9,1.9,0,0,0-.424-.037c-1.041.183-2.086.352-3.116.587a.86.86,0,0,0-.478.556,1.7,1.7,0,0,0,1.482,2.014c1.733-.045,3.467-.154,5.194-.307.788-.07.814-.194.76-.94a5.769,5.769,0,0,1-.938-.862,2.339,2.339,0,0,1-.238-.919c-.042-.248-.082-.48-.4-.483a.44.44,0,0,0-.47.515c.01.256.11.507.143.763.023.186.077.453-.019.548a.6.6,0,0,1-.559.1,1.561,1.561,0,0,1-.617-.565,4.861,4.861,0,0,1-.325-.966m3.794.917c.148-.673.481-1.131.127-1.684-.525.5-.565.823-.127,1.684" transform="translate(-119.384 -19.137)"/>
          <path id="パス_1811" data-name="パス 1811" d="M247.892,10.925c.387.018.645.043.9.04,1.15-.012,2.3-.039,3.449-.044a2.062,2.062,0,0,1,1.478.492,1.447,1.447,0,0,1,.4.562c.138.416-.2.757-.574.552a3.407,3.407,0,0,0-1.811-.254c-1.18.019-2.362.021-3.542.056-.408.012-.814.1-1.265.161l.785.657-.07.213a4.544,4.544,0,0,1-.732.061.825.825,0,0,0-.877.445c-.407.717-.851,1.412-1.268,2.123q-.425.725-.817,1.468a10,10,0,0,0-.577,1.194c-.259.7.005,1.14.755,1.1a20.055,20.055,0,0,0,2.436-.376,4.8,4.8,0,0,1,.507-.153c1.544-.086,2.61-1.151,3.849-1.86.351-.2.34-.534.29-.855a4.486,4.486,0,0,0-.218-.577.573.573,0,0,1,.4-.771,1.357,1.357,0,0,1,1.682,1.1.87.87,0,0,0,.655.9,7.935,7.935,0,0,1,1.443.846c.263.184.5.474.289.831-.188.317-.5.235-.794.139l-2.35-.783c-.582-.193-.937-.1-1.137.464a1.182,1.182,0,0,1-.932.834,7.787,7.787,0,0,0,.114,3.692,2.307,2.307,0,0,0,2.288,1.728A5.76,5.76,0,0,0,255.466,24c.347-.195.688-.463,1.155-.3-.01.109.013.218-.03.271-1.337,1.621-2.928,2.653-5.151,2.185a3.1,3.1,0,0,1-2.092-1.639,3.822,3.822,0,0,1-.53-2.029c.028-.7-.049-1.4-.079-2.1a1.6,1.6,0,0,0-1.913,1.04c-.65,1.481-1.357,2.937-2.043,4.4-.063.133-.146.257-.213.388-.211.412-.281.786.255,1.018.066.029.1.14.138.208-.3.59-.626.782-1.158.7a.892.892,0,0,1-.753-1.039,8.062,8.062,0,0,1,.668-2.075c.494-1.067,1.089-2.087,1.615-3.139a3.977,3.977,0,0,0,.182-.893c-.647,0-1.2-.03-1.75.006a1.725,1.725,0,0,1-1.684-2.419,32.375,32.375,0,0,1,2.806-5.108c.135-.2.288-.508.222-.688-.057-.155-.415-.271-.643-.277a5.444,5.444,0,0,0-2.78.316.759.759,0,0,1-.255.068.87.87,0,0,1-.955-.611c-.087-.385.114-.7.637-.791a21.425,21.425,0,0,1,2.452-.312c.734-.046,1.475.023,2.213.019.345,0,.69-.059,1.112-.1,0-1.06-.023-2.054.008-3.046.024-.791.1-1.582.193-2.366a.59.59,0,0,1,.387-.387.92.92,0,0,1,1.005.4.657.657,0,0,1-.03.617,1.548,1.548,0,0,0-.378,1.137c-.049.825-.126,1.648-.18,2.472-.019.289,0,.581,0,1" transform="translate(-100.997 -3.886)"/>
          <path id="パス_1812" data-name="パス 1812" d="M233.816,70.627a4.015,4.015,0,0,0-2.514,1.786c-.2.406-.546.419-.823.067a1.077,1.077,0,0,1,.121-1.37,4.991,4.991,0,0,1,2.191-1.439c1.583-.548,1.253-.55,1.278-1.885.018-.972.066-1.944.115-2.915.049-1,.645-1.313,1.479-.771a3.482,3.482,0,0,1,.466.423,4.148,4.148,0,0,0-.636,1.364c-.031.832-.415,1.673-.041,2.561l2.8-.546c.037-.569.077-1.147.112-1.725.036-.6.209-.85.63-.9s1.194.293,1.268.645a.888.888,0,0,1-.2.61,1.018,1.018,0,0,0-.191,1.154c.245,0,.532-.014.816,0,.617.037,1.235.069,1.848.143a1.789,1.789,0,0,1,1.21,2.606,16.619,16.619,0,0,1-1.589,2.621,3.713,3.713,0,0,1-2.957,1.533c-.618,0-.8-.206-.9-.913.042-.037.081-.1.128-.108a4.16,4.16,0,0,0,3.478-2.827c.112-.273.267-.528.361-.806.165-.488.026-.725-.492-.784a6.8,6.8,0,0,0-1.317-.029c-.854.071-1.118.321-1.331,1.147a10.041,10.041,0,0,1-.326,1.19.582.582,0,0,1-.441.32.6.6,0,0,1-.39-.394,4.6,4.6,0,0,1-.078-.966c-.01-.284,0-.569,0-.863a2.738,2.738,0,0,0-1.951.342,1.164,1.164,0,0,0-.411.9c-.006,2.118.464,4.073,2.343,5.351a4.447,4.447,0,0,0,4.2.6c.568-.207,1.149-.378,1.765-.579a.739.739,0,0,1-.453.877c-.426.265-.865.509-1.307.745a4.772,4.772,0,0,1-5.144-.531,7.347,7.347,0,0,1-2.807-4.936c-.059-.523-.19-1.038-.315-1.7" transform="translate(-96.724 -24.497)"/>
          <path id="パス_1813" data-name="パス 1813" d="M16.822,46.486l-1.248.448c-.059.3-.115.581-.169.853-.676.194-1.1.079-1.3-.34-.208-.438-.037-.906.524-1.25a20.037,20.037,0,0,1,1.776-.98,1.206,1.206,0,0,0,.8-.953.936.936,0,0,1,.815-.915c.58-.068.853.277.683,1,.483-.13.923-.248,1.361-.368.965-.264,1.934-.51,2.889-.807a1.589,1.589,0,0,0,.8-.5.947.947,0,0,1,1.13-.408,4.753,4.753,0,0,0,1.3-.034c.85-.067,1.7-.168,2.548-.218a.9.9,0,0,1,1.007.568,8.775,8.775,0,0,1-.95.387c-.964.271-1.935.517-2.905.767a2.261,2.261,0,0,0-1.521,1.235c-.459.89-1,1.738-1.486,2.612-.136.243-.224.513-.374.864.64,0,1.154.022,1.665-.006a13.342,13.342,0,0,0,1.666-.172c.5-.092.94-.517,1.535-.31a.589.589,0,0,1-.265.822,5.2,5.2,0,0,1-1.474.755,10.622,10.622,0,0,1-2.619.321,1.871,1.871,0,0,0-2.045,1.167.913.913,0,0,1-.081.157c-.161.24-.327.611-.653.412-.178-.108-.226-.494-.259-.764-.049-.393.425-.814.067-1.163-.257-.251-.707-.29-1.012-.506a4.228,4.228,0,0,1-1.957-2.2,2.9,2.9,0,0,0-.255-.476m6.185-1.832a26.2,26.2,0,0,0-4.422,1.194.545.545,0,0,0-.239.883,2.966,2.966,0,0,0,2.118,1.446.693.693,0,0,0,.774-.434c.258-.49.559-.956.836-1.437.286-.5.564-1,.934-1.652" transform="translate(-5.889 -19.312)"/>
          <path id="パス_1814" data-name="パス 1814" d="M75.323,28.355c.419.206.771.4,1.141.557.978.4,1.962.792,2.947,1.176.438.171.894.3,1.327.48.136.058.307.238.306.36a.483.483,0,0,1-.3.364,4,4,0,0,1-1.472.046c-1.248-.344-2.471-.783-3.692-1.218a8.731,8.731,0,0,1-1.136-.608C73.5,30.981,72.573,32.377,71.7,33.8a2.3,2.3,0,0,0-.237,1.091.835.835,0,0,1-.481.863,1.081,1.081,0,0,1-.822.019.838.838,0,0,1-.309-.733,9.008,9.008,0,0,1,.833-2.119c1.45-2.391,3.011-4.715,4.436-7.12a40.984,40.984,0,0,0,1.834-3.816c.394-.855.758-1.724,1.11-2.6a5.625,5.625,0,0,0,.191-.919,19.313,19.313,0,0,0-4.266.75,6.478,6.478,0,0,0-3.6,1.9c-.557-.624-.59-.908-.159-1.394a2.285,2.285,0,0,1,.6-.52A10.984,10.984,0,0,1,74,17.916c1.188-.215,2.365-.493,3.551-.716a5.875,5.875,0,0,1,1.4-.132c.8.045,1.01.341.784,1.1a28.244,28.244,0,0,1-1.005,2.923,52.268,52.268,0,0,1-3.074,6.464,6.509,6.509,0,0,0-.335.8" transform="translate(-29.333 -8.834)"/>
          <path id="パス_1815" data-name="パス 1815" d="M470.324,9.39c-1.433-.332-2.822-.654-4.205.062-.3.156-.516.139-.657-.151a.527.527,0,0,1,.21-.759,5.961,5.961,0,0,1,4.6-.476c1.177.26,1.517,1.058,1.17,2.228a9.979,9.979,0,0,1-2.174,3.9c-.35.39-.646.827-1.039,1.335.292.067.472.115.655.148.9.159,1.81.257,2.688.488a3.224,3.224,0,0,1,2.311,1.887,4.623,4.623,0,0,0,.606.868c-.3.738-.565,1.416-.859,2.078a5.938,5.938,0,0,1-3.157,2.952,8.04,8.04,0,0,1-1.252.436,1.7,1.7,0,0,1-1.478-.194,1.126,1.126,0,0,1,.993-.473,2.014,2.014,0,0,0,1.68-.812,1.2,1.2,0,0,1,.485-.377c1.086-.514,1.345-1.577,1.718-2.562a1.389,1.389,0,0,0-.025-.474,4.24,4.24,0,0,0-2.481,1.136c-.3.326-.664.586-.96.913a1.821,1.821,0,0,0-.588,2.032H467.4a1.624,1.624,0,0,1,.647-2.037A1.719,1.719,0,0,0,468.6,21a4.992,4.992,0,0,1,3.343-2.671,1.937,1.937,0,0,0,.339-.161.8.8,0,0,0-.67-.73,9.091,9.091,0,0,0-3.744-.466,3.2,3.2,0,0,0-1.859.921,10.128,10.128,0,0,1-1.144.969.594.594,0,0,1-.553.044.724.724,0,0,1-.2-.611,1.853,1.853,0,0,1,.564-.865c1.808-1.3,2.985-3.166,4.4-4.814A6.74,6.74,0,0,0,470.319,9.9a2.267,2.267,0,0,0,.005-.513" transform="translate(-194.929 -4.956)"/>
          <path id="パス_1816" data-name="パス 1816" d="M232.706,21.9a28.869,28.869,0,0,1-1.363,7.021,1.308,1.308,0,0,1-1.247,1.042c-.809.077-1.589.425-2.4.58a15.569,15.569,0,0,1-2.191.238.9.9,0,0,1-.671-.3c-.2-.27.07-.494.28-.65a.6.6,0,0,0,.168-.849,8.207,8.207,0,0,1-.733-3.342,4.5,4.5,0,0,1,.231-1.733c.389-1.012.162-2.18.746-3.155a.124.124,0,0,0,.016-.085c-.354-1.256.752-1.593,1.446-1.948a5.613,5.613,0,0,1,2.987-.655,5.1,5.1,0,0,1,1.2.269,1.717,1.717,0,0,1,1.238,1.472c.1.7.2,1.4.293,2.094m-1.858,3.319a8.646,8.646,0,0,0-4.218-.306.868.868,0,0,0-.751.944,6.3,6.3,0,0,0,.6,2.909.951.951,0,0,0,1.075.574c.672-.077,1.347-.126,2.013-.236.2-.034.512-.193.553-.352.294-1.127.531-2.269.784-3.407.005-.023-.023-.052-.059-.125m-4.6-1.658a9.735,9.735,0,0,1,4.794.561c.09-.64.2-1.183.233-1.731a8.477,8.477,0,0,0-.024-1.745,1.3,1.3,0,0,0-1.538-1.228,9.951,9.951,0,0,0-1.817.321c-.614.16-.767.42-.787,1.091,0,.143,0,.287,0,.4-.684.4-.923,1.045-.861,2.328" transform="translate(-94.316 -9.25)"/>
          <path id="パス_1817" data-name="パス 1817" d="M464.695,61.759c.115.247.225.5.348.741.225.444.463.5.818.158a7.077,7.077,0,0,0,2.281-3.58,3.47,3.47,0,0,0,.1-.694c0-1.562-.749-2.134-2.48-2.139a.88.88,0,0,0-.572.341,16.461,16.461,0,0,0-1.3,1.781,28.749,28.749,0,0,1-4.451,5.465,11.491,11.491,0,0,0-.958,1.251,4.675,4.675,0,0,1-.37.494.714.714,0,0,1-.951.164.652.652,0,0,1-.026-.891,18.423,18.423,0,0,1,1.278-1.687c1.243-1.412,2.536-2.78,3.769-4.2a8.165,8.165,0,0,0,.923-1.487,1.1,1.1,0,0,0,.047-.583c-.077-.808.112-1.251.884-1.513a2,2,0,0,0,1.252-1.368c.211-.578.348-1.182.534-1.77a6.012,6.012,0,0,1,.305-.733c.39-.829.542-.885,1.549-.577-.3.623-.626,1.228-.874,1.866s-.425,1.335-.64,2.032c.556.17,1.094.3,1.6.5a2.6,2.6,0,0,1,1.65,2.508,5.98,5.98,0,0,1-1.284,4.042,20.136,20.136,0,0,1-1.811,2.042c-.745.72-1.367.546-1.765-.405a1.8,1.8,0,0,1,.142-1.757" transform="translate(-191.934 -13.36)"/>
          <path id="パス_1818" data-name="パス 1818" d="M160.609,65.48a1.814,1.814,0,0,1,2-1.2,23.724,23.724,0,0,1,2.555.06,2.138,2.138,0,0,1,1.86,3.19c-.494,1.032-.981,2.067-1.521,3.2l.271.611c-1.485.458-2.983.225-4.48.356.044.419.075.724.106,1.024a1.133,1.133,0,0,1-1.5-.713,7.6,7.6,0,0,1-.681-2.173,8.725,8.725,0,0,1-.116-3.325.525.525,0,0,0,0-.173c-.078-.918.019-1.02.9-.939.173.016.345.042.618.076m4.353,3.322a4.293,4.293,0,0,0,.767-1.836c.265-.832-.081-1.317-.943-1.4-.643-.059-1.29-.071-1.936-.073-.929,0-1.034.092-1.347,1-.026.076-.106.133-.183.226l-.933-.21c.035.527.064.968.1,1.533.441-.114.77-.191,1.094-.284a3.038,3.038,0,0,1,3.379,1.037m-4.328,1.605c1.039,0,1.95,0,2.861,0,.8.005.875-.061.987-1-1.317-.871-2.611-.477-3.969.072l.121.93" transform="translate(-66.769 -26.998)"/>
          <path id="パス_1819" data-name="パス 1819" d="M220.758,68.444l1.124.672a1.518,1.518,0,0,0-.865,1.924,18.4,18.4,0,0,1-.035,3.081c0,1.5.079,3,.173,4.5a3.021,3.021,0,0,0,.953,2.04.663.663,0,0,1,.142.219.506.506,0,0,1,0,.176,1.063,1.063,0,0,1-1.517-.226,3.152,3.152,0,0,1-.628-1.058,10.934,10.934,0,0,1-.56-4.083c.12-1.2.137-2.414.173-3.623a8.319,8.319,0,0,0-.11-1.1l-.289-.164c-.07.16-.13.325-.213.478-.621,1.139-1.27,2.263-1.854,3.42a3.763,3.763,0,0,0-.133,1.024c-.031.184-.082.471-.194.51a.768.768,0,0,1-.645-.071.928.928,0,0,1-.322-.672,4.677,4.677,0,0,1,.35-1.7c1.2-2.3,2.42-4.593,3.751-6.817a10.8,10.8,0,0,0,1.358-3.038,1,1,0,0,1,.633-.781c.2-.083.343-.357.483-.564a.65.65,0,0,1,.982-.183c.338.223.4.567.016.884a5.377,5.377,0,0,0-1.279,2.182c-.327.723-.71,1.419-1.069,2.127-.117.231-.236.462-.428.841" transform="translate(-90.706 -23.836)"/>
          <path id="パス_1820" data-name="パス 1820" d="M105.108,84.543a.925.925,0,0,1,1.245.526c.072-.049.137-.069.158-.111a1.518,1.518,0,0,1,2.731-.439,3,3,0,0,1,.952,2.206c-.015.5-.016,1-.024,1.5-.009.549-.1,1.128.69,1.415-.276.253-.455.434-.651.594a6.364,6.364,0,0,0-1.027.826c-.418.524-.834.84-1.525.379-.187.469-.333.844-.487,1.217a3.6,3.6,0,0,1-.291.641,1.061,1.061,0,0,1-1.923-.06,3.654,3.654,0,0,1-.518-2.1c.117-1.011.03-2.045.052-3.068a.86.86,0,0,1,.179-.476c.561-.718.4-1.626.647-2.427.047-.153-.118-.37-.209-.622m.849,5.943c1.43.04,2.116-.33,2.448-1.265.134-.378.04-.545-.354-.629-1.5-.318-1.966.011-2.123,1.5a2.344,2.344,0,0,0,.03.393m1.839-5.231a3.584,3.584,0,0,1-.481,1.006c-.372.368-.507-.288-.829-.342v1.3l2.307.134a1.928,1.928,0,0,0-1-2.095" transform="translate(-43.859 -35.215)"/>
          <path id="パス_1821" data-name="パス 1821" d="M408.224,20.647c-.078.129-.113.251-.194.311a6.256,6.256,0,0,1-3.133,1.529,3.474,3.474,0,0,1-2.772-.858,4.561,4.561,0,0,1-1.693-3.728c.027-.67,0-1.342,0-2.088a4.756,4.756,0,0,1-.772-.009c-.183-.034-.485-.132-.5-.232a.876.876,0,0,1,.2-.6,1.286,1.286,0,0,1,.587-.38.776.776,0,0,0,.588-.941.922.922,0,0,1,.013-.264c.083-.4.1-.843.613-.973.481-.121.842.061,1.2.611-.046.378-.728.391-.487,1.012a8.257,8.257,0,0,0,2.384-.229c.186-.038.345-.35.459-.566.217-.408.348-.865.6-1.25.351-.545.546-.546,1.279-.137-.429.422-.83.866-.45,1.62.263,0,.577,0,.89,0,.707,0,1.414,0,2.12.023a1.257,1.257,0,0,1,.588.151.557.557,0,0,1,.26.408.526.526,0,0,1-.314.367,4.945,4.945,0,0,1-.955.151c-.675.064-1.353.1-2.026.175-.691.081-.756.186-.9.86a12.835,12.835,0,0,1-.44,1.607c-.075.211-.3.367-.516.612-.531-.936.015-1.794-.157-2.675a8.7,8.7,0,0,0-2.563.286.827.827,0,0,0-.438.578,5.011,5.011,0,0,0,.963,4.239,2.8,2.8,0,0,0,3.1.924,11.822,11.822,0,0,0,1.42-.484,1.079,1.079,0,0,1,1.035-.048" transform="translate(-167.655 -6.523)"/>
          <path id="パス_1822" data-name="パス 1822" d="M290.264,54.867a12.478,12.478,0,0,0,1.246-.15c1.261-.291,2.513-.619,3.773-.912,1.316-.306,2.628-.654,3.96-.864,1.832-.288,3.68-.476,5.524-.674a2.961,2.961,0,0,1,1.218.108c.743.248.869.862.325,1.431a7.548,7.548,0,0,1-.848.662l-.39-.735a5.882,5.882,0,0,0-.693,0c-2.221.266-4.45.489-6.658.834-1.216.19-2.394.611-3.6.887-1.232.283-2.471.542-3.716.757a.966.966,0,0,0-.866.606c-.255.593-.588,1.154-.9,1.723-.123.223-.278.429-.421.645a.992.992,0,0,1-.433-1.3,1.731,1.731,0,0,0,.12-1.268.782.782,0,0,1,.23-.619,5.774,5.774,0,0,0,1.019-1.843c.2-.48.478-.93.772-1.491a1.678,1.678,0,0,1-.14-.27.529.529,0,0,1,.289-.736.535.535,0,0,1,.747.276,1.618,1.618,0,0,1,.087.916c-.148.623-.386,1.226-.646,2.015" transform="translate(-120.837 -15.809)"/>
          <path id="パス_1823" data-name="パス 1823" d="M167.359,22.853c-.9,0-1.8-.006-2.706,0-.619.005-1.239.045-1.858.04a1.5,1.5,0,0,1-.672-.148.336.336,0,0,1,.007-.625,5.8,5.8,0,0,1,1.759-.52c1.827-.086,3.659-.067,5.489-.085a1.452,1.452,0,0,1,.438.043.537.537,0,0,1,.233.959,4.677,4.677,0,0,1-.908.539,10.422,10.422,0,0,0-5.039,5.808,1.866,1.866,0,0,0,1.62,2.595,9.616,9.616,0,0,0,3.861-.117,2.253,2.253,0,0,1,1.48-.111c.15.464-.151.692-.472.82a13.082,13.082,0,0,1-2.242.771,7.568,7.568,0,0,1-3.678-.23,2.927,2.927,0,0,1-1.9-4.081,10.7,10.7,0,0,1,3.846-5.053c.241-.158.487-.306.731-.459,0-.049.009-.1.014-.147" transform="translate(-68.007 -10.705)"/>
          <path id="パス_1824" data-name="パス 1824" d="M401.062,74.482c-.68.84-1.221.842-1.772-.036a7.472,7.472,0,0,1-1.347-4.66,2.782,2.782,0,0,0-.052-.514c-.71.1-.71.1-.266.956-.557.247-.931.2-1.238-.161-.275-.323-.275-.633.088-1.112.423-.559.875-1.1,1.344-1.62a1.282,1.282,0,0,0,.218-1.08c-.059-.763-.164-1.527-.155-2.289a1.015,1.015,0,0,1,1.17-1.125c.5.031.681.323.343.673a1.346,1.346,0,0,0-.3,1.38c.111.51.159,1.034.245,1.62.7-.144,1.341-.233,1.946-.423.194-.061.328-.378.446-.6.164-.309.249-.665.439-.955a.556.556,0,0,1,.848-.153.62.62,0,0,1,.308.824c-.13.291-.284.572-.474.952.369.183.706.335,1.029.512a4.813,4.813,0,0,1,.962.6.848.848,0,0,1,.038,1.2,2.544,2.544,0,0,1-1.959.872A.673.673,0,0,1,402.4,69c-.041-.152.132-.424.287-.552a6.292,6.292,0,0,1,.916-.527,2.564,2.564,0,0,0-1.776-.463,3.166,3.166,0,0,1-.788-.039c-1.112-.041-1.6.426-1.763,1.522a8.35,8.35,0,0,0,.946,4.7c.14.315.514.527.836.841" transform="translate(-166.407 -18.433)"/>
          <path id="パス_1825" data-name="パス 1825" d="M96,20.657a2.3,2.3,0,0,0-1.028,2.608,6.224,6.224,0,0,0,.672.028c1.029-.061,2.058-.19,3.086-.186a6.826,6.826,0,0,1,1.893.324c.563.167.636.4.588,1.125-.126.019-.281.089-.4.051a11.622,11.622,0,0,0-4.212-.067c-.322.015-.642.111-.964.117a.806.806,0,0,0-.874.716c-.217,1.83-.164,3.61,1.317,5a3.786,3.786,0,0,0,3.809.613c.476-.216.954-.427,1.588-.71a2.415,2.415,0,0,1-.158.7,3.371,3.371,0,0,1-2.294,1.51A4.819,4.819,0,0,1,93.4,28a25.178,25.178,0,0,1,.293-5.44c.038-.321.01-.651.06-.969a1.312,1.312,0,0,1,1.857-1.144c.106.045.2.11.39.212" transform="translate(-39.202 -10.204)"/>
          <path id="パス_1826" data-name="パス 1826" d="M431.875,63.853c.668.172,1.261.322,1.853.477q.428.112.852.237a.638.638,0,0,1,.536.7.629.629,0,0,1-.64.615,3.433,3.433,0,0,1-.934-.144c-.708-.165-1.411-.349-2.151-.534-.23.5-.428.891-.587,1.3a5.339,5.339,0,0,1-2.11,2.427,1.677,1.677,0,0,1-.155.086,1.942,1.942,0,0,1-2.166.016,2.32,2.32,0,0,1-.528-2.5c.117-.3.146-.63.265-.926a2.971,2.971,0,0,1,3.119-1.855c1.283,0,1.311,0,1.654-1.224a3.283,3.283,0,0,0-.017-2.334,10.293,10.293,0,0,1-.518-1.5c-.048-.172-.027-.5.066-.546a.756.756,0,0,1,.642,0,1.8,1.8,0,0,1,.554.663,5.2,5.2,0,0,1,.537,3.261c-.08.551-.168,1.1-.274,1.794m-4.935,3.121a4.371,4.371,0,0,0,0,.531c.068.568.544.842,1.006.509a5.246,5.246,0,0,0,1.891-2.4.428.428,0,0,0-.316-.617,2.013,2.013,0,0,0-2.584,1.975" transform="translate(-178.796 -16.428)"/>
          <path id="パス_1827" data-name="パス 1827" d="M495.443,64.636c.426.115.94.232,1.44.393.654.212.715.151.967-.462a11.578,11.578,0,0,0,.683-3.985,8.15,8.15,0,0,0-.385-1.978c-.031-.143-.164-.306-.124-.414a1.158,1.158,0,0,1,.394-.6c.106-.063.474.093.551.24a4.989,4.989,0,0,1,.746,3.121c-.041.262-.026.532-.073.792-.167.924-.3,1.858-.54,2.765-.215.83-.143.984.568,1.535a21.577,21.577,0,0,1,1.995,1.859c.225.226.406.542.116.865a.826.826,0,0,1-1.116,0c-.36-.348-.68-.738-1.039-1.087a3.483,3.483,0,0,0-.7-.534c-.554-.315-.706-.332-1.027.2a3.188,3.188,0,0,1-3.938,1.061,5.374,5.374,0,0,1-1.318-.7c-.3-.224-.564-.568-.1-.949a.5.5,0,0,0,.144-.378c-.081-.873.533-1.2,1.177-1.439a10.1,10.1,0,0,1,1.581-.3m1.506,1.962a2.766,2.766,0,0,0-2.889-.6,1.392,1.392,0,0,0-.836,1.106c.446.113.868.2,1.278.325a2.075,2.075,0,0,0,2.447-.831" transform="translate(-206.771 -16.224)"/>
          <path id="パス_1828" data-name="パス 1828" d="M190.363,12.521a5.106,5.106,0,0,0,.684-.124,19.4,19.4,0,0,1,4.84-.969c1.7-.132,3.4-.367,5.1-.535a8.314,8.314,0,0,1,1.589-.031.848.848,0,0,1,.829,1.032c-.077.49-.313.6-.8.44a2.191,2.191,0,0,0-.841-.135c-2.293.186-4.592.325-6.87.625a31.524,31.524,0,0,0-4.037.957,4.01,4.01,0,0,0-1.169.594,1.068,1.068,0,0,0-.344.588c-.181.682-.329,1.373-.476,2.063-.056.262-.066.611-.418.54a.732.732,0,0,1-.473-.519,11.768,11.768,0,0,1,.252-2.618c.447-1.671,1.036-3.3,1.561-4.955.071-.223.083-.467.167-.685.135-.346.437-.4.691-.117a1.231,1.231,0,0,1,.191,1.4,5.885,5.885,0,0,0-.479,2.446" transform="translate(-78.955 -5.235)"/>
          <path id="パス_1829" data-name="パス 1829" d="M199.433,80.332a3.518,3.518,0,0,0-.108-2.42.744.744,0,0,0-.877-.575,17.146,17.146,0,0,0-1.872.47.714.714,0,0,1-1-.39.615.615,0,0,1,.373-.921,4.95,4.95,0,0,1,1.006-.331,12.329,12.329,0,0,1,4.475-.259,7.381,7.381,0,0,1,1.434.416.58.58,0,0,1,.417.7c-.1.385-.422.346-.721.317-.411-.041-.82-.1-1.231-.129s-.6.153-.557.586c.086.93.149,1.863.23,2.906a2.171,2.171,0,0,0,.49.282c.893.291,1.8.549,2.692.831a3.373,3.373,0,0,1,.815.328c.427.274.4.721-.074.854a3.1,3.1,0,0,1-1.467.114,18,18,0,0,1-2.677-.893.863.863,0,0,0-1.09.17,2.948,2.948,0,0,1-1.146.607,1.17,1.17,0,0,1-1.337-.623.838.838,0,0,1,.237-1.107,3,3,0,0,1,1.99-.927" transform="translate(-82.106 -31.837)"/>
          <path id="パス_1830" data-name="パス 1830" d="M40.989,84.946c.027.212.071.311.042.379a3.937,3.937,0,0,1-3.237,2.129,1.373,1.373,0,0,1-1.3-.6,16.629,16.629,0,0,1-.973-1.772c-.389-.847-.588-.9-1.2-.169-.379.451-.718.936-1.088,1.395q-.472.585-.976,1.144a.668.668,0,0,1-.868.218.7.7,0,0,1-.311-.849c.2-.741.445-1.467.637-2.209.228-.883.4-1.78.629-2.663.167-.655.386-1.3.566-1.948a6.173,6.173,0,0,0,.213-1c.032-.315.088-.627.411-.71a1.1,1.1,0,0,1,.739.075c.316.173.2.491.129.791-.3,1.352-.584,2.709-.865,4.066a6.428,6.428,0,0,0-.055.715c.305-.248.5-.413.7-.572,1.1-.856,1.973-.59,2.441.739.118.333.221.674.367,1a1.252,1.252,0,0,0,1.926.739c.432-.187.829-.454,1.258-.65a5.741,5.741,0,0,1,.808-.238" transform="translate(-13.039 -32.868)"/>
          <path id="パス_1831" data-name="パス 1831" d="M366.415,65.634c-.142.393-.157.623-.28.741A8.656,8.656,0,0,1,363.2,68.6c-1.082.386-1.431.3-2.08-.668a14.475,14.475,0,0,1-.792-1.475c-.094-.183-.147-.387-.246-.567-.322-.585-.641-.658-1.083-.135a16.982,16.982,0,0,0-1.3,1.871c-.237.371-.395.79-.614,1.173a1.048,1.048,0,0,1-.4.452.968.968,0,0,1-.73.085.779.779,0,0,1-.214-.678c.125-.6.35-1.183.513-1.778.124-.451.217-.911.315-1.368a3.3,3.3,0,0,1,.081-.523A12.354,12.354,0,0,0,357.3,60.9a2.93,2.93,0,0,1,.717-1.469c.168-.266.457-.158.56.088a1.605,1.605,0,0,1,.1.773c-.169,1.516-.365,3.029-.56,4.615.211.077.377-.176.574-.31a1.5,1.5,0,0,1,2.426.57c.323.563.657,1.119.966,1.69a.7.7,0,0,0,.952.392,8.439,8.439,0,0,0,1.051-.449c.469-.248.909-.548,1.377-.8a9.263,9.263,0,0,1,.951-.368" transform="translate(-149.411 -16.938)"/>
          <path id="パス_1832" data-name="パス 1832" d="M431.233,21.533a4.921,4.921,0,0,1-3.973.836,5.851,5.851,0,0,1-2.51-1.435,2.6,2.6,0,0,1-.8-1.718,4.19,4.19,0,0,1,.531-2.554c.561-.932,1.135-1.857,1.7-2.786a3,3,0,0,0,.15-.338c-.95-.442-2.068.365-2.95-.42a1.334,1.334,0,0,1,1.191-.764,10.765,10.765,0,0,1,2.113-.117A9.026,9.026,0,0,0,429.22,12a8.353,8.353,0,0,1,1.224-.133.65.65,0,0,1,.712.536c.083.412-.213.59-.534.691a3.167,3.167,0,0,1-.947.2,2.851,2.851,0,0,0-2.414,1.266,15.508,15.508,0,0,0-1.768,2.941c-.675,1.607-.2,2.352.967,3.2a3.586,3.586,0,0,0,2.746.716c.652-.1,1.318-.121,1.978-.176.016.1.033.2.049.295" transform="translate(-177.827 -6.652)"/>
          <path id="パス_1833" data-name="パス 1833" d="M65.729,85.845a9.645,9.645,0,0,0-.344-3.838c-.017-.056-.049-.107-.07-.162-.107-.275-.26-.564.063-.794a.717.717,0,0,1,.986.319,7.428,7.428,0,0,1,.568,1.836,19.819,19.819,0,0,1,.157,2.464.772.772,0,0,0,.527.815c.275.1.524.274.8.374,1.057.383,1.488,1.372,2.119,2.166.055.069.007.219.007.355a1.426,1.426,0,0,1-1.554-.308,8.248,8.248,0,0,0-1.358-.965c-.622-.342-.837-.268-1.036.411a2.53,2.53,0,0,1-2.235,1.737A1.832,1.832,0,0,1,62.307,88.3a2.648,2.648,0,0,1,2.686-2.454c.2,0,.405,0,.736,0m-1.094,1.361a3.153,3.153,0,0,0-.871.6c-.151.181-.088.607,0,.886a.626.626,0,0,0,.577.169,3.775,3.775,0,0,0,1.016-.923c.271-.393,0-.744-.72-.727" transform="translate(-26.167 -34.005)"/>
          <path id="パス_1834" data-name="パス 1834" d="M320.382,19.542a9.867,9.867,0,0,0-3.065.229,1.984,1.984,0,0,1-.781.061.64.64,0,0,1-.457-.322.63.63,0,0,1,.205-.511,1.515,1.515,0,0,1,.683-.389,18.51,18.51,0,0,1,2.519-.367,19.455,19.455,0,0,1,2.375.134,1.5,1.5,0,0,1,.512.122.634.634,0,0,1,.13,1.176,1.759,1.759,0,0,1-.3.179,8.483,8.483,0,0,0-3.672,4.029c-.651,1.27-.007,2.187,1.42,2.093a6.584,6.584,0,0,0,2.41-.473,4.362,4.362,0,0,1,1.879-.5c-.053.172-.052.281-.106.327a6.762,6.762,0,0,1-5.052,1.93c-2.1-.174-2.486-1.938-2.036-3.323a8.365,8.365,0,0,1,2.6-3.49c.273-.25.566-.479.85-.717l-.107-.186" transform="translate(-132.754 -9.327)"/>
          <path id="パス_1835" data-name="パス 1835" d="M382.353,56.956c-.032.091-.035.135-.053.143-.9.4-1.028,1.271-1.232,2.087-.107.426-.162.869-.3,1.282a9.76,9.76,0,0,0-.15,5.155,4.045,4.045,0,0,0,4.549,3.04,4.176,4.176,0,0,0,1.233-.633c.291-.164.57-.351.923-.571.058.242.133.368.1.455a2.784,2.784,0,0,1-2.228,2.029,5.213,5.213,0,0,1-3.478-.687,5.385,5.385,0,0,1-2.635-4.709,9.426,9.426,0,0,1,.44-4.355,5.107,5.107,0,0,0,.111-.693c.111-.451.24-.9.369-1.344.089-.309.2-.611.283-.923a.923.923,0,0,1,.895-.724c.468-.044.944-.05,1.175.45" transform="translate(-159.194 -15.765)"/>
          <path id="パス_1836" data-name="パス 1836" d="M56.714,73.246c-.065.129-.121.232-.169.339-.329.722-.182.975.6,1,.53.016,1.063-.012,1.591.021a4.561,4.561,0,0,1,1.129.191.431.431,0,0,1,.1.813,1.61,1.61,0,0,1-.742.229c-.676.043-1.354.042-2.032.052a1.2,1.2,0,0,0-1.334,1.016c-.4,1.477-.823,2.952-1.187,4.439a9.458,9.458,0,0,0-.231,1.836,1.483,1.483,0,0,0,.977,1.692c.07.024.116.121.18.192-.024.376-.263.5-.585.532a1.268,1.268,0,0,1-1.264-.466,3.07,3.07,0,0,1-.622-1.622,12.724,12.724,0,0,1,.579-3.83c.251-.937.568-1.857.857-2.783.173-.554.145-.652-.437-.8-.356-.092-.644-.2-.574-.618A.8.8,0,0,1,53.864,75c.215-.142.5-.182.728-.3a1.021,1.021,0,0,0,.447-.364,8.276,8.276,0,0,0,.446-1.14c.224-.674.528-.75,1.048-.239a1.729,1.729,0,0,1,.18.3" transform="translate(-22.306 -30.501)"/>
          <path id="パス_1837" data-name="パス 1837" d="M419.67,62.587l.863.394c-.168.562-.585.625-1.039.644s-.583-.271-.74-.621a4.235,4.235,0,0,1,.016-2.7,16.26,16.26,0,0,1,1-3.834,7.275,7.275,0,0,0,.347-1.732c-.554-.234-1.27-.177-1.186-1.126a4.335,4.335,0,0,1,.875-.275.874.874,0,0,0,.866-.733,2.414,2.414,0,0,1,1-1.31.943.943,0,0,1,1.061-.137c-.4.549-.97.995-.774,1.808.166.029.357.074.551.094,1,.1,2,.182,2.988.309.388.049.889.052.948.6.039.365-.45.606-1.133.578-.884-.035-1.767-.113-2.651-.136-.973-.026-1.118.041-1.383.991-.5,1.787-.942,3.59-1.373,5.394a17.253,17.253,0,0,0-.237,1.791" transform="translate(-175.79 -13.485)"/>
          <path id="パス_1838" data-name="パス 1838" d="M139.969,31.877c-.762.371-1.158.271-1.529-.393a1.885,1.885,0,0,1-.206-.488c-.379-1.664-.864-3.315-1.089-5a16.034,16.034,0,0,1,.069-6.067c.255-1.024.365-2.084.54-3.127.08-.476.274-.629.692-.541.506.106.746.436.656.861-.281,1.324-.63,2.64-.8,3.978-.124.984.027,2-.007,3a17.224,17.224,0,0,0,.757,4.433c.144.632.219,1.28.382,1.906a14.856,14.856,0,0,0,.534,1.44" transform="translate(-57.496 -8.488)"/>
          <path id="パス_1839" data-name="パス 1839" d="M6.459,32.185a2.092,2.092,0,0,1-.246.5A25.027,25.027,0,0,0,2.9,37.577a6.322,6.322,0,0,0-1.114,3.3c.021.41-.243.563-.589.647a.9.9,0,0,1-1.039-.267.777.777,0,0,1-.02-.908c.2-.379.371-.778.558-1.167a14.883,14.883,0,0,1,.659-1.337c.661-1.079,1.354-2.138,2.035-3.2.143-.223.275-.455.435-.666.507-.666.507-.659-.053-1.3-.193-.22-.362-.461-.534-.7-.6-.835-1.166-1.7-1.819-2.5a1.811,1.811,0,0,1-.335-2.063c.4-.041.63.253.821.524a18.491,18.491,0,0,1,2.224,3.39c.2.477.489.916.757,1.408l1.459-.692.118.144" transform="translate(0 -13.18)"/>
          <path id="パス_1840" data-name="パス 1840" d="M489.122,61.174c-.781.534-1.274.367-1.448-.444a2.6,2.6,0,0,1,.205-1.638c.52-1.187,1.043-2.374,1.51-3.583a9.356,9.356,0,0,0,.3-1.562l-1.939-.126c.23-1.044.355-1.191,1.369-1.188a1.532,1.532,0,0,0,1.306-.57.86.86,0,0,1,.966-.379,1.954,1.954,0,0,1,0,.308,2.706,2.706,0,0,1-.1.342.979.979,0,0,0,.259.108c.938.064,1.879.093,2.812.2a1.708,1.708,0,0,1,.844.408.336.336,0,0,1-.183.6,8.387,8.387,0,0,1-1.233.07c-.678.014-1.357.024-2.036.016a.806.806,0,0,0-.927.736,17.829,17.829,0,0,1-1.227,3.583,6.269,6.269,0,0,1-.47.952,1.657,1.657,0,0,0-.008,2.169" transform="translate(-204.809 -13.732)"/>
          <path id="パス_1841" data-name="パス 1841" d="M305.005,27.319c.063.242.107.314.088.35a4.645,4.645,0,0,1-1.851,2.062,2.87,2.87,0,0,1-3.9-1.346,6.3,6.3,0,0,1-.765-3.054c.021-.822.112-1.644.189-2.464a1.039,1.039,0,0,1,.168-.586,1.6,1.6,0,0,0,.4-1.659c.852-.288,1-.226,1.331.416-.2.65-.387,1.188-.521,1.741a9.789,9.789,0,0,0-.045,3.688,3.206,3.206,0,0,0,1.277,2.049,1.4,1.4,0,0,0,1.658.035c.44-.231.832-.553,1.252-.825.209-.135.432-.246.717-.407" transform="translate(-125.406 -10.261)"/>
          <path id="パス_1842" data-name="パス 1842" d="M17.739,93.567c-.144.365-.162.529-.253.622a13.752,13.752,0,0,1-3.409,2.9,7.355,7.355,0,0,1-5.254.409A4,4,0,0,1,6.5,95.32c-.2-.348.007-.622.322-.8a.749.749,0,0,1,1.018.142c.079.122.116.271.19.4A2.272,2.272,0,0,0,9.7,96.242a7.08,7.08,0,0,0,3.653-.329,8.928,8.928,0,0,0,1.432-.838c.675-.416,1.335-.857,2.02-1.255a4.5,4.5,0,0,1,.931-.253" transform="translate(-2.698 -39.3)"/>
          <path id="パス_1843" data-name="パス 1843" d="M516.737,69.719a3.666,3.666,0,0,1,1.34-2.833c.65-.451,1.174-.389,1.481.335a.928.928,0,0,0,.736.63,2.24,2.24,0,0,1,1.333,3.156,2.82,2.82,0,0,1-3.1,1.353c-1.473-.454-1.721-.891-1.786-2.641m1.411-1.167c-.1.385-.154.582-.211.777a1.37,1.37,0,0,0,.173,1.495,1.691,1.691,0,0,0,1.747.3,2.123,2.123,0,0,0,.859-.711c.427-.509.373-.957-.232-1.2a20.088,20.088,0,0,0-2.337-.657" transform="translate(-217.038 -20.013)"/>
          <path id="パス_1844" data-name="パス 1844" d="M109.06,20.859A2.277,2.277,0,0,1,107,17.718c.06-.166.117-.335.191-.495.611-1.336.875-1.314,1.859-1.107.516.108,1.061.079,1.572.2a1.544,1.544,0,0,1,1.293,1.481c.212,1.386-1.372,3.251-2.852,3.062M109.7,18.1c-.23-.057-.424-.1-.618-.156a.522.522,0,0,0-.643.337,1.02,1.02,0,0,0,.137,1.083.694.694,0,0,0,.952.19,6.541,6.541,0,0,0,1.23-.977.967.967,0,0,0,.178-.655.678.678,0,0,0-.94-.477c-.093.206-.187.413-.3.655" transform="translate(-44.875 -8.393)"/>
          <path id="パス_1845" data-name="パス 1845" d="M331.34,73.064c1.219-.695,1.907-2.025,3.5-2.119a2.369,2.369,0,0,1-.236.614q-1,1.18-2.034,2.329c-.8.9-1.482.832-2.285-.039a4.684,4.684,0,0,1-1.139-3.168,16.325,16.325,0,0,1,.15-2.464,1.6,1.6,0,0,1,1.229-1.238.769.769,0,0,1,.549.151c.078.069.051.344-.018.481a5.136,5.136,0,0,0,.285,5.452" transform="translate(-138.244 -22.265)"/>
          <path id="パス_1846" data-name="パス 1846" d="M192.937,85.594c-.67.785-.981.825-1.661.426a4.138,4.138,0,0,1-1.771-2.655,14.648,14.648,0,0,1-.167-6.488.817.817,0,0,1,1.159-.717c.538.162.717.592.333.995A1.289,1.289,0,0,0,190.5,78.2c.022,1.088-.019,2.178.037,3.264a6.884,6.884,0,0,0,.333,1.815,3,3,0,0,0,2.065,2.32" transform="translate(-79.407 -31.963)"/>
          <path id="パス_1847" data-name="パス 1847" d="M121.552,31.365c-.012.608-.371.662-.648.791a12.543,12.543,0,0,1-3.682.857c-1.66.226-3.332.358-5,.564a4.994,4.994,0,0,0-1.159.358c-.535.208-.844.127-1.323-.466.219-.206.409-.5.677-.615a8.564,8.564,0,0,1,2.226-.781c2.45-.3,4.913-.488,7.372-.7.487-.043.981-.006,1.533-.006" transform="translate(-46.094 -14.836)"/>
          <path id="パス_1848" data-name="パス 1848" d="M264.692,70.97c-.1.114-.13.186-.176.2-1.049.26-1.271,1-1.169,1.956.1.936.155,1.877.254,2.813a2.782,2.782,0,0,0,.221.848c.4.878.747,1.83,1.985,1.779a1.076,1.076,0,0,1-1.753.569,3.277,3.277,0,0,1-1.532-2.185c-.194-1.338-.348-2.684-.449-4.033a5.966,5.966,0,0,1,.187-1.571,1.06,1.06,0,0,1,.951-.914c.545-.061,1.122-.111,1.48.539" transform="translate(-110.072 -27.253)"/>
          <path id="パス_1849" data-name="パス 1849" d="M139.8,28.606a2.508,2.508,0,0,1,2.269-1.026c1.8.01,3.591-.041,5.386-.048a18.034,18.034,0,0,1,1.939.095.776.776,0,0,1,.511.352c.045.077-.144.376-.292.459a2.137,2.137,0,0,1-.9.316c-2.706.116-5.413.205-8.12.293-.437.014-.438-.006-.791-.441" transform="translate(-58.718 -13.232)"/>
          <path id="パス_1850" data-name="パス 1850" d="M386.317,25.994a3.138,3.138,0,0,1-1.769,1.505,10.263,10.263,0,0,1-5.74.448,17.273,17.273,0,0,1-1.923-.65,1.687,1.687,0,0,1-.376-.23.683.683,0,0,1-.28-.92.755.755,0,0,1,1.012-.27,7.009,7.009,0,0,0,3.7,1,11.7,11.7,0,0,0,4.313-.824c.318-.1.622-.357,1.065-.056" transform="translate(-157.989 -12.495)"/>
          <path id="パス_1851" data-name="パス 1851" d="M483.435,64.808a1.309,1.309,0,0,1-1.4-.776,13.878,13.878,0,0,1-1.669-3.5,19.7,19.7,0,0,0-1.1-2.7,3.383,3.383,0,0,0-.16-.316c-.483-.875-.849-1.757-.1-2.753.1.075.286.14.336.26.85,2.033,2.022,3.922,2.532,6.112a16.825,16.825,0,0,0,1.227,2.836c.111.251.206.509.337.835" transform="translate(-201.011 -15.043)"/>
          <path id="パス_1852" data-name="パス 1852" d="M6.8,81.013c-.022-.441-.037-.728-.056-1.108.345-.044.652-.1.961-.119,1.963-.15,3.928-.263,5.887-.452a2.44,2.44,0,0,1,2.265.641A.787.787,0,0,1,16,80.6c-.023.1-.362.213-.524.175-1.366-.324-2.691.127-4.034.188-.97.044-1.936.16-2.906.188A16.28,16.28,0,0,1,6.8,81.013" transform="translate(-2.832 -33.308)"/>
          <path id="パス_1853" data-name="パス 1853" d="M51.024,33.265c-.028.125-.022.209-.057.233-.753.52-.7,1.3-.655,2.066a14.089,14.089,0,0,0,.227,2.106c.354,1.64,1.262,2.055,2.786,1.341a1.993,1.993,0,0,1,.328-.09,1.507,1.507,0,0,1-.976,1.487,2.076,2.076,0,0,1-2.361-.507,3.27,3.27,0,0,1-1.041-2c-.089-1.023-.1-2.053-.154-3.079a2.005,2.005,0,0,1,.468-1.3c.44-.6.634-.646,1.434-.251" transform="translate(-20.632 -15.532)"/>
          <path id="パス_1854" data-name="パス 1854" d="M447.186,20.314a2.188,2.188,0,0,1-.232.63,5.392,5.392,0,0,1-2.028,1.531,1.334,1.334,0,0,1-1.255-.107,2.686,2.686,0,0,1-1.306-3.021,3.731,3.731,0,0,1,.844-2.36.616.616,0,0,0,.151-.478c-.059-.324.032-.544.343-.6.184-.033.5-.01.56.1a.989.989,0,0,1,.1.723c-.209.611-.518,1.186-.744,1.792a2.411,2.411,0,0,0,.231,2.206c.393.629.64.706,1.312.384.479-.229.942-.491,1.423-.715a2.494,2.494,0,0,1,.6-.085" transform="translate(-185.779 -8.345)"/>
          <path id="パス_1855" data-name="パス 1855" d="M449.184,59.505a6.238,6.238,0,0,0-.6,3.288,3.659,3.659,0,0,0,.168,1.127,1.4,1.4,0,0,0,2.043,1,3.516,3.516,0,0,1,.5-.091,1.574,1.574,0,0,1-2.418,1.208,3.311,3.311,0,0,1-1.577-2.815,21.024,21.024,0,0,1,.231-2.987.646.646,0,0,1,.253-.432,1.742,1.742,0,0,1,1.4-.3" transform="translate(-187.871 -17.014)"/>
          <path id="パス_1856" data-name="パス 1856" d="M276.961,79.606a4.168,4.168,0,0,1-1.873,1.467,9.179,9.179,0,0,1-4.745.7,2.146,2.146,0,0,1-1.059-.367.677.677,0,0,1,.17-1.243,1.214,1.214,0,0,1,1.1-.01,2.243,2.243,0,0,0,.925.2,9.436,9.436,0,0,0,3.639-.557,6.222,6.222,0,0,1,1.113-.277,3.061,3.061,0,0,1,.729.082" transform="translate(-112.961 -31.083)"/>
          <path id="パス_1857" data-name="パス 1857" d="M291.172,81.3c-.065.143-.1.226-.138.3-.87,1.5-1.723,3.009-2.623,4.49a7.518,7.518,0,0,1-1.021,1.2.524.524,0,0,1-.785.088.68.68,0,0,1-.137-.885c.079-.154.231-.267.32-.418.561-.955,1.108-1.918,1.671-2.872.418-.707.822-1.425,1.293-2.1a.81.81,0,0,1,1.043-.213c.161.074.262.275.378.4" transform="translate(-120.278 -28.07)"/>
          <path id="パス_1858" data-name="パス 1858" d="M379.449,15.942c-.092-1.263,1.088-1.345,1.538-2.094a2.182,2.182,0,0,1-.693-.264.99.99,0,0,1-.338-.644c0-.122.327-.361.5-.359,1.206.014,2.412.069,3.617.139a1.016,1.016,0,0,1,.545.259.5.5,0,0,1-.034.828,1.888,1.888,0,0,1-.733.282,9.93,9.93,0,0,0-3.6,1.424c-.234.14-.481.256-.811.43" transform="translate(-159.373 -6.952)"/>
          <path id="パス_1859" data-name="パス 1859" d="M353.926,26.557c.032.387.079.671.073.953-.01.368-.323.525-.6.295a1.173,1.173,0,0,1-.4-.557A9.172,9.172,0,0,1,352.6,24.3c.048-.623.316-.831.922-.727.351.06.521.244.448.611a.851.851,0,0,0-.02.086c-.138,1.1.028,1.231,1.171.915.024-.152.042-.322.079-.489.121-.55.535-.694.96-.337a1.224,1.224,0,0,1-.145,1.906,2.6,2.6,0,0,1-.992.284,8.428,8.428,0,0,1-1.1.01" transform="translate(-148.093 -11.557)"/>
          <path id="パス_1860" data-name="パス 1860" d="M133.3,68.669a2.092,2.092,0,0,1-2.124-1.4,19.4,19.4,0,0,1-.778-2.435c-.13-.418-.242-.843-.4-1.248-.145-.361-.193-.689.128-.965a.7.7,0,0,1,1.012.2,3.027,3.027,0,0,1,.476,1.107c.169.745.263,1.507.393,2.261a3.526,3.526,0,0,0,.85,1.816,6.861,6.861,0,0,1,.447.661" transform="translate(-54.552 -26.243)"/>
          <path id="パス_1861" data-name="パス 1861" d="M273.433,71.941a2.758,2.758,0,0,0-2.323.916c-.467-.313-.518-.683-.281-1.031a1.988,1.988,0,0,1,.811-.77,6.428,6.428,0,0,1,1.885-.413c.948-.05,1.375.5,1.285,1.442a3.393,3.393,0,0,1-.871,1.894c-.192.227-.406.449-.78.252-.335-.79.709-1.43.273-2.289" transform="translate(-113.695 -27.355)"/>
          <path id="パス_1862" data-name="パス 1862" d="M317.633,82.57c-.55.836-1.082,1.04-1.769.8a2.555,2.555,0,0,1-.779-.407c-.792-.655-1.565-1.335-2.335-2.016-.286-.253-.462-.548-.14-.912a.677.677,0,0,1,1.079-.065c.362.3.681.65,1.028.968.813.743,1.462,1.742,2.916,1.634" transform="translate(-131.229 -27.623)"/>
          <path id="パス_1863" data-name="パス 1863" d="M440.547,53.726a2.5,2.5,0,0,1-.466-.408,7.89,7.89,0,0,0-3.232-2.67,1.333,1.333,0,0,1-.749-1.14.924.924,0,0,1,1.066-.045,9.347,9.347,0,0,1,3.062,2.221,1.594,1.594,0,0,1,.318,2.042" transform="translate(-183.169 -12.753)"/>
          <path id="パス_1864" data-name="パス 1864" d="M457.428,61.273c-.042-.3-.095-.737-.162-1.169a8.053,8.053,0,0,1-.179-1.036c-.008-.305,0-.528-.3-.742-.289-.2-.161-.544.183-.646a.719.719,0,0,1,.951.511A11.5,11.5,0,0,1,458.4,59.6a9.686,9.686,0,0,1,.173,1.64,14.64,14.64,0,0,1-.047,1.58c-.01.153-.094.406-.184.425a.668.668,0,0,1-.541-.12,1.825,1.825,0,0,1-.375-1.857" transform="translate(-191.79 -16.25)"/>
          <path id="パス_1865" data-name="パス 1865" d="M174.931,30.491a7.888,7.888,0,0,1,.6-1.41.465.465,0,0,1,.879.222,2.776,2.776,0,0,0,.742,1.823.356.356,0,0,1-.3.607,1.847,1.847,0,0,1-.8-.28,3.439,3.439,0,0,1-.563-.519,1.684,1.684,0,0,1-2.63-1.064.427.427,0,0,1,.532-.563,3.089,3.089,0,0,1,.869.55,9.1,9.1,0,0,1,.672.633" transform="translate(-72.593 -13.777)"/>
          <path id="パス_1866" data-name="パス 1866" d="M345.952,71.125c-.029.059-.093.354-.209.376a.746.746,0,0,1-.6-.19,2.4,2.4,0,0,1-.6-.948c-.175-.706-.231-1.442-.338-2.165a6.244,6.244,0,0,0-.14-.857c-.149-.5-.092-.7.293-.814a.647.647,0,0,1,.886.472c.132.571.241,1.147.339,1.725.128.752.235,1.507.372,2.4" transform="translate(-144.48 -22.061)"/>
          <path id="パス_1867" data-name="パス 1867" d="M508.026,52.483a10.224,10.224,0,0,1-1.54-.4c-.889-.39-1.754-.836-2.609-1.3a2.249,2.249,0,0,1-.629-.611c-.282-.357,0-.59.23-.826a.43.43,0,0,1,.7.007c.683.947,1.782,1.214,2.722,1.743a4.674,4.674,0,0,1,.92.659c.12.114.112.362.209.725" transform="translate(-211.323 -12.694)"/>
          <path id="パス_1868" data-name="パス 1868" d="M74.89,76.475a7.892,7.892,0,0,1-4.312-1.616.653.653,0,0,1,.045-1c.31-.333.531-.111.831.064.835.488,1.7.928,2.565,1.36a1.407,1.407,0,0,1,.87,1.2" transform="translate(-29.554 -30.948)"/>
          <path id="パス_1869" data-name="パス 1869" d="M61.788,37.653c-.735.164-1.076.043-1.291-.5A4.844,4.844,0,0,1,60.03,35.1a8.64,8.64,0,0,0-.1-1.4c-.039-.351-.032-.663.385-.77a.665.665,0,0,1,.825.579c.05.32.051.647.081.97.049.529.073,1.063.165,1.584s.257,1.019.407,1.591" transform="translate(-25.163 -15.49)"/>
          <path id="パス_1870" data-name="パス 1870" d="M337.714,14.327c-.622-.108-.967-.639-1.452-.944-.641-.4-1.268-.829-1.881-1.273a2.2,2.2,0,0,1-.387-.519c.2-.137.39-.368.6-.393a1.869,1.869,0,0,1,1.7.538c.494.541.995,1.076,1.462,1.638a.623.623,0,0,1-.041.953" transform="translate(-140.283 -6.363)"/>
          <path id="パス_1871" data-name="パス 1871" d="M393.48,56.6c-.8.186-1.107.106-1.461-.524-.326-.582-.545-1.224-.826-1.833-.083-.179-.259-.319-.321-.5a1.482,1.482,0,0,1-.134-.8c.1-.347.478-.277.767-.23.607.1.708.268.706.94a1.628,1.628,0,0,0,.168.663c.344.746.711,1.482,1.1,2.29" transform="translate(-164.108 -14.16)"/>
          <path id="パス_1872" data-name="パス 1872" d="M456.665,15.661c.44-.208.739-.145.94.243a1.909,1.909,0,0,1,.179.4,5.274,5.274,0,0,1-.192,3.3c-.122.308-.253.674-.755.721-.314-.782.038-1.553.018-2.316s-.119-1.52-.19-2.347" transform="translate(-191.807 -8.197)"/>
          <path id="パス_1873" data-name="パス 1873" d="M398.478,56.886c-.449.168-.611-.113-.764-.354a4.21,4.21,0,0,1-.525-3.059.732.732,0,0,1,.879-.676.911.911,0,0,1,.6.245c.071.08-.08.356-.129.543a4.187,4.187,0,0,0-.263,1.078c.014.726.128,1.451.205,2.221" transform="translate(-166.793 -14.215)"/>
          <path id="パス_1874" data-name="パス 1874" d="M155.563,14.116a4.5,4.5,0,0,0,.267,2.459.4.4,0,0,1-.086.385.53.53,0,0,1-.471.029,1.906,1.906,0,0,1-.673-.781,15.712,15.712,0,0,1-.34-2.154.637.637,0,0,1,.153-.4c.18-.238.4-.463.74-.353.368.119.481.4.411.815" transform="translate(-64.791 -7.242)"/>
          <path id="パス_1875" data-name="パス 1875" d="M400.93.263a7.35,7.35,0,0,0-1.216,1.5,7.139,7.139,0,0,0-.3,1.866.558.558,0,0,1-.706-.48A2.932,2.932,0,0,1,399.18.487a1.219,1.219,0,0,1,1.75-.223" transform="translate(-167.416 -1.668)"/>
          <path id="パス_1876" data-name="パス 1876" d="M392.572,4.507a2.9,2.9,0,0,1-1.811-2.3,1.654,1.654,0,0,0-.321-.669c-.27-.438-.13-.735.382-.772.674-.048,1.051.312.941.991a2.456,2.456,0,0,0,.477,1.557c.177.352.5.663.332,1.191" transform="translate(-163.935 -1.989)"/>
          <path id="パス_1877" data-name="パス 1877" d="M307.38,84.137a3.686,3.686,0,0,1-1.08-.018,3.631,3.631,0,0,1-1.761-1.269.818.818,0,0,1-.127-.711.782.782,0,0,1,.661-.26,1.231,1.231,0,0,1,1.061.669,3.689,3.689,0,0,0,.745.846c.178.182.381.339.573.508l-.073.235" transform="translate(-127.842 -28.524)"/>
          <path id="パス_1878" data-name="パス 1878" d="M301.911,84.772a.867.867,0,0,1-1.171-.437,9.374,9.374,0,0,1-.964-2.642c.327-.3.577-.23.774-.022a2.813,2.813,0,0,1,.64.824c.28.724.475,1.481.721,2.277" transform="translate(-125.911 -28.364)"/>
          <path id="パス_1879" data-name="パス 1879" d="M148.574,14.148c.26.119.48.2.676.314a3.131,3.131,0,0,1,1.168,1.8c.107.282-.155.51-.459.417a1.144,1.144,0,0,1-.444-.265c-.458-.447-.915-.9-1.334-1.379a.624.624,0,0,1-.068-.55c.065-.147.3-.222.462-.333" transform="translate(-62.195 -7.611)"/>
        </g>
      </g>
    </g>
  </g>
</svg>
