<svg xmlns="http://www.w3.org/2000/svg" width="305" height="97.913" viewBox="0 0 305 97.913">
  <g id="people05_written" transform="translate(365.08 -1192.065)">
    <rect id="長方形_1795" data-name="長方形 1795" width="263" height="16" transform="translate(-365.08 1198.994)" fill="#fff"/>
    <rect id="長方形_1797" data-name="長方形 1797" width="109" height="16" transform="translate(-365.08 1266.994)" fill="#fff"/>
    <rect id="長方形_1796" data-name="長方形 1796" width="305" height="16" transform="translate(-365.08 1232.994)" fill="#fff"/>
    <path id="パス_1307" data-name="パス 1307" d="M345.33,61.324l-.068,0-.038.025.071.017c.011-.016.024-.029.035-.044" transform="translate(-449.878 1176.231)"/>
    <path id="パス_1308" data-name="パス 1308" d="M352.538,59.624a3.316,3.316,0,0,1-1.1-1.595,1.2,1.2,0,0,0-1.229-.623c-.979.049-1.957.125-2.931.217-.591.056-1.176.164-1.763.249l-.187-.24a3.523,3.523,0,0,1,.732-.631c.662-.321,1.395-.551,2.056-.873.276-.135.6-.394.636-.623a12.347,12.347,0,0,0,.159-2.333c-.033-.974-.8-1.411-1.977-1.206-.392.068-.778.159-1.169.24-.265-.494-.262-.851.379-1.074a16.724,16.724,0,0,0,1.811-.717c.24-.118.361-.392.536-.595l-.193-.237-2.739.519c-.053-.912-.071-1.736-.157-2.555a1.049,1.049,0,0,0-1.139-.82.8.8,0,0,0-.788,1.024c.1.533.294,1.058.347,1.593.1,1.028-.089,1.191-1.4,1.383q-1.07.158-2.143.306c-.357.049-.719.082-1.076.135-.635.093-1.056.356-1.009.92.041.487.435.659,1.292.559.358-.042.7-.14,1.06-.2,1.05-.181,2.1-.356,3.315-.561-.007.4.127.809-.039.917a6.945,6.945,0,0,1-4.891.807,7.87,7.87,0,0,0-.415,4.157.986.986,0,0,0,.595.638c.738.214,1.522.328,2.29.477l.037-.019h.065a3,3,0,0,1,2.3-.914,2.758,2.758,0,0,1-2.3.914c-.011.012-.023.022-.033.034l-.069-.013c-.5.251-.979.53-1.5.743-1.558.635-3.133,1.242-4.691,1.856.228,1.33.733,1.52,2.083.885,1.475-.694,2.978-1.352,4.491-1.991a16.245,16.245,0,0,1,1.7-.512c.471.8.043,1.068-.692,1.315-2.006.674-3.992,1.387-5.965,2.121-1.127.419-2.214.9-3.315,1.367-.525.22-.783.567-.562,1.03a1,1,0,0,0,1.275.441,7.144,7.144,0,0,0,1.076-.45c1.8-.828,3.57-1.695,5.4-2.476a24.76,24.76,0,0,1,2.67-.807c.3.737.068,1.07-.666,1.3-1.154.365-2.271.808-3.388,1.244-.656.255-.854.674-.57,1.094a1.029,1.029,0,0,0,1.334.291c.322-.12.6-.316.915-.45.7-.3,1.421-.578,2.449-.993-.328,1.505-.156,2.746-.772,3.927l-1.828-.17-.244.262c.844.683,1.337,1.59,2.335,2.157a.878.878,0,0,0,1.292-.507,5.25,5.25,0,0,0,.059-.744c.246-1.732.5-3.463.759-5.253.735-.136,1.382-.265,2.033-.374.71-.119,1.435-.188,2.135-.333,1.395-.29,2.016-.877,2.086-2.018.038-.614.093-1.143.949-1.406.446-.136.663-.549.295-.806m-5.221-6.3a3.985,3.985,0,0,1-1.5,2.357c-.68-1.362-.326-1.981,1.5-2.357m-3.539,3.038-3.01.834c-.6-1.509-.608-1.515.86-2.05.692-.253,1.4-.475,2.312-.78-.061.755-.106,1.317-.162,2m4.362,6.283c-.946.159-1.888.329-2.852.5-.326-.82-.167-1.285.757-1.471,1.13-.228,2.256-.47,3.482-.725a1.441,1.441,0,0,1-1.386,1.7m1.231-2.9c-1.269.289-2.569.491-3.872.728-.289-.778-.056-1.229.843-1.391s1.8-.345,2.709-.465c.453-.059,1.044-.03,1.021.478-.01.231-.4.582-.7.65" transform="translate(-446.688 1180.001)"/>
    <path id="パス_1309" data-name="パス 1309" d="M506.789,60.453a4.3,4.3,0,0,0-.554-.223c-.789-.281-1.58-.558-2.49-.879.193-.875.372-1.66.539-2.449a1.262,1.262,0,0,1,.847-1.028c.275-.106.452-.412.674-.629-.291-.2-.582-.413-.877-.614-.118-.08-.248-.145-.421-.244.064-.522.129-1.048.185-1.507l1.689-.653c-.391-1.212-1.4-.4-1.989-.758l-.171-1.342c-.528-.058-1.3-.326-1.507-.125-.379.364-.426,1.009-.641,1.621-1.662.108-3.417.21-5.169.343-.868.066-1.293.492-1.187,1.105.089.516.6.722,1.439.6,1.392-.2,2.784-.4,4.181-.56a10.029,10.029,0,0,1,1.377.033c-.006.666-.01,1.185-.015,1.76-1.961.1-3.735.473-5.564.131-.877-.164-1.452.231-1.478.893-.022.545.383.838,1.282.8,1.51-.058,3.017-.171,4.526-.254.326-.018.653,0,1.206-.005-.27.908-.495,1.663-.726,2.439-1.3.05-2.472.1-3.351.909a9.079,9.079,0,0,0-2.631,4.041,3.6,3.6,0,0,0,.117,2.666,2.031,2.031,0,0,0,3.405.508A10.673,10.673,0,0,0,500.933,65c.763-1.355,1.444-2.748,2.237-4.273,1.055.407,1.967.774,2.893,1.11.614.223,1.466.008,1.572-.406.154-.593-.418-.753-.846-.975m-9.051,5.981a4.247,4.247,0,0,1-.352-1.041,5.882,5.882,0,0,1,2.307-4.509,4.257,4.257,0,0,1,1.264-.5l.243.243c-.883,1.969-1.513,4.058-3.462,5.805" transform="translate(-790.663 1215.475)"/>
    <path id="パス_1310" data-name="パス 1310" d="M8.953,18.258c.156-.8.279-1.421.4-2.043A8.772,8.772,0,0,0,9.775,13.7c-.124-1.028.335-1.343,1.31-1.67.19.767.375,1.469.536,2.175a.788.788,0,0,0,1.087.645.882.882,0,0,0,.625-1.143c-.281-1.028-.562-2.057-.886-3.072a1.156,1.156,0,0,0-1.688-.649,6.646,6.646,0,0,0-.922.876Q8.055,12.5,6.263,14.138l-.271-.259a18.6,18.6,0,0,1,4.8-5.693L10.108,7.1c-1.432.122-2.566,1.2-4.216.952a30.4,30.4,0,0,1,2.1-2.463c.957-.91,1.609-2.156,2.98-2.636.669-.233.664-.9.574-1.509-.668-.6-1.215-.493-1.787.164C8.664,2.864,7.5,4.052,6.411,5.309A31.757,31.757,0,0,0,4.029,8.345,1.848,1.848,0,0,0,3.859,9.8c.2.556.817.309,1.287.226a3.5,3.5,0,0,1,1.868-.147c-1.2,1.714-2.3,3.363-3.492,4.938A2.128,2.128,0,0,0,3.283,17.1c.814-.329,1.565-.565,2.251-.925.732-.386,1.4-.888,2.2-1.406a4.413,4.413,0,0,1,.044.7c-.522,3.445-1.07,6.887-1.565,10.336a11.078,11.078,0,0,0-.01,2.229.83.83,0,0,0,1,.806c.562-.03.688-.406.7-.884.021-.8.013-1.614.094-2.414.182-1.806.41-3.607.619-5.411,2.642.464,5.878-.69,6.154-2.265a14.53,14.53,0,0,1-2.739.71,18.009,18.009,0,0,1-3.079-.318" transform="translate(-361.53 1191.794)"/>
    <path id="パス_1311" data-name="パス 1311" d="M50.054,71.836a16.843,16.843,0,0,0-3.431-.353,12.547,12.547,0,0,0-1.966.2c-.324.05-.659.1-1.01.146l-.116.015.633-5.453,1.324-.221c1.033-.172,2.043-.34,3.054-.5l.128-.019c.61-.092.974-.189.9-.765s-.5-.662-1.164-.607c-.886.073-1.786.116-2.739.162-.414.019-.842.04-1.289.064l-.109.006.013-.108c.041-.351.082-.672.119-.973.078-.622.145-1.16.184-1.7a1.754,1.754,0,0,1,1.687-1.858c.957-.115,1.9-.249,2.893-.391l1.244-.176a1.488,1.488,0,0,0-.144-1.276,1.542,1.542,0,0,0-1.3-.349,17.721,17.721,0,0,0-2.224.306c-.341.062-.7.125-1.053.181l-.1.016-.1-2.265c-.971-.343-1.492-.4-1.791-.2-.275.187-.4.614-.431,1.476-.013.363-.062.722-.113,1.1-.024.176-.049.355-.07.54l-.007.06-6.224,1.855.079-.182c.15-.343.276-.644.389-.915a14.377,14.377,0,0,1,.607-1.334c.319-.588.664-1.174,1-1.74.277-.471.565-.958.835-1.444a1.529,1.529,0,0,0,.062-1.322.967.967,0,0,0-.627-.593,1.141,1.141,0,0,0-1.521.772c-.28.717-.591,1.437-.893,2.133a32.57,32.57,0,0,0-1.562,4.109,56.6,56.6,0,0,0-1.272,6.5c-.056.361-.112.722-.169,1.082a2.683,2.683,0,0,0,.369,1.676.917.917,0,0,0,.614.444,1.123,1.123,0,0,0,.883-.232c.394-.292.3-.579-.051-1.077a2.3,2.3,0,0,1-.263-1.576c.214-1.191.487-2.388.777-3.655.116-.51.236-1.036.358-1.584l.036-.161.118.115c1.073,1.047,1.95.661,2.966.213l.057-.025a13.2,13.2,0,0,1,1.885-.609c.326-.088.664-.18,1.024-.288l.134-.04-.481,4.138-.066.013c-.3.059-.615.113-.932.17a21.705,21.705,0,0,0-2.521.546,1.51,1.51,0,0,0-.85,1.019.933.933,0,0,0,.208.742,1.082,1.082,0,0,0,.82.344,2.744,2.744,0,0,0,.824-.173c.115-.037.229-.073.343-.1.4-.1.791-.214,1.2-.327l.654-.18.294,4.874-1.292.108c-.975.081-1.985.165-3,.242a1.062,1.062,0,0,0-1.125,1.234c.04.6.448.919,1.214.961a2.111,2.111,0,0,0,.629-.1c.116-.03.236-.06.356-.081l.99-.17q2.652-.454,5.3-.9a5.668,5.668,0,0,1,4.067.4,1.3,1.3,0,0,0,1,.21,1.059,1.059,0,0,0,.636-.563.973.973,0,0,0,0-.872,1.288,1.288,0,0,0-.893-.715" transform="translate(-369.451 1178.339)"/>
    <path id="パス_1312" data-name="パス 1312" d="M56.365,17.416a7.865,7.865,0,0,0,3.906-4.82c-1.691.312-2.437,1.966-4.144,2.926.118-1.769.212-3.185.3-4.511l4.118-1.974a27.5,27.5,0,0,0,1.316,3.009,10.091,10.091,0,0,0,1.859,2.385c.914.826,1.714.473,2.24-.861-.68-.309-1.58-.031-2.07-.922A14.024,14.024,0,0,1,62.169,8.3c.76-.587,1.994-.7,2.094-2.182-.535.168-.916.279-1.291.407-.441.15-.878.315-1.311.471-.536-.641-.855-1.6-1.774-1.2s-.116,1.214-.162,1.939L56.918,8.764c-.242-2.376-.223-2.357,1.337-3.816a6.1,6.1,0,0,1,2.638-1.458.854.854,0,0,0,.585-1.27,1.032,1.032,0,0,0-1.353-.54c-.145.037-.258.187-.4.266-2.078,1.18-3.259,3.219-4.72,4.983-.2.239-.136.712-.151,1.079-.046,1.227-.087,2.455-.1,3.681-.019,1.607-.087,3.219.017,4.819.062.967.8,1.372,1.591.909" transform="translate(-374.866 1191.647)"/>
    <path id="パス_1313" data-name="パス 1313" d="M377.281,61.658l-.06,0c-.005.036-.01.073-.015.109l.053-.056c.007-.02.015-.037.021-.056" transform="translate(-458.136 1176.145)"/>
    <path id="パス_1314" data-name="パス 1314" d="M377.243,56.624c-.076.011-.169-.094-.278-.16a3.242,3.242,0,0,0,.156-1.09c-.076-.376-.294-.887-.587-1.009a1.324,1.324,0,0,0-1.151.258,3.631,3.631,0,0,0-.677,1.254,3.88,3.88,0,0,1-2.361,2.519,20.833,20.833,0,0,0-2.8,1.322c-1.019.5-1.312,1.153-.864,1.894.358.59,1.062.548,1.98-.111.378-.271.763-.53,1.379-.955a8.246,8.246,0,0,1-.193,1.024c-.473,1.333-1,2.647-1.437,3.992-.453,1.392-.873,2.8-1.215,4.221-.167.7.348.96.982.969a.794.794,0,0,0,.9-.9,3.309,3.309,0,0,1,.007-1.126c1.1-2.777,2.243-5.539,3.392-8.3a2.058,2.058,0,0,1,.477-.552c.005-.036.01-.073.015-.109l.06,0c.469-1.323,1.629-1.255,2.891-1.415.209,1.659-.821,2.636-1.851,3.732-.062-.755-.125-1.51-.194-2.357-.28.013-.564.026-.847.041-.007.019-.015.036-.022.056l-.053.056c-.088.665-.186,1.327-.254,1.992a2.6,2.6,0,0,0,.024.971c.186.629.425,1.283,1.187,1.418a1.475,1.475,0,0,0,1.673-.745,20.2,20.2,0,0,0,2.02-4.046c.458-1.691.182-3.2-2.358-2.841" transform="translate(-455.882 1178.04)"/>
    <path id="パス_1315" data-name="パス 1315" d="M19.587,72.92a6.005,6.005,0,0,1-1.558-1.333c-1-1.231-1.971-2.491-2.848-3.818-1.421-2.152-2.756-4.366-4.17-6.622.262-.556.526-1.086.763-1.628.745-1.7,1.531-3.385,2.184-5.124a1.744,1.744,0,0,0-.32-1.441,1.267,1.267,0,0,0-1.242-.131c-.3.16-.47.725-.587,1.145a21.12,21.12,0,0,1-.628,2.58c-1.133,2.639-2.247,5.3-3.584,7.831C5.576,68.2,3.808,72.271,0,74.621c.24.726.618.655,1.114.414a9.623,9.623,0,0,0,3.75-3.146c1.126-1.606,2.171-3.277,3.186-4.964.671-1.116,1.228-2.309,1.843-3.482a2.211,2.211,0,0,1,.539.278,5.661,5.661,0,0,1,.539.685q3.758,5.22,7.512,10.441c.1.142.208.368.338.386a2.251,2.251,0,0,0,1.254.008c.228-.118.319-.7.33-1.077a1.363,1.363,0,0,0-.816-1.245" transform="translate(-360.737 1178.453)"/>
    <path id="パス_1316" data-name="パス 1316" d="M44.41,22.145c.994-2.306,1.2-4.882,3.152-6.743-.093-.5-.19-1.01-.283-1.5-1.428-.273-1.455-.284-1.875.734a1.8,1.8,0,0,1-1.816,1.149c-.036-.2-.065-.251-.052-.294q.168-.536.349-1.069c.309-.907.171-1.344-.49-1.537-.619-.18-1.006.134-1.146,1.15-.246,1.788-1.092,2.958-2.968,3.2a1.974,1.974,0,0,0-.317.056c-1.133.341-1.221.639-.5,1.9.335-.061.7-.1,1.059-.2s.684-.237,1.19-.418c-.067.573-.113.979-.161,1.386a3.984,3.984,0,0,0,.876,3.321,1.678,1.678,0,0,1,.325,1.869,43.147,43.147,0,0,0-.74,4.276c-.032.247.334.76.535.77.283.014.6-.3.866-.528.092-.079.05-.3.082-.462.225-1.154.461-2.306.677-3.463a2.585,2.585,0,0,1,2.062-2.305,4.166,4.166,0,0,0,2.912-2.288c-1.452-.221-2.285,1.151-3.734,1m-1.785-.214a4,4,0,0,1-.047-3.684c.154-.43.809-.682,1.5-1.222-.1,2.018-.944,3.393-1.454,4.906" transform="translate(-370.549 1188.751)"/>
    <path id="パス_1317" data-name="パス 1317" d="M130.492,14.905c-.727-.358-1.01.625-1.377,1.191a15.353,15.353,0,0,1-6.671,6c-1.191.524-1.794.346-2.2-.471a2.139,2.139,0,0,1,.61-2.84c.763-.507,1.568-.955,2.314-1.485.389-.277.892-.6.449-1.4l-2.944.977c.26-.858.409-1.515.655-2.133.522-1.308,2.153-.871,2.94-1.7-.029-.214-.007-.392-.065-.424a1.5,1.5,0,0,0-.734-.28.868.868,0,0,1-.941-.481c-.747-1.079-1.442-1.032-1.943.155a2.5,2.5,0,0,1-1.554,1.458c-.852.332-1.676.74-2.5,1.133-.956.455-1.261,1.079-.813,1.725.52.749,1.1.326,1.642,0s1.034-.663,1.771-1.139c-.246,1.751-.315,3.252-2.208,3.648-.11.023-.264.061-.306.14-.174.332-.472.708-.42,1.017a1.38,1.38,0,0,0,.731.82c.268.131.662,0,1.143-.016.156.382.282.637.365.9.732,2.357,1.23,2.492,3.857,2.1a3.413,3.413,0,0,0,1.139-.369,15.591,15.591,0,0,0,6.816-6.807c.245-.511,1.208-1.246.248-1.719" transform="translate(-390.563 1189.204)"/>
    <path id="パス_1318" data-name="パス 1318" d="M88.078,11.113c.122.447.226.773.3,1.105a41.23,41.23,0,0,0,5.148,12.314c.208.343.447.668.647,1.015.253.438.624.8,1.1.535A1.613,1.613,0,0,0,96,25.063a20.271,20.271,0,0,0,.043-2.663l-1.366.949c-2.234-3.13-4.757-9.984-4.82-13.039l3.608-1.6c-.327-.36-.508-.68-.614-.657-1.142.252-2.272.559-3.57.892-.2-.633-.358-1.286-.612-1.9a1.065,1.065,0,0,0-1.533-.62A.968.968,0,0,0,86.857,7.9a18.341,18.341,0,0,1,.855,1.731C83.928,10.7,80.411,11.691,76.9,12.7c-.294.085-.714.261-.784.486-.122.392-.187,1.073.027,1.237a1.74,1.74,0,0,0,1.4.236c3.147-1.051,6.267-2.182,9.4-3.276a11.232,11.232,0,0,1,1.134-.27" transform="translate(-380.362 1190.446)"/>
    <path id="パス_1319" data-name="パス 1319" d="M59.922,22.717c-1.151.787-2.311,1.564-3.4,2.426a1.481,1.481,0,0,0-.552,1.964,4.762,4.762,0,0,1,.3,1.879c.013.8-.095,1.608-.157,2.412-.036.478-.19,1.079.413,1.222.312.075.724-.269,1.09-.425a7.139,7.139,0,0,1,1.246-.519c.573-.122,1.179-.079,1.758-.181,2.413-.424,3.177-1.235,3.541-3.88a5.309,5.309,0,0,0-1.429-4.555,1.786,1.786,0,0,0-2.808-.343m-2.055,6.864,4.768-2.464c-.087,2.513-2.365,3.639-4.768,2.464m.08-2.061c.457-2.193,1.957-2.888,3.463-3.853l1.366,2.274L57.948,27.52" transform="translate(-375.143 1186.336)"/>
    <path id="パス_1320" data-name="パス 1320" d="M223.144,65.6c-.079.039-.159.078-.239.113-.513.228-1.024.458-1.536.688-1.534.691-3.121,1.406-4.716,2.041l-.174.07a5.275,5.275,0,0,1-3.656.434l-.072-.019.027-.07c.108-.273.194-.536.279-.792a4.957,4.957,0,0,1,.619-1.4c.187-.255.372-.521.55-.778,1.074-1.547,2.185-3.145,4.477-3.608a.985.985,0,0,0,.706-.465.678.678,0,0,0-.031-.617,1.114,1.114,0,0,0-1.469-.6,5.275,5.275,0,0,0-.507.2,5.267,5.267,0,0,1-.525.208,2.05,2.05,0,0,1-1.915-.1,1.744,1.744,0,0,1-.468-1.61,3.726,3.726,0,0,1,1.643-2.653,1.136,1.136,0,0,0,.495-.763,1.094,1.094,0,0,0-.3-.82,1.105,1.105,0,0,0-.839-.32h-.073a1.239,1.239,0,0,0-.971.468,11.981,11.981,0,0,0-1.594,2.851,4.007,4.007,0,0,0,1.4,4.652l.047.039-.036.05c-.179.25-.355.489-.528.722-.378.513-.737,1-1.048,1.5a17.293,17.293,0,0,0-1.3,2.448,2.358,2.358,0,0,0,.131,2.447,2.849,2.849,0,0,0,2.808.673,15.593,15.593,0,0,0,3.88-1.173c1.633-.783,3.226-1.7,4.766-2.579q.728-.417,1.456-.83c.044-.025.058-.155.067-.249,0-.045.01-.091.017-.134-.5-.456-.921-.248-1.369-.027" transform="translate(-415.25 1177.933)"/>
    <path id="パス_1321" data-name="パス 1321" d="M28.97,27.548a6.921,6.921,0,0,0-1.179-5.808c-.8-1.126-1.516-1.265-2.8-.666a17.5,17.5,0,0,0-1.964,1.107,3.475,3.475,0,0,1-2.972.749,9.944,9.944,0,0,0-.368,1.449c-.13,1.6-.225,3.209-.314,4.815a5.66,5.66,0,0,0,.045,1.283.84.84,0,0,0,1.173.748c2.357-.716,4.707-1.455,7.058-2.19a1.875,1.875,0,0,0,1.317-1.488m-1.645-.1c-1.964.5-3.6,2.149-6.175,1.659.045-1.153.054-2.207.148-3.253a1.487,1.487,0,0,1,.481-.789,10.553,10.553,0,0,1,4.285-2.725c1.08.523,1.254,1.563,1.5,2.531a5.316,5.316,0,0,1,.125,1.586c-.021.349-.163.94-.361.99" transform="translate(-365.736 1186.714)"/>
    <path id="パス_1322" data-name="パス 1322" d="M73.29,71.947a12.761,12.761,0,0,1-2.337.973c-2.6.346-3.777-1.394-2.587-3.929,1.078-2.3,2.129-4.709,4.492-5.871a.988.988,0,0,0,.446-1.483,1.723,1.723,0,0,0-1.221-.566c-.321-.03-.658.32-1.007.43-2.1.657-3.97,2.07-6.233,2.2a1.205,1.205,0,0,0-1.135,1.314c-.007.682.716,1.111,1.537.894.929-.245,1.838-.581,3.109-.992-.465,1.012-.832,1.685-1.093,2.4a24.079,24.079,0,0,0-1,3.208A3.391,3.391,0,0,0,67.3,73.771c2.11,2.07,5.749.826,6.819-.715.172-.248.1-.7.137-1.058a2.537,2.537,0,0,0-.969-.051" transform="translate(-377.187 1176.296)"/>
    <path id="パス_1323" data-name="パス 1323" d="M81.662,29.029a3.316,3.316,0,0,0,.2-.277,2.384,2.384,0,0,1,2.94-1.271,2.769,2.769,0,0,1,1.531-3A10.588,10.588,0,0,0,87.9,23.131a9.247,9.247,0,0,0,.842-1.146l-.27-.345L85.1,23.334c.307-1.616.261-2.988,1.924-3.457.255-.072.392-.562.76-1.129-1.314.036-2.61-.313-3.245.183a7.929,7.929,0,0,1-2.848,1.408c-.613.174-.711.665-.563,1.244a.8.8,0,0,0,1.022.658c.429-.082.842-.24,1.283-.372A4.745,4.745,0,0,1,81.5,26.292a12.106,12.106,0,0,0-1.4,1.5c-.544.55-.625,1.167-.041,1.636s1.183.2,1.6-.4" transform="translate(-381.305 1187.247)"/>
    <path id="パス_1324" data-name="パス 1324" d="M21.945,16.391c1.545-.721,3.042-1.551,4.526-2.4.208-.119.237-.556.465-1.145l-1.906.619c.616-1.651.582-3.484,2.536-4.138.118-.039.2-.241.262-.384.194-.461-.083-.784-.644-.72a3.552,3.552,0,0,0-.771.361c.067-.569.119-.831.123-1.093.012-.8-.385-1.286-1.052-1.272-.762.015-.882.628-.8,1.138.244,1.518-.59,2.135-1.858,2.481-.36.1-.709.239-1.059.371a.862.862,0,0,0-.58,1.266.97.97,0,0,0,1.468.452c.393-.2.751-.477,1.233-.789-.026,2.084-.7,3.026-2.336,3.424-.613.149-1.01.461-.844,1.1a.925.925,0,0,0,1.238.724" transform="translate(-366.074 1190.459)"/>
    <path id="パス_1325" data-name="パス 1325" d="M540.753,69.464c-.788-.4-1.493-.881-2.351-.218a5.605,5.605,0,0,0-2.376,3.843c-.188,1.6.521,2.34,2.1,2.185a4.51,4.51,0,0,0,3.822-3.958,1.776,1.776,0,0,0-1.2-1.852m-1.314,2.909a1.687,1.687,0,0,1-1.814,1.207,10.124,10.124,0,0,1,.547-1.8c.124-.237.567-.307.865-.452.147.352.485.76.4,1.044" transform="translate(-801.08 1210.573)"/>
    <path id="パス_1326" data-name="パス 1326" d="M395.379,64.523c-1.057-1.311-2.162-2.585-3.183-3.923-.983-1.288-1.854-2.662-2.842-3.946a3.274,3.274,0,0,0-1.028-.665c-.967-.1-1.541.679-1.214,1.386a3.435,3.435,0,0,0,.51.631c2.325,2.867,5,5.459,6.859,8.694a1.177,1.177,0,0,0,.1.132,1,1,0,0,0,1.452.165.836.836,0,0,0,.208-1.283c-.278-.4-.551-.811-.858-1.191" transform="translate(-460.671 1177.611)"/>
    <path id="パス_1327" data-name="パス 1327" d="M273.462,67.22a25.75,25.75,0,0,0-2.974,1.095,1.186,1.186,0,0,0-.685,1.6c.276.519.913.61,1.59.207.26-.155.479-.384.746-.524.66-.345,1.337-.658,2.021-.991.53,1.527-.224,2.881-2.232,3.914.21.45.317,1.078.582,1.154a1.642,1.642,0,0,0,1.376-.267,5.463,5.463,0,0,0,2.063-4.231c-.078-1.6-.93-2.349-2.488-1.955" transform="translate(-430.375 1174.735)"/>
    <path id="パス_1328" data-name="パス 1328" d="M190.041,69.542c-1.779.52-2.38.108-2.392-1.763a28.113,28.113,0,0,1,.272-3.085c.038-.361.162-.713.187-1.074.055-.772-.373-1.084-1.106-1.116-.64-.027-1.125.175-1.133.869a54.479,54.479,0,0,0,.056,5.451c.141,1.6.86,2.254,2.055,2.374a4.014,4.014,0,0,0,3.828-2.153,7.112,7.112,0,0,0-.93.145c-.287.094-.548.269-.837.354" transform="translate(-408.72 1175.927)"/>
    <path id="パス_1329" data-name="パス 1329" d="M3.76,33.257c.1-.048.136-.254.246-.48l-1.323-.662c.287-1.408.534-2.875.9-4.313.241-.954.2-1.412-.406-1.608-.662-.215-1.168.168-1.334,1.162a36.688,36.688,0,0,0-.56,4.3c-.089,1.889.757,2.392,2.48,1.6" transform="translate(-361.066 1185.317)"/>
    <path id="パス_1330" data-name="パス 1330" d="M201.389,62.031a.831.831,0,0,0-.513,1.008c.086.78.114,1.569.139,2.356.024.742-.019,1.489.024,2.23a1,1,0,0,0,1.137,1.094c.119-.186.346-.392.372-.605.185-1.538.358-3.078.464-4.617a1.934,1.934,0,0,0-.344-1.091.931.931,0,0,0-1.279-.375" transform="translate(-412.602 1176.078)"/>
    <path id="パス_1331" data-name="パス 1331" d="M82.077,56.069c-.677-.065-1.247.144-1.287.947-.085,1.705-.161,3.412-.188,5.119-.009.54.068,1.164.834,1.188s.829-.563.894-1.128q.259-2.265.525-4.53c.365-.854,0-1.522-.779-1.6" transform="translate(-381.549 1177.59)"/>
    <path id="パス_1332" data-name="パス 1332" d="M394.212,55.645c.483.812,1.061.737,1.7.087L394.8,51.609a2.9,2.9,0,0,0-.827-.271,1.06,1.06,0,0,0-1.117,1.379,18.709,18.709,0,0,0,1.359,2.929" transform="translate(-462.161 1178.811)"/>
    <path id="パス_1333" data-name="パス 1333" d="M398.327,50.639c-.688.237-.6.829-.542,1.36a18.407,18.407,0,0,0,.366,2.4,10.408,10.408,0,0,0,.831,1.71c.408-.592.762-.884.813-1.222a26.36,26.36,0,0,0,.2-2.751,1.611,1.611,0,0,0-.123-.631,1.317,1.317,0,0,0-1.547-.866" transform="translate(-463.44 1179.003)"/>
    <path id="パス_1334" data-name="パス 1334" d="M87.127,57c-.771-.155-1.13.262-1.188,1-.082,1.033-.194,2.064-.238,3.1a2.357,2.357,0,0,0,.2,1.237,1.458,1.458,0,0,0,.961.622c.19.024.582-.433.639-.722a11.605,11.605,0,0,0,.132-1.754c.189-.886.345-1.538.464-2.2.138-.763-.3-1.15-.972-1.284" transform="translate(-382.865 1177.354)"/>
    <path id="パス_1335" data-name="パス 1335" d="M101.4,5.372c.328-.356.68-.59.646-.724-.355-1.367-.716-2.738-1.2-4.063-.2-.556-.82-.549-1.337-.323a.822.822,0,0,0-.473,1.251c.725,1.26,1.514,2.484,2.362,3.86" transform="translate(-386.274 1192.035)"/>
    <path id="パス_1336" data-name="パス 1336" d="M144.091,30.169c.161.49.269.9.856.813.661-.1.785-.587.648-1.159-.159-.665-.346-1.324-.487-1.856-.147-.333-.183-.614-.341-.734a3.2,3.2,0,0,0-1.251-.709c-.255-.045-.7.323-.87.616-.32.551.133.9.473,1.307a5.488,5.488,0,0,1,.973,1.722" transform="translate(-397.542 1185.218)"/>
    <path id="パス_1337" data-name="パス 1337" d="M528.909,50.125c-.674.111-1.344.245-2.026.37-.136-1.631-.384-2.17-.961-2.1-.281.035-.683.174-.783.384a12.329,12.329,0,0,0-.557,1.806c-.641.077-1.383.16-2.124.257-1.55.2-3.1.391-4.648.628-.74.114-1.2.659-1.074,1.211.163.72.782.735,1.327.688a8.143,8.143,0,0,0,1.464-.374,19.929,19.929,0,0,1,4.8-.681c-.064.863-.1,1.558-.919,1.719-2.615.514-3.722,2.581-4.805,4.647a2.678,2.678,0,0,0-.171,1.475,1.6,1.6,0,0,0,2.768,1.09,6.219,6.219,0,0,0,1.086-1.252c.78-1.092,1.527-2.208,2.335-3.386a3.824,3.824,0,0,1,.271,3.044c-.422,1.551-1.055,3.043-1.562,4.572-.388,1.171-1.209,2.2-1.289,3.459,1.4.6,1.59.541,2.02-.579.542-1.413,1.078-2.829,1.629-4.239,1.056-2.7,1.716-5.364.2-8.17-.6-1.11.492-2.684,1.754-2.863a7.187,7.187,0,0,0,1.628-.285,1.169,1.169,0,0,0,.649-.833c.008-.594-.509-.668-1-.587M520.124,59.8c.123-1.782,1.305-2.834,2.631-3.788a8.632,8.632,0,0,1-2.631,3.788" transform="translate(-796.101 1215.873)"/>
    <path id="パス_1338" data-name="パス 1338" d="M249.648,14.651a9.579,9.579,0,0,1-.72,1.428,11.265,11.265,0,0,1-1.866,2.249,15.28,15.28,0,0,1-2.9,1.682,5.863,5.863,0,0,1-1.808.534c-1.37.179-2.12-.445-2.225-1.961a24.43,24.43,0,0,1,.114-2.988c1.395-1.573,3.757-.971,4.685-3.3-1.648-.53-2.759,1.135-4.157.751.1-1.977.211-2.157,1.73-2.476.622-.131,1.3-.119,1.176-1.3l-2.061-.092c.148-.743.3-1.395.4-2.056a.963.963,0,0,0-.654-1.2c-.55-.151-.921.231-1.068.759a8.55,8.55,0,0,0-.253,1.689A1.582,1.582,0,0,1,238.7,9.981a9.357,9.357,0,0,0-2.226.8c-.275.148-.587.892-.478,1.077a1.923,1.923,0,0,0,1.088.676c.2.061.471-.2.714-.3.412-.177.826-.347,1.357-.569-.041,1.577-.409,2.633-1.775,3a12.218,12.218,0,0,0-1.446.653c-.519.22-1.039.5-.772,1.217.254.679.837.559,1.356.381.592-.2,1.176-.432,1.927-.709.026,1.1-.025,2.02.084,2.916.277,2.3,1.293,3.164,3.42,3a5.277,5.277,0,0,0,.777-.111,11.427,11.427,0,0,0,5.95-3.6,11.432,11.432,0,0,0,1.61-3.1c.161-.368.019-.822-.639-.661" transform="translate(-421.441 1190.546)"/>
    <path id="パス_1339" data-name="パス 1339" d="M327.574,12.229a1.045,1.045,0,0,0-.972.224,3.693,3.693,0,0,0-.532,1.052c-.058.15-.115.3-.178.442a11.37,11.37,0,0,1-5.9,5.764,1.425,1.425,0,0,1-1.334-.155,2.363,2.363,0,0,1-.586-1.767,3.114,3.114,0,0,1,.67-2.216c.313-.263.644-.51.964-.748.389-.29.79-.59,1.159-.919a1.394,1.394,0,0,0,.289-.6c.027-.088.055-.177.087-.262-.088-.027-.179-.061-.266-.094a1.031,1.031,0,0,0-.654-.113,5.453,5.453,0,0,0-1.121.668c-.192.135-.391.274-.617.421l-.1.065-.008-.119a2.368,2.368,0,0,1,.828-2.362c.182-.135.367-.269.551-.4.366-.263.743-.536,1.1-.823a.8.8,0,0,0,.358-.525.773.773,0,0,0-.222-.547l-1.777.645.04-.134c.053-.177.1-.325.132-.454.069-.24.118-.414.182-.584.033-.087.071-.175.108-.263.189-.44.367-.856.008-1.254a1.1,1.1,0,0,0-.849-.372c-.626.113-.679.76-.732,1.385l0,.041c-.2,2.323-1.16,3.478-2.951,3.534a.5.5,0,0,0-.131.023c-.551.165-1.156.531-.919,1.332a.968.968,0,0,0,.525.586,1.113,1.113,0,0,0,.906.022,3.775,3.775,0,0,0,.613-.361c.1-.066.2-.134.3-.2l.091-.056.016.105c.245,1.627.21,1.87-.918,2.487-.754.412-1.279.792-1.136,1.9l1.935.045.012.054c.041.191.08.388.12.588.088.444.179.9.3,1.347.386,1.414,1.021,1.923,2.276,1.814a3.623,3.623,0,0,0,1.286-.365,15.911,15.911,0,0,0,7.06-7.291l.044-.085a1.077,1.077,0,0,0,.175-.51c-.085-.9-.22-.964-.235-.969" transform="translate(-441.854 1190.312)"/>
    <path id="パス_1340" data-name="パス 1340" d="M265.085,28.211c.521.514,1.012.406,1.454-.292-.648-1.124-1.213-2.173-1.848-3.179a1,1,0,0,0-1.607-.24.918.918,0,0,0-.114,1.481c.687.76,1.386,1.511,2.115,2.23" transform="translate(-428.556 1185.817)"/>
    <path id="パス_1341" data-name="パス 1341" d="M316.073,54.71c.865.095.959-.54.6-1.272l-1.648-.162a1.809,1.809,0,0,1-.215-.245c-.982-1.555-1.406-1.589-2.665-.281a1.975,1.975,0,0,1-.9.455c-.764.2-1.554.316-2.314.533-.533.151-1.079.392-.912,1.131a1.239,1.239,0,0,0,1.332,1.019,6.649,6.649,0,0,0,1.408-.355c-.068.409-.085.648-.149.873-.59,2.041-1.328,4.053-1.742,6.129a23.029,23.029,0,0,0-.371,5.253,3.749,3.749,0,0,0,1.143,2.159,1.475,1.475,0,0,0,2.33-.3c-2.011-1.113-2.061-1.158-1.807-3.582A31.318,31.318,0,0,1,312.1,58.1c.732-1.914,1.379-3.675,3.976-3.391" transform="translate(-440.263 1178.687)"/>
    <path id="パス_1342" data-name="パス 1342" d="M293.994,57.651a13.159,13.159,0,0,0-4.319,5.069,20.844,20.844,0,0,0-.84,2.06c-.53,1.623-.1,2.695,1.377,3.115a23.879,23.879,0,0,0,3.268.508,7.862,7.862,0,0,1,1.136.119.75.75,0,0,1,.437.529c.012.194-.217.42-.366.607a.37.37,0,0,1-.272.088c-1.9-.007-3.825.333-5.678-.539a3.43,3.43,0,0,1-1.95-4.779,40.5,40.5,0,0,1,2.328-4.655c.215-.412.505-.775.867-1.32a3.357,3.357,0,0,0-1.022-.228c-1.558.226-3.164.153-4.614,1.058a1.616,1.616,0,0,1-1.927-.632.955.955,0,0,1,.059-1.313,3.152,3.152,0,0,1,1.52-.77c2.045-.19,4.1-.256,6.149-.366a14.927,14.927,0,0,0,2-.116c1.056-.2,1.46.484,1.846,1.567" transform="translate(-433.602 1177.593)"/>
    <path id="パス_1343" data-name="パス 1343" d="M322.973,69.217a2.994,2.994,0,0,1-3.414,0c-.383-.254-1.053-.073-1.625-.092.191,1.866.776,2.576,2.181,2.517a12.039,12.039,0,0,0,3.186-.594,2.52,2.52,0,0,0,1.754-1.8c-.779-.691-1.418-.4-2.082-.029" transform="translate(-442.832 1174.294)"/>
    <path id="パス_1344" data-name="パス 1344" d="M318.012,63.937c1.392-.378,2.785-.749,4.219-1.134.252-.485.157-1.013-.432-1.093a7.615,7.615,0,0,0-5.106.657c-.165.1-.213.395-.3.568.423.639.771,1.231,1.619,1" transform="translate(-442.434 1176.169)"/>
    <path id="パス_1345" data-name="パス 1345" d="M254.913,75.3c-1.075-.546-2.181-1.03-3.263-1.561a7.447,7.447,0,0,1-3.415-3.388c-.383-.746-.76-1.495-1.148-2.239-.415-.8-.9-1.016-1.495-.691-.637.346-.691.958-.151,1.739a5.022,5.022,0,0,1,.537.765c1.559,3.535,4.649,5.309,7.907,6.882a1.155,1.155,0,0,0,1.652-.929,2.749,2.749,0,0,0-.625-.577" transform="translate(-424.018 1174.694)"/>
    <path id="パス_1346" data-name="パス 1346" d="M239.613,70.233c.022-.47.167-.934.222-1.4.1-.876-.289-1.357-1.084-1.377-.6-.014-.991.547-.953,1.33s.015,1.576.1,2.356a11.85,11.85,0,0,0,.422,2.486c.414,1.259,1.264,1.49,2.619.615-1.537-1.062-1.389-2.552-1.322-4.006" transform="translate(-422.139 1174.648)"/>
    <path id="パス_1347" data-name="パス 1347" d="M259.441,63.4A1.391,1.391,0,0,0,259,64.578a6.464,6.464,0,0,1-.275,3.259,2.763,2.763,0,0,0,.025.863c1.45-.27,1.538-.289,1.869-1.148a3.743,3.743,0,0,0,.044-3.489c-.283-.467-.643-1-1.219-.661" transform="translate(-427.534 1175.722)"/>
    <path id="パス_1348" data-name="パス 1348" d="M254.409,65.466a1.8,1.8,0,0,0-1.027-.517,1.129,1.129,0,0,0-.773.616c-.355.763.717,3.121,1.525,3.354.291.085.659-.1,1.2-.2a2.475,2.475,0,0,1-.782-2.527.847.847,0,0,0-.143-.731" transform="translate(-425.946 1175.295)"/>
    <path id="パス_1349" data-name="パス 1349" d="M249.886,58.752a7.766,7.766,0,0,0,1.8-6.945c-.283-1.625-1.271-2.253-2.907-2.11A12.5,12.5,0,0,0,243.673,51c-.372.206-.779.352-1.22.547A4.758,4.758,0,0,1,242,51.2c-.333-.351-.636-.75-1.214-.442-.507.269-.562.677-.516,1.21a9.9,9.9,0,0,1-.066,1.856c-.143,1.383-.419,2.759-.449,4.142a11.189,11.189,0,0,0,.466,2.791.911.911,0,0,0,1.253.639c2.394-.648,4.786-1.3,7.169-1.99a2.776,2.776,0,0,0,1.248-.65m-5.414-4.98c-.145,1.093-.22,1.162-1.3,1.4-.234.051-.482.047-.709.116a1.064,1.064,0,0,0-.839,1.3c.23.634.8.649,1.322.544a3.968,3.968,0,0,0,.965-.536c.183.754.353,1.458.533,2.2l-2.91,1.084c-.613-.883-.544-2.825.3-6.245l2.693-1.222c-.02.546,0,.959-.056,1.363m1.28,4.9c-.014-.6-.008-1.151-.043-1.694-.068-1.044.122-1.345,1.153-1.677a6.539,6.539,0,0,0,.97-.261,1.564,1.564,0,0,0,.742-.937,8.452,8.452,0,0,0-1.167-.133,8.569,8.569,0,0,0-1.2.193,5.288,5.288,0,0,1-.061-.755c.146-1.864.92-2.5,2.808-2.336a1.307,1.307,0,0,1,1.332,1.277c.15,1.46.4,2.963-.962,4.127-.286.245-.268.843-.461,1.532-.431.119-.978.294-1.537.416-.511.111-1.036.166-1.575.248" transform="translate(-422.643 1179.238)"/>
    <path id="パス_1350" data-name="パス 1350" d="M137.724,65.641a7.869,7.869,0,0,1-3.5-2.851l-.054-.09.1-.042c.2-.086.385-.165.553-.239.329-.143.614-.267.9-.375.306-.114.62-.221.924-.324.544-.185,1.108-.378,1.637-.616.458-.206.69-.409.73-.636.036-.2-.087-.443-.365-.714a1.017,1.017,0,0,1-.118-.906c.264-.726.05-1.223-.716-1.655l-.18-.01c-.522.039-.776.38-1.039.967a8.291,8.291,0,0,1-1.409,2.112l-.108.121-.048-.154a4.465,4.465,0,0,1,.277-2.849c.044-.138.089-.28.133-.424l.021-.068.113.006c.7.035,1.381.069,2.063.106.042,0,.085,0,.13,0,.013-.1.034-.217.054-.327.039-.218.111-.624.049-.678a6,6,0,0,0-1.362-.574c-.217-.072-.444-.148-.684-.236l-.073-.027.016-.076c.047-.239.1-.479.148-.723.118-.562.24-1.144.32-1.725a1.1,1.1,0,0,0-.171-.848.977.977,0,0,0-.707-.335c-.7-.067-.892.318-.993,1.056-.1.706-.242,1.4-.4,2.139-.067.323-.136.652-.2.993l-.01.056L128.624,57.1c0,.1,0,.211-.01.33-.017.315-.038.706.116.843,1.1.979,1.006,2.158.905,3.4l-.008.1-.048.022c-.166.079-.331.151-.494.223a9.9,9.9,0,0,0-1.006.491.924.924,0,0,0-.521.771.767.767,0,0,0,.467.645,2.186,2.186,0,0,0,1.441.027,10.6,10.6,0,0,0,1.5-.546c.212-.089.424-.178.637-.261l.06-.024.363.421-.042.059c-.1.142-.2.29-.3.437a6.64,6.64,0,0,1-.7.937c-.524.547-1.072,1.09-1.6,1.614-.622.615-1.264,1.251-1.872,1.9A9.829,9.829,0,0,0,126,70.521a1.274,1.274,0,0,0,.1,1.148,1.644,1.644,0,0,0,1.257.039,1.1,1.1,0,0,0,.616-.709,5.665,5.665,0,0,1,2.076-3.008c.264-.243.536-.493.786-.752a1.551,1.551,0,0,1,.629-.321c.131-.045.279-.1.435-.164l.136-.059-.008.148c-.021.42-.044.82-.065,1.205-.048.854-.093,1.66-.114,2.456a17.575,17.575,0,0,0,.06,2.359,1.13,1.13,0,0,0,.434.833.8.8,0,0,0,.69.087c.244-.068.523-.621.58-1.025a4.367,4.367,0,0,0-.027-1.06,7.023,7.023,0,0,1-.05-.752c0-.271,0-.543,0-.816a13.136,13.136,0,0,1,.542-4.622l.036-.106.1.057c.321.188.618.367.9.538.591.358,1.1.665,1.637.938,1.387.7,2.825,1.392,4.276,2.047a1.915,1.915,0,0,0,2.466-.6c-.495-.223-.987-.433-1.465-.636a30.163,30.163,0,0,1-3.315-1.573c-.315-.182-.651-.358-.976-.527m-4.951-4.986a1.94,1.94,0,0,1-1.489.622l-.105.007.007-.105c.189-2.652.415-3.1,1.732-3.437l.1-.025.016.1c.231,1.447.152,2.323-.257,2.838" transform="translate(-393.248 1178.783)"/>
    <path id="パス_1351" data-name="パス 1351" d="M173.582,69.731c-.067-.013-.134-.026-.2-.042-.3-.076-.6-.143-.9-.208-.269-.059-.538-.119-.8-.185-1.089-.269-1.2-.445-.995-1.564a1.343,1.343,0,0,1,.042-.155,1,1,0,0,0,.056-.254c.009-.214.02-.428.031-.642a15.86,15.86,0,0,0,.024-2.024,1.183,1.183,0,0,0-.742-.829,1.475,1.475,0,0,0-1.08.268.75.75,0,0,0-.182,1.029,3.677,3.677,0,0,1,.292,2.406l-.024.247c-.082.879-.179.932-1.035,1.153a7.914,7.914,0,0,0-1.836.665,2.421,2.421,0,0,0-1.209,1.456,2.653,2.653,0,0,0,.257,2,3.913,3.913,0,0,0,1.852,1.638,1.878,1.878,0,0,0,.8.193,1.33,1.33,0,0,0,.538-.109,1.637,1.637,0,0,0,.863-1.063l1.026-3.2.185.023c.162.021.315.04.467.064.233.038.466.078.7.118.468.081.953.165,1.434.22l.112.014c.405.053.96.125,1.05-.521.075-.547-.386-.636-.723-.7m-5.722,3.49-.011.026c-.943-.325-1.354-.823-1.255-1.521.1-.746.725-1.17,1.952-1.329a5.994,5.994,0,0,1-.686,2.823" transform="translate(-403.325 1175.591)"/>
    <path id="パス_1352" data-name="パス 1352" d="M163.22,58.877a.609.609,0,0,0-.194-.467.751.751,0,0,0-.6-.115,9.09,9.09,0,0,1-1.116.095,6.485,6.485,0,0,1-.736-.036c-.092-.007-.186-.016-.284-.021l.064-.225a3.851,3.851,0,0,0,.108-.426,1,1,0,0,0-1.868-.67,3.119,3.119,0,0,0-.33.874l-.005.023c-.152.691-.152.691-.863.812l-.036.006c-.727.123-1.681.292-2.617.512a2.191,2.191,0,0,0-.671.335l-.163.1a.82.82,0,0,0-.321,1.079.884.884,0,0,0,.5.57,1.254,1.254,0,0,0,1.039-.166l.047-.025a4.922,4.922,0,0,1,2.188-.76c-.014.1-.025.2-.036.29a4.509,4.509,0,0,1-.1.607c-.249.942-.507,1.867-.768,2.75a9.309,9.309,0,0,0-.291,3.484,3.026,3.026,0,0,0,1.336,2.287.959.959,0,0,0,.545.176.818.818,0,0,0,.225-.031.619.619,0,0,0,.41-.349.57.57,0,0,0,.019-.464.832.832,0,0,0-.537-.4,1.133,1.133,0,0,1-.78-1.3,17.483,17.483,0,0,1,1.78-6.884,1.1,1.1,0,0,1,.849-.707c.3-.045.6-.093.9-.142.533-.087,1.083-.177,1.627-.24.314-.036.7-.082.684-.577" transform="translate(-400.375 1177.497)"/>
    <path id="パス_1353" data-name="パス 1353" d="M176.567,61.521c-.076-.124-.142-.257-.205-.386a1.6,1.6,0,0,0-.49-.684c-1.09-.693-2.207-1.317-3.547-2.04a.7.7,0,0,0-.589-.011,1.028,1.028,0,0,0-.593.564.824.824,0,0,0,.5,1.084,2.1,2.1,0,0,0,.389.118,1.784,1.784,0,0,1,.385.121,6.1,6.1,0,0,0,1.046.363A2.6,2.6,0,0,1,175.458,62a.374.374,0,0,0,.214.16.822.822,0,0,0,.276.054.345.345,0,0,0,.143-.027.878.878,0,0,0,.328-.366c.044-.07.09-.145.145-.217l.03-.041Z" transform="translate(-404.913 1177.001)"/>
    <path id="パス_1354" data-name="パス 1354" d="M481.232,64.373a8.555,8.555,0,0,0-1.033.44,5.137,5.137,0,0,1-1.658.576,3.2,3.2,0,0,1-2.906-.91c-.708-.878-.662-2.259.13-3.79l.165-.32c1.278-2.478,2.6-5.041,5.225-6.23a1.074,1.074,0,0,0,.541-1.571,1.808,1.808,0,0,0-1.274-.656,1.147,1.147,0,0,0-.62.218,2.347,2.347,0,0,1-.494.228,20.974,20.974,0,0,0-2.584.971,12.381,12.381,0,0,1-4.546,1.283,1.312,1.312,0,0,0-1.259,1.38.911.911,0,0,0,.389.816,1.444,1.444,0,0,0,1.178.191c.714-.162,1.428-.376,2.254-.622.394-.117.815-.244,1.28-.377l.184-.053-.08.157c-.192.38-.371.717-.536,1.027-.32.607-.6,1.13-.816,1.666l-.036.089a27.468,27.468,0,0,0-1.255,3.521,3.828,3.828,0,0,0,.978,3.676,4.361,4.361,0,0,0,3.491,1.333A5.72,5.72,0,0,0,482,65.559a1.509,1.509,0,0,0,.161-.756c.006-.113.013-.228.027-.339-.091-.014-.183-.033-.272-.052a1.4,1.4,0,0,0-.688-.039" transform="translate(-784.276 1214.964)"/>
    <path id="パス_1355" data-name="パス 1355" d="M181.907,15.68a8.732,8.732,0,0,0,1.2.709,11.168,11.168,0,0,0,4.94.868,1.167,1.167,0,0,1,.615.072c.157.083.346.306.336.455a.793.793,0,0,1-.322.59,1.938,1.938,0,0,1-.863.092,16.284,16.284,0,0,1-7.794-1.889,2.731,2.731,0,0,0-.464-.182c-.036-.013-.081.007-.216.022a1.69,1.69,0,0,0-.185.507c-.094,1.771-.191,3.544-.233,5.316a9.881,9.881,0,0,0,.223,1.61,3.927,3.927,0,0,1,.095.743c-.024.5-.2.934-.8.943a.85.85,0,0,1-.94-.834c-.077-1.095-.138-2.194-.123-3.291.027-1.857.12-3.713.177-5.569a1.832,1.832,0,0,0-.136-.45c-.877.494-1.253,1.356-1.826,2.038s-1.168,1.3-1.726,1.912c-.542-.171-.6-.47-.395-.818a23.739,23.739,0,0,1,1.779-2.9c1.5-1.874,3.114-3.66,4.681-5.482.191-.222.384-.442.559-.676.035-.047-.012-.154-.03-.318a14.473,14.473,0,0,0-4.15,1.318c-.263.119-.441.5-.583.792a4.726,4.726,0,0,0-.211.853c-.213.808-.739,1.17-1.341.93-.526-.21-.668-.825-.369-1.526.542-1.277,1.093-2.55,1.6-3.839.215-.545.318-1.133.5-1.693a2.461,2.461,0,0,1,.384-.781,1.3,1.3,0,0,1,1.407-.2.846.846,0,0,1,.152,1.137,12.031,12.031,0,0,0-.533,1.149c-.312.771-.117,1.058.7.913,1.329-.237,2.646-.544,3.97-.819.908-.188,1.813-.4,2.729-.54.382-.058.771.072.788.6.017.49-.282.663-.708.714-.21.025-.421.04-.626.085-.7.153-1.391.317-2.24.511a1.177,1.177,0,0,1-.345,2c-.108.065-.19.17-.293.243-1.206.859-2,1.9-1.556,3.5,1.432.384,1.412.368,2.337-.777a18.188,18.188,0,0,1,1.873-2.05,4.272,4.272,0,0,1,1.284-.55c.51.8.412,1.248-.225,1.749-1.018.8-1.932,1.732-3.1,2.8" transform="translate(-405.502 1190.805)"/>
    <path id="パス_1356" data-name="パス 1356" d="M164.655,12.44c1.142.738.493,1.575.041,2.4.562.309.979,0,1.39-.122a1.219,1.219,0,0,1,1.515.575,4.227,4.227,0,0,1,.778,3.114,25.039,25.039,0,0,1-2.854,7.4c-.188.357-.463.628-.912.493a.761.761,0,0,1-.612-.955c.092-.4.143-.919.413-1.15,1.146-.981,1.36-2.394,1.866-3.676a6.13,6.13,0,0,0,.4-2.965c-.042-.372-.249-.926-.513-1.018a1.577,1.577,0,0,0-1.122.363,9.161,9.161,0,0,0-1.287,1.156,1.636,1.636,0,0,0-.38.634c-.432,1.365-.828,2.742-1.268,4.105a3.541,3.541,0,0,1-.533.982.691.691,0,0,1-1.008.172.715.715,0,0,1-.343-.958c.469-1.354.892-2.722,1.337-4.084.511-1.563,1.033-3.122,1.532-4.689a5.036,5.036,0,0,0,.074-.933,4.292,4.292,0,0,0-1.346.384,16.924,16.924,0,0,0-2.26,1.992,1.345,1.345,0,0,1-1.341.473.783.783,0,0,1-.538-1.256,3.416,3.416,0,0,1,.7-.718A19.462,19.462,0,0,1,163.9,11.1c.863-.344,1.743-.644,2.621-.947a5.724,5.724,0,0,1,.982-.243c.492-.076,1.09-.237,1.221.478.142.778-.534.726-1,.809a7.215,7.215,0,0,0-3.063,1.244" transform="translate(-401.414 1189.525)"/>
    <path id="パス_1357" data-name="パス 1357" d="M206.024,24.155c-.562,1.041-1.038,1.156-1.672.509a2.488,2.488,0,0,1-.656-1.855,31.274,31.274,0,0,1,.814-7.394,8.6,8.6,0,0,0,.162-.868c.01-.07-.056-.151-.088-.226-1.018.289-2.4,1.972-3.281,4.01-1.016-.09-1.246-.289-.9-1.07a16.518,16.518,0,0,1,1.583-2.716,14.586,14.586,0,0,1,4.655-4.2,3.429,3.429,0,0,1,.826-.292.755.755,0,0,1,1,.516.8.8,0,0,1-.409,1.072c-.456.208-.948.34-1.412.534a5.8,5.8,0,0,0-.72.443c.884.61.66,1.3.462,2.147a33.989,33.989,0,0,0-1.275,7.842c0,.72-.3,1.54.9,1.545" transform="translate(-412.445 1189.48)"/>
    <path id="パス_1358" data-name="パス 1358" d="M216.766,25.573c.091-.139.148-.312.261-.39a4.244,4.244,0,0,0,1.714-3.388c.115-1.5.234-3.009.232-4.515,0-1.056-.332-1.239-1.259-.863-.385.157-.719.461-1.094.655a2.207,2.207,0,0,1-1.056.393,1.2,1.2,0,0,1-.867-.625.746.746,0,0,1,.473-.992,27.829,27.829,0,0,1,3.821-1.289,32.423,32.423,0,0,1,4.45-.3c.349-.016.7.073.768.568.085.576-.217.88-.842.845a10.142,10.142,0,0,0-1.706-.071c-.939.106-1.058.3-1.045,1.388a20.335,20.335,0,0,1-.826,6.348,6.729,6.729,0,0,1-.87,1.757,1.508,1.508,0,0,1-2.154.473" transform="translate(-416.161 1188.382)"/>
    <path id="パス_1359" data-name="パス 1359" d="M222.493,8.107c-1.511.406-3.028.784-4.529,1.228-.8.237-1.58.587-2.369.888a1.133,1.133,0,0,1-1.417-.866,1.036,1.036,0,0,1,.269-.743,1.178,1.178,0,0,1,.741-.285c2.249-.089,4.391-.971,6.635-1.089.456-.024.911-.08,1.367-.1a.512.512,0,0,1,.6.572c-.007.381-.2.63-.576.627-.229,0-.456-.027-.685-.041-.013-.063-.026-.125-.039-.188" transform="translate(-416.04 1190.223)"/>
    <path id="パス_1360" data-name="パス 1360" d="M200.225,13.6c-.621.05-.949-.259-.783-.9a6.717,6.717,0,0,1,.649-1.612,10.506,10.506,0,0,1,3.359-3.167,1.284,1.284,0,0,1,1.693.248,1.169,1.169,0,0,1-.806,1.49c-2.058.547-3.123,2.078-4.112,3.937" transform="translate(-412.224 1190.072)"/>
    <path id="パス_1361" data-name="パス 1361" d="M164.937,8.643c.053-.32.093-.645.162-.961a3.021,3.021,0,0,0-.174-2.208c-.21-.381-.323-.788.1-1.136a1.5,1.5,0,0,1,1.648-.213,1.081,1.081,0,0,1,.3,1.264c-.373,1.016-.747,2.033-1.172,3.028-.084.2-.4.3-.605.439l-.262-.214" transform="translate(-403.274 1191.043)"/>
    <path id="パス_1362" data-name="パス 1362" d="M298.875,20.217l-.1.018c-.027,0-.053.013-.08.019a.778.778,0,0,1-.177.03c-.3,0-.6,0-.9.006a16.04,16.04,0,0,1-2.278-.078,1.914,1.914,0,0,1-1.658-.931l-.02-.04.018-.041c.079-.167.151-.347.221-.522a3.91,3.91,0,0,1,.609-1.145,4.041,4.041,0,0,1,1.068-.773c.163-.093.331-.189.487-.292l.042-.024a.157.157,0,0,0,.03-.018,2.524,2.524,0,0,1,.119-.263.951.951,0,0,0,.162-.539.843.843,0,0,0-.389-.539.5.5,0,0,0-.422,0,5.22,5.22,0,0,0-.957.562l-.191.131c-.325.219-.641.449-1.007.714l-.532.384-.1.069-.044-.11a3.41,3.41,0,0,0-2.44-1.909c-.194-.07-.387-.139-.576-.214l-.1-.04.053-.093a4.27,4.27,0,0,1,2.329-2.182c.3-.1.462-.174.51-.275.059-.124-.013-.349-.175-.8a3.536,3.536,0,0,0-.634.035c-.84.182-1.68.371-2.52.56q-1.132.254-2.262.5c-.571.125-.889.3-1,.554-.116.272-.008.674.34,1.26l2.3-.536-1.033,1.9c-.757,1.4-1.473,2.716-2.2,4.026a.733.733,0,0,0,.209,1.106.688.688,0,0,0,.555.087.879.879,0,0,0,.559-.441,3.546,3.546,0,0,0,.192-.458c.046-.123.092-.251.149-.372q.132-.285.261-.57c.281-.616.573-1.251.9-1.857a1.354,1.354,0,0,1,2.009-.562l.1.044-.056.09c-.113.182-.213.357-.31.525a6.307,6.307,0,0,1-.623.949c-.918,1.081-1.873,2.159-2.8,3.2l-.878.993a.95.95,0,0,0-.013,1.362.678.678,0,0,0,.509.211.916.916,0,0,0,.59-.418q.388-.51.775-1.022c.548-.726,1.114-1.477,1.69-2.2.425-.533.873-1.041,1.347-1.58.214-.244.433-.493.657-.751l.126-.146.074.393c.142.753.161.85-.169,1.211-.3.333-.637.643-.96.943-.22.2-.447.415-.661.631-.056.056-.121.116-.187.177-.217.2-.462.425-.46.6a14.125,14.125,0,0,0,.307,2.639,1.1,1.1,0,0,0,1.763.712,2.14,2.14,0,0,0,.693-.823c.338-.74.645-1.5.97-2.3.131-.323.266-.655.407-.995l.029-.07.074.015c.119.024.245.046.377.068a8.082,8.082,0,0,1,.974.21,8.934,8.934,0,0,0,4.336.116l.157-.026c.513-.083.87-.182.8-.7a.541.541,0,0,0-.187-.392,1.129,1.129,0,0,0-.8-.022m-8.342,3.9-.093-.152c-.268-.436-.407-.741-.324-1.007.092-.294.45-.5,1.079-.777l.216-.095Z" transform="translate(-434.387 1189.141)"/>
    <path id="パス_1363" data-name="パス 1363" d="M288.068,4.389c1.5-.321,2.852-.646,4.213-.889,1.128-.2,2.269-.313,3.406-.445a4.21,4.21,0,0,1,.858.022c1.72.157,2.266,1.144,1.461,2.753a8.212,8.212,0,0,1-3.517,3.858,1.1,1.1,0,0,1-1.408-.043,24.467,24.467,0,0,0,2.313-2.07A5.992,5.992,0,0,0,296.967,4.8a1.707,1.707,0,0,0-1.728-.386c-1.571.277-3.14.575-4.7.924a34.264,34.264,0,0,0-9.38,3.731,5.541,5.541,0,0,1-1.735.334c-.09,2.219.384,3.923,1.406,4.851-.233.573-.683.653-1.061.315a3.251,3.251,0,0,1-1-1.392c-.366-1.286-.573-2.624-.841-3.943-.121-.592-.193-1.2-.362-1.777-.34-1.154-.125-1.505,1.024-1.534a4.352,4.352,0,0,1,.53.073l.5,1.692,7.159-2.9c-.149-1.154.291-2.34-.366-3.457-.111-.189.125-.779.356-.993a.978.978,0,0,1,1.355-.115,1.39,1.39,0,0,1,.261,1.013c-.053.557-.3,1.091-.364,1.648a9.686,9.686,0,0,0,.054,1.5" transform="translate(-432.369 1192.066)"/>
    <path id="パス_1364" data-name="パス 1364" d="M102.817,63.589c-.987.415-1.63.726-2.3.955a5.4,5.4,0,0,1-1.681.385,1.847,1.847,0,0,1-1.947-1.693,7.1,7.1,0,0,1-.148-1.209c-.018-1.479-.007-2.958-.007-4.457.387-.1.642-.178.9-.22,1.026-.166,1.505.324,1.314,1.382a10.454,10.454,0,0,0,0,4.436,8.012,8.012,0,0,0,3.751-1.438,1.14,1.14,0,0,0,.3-.853c-.01-.977-.091-1.953-.136-2.93a3.217,3.217,0,0,1,.03-.665,1.321,1.321,0,0,1,1.46-1.1,1.053,1.053,0,0,1,.875,1.182c0,.4-.09.809-.105,1.214-.019.525,0,1.051,0,1.727l4.738-1.552a13.75,13.75,0,0,1-.313-1.6,2.2,2.2,0,0,1,.154-1.235c.28-.474.838-.446,1.351-.319s.817.4.776.944c-.137,1.8-.229,3.6-.461,5.379-.119.909-.558,1.01-1.578.592-.03-.082-.108-.184-.084-.245a1.393,1.393,0,0,0-.326-1.828c-.615-.436-1.2-.025-1.748.283-.665.373-1.337.736-2,1.122a1.5,1.5,0,0,0-.792,1.318c-.093,1.8-.248,3.6-.372,5.4-.032.45.025,1-.6,1.023-.589.018-.872-.427-.906-.981-.065-1.081-.1-2.163-.14-3.245-.016-.479,0-.959,0-1.772" transform="translate(-385.714 1177.729)"/>
    <path id="パス_1365" data-name="パス 1365" d="M111.243,73.216l-.5-2.39a9.939,9.939,0,0,1,1.486-.237c.686,0,1.014.332.99,1-.054,1.531-.139,3.062-.245,4.591a7.148,7.148,0,0,1-.274,1.185c-.133.539-.389.912-1.036.8s-.723-.609-.705-1.126c.019-.539.092-1.076.131-1.614.016-.216,0-.434,0-.784a9.8,9.8,0,0,0-4.343.92c-2.149.927-4.23,2.01-6.356,2.994a10.414,10.414,0,0,1-1.672.529,1.072,1.072,0,0,1-1.375-.76,10.911,10.911,0,0,1-.445-1.695c-.185-.92-.332-1.846-.511-2.863a3.038,3.038,0,0,1,.66-.509c.846-.363,1.585.135,1.7,1.119.1.881.183,1.765.289,2.793A44.452,44.452,0,0,0,105,74.586a21.112,21.112,0,0,1,6.244-1.371" transform="translate(-385.627 1173.839)"/>
    <path id="パス_1366" data-name="パス 1366" d="M416.583,58.739c-.987.415-1.63.726-2.3.955a5.393,5.393,0,0,1-1.681.385,1.847,1.847,0,0,1-1.947-1.693,7.107,7.107,0,0,1-.148-1.209c-.018-1.479-.007-2.958-.007-4.457.387-.1.642-.178.9-.22,1.026-.166,1.505.324,1.314,1.382a10.456,10.456,0,0,0,0,4.436,8.012,8.012,0,0,0,3.751-1.438,1.14,1.14,0,0,0,.3-.853c-.01-.977-.091-1.953-.136-2.93a3.207,3.207,0,0,1,.03-.665,1.321,1.321,0,0,1,1.46-1.1A1.053,1.053,0,0,1,419,52.516c0,.4-.09.809-.105,1.214-.019.525,0,1.051,0,1.727l4.739-1.552a13.722,13.722,0,0,1-.313-1.6,2.2,2.2,0,0,1,.154-1.235c.28-.474.838-.446,1.351-.319s.817.4.776.945c-.137,1.794-.229,3.6-.461,5.379-.119.909-.558,1.01-1.578.592-.03-.082-.107-.184-.084-.245a1.393,1.393,0,0,0-.326-1.828c-.615-.436-1.2-.025-1.748.283-.665.373-1.338.736-2,1.122a1.5,1.5,0,0,0-.793,1.319c-.093,1.8-.248,3.6-.372,5.4-.032.45.024,1-.6,1.023-.589.018-.872-.427-.906-.981-.065-1.081-.1-2.163-.14-3.245-.016-.479,0-.959,0-1.772" transform="translate(-768.674 1215.284)"/>
    <path id="パス_1367" data-name="パス 1367" d="M425.009,68.366l-.5-2.39A9.933,9.933,0,0,1,426,65.739c.686,0,1.014.332.99,1-.054,1.531-.139,3.062-.245,4.591a7.148,7.148,0,0,1-.274,1.185c-.133.539-.389.912-1.036.8s-.723-.609-.705-1.126c.019-.539.092-1.076.131-1.614.016-.216,0-.434,0-.784a9.8,9.8,0,0,0-4.343.92c-2.149.927-4.231,2.01-6.356,2.994a10.406,10.406,0,0,1-1.672.529,1.072,1.072,0,0,1-1.375-.76,10.881,10.881,0,0,1-.445-1.695c-.185-.92-.332-1.846-.511-2.863a3.037,3.037,0,0,1,.66-.509c.846-.363,1.585.135,1.7,1.119.1.881.182,1.765.288,2.793a44.447,44.447,0,0,0,5.957-2.584,21.113,21.113,0,0,1,6.244-1.371" transform="translate(-768.587 1211.393)"/>
    <path id="パス_1368" data-name="パス 1368" d="M449.081,56.811c-.518,1.475-.287,2.17,1.084,2.639,2.14.731,4.323,1.336,6.483,2.009a5.574,5.574,0,0,1,1.408.571.95.95,0,0,1,.335.832,1.019,1.019,0,0,1-.74.537,2.826,2.826,0,0,1-1.112-.226c-.973-.312-1.937-.653-2.908-.974q-1.822-.6-3.649-1.183c-.477-.151-.964-.271-1.375-.384-.164.156-.27.207-.279.272-.311,2.192-.589,4.389-.932,6.576a4.748,4.748,0,0,1-.611,1.63.923.923,0,0,1-.86.241,1.194,1.194,0,0,1-.562-.754c-.07-.26.087-.577.131-.871q.474-3.16.935-6.322c.016-.109-.07-.233-.165-.517-2.65,1.575-3.931,4.195-5.5,6.81a1,1,0,0,1-1.125-.46.954.954,0,0,1,0-.775,26.626,26.626,0,0,1,3.266-4.728,38.839,38.839,0,0,1,4.116-3.98c-.268-.118-.389-.224-.471-.2a10.426,10.426,0,0,0-4.635,2.312,2.253,2.253,0,0,1-1.146.405c-.451.08-.672-.247-.852-.624a.681.681,0,0,1,.323-.978c1.231-.673,2.484-1.306,3.732-1.95.222-.115.458-.206.871-.39-.511-.359-.921-.614-1.292-.918-.325-.266-.748-.582-.415-1.06a1.077,1.077,0,0,1,1.327-.512,4.784,4.784,0,0,1,1.087.849c.219.192.372.466.606.632.6.426.95.274,1.01-.458s.046-1.454.044-2.181a6.279,6.279,0,0,0-.1-.788c-.83-.26-1.392.19-2,.575a2.406,2.406,0,0,1-1.247.485,1.336,1.336,0,0,1-.935-.693.766.766,0,0,1,.543-1.007c.4-.154.8-.283,1.214-.406a3.659,3.659,0,0,0,2.015-1.235c.716-.92,1.286-.817,2.151.065a2.311,2.311,0,0,0,.854.527c.5.177.875.409.738,1-.123.532-.194,1.152-1.005,1.047-.067-.009-.144.059-.274.118a5.613,5.613,0,0,0,.025,2.593,1.291,1.291,0,0,0,1.372-.541c.579-.682,1.143-1.377,1.726-2.055.16-.186.358-.46.554-.474.435-.03,1.038-.079,1.282.167.344.348.1.891-.26,1.249-.449.441-.919.862-1.441,1.349.266.242.516.373.61.577a2.228,2.228,0,0,1,.355,1.249c-.072.282-.63.585-.992.613a3.887,3.887,0,0,1-1.731-.251,2.16,2.16,0,0,0-1.579-.035" transform="translate(-776.176 1215.723)"/>
    <rect id="長方形_1675" data-name="長方形 1675" width="300.548" height="97.913" transform="translate(-360.737 1192.065)" fill="none"/>
  </g>
</svg>
