<svg xmlns="http://www.w3.org/2000/svg" width="393" height="364.28" viewBox="0 0 393 364.28">
  <g id="recruit_text" transform="translate(-8650 -10136.21)">
    <rect id="長方形_1328" data-name="長方形 1328" width="393" height="22" transform="translate(8650 10281.855)" fill="#fff8a8"/>
    <rect id="長方形_1811" data-name="長方形 1811" width="393" height="22" transform="translate(8650 10157.361)" fill="#fff8a8"/>
    <rect id="長方形_1812" data-name="長方形 1812" width="393" height="22" transform="translate(8650 10456.855)" fill="#fff8a8"/>
    <path id="パス_10066" data-name="パス 10066" d="M5.6-3.514l-1.932.546V-6.09H5.39v-.966H3.668v-2.982H5.516v-.952H.742v.952H2.674v2.982H.91v.966H2.674V-2.7c-.826.238-1.582.434-2.2.588l.28.994c1.358-.406,3.22-.952,4.97-1.47Zm1.54-2.24h4.536v1.428H7.14Zm0-2.24h4.536v1.4H7.14Zm0-2.226h4.536v1.4H7.14ZM11.2.07c-.35,0-.406-.056-.406-.406V-3.444h1.9V-11.1H6.16v7.658H7.406C7.182-1.638,6.552-.378,4.088.294a3.108,3.108,0,0,1,.588.854C7.392.308,8.148-1.218,8.428-3.444H9.8V-.336c0,1.008.252,1.3,1.246,1.3H12.4c.84,0,1.106-.434,1.176-2.142a2.469,2.469,0,0,1-.868-.406C12.67-.14,12.614.07,12.292.07ZM23.534-4.172h3.15v-.98h-3.15V-7.826H22.5v2.674H19.362v.98H22.5V-.238H18.816v.98H27.23v-.98h-3.7ZM20.02-9.548c.252-.63.49-1.274.672-1.9l-1.064-.266a18.922,18.922,0,0,1-.742,2.17H15.064v.994h3.36a12.021,12.021,0,0,1-3.7,4.564,4.4,4.4,0,0,1,.532.938,10.413,10.413,0,0,0,1.624-1.414V1.008h1.022V-5.7A18.266,18.266,0,0,0,19.6-8.554h7.63v-.994Zm19.46.182-.714-.546a3.834,3.834,0,0,1-1.05.112h-5.4c-.42,0-1.218-.056-1.414-.084V-8.61c.154-.014.924-.07,1.414-.07h5.46a12.319,12.319,0,0,1-2.324,3.892A16.009,16.009,0,0,1,29.68-.63l.9.938a17.748,17.748,0,0,0,5.46-4.088A32.325,32.325,0,0,1,39.886.378l.98-.84a38.835,38.835,0,0,0-4.088-4.186,17.719,17.719,0,0,0,2.352-4.1A4.016,4.016,0,0,1,39.48-9.366ZM49.924-10.99,48.65-11.4A5.056,5.056,0,0,1,48.2-10.29a12.829,12.829,0,0,1-4.494,4.872l.938.728a15.272,15.272,0,0,0,3.71-3.71h4.732a11.7,11.7,0,0,1-1.9,3.878c-.98-.686-2.03-1.358-2.954-1.89l-.756.77c.9.56,1.96,1.288,2.968,2.016A12.281,12.281,0,0,1,45.024-.252l1.008.868A13.285,13.285,0,0,0,51.366-2.94c.574.462,1.106.9,1.526,1.274l.826-.966c-.448-.364-1.008-.8-1.6-1.232a14.092,14.092,0,0,0,2.184-4.354,4.6,4.6,0,0,1,.336-.756l-.924-.56a2.79,2.79,0,0,1-.924.14H49a4.7,4.7,0,0,0,.294-.5C49.434-10.15,49.686-10.626,49.924-10.99Zm7.84,5.936.56,1.092a27.653,27.653,0,0,0,5.334-2.282v5.18a12.987,12.987,0,0,1-.084,1.5h1.372a10.564,10.564,0,0,1-.084-1.5V-6.972a22.9,22.9,0,0,0,3.78-3.122l-.938-.868a16.681,16.681,0,0,1-3.822,3.29A23.143,23.143,0,0,1,57.764-5.054Zm23.8-5.572H80.248a10.044,10.044,0,0,1,.07,1.218V-7.2c0,2.646-.168,3.78-1.162,4.942A6.418,6.418,0,0,1,75.81-.392l.91.966A7.478,7.478,0,0,0,80.052-1.47c1.008-1.2,1.47-2.31,1.47-5.67V-9.408C81.522-9.884,81.536-10.276,81.564-10.626Zm-6.5.112H73.794c.028.266.056.756.056,1.008v4.662a9.176,9.176,0,0,1-.07,1.078h1.288c-.028-.252-.056-.714-.056-1.064V-9.506C75.012-9.842,75.04-10.248,75.068-10.514ZM96.04-9.366l-.714-.546a3.834,3.834,0,0,1-1.05.112h-5.4c-.42,0-1.218-.056-1.414-.084V-8.61c.154-.014.924-.07,1.414-.07h5.46a12.319,12.319,0,0,1-2.324,3.892A16.009,16.009,0,0,1,86.24-.63l.9.938A17.748,17.748,0,0,0,92.6-3.78,32.325,32.325,0,0,1,96.446.378l.98-.84a38.835,38.835,0,0,0-4.088-4.186,17.719,17.719,0,0,0,2.352-4.1A4.016,4.016,0,0,1,96.04-9.366ZM103.7-1.232A12.336,12.336,0,0,1,103.6.42h1.358c-.056-.462-.084-1.218-.084-1.652,0-.406,0-2.52-.014-4.62a36.7,36.7,0,0,1,5.5,2.254l.476-1.19A44.747,44.747,0,0,0,104.86-7.1V-9.38c0-.42.056-1.022.1-1.456h-1.372A8.836,8.836,0,0,1,103.7-9.38Zm13.524-4.186c1.246,0,1.862.882,1.862,2.268s-.77,2.338-1.75,2.338c-1.288,0-2.058-1.162-2.212-3.29A2.653,2.653,0,0,1,117.222-5.418Zm.112,5.6a3.081,3.081,0,0,0,2.94-3.332c0-2.142-1.106-3.22-2.842-3.22a3.192,3.192,0,0,0-2.338,1.246c.056-3.192,1.246-4.27,2.646-4.27a2.17,2.17,0,0,1,1.652.784l.7-.8a3.153,3.153,0,0,0-2.394-1.05c-1.988,0-3.794,1.54-3.794,5.558C113.9-1.512,115.36.182,117.334.182Zm9.282-.63V-3.892h5.74V-.448Zm3.472-8.932a11.343,11.343,0,0,1-2.52,3.276,18.1,18.1,0,0,0-2.646-2.254,11.365,11.365,0,0,0,.994-1.022Zm3.318,4.536H127.68A13.209,13.209,0,0,0,131.5-10.01l-.686-.364-.2.056h-3.948c.294-.406.56-.812.8-1.2l-1.162-.238a11.789,11.789,0,0,1-4.7,4.55,3.551,3.551,0,0,1,.728.8,15.141,15.141,0,0,0,1.834-1.274,17.431,17.431,0,0,1,2.562,2.3A15.609,15.609,0,0,1,121.534-2.7a3.162,3.162,0,0,1,.616.91,17.581,17.581,0,0,0,3.444-1.568V1.064h1.022V.5h5.74v.588h1.05Zm11.158.672h3.15v-.98h-3.15V-7.826h-1.036v2.674h-3.136v.98h3.136V-.238h-3.682v.98h8.414v-.98h-3.7ZM141.05-9.548c.252-.63.49-1.274.672-1.9l-1.064-.266a18.923,18.923,0,0,1-.742,2.17h-3.822v.994h3.36a12.021,12.021,0,0,1-3.7,4.564,4.4,4.4,0,0,1,.532.938,10.414,10.414,0,0,0,1.624-1.414V1.008h1.022V-5.7a18.268,18.268,0,0,0,1.694-2.856h7.63v-.994Zm17.878-.1a4.418,4.418,0,0,1,.49,1.078l.882-.364a6.147,6.147,0,0,0-.336-.714h2.394v-.882H158.27c.126-.322.252-.63.364-.966l-1.008-.224a6.772,6.772,0,0,1-1.778,2.912,6.2,6.2,0,0,1,.9.588,7.736,7.736,0,0,0,1.064-1.428Zm-5.67.014a6.963,6.963,0,0,1,.6,1.372l.91-.35a6.753,6.753,0,0,0-.462-1.022h1.82V-10.5h-3.346c.154-.336.322-.672.448-1.022l-1.008-.252a7.491,7.491,0,0,1-2.184,3.206c.252.14.672.448.882.6a9.857,9.857,0,0,0,1.358-1.666Zm2.114,6.188v-.784h-2V-5.18h1.638v-.784H153.37V-6.9h1.82v-.784h-1.82V-8.75h-.98v1.064H150.4V-6.9h1.988v.938h-1.778v.784h1.778v.952h-2.268v.784h2.058a10.1,10.1,0,0,1-2.38,3.15,3.973,3.973,0,0,1,.56.742A12.066,12.066,0,0,0,152.39-2.2v3.29h.98v-3.6c.6.644,1.358,1.5,1.708,1.946l.6-.742c-.336-.35-1.526-1.582-2.128-2.142Zm5.4.448V-1.9H157.43V-3ZM157.43-.084V-1.2h3.346v1.12Zm-.966,1.176h.966V.672h3.346v.364h.994V-3.738h-5.306Zm1.82-7.924h1.694v1.484h-1.694Zm2.674,1.484V-6.832h1.358v-.784h-1.358V-8.75h-.98v1.134h-1.694V-8.75h-.98v1.134h-1.456v.784H157.3v1.484h-1.736v.826h6.86v-.826ZM13.244,20.142H7.5V15.256H12.46V14.234H1.512v1.022H6.44v4.886H.784v1.022H6.44v4.9H7.5v-4.9h5.74ZM2.492,16.222a16.384,16.384,0,0,1,1.26,3.206l.98-.336a13.412,13.412,0,0,0-1.33-3.15Zm7.42,3.248a27.488,27.488,0,0,0,1.722-3.29l-1.092-.308a20.892,20.892,0,0,1-1.512,3.3ZM24.78,21.052c-1.9.7-3.878,1.428-5.138,1.834l.42.98c1.372-.532,3.192-1.26,4.886-1.932Zm-4.494-2.646v.938H24.6v-.938Zm1.26-2.8a20.433,20.433,0,0,0,.742-2.086l-1.05-.238a13.831,13.831,0,0,1-1.918,4.242V16.53H17.668V13.366h-.994V16.53h-1.75v.994h1.75v4.438c-.756.294-1.456.56-2.016.756l.378,1.05c1.3-.546,3.01-1.26,4.606-1.946l-.224-.966c-.588.238-1.176.476-1.75.714V17.524H19.32a9.761,9.761,0,0,1-.658.812,5.483,5.483,0,0,1,.9.658,11.829,11.829,0,0,0,1.554-2.422h5.124c-.182,5.656-.406,7.8-.854,8.288a.709.709,0,0,1-.6.224,20.211,20.211,0,0,1-2.114-.1,2.531,2.531,0,0,1,.322,1.05,16.373,16.373,0,0,0,2.184.014,1.345,1.345,0,0,0,1.134-.574c.574-.686.756-2.912.98-9.324,0-.154.014-.546.014-.546Zm10.78,6.258V19.092h3.136v2.772Zm9.254,0H36.512V19.092h4.1v-.98h-4.1V15.984h4.424V14.976H32.592c.224-.476.448-.98.644-1.47l-1.05-.252a11.847,11.847,0,0,1-3.15,4.83,6.444,6.444,0,0,1,.9.658,12.935,12.935,0,0,0,2.128-2.758h3.4v2.128H31.29v3.752h-2.3v1.008h6.468v3.206h1.05V22.872H41.58Zm5.236-.56c-.644.168-1.274.336-1.862.49V14.906h-.966v7.14c-.378.1-.728.182-1.036.252l.252,1.036c1.036-.28,2.324-.644,3.612-1.008V26.05h.994V13.338h-.994Zm7.91-7-.182.056H48.426v1.022H54.25a17.33,17.33,0,0,1-2.184,5.852,19.661,19.661,0,0,1-1.974-5.782l-.98.182a21.783,21.783,0,0,0,2.31,6.58,10.207,10.207,0,0,1-3.36,2.954,3.239,3.239,0,0,1,.714.868,11.163,11.163,0,0,0,3.262-2.856,9.581,9.581,0,0,0,3.22,2.87,3.791,3.791,0,0,1,.756-.868,8.616,8.616,0,0,1-3.3-2.926,19.161,19.161,0,0,0,2.7-7.728ZM62.8,23.32c0-.686.742-1.134,1.792-1.134a4.764,4.764,0,0,1,1.428.224c.014.182.014.35.014.49,0,.924-.35,1.526-1.526,1.526C63.5,24.426,62.8,24.034,62.8,23.32Zm4.242-9.1h-1.26c.028.238.056.616.056.854V16.81c-.434.014-.882.028-1.316.028-.84,0-1.582-.042-2.38-.112v1.05c.826.056,1.554.1,2.352.1.448,0,.9-.014,1.344-.028.014,1.148.1,2.52.14,3.6a6.42,6.42,0,0,0-1.3-.126c-1.834,0-2.884.938-2.884,2.114,0,1.26,1.036,2,2.912,2s2.422-1.106,2.422-2.254v-.294a11.389,11.389,0,0,1,2.114,1.624l.616-.938a9.228,9.228,0,0,0-2.772-1.806c-.056-1.176-.154-2.576-.168-3.99.84-.056,1.652-.14,2.422-.266V16.432a23.64,23.64,0,0,1-2.422.322c.014-.658.028-1.316.042-1.694Q66.983,14.64,67.046,14.22ZM60.13,14.3l-1.232-.1a8.4,8.4,0,0,1-.084.994,41.656,41.656,0,0,0-.644,5.894,16.91,16.91,0,0,0,.532,4.424l.98-.07c-.014-.154-.028-.35-.028-.49a2.508,2.508,0,0,1,.056-.63c.14-.686.658-2.114.994-3.094l-.574-.448c-.238.574-.574,1.428-.8,2.058a13.133,13.133,0,0,1-.14-1.946,34.712,34.712,0,0,1,.7-5.642A7.28,7.28,0,0,1,60.13,14.3Zm12.39,3.57c0-1.4.756-2.324,1.736-2.324,1.316,0,2.1,1.12,2.24,3.234a2.69,2.69,0,0,1-2.142,1.372C73.136,20.156,72.52,19.26,72.52,17.874Zm1.456,7.308c1.932,0,3.724-1.6,3.724-5.754,0-3.262-1.47-4.886-3.444-4.886a3.081,3.081,0,0,0-2.94,3.332c0,2.128,1.12,3.234,2.828,3.234a3.193,3.193,0,0,0,2.366-1.26c-.1,3.178-1.246,4.27-2.576,4.27a2.264,2.264,0,0,1-1.708-.784l-.714.8A3.265,3.265,0,0,0,73.976,25.182Zm8.54,0c1.932,0,3.22-1.162,3.22-2.66A3,3,0,0,0,84,19.834v-.07a3.365,3.365,0,0,0,1.372-2.478,2.819,2.819,0,0,0-5.628-.1,2.853,2.853,0,0,0,1.386,2.366v.07a3.287,3.287,0,0,0-1.89,2.828C79.24,24.034,80.626,25.182,82.516,25.182Zm.7-5.754c-1.2-.476-2.31-1.008-2.31-2.24a1.58,1.58,0,0,1,1.638-1.666,1.7,1.7,0,0,1,1.736,1.834A2.753,2.753,0,0,1,83.216,19.428Zm-.672,4.8A1.968,1.968,0,0,1,80.4,22.34a2.79,2.79,0,0,1,1.4-2.324c1.456.588,2.716,1.106,2.716,2.478A1.778,1.778,0,0,1,82.544,24.23Zm7.868.952c1.946,0,3.192-1.778,3.192-5.348s-1.246-5.292-3.192-5.292-3.206,1.722-3.206,5.292S88.452,25.182,90.412,25.182Zm0-1.022c-1.176,0-1.96-1.3-1.96-4.326,0-3,.784-4.27,1.96-4.27s1.946,1.274,1.946,4.27C92.358,22.858,91.574,24.16,90.412,24.16Zm17.108-8.806V14.346H95.34v1.008h3.766c-.084,3.57-.28,7.882-4.158,9.94a2.973,2.973,0,0,1,.756.812c2.758-1.54,3.794-4.144,4.2-6.888h5.236c-.2,3.7-.434,5.236-.854,5.614a.845.845,0,0,1-.658.182,23.424,23.424,0,0,1-2.436-.112,2.1,2.1,0,0,1,.364,1.022,19.5,19.5,0,0,0,2.464.056,1.589,1.589,0,0,0,1.19-.5c.546-.588.77-2.254,1.022-6.762.014-.14.014-.5.014-.5H100.03c.1-.966.14-1.932.168-2.856Zm8.526,4v-4.1H120.3v4.1Zm-5.124-4.1h4.1v4.1h-4.1Zm10.43-1.008H109.886v11.83h1.036V20.394h9.38v4.284c0,.266-.1.35-.35.35s-1.176.028-2.128-.014a4.477,4.477,0,0,1,.392,1.036,8.816,8.816,0,0,0,2.492-.182c.476-.182.644-.518.644-1.19ZM13.244,45.142H7.5V40.256H12.46V39.234H1.512v1.022H6.44v4.886H.784v1.022H6.44v4.9H7.5v-4.9h5.74ZM2.492,41.222a16.384,16.384,0,0,1,1.26,3.206l.98-.336a13.412,13.412,0,0,0-1.33-3.15Zm7.42,3.248a27.488,27.488,0,0,0,1.722-3.29l-1.092-.308a20.892,20.892,0,0,1-1.512,3.3ZM24.78,46.052c-1.9.7-3.878,1.428-5.138,1.834l.42.98c1.372-.532,3.192-1.26,4.886-1.932Zm-4.494-2.646v.938H24.6v-.938Zm1.26-2.8a20.433,20.433,0,0,0,.742-2.086l-1.05-.238a13.831,13.831,0,0,1-1.918,4.242V41.53H17.668V38.366h-.994V41.53h-1.75v.994h1.75v4.438c-.756.294-1.456.56-2.016.756l.378,1.05c1.3-.546,3.01-1.26,4.606-1.946l-.224-.966c-.588.238-1.176.476-1.75.714V42.524H19.32a9.76,9.76,0,0,1-.658.812,5.483,5.483,0,0,1,.9.658,11.829,11.829,0,0,0,1.554-2.422h5.124c-.182,5.656-.406,7.8-.854,8.288a.709.709,0,0,1-.6.224,20.211,20.211,0,0,1-2.114-.1,2.531,2.531,0,0,1,.322,1.05,16.374,16.374,0,0,0,2.184.014,1.345,1.345,0,0,0,1.134-.574c.574-.686.756-2.912.98-9.324,0-.154.014-.546.014-.546Zm8.862-.1H40.1V42.16h1.036V39.542H35.77V38.3H34.72v1.246H29.414V42.16h.994Zm1.96,6.286a19.183,19.183,0,0,0,2.94-1.316,15.673,15.673,0,0,0,3.29,1.316Zm.1,2.9v-2.03h5.656v2.03Zm.77-7.084H37.45a9.235,9.235,0,0,1-2.128,1.75,7.942,7.942,0,0,1-2.128-1.694Zm5.11-.868-.182.042h-4.13a8.769,8.769,0,0,0,.644-.826l-1.12-.21a9.249,9.249,0,0,1-3.976,3.15,3.2,3.2,0,0,1,.7.742,11.864,11.864,0,0,0,2.184-1.372,9.308,9.308,0,0,0,1.89,1.638,20.074,20.074,0,0,1-5.53,1.834,3.469,3.469,0,0,1,.518.91c.7-.154,1.414-.336,2.128-.56V51.05h.994v-.462h5.656v.448h1.05V46.948q.924.231,1.89.378a4.227,4.227,0,0,1,.658-.994,18.748,18.748,0,0,1-5.432-1.47,9.724,9.724,0,0,0,2.758-2.688Zm7.21,3.71v-1.5h3.3v1.5Zm0-3.822h3.3v1.5h-3.3Zm7.826,1.5H49.91v-1.5h3.472Zm0,2.324H49.91v-1.5h3.472Zm2.268,2.156H49.91V46.332h4.536V40.746h-1.47c.462-.6.98-1.372,1.414-2.072l-1.12-.364a14.637,14.637,0,0,1-1.47,2.436H49.308l.8-.322a9.578,9.578,0,0,0-1.148-2.156l-.924.35a9.232,9.232,0,0,1,1.078,2.128H46.1l.714-.364a11.412,11.412,0,0,0-1.428-1.946l-.882.392a10.687,10.687,0,0,1,1.316,1.918H44.534v5.586H48.86v1.274H43.218v.966H48.86v2.506h1.05V48.572h5.74Zm4.494-9.282a15.468,15.468,0,0,1-3.262,5.446,8.064,8.064,0,0,1,.574.98,14.354,14.354,0,0,0,1.3-1.624V51.05h.994V41.516a22.62,22.62,0,0,0,1.344-2.9Zm6.02,4.592h-1.6V40.634h1.6Zm2.534,6.09H67.074V43.854H68.7ZM62.1,43.854h1.554v5.152H62.1Zm4.06,0v5.152h-1.6V43.854Zm3.654-3.22V39.7H60.97v.938h2.618v2.282H61.152V50.84H62.1v-.91H68.7v.826h1.008v-7.84H67.158V40.634ZM71.932,50H77.56V48.936H75.5V39.724h-.98a6.182,6.182,0,0,1-2.128.742v.812h1.82v7.658H71.932Zm10.584.182c1.932,0,3.22-1.162,3.22-2.66A3,3,0,0,0,84,44.834v-.07a3.365,3.365,0,0,0,1.372-2.478,2.819,2.819,0,0,0-5.628-.1,2.853,2.853,0,0,0,1.386,2.366v.07a3.287,3.287,0,0,0-1.89,2.828C79.24,49.034,80.626,50.182,82.516,50.182Zm.7-5.754c-1.2-.476-2.31-1.008-2.31-2.24a1.58,1.58,0,0,1,1.638-1.666,1.7,1.7,0,0,1,1.736,1.834A2.753,2.753,0,0,1,83.216,44.428Zm-.672,4.8A1.968,1.968,0,0,1,80.4,47.34a2.79,2.79,0,0,1,1.4-2.324c1.456.588,2.716,1.106,2.716,2.478A1.778,1.778,0,0,1,82.544,49.23Zm5.026,3.43a3.115,3.115,0,0,0,2.044-2.926c0-.938-.406-1.512-1.078-1.512a.91.91,0,0,0-.966.9.877.877,0,0,0,.938.9A.574.574,0,0,0,88.662,50a2.1,2.1,0,0,1-1.4,1.9Zm7.084-8.078c1.246,0,1.862.882,1.862,2.268s-.77,2.338-1.75,2.338c-1.288,0-2.058-1.162-2.212-3.29A2.653,2.653,0,0,1,94.654,44.582Zm.112,5.6a3.081,3.081,0,0,0,2.94-3.332c0-2.142-1.106-3.22-2.842-3.22a3.192,3.192,0,0,0-2.338,1.246c.056-3.192,1.246-4.27,2.646-4.27a2.17,2.17,0,0,1,1.652.784l.7-.8a3.153,3.153,0,0,0-2.394-1.05c-1.988,0-3.794,1.54-3.794,5.558C91.336,48.488,92.792,50.182,94.766,50.182ZM101.234,50h1.33c.154-4.018.6-6.412,3.01-9.492v-.784H99.148V40.83h4.97C102.116,43.63,101.4,46.108,101.234,50Zm6.958-7.126c0-1.4.756-2.324,1.736-2.324,1.316,0,2.1,1.12,2.24,3.234a2.69,2.69,0,0,1-2.142,1.372C108.808,45.156,108.192,44.26,108.192,42.874Zm1.456,7.308c1.932,0,3.724-1.6,3.724-5.754,0-3.262-1.47-4.886-3.444-4.886a3.081,3.081,0,0,0-2.94,3.332c0,2.128,1.12,3.234,2.828,3.234a3.193,3.193,0,0,0,2.366-1.26c-.1,3.178-1.246,4.27-2.576,4.27a2.264,2.264,0,0,1-1.708-.784l-.714.8A3.265,3.265,0,0,0,109.648,50.182Zm12.11-5.824v-4.1h4.256v4.1Zm-5.124-4.1h4.1v4.1h-4.1Zm10.43-1.008H115.6v11.83h1.036V45.394h9.38v4.284c0,.266-.1.35-.35.35s-1.176.028-2.128-.014a4.477,4.477,0,0,1,.392,1.036,8.816,8.816,0,0,0,2.492-.182c.476-.182.644-.518.644-1.19ZM3.822,70.716a17.577,17.577,0,0,0,.154-2.352h6.4v2.352Zm6.552-5.67V67.37h-6.4V65.046Zm1.078-1.022H2.926v4.284c0,2.226-.224,5.068-2.45,7.028a3.939,3.939,0,0,1,.77.756,7.9,7.9,0,0,0,2.408-4.354h6.72v2.8c0,.308-.112.406-.434.42s-1.442.014-2.6-.028a4.966,4.966,0,0,1,.434,1.078,11.257,11.257,0,0,0,2.954-.2c.518-.168.728-.532.728-1.26Zm6.594,11.158c1.932,0,3.22-1.162,3.22-2.66a3,3,0,0,0-1.736-2.688v-.07A3.365,3.365,0,0,0,20.9,67.286a2.6,2.6,0,0,0-2.814-2.7,2.611,2.611,0,0,0-2.814,2.6,2.853,2.853,0,0,0,1.386,2.366v.07a3.287,3.287,0,0,0-1.89,2.828C14.77,74.034,16.156,75.182,18.046,75.182Zm.7-5.754c-1.2-.476-2.31-1.008-2.31-2.24a1.58,1.58,0,0,1,1.638-1.666,1.7,1.7,0,0,1,1.736,1.834A2.753,2.753,0,0,1,18.746,69.428Zm-.672,4.8a1.968,1.968,0,0,1-2.142-1.89,2.79,2.79,0,0,1,1.4-2.324c1.456.588,2.716,1.106,2.716,2.478A1.778,1.778,0,0,1,18.074,74.23Zm7.546-.252V70.072h6.944v3.906Zm6.944-8.708v3.78H25.62V65.27ZM24.57,64.248V75.91h1.05V75h6.944v.854h1.092V64.248Zm15.75-.868a14.387,14.387,0,0,1-3.794,5.614,5.957,5.957,0,0,1,.63,1.05A14.2,14.2,0,0,0,38.808,68.2V76.05H39.83V66.7a20.8,20.8,0,0,0,1.526-3Zm9.17,4.466V66.838H45.444v-3.36H44.422v3.36H40.488v1.008h3.388A14.222,14.222,0,0,1,40,73.572a6.04,6.04,0,0,1,.784.8,15.632,15.632,0,0,0,3.64-5.39v7.1h1.022V68.686a17,17,0,0,0,3.626,5.628,3.729,3.729,0,0,1,.784-.84,14.772,14.772,0,0,1-3.808-5.628Zm3.962-3.108.056,1.134c.336-.028.728-.07,1.036-.084.644-.042,2.352-.112,2.912-.14-.434.868-.966,2.086-1.456,3.192-2.758.07-4.662,1.652-4.662,3.71a1.784,1.784,0,0,0,1.82,1.918,1.97,1.97,0,0,0,1.764-.966,30.276,30.276,0,0,0,1.764-3.668,10.066,10.066,0,0,1,4,1.288,6.007,6.007,0,0,1-3.668,3.948l.924.77a6.606,6.606,0,0,0,3.682-4.158,14.611,14.611,0,0,1,1.456,1.106l.518-1.2a18.3,18.3,0,0,0-1.694-1.078,18.776,18.776,0,0,0,.294-2.7l-1.134-.126c.028.392.014.868,0,1.288-.028.336-.056.686-.112,1.036a12.6,12.6,0,0,0-3.85-1.12c.588-1.3,1.2-2.73,1.6-3.36a5.869,5.869,0,0,1,.364-.462l-.7-.574a2.893,2.893,0,0,1-.7.154c-.588.042-2.422.14-3.164.14C54.222,64.78,53.816,64.766,53.452,64.738ZM52.36,72.41c0-1.2,1.162-2.436,3.206-2.59a18.692,18.692,0,0,1-1.526,3.052,1.008,1.008,0,0,1-.84.49A.857.857,0,0,1,52.36,72.41ZM74.2,69.68a9.3,9.3,0,0,0,2.786,6.664l.84-.434a8.755,8.755,0,0,1,0-12.46l-.84-.434A9.3,9.3,0,0,0,74.2,69.68Zm17.57,2.758v-.924H85.834a6.166,6.166,0,0,0,.224-1.316h4.158V69.33h-4.13V68.084h4.326v-.742h1.05V64.654H86.114V63.3H85.078v1.358H79.744v2.688h1.008v-1.75h9.66V67.2H86.086V66.04H85.05V67.2H80.92v.882h4.13V69.33H81.144V70.2h3.878a4.4,4.4,0,0,1-.266,1.316H79.534v.924H84.28c-.728,1.05-2.156,2.03-4.886,2.786a4.109,4.109,0,0,1,.63.84c3.192-.952,4.718-2.24,5.446-3.626H85.6c1.064,2,2.968,3.178,5.7,3.654a3.981,3.981,0,0,1,.63-.9c-2.436-.35-4.228-1.26-5.222-2.758Zm11.158-4.606a13.748,13.748,0,0,1-1.19,6.4c-.686.07-1.372.14-2.03.2V73.334h2.184v-.812H99.708v-.9h2.142V67.552H99.722V66.67h2.17v.77h1.036ZM97.5,69.9h1.386v1.022H97.5Zm0-1.652h1.386v.994H97.5Zm2.142.994v-.994h1.456v.994Zm0,1.68V69.9h1.456v1.022Zm4.2-4.41V63.352h-.91v3.164h-.98v-.658H99.722v-.966a18.672,18.672,0,0,0,2.17-.378l-.56-.756a36.207,36.207,0,0,1-4.83.672c.1-.266.182-.546.266-.812l-.924-.252A16.3,16.3,0,0,1,93.1,68.98a7.288,7.288,0,0,1,.518,1.05,14.8,14.8,0,0,0,1.232-1.862v7.91h.938v-9.8q.4-.9.714-1.848a2.9,2.9,0,0,1,.252.742c.658-.042,1.358-.1,2.058-.168v.854H96.586v.812h2.226v.882H96.768v4.074h2.044v.9H96.726v.812h2.086V74.51l-2.436.224.168.882c1.3-.154,3-.336,4.69-.546-.126.182-.266.35-.406.518a3.276,3.276,0,0,1,.77.546c1.974-2.338,2.24-5.614,2.24-8.3V67.44h1.26c-.112,5.222-.238,7.042-.5,7.434a.4.4,0,0,1-.42.224c-.238,0-.714-.014-1.26-.056a2.226,2.226,0,0,1,.252.91,7.731,7.731,0,0,0,1.4,0,.977.977,0,0,0,.826-.49c.392-.56.49-2.464.616-8.456,0-.126.014-.49.014-.49ZM107.506,75h6.454V73.894h-2.842c-.518,0-1.148.056-1.68.1,2.408-2.282,4.018-4.368,4.018-6.412a2.815,2.815,0,0,0-2.982-3.038,3.925,3.925,0,0,0-3.024,1.512l.742.728a2.874,2.874,0,0,1,2.128-1.19,1.8,1.8,0,0,1,1.89,2.03c0,1.764-1.484,3.808-4.7,6.622Zm7.91,0h6.454V73.894h-2.842c-.518,0-1.148.056-1.68.1,2.408-2.282,4.018-4.368,4.018-6.412a2.815,2.815,0,0,0-2.982-3.038,3.925,3.925,0,0,0-3.024,1.512l.742.728a2.874,2.874,0,0,1,2.128-1.19,1.8,1.8,0,0,1,1.89,2.03c0,1.764-1.484,3.808-4.7,6.622Zm10.864-1.022V70.072h6.944v3.906Zm6.944-8.708v3.78H126.28V65.27Zm-7.994-1.022V75.91h1.05V75h6.944v.854h1.092V64.248Zm15.89,5.432a9.3,9.3,0,0,0-2.786-6.664l-.84.434a8.755,8.755,0,0,1,0,12.46l.84.434A9.3,9.3,0,0,0,141.12,69.68Zm16.87-2.94a1.05,1.05,0,1,0-1.05-1.05A1.058,1.058,0,0,0,157.99,66.74Zm0,2.534-4.62-4.62-.406.406,4.62,4.62-4.634,4.634.406.406,4.634-4.634,4.62,4.62.406-.406-4.62-4.62,4.62-4.62-.406-.406Zm-2.94.406A1.05,1.05,0,1,0,154,70.73,1.058,1.058,0,0,0,155.05,69.68Zm5.88,0a1.05,1.05,0,1,0,1.05-1.05A1.058,1.058,0,0,0,160.93,69.68Zm-2.94,2.94a1.05,1.05,0,1,0,1.05,1.05A1.058,1.058,0,0,0,157.99,72.62ZM177.6,64.3a7.148,7.148,0,0,0-2.058-1.162l-.56.6A7.281,7.281,0,0,1,177,64.976Zm-7.812,3.416a17.932,17.932,0,0,1-.644,2.912,12.339,12.339,0,0,0-1.834-1.33,16.145,16.145,0,0,0,.6-1.582Zm.462-.98-.182.042H168.2c.154-.616.308-1.246.42-1.9h2.646v-.952h-5.4v.952h1.75a13.158,13.158,0,0,1-2.114,5.558,5.53,5.53,0,0,1,.8.686,8.825,8.825,0,0,0,.63-1.008,12.487,12.487,0,0,1,1.862,1.526,8.326,8.326,0,0,1-2.744,3.724,3.325,3.325,0,0,1,.742.728c2.058-1.568,3.542-4.592,4.074-9.156Zm6.9,3.7a8.955,8.955,0,0,1-1.834,2.072,18.341,18.341,0,0,1-.5-1.974l3.6-.378-.1-.854-3.654.378c-.07-.434-.14-.868-.2-1.33l3.346-.336-.1-.826-3.332.322c-.042-.406-.084-.84-.112-1.274L178,65.914l-.056-.854-3.71.322c-.028-.7-.042-1.414-.042-2.156h-1.022c.014.756.028,1.512.07,2.254l-2.142.182.07.854,2.128-.182c.028.434.056.854.1,1.274l-1.96.2.084.84,1.974-.2c.042.462.112.9.182,1.33l-2.59.266.084.868,2.66-.28a17.207,17.207,0,0,0,.672,2.52,13.092,13.092,0,0,1-4.074,1.918,3.171,3.171,0,0,1,.588.868,14.149,14.149,0,0,0,3.85-1.918c.588,1.246,1.358,1.988,2.324,1.988s1.274-.518,1.456-2.268a2.26,2.26,0,0,1-.742-.546c-.1,1.386-.238,1.834-.63,1.834-.6,0-1.134-.588-1.6-1.624a11,11,0,0,0,2.24-2.436Zm11.2-3.78a12.8,12.8,0,0,1-.714,1.456l.14.042h-3.29l.448-.1a5.932,5.932,0,0,0-.7-1.4Zm4.018,6.09v-.882H186.76V70.828h4.382v-.8H186.76V69.008h5.068v-.854H188.65c.28-.42.588-.966.868-1.5h2.8v-.9h-2.17a19.577,19.577,0,0,0,1.232-2.016l-1.064-.28a15.884,15.884,0,0,1-1.064,2.128l.518.168h-1.694V63.282h-.98V65.76H185.43V63.282h-.966V65.76h-1.722l.714-.266a9.65,9.65,0,0,0-1.19-2.058l-.882.294a10.913,10.913,0,0,1,1.106,2.03h-2.226v.9h3.416l-.49.1a5.879,5.879,0,0,1,.686,1.4h-3.052v.854h4.914V70.03h-4.214v.8h4.214v1.036h-5.53v.882h4.578a13.493,13.493,0,0,1-4.942,2.212,4.458,4.458,0,0,1,.672.882,14.069,14.069,0,0,0,5.222-2.758v2.982h1.022V73.012a13.217,13.217,0,0,0,5.264,2.87,3.743,3.743,0,0,1,.7-.924,12.809,12.809,0,0,1-5-2.212Zm7.28.574c0-.686.742-1.134,1.792-1.134a4.764,4.764,0,0,1,1.428.224c.014.182.014.35.014.49,0,.924-.35,1.526-1.526,1.526C200.354,74.426,199.654,74.034,199.654,73.32Zm4.242-9.1h-1.26c.028.238.056.616.056.854V66.81c-.434.014-.882.028-1.316.028-.84,0-1.582-.042-2.38-.112v1.05c.826.056,1.554.1,2.352.1.448,0,.9-.014,1.344-.028.014,1.148.1,2.52.14,3.6a6.42,6.42,0,0,0-1.3-.126c-1.834,0-2.884.938-2.884,2.114,0,1.26,1.036,2,2.912,2s2.422-1.106,2.422-2.254v-.294a11.39,11.39,0,0,1,2.114,1.624l.616-.938a9.228,9.228,0,0,0-2.772-1.806c-.056-1.176-.154-2.576-.168-3.99.84-.056,1.652-.14,2.422-.266V66.432a23.64,23.64,0,0,1-2.422.322c.014-.658.028-1.316.042-1.694Q203.833,64.64,203.9,64.22Zm-6.916.084-1.232-.1a8.4,8.4,0,0,1-.084.994,41.658,41.658,0,0,0-.644,5.894,16.91,16.91,0,0,0,.532,4.424l.98-.07c-.014-.154-.028-.35-.028-.49a2.509,2.509,0,0,1,.056-.63c.14-.686.658-2.114.994-3.094l-.574-.448c-.238.574-.574,1.428-.8,2.058a13.132,13.132,0,0,1-.14-1.946,34.712,34.712,0,0,1,.7-5.642A7.276,7.276,0,0,1,196.98,64.3Zm11.242,4.676v1.134h12.712V68.98Zm17.066,3.458c-.378,0-.434-.084-.434-.588V68.168l3.346-.714-.2-.938-3.15.672V63.674h-1.022V67.4l-1.68.364.182.952,1.5-.322v3.444c0,1.246.28,1.582,1.316,1.582h1.47c.952,0,1.2-.6,1.316-2.534a2.757,2.757,0,0,1-.938-.448c-.028,1.638-.1,2-.462,2Zm2.03-7.924v.994h2.436c-.056,4.046-.28,7.868-3.724,9.786a3.518,3.518,0,0,1,.756.826c3.6-2.142,3.92-6.258,4.018-10.612h2.94c-.168,6.328-.364,8.652-.784,9.17a.565.565,0,0,1-.546.238c-.322,0-1.064,0-1.876-.07a2.618,2.618,0,0,1,.336,1.064,12.935,12.935,0,0,0,1.96,0,1.306,1.306,0,0,0,1.078-.616c.56-.714.7-3.066.882-10.206,0-.14.014-.574.014-.574Zm15.12-.6-1.176-.028a6.113,6.113,0,0,1-.028.672c-.028.308-.07.672-.112,1.078-.322.014-.63.014-.952.014a19.336,19.336,0,0,1-2.31-.182l.028,1.05c.574.042,1.666.1,2.268.1.28,0,.56,0,.854-.014-.056.658-.126,1.358-.154,2.058-1.932.9-3.5,2.73-3.5,4.536a1.583,1.583,0,0,0,1.652,1.764,4.819,4.819,0,0,0,2.38-.77c.07.28.14.546.224.784l1.008-.308q-.168-.525-.336-1.134a11.657,11.657,0,0,0,3.122-4.55,2.53,2.53,0,0,1,2.016,2.394c0,1.82-1.568,3.122-4.1,3.388l.6.938c3.248-.518,4.578-2.254,4.578-4.27a3.423,3.423,0,0,0-2.786-3.29c0-.028.014-.042.014-.056.07-.224.2-.6.28-.8l-1.106-.28a3.79,3.79,0,0,1-.154.812c-.014.056-.028.1-.042.14-.168-.014-.336-.014-.518-.014a8.952,8.952,0,0,0-2.352.35c.042-.588.084-1.176.154-1.722a44.568,44.568,0,0,0,5.04-.532L247.016,65a27.9,27.9,0,0,1-4.914.6c.056-.406.112-.77.168-1.064A4.625,4.625,0,0,1,242.438,63.912Zm-.644,5.936c0-.2,0-.378.014-.574a6.844,6.844,0,0,1,2.366-.448h.238a9.281,9.281,0,0,1-2.38,3.584A15.017,15.017,0,0,1,241.794,69.848Zm-3.374,3.164a4.417,4.417,0,0,1,2.394-3.3v.252a16.99,16.99,0,0,0,.336,3.178,3.507,3.507,0,0,1-1.932.742C238.686,73.88,238.42,73.586,238.42,73.012Zm16.3-9.058-1.232-.042c-.028.378-.056.784-.112,1.2a37,37,0,0,0-.434,4.522,17.051,17.051,0,0,0,.154,2.226l1.078-.084a6.526,6.526,0,0,1-.028-1.722c.168-1.834,1.792-4.382,3.542-4.382,1.47,0,2.226,1.6,2.226,3.808,0,3.514-2.38,4.76-5.418,5.208l.658,1.008c3.472-.63,5.908-2.338,5.908-6.23,0-2.94-1.33-4.8-3.192-4.8-1.778,0-3.234,1.75-3.808,3.178A25.991,25.991,0,0,1,254.716,63.954Zm12.978,9.576c0-.644.728-1.162,2.058-1.162a6.209,6.209,0,0,1,1.358.14c0,.364.014.7.014.938,0,.966-.686,1.218-1.484,1.218C268.254,74.664,267.694,74.174,267.694,73.53Zm4.438-9.646h-1.19a7.687,7.687,0,0,1,.056.84v.994h-.644a25.437,25.437,0,0,1-3.584-.308l.014,1.036c.882.1,2.6.238,3.584.238h.616v1.96h-.756a25.9,25.9,0,0,1-3.528-.266l.014,1.05c1.008.112,2.548.2,3.5.2h.8c.014.6.042,1.274.056,1.9a8.018,8.018,0,0,0-1.176-.084c-2.016,0-3.234.868-3.234,2.142,0,1.344,1.092,2.058,3.108,2.058,1.82,0,2.464-.994,2.464-1.96,0-.224-.014-.518-.028-.868a10.322,10.322,0,0,1,3.388,2.114l.644-.994a11.141,11.141,0,0,0-4.088-2.184c-.028-.672-.07-1.428-.1-2.156,1.33-.042,2.562-.154,3.878-.322l.014-1.05a34.836,34.836,0,0,1-3.906.378v-1.96c1.344-.07,2.674-.2,3.78-.322l.014-1.022a34.808,34.808,0,0,1-3.794.378c0-.364.014-.672.014-.854A7.01,7.01,0,0,1,272.132,63.884Zm16.058.322H287a7.92,7.92,0,0,1,.07,1.05v2c-1.5.126-3.122.28-4.494.406.014-.742.014-1.428.014-1.89,0-.434.028-.812.056-1.134h-1.218a8.5,8.5,0,0,1,.084,1.19c0,.238,0,1.008-.014,1.946-.672.056-1.232.112-1.582.14A13.658,13.658,0,0,1,278.46,68l.126,1.148c.378-.056.98-.14,1.414-.2.364-.042.882-.1,1.5-.168,0,1.4,0,2.884.014,3.486.07,2.226.378,2.968,3.612,2.968,1.414,0,3.122-.126,4.06-.224l.042-1.19a26.6,26.6,0,0,1-4.158.336c-2.422,0-2.45-.532-2.492-2.044-.014-.546-.014-2,0-3.444,1.4-.14,3.038-.308,4.48-.42-.028.882-.084,1.834-.154,2.3-.042.322-.2.378-.532.378a7.243,7.243,0,0,1-1.4-.182l-.028.966a13.87,13.87,0,0,0,1.848.2c.644,0,.952-.182,1.078-.8a20.918,20.918,0,0,0,.2-2.926c.616-.042,1.148-.07,1.568-.084.35,0,.882-.014,1.106,0V67.006c-.336.014-.728.042-1.092.07-.462.028-.994.056-1.554.1.014-.616.014-1.316.028-1.96C288.134,64.92,288.148,64.444,288.19,64.206Zm11.438.406-1.232-.5c-.168.406-.35.756-.518,1.078a99.368,99.368,0,0,0-4.844,9.926l1.2.42a22.375,22.375,0,0,1,1.2-3.192c.546-1.092,1.6-2.24,2.73-2.24a.944.944,0,0,1,1.022.98c.042.77.014,1.848.056,2.66a1.816,1.816,0,0,0,2.03,1.778c2.03,0,3.206-1.568,3.948-3.822l-.924-.756c-.364,1.484-1.288,3.416-2.842,3.416a1.007,1.007,0,0,1-1.134-.994c-.042-.686-.028-1.764-.056-2.59a1.579,1.579,0,0,0-1.638-1.694,3.081,3.081,0,0,0-2.086.868c.728-1.358,2.016-3.682,2.632-4.648C299.348,65.032,299.5,64.78,299.628,64.612ZM5.1,119.4c-.5.154-1.036.308-1.54.448v-2.772H5.1v-.98H3.556v-2.8H2.534v2.8H.742v.98H2.534v3.052c-.742.21-1.414.378-1.974.5l.294,1.022,1.68-.49v3.654c0,.2-.084.266-.28.266-.168.014-.77.014-1.442,0a3.328,3.328,0,0,1,.322.952,4.858,4.858,0,0,0,1.9-.182c.364-.168.518-.448.518-1.036v-3.962c.546-.168,1.12-.336,1.68-.5Zm6.244.1a8.537,8.537,0,0,1-2.254,3.22,9.539,9.539,0,0,1-2.058-3.22ZM12,118.49l-.168.042H9.6v-2.086H12.95v-.966H9.6v-2.2H8.582v2.2H5.306v.966H8.582v2.086h-3v.966h.462l-.042.014a11.163,11.163,0,0,0,2.3,3.836,11.5,11.5,0,0,1-3.794,1.778,3.964,3.964,0,0,1,.56.938,12.808,12.808,0,0,0,3.976-2,10.052,10.052,0,0,0,3.738,2.03,4.285,4.285,0,0,1,.672-.9,9.538,9.538,0,0,1-3.612-1.806,10.244,10.244,0,0,0,2.842-4.606Zm15.33-4.382H24.01v.924h3.318Zm-3.556,1.428a8.187,8.187,0,0,0-1.2-1.9l-.686.336a9.06,9.06,0,0,1,1.162,1.932Zm-6.664-2.24a9.589,9.589,0,0,1-2.492,2.8,6.221,6.221,0,0,1,.588.77,12.569,12.569,0,0,0,2.842-3.234Zm1.652,5.712a13.384,13.384,0,0,1-.924,4.774,4.128,4.128,0,0,1,.756.49,16.119,16.119,0,0,0,1.05-5.138Zm4.844-1.694v-.966H21.476v-2.856H20.51v2.856h-2.1v.028l-.9-.294a11.766,11.766,0,0,1-3.094,3.99,5.889,5.889,0,0,1,.616.924,11.914,11.914,0,0,0,1.232-1.274v6.356h.966v-7.6a15.27,15.27,0,0,0,1.176-2v.84h2.1v8.54h.966v-8.54Zm-1.442,1.876a24.061,24.061,0,0,1,.714,4.144l.854-.154a25.942,25.942,0,0,0-.77-4.144Zm5.362-1.26h-3.85v.952h1.61v5.95c0,.182-.056.238-.252.252s-.84,0-1.568-.028a4.145,4.145,0,0,1,.308,1.008,6.377,6.377,0,0,0,2-.168c.392-.182.5-.49.5-1.05v-5.964h1.246Zm7.182-.91H30.534v.924H40.11v-.924H35.77v-1.386h5.586v-.966H35.77V113.3H34.706v1.372H29.232v.966h5.474Zm6.272,4.718v-2.674H29.6v2.674H30.6v-1.722h9.324v1.722ZM32.9,120.73c-.2,2.422-.756,3.78-3.962,4.466a2.565,2.565,0,0,1,.588.882c3.472-.854,4.2-2.506,4.438-5.348Zm5.11,4.13c-.546,0-.644-.07-.644-.448v-3.7H36.33v3.71c0,1.078.322,1.386,1.582,1.386h2.044c1.092,0,1.372-.476,1.5-2.352a3.616,3.616,0,0,1-.952-.406c-.042,1.568-.126,1.806-.644,1.806Zm11.494-.49v-5.544h5.208V117.79H49.5v-4.284H48.412V124.37H43.19v1.036H55.664V124.37Zm19.768-4.27a5.073,5.073,0,0,0-5.362-5.152,5.967,5.967,0,0,0-6.118,5.7c0,2.31,1.246,3.738,2.492,3.738,1.3,0,2.408-1.47,3.262-4.354a27.539,27.539,0,0,0,.84-4.032,3.9,3.9,0,0,1,3.738,4.06,4.228,4.228,0,0,1-3.556,4.158,10.575,10.575,0,0,1-1.2.182l.658,1.036C67.34,125,69.272,123.04,69.272,120.1Zm-10.388.448a4.883,4.883,0,0,1,4.34-4.536,22.875,22.875,0,0,1-.784,3.78c-.714,2.366-1.456,3.3-2.114,3.3C59.7,123.1,58.884,122.312,58.884,120.548Zm15.47,4.634a3.333,3.333,0,0,0,3.36-3.528,2.929,2.929,0,0,0-3.094-3.262,2.984,2.984,0,0,0-1.526.406l.252-2.968h3.878v-1.106h-5L71.9,119.54l.686.42a2.792,2.792,0,0,1,1.708-.6,2.077,2.077,0,0,1,2.128,2.338,2.218,2.218,0,0,1-2.184,2.422,3.376,3.376,0,0,1-2.52-1.134l-.63.84A4.36,4.36,0,0,0,74.354,125.182Zm8.148,0c1.946,0,3.192-1.778,3.192-5.348s-1.246-5.292-3.192-5.292-3.206,1.722-3.206,5.292S80.542,125.182,82.5,125.182Zm0-1.022c-1.176,0-1.96-1.3-1.96-4.326,0-3,.784-4.27,1.96-4.27s1.946,1.274,1.946,4.27C84.448,122.858,83.664,124.16,82.5,124.16Zm10.626-4.088a4,4,0,0,0,6.8-.952l-.994-.532a3.088,3.088,0,0,1-2.646,1.848,3.232,3.232,0,0,1-2.38-1.148,4,4,0,0,0-6.8.952l.994.532a3.088,3.088,0,0,1,2.646-1.848A3.209,3.209,0,0,1,93.128,120.072Zm11.438,5.11c1.932,0,3.22-1.162,3.22-2.66a3,3,0,0,0-1.736-2.688v-.07a3.365,3.365,0,0,0,1.372-2.478,2.819,2.819,0,0,0-5.628-.1,2.853,2.853,0,0,0,1.386,2.366v.07a3.287,3.287,0,0,0-1.89,2.828C101.29,124.034,102.676,125.182,104.566,125.182Zm.7-5.754c-1.2-.476-2.31-1.008-2.31-2.24a1.58,1.58,0,0,1,1.638-1.666,1.7,1.7,0,0,1,1.736,1.834A2.753,2.753,0,0,1,105.266,119.428Zm-.672,4.8a1.968,1.968,0,0,1-2.142-1.89,2.79,2.79,0,0,1,1.4-2.324c1.456.588,2.716,1.106,2.716,2.478A1.778,1.778,0,0,1,104.594,124.23Zm7.868.952c1.946,0,3.192-1.778,3.192-5.348s-1.246-5.292-3.192-5.292-3.206,1.722-3.206,5.292S110.5,125.182,112.462,125.182Zm0-1.022c-1.176,0-1.96-1.3-1.96-4.326,0-3,.784-4.27,1.96-4.27s1.946,1.274,1.946,4.27C114.408,122.858,113.624,124.16,112.462,124.16Zm7.448-3.318c1.4,0,2.338-1.19,2.338-3.262s-.938-3.234-2.338-3.234-2.338,1.176-2.338,3.234S118.5,120.842,119.91,120.842Zm0-.8c-.812,0-1.372-.826-1.372-2.464s.56-2.436,1.372-2.436,1.358.784,1.358,2.436S120.722,120.044,119.91,120.044Zm7.154,4.97c1.414,0,2.338-1.19,2.338-3.262s-.924-3.234-2.338-3.234-2.324,1.176-2.324,3.234S125.664,125.014,127.064,125.014Zm0-.8c-.812,0-1.358-.826-1.358-2.464s.546-2.436,1.358-2.436,1.372.8,1.372,2.436S127.89,124.216,127.064,124.216Zm-6.86.8h.854l5.684-10.668h-.854Zm20.552-5.4a8.4,8.4,0,0,1-3.122,3.29,8.759,8.759,0,0,1-2.912-3.29Zm.784-1.064-.2.042h-3.22v-2.156h5.334v-1.008h-5.334V113.3H137.06v2.128h-5.306v1.008h5.306v2.156h-4.676v1.022H134.6l-.84.294a10.274,10.274,0,0,0,2.9,3.556,18.638,18.638,0,0,1-5.432,1.624,3.618,3.618,0,0,1,.56.98,18.953,18.953,0,0,0,5.81-1.946,15.328,15.328,0,0,0,5.782,1.988,3.88,3.88,0,0,1,.658-.98,15.786,15.786,0,0,1-5.432-1.638,9.893,9.893,0,0,0,3.654-4.508Zm4.536,2.674a10.061,10.061,0,0,1-.91,3.332,3.636,3.636,0,0,1,.812.392,12.321,12.321,0,0,0,.994-3.556Zm2.884.154a13.728,13.728,0,0,1,.854,2.562l.8-.266a12.979,12.979,0,0,0-.9-2.548ZM148.6,118.1a10.673,10.673,0,0,1,.658,1.26l-2.072.084a48.035,48.035,0,0,0,2.786-4.172l-.882-.392a28.516,28.516,0,0,1-1.414,2.506,11.243,11.243,0,0,0-.812-.91c.518-.784,1.106-1.89,1.582-2.814l-.91-.364a17.7,17.7,0,0,1-1.26,2.6c-.14-.126-.266-.252-.406-.364l-.532.686a13.041,13.041,0,0,1,1.806,1.974c-.308.462-.63.91-.924,1.288l-.924.042.084.924c.644-.042,1.4-.084,2.2-.126v5.768h.924v-5.824l1.106-.07a6.514,6.514,0,0,1,.252.812l.784-.35a11.085,11.085,0,0,0-1.316-2.856Zm7.63,3.332v2.9h-4.018v-2.9Zm-4.97,4.62h.952v-.8h4.018v.742h.994v-5.5h-5.964Zm.588-8.19v.966h4.634v-.966Zm1.652-4.438a14.025,14.025,0,0,1-3.738,4.536,3.841,3.841,0,0,1,.616.882,15.9,15.9,0,0,0,3.682-4.354,19.811,19.811,0,0,0,3.752,4.27,7.56,7.56,0,0,1,.644-.952,16.959,16.959,0,0,1-3.934-4.382ZM7.042,139.752H4.494v-1.414H3.486v1.414H.91v.868H7.042Zm-1.61,3.108a20.67,20.67,0,0,0,.812-1.988l-.952-.224a11.6,11.6,0,0,1-.7,2.03Zm-2.268-.2a7.743,7.743,0,0,0-.6-1.988l-.812.21A8.06,8.06,0,0,1,2.3,142.9Zm3.542,5.614c-.322-.294-1.68-1.4-2.212-1.792v-.336H7.1v-.882h-2.6V143.8H7.21v-.882H.714v.882H3.486v1.47H.756v.882H3.262A9.816,9.816,0,0,1,.448,149.3a4.485,4.485,0,0,1,.7.756,11.248,11.248,0,0,0,2.338-2.688v3.668H4.494V147.48a21.627,21.627,0,0,1,1.6,1.568Zm6.678-5.306H8.708V140.48a23.138,23.138,0,0,0,4.494-1.26l-.84-.77a18.928,18.928,0,0,1-3.892,1.2l-.756-.238v4.872c0,1.96-.2,4.382-1.974,6.118a2.628,2.628,0,0,1,.742.728c1.96-1.946,2.226-4.746,2.226-6.832v-.35h2.086v7.028h1.022v-7.028h1.568Zm6.972,5.236c-.35-.406-1.806-2.044-2.394-2.632.028-.266.056-.546.07-.812H20.3v-.938H18.074v-2.3h1.974v-.924H18.074v-2.17h-.966v2.17H15.092v.924h2.016v2.3H14.8v.938h2.268c-.112,1.9-.574,4.06-2.352,5.39a2.964,2.964,0,0,1,.7.756,7.144,7.144,0,0,0,2.394-4.27c.644.756,1.484,1.806,1.834,2.338Zm1.428-3.976h3.99v1.4h-3.99Zm0-2.226h3.99v1.372h-3.99Zm0-2.226h3.99v1.358h-3.99ZM25.466,149.9c-.294,0-.35-.042-.35-.364V146.57h1.666v-7.742H20.818v7.742h1.12a3.887,3.887,0,0,1-2.954,3.7,2.808,2.808,0,0,1,.588.784c2.38-.84,3.094-2.366,3.346-4.48h1.246v2.968c0,.98.2,1.288,1.162,1.288H26.46c.826,0,1.078-.476,1.162-2.38a2.581,2.581,0,0,1-.868-.392c-.042,1.638-.1,1.848-.406,1.848Zm6.272-5.782H35v.966H31.738ZM35,141.712H31.738v-.938H35Zm0,1.666H31.738v-.924H35Zm6.5,4.27v-.854h-5.74v-.868H41.1v-.84h-5.11v-.966h4.06v-.742h-4.06v-.924h4.018v-.742H35.994v-.938h4.564v-.826H35.966c.266-.448.56-.98.84-1.5l-1.162-.168a11.84,11.84,0,0,1-.728,1.666h-2.7a17,17,0,0,0,.882-1.47l-1.078-.21a12.322,12.322,0,0,1-3.3,4.116,3.115,3.115,0,0,1,.742.686,14.066,14.066,0,0,0,1.316-1.26v4.116h3.962v.868H29.078v.854h4.788a15.036,15.036,0,0,1-5.124,2.408,4.082,4.082,0,0,1,.686.854,16.38,16.38,0,0,0,5.306-2.856v3h1.022v-3.024a15.873,15.873,0,0,0,5.348,2.786,4.409,4.409,0,0,1,.672-.854,14.94,14.94,0,0,1-5.11-2.31Zm3.052-7.14h9.688v1.652h1.036v-2.618H49.91V138.3H48.86v1.246H43.554v2.618h.994Zm1.96,6.286a19.184,19.184,0,0,0,2.94-1.316,15.672,15.672,0,0,0,3.29,1.316Zm.1,2.9v-2.03h5.656v2.03Zm.77-7.084H51.59a9.235,9.235,0,0,1-2.128,1.75,7.942,7.942,0,0,1-2.128-1.694Zm5.11-.868-.182.042h-4.13a8.769,8.769,0,0,0,.644-.826l-1.12-.21a9.249,9.249,0,0,1-3.976,3.15,3.2,3.2,0,0,1,.7.742,11.865,11.865,0,0,0,2.184-1.372A9.308,9.308,0,0,0,48.5,144.9a20.075,20.075,0,0,1-5.53,1.834,3.469,3.469,0,0,1,.518.91c.7-.154,1.414-.336,2.128-.56v3.962h.994v-.462h5.656v.448h1.05v-4.088q.924.231,1.89.378a4.227,4.227,0,0,1,.658-.994,18.748,18.748,0,0,1-5.432-1.47,9.724,9.724,0,0,0,2.758-2.688ZM62.8,148.32c0-.686.742-1.134,1.792-1.134a4.764,4.764,0,0,1,1.428.224c.014.182.014.35.014.49,0,.924-.35,1.526-1.526,1.526C63.5,149.426,62.8,149.034,62.8,148.32Zm4.242-9.1h-1.26c.028.238.056.616.056.854v1.736c-.434.014-.882.028-1.316.028-.84,0-1.582-.042-2.38-.112v1.05c.826.056,1.554.1,2.352.1.448,0,.9-.014,1.344-.028.014,1.148.1,2.52.14,3.6a6.42,6.42,0,0,0-1.3-.126c-1.834,0-2.884.938-2.884,2.114,0,1.26,1.036,2,2.912,2s2.422-1.106,2.422-2.254v-.294a11.39,11.39,0,0,1,2.114,1.624l.616-.938a9.228,9.228,0,0,0-2.772-1.806c-.056-1.176-.154-2.576-.168-3.99.84-.056,1.652-.14,2.422-.266v-1.078a23.638,23.638,0,0,1-2.422.322c.014-.658.028-1.316.042-1.694Q66.983,139.64,67.046,139.22Zm-6.916.084-1.232-.1a8.4,8.4,0,0,1-.084.994,41.656,41.656,0,0,0-.644,5.894,16.91,16.91,0,0,0,.532,4.424l.98-.07c-.014-.154-.028-.35-.028-.49a2.508,2.508,0,0,1,.056-.63c.14-.686.658-2.114.994-3.094l-.574-.448c-.238.574-.574,1.428-.8,2.058a13.133,13.133,0,0,1-.14-1.946,34.712,34.712,0,0,1,.7-5.642A7.28,7.28,0,0,1,60.13,139.3Zm16.324-.49H75.208a7.382,7.382,0,0,1,.07.994c0,.252-.014.868-.014,1.6-.392.028-.756.042-1.078.042a12.954,12.954,0,0,1-1.792-.112l.028,1.064a15.378,15.378,0,0,0,1.792.07c.294,0,.644-.014,1.036-.042-.014.616-.014,1.274-.014,1.834v.8c-1.61.686-3.066,1.9-3.066,3.066,0,1.246,1.82,2.324,2.912,2.324.756,0,1.232-.42,1.232-1.722,0-.6-.028-1.848-.056-3.038a9.171,9.171,0,0,1,3.052-.546c1.33,0,2.408.644,2.408,1.834,0,1.288-1.12,1.946-2.352,2.184a7.159,7.159,0,0,1-1.638.1l.392,1.134a10.616,10.616,0,0,0,1.736-.2c1.918-.462,2.982-1.54,2.982-3.234s-1.47-2.786-3.514-2.786a10.588,10.588,0,0,0-3.08.518v-.49c0-.56.014-1.232.028-1.89a25.7,25.7,0,0,0,2.94-.49l-.028-1.092a18.827,18.827,0,0,1-2.884.56c.014-.63.042-1.176.056-1.512A8.982,8.982,0,0,1,76.454,138.814Zm4.34,1.554-.5.84a17.758,17.758,0,0,1,3.136,2.1l.574-.9A25.448,25.448,0,0,0,80.794,140.368Zm-7.532,7.7c0-.63.854-1.442,2-1.974.014,1.022.042,1.974.042,2.478,0,.462-.2.686-.518.686C74.242,149.258,73.262,148.712,73.262,148.068Zm22.68,1.526H89.894v-2.688h6.048Zm-2.7-8.218H92.19v4.606H88.872v5.1h1.022v-.546h6.048v.518h1.05v-5.068H93.24v-2h4.69v-.938H93.24Zm-.462-1.288V138.3H91.714v1.792H86.576V143.7c0,1.988-.112,4.788-1.246,6.79a3.876,3.876,0,0,1,.882.588c1.19-2.114,1.386-5.25,1.386-7.378v-2.618H98.126v-.994Zm12.138-.966L103.628,139a15.629,15.629,0,0,1-.364,3.052c-.854.07-1.666.14-2.128.154s-.812.014-1.26,0l.126,1.2c.35-.056.938-.126,1.26-.168.364-.042,1.036-.112,1.778-.182a22.207,22.207,0,0,1-2.954,6.972l1.134.462a28.573,28.573,0,0,0,2.954-7.546c.6-.056,1.162-.1,1.5-.1.9,0,1.484.238,1.484,1.512a11.829,11.829,0,0,1-.658,4.284,1.167,1.167,0,0,1-1.232.728,6.816,6.816,0,0,1-1.708-.294l.182,1.176a8.481,8.481,0,0,0,1.652.2,1.971,1.971,0,0,0,2.044-1.162,13.58,13.58,0,0,0,.812-5.054c0-1.9-1.022-2.38-2.282-2.38-.336,0-.91.042-1.568.1.154-.756.28-1.582.364-1.988C104.8,139.682,104.86,139.388,104.916,139.122Zm4.816,1.624-1.022.462a16.424,16.424,0,0,1,2.506,5.026l1.078-.518A23.883,23.883,0,0,0,109.732,140.746Zm.168-2.03-.756.308a17.137,17.137,0,0,1,1.134,1.946l.77-.336A19.84,19.84,0,0,0,109.9,138.716Zm1.54-.574-.742.322a15.7,15.7,0,0,1,1.162,1.932l.756-.336A20.2,20.2,0,0,0,111.44,138.142Zm10.458.77h-1.274c.014.112.07.518.084.882.014.2.028.532.028.924-2.086.028-4.718.112-6.272.14l.028,1.078c1.75-.126,4.13-.224,6.258-.238.014.49.014.994.014,1.414a2.8,2.8,0,0,0-.938-.154,2.444,2.444,0,0,0-2.464,2.436,2.229,2.229,0,0,0,2.3,2.338,1.972,1.972,0,0,0,1.218-.378c-.56,1.274-1.848,2.058-3.71,2.478l.938.924c3.262-.98,4.186-3.08,4.186-4.97a3.4,3.4,0,0,0-.448-1.792c-.014-.644-.028-1.512-.028-2.31h.2c2.044,0,3.318.028,4.1.07l.014-1.036c-.672,0-2.394-.014-4.1-.014h-.21c0-.378.014-.7.014-.91C121.842,139.612,121.87,139.066,121.9,138.912Zm-3.486,6.468a1.427,1.427,0,0,1,1.414-1.484,1.255,1.255,0,0,1,1.246.882c.126,1.33-.406,1.988-1.232,1.988A1.348,1.348,0,0,1,118.412,145.38Zm13.972,3.15a1.023,1.023,0,0,1,1.12-.9,1.909,1.909,0,0,1,1.876,1.9,7.188,7.188,0,0,1-1.134.084C133.154,149.622,132.384,149.2,132.384,148.53Zm-1.792-8.848.042,1.162c.294-.042.616-.07.924-.084.742-.042,3.542-.168,4.284-.2-.714.63-2.464,2.1-3.248,2.744-.812.686-2.6,2.184-3.766,3.136l.8.826c1.778-1.806,3.024-2.8,5.362-2.8,1.82,0,3.136,1.036,3.136,2.408a2.459,2.459,0,0,1-1.75,2.394,2.71,2.71,0,0,0-2.856-2.478,1.966,1.966,0,0,0-2.156,1.82c0,1.162,1.162,1.988,3.066,1.988,2.968,0,4.816-1.456,4.816-3.71,0-1.89-1.666-3.29-3.99-3.29a5.924,5.924,0,0,0-1.946.294c1.092-.91,3-2.534,3.7-3.066.252-.21.532-.392.784-.574l-.644-.812a3.3,3.3,0,0,1-.756.112c-.742.07-4.074.182-4.8.182A8.349,8.349,0,0,1,130.592,139.682Zm23.52,5.418a5.073,5.073,0,0,0-5.362-5.152,5.967,5.967,0,0,0-6.118,5.7c0,2.31,1.246,3.738,2.492,3.738,1.3,0,2.408-1.47,3.262-4.354a27.539,27.539,0,0,0,.84-4.032,3.9,3.9,0,0,1,3.738,4.06,4.228,4.228,0,0,1-3.556,4.158,10.575,10.575,0,0,1-1.2.182l.658,1.036C152.18,150,154.112,148.04,154.112,145.1Zm-10.388.448a4.883,4.883,0,0,1,4.34-4.536,22.875,22.875,0,0,1-.784,3.78c-.714,2.366-1.456,3.3-2.114,3.3C144.536,148.1,143.724,147.312,143.724,145.548Zm12.922-4.76.126,1.218c1.512-.322,5.082-.658,6.58-.826a5.687,5.687,0,0,0-2.618,4.732c0,3.122,2.954,4.508,5.544,4.606l.406-1.162c-2.282-.084-4.83-.952-4.83-3.682a4.928,4.928,0,0,1,3.206-4.438,11.727,11.727,0,0,1,2.744-.224v-1.12c-.938.042-2.254.126-3.78.252-2.576.21-5.222.476-6.132.574C157.626,140.746,157.178,140.774,156.646,140.788Zm9.142,1.946-.714.308a13,13,0,0,1,1.148,1.974l.714-.336A16.617,16.617,0,0,0,165.788,142.734Zm1.526-.588-.686.322a12.976,12.976,0,0,1,1.176,1.96l.728-.35A18.492,18.492,0,0,0,167.314,142.146Zm15.47-.994h-4.06v-1.008h3.206v-.784h-3.206V138.3h-1.008v1.064H174.58v.784h3.136v1.008h-3.892v.784h8.96Zm-6.86,2.3h4.662v1.4h-4.662Zm5.628,2.156a18.236,18.236,0,0,1-1.68,1.2,5.457,5.457,0,0,1-1.148-1.2Zm-3.85,3.654h.98v-2.45a7.714,7.714,0,0,0,3.556,2.184,3.236,3.236,0,0,1,.6-.8,7.825,7.825,0,0,1-2.338-.952,20.535,20.535,0,0,0,2.086-1.372l-.77-.49-.21.182v-2.87h-6.636V145.6h2.38a9.645,9.645,0,0,1-3.6,2.212,4.151,4.151,0,0,1,.63.8,11.785,11.785,0,0,0,3.318-2.1Zm-4.144-8.344a10.467,10.467,0,0,0-2.254-2.282l-.8.588a10.343,10.343,0,0,1,2.212,2.338Zm-.42,2.856H170.38v.98h1.778v3.584a23.044,23.044,0,0,1-1.932,1.61l.546.994c.686-.6,1.33-1.19,1.946-1.792a4.885,4.885,0,0,0,3.962,1.652c1.568.07,4.522.042,6.09-.028a3.812,3.812,0,0,1,.336-1.022c-1.68.112-4.9.154-6.44.084a4.052,4.052,0,0,1-3.528-1.568Zm23.9-2.086v-.994H191.3v-2.436h-1.05v2.436H184.6v.994h4.3c-.168,3.22-.574,6.846-4.438,8.582a3.539,3.539,0,0,1,.742.854,8,8,0,0,0,4.452-6.16h4.62c-.238,3.234-.5,4.606-.924,4.97-.14.14-.336.154-.658.154-.35,0-1.344,0-2.338-.1a2.381,2.381,0,0,1,.364,1.008c.938.056,1.848.07,2.338.042a1.561,1.561,0,0,0,1.19-.462c.546-.56.826-2.1,1.106-6.09.014-.168.028-.5.028-.5h-5.572c.112-.77.168-1.54.21-2.3Zm13.636,3.416a5.073,5.073,0,0,0-5.362-5.152,5.967,5.967,0,0,0-6.118,5.7c0,2.31,1.246,3.738,2.492,3.738,1.3,0,2.408-1.47,3.262-4.354a27.541,27.541,0,0,0,.84-4.032,3.9,3.9,0,0,1,3.738,4.06,4.228,4.228,0,0,1-3.556,4.158,10.575,10.575,0,0,1-1.2.182l.658,1.036C208.74,150,210.672,148.04,210.672,145.1Zm-10.388.448a4.883,4.883,0,0,1,4.34-4.536,22.875,22.875,0,0,1-.784,3.78c-.714,2.366-1.456,3.3-2.114,3.3C201.1,148.1,200.284,147.312,200.284,145.548Zm25.032-3.864v-.994h-5.74v-2.436h-1.05v2.436h-5.642v.994h4.3c-.168,3.22-.574,6.846-4.438,8.582a3.539,3.539,0,0,1,.742.854,8,8,0,0,0,4.452-6.16h4.62c-.238,3.234-.5,4.606-.924,4.97-.14.14-.336.154-.658.154-.35,0-1.344,0-2.338-.1a2.381,2.381,0,0,1,.364,1.008c.938.056,1.848.07,2.338.042a1.561,1.561,0,0,0,1.19-.462c.546-.56.826-2.1,1.106-6.09.014-.168.028-.5.028-.5h-5.572c.112-.77.168-1.54.21-2.3Zm2.03-.9.126,1.218c1.512-.322,5.082-.658,6.58-.826a5.687,5.687,0,0,0-2.618,4.732c0,3.122,2.954,4.508,5.544,4.606l.406-1.162c-2.282-.084-4.83-.952-4.83-3.682a4.928,4.928,0,0,1,3.206-4.438,11.727,11.727,0,0,1,2.744-.224v-1.12c-.938.042-2.254.126-3.78.252-2.576.21-5.222.476-6.132.574C228.326,140.746,227.878,140.774,227.346,140.788Zm9.142,1.946-.714.308a13,13,0,0,1,1.148,1.974l.714-.336A16.617,16.617,0,0,0,236.488,142.734Zm1.526-.588-.686.322a12.976,12.976,0,0,1,1.176,1.96l.728-.35A18.492,18.492,0,0,0,238.014,142.146Zm8.568-3.15-1.26-.084a4.8,4.8,0,0,1-.014.994c-.028.406-.084.91-.154,1.47a13.882,13.882,0,0,1-3.066-.518l-.056,1.022a19.309,19.309,0,0,0,3.01.49c-.112.826-.224,1.708-.308,2.534a12.5,12.5,0,0,1-2.982-.574l-.056,1.078a13.837,13.837,0,0,0,2.926.5c-.07.658-.112,1.218-.112,1.61,0,2.3,1.526,3.122,3.43,3.122,2.772,0,4.62-1.26,4.62-3.346a4.594,4.594,0,0,0-1.428-3.234l-1.232.252a3.884,3.884,0,0,1,1.526,2.856c0,1.442-1.358,2.38-3.486,2.38a2.046,2.046,0,0,1-2.352-2.2c0-.336.028-.826.084-1.386h.5a25.361,25.361,0,0,0,2.744-.14l.028-1.064a20.589,20.589,0,0,1-2.912.182h-.266c.1-.826.21-1.708.308-2.534h.1c1.134,0,1.946-.042,2.842-.126l.028-1.05a18.878,18.878,0,0,1-2.842.182c.084-.588.154-1.078.2-1.442A7.813,7.813,0,0,1,246.582,139Zm10.234,1.736h9.45v2.016h1.078v-2.982h-5.32v-1.484h-1.078v1.484h-5.18v2.982h1.05Zm7.154,3.864a6.42,6.42,0,0,1-1.946,3.276c-1.092-.406-2.2-.784-3.234-1.092.378-.672.784-1.428,1.176-2.184Zm3.724,0v-.98H260.47c.35-.7.7-1.386.994-2.016l-1.064-.238c-.322.686-.714,1.456-1.106,2.254H255.36v.98h3.416c-.644,1.232-1.316,2.436-1.848,3.318l1.064.28c.112-.182.224-.378.35-.588.882.266,1.82.6,2.744.966a13.8,13.8,0,0,1-5.4,1.582,4.238,4.238,0,0,1,.63.938,13.722,13.722,0,0,0,5.894-2.072,25.066,25.066,0,0,1,4.06,2.072l.756-.868a27.168,27.168,0,0,0-3.934-1.932,8.049,8.049,0,0,0,2.072-3.7Zm11.046-1.3a15.519,15.519,0,0,1,2.52,5.194l1.022-.49a14.823,14.823,0,0,0-2.632-5.166Zm-8.12,0a10.56,10.56,0,0,1-1.582,5.04l.938.574a12.145,12.145,0,0,0,1.652-5.418Zm2.436-4.144a21.2,21.2,0,0,1,4.788,2.422l.658-.91a23.857,23.857,0,0,0-4.788-2.31Zm-.1,3.01v6.986c0,1.358.406,1.736,1.89,1.736h2.716c1.512,0,1.848-.77,1.988-3.4a2.6,2.6,0,0,1-.966-.476c-.112,2.422-.238,2.926-1.078,2.926h-2.576c-.77,0-.924-.126-.924-.77v-7Zm14.6-3.066-1.414-.014a7.39,7.39,0,0,1,.112,1.428c0,1.47-.14,5.012-.14,7.084,0,2.282,1.386,3.122,3.4,3.122a7.037,7.037,0,0,0,5.852-3.094l-.8-.952a5.833,5.833,0,0,1-5.012,2.9c-1.33,0-2.3-.546-2.3-2.086,0-2.086.1-5.39.168-6.972A12.054,12.054,0,0,1,287.56,139.094Zm10.15,1.61.126,1.218c1.512-.322,5.082-.658,6.58-.826a5.687,5.687,0,0,0-2.618,4.732c0,3.122,2.954,4.508,5.544,4.606l.406-1.162c-2.282-.084-4.83-.952-4.83-3.7a4.924,4.924,0,0,1,3.206-4.424,11.727,11.727,0,0,1,2.744-.224v-1.12c-.938.042-2.254.112-3.78.252-2.576.21-5.222.476-6.132.574C298.69,140.662,298.242,140.69,297.71,140.7Zm26.138-.35v-1.036H311.486v1.036h5.348v10.7h1.106v-7.364a31.917,31.917,0,0,1,4.424,2.786l.728-.938a34.592,34.592,0,0,0-4.97-2.9l-.182.21v-2.492Zm8.288-.28c.1.322.238.742.406,1.26a29.253,29.253,0,0,1-5.53-.168l.028,1.12a35.969,35.969,0,0,0,5.88.028,18.7,18.7,0,0,0,1.694,3.192c-.5-.056-1.54-.14-2.324-.21l-.084.938a31.647,31.647,0,0,1,3.374.378l.574-.784c-.21-.238-.42-.476-.616-.742a14.9,14.9,0,0,1-1.568-2.884,20.814,20.814,0,0,0,2.9-.574l-.126-1.092a17.981,17.981,0,0,1-3.122.686,16.728,16.728,0,0,1-.644-2.394l-1.19.154C331.912,139.346,332.038,139.78,332.136,140.074Zm-2.968,5.558-1.092-.252a5.458,5.458,0,0,0-.672,2.324c0,1.9,1.68,2.87,4.34,2.884a20.332,20.332,0,0,0,3.612-.308l.056-1.12a15.605,15.605,0,0,1-3.612.35c-2.072-.014-3.29-.6-3.29-1.932A3.6,3.6,0,0,1,329.168,145.632Zm12.894-5.4L340.7,140.2a6.316,6.316,0,0,1,.1,1.246c0,.812.028,2.52.154,3.738.378,3.626,1.652,4.942,2.982,4.942.938,0,1.792-.812,2.632-3.192l-.882-.994c-.364,1.4-1.022,2.856-1.736,2.856-.994,0-1.68-1.554-1.9-3.892-.1-1.162-.112-2.436-.1-3.318A10.659,10.659,0,0,1,342.062,140.228Zm7.294.392-1.092.378a14.185,14.185,0,0,1,2.436,7.042l1.12-.462A15.046,15.046,0,0,0,349.356,140.62Zm6.44,5.964a2.135,2.135,0,1,0,2.142,2.128A2.136,2.136,0,0,0,355.8,146.584Zm0,3.556a1.421,1.421,0,1,1,1.428-1.428A1.422,1.422,0,0,1,355.8,150.14ZM7,166.74a1.05,1.05,0,1,0-1.05-1.05A1.058,1.058,0,0,0,7,166.74Zm0,2.534-4.62-4.62-.406.406,4.62,4.62L1.96,174.314l.406.406L7,170.086l4.62,4.62.406-.406-4.62-4.62,4.62-4.62-.406-.406Zm-2.94.406a1.05,1.05,0,1,0-1.05,1.05A1.058,1.058,0,0,0,4.06,169.68Zm5.88,0a1.05,1.05,0,1,0,1.05-1.05A1.058,1.058,0,0,0,9.94,169.68ZM7,172.62a1.05,1.05,0,1,0,1.05,1.05A1.058,1.058,0,0,0,7,172.62Zm19.838-6.986v-.952H18.592c.238-.406.434-.812.616-1.2l-1.12-.2a10.559,10.559,0,0,1-3,4.158,3.741,3.741,0,0,1,.854.63,12.435,12.435,0,0,0,2.072-2.436Zm-5.544,7.63c.112-.672.21-1.484.308-2.324h2.884c-.07.966-.154,1.722-.238,2.324Zm-.644-2.324c-.1.84-.21,1.652-.322,2.324H17.556c.126-.728.252-1.512.378-2.324Zm.322-3.122c-.056.686-.14,1.428-.224,2.184H18.074c.126-.742.238-1.484.336-2.184ZM21.714,170c.084-.742.168-1.5.238-2.184h2.73c-.042.812-.084,1.526-.126,2.184Zm5.81.938V170h-1.96c.056-.756.112-1.624.154-2.59,0-.14.014-.5.014-.5H17.5c-.112.938-.252,2-.42,3.094h-2.3v.938h2.142c-.252,1.512-.518,2.982-.756,4.046l1.05.07c.056-.266.112-.56.168-.868H24.08a2.015,2.015,0,0,1-.378.91.641.641,0,0,1-.56.21c-.308,0-.994-.014-1.792-.084a2.092,2.092,0,0,1,.252.812,16.236,16.236,0,0,0,1.946.042,1.354,1.354,0,0,0,1.064-.518,3.246,3.246,0,0,0,.518-1.372h2.016v-.924H25.27c.084-.616.168-1.386.238-2.324Zm4.578-.224a17.577,17.577,0,0,0,.154-2.352h6.4v2.352Zm6.552-5.67v2.324h-6.4v-2.324Zm1.078-1.022H31.206v4.284c0,2.226-.224,5.068-2.45,7.028a3.94,3.94,0,0,1,.77.756,7.9,7.9,0,0,0,2.408-4.354h6.72v2.8c0,.308-.112.406-.434.42s-1.442.014-2.6-.028a4.966,4.966,0,0,1,.434,1.078,11.257,11.257,0,0,0,2.954-.2c.518-.168.728-.532.728-1.26ZM43.652,175H49.28v-1.064H47.222v-9.212h-.98a6.182,6.182,0,0,1-2.128.742v.812h1.82v7.658H43.652Zm7.91,0H57.19v-1.064H55.132v-9.212h-.98a6.182,6.182,0,0,1-2.128.742v.812h1.82v7.658H51.562Zm10.57.182c1.946,0,3.192-1.778,3.192-5.348s-1.246-5.292-3.192-5.292-3.206,1.722-3.206,5.292S60.172,175.182,62.132,175.182Zm0-1.022c-1.176,0-1.96-1.3-1.96-4.326,0-3,.784-4.27,1.96-4.27s1.946,1.274,1.946,4.27C64.078,172.858,63.294,174.16,62.132,174.16Zm10.3-10.444c-.1,1.848-.1,8.526-5.768,11.424a3.543,3.543,0,0,1,.84.8,11.594,11.594,0,0,0,5.6-8.092c.672,2.8,2.212,6.384,5.824,8.092a3.138,3.138,0,0,1,.77-.854c-5.264-2.408-6.02-8.876-6.146-10.724.014-.238.014-.462.028-.644Zm16.114,4.648a13.255,13.255,0,0,0-2.212-3.346l-.924.462A13.752,13.752,0,0,1,87.57,168.9Zm-1.988,2.716c-.924.392-1.862.8-2.758,1.176l-.21-8.26-1.064.042.238,8.652c-.728.308-1.386.574-1.932.784l.378,1.078c1.54-.672,3.654-1.6,5.586-2.478Zm7.266,4.144a35.829,35.829,0,0,0-3.444-3.85,20.722,20.722,0,0,0,1.848-7.252L91.1,164.01c-.616,6.048-2.1,9.436-6.9,11.2a6.013,6.013,0,0,1,.826.9,10.106,10.106,0,0,0,4.8-3.78,34.4,34.4,0,0,1,3.136,3.7Zm7.686-.854v-5.544h5.208V167.79h-5.208v-4.284h-1.092V174.37H95.2v1.036h12.474V174.37Zm19.768-4.27a5.073,5.073,0,0,0-5.362-5.152,5.967,5.967,0,0,0-6.118,5.7c0,2.31,1.246,3.738,2.492,3.738,1.3,0,2.408-1.47,3.262-4.354A27.54,27.54,0,0,0,116.4,166a3.9,3.9,0,0,1,3.738,4.06,4.228,4.228,0,0,1-3.556,4.158,10.576,10.576,0,0,1-1.2.182l.658,1.036C119.35,175,121.282,173.04,121.282,170.1Zm-10.388.448a4.883,4.883,0,0,1,4.34-4.536,22.873,22.873,0,0,1-.784,3.78c-.714,2.366-1.456,3.3-2.114,3.3C111.706,173.1,110.894,172.312,110.894,170.548Zm18.858-5.8H127.2v-1.414H126.2v1.414H123.62v.868h6.132Zm-1.61,3.108a20.666,20.666,0,0,0,.812-1.988l-.952-.224a11.6,11.6,0,0,1-.7,2.03Zm-2.268-.2a7.742,7.742,0,0,0-.6-1.988l-.812.21a8.06,8.06,0,0,1,.546,2.016Zm3.542,5.614c-.322-.294-1.68-1.4-2.212-1.792v-.336h2.6v-.882h-2.6V168.8h2.716v-.882h-6.5v.882H126.2v1.47h-2.73v.882h2.506a9.816,9.816,0,0,1-2.814,3.15,4.486,4.486,0,0,1,.7.756,11.248,11.248,0,0,0,2.338-2.688v3.668H127.2V172.48a21.628,21.628,0,0,1,1.6,1.568Zm6.678-5.306h-4.676V165.48a23.138,23.138,0,0,0,4.494-1.26l-.84-.77a18.928,18.928,0,0,1-3.892,1.2l-.756-.238v4.872c0,1.96-.2,4.382-1.974,6.118a2.628,2.628,0,0,1,.742.728c1.96-1.946,2.226-4.746,2.226-6.832v-.35H133.5v7.028h1.022v-7.028h1.568Zm6.972,5.236c-.35-.406-1.806-2.044-2.394-2.632.028-.266.056-.546.07-.812h2.268v-.938h-2.226v-2.3h1.974v-.924h-1.974v-2.17h-.966v2.17H137.8v.924h2.016v2.3h-2.31v.938h2.268c-.112,1.9-.574,4.06-2.352,5.39a2.964,2.964,0,0,1,.7.756,7.144,7.144,0,0,0,2.394-4.27c.644.756,1.484,1.806,1.834,2.338Zm1.428-3.976h3.99v1.4h-3.99Zm0-2.226h3.99v1.372h-3.99Zm0-2.226h3.99v1.358h-3.99Zm3.682,10.122c-.294,0-.35-.042-.35-.364V171.57h1.666v-7.742h-5.964v7.742h1.12a3.887,3.887,0,0,1-2.954,3.7,2.808,2.808,0,0,1,.588.784c2.38-.84,3.094-2.366,3.346-4.48h1.246v2.968c0,.98.2,1.288,1.162,1.288h1.134c.826,0,1.078-.476,1.162-2.38a2.581,2.581,0,0,1-.868-.392c-.042,1.638-.1,1.848-.406,1.848Zm4.942-9.394h9.688v1.652h1.036v-2.618H158.48V163.3h-1.05v1.246h-5.306v2.618h.994Zm1.96,6.286a19.184,19.184,0,0,0,2.94-1.316,15.673,15.673,0,0,0,3.29,1.316Zm.1,2.9v-2.03h5.656v2.03Zm.77-7.084h4.214a9.235,9.235,0,0,1-2.128,1.75,7.942,7.942,0,0,1-2.128-1.694Zm5.11-.868-.182.042h-4.13a8.767,8.767,0,0,0,.644-.826l-1.12-.21a9.249,9.249,0,0,1-3.976,3.15,3.2,3.2,0,0,1,.7.742,11.865,11.865,0,0,0,2.184-1.372,9.308,9.308,0,0,0,1.89,1.638,20.075,20.075,0,0,1-5.53,1.834,3.469,3.469,0,0,1,.518.91c.7-.154,1.414-.336,2.128-.56v3.962h.994v-.462h5.656v.448h1.05v-4.088q.924.231,1.89.378a4.226,4.226,0,0,1,.658-.994,18.748,18.748,0,0,1-5.432-1.47,9.724,9.724,0,0,0,2.758-2.688Zm10.514-2.814-1.148-.1a7.171,7.171,0,0,1-.35,1.75c-.308.014-.63.014-.924.014a20.493,20.493,0,0,1-2.366-.154v1.05c.77.056,1.694.084,2.3.084h.616a14.769,14.769,0,0,1-3.234,4.284l.952.7a18.492,18.492,0,0,1,1.274-1.456,3.685,3.685,0,0,1,2.408-1.022,1.168,1.168,0,0,1,1.274.868c-1.638.854-3.3,1.89-3.3,3.542,0,1.708,1.61,2.142,3.612,2.142a32.888,32.888,0,0,0,3.836-.252l.028-1.12a24.929,24.929,0,0,1-3.822.336c-1.442,0-2.534-.168-2.534-1.26,0-.924.91-1.666,2.212-2.352,0,.742-.014,1.652-.042,2.184h1.078c-.014-.686-.028-1.876-.042-2.688,1.064-.5,2.058-.91,2.842-1.2a12.185,12.185,0,0,1,1.246-.448l-.462-1.05c-.392.21-.728.364-1.148.546-.728.336-1.582.672-2.534,1.134a1.807,1.807,0,0,0-1.876-1.26,4.008,4.008,0,0,0-1.946.518,11.116,11.116,0,0,0,1.26-2.17,40.492,40.492,0,0,0,4.648-.392l.014-1.036a34.431,34.431,0,0,1-4.27.434A14.291,14.291,0,0,0,171.57,163.926Zm11.158,5.194h3.262v.966h-3.262Zm3.262-2.408h-3.262v-.938h3.262Zm0,1.666h-3.262v-.924h3.262Zm6.5,4.27v-.854h-5.74v-.868h5.348v-.84h-5.11v-.966h4.06v-.742h-4.06v-.924H191v-.742h-4.018v-.938h4.564v-.826h-4.592c.266-.448.56-.98.84-1.5l-1.162-.168a11.839,11.839,0,0,1-.728,1.666h-2.7a17,17,0,0,0,.882-1.47l-1.078-.21a12.322,12.322,0,0,1-3.3,4.116,3.115,3.115,0,0,1,.742.686,14.067,14.067,0,0,0,1.316-1.26v4.116h3.962v.868h-5.656v.854h4.788a15.036,15.036,0,0,1-5.124,2.408,4.082,4.082,0,0,1,.686.854,16.38,16.38,0,0,0,5.306-2.856v3h1.022v-3.024a15.873,15.873,0,0,0,5.348,2.786,4.408,4.408,0,0,1,.672-.854,14.939,14.939,0,0,1-5.11-2.31Zm3.052-7.14h9.688v1.652h1.036v-2.618H200.9V163.3h-1.05v1.246h-5.306v2.618h.994Zm1.96,6.286a19.184,19.184,0,0,0,2.94-1.316,15.673,15.673,0,0,0,3.29,1.316Zm.1,2.9v-2.03h5.656v2.03Zm.77-7.084h4.214a9.235,9.235,0,0,1-2.128,1.75,7.942,7.942,0,0,1-2.128-1.694Zm5.11-.868-.182.042h-4.13a8.767,8.767,0,0,0,.644-.826l-1.12-.21a9.249,9.249,0,0,1-3.976,3.15,3.2,3.2,0,0,1,.7.742,11.865,11.865,0,0,0,2.184-1.372,9.308,9.308,0,0,0,1.89,1.638,20.075,20.075,0,0,1-5.53,1.834,3.469,3.469,0,0,1,.518.91c.7-.154,1.414-.336,2.128-.56v3.962h.994v-.462h5.656v.448h1.05v-4.088q.924.231,1.89.378a4.226,4.226,0,0,1,.658-.994,18.748,18.748,0,0,1-5.432-1.47,9.724,9.724,0,0,0,2.758-2.688Zm8.834-2.646-1.414-.014a7.389,7.389,0,0,1,.112,1.428c0,1.47-.14,5.012-.14,7.084,0,2.282,1.386,3.122,3.4,3.122a7.037,7.037,0,0,0,5.852-3.094l-.8-.952a5.833,5.833,0,0,1-5.012,2.9c-1.33,0-2.3-.546-2.3-2.086,0-2.086.1-5.39.168-6.972A12.054,12.054,0,0,1,212.31,164.094Zm10.15,1.61.126,1.218c1.512-.322,5.082-.658,6.58-.826a5.687,5.687,0,0,0-2.618,4.732c0,3.122,2.954,4.508,5.544,4.606l.406-1.162c-2.282-.084-4.83-.952-4.83-3.7a4.924,4.924,0,0,1,3.206-4.424,11.727,11.727,0,0,1,2.744-.224v-1.12c-.938.042-2.254.112-3.78.252-2.576.21-5.222.476-6.132.574C223.44,165.662,222.992,165.69,222.46,165.7Zm16.072-.476-1.358-.028a6.315,6.315,0,0,1,.1,1.246c0,.812.028,2.52.154,3.738.378,3.626,1.652,4.942,2.982,4.942.938,0,1.792-.812,2.632-3.192l-.882-.994c-.364,1.4-1.022,2.856-1.736,2.856-.994,0-1.68-1.554-1.9-3.892-.1-1.162-.112-2.436-.1-3.318A10.659,10.659,0,0,1,238.532,165.228Zm7.294.392-1.092.378a14.185,14.185,0,0,1,2.436,7.042l1.12-.462A15.046,15.046,0,0,0,245.826,165.62Zm7.308,7.91c0-.644.728-1.162,2.058-1.162a6.209,6.209,0,0,1,1.358.14c0,.364.014.7.014.938,0,.966-.686,1.218-1.484,1.218C253.694,174.664,253.134,174.174,253.134,173.53Zm4.438-9.646h-1.19a7.679,7.679,0,0,1,.056.84v.994h-.644a25.437,25.437,0,0,1-3.584-.308l.014,1.036c.882.1,2.6.238,3.584.238h.616v1.96h-.756a25.9,25.9,0,0,1-3.528-.266l.014,1.05c1.008.112,2.548.2,3.5.2h.8c.014.6.042,1.274.056,1.9a8.018,8.018,0,0,0-1.176-.084c-2.016,0-3.234.868-3.234,2.142,0,1.344,1.092,2.058,3.108,2.058,1.82,0,2.464-.994,2.464-1.96,0-.224-.014-.518-.028-.868a10.322,10.322,0,0,1,3.388,2.114l.644-.994a11.141,11.141,0,0,0-4.088-2.184c-.028-.672-.07-1.428-.1-2.156,1.33-.042,2.562-.154,3.878-.322l.014-1.05a34.837,34.837,0,0,1-3.906.378v-1.96c1.344-.07,2.674-.2,3.78-.322l.014-1.022a34.81,34.81,0,0,1-3.794.378c0-.364.014-.672.014-.854A7.011,7.011,0,0,1,257.572,163.884Zm14.9.028h-1.274c.014.112.07.518.084.882.014.2.028.532.028.924-2.086.028-4.718.112-6.272.14l.028,1.078c1.75-.126,4.13-.224,6.258-.238.014.49.014.994.014,1.414a2.8,2.8,0,0,0-.938-.154,2.444,2.444,0,0,0-2.464,2.436,2.229,2.229,0,0,0,2.3,2.338,1.972,1.972,0,0,0,1.218-.378c-.56,1.274-1.848,2.058-3.71,2.478l.938.924c3.262-.98,4.186-3.08,4.186-4.97a3.4,3.4,0,0,0-.448-1.792c-.014-.644-.028-1.512-.028-2.31h.2c2.044,0,3.318.028,4.1.07l.014-1.036c-.672,0-2.394-.014-4.1-.014h-.21c0-.378.014-.7.014-.91C272.412,164.612,272.44,164.066,272.468,163.912Zm-3.486,6.468A1.427,1.427,0,0,1,270.4,168.9a1.255,1.255,0,0,1,1.246.882c.126,1.33-.406,1.988-1.232,1.988A1.348,1.348,0,0,1,268.982,170.38ZM13.244,220.142H7.5v-4.886H12.46v-1.022H1.512v1.022H6.44v4.886H.784v1.022H6.44v4.9H7.5v-4.9h5.74Zm-10.752-3.92a16.384,16.384,0,0,1,1.26,3.206l.98-.336a13.412,13.412,0,0,0-1.33-3.15Zm7.42,3.248a27.487,27.487,0,0,0,1.722-3.29l-1.092-.308a20.891,20.891,0,0,1-1.512,3.3Zm14.868,1.582c-1.9.7-3.878,1.428-5.138,1.834l.42.98c1.372-.532,3.192-1.26,4.886-1.932Zm-4.494-2.646v.938H24.6v-.938Zm1.26-2.8a20.433,20.433,0,0,0,.742-2.086l-1.05-.238a13.831,13.831,0,0,1-1.918,4.242v-.994H17.668v-3.164h-.994v3.164h-1.75v.994h1.75v4.438c-.756.294-1.456.56-2.016.756l.378,1.05c1.3-.546,3.01-1.26,4.606-1.946l-.224-.966c-.588.238-1.176.476-1.75.714v-4.046H19.32a9.762,9.762,0,0,1-.658.812,5.483,5.483,0,0,1,.9.658,11.83,11.83,0,0,0,1.554-2.422h5.124c-.182,5.656-.406,7.8-.854,8.288a.709.709,0,0,1-.6.224,20.209,20.209,0,0,1-2.114-.1,2.531,2.531,0,0,1,.322,1.05,16.373,16.373,0,0,0,2.184.014,1.345,1.345,0,0,0,1.134-.574c.574-.686.756-2.912.98-9.324,0-.154.014-.546.014-.546Zm8.862-.1H40.1v1.652h1.036v-2.618H35.77V213.3H34.72v1.246H29.414v2.618h.994Zm1.96,6.286a19.184,19.184,0,0,0,2.94-1.316,15.673,15.673,0,0,0,3.29,1.316Zm.1,2.9v-2.03h5.656v2.03Zm.77-7.084H37.45a9.235,9.235,0,0,1-2.128,1.75,7.942,7.942,0,0,1-2.128-1.694Zm5.11-.868-.182.042h-4.13a8.769,8.769,0,0,0,.644-.826l-1.12-.21a9.249,9.249,0,0,1-3.976,3.15,3.2,3.2,0,0,1,.7.742,11.865,11.865,0,0,0,2.184-1.372,9.308,9.308,0,0,0,1.89,1.638,20.075,20.075,0,0,1-5.53,1.834,3.469,3.469,0,0,1,.518.91c.7-.154,1.414-.336,2.128-.56v3.962h.994v-.462h5.656v.448h1.05v-4.088q.924.231,1.89.378a4.227,4.227,0,0,1,.658-.994,18.748,18.748,0,0,1-5.432-1.47,9.724,9.724,0,0,0,2.758-2.688Zm7.21,3.71v-1.5h3.3v1.5Zm0-3.822h3.3v1.5h-3.3Zm7.826,1.5H49.91v-1.5h3.472Zm0,2.324H49.91v-1.5h3.472Zm2.268,2.156H49.91v-1.274h4.536v-5.586h-1.47c.462-.6.98-1.372,1.414-2.072l-1.12-.364a14.637,14.637,0,0,1-1.47,2.436H49.308l.8-.322a9.578,9.578,0,0,0-1.148-2.156l-.924.35a9.232,9.232,0,0,1,1.078,2.128H46.1l.714-.364a11.412,11.412,0,0,0-1.428-1.946l-.882.392a10.687,10.687,0,0,1,1.316,1.918H44.534v5.586H48.86v1.274H43.218v.966H48.86v2.506h1.05v-2.506h5.74Zm4.494-9.282a15.469,15.469,0,0,1-3.262,5.446,8.064,8.064,0,0,1,.574.98,14.355,14.355,0,0,0,1.3-1.624v7.924h.994v-9.534a22.62,22.62,0,0,0,1.344-2.9Zm6.02,4.592h-1.6v-2.282h1.6Zm2.534,6.09H67.074v-5.152H68.7ZM62.1,218.854h1.554v5.152H62.1Zm4.06,0v5.152h-1.6v-5.152Zm3.654-3.22V214.7H60.97v.938h2.618v2.282H61.152v7.924H62.1v-.91H68.7v.826h1.008v-7.84H67.158v-2.282Zm6.818-1.512L75.348,214a15.629,15.629,0,0,1-.364,3.052c-.854.07-1.666.14-2.128.154s-.812.014-1.26,0l.126,1.2c.35-.056.938-.126,1.26-.168.364-.042,1.036-.112,1.778-.182a22.207,22.207,0,0,1-2.954,6.972l1.134.462a28.573,28.573,0,0,0,2.954-7.546c.6-.056,1.162-.1,1.5-.1.9,0,1.484.238,1.484,1.512a11.829,11.829,0,0,1-.658,4.284,1.167,1.167,0,0,1-1.232.728,6.816,6.816,0,0,1-1.708-.294l.182,1.176a8.481,8.481,0,0,0,1.652.2,1.971,1.971,0,0,0,2.044-1.162,13.58,13.58,0,0,0,.812-5.054c0-1.9-1.022-2.38-2.282-2.38-.336,0-.91.042-1.568.1.154-.756.28-1.582.364-1.988C76.524,214.682,76.58,214.388,76.636,214.122Zm4.816,1.624-1.022.462a16.424,16.424,0,0,1,2.506,5.026l1.078-.518A23.883,23.883,0,0,0,81.452,215.746Zm.168-2.03-.756.308A17.137,17.137,0,0,1,82,215.97l.77-.336A19.839,19.839,0,0,0,81.62,213.716Zm1.54-.574-.742.322A15.7,15.7,0,0,1,83.58,215.4l.756-.336A20.2,20.2,0,0,0,83.16,213.142Zm10.4,9.436v1.428H90.118v-1.428Zm.924,2.2v-2.954H89.194v3.654h.924v-.7Zm2.856-4.732H86.422v6.02h.994v-5.138h8.89V224.8c0,.2-.042.266-.28.266-.252.028-1.036.028-1.932,0a4.169,4.169,0,0,1,.336.966,8.883,8.883,0,0,0,2.352-.154c.434-.182.56-.49.56-1.05Zm-2.786-1.638H89.1v-1.358h5.46Zm-6.454-2.1v2.856h7.49v-2.856Zm4.186-1.694v-1.33h-1.05v1.33H85.806v.91H97.874v-.91Zm9.814.616-1.358-.028a6.315,6.315,0,0,1,.1,1.246c0,.812.028,2.52.154,3.738.378,3.626,1.652,4.942,2.982,4.942.938,0,1.792-.812,2.632-3.192l-.882-.994c-.364,1.4-1.022,2.856-1.736,2.856-.994,0-1.68-1.554-1.9-3.892-.1-1.162-.112-2.436-.1-3.318A10.659,10.659,0,0,1,102.1,215.228Zm7.294.392L108.3,216a14.185,14.185,0,0,1,2.436,7.042l1.12-.462A15.046,15.046,0,0,0,109.4,215.62Zm16.436,4.48a5.073,5.073,0,0,0-5.362-5.152,5.967,5.967,0,0,0-6.118,5.7c0,2.31,1.246,3.738,2.492,3.738,1.3,0,2.408-1.47,3.262-4.354a27.54,27.54,0,0,0,.84-4.032,3.9,3.9,0,0,1,3.738,4.06,4.228,4.228,0,0,1-3.556,4.158,10.576,10.576,0,0,1-1.2.182l.658,1.036C123.9,225,125.832,223.04,125.832,220.1Zm-10.388.448a4.883,4.883,0,0,1,4.34-4.536,22.873,22.873,0,0,1-.784,3.78c-.714,2.366-1.456,3.3-2.114,3.3C116.256,223.1,115.444,222.312,115.444,220.548Zm12.922-4.76.126,1.218c1.512-.322,5.082-.658,6.58-.826a5.687,5.687,0,0,0-2.618,4.732c0,3.122,2.954,4.508,5.544,4.606l.406-1.162c-2.282-.084-4.83-.952-4.83-3.682a4.928,4.928,0,0,1,3.206-4.438,11.727,11.727,0,0,1,2.744-.224v-1.12c-.938.042-2.254.126-3.78.252-2.576.21-5.222.476-6.132.574C129.346,215.746,128.9,215.774,128.366,215.788Zm9.142,1.946-.714.308a13,13,0,0,1,1.148,1.974l.714-.336A16.617,16.617,0,0,0,137.508,217.734Zm1.526-.588-.686.322a12.977,12.977,0,0,1,1.176,1.96l.728-.35A18.49,18.49,0,0,0,139.034,217.146Zm5.628,8.638.952-.812a26.277,26.277,0,0,0-3.136-3.108l-.91.8A23.325,23.325,0,0,1,144.662,225.784ZM3.458,250H10.78v-1.064H7.854V239.71H6.888a7.375,7.375,0,0,1-2.688.742v.812H6.58v7.672H3.458Zm14.252-1.022v-3.906h6.944v3.906Zm6.944-8.708v3.78H17.71v-3.78Zm-7.994-1.022V250.91h1.05V250h6.944v.854h1.092V239.248Zm13.748,1.26H40.1v1.652h1.036v-2.618H35.77V238.3H34.72v1.246H29.414v2.618h.994Zm1.96,6.286a19.184,19.184,0,0,0,2.94-1.316,15.673,15.673,0,0,0,3.29,1.316Zm.1,2.9v-2.03h5.656v2.03Zm.77-7.084H37.45a9.235,9.235,0,0,1-2.128,1.75,7.942,7.942,0,0,1-2.128-1.694Zm5.11-.868-.182.042h-4.13a8.769,8.769,0,0,0,.644-.826l-1.12-.21a9.249,9.249,0,0,1-3.976,3.15,3.2,3.2,0,0,1,.7.742,11.865,11.865,0,0,0,2.184-1.372,9.308,9.308,0,0,0,1.89,1.638,20.075,20.075,0,0,1-5.53,1.834,3.469,3.469,0,0,1,.518.91c.7-.154,1.414-.336,2.128-.56v3.962h.994v-.462h5.656v.448h1.05v-4.088q.924.231,1.89.378a4.227,4.227,0,0,1,.658-.994,18.748,18.748,0,0,1-5.432-1.47,9.724,9.724,0,0,0,2.758-2.688Zm10.206-3.178a11.985,11.985,0,0,1-1.036,1.848l.7.336c.364-.462.84-1.162,1.246-1.806Zm-3.234,1.848a6.983,6.983,0,0,0-.91-1.792l-.784.322a7.157,7.157,0,0,1,.868,1.834Zm6.132,1.414h2.436a15.327,15.327,0,0,1-1.232,4.466,19.261,19.261,0,0,1-1.218-4.424Zm-3.822,4.746a4.492,4.492,0,0,1-.882,1.876c-.546-.266-1.106-.518-1.666-.742.182-.364.392-.742.588-1.134Zm8.176-4.746v-.98h-4.06c.2-.77.378-1.582.518-2.408l-1.064-.154a13.757,13.757,0,0,1-2.282,6.272,5.358,5.358,0,0,1,.84.714,9.133,9.133,0,0,0,1.022-1.75,18.959,18.959,0,0,0,1.26,3.864,7.708,7.708,0,0,1-2.8,2.548,14.1,14.1,0,0,0-1.61-1.022,5.745,5.745,0,0,0,.994-2.338H49.84V245.7H46.1c.168-.336.322-.672.476-.98l-.238-.056h.6V242.58c.672.5,1.554,1.176,1.918,1.512l.574-.742c-.378-.28-1.89-1.232-2.492-1.582v-.07h2.842v-.854H46.942v-2.562h-.966v2.562h-2.87v.854H45.7a7.63,7.63,0,0,1-2.744,2.226,3.531,3.531,0,0,1,.574.784,9.1,9.1,0,0,0,2.45-2.058v1.932l-.364-.084c-.168.378-.364.784-.574,1.2H43.022v.868H44.6c-.378.728-.756,1.442-1.064,1.974l.9.322.224-.392c.462.2.924.42,1.372.644a7.115,7.115,0,0,1-2.982,1.092,2.139,2.139,0,0,1,.476.854,7.813,7.813,0,0,0,3.416-1.456,13.751,13.751,0,0,1,1.638,1.106l.322-.336a4.476,4.476,0,0,1,.448.728,9.228,9.228,0,0,0,3.248-2.688,7.525,7.525,0,0,0,2.618,2.646,3.351,3.351,0,0,1,.714-.882,6.89,6.89,0,0,1-2.7-2.744,16.278,16.278,0,0,0,1.736-5.614Zm7,6.5c0-.686.742-1.134,1.792-1.134a4.764,4.764,0,0,1,1.428.224c.014.182.014.35.014.49,0,.924-.35,1.526-1.526,1.526C63.5,249.426,62.8,249.034,62.8,248.32Zm4.242-9.1h-1.26c.028.238.056.616.056.854v1.736c-.434.014-.882.028-1.316.028-.84,0-1.582-.042-2.38-.112v1.05c.826.056,1.554.1,2.352.1.448,0,.9-.014,1.344-.028.014,1.148.1,2.52.14,3.6a6.42,6.42,0,0,0-1.3-.126c-1.834,0-2.884.938-2.884,2.114,0,1.26,1.036,2,2.912,2s2.422-1.106,2.422-2.254v-.294a11.39,11.39,0,0,1,2.114,1.624l.616-.938a9.228,9.228,0,0,0-2.772-1.806c-.056-1.176-.154-2.576-.168-3.99.84-.056,1.652-.14,2.422-.266v-1.078a23.638,23.638,0,0,1-2.422.322c.014-.658.028-1.316.042-1.694Q66.983,239.64,67.046,239.22Zm-6.916.084-1.232-.1a8.4,8.4,0,0,1-.084.994,41.656,41.656,0,0,0-.644,5.894,16.91,16.91,0,0,0,.532,4.424l.98-.07c-.014-.154-.028-.35-.028-.49a2.508,2.508,0,0,1,.056-.63c.14-.686.658-2.114.994-3.094l-.574-.448c-.238.574-.574,1.428-.8,2.058a13.133,13.133,0,0,1-.14-1.946,34.712,34.712,0,0,1,.7-5.642A7.28,7.28,0,0,1,60.13,239.3Zm20.09,1.036a9.785,9.785,0,0,1-2.408,2.17,13.3,13.3,0,0,0-2.478-1.568c.308-.2.6-.392.882-.6Zm.84-.938-.182.056H77.294a11.633,11.633,0,0,0,.924-.938l-1.162-.252a12.309,12.309,0,0,1-5.292,3.36,3.409,3.409,0,0,1,.714.77,20.185,20.185,0,0,0,1.988-.938,13.966,13.966,0,0,1,2.45,1.582,17.928,17.928,0,0,1-5.264,1.862,3.217,3.217,0,0,1,.5.91c3.668-.8,7.77-2.758,9.562-5.992Zm1.274,5.81a7.973,7.973,0,0,1-2.576,2.632,15.588,15.588,0,0,0-2.674-1.834c.434-.266.854-.518,1.232-.8Zm.77-.938-.2.042H79.436a11.838,11.838,0,0,0,1.022-1.036l-1.148-.266a13.185,13.185,0,0,1-6.132,3.7,3.69,3.69,0,0,1,.63.784,21.352,21.352,0,0,0,2.338-.98,14.623,14.623,0,0,1,2.688,1.876,18.127,18.127,0,0,1-6.132,1.764,3.9,3.9,0,0,1,.462.938c4.522-.658,8.862-2.394,10.612-6.44ZM94.7,239.668l-1.036-.924a6.63,6.63,0,0,1-.8.938c-.952.966-3.08,2.646-4.13,3.528-1.26,1.064-1.428,1.666-.1,2.772,1.3,1.078,3.43,2.9,4.41,3.906.35.336.672.686.966,1.022l.994-.924c-1.484-1.484-3.962-3.486-5.236-4.522-.9-.756-.882-.98-.042-1.694,1.036-.868,3.052-2.464,4-3.3C93.968,240.27,94.4,239.906,94.7,239.668ZM99.75,240.7l.126,1.218c1.512-.322,5.082-.658,6.58-.826a5.687,5.687,0,0,0-2.618,4.732c0,3.122,2.954,4.508,5.544,4.606l.406-1.162c-2.282-.084-4.83-.952-4.83-3.7a4.924,4.924,0,0,1,3.206-4.424,11.727,11.727,0,0,1,2.744-.224v-1.12c-.938.042-2.254.112-3.78.252-2.576.21-5.222.476-6.132.574C100.73,240.662,100.282,240.69,99.75,240.7ZM118.2,239l-1.26-.084a4.8,4.8,0,0,1-.014.994c-.028.406-.084.91-.154,1.47a13.882,13.882,0,0,1-3.066-.518l-.056,1.022a19.308,19.308,0,0,0,3.01.49c-.112.826-.224,1.708-.308,2.534a12.494,12.494,0,0,1-2.982-.574l-.056,1.078a13.837,13.837,0,0,0,2.926.5c-.07.658-.112,1.218-.112,1.61,0,2.3,1.526,3.122,3.43,3.122,2.772,0,4.62-1.26,4.62-3.346a4.594,4.594,0,0,0-1.428-3.234l-1.232.252a3.884,3.884,0,0,1,1.526,2.856c0,1.442-1.358,2.38-3.486,2.38a2.046,2.046,0,0,1-2.352-2.2c0-.336.028-.826.084-1.386h.5a25.361,25.361,0,0,0,2.744-.14l.028-1.064a20.589,20.589,0,0,1-2.912.182h-.266c.1-.826.21-1.708.308-2.534h.1c1.134,0,1.946-.042,2.842-.126l.028-1.05a18.878,18.878,0,0,1-2.842.182c.084-.588.154-1.078.2-1.442A7.815,7.815,0,0,1,118.2,239Zm11.634,11.186a2.987,2.987,0,0,0,3.29-2.926,2.64,2.64,0,0,0-2.17-2.6V244.6a2.563,2.563,0,0,0,1.82-2.478c0-1.624-1.26-2.576-2.982-2.576a4.109,4.109,0,0,0-2.87,1.232l.686.812a3,3,0,0,1,2.128-.994,1.575,1.575,0,0,1,1.736,1.624c0,1.106-.728,1.96-2.842,1.96v.98c2.366,0,3.192.826,3.192,2.044a1.892,1.892,0,0,1-2.086,1.918,3.393,3.393,0,0,1-2.548-1.176l-.644.84A4.248,4.248,0,0,0,129.836,250.182Zm10.822-5.11a4,4,0,0,0,6.8-.952l-.994-.532a3.088,3.088,0,0,1-2.646,1.848,3.232,3.232,0,0,1-2.38-1.148,4,4,0,0,0-6.8.952l.994.532a3.088,3.088,0,0,1,2.646-1.848A3.209,3.209,0,0,1,140.658,245.072Zm11.186,5.11a3.333,3.333,0,0,0,3.36-3.528,2.929,2.929,0,0,0-3.094-3.262,2.984,2.984,0,0,0-1.526.406l.252-2.968h3.878v-1.106h-5l-.322,4.816.686.42a2.792,2.792,0,0,1,1.708-.6,2.077,2.077,0,0,1,2.128,2.338,2.218,2.218,0,0,1-2.184,2.422,3.376,3.376,0,0,1-2.52-1.134l-.63.84A4.36,4.36,0,0,0,151.844,250.182Zm10.542-11.466c-.1,1.848-.1,8.526-5.768,11.424a3.543,3.543,0,0,1,.84.8,11.594,11.594,0,0,0,5.6-8.092c.672,2.8,2.212,6.384,5.824,8.092a3.138,3.138,0,0,1,.77-.854c-5.264-2.408-6.02-8.876-6.146-10.724.014-.238.014-.462.028-.644Zm8.96,2.072.126,1.218c1.512-.322,5.082-.658,6.58-.826a5.687,5.687,0,0,0-2.618,4.732c0,3.122,2.954,4.508,5.544,4.606l.406-1.162c-2.282-.084-4.83-.952-4.83-3.682a4.928,4.928,0,0,1,3.206-4.438,11.727,11.727,0,0,1,2.744-.224v-1.12c-.938.042-2.254.126-3.78.252-2.576.21-5.222.476-6.132.574C172.326,240.746,171.878,240.774,171.346,240.788Zm9.142,1.946-.714.308a13,13,0,0,1,1.148,1.974l.714-.336A16.617,16.617,0,0,0,180.488,242.734Zm1.526-.588-.686.322a12.976,12.976,0,0,1,1.176,1.96l.728-.35A18.492,18.492,0,0,0,182.014,242.146Zm11.144-3.234h-1.274c.014.112.07.518.084.882.014.2.028.532.028.924-2.086.028-4.718.112-6.272.14l.028,1.078c1.75-.126,4.13-.224,6.258-.238.014.49.014.994.014,1.414a2.8,2.8,0,0,0-.938-.154,2.444,2.444,0,0,0-2.464,2.436,2.229,2.229,0,0,0,2.3,2.338,1.972,1.972,0,0,0,1.218-.378c-.56,1.274-1.848,2.058-3.71,2.478l.938.924c3.262-.98,4.186-3.08,4.186-4.97a3.4,3.4,0,0,0-.448-1.792c-.014-.644-.028-1.512-.028-2.31h.2c2.044,0,3.318.028,4.1.07l.014-1.036c-.672,0-2.394-.014-4.1-.014h-.21c0-.378.014-.7.014-.91C193.1,239.612,193.13,239.066,193.158,238.912Zm-3.486,6.468a1.427,1.427,0,0,1,1.414-1.484,1.255,1.255,0,0,1,1.246.882c.126,1.33-.406,1.988-1.232,1.988A1.348,1.348,0,0,1,189.672,245.38ZM7.518,274.44V268.8h4.83v-1.022H7.518v-4.438H6.426v4.438H1.666V268.8h4.76v5.642H.784v1.022h12.46V274.44Zm10.192-.462v-3.906h6.944v3.906Zm6.944-8.708v3.78H17.71v-3.78Zm-7.994-1.022V275.91h1.05V275h6.944v.854h1.092V264.248ZM35.28,268.2a1.484,1.484,0,1,0,1.484,1.484A1.476,1.476,0,0,0,35.28,268.2Zm11.27-4.816a14.386,14.386,0,0,1-3.794,5.614,5.958,5.958,0,0,1,.63,1.05,14.207,14.207,0,0,0,1.652-1.848v7.854H46.06V266.7a20.8,20.8,0,0,0,1.526-3Zm9.17,4.466v-1.008H51.674v-3.36H50.652v3.36H46.718v1.008h3.388a14.223,14.223,0,0,1-3.878,5.726,6.04,6.04,0,0,1,.784.8,15.632,15.632,0,0,0,3.64-5.39v7.1h1.022v-7.392a17,17,0,0,0,3.626,5.628,3.729,3.729,0,0,1,.784-.84,14.772,14.772,0,0,1-3.808-5.628Zm4.41,6.132v-3.906h6.944v3.906Zm6.944-8.708v3.78H60.13v-3.78Zm-7.994-1.022V275.91h1.05V275h6.944v.854h1.092V264.248Zm15.75-.868a14.386,14.386,0,0,1-3.794,5.614,5.958,5.958,0,0,1,.63,1.05,14.206,14.206,0,0,0,1.652-1.848v7.854H74.34V266.7a20.8,20.8,0,0,0,1.526-3ZM84,267.846v-1.008H79.954v-3.36H78.932v3.36H75v1.008h3.388a14.222,14.222,0,0,1-3.878,5.726,6.041,6.041,0,0,1,.784.8,15.632,15.632,0,0,0,3.64-5.39v7.1h1.022v-7.392a17,17,0,0,0,3.626,5.628,3.729,3.729,0,0,1,.784-.84,14.772,14.772,0,0,1-3.808-5.628Zm3.962-3.108.056,1.134c.336-.028.728-.07,1.036-.084.644-.042,2.352-.112,2.912-.14-.434.868-.966,2.086-1.456,3.192-2.758.07-4.662,1.652-4.662,3.71a1.784,1.784,0,0,0,1.82,1.918,1.97,1.97,0,0,0,1.764-.966,30.281,30.281,0,0,0,1.764-3.668,10.065,10.065,0,0,1,4,1.288,6.007,6.007,0,0,1-3.668,3.948l.924.77a6.606,6.606,0,0,0,3.682-4.158,14.61,14.61,0,0,1,1.456,1.106l.518-1.2a18.291,18.291,0,0,0-1.694-1.078,18.777,18.777,0,0,0,.294-2.7l-1.134-.126c.028.392.014.868,0,1.288-.028.336-.056.686-.112,1.036a12.6,12.6,0,0,0-3.85-1.12c.588-1.3,1.2-2.73,1.6-3.36a5.867,5.867,0,0,1,.364-.462l-.7-.574a2.894,2.894,0,0,1-.7.154c-.588.042-2.422.14-3.164.14C88.732,264.78,88.326,264.766,87.962,264.738ZM86.87,272.41c0-1.2,1.162-2.436,3.206-2.59a18.693,18.693,0,0,1-1.526,3.052,1.008,1.008,0,0,1-.84.49A.857.857,0,0,1,86.87,272.41ZM105.182,264l-1.26-.084a4.8,4.8,0,0,1-.014.994c-.028.406-.084.91-.154,1.47a13.882,13.882,0,0,1-3.066-.518l-.056,1.022a19.307,19.307,0,0,0,3.01.49c-.112.826-.224,1.708-.308,2.534a12.492,12.492,0,0,1-2.982-.574l-.056,1.078a13.834,13.834,0,0,0,2.926.5c-.07.658-.112,1.218-.112,1.61,0,2.3,1.526,3.122,3.43,3.122,2.772,0,4.62-1.26,4.62-3.346a4.594,4.594,0,0,0-1.428-3.234l-1.232.252a3.884,3.884,0,0,1,1.526,2.856c0,1.442-1.358,2.38-3.486,2.38a2.046,2.046,0,0,1-2.352-2.2c0-.336.028-.826.084-1.386h.5a25.361,25.361,0,0,0,2.744-.14l.028-1.064a20.592,20.592,0,0,1-2.912.182h-.266c.1-.826.21-1.708.308-2.534h.1c1.134,0,1.946-.042,2.842-.126l.028-1.05a18.878,18.878,0,0,1-2.842.182c.084-.588.154-1.078.2-1.442A7.812,7.812,0,0,1,105.182,264Zm14.854,4.368v3.192h-3.654v-3.192Zm1.022,4.186v-5.194h-5.684v6.314h1.008v-1.12Zm5.278-8.274h-12.39v1.036h9.6v9.254c0,.294-.1.392-.406.406s-1.47.028-2.59-.028A5.24,5.24,0,0,1,121,276.05a10.81,10.81,0,0,0,2.9-.2c.532-.154.714-.532.714-1.274v-9.268h1.722Zm12.712,5.11c1.106,0,1.428-.448,1.554-2.142a2.921,2.921,0,0,1-.952-.406c-.056,1.386-.154,1.61-.686,1.61h-2.226c-.63,0-.742-.084-.742-.532V266.5a29.276,29.276,0,0,0,3.934-1.414l-.7-.756A23.292,23.292,0,0,1,136,265.648V263.31h-1.022v4.62c0,1.148.35,1.456,1.68,1.456Zm-9.366,3.024v-1.288h2.954v1.288Zm2.954-3.3v1.2h-2.954v-1.2Zm1.022-.868h-4.942v7.812h.966v-2.842h2.954v1.652c0,.182-.042.224-.224.224s-.784.028-1.442,0a3.964,3.964,0,0,1,.336.938,5.826,5.826,0,0,0,1.876-.168c.378-.168.476-.462.476-.98Zm-1.722-3.64a16.015,16.015,0,0,1,.938,1.442l-2.87.126c.434-.8.882-1.778,1.26-2.632l-1.05-.252a21.957,21.957,0,0,1-1.288,2.926c-.392.014-.742.028-1.064.042l.1.98c1.428-.084,3.444-.182,5.4-.294a7.539,7.539,0,0,1,.364.826l.882-.392a13.6,13.6,0,0,0-1.82-3.108Zm4.844,10.43c-.658,0-.784-.084-.784-.546v-1.624a20.22,20.22,0,0,0,4.088-1.554l-.686-.784a15.654,15.654,0,0,1-3.4,1.47v-2.212h-1.022v4.7c0,1.148.364,1.456,1.694,1.456h2.492c1.162,0,1.47-.49,1.61-2.366a2.781,2.781,0,0,1-.938-.392c-.07,1.568-.168,1.848-.756,1.848Zm-123.256,38.2v-.07h-4.2V326.2h4.2v-.07a8.9,8.9,0,0,1,0-12.908Zm2.912,2.506h9.45v2.016h1.078v-2.982h-5.32v-1.484H20.566v1.484h-5.18v2.982h1.05ZM23.59,319.6a6.42,6.42,0,0,1-1.946,3.276c-1.092-.406-2.2-.784-3.234-1.092.378-.672.784-1.428,1.176-2.184Zm3.724,0v-.98H20.09c.35-.7.7-1.386.994-2.016l-1.064-.238c-.322.686-.714,1.456-1.106,2.254H14.98v.98H18.4c-.644,1.232-1.316,2.436-1.848,3.318l1.064.28c.112-.182.224-.378.35-.588.882.266,1.82.6,2.744.966a13.8,13.8,0,0,1-5.4,1.582,4.237,4.237,0,0,1,.63.938,13.721,13.721,0,0,0,5.894-2.072,25.066,25.066,0,0,1,4.06,2.072l.756-.868a27.168,27.168,0,0,0-3.934-1.932,8.049,8.049,0,0,0,2.072-3.7Zm11.046-1.3a15.519,15.519,0,0,1,2.52,5.194L41.9,323a14.823,14.823,0,0,0-2.632-5.166Zm-8.12,0a10.56,10.56,0,0,1-1.582,5.04l.938.574a12.144,12.144,0,0,0,1.652-5.418Zm2.436-4.144a21.2,21.2,0,0,1,4.788,2.422l.658-.91a23.857,23.857,0,0,0-4.788-2.31Zm-.1,3.01v6.986c0,1.358.406,1.736,1.89,1.736h2.716c1.512,0,1.848-.77,1.988-3.4a2.6,2.6,0,0,1-.966-.476c-.112,2.422-.238,2.926-1.078,2.926H34.552c-.77,0-.924-.126-.924-.77v-7Zm22.554,2.94a5.073,5.073,0,0,0-5.362-5.152,5.967,5.967,0,0,0-6.118,5.7c0,2.31,1.246,3.738,2.492,3.738,1.3,0,2.408-1.47,3.262-4.354a27.54,27.54,0,0,0,.84-4.032,3.9,3.9,0,0,1,3.738,4.06,4.228,4.228,0,0,1-3.556,4.158,10.579,10.579,0,0,1-1.2.182l.658,1.036C53.2,325,55.132,323.04,55.132,320.1Zm-10.388.448a4.883,4.883,0,0,1,4.34-4.536,22.874,22.874,0,0,1-.784,3.78c-.714,2.366-1.456,3.3-2.114,3.3C45.556,323.1,44.744,322.312,44.744,320.548Zm15.708-7.224a15.72,15.72,0,0,1-3.528,5.516,8.5,8.5,0,0,1,.588,1.008,15.129,15.129,0,0,0,1.5-1.792v7.98H60V316.53a20.8,20.8,0,0,0,1.428-2.912Zm2.422,1.554h5.194v2.562H62.874Zm7,6.174V320.1h-3.92v-1.736H69.1V313.94h-7.21v4.424h3.024V320.1h-4.06v.952h3.458a10.37,10.37,0,0,1-3.864,3.584,5.127,5.127,0,0,1,.728.826,11.7,11.7,0,0,0,3.738-3.724v4.34h1.036V321.7A12.894,12.894,0,0,0,69.5,325.49a4.717,4.717,0,0,1,.742-.826,10.908,10.908,0,0,1-3.682-3.612Zm5.978-7.28H72.03v.84h3.822Zm.49,1.862H71.288v.854h5.054Zm-.476,1.932h-3.92v.826h3.92Zm-3.92,2.73h3.92v-.826h-3.92Zm3.066,1.932v2.324H72.828v-2.324Zm.91-.854h-4v4.676h.91v-.63h3.094Zm5.138,3.22v-4.648h2.772v-.98H81.06v-3.85h2.856v-.966H76.8v.966h3.248v9.478h-1.68v-6.958h-.98v6.958h-1.05v.994h7.8v-.994Zm8.848-8.344h2.828V315.3H89.908v-1.96h-.994v1.96H87.43c.154-.476.294-.994.42-1.484l-.98-.2a11.034,11.034,0,0,1-1.4,3.682,6.11,6.11,0,0,1,.924.392,10.7,10.7,0,0,0,.7-1.442h1.82v1.47h-3.4v.952h3.4v1.4H86.156v4.858h.952v-3.906h1.806v5.026h.994v-5.026H91.84v2.856c0,.14-.042.182-.2.182s-.6.014-1.2,0a3.179,3.179,0,0,1,.308.91,4.325,4.325,0,0,0,1.624-.168c.35-.168.42-.434.42-.91v-3.822H89.908v-1.4h3.374v-.952H89.908Zm5.362-1.694h-.98v7.7h.98Zm1.5-1.12V324.65c0,.238-.07.294-.294.308s-1.022,0-1.848-.028a6.046,6.046,0,0,1,.336,1.092,6.888,6.888,0,0,0,2.24-.21c.42-.182.574-.49.574-1.176v-11.2Zm15.372,2.184v-.952h-5.222V313.3h-1.064v1.372h-5.138v4c0,2.016-.1,4.844-1.246,6.832a4.024,4.024,0,0,1,.854.588c1.2-2.114,1.372-5.264,1.372-7.42V315.62Zm-3.36,2.422v1.47h-3.388v-1.47Zm1.008,2.31v-2.31h2.254v-.854h-2.254V315.97H108.78v1.218h-3.388V315.97H104.4v1.218h-2.226v.854H104.4v2.31Zm-.224,1.736a6.434,6.434,0,0,1-2.366,1.778,6.271,6.271,0,0,1-2.268-1.778Zm.868-.9-.182.042h-7.91v.854H104.5l-.56.21a7.044,7.044,0,0,0,2.2,2,18.992,18.992,0,0,1-4.312.9,3.6,3.6,0,0,1,.434.868,18.961,18.961,0,0,0,4.928-1.2,15.969,15.969,0,0,0,4.606,1.232,3.086,3.086,0,0,1,.6-.882,17.8,17.8,0,0,1-4.116-.882,6.915,6.915,0,0,0,2.814-2.786ZM117.8,326.2V313.156h-4.2v.07a8.9,8.9,0,0,1,0,12.908v.07ZM3.22,339.136v1.036H6.664c.028.532.084,1.148.182,1.792l-.616-.1c-.854,3.92-2.576,6.734-5.67,8.344a6.813,6.813,0,0,1,.938.826c2.786-1.638,4.55-4.186,5.586-7.812a12.081,12.081,0,0,0,5.558,7.8,4.947,4.947,0,0,1,.84-.868c-5.488-3.262-5.81-8.54-5.81-11.018Zm17.374,7.07c-.35-.308-1.582-1.386-2.24-1.9a12.58,12.58,0,0,0,1.82-3.052l-.588-.392-.182.042H18.186v-2.6H17.164v2.6h-2.2v.952h3.892a12.144,12.144,0,0,1-4.382,4.592,4.71,4.71,0,0,1,.546.938,13.218,13.218,0,0,0,2.142-1.75v5.432h1.022v-5.8c.63.588,1.4,1.372,1.764,1.778ZM24.4,349.65v-5.81h2.982v-1.008H24.4v-4.438H23.366v4.438h-3v1.008h3v5.81H19.824v1.022h7.84V349.65ZM31.724,338.3a11.191,11.191,0,0,1-2.94,2.912,6.084,6.084,0,0,1,.588.756,14.858,14.858,0,0,0,3.3-3.318Zm.336,2.828A13.289,13.289,0,0,1,28.63,345a6.661,6.661,0,0,1,.588.91,14.225,14.225,0,0,0,1.582-1.5v6.692h.966V343.28a16,16,0,0,0,1.218-1.834Zm3.416,5.194H39a6.756,6.756,0,0,1-1.82,1.918,7.109,7.109,0,0,1-1.778-1.834Zm4.256-.868-.168.056H36.2a8.633,8.633,0,0,0,.784-1.134l3.374-.126a8.979,8.979,0,0,1,.616,1.022l.868-.5a15.813,15.813,0,0,0-2.31-3.024l-.812.434a15.27,15.27,0,0,1,1.036,1.246c-1.274.028-2.562.056-3.752.084a47.524,47.524,0,0,0,3.822-3.64l-.924-.518A26.71,26.71,0,0,1,36.4,342.02a11.344,11.344,0,0,0-1.246-1.078c.63-.616,1.358-1.442,1.974-2.184l-.91-.476a17.29,17.29,0,0,1-1.764,2.156c-.28-.21-.56-.392-.826-.56l-.63.658a17.792,17.792,0,0,1,2.66,2.156c-.322.308-.658.574-.966.84l-2.156.028.084.952c.91-.028,2.03-.056,3.234-.1a10.364,10.364,0,0,1-3.486,3.066,3.94,3.94,0,0,1,.7.756,12.5,12.5,0,0,0,1.694-1.246,8.743,8.743,0,0,0,1.61,1.764,13.465,13.465,0,0,1-4.046,1.47,2.968,2.968,0,0,1,.532.882,13.966,13.966,0,0,0,4.34-1.736,11.781,11.781,0,0,0,4.018,1.708,4.3,4.3,0,0,1,.63-.868,12.22,12.22,0,0,1-3.822-1.428,7.714,7.714,0,0,0,2.38-3Zm3.3,4.55H49.49v-1.106H46.648c-.518,0-1.148.056-1.68.1,2.408-2.282,4.018-4.368,4.018-6.412A2.815,2.815,0,0,0,46,339.542a3.925,3.925,0,0,0-3.024,1.512l.742.728a2.874,2.874,0,0,1,2.128-1.19,1.8,1.8,0,0,1,1.89,2.03c0,1.764-1.484,3.808-4.7,6.622Zm13.426-10.92-1.3-.14a14.628,14.628,0,0,1-.364,3.052c-.84.07-1.666.14-2.128.154a12.322,12.322,0,0,1-1.246,0l.112,1.218c.364-.056.938-.126,1.26-.168.364-.042,1.036-.126,1.778-.2a22.411,22.411,0,0,1-2.954,6.986l1.148.448a28.8,28.8,0,0,0,2.94-7.546c.616-.056,1.176-.1,1.512-.1.882,0,1.484.238,1.484,1.526a11.858,11.858,0,0,1-.672,4.284,1.156,1.156,0,0,1-1.218.714,6.812,6.812,0,0,1-1.722-.28l.182,1.162a7.611,7.611,0,0,0,1.652.21,1.971,1.971,0,0,0,2.044-1.176,13.3,13.3,0,0,0,.812-5.054c0-1.89-1.022-2.366-2.268-2.366-.336,0-.924.042-1.582.1.154-.77.28-1.6.364-2C56.35,339.64,56.406,339.332,56.462,339.08Zm4.816,1.484-1.022.462a16.448,16.448,0,0,1,2.492,5.068l1.092-.518A24.9,24.9,0,0,0,61.278,340.564Zm7.014,5.152a17.577,17.577,0,0,0,.154-2.352h6.4v2.352Zm6.552-5.67v2.324h-6.4v-2.324Zm1.078-1.022H67.4v4.284c0,2.226-.224,5.068-2.45,7.028a3.939,3.939,0,0,1,.77.756,7.9,7.9,0,0,0,2.408-4.354h6.72v2.8c0,.308-.112.406-.434.42s-1.442.014-2.6-.028a4.966,4.966,0,0,1,.434,1.078,11.259,11.259,0,0,0,2.954-.2c.518-.168.728-.532.728-1.26Zm8.05.672v1.162H80.948V339.7Zm-3.024,3.164v-1.232h3.024v1.232Zm4.018.8v-4.774H79.912v12.194h1.036v-7.42Zm2.254,1.862v1.288H83.93V345.52Zm-3.29,3.43v-1.358h3.29v1.358Zm4.256.826v-5.068H82.992v5.768h.938v-.7Zm-.98-6.9v-1.246h3.136v1.246Zm3.136-3.178v1.162H87.206V339.7Zm1.05-.812h-5.18v4.788h4.13v6.006c0,.252-.084.336-.322.336s-1.106.028-1.96-.014a3.834,3.834,0,0,1,.364,1.064,7.968,7.968,0,0,0,2.352-.182c.462-.182.616-.532.616-1.19Zm5.18,11.9.952-.812a26.279,26.279,0,0,0-3.136-3.108l-.91.8A23.326,23.326,0,0,1,96.572,350.784Zm13.972-.6a3.333,3.333,0,0,0,3.36-3.528,2.929,2.929,0,0,0-3.094-3.262,2.984,2.984,0,0,0-1.526.406l.252-2.968h3.878v-1.106h-5l-.322,4.816.686.42a2.792,2.792,0,0,1,1.708-.6,2.077,2.077,0,0,1,2.128,2.338,2.218,2.218,0,0,1-2.184,2.422,3.376,3.376,0,0,1-2.52-1.134l-.63.84A4.36,4.36,0,0,0,110.544,350.182Zm8.148,0c1.946,0,3.192-1.778,3.192-5.348s-1.246-5.292-3.192-5.292-3.206,1.722-3.206,5.292S116.732,350.182,118.692,350.182Zm0-1.022c-1.176,0-1.96-1.3-1.96-4.326,0-3,.784-4.27,1.96-4.27s1.946,1.274,1.946,4.27C120.638,347.858,119.854,349.16,118.692,349.16Zm17.108-8.806v-1.008H123.62v1.008h3.766c-.084,3.57-.28,7.882-4.158,9.94a2.973,2.973,0,0,1,.756.812c2.758-1.54,3.794-4.144,4.2-6.888h5.236c-.2,3.7-.434,5.236-.854,5.614a.845.845,0,0,1-.658.182,23.424,23.424,0,0,1-2.436-.112,2.1,2.1,0,0,1,.364,1.022,19.506,19.506,0,0,0,2.464.056,1.589,1.589,0,0,0,1.19-.5c.546-.588.77-2.254,1.022-6.762.014-.14.014-.5.014-.5H128.31c.1-.966.14-1.932.168-2.856Zm8.526,4v-4.1h4.256v4.1Zm-5.124-4.1h4.1v4.1h-4.1Zm10.43-1.008H138.166v11.83H139.2v-5.684h9.38v4.284c0,.266-.1.35-.35.35s-1.176.028-2.128-.014a4.476,4.476,0,0,1,.392,1.036,8.816,8.816,0,0,0,2.492-.182c.476-.182.644-.518.644-1.19Zm1.512,13.258h.938l4.186-13.622h-.924Zm9.3-6.79a17.577,17.577,0,0,0,.154-2.352h6.4v2.352Zm6.552-5.67v2.324h-6.4v-2.324Zm1.078-1.022h-8.526v4.284c0,2.226-.224,5.068-2.45,7.028a3.939,3.939,0,0,1,.77.756,7.9,7.9,0,0,0,2.408-4.354h6.72v2.8c0,.308-.112.406-.434.42s-1.442.014-2.6-.028a4.966,4.966,0,0,1,.434,1.078,11.259,11.259,0,0,0,2.954-.2c.518-.168.728-.532.728-1.26Zm12.824,5.586a8.394,8.394,0,0,1-3.122,3.29,8.759,8.759,0,0,1-2.912-3.29Zm.784-1.064-.2.042h-3.22v-2.156H183.6v-1.008h-5.334V338.3H177.2v2.128h-5.306v1.008H177.2v2.156h-4.676v1.022h2.212l-.84.294a10.274,10.274,0,0,0,2.9,3.556,18.638,18.638,0,0,1-5.432,1.624,3.618,3.618,0,0,1,.56.98,18.953,18.953,0,0,0,5.81-1.946,15.328,15.328,0,0,0,5.782,1.988,3.881,3.881,0,0,1,.658-.98,15.787,15.787,0,0,1-5.432-1.638,9.893,9.893,0,0,0,3.654-4.508Zm4.536,2.674a10.062,10.062,0,0,1-.91,3.332,3.636,3.636,0,0,1,.812.392,12.321,12.321,0,0,0,.994-3.556Zm2.884.154a13.728,13.728,0,0,1,.854,2.562l.8-.266a12.979,12.979,0,0,0-.9-2.548Zm-.364-3.276a10.676,10.676,0,0,1,.658,1.26l-2.072.084a48.028,48.028,0,0,0,2.786-4.172l-.882-.392a28.517,28.517,0,0,1-1.414,2.506,11.246,11.246,0,0,0-.812-.91c.518-.784,1.106-1.89,1.582-2.814l-.91-.364a17.7,17.7,0,0,1-1.26,2.6c-.14-.126-.266-.252-.406-.364l-.532.686a13.04,13.04,0,0,1,1.806,1.974c-.308.462-.63.91-.924,1.288l-.924.042.084.924c.644-.042,1.4-.084,2.2-.126v5.768h.924v-5.824l1.106-.07a6.515,6.515,0,0,1,.252.812l.784-.35a11.085,11.085,0,0,0-1.316-2.856Zm7.63,3.332v2.9h-4.018v-2.9Zm-4.97,4.62h.952v-.8h4.018v.742h.994v-5.5h-5.964Zm.588-8.19v.966h4.634v-.966Zm1.652-4.438a14.025,14.025,0,0,1-3.738,4.536,3.841,3.841,0,0,1,.616.882,15.9,15.9,0,0,0,3.682-4.354,19.811,19.811,0,0,0,3.752,4.27,7.561,7.561,0,0,1,.644-.952,16.959,16.959,0,0,1-3.934-4.382Z" transform="translate(8663 10147.984)"/>
  </g>
</svg>
