<svg xmlns="http://www.w3.org/2000/svg" width="315" height="190.66" viewBox="0 0 315 190.66">
  <g id="tel" transform="translate(-39.25 -13937.483)">
    <path id="パス_10025" data-name="パス 10025" d="M-114.33-6.59a10.106,10.106,0,0,1-2.04.43v-.96a5.719,5.719,0,0,1,.05-.93h-.74a6.643,6.643,0,0,1,.05.95v.99c-.3.02-.69.03-.96.03a5.664,5.664,0,0,1-1.02-.07v.66h.41c.11.01.38.01.53.01.29,0,.46,0,.64-.01.31-.02.31-.02.4-.03v1.89a5.349,5.349,0,0,0-1.41.82,1.81,1.81,0,0,0-.79,1.33,1.206,1.206,0,0,0,.46.94A2.641,2.641,0,0,0-117.1.1c.49,0,.73-.26.73-.8V-3.2a6.747,6.747,0,0,1,2.12-.39c1.31,0,2.14.61,2.14,1.59a1.327,1.327,0,0,1-1.34,1.41c-.73,0-1.03-.43-1.03-1.47a2.97,2.97,0,0,1,.02-.39,2.167,2.167,0,0,1-.66.26A3.649,3.649,0,0,0-115-1.06,1.475,1.475,0,0,0-113.46.07,2.024,2.024,0,0,0-111.42-2a2.012,2.012,0,0,0-1.03-1.77,3.386,3.386,0,0,0-1.77-.42,7.085,7.085,0,0,0-2.15.36V-5.56a17.551,17.551,0,0,0,1.77-.3c.14-.03.18-.04.3-.06Zm-2.68,5.52c0,.43-.03.49-.23.49a1.868,1.868,0,0,1-.89-.29c-.29-.19-.43-.39-.43-.6,0-.48.56-1.02,1.55-1.5ZM-111-5.3a8.4,8.4,0,0,0-2.02-1.9l-.52.39a8.19,8.19,0,0,1,2.02,1.96Zm7.62-.68a7.454,7.454,0,0,0,.56-.72c.13-.18.39-.53.47-.62l-.31-.36a4.612,4.612,0,0,1-.85.05h-1.78c.33-.48.33-.48.45-.66l-.72-.18a5.653,5.653,0,0,1-1.05,1.63,8.179,8.179,0,0,1-1.96,1.58,1.949,1.949,0,0,1,.44.46,8.906,8.906,0,0,0,1.36-1.07v.46a6.476,6.476,0,0,1,.8-.04h4.4v.86h-4.79a6.345,6.345,0,0,1-.84-.04v.61a5.832,5.832,0,0,1,.84-.05h4.79v.92h-4.95a6.346,6.346,0,0,1-.84-.04v.62a6.007,6.007,0,0,1,.84-.05h4.93c.21,0,.4.01.66.03a5.028,5.028,0,0,1-.03-.59V-5.43a5.092,5.092,0,0,1,.03-.58c-.22.02-.43.03-.69.03Zm-2.59,0a6.047,6.047,0,0,1-.65-.03,7.6,7.6,0,0,0,.97-1.1h2.43a6.57,6.57,0,0,1-.88,1.13ZM-108.09.38a5.916,5.916,0,0,0,1.18-2.26l-.57-.21a4.849,4.849,0,0,1-.48,1.2,4.117,4.117,0,0,1-.67.9Zm2.6-1.77a4.045,4.045,0,0,1,.06-.87h-.74a5.658,5.658,0,0,1,.06.87V-.36c0,.47.09.65.37.76a5.048,5.048,0,0,0,1.5.13c2.22,0,2.35-.08,2.57-1.54a1.865,1.865,0,0,1-.63-.24,1.956,1.956,0,0,1-.21.99c-.13.18-.42.22-1.71.22a5.3,5.3,0,0,1-1.03-.06c-.19-.05-.24-.13-.24-.38Zm2.49.18a7.693,7.693,0,0,0-1.4-1.18l-.45.36a6.7,6.7,0,0,1,1.42,1.25Zm1.27-.64A8.21,8.21,0,0,1-100.25.23l.55-.42a13.049,13.049,0,0,0-1.52-2Zm4.98-3.94a4.245,4.245,0,0,1,.62-.02,22.68,22.68,0,0,0,2.7-.18c.24.51.32.67.57,1.14a19.921,19.921,0,0,1-3.15.25,5.345,5.345,0,0,1-.8-.04l.02.67c.18-.02.21-.02.7-.04a22.043,22.043,0,0,0,3.51-.29,9.876,9.876,0,0,0,1.07,1.54,5.762,5.762,0,0,0-2.02-.3,4.556,4.556,0,0,0-2.26.47,1.464,1.464,0,0,0-.8,1.25,1.426,1.426,0,0,0,.76,1.26,4.01,4.01,0,0,0,2.06.42,8.71,8.71,0,0,0,2.56-.37c.21-.07.34-.11.37-.12.09-.02.12-.03.23-.05l-.14-.79a6.6,6.6,0,0,1-2.96.68c-1.38,0-2.14-.37-2.14-1.03,0-.69.93-1.14,2.37-1.14a8.555,8.555,0,0,1,1.32.1,2.711,2.711,0,0,1,1.1.38l.59-.42a11.865,11.865,0,0,1-1.47-1.99c.31-.06.8-.17,1.57-.36a4.226,4.226,0,0,1,.54-.13l-.08-.68a10.519,10.519,0,0,1-2.29.63c-.11-.2-.45-.88-.57-1.14.36-.05.98-.17,1.91-.38l-.09-.62a11.926,11.926,0,0,1-2.03.46,8.488,8.488,0,0,1-.53-1.41l-.75.12a11.137,11.137,0,0,1,.6,1.37,17.956,17.956,0,0,1-2.37.15c-.34,0-.51-.01-.75-.03Zm5.83-2.09A7.033,7.033,0,0,1-89.9-6.29l.51-.3a7.591,7.591,0,0,0-1.03-1.55Zm1.14-.53a7.378,7.378,0,0,1,1.02,1.57l.5-.29a8.424,8.424,0,0,0-1.03-1.56Zm7.52,1.78a2.878,2.878,0,0,1,1.16.25,2.636,2.636,0,0,1,1.59,2.51,3.019,3.019,0,0,1-1.77,2.8,5.994,5.994,0,0,1-1.67.47,1.589,1.589,0,0,1,.35.67,7.736,7.736,0,0,0,1.52-.46,3.641,3.641,0,0,0,2.29-3.45,3.347,3.347,0,0,0-.97-2.44,3.871,3.871,0,0,0-2.75-.99,4.177,4.177,0,0,0-3.23,1.33,4.16,4.16,0,0,0-1.05,2.76c0,1.4.71,2.44,1.66,2.44.72,0,1.31-.6,1.89-1.92A14.99,14.99,0,0,0-82.26-6.63Zm-.72.01a13.735,13.735,0,0,1-.91,3.7c-.43.98-.83,1.45-1.25,1.45-.54,0-.96-.74-.96-1.7a3.458,3.458,0,0,1,1.63-2.98A3.158,3.158,0,0,1-82.98-6.62Zm10.76-.02h-2.85a6.73,6.73,0,0,1-1.11-.07v.75a7.755,7.755,0,0,1,1.12-.06h2.1A7.46,7.46,0,0,1-74.25-1.5,5.182,5.182,0,0,1-76.28.12a1.935,1.935,0,0,1,.49.56A5.983,5.983,0,0,0-74.7-.05a6.379,6.379,0,0,0,1.24-1.38,6.719,6.719,0,0,0,.95-2.56h3.14a19.176,19.176,0,0,1-.31,3.03c-.15.74-.25.86-.68.86a8.094,8.094,0,0,1-1.51-.16,2.178,2.178,0,0,1,.16.71c.54.06,1.07.09,1.39.09.8,0,1.04-.21,1.25-1.07a20.925,20.925,0,0,0,.38-3.41c.02-.39.03-.5.05-.7a6.363,6.363,0,0,1-1.03.05H-72.4a13.862,13.862,0,0,0,.14-1.43h3.79a6.245,6.245,0,0,1,1.13.06v-.75a7.025,7.025,0,0,1-1.15.07h-3.06v-.75a4.87,4.87,0,0,1,.06-.88h-.8a5.5,5.5,0,0,1,.07.88Zm10.09,1.48h.04a.459.459,0,0,1,.1.01,1.489,1.489,0,0,1,.17.01,2.622,2.622,0,0,1,.32.02c.35.02.72.03,1.13.03.38,0,.69-.01,1.14-.03.03,1.46.07,2.4.1,2.61a2.825,2.825,0,0,0-1.11-.2c-1.11,0-1.9.59-1.9,1.42,0,.87.73,1.42,1.89,1.42a1.708,1.708,0,0,0,1.67-.84,1.724,1.724,0,0,0,.12-.68,1.435,1.435,0,0,0-.02-.26.7.7,0,0,1,.09.06.642.642,0,0,0,.1.06A5.4,5.4,0,0,1-56.87-.49l.31-.7c-.11-.07-.13-.09-.25-.17a7.238,7.238,0,0,0-1.67-.98c-.08-1.33-.1-1.84-.11-2.83a9.56,9.56,0,0,0,1.06-.16c.68-.14.68-.14.7-.14l-.03-.68a6.816,6.816,0,0,1-1.73.37c-.01-.22-.01-.38-.01-.49a10.231,10.231,0,0,1,.07-1.57h-.75a2.218,2.218,0,0,1,.03.41c0,.76,0,.76.01,1.7-.41.02-.68.03-1.07.03a6.922,6.922,0,0,1-1.8-.16Zm3.01,3.26s.01.23.01.3a1.168,1.168,0,0,1-.19.78,1.378,1.378,0,0,1-1.02.35c-.7,0-1.16-.32-1.16-.81s.51-.83,1.29-.83A2.583,2.583,0,0,1-59.12-1.9ZM-63.9-7.85a4.607,4.607,0,0,1-.11.63,16.944,16.944,0,0,0-.52,4.11,15.919,15.919,0,0,0,.28,2.97c.04.23.05.28.06.37l.71-.07a1.089,1.089,0,0,1-.02-.2,8.635,8.635,0,0,1,.86-2.84l-.49-.23a1.378,1.378,0,0,1-.08.2,8.877,8.877,0,0,0-.59,1.76l-.04-.01v-.19c-.01-.18-.01-.2-.01-.28-.02-.46-.04-1.05-.04-1.4a14.249,14.249,0,0,1,.77-4.69Zm14.97,1.26a10.106,10.106,0,0,1-2.04.43v-.96a5.719,5.719,0,0,1,.05-.93h-.74a6.643,6.643,0,0,1,.05.95v.99c-.3.02-.69.03-.96.03a5.664,5.664,0,0,1-1.02-.07v.66h.41c.11.01.38.01.53.01.29,0,.46,0,.64-.01.31-.02.31-.02.4-.03v1.89a5.35,5.35,0,0,0-1.41.82,1.81,1.81,0,0,0-.79,1.33,1.206,1.206,0,0,0,.46.94A2.641,2.641,0,0,0-51.7.1c.49,0,.73-.26.73-.8V-3.2a6.747,6.747,0,0,1,2.12-.39c1.31,0,2.14.61,2.14,1.59A1.327,1.327,0,0,1-48.05-.59c-.73,0-1.03-.43-1.03-1.47a2.97,2.97,0,0,1,.02-.39,2.167,2.167,0,0,1-.66.26,3.649,3.649,0,0,0,.12,1.13A1.475,1.475,0,0,0-48.06.07,2.024,2.024,0,0,0-46.02-2a2.012,2.012,0,0,0-1.03-1.77,3.386,3.386,0,0,0-1.77-.42,7.085,7.085,0,0,0-2.15.36V-5.56a17.551,17.551,0,0,0,1.77-.3c.14-.03.18-.04.3-.06Zm-2.68,5.52c0,.43-.03.49-.23.49a1.868,1.868,0,0,1-.89-.29c-.29-.19-.43-.39-.43-.6,0-.48.56-1.02,1.55-1.5ZM-45.6-5.3a8.4,8.4,0,0,0-2.02-1.9l-.52.39a8.19,8.19,0,0,1,2.02,1.96Zm6.37-2.2v.61H-42a7.254,7.254,0,0,1-1.09-.05,5.917,5.917,0,0,1,.04.76v.59a4.3,4.3,0,0,1-.06.75h.65V-6.4h3.23v1.2a5.866,5.866,0,0,1-.06.98h.72a6.034,6.034,0,0,1-.05-.98V-6.4h3.42v1.56h.65a3.508,3.508,0,0,1-.06-.75v-.59a5.624,5.624,0,0,1,.04-.76,7.493,7.493,0,0,1-1.1.05h-2.95V-7.5h2.44a8.616,8.616,0,0,1,.96.04v-.62a6.807,6.807,0,0,1-.99.06h-5.2a7.891,7.891,0,0,1-1.02-.06v.62a9.7,9.7,0,0,1,.99-.04Zm-.02,6.58v.83c0,.58.26.66,2.12.66C-35.57.57-35,.51-34.72.3c.25-.18.36-.57.38-1.36a2.454,2.454,0,0,1-.62-.28c-.01.78-.05,1.08-.18,1.18-.17.14-.7.19-1.89.19-1.4,0-1.61-.03-1.61-.27V-.92h2.31a7.705,7.705,0,0,1,.9.04,6.828,6.828,0,0,1-.03-.72V-3.06a7.2,7.2,0,0,1,.04-.89,7.253,7.253,0,0,1-.91.04h-5.04a6.683,6.683,0,0,1-.86-.04,7.742,7.742,0,0,1,.04.89v1.85a5.389,5.389,0,0,1-.06.85h.67V-.92Zm0-2.5v.71h-2.33v-.71Zm0,1.19v.81h-2.33v-.81Zm.61.81v-.81h2.57v.81Zm0-1.29v-.71h2.57v.71Zm-3.27-2.74a3.516,3.516,0,0,1,.61-.04h.93a3.225,3.225,0,0,1,.58.04v-.48a4.511,4.511,0,0,1-.58.03h-.93a4.817,4.817,0,0,1-.61-.03Zm0,.97a3.373,3.373,0,0,1,.61-.04h.93a3.154,3.154,0,0,1,.58.04v-.49a3.154,3.154,0,0,1-.58.04h-.93a3.235,3.235,0,0,1-.61-.04Zm3.9-.97a3.373,3.373,0,0,1,.61-.04h1.09a3.155,3.155,0,0,1,.58.04v-.49a3.086,3.086,0,0,1-.58.04H-37.4a3.235,3.235,0,0,1-.61-.04Zm0,.97a3.373,3.373,0,0,1,.61-.04h1.09a3.154,3.154,0,0,1,.58.04v-.49a3.154,3.154,0,0,1-.58.04H-37.4a3.235,3.235,0,0,1-.61-.04Zm11.6-.81h-1.05a6.525,6.525,0,0,1-1.12-.06v.68a6.819,6.819,0,0,1,1.11-.06h1.06v1.71h-1.12a4.955,4.955,0,0,1-.71-.04,6.952,6.952,0,0,1,.04.84V-.3a5.747,5.747,0,0,1-.05.97h.68V.17h3.1v.5h.68a8.18,8.18,0,0,1-.05-.98V-2.17a6.611,6.611,0,0,1,.04-.89,5.108,5.108,0,0,1-.75.04h-1.23V-4.73h1.32a7.546,7.546,0,0,1,1.07.06v-.68a7.26,7.26,0,0,1-1.07.06h-1.32V-7.14c.42-.1,1.47-.39,1.83-.52.01,0,.12-.03.32-.09l-.43-.57a5.313,5.313,0,0,1-1.12.43,15.531,15.531,0,0,1-3.46.58,2.322,2.322,0,0,1,.27.58c.93-.1,1.21-.14,1.96-.28Zm-1.16,2.82h3.1V-.39h-3.1Zm-4.3-4.85a5.687,5.687,0,0,1,.77-.04h1.39a5.593,5.593,0,0,1,.77.04v-.63a4.182,4.182,0,0,1-.77.05H-31.1a4.117,4.117,0,0,1-.77-.05Zm-.34,1.38a5.977,5.977,0,0,1,.8-.04h1.94a4.429,4.429,0,0,1,.72.04v-.64a4.082,4.082,0,0,1-.8.05h-1.86a4.339,4.339,0,0,1-.8-.05Zm.39,1.36a4.925,4.925,0,0,1,.72-.04h1.48a5.138,5.138,0,0,1,.71.04V-5.2a4.448,4.448,0,0,1-.71.04H-31.1a4.754,4.754,0,0,1-.72-.04Zm0,1.38a4.67,4.67,0,0,1,.72-.04h1.48a4.866,4.866,0,0,1,.71.04v-.62a4.291,4.291,0,0,1-.71.04H-31.1a4.508,4.508,0,0,1-.72-.04Zm.69,3.38h1.59V.59h.62a5.474,5.474,0,0,1-.05-.82V-1.65a7.73,7.73,0,0,1,.03-.78,4.143,4.143,0,0,1-.73.03h-1.29a6.862,6.862,0,0,1-.81-.04,5.06,5.06,0,0,1,.05.83V-.24a6.275,6.275,0,0,1-.06.96h.65Zm-.01-2.06h1.6V-.34h-1.6ZM-19.86-7.8A5.568,5.568,0,0,1-20-7a16.543,16.543,0,0,0-.45,3.96,14.333,14.333,0,0,0,.26,2.83c.03.19.04.24.06.4l.72-.06V-.02a8.717,8.717,0,0,1,.81-2.75L-19.08-3a9.291,9.291,0,0,0-.65,1.95c-.04-.53-.06-1.12-.06-1.9a14.783,14.783,0,0,1,.3-3.13,14.21,14.21,0,0,1,.42-1.6Zm2.06,1.89a13.32,13.32,0,0,0,1.6.1,16.882,16.882,0,0,0,2.15-.13q.66-.09.69-.09l-.05-.71a10.73,10.73,0,0,1-2.68.27,6.792,6.792,0,0,1-1.7-.15Zm.73,1.95a2.762,2.762,0,0,0-.87,1.86,1.413,1.413,0,0,0,.3.92,2.779,2.779,0,0,0,2.29.76,10.317,10.317,0,0,0,2.05-.2c.2-.03.22-.04.35-.05l-.1-.77a6.581,6.581,0,0,1-2.3.35c-1.29,0-1.92-.36-1.92-1.1a2.323,2.323,0,0,1,.75-1.47Zm7.3-1.85a29.372,29.372,0,0,1,3.45-.33,19.379,19.379,0,0,0,2.2-.22,6.546,6.546,0,0,0-.95.53A3.791,3.791,0,0,0-6.94-2.76,2.434,2.434,0,0,0-5.83-.72,5.044,5.044,0,0,0-3.67.05c.16.03.2.04.31.06l.13-.81h-.1a5.125,5.125,0,0,1-1.5-.32,1.961,1.961,0,0,1-1.4-1.85A3.056,3.056,0,0,1-5-5.18,5.078,5.078,0,0,1-3.08-6.19a4.638,4.638,0,0,1,1.12-.13l-.06-.75a6.713,6.713,0,0,1-1.19.11c-1.29.06-4.49.24-5.68.33-.31.02-.43.03-.57.03h-.36ZM6.07-6.59a10.106,10.106,0,0,1-2.04.43v-.96a5.719,5.719,0,0,1,.05-.93H3.34a6.643,6.643,0,0,1,.05.95v.99c-.3.02-.69.03-.96.03a5.664,5.664,0,0,1-1.02-.07v.66h.41c.11.01.38.01.53.01.29,0,.46,0,.64-.01.31-.02.31-.02.4-.03v1.89a5.349,5.349,0,0,0-1.41.82,1.81,1.81,0,0,0-.79,1.33,1.206,1.206,0,0,0,.46.94A2.641,2.641,0,0,0,3.3.1c.49,0,.73-.26.73-.8V-3.2a6.747,6.747,0,0,1,2.12-.39c1.31,0,2.14.61,2.14,1.59A1.327,1.327,0,0,1,6.95-.59c-.73,0-1.03-.43-1.03-1.47a2.97,2.97,0,0,1,.02-.39,2.167,2.167,0,0,1-.66.26A3.649,3.649,0,0,0,5.4-1.06,1.475,1.475,0,0,0,6.94.07,2.024,2.024,0,0,0,8.98-2,2.012,2.012,0,0,0,7.95-3.77a3.386,3.386,0,0,0-1.77-.42,7.085,7.085,0,0,0-2.15.36V-5.56a17.551,17.551,0,0,0,1.77-.3c.14-.03.18-.04.3-.06ZM3.39-1.07c0,.43-.03.49-.23.49a1.868,1.868,0,0,1-.89-.29c-.29-.19-.43-.39-.43-.6,0-.48.56-1.02,1.55-1.5ZM9.4-5.3A8.4,8.4,0,0,0,7.38-7.2l-.52.39A8.19,8.19,0,0,1,8.88-4.85Zm3.43.46h1.82c.41,0,.79.01,1.01.03-.02-.24-.03-.52-.03-.92V-7.07c0-.39.01-.65.03-.95a8.774,8.774,0,0,1-1.02.04H13.21a9.169,9.169,0,0,1-1.04-.04c.03.32.04.61.04,1.1V-.43A7.567,7.567,0,0,1,12.15.69h.74a7.029,7.029,0,0,1-.06-1.12Zm0-2.65h2.23v.82H12.83Zm0,1.31h2.23v.84H12.83Zm7.4-.74a9.357,9.357,0,0,1,.05-1.1,9.37,9.37,0,0,1-1.05.04H17.61a8.774,8.774,0,0,1-1.02-.04c.02.3.03.6.03.95v1.34c0,.37-.01.63-.03.92.22-.02.6-.03,1.02-.03h2V-.32c0,.23-.07.29-.36.29a11.35,11.35,0,0,1-1.27-.1,1.9,1.9,0,0,1,.18.64c.44.03.8.04,1.19.04.69,0,.88-.18.88-.83ZM17.2-7.49h2.41v.82H17.2Zm0,1.31h2.41v.84H17.2Zm.77,2.87A5.658,5.658,0,0,1,18-3.92a7.176,7.176,0,0,1-.73.03H15.03a6.872,6.872,0,0,1-.69-.03,6.192,6.192,0,0,1,.03.63v2a6.186,6.186,0,0,1-.05.93h.65v-.79h2.4a5.784,5.784,0,0,1,.63.03,5.092,5.092,0,0,1-.03-.6Zm-3-.05h2.41v1.68H14.97Zm8.59-3.73a5.411,5.411,0,0,1,.03.59,15.024,15.024,0,0,0,.54,4.69c.34.96.86,1.52,1.42,1.52.71,0,1.17-.67,1.66-2.42a3.2,3.2,0,0,1-.59-.57,7.2,7.2,0,0,1-.52,1.71c-.15.33-.32.5-.5.5-.38,0-.79-.69-1.01-1.71a17.125,17.125,0,0,1-.26-3.11,7.249,7.249,0,0,1,.07-1.19Zm5.06.85A8.832,8.832,0,0,1,30.7-1.31l.71-.29a9.575,9.575,0,0,0-.75-2.67,8.68,8.68,0,0,0-1.43-2.28Zm9.17-2.05a7.275,7.275,0,0,1-1.54,1.74,10.43,10.43,0,0,1-2.72,1.74,1.738,1.738,0,0,1,.42.57,11.562,11.562,0,0,0,2.12-1.3,9.317,9.317,0,0,0,2.1-2.19,8.4,8.4,0,0,0,1.54,1.68,13.978,13.978,0,0,0,2.82,1.84,2.588,2.588,0,0,1,.4-.63,10.486,10.486,0,0,1-2.74-1.64,6.87,6.87,0,0,1-1.65-1.81ZM35.84-4.57a5.751,5.751,0,0,1,.78-.04h3.11a6.155,6.155,0,0,1,.84.04v-.68a5.971,5.971,0,0,1-.84.04h-3.1a5.111,5.111,0,0,1-.79-.04ZM35.77.65V.07H40.6V.65h.72a6.951,6.951,0,0,1-.06-.98V-2.54a6.044,6.044,0,0,1,.05-.92,5.3,5.3,0,0,1-.78.04H35.84a5.3,5.3,0,0,1-.78-.04,6.289,6.289,0,0,1,.05.92V-.33a7.258,7.258,0,0,1-.06.98Zm0-3.46H40.6V-.52H35.77Zm9.59,1.3a8.525,8.525,0,0,1,.9-.95,2.814,2.814,0,0,0,.52-.55h.02c-.02.24-.02.32-.03,1.54A10.676,10.676,0,0,1,46.72.42h.79c-.05-.46-.06-.96-.06-3.97,1.31-1.18,2.21-1.65,3.19-1.65a1.835,1.835,0,0,1,1.91,1.96,2.528,2.528,0,0,1-.28,1.2,2.226,2.226,0,0,1-2,1.13A4.38,4.38,0,0,1,48.5-1.3a2.458,2.458,0,0,1,.08.58,1.305,1.305,0,0,1-.01.17,5.044,5.044,0,0,0,1.7.3,2.842,2.842,0,0,0,3.02-3.01,2.529,2.529,0,0,0-2.69-2.6,3.893,3.893,0,0,0-2.53.99,5.477,5.477,0,0,0-.58.51l-.03.03h-.02c0-.02.02-.36.05-1.01a2.957,2.957,0,0,1,.53-.65l-.26-.33a.584.584,0,0,1-.23.06c.01-.23.01-.23.02-.57a6.268,6.268,0,0,1,.1-1.16h-.79a1.8,1.8,0,0,1,.03.39c0,.39-.01.77-.04,1.39-.82.06-1.24.08-1.39.08-.08,0-.14,0-.28-.01l.05.69a8.735,8.735,0,0,1,1.1-.12c.37-.02.37-.02.51-.03-.03.85-.03.94-.05,1.77-.13.11-.13.11-.29.26-.34.31-.34.31-.68.63a7.4,7.4,0,0,1-.86.74Zm12.4-6.1a10.635,10.635,0,0,1,.05,1.49v.65c-1.05.09-1.67.13-1.85.13a2.132,2.132,0,0,1-.22-.01l.06.7a20.154,20.154,0,0,1,2.01-.21v1.25a10.552,10.552,0,0,0,.13,2.37C58.2-.34,58.96,0,60.74,0a16.992,16.992,0,0,0,2.53-.21c.24-.03.26-.04.4-.05l-.08-.77a9.066,9.066,0,0,1-2.78.37,5.556,5.556,0,0,1-1.56-.17.859.859,0,0,1-.67-.65A15.333,15.333,0,0,1,58.48-4v-.9c1.33-.09,2.05-.13,3.26-.17a9.093,9.093,0,0,1-.12,1.54c-.09.49-.21.65-.49.65a2.84,2.84,0,0,1-1.31-.55c.01.2.02.3.02.41s-.01.15-.02.3a2.868,2.868,0,0,0,1.39.46,1,1,0,0,0,1.01-.88,9.509,9.509,0,0,0,.18-1.95c.32,0,.54-.01.7-.01.33-.01.59-.01.68-.01.42,0,.48,0,.75.02l-.02-.71c-.33.04-1.11.07-2.09.09v-.27l.01-.65v-.42a5.411,5.411,0,0,1,.04-.77H61.7a9.583,9.583,0,0,1,.06,1.52c0,.12,0,.23-.01.34v.28c-1.25.05-1.65.07-3.27.16a11.573,11.573,0,0,1,.09-2.09Zm14.63-.45a15.9,15.9,0,0,1-2.93,2.74,7.726,7.726,0,0,0-.85.68.968.968,0,0,0-.29.67c0,.34.16.56.72,1C70.5-1.83,70.9-1.5,71.57-.88A9.441,9.441,0,0,1,72.86.49l.63-.62a2.546,2.546,0,0,1-.28-.25,29.484,29.484,0,0,0-3.2-2.73c-.81-.63-.89-.7-.89-.88,0-.14.07-.22.44-.5a29.13,29.13,0,0,0,2.3-1.89c1.04-1,1.12-1.07,1.23-1.16Zm5.83,2.48a1.489,1.489,0,0,1,.17-.01h.04c.39.02.48.02.83.02.37,0,.49,0,.69-.01A20.352,20.352,0,0,1,78.07-.05l.73.31a26.738,26.738,0,0,0,1.85-5.88,13.342,13.342,0,0,0,1.69-.24l.18-.04.1-.01-.05-.69a8.131,8.131,0,0,1-1.8.34c.05-.27.07-.41.13-.76s.09-.54.1-.6c.03-.14.04-.19.08-.35l-.79-.08v.07a12.332,12.332,0,0,1-.22,1.77c-.29.02-.4.02-.6.02a6.9,6.9,0,0,1-1.25-.09Zm7.55.49c-.75-.03-.9-.03-1.09-.03a11.33,11.33,0,0,0-2.65.33l.07.68a8.7,8.7,0,0,1,2.5-.34,10.04,10.04,0,0,1,1.18.07ZM82.13-2.93c-.53.68-.67.99-.67,1.44,0,.99.85,1.5,2.49,1.5a10.948,10.948,0,0,0,1.78-.16l.31-.06.13-.02L86.1-.98a7.43,7.43,0,0,1-2.21.34c-1.14,0-1.75-.32-1.75-.92a1.2,1.2,0,0,1,.25-.71,3.351,3.351,0,0,1,.3-.38Zm1.65-4.69a7.321,7.321,0,0,1,1.03,1.58l.5-.3a7.592,7.592,0,0,0-1.03-1.55Zm1.14-.54a7.491,7.491,0,0,1,1.02,1.57l.5-.29a8.031,8.031,0,0,0-1.03-1.55Zm4.79,2.87a2.209,2.209,0,0,1,.39-.03,29.444,29.444,0,0,0,3.56-.26c.06.1.06.12.17.33a12.194,12.194,0,0,0,1.2,1.96,4.993,4.993,0,0,0-2.07-.36,4.251,4.251,0,0,0-1.94.37,1.869,1.869,0,0,0-1.13,1.63,1.613,1.613,0,0,0,.45,1.1,3.666,3.666,0,0,0,2.6.75,8.29,8.29,0,0,0,2.94-.54l-.11-.77a6.593,6.593,0,0,1-2.84.64,3.387,3.387,0,0,1-1.95-.46,1,1,0,0,1-.38-.78,1.136,1.136,0,0,1,.54-.93,3.545,3.545,0,0,1,1.9-.42,5.419,5.419,0,0,1,1.75.26,2,2,0,0,1,.69.41l.67-.38a18.519,18.519,0,0,1-1.8-2.91l.34-.07c.63-.12.75-.15,1.35-.31.3-.08.38-.1.59-.14l-.1-.71a11.7,11.7,0,0,1-2.42.63,8.225,8.225,0,0,1-.36-.88,3.187,3.187,0,0,1-.29-.9l-.79.11c.09.18.15.32.26.58.18.45.34.85.49,1.19a23.341,23.341,0,0,1-2.98.21,4.384,4.384,0,0,1-.77-.05Zm10.85-1.8a5.412,5.412,0,0,1,.03.59,15.024,15.024,0,0,0,.54,4.69c.34.96.86,1.52,1.42,1.52.71,0,1.17-.67,1.66-2.42a3.2,3.2,0,0,1-.59-.57,7.2,7.2,0,0,1-.52,1.71c-.15.33-.32.5-.5.5-.38,0-.79-.69-1.01-1.71a17.125,17.125,0,0,1-.26-3.11,7.249,7.249,0,0,1,.07-1.19Zm5.06.85a8.832,8.832,0,0,1,2.08,4.93l.71-.29a9.575,9.575,0,0,0-.75-2.67,8.68,8.68,0,0,0-1.43-2.28Zm6.63,3.89a1.5,1.5,0,0,0-1.5,1.5,1.5,1.5,0,0,0,1.5,1.5,1.5,1.5,0,0,0,1.5-1.5A1.5,1.5,0,0,0,112.25-2.35Zm0,.57a.935.935,0,0,1,.93.93.935.935,0,0,1-.93.93.935.935,0,0,1-.93-.93A.935.935,0,0,1,112.25-1.78Z" transform="translate(196.75 13980.587)" fill="#505050"/>
    <path id="パス_10024" data-name="パス 10024" d="M-93.936-4.188v-.144a3.175,3.175,0,0,1,.06-.768H-94.7a3.237,3.237,0,0,1,.06.768v.144h-1.908a7.074,7.074,0,0,1-1.164-.06v.768a7.441,7.441,0,0,1,1.164-.06h1.68A8.485,8.485,0,0,1-98.34-.564a2.2,2.2,0,0,1,.552.648,8.661,8.661,0,0,0,3.2-3.06,10.694,10.694,0,0,0-.06,1.164V-.288A9.336,9.336,0,0,1-94.716.936h.852a9.08,9.08,0,0,1-.072-1.224V-1.836A9.517,9.517,0,0,0-94-2.988,9.694,9.694,0,0,0-90.588.144,2.705,2.705,0,0,1-90.1-.588,8.378,8.378,0,0,1-93.72-3.54h2.148a8.163,8.163,0,0,1,1.14.072V-4.26a7.806,7.806,0,0,1-1.14.072Zm-5.628-2.7V-4.3a7.822,7.822,0,0,1-1.62.5l.216.828a5.389,5.389,0,0,1,.588-.264c.264-.108.408-.156.816-.324V-.24c0,.264-.1.336-.444.336a6.673,6.673,0,0,1-1.008-.084,2.179,2.179,0,0,1,.168.756c.276.012.564.024.744.024,1.032,0,1.284-.168,1.284-.876V-3.876c.528-.24.66-.3,1.1-.516v-.756a11.611,11.611,0,0,1-1.1.54v-2.28h.312a5.36,5.36,0,0,1,.8.048v-.78a3.507,3.507,0,0,1-.816.06h-.3V-8.724a6.952,6.952,0,0,1,.084-1.2h-.912a7.291,7.291,0,0,1,.084,1.212V-7.56h-.684a5.261,5.261,0,0,1-.9-.072v.816a5.652,5.652,0,0,1,.888-.072Zm8.184-3a7.113,7.113,0,0,1-2,.7,19.863,19.863,0,0,1-4.236.48,2.832,2.832,0,0,1,.3.7,21.854,21.854,0,0,0,5.952-1.032c.384-.132.384-.132.54-.18ZM-95.6-5.34a9.183,9.183,0,0,0-1.032-2.208l-.624.252a8.768,8.768,0,0,1,1,2.244Zm2.112-.348A7.586,7.586,0,0,0-94.38-7.86l-.66.2a6.828,6.828,0,0,1,.852,2.172Zm1.152.768a12.18,12.18,0,0,0,1.656-2.988l-.72-.36a8.657,8.657,0,0,1-1.56,3.048ZM-82.356-3.1h3.516V-.384c0,.3-.108.36-.636.36a15.345,15.345,0,0,1-1.716-.132,2.8,2.8,0,0,1,.18.78c.5.036,1.1.06,1.488.06,1.164,0,1.44-.18,1.44-.936V-8.3a10.128,10.128,0,0,1,.048-1.176,11.626,11.626,0,0,1-1.272.048h-6.456a12.781,12.781,0,0,1-1.32-.048,18.239,18.239,0,0,1,.048,1.956,28.089,28.089,0,0,1-.372,5.82A4.823,4.823,0,0,1-88.38.324a2.911,2.911,0,0,1,.7.516,7.236,7.236,0,0,0,1.3-3.936H-83.1V-.828A8.8,8.8,0,0,1-83.16.48h.864a8.607,8.607,0,0,1-.06-1.308Zm0-3.516v-2.1h3.516v2.1Zm-.744,0h-3.168l.012-.672V-8.712H-83.1Zm.744.684h3.516v2.136h-3.516Zm-.744,0v2.136h-3.24c.036-.552.036-.6.048-1.344,0-.168,0-.456.012-.792Zm9.708-.948V-4.2a8.453,8.453,0,0,1-1.764.54l.216.816a4.461,4.461,0,0,1,.636-.264c.228-.072.468-.168.912-.348v3.2c0,.264-.084.336-.432.336A8.26,8.26,0,0,1-74.976,0a2.15,2.15,0,0,1,.168.756A10.6,10.6,0,0,0-73.74.8c.78,0,1.1-.252,1.1-.852V-3.756c.42-.168.672-.288,1.392-.612l-.012-.72c-.588.276-.72.336-1.38.6V-6.876h.48a7.171,7.171,0,0,1,.924.06v-.792a5.311,5.311,0,0,1-.9.06h-.5V-8.712a8.232,8.232,0,0,1,.072-1.2h-.9A8.769,8.769,0,0,1-73.392-8.7v1.152H-74.1a5.844,5.844,0,0,1-.972-.072V-6.8a7.451,7.451,0,0,1,.984-.072Zm6.84,5.028a10.1,10.1,0,0,1,1.188.048c-.036-.42-.048-.8-.048-1.344V-7.932c0-.576.012-.936.048-1.368a9.613,9.613,0,0,1-1.176.048h-3.072a9.324,9.324,0,0,1-1.14-.048c.024.372.036.684.036,1.248V-3c0,.528-.012.888-.036,1.2.372-.036.732-.048,1.128-.048Zm-3.4-6.7h3.768v2.616h-3.768Zm0,3.312h3.768v2.7h-3.768ZM-71.88.384a13.06,13.06,0,0,1,1.32-.06h4.92a10.955,10.955,0,0,1,1.3.072V-.468a9.732,9.732,0,0,1-1.3.072h-4.92a12.2,12.2,0,0,1-1.32-.06Zm14.616-5.76h-3.168a7.213,7.213,0,0,1-1.128-.06v.852a7.18,7.18,0,0,1,1.092-.06h7.2v1.656h-6.8a6.352,6.352,0,0,1-1.1-.06V-2.2a6.484,6.484,0,0,1,1.068-.06h6.84V-.42h-7.3a6.789,6.789,0,0,1-1.1-.06V.384A7.689,7.689,0,0,1-60.552.312h7.284V.948h.84A9.409,9.409,0,0,1-52.5-.264V-4.5a7.7,7.7,0,0,1,.048-.948,4.825,4.825,0,0,1-.948.072h-3.084V-8.928a5.875,5.875,0,0,1,.072-1.08h-.924a5.964,5.964,0,0,1,.072,1.08Zm-4.08-3.516A11.884,11.884,0,0,1-59.508-5.94l.708-.408a13.012,13.012,0,0,0-1.872-2.916Zm8.2-.444a9.759,9.759,0,0,1-1.92,3.192l.66.408a12.116,12.116,0,0,0,2-3.24ZM-43.332-7.8H-44.52v1.188h1.188Zm0,6.48V-2.508H-44.52V-1.32Zm15.36.456v.72h.96a8.04,8.04,0,0,1-.06-1.092V-7.38c0-.432,0-.636.024-.936-.3.012-.468.024-.624.024h-5.76a6.564,6.564,0,0,1-1.38-.084v.96a10.06,10.06,0,0,1,1.38-.06h5.46v5.8h-5.712a5.867,5.867,0,0,1-1.308-.084v.948a9.654,9.654,0,0,1,1.284-.048ZM-18.96-9.54a22.77,22.77,0,0,1-.948,3.456A45.766,45.766,0,0,1-21.72-1.332c-.276.024-.936.06-1.02.06-.06,0-.06,0-.336-.012l.12,1a8.345,8.345,0,0,1,1.02-.132,74.127,74.127,0,0,0,7.38-1A16.288,16.288,0,0,1-13.848.2l.84-.456A31.083,31.083,0,0,0-16-5.676l-.744.408A23.343,23.343,0,0,1-14.892-2.16c-1.416.276-4.236.648-5.832.756a65.015,65.015,0,0,0,2.5-7.02,4.744,4.744,0,0,1,.324-.864ZM-.324-.564a29.371,29.371,0,0,0-4-3.588A14.5,14.5,0,0,0-2.352-7.5a4.039,4.039,0,0,1,.228-.456l-.528-.624a2.76,2.76,0,0,1-.648.06l-4.26.048h-.312a5.639,5.639,0,0,1-.948-.06l.024.96A7.963,7.963,0,0,1-7.56-7.656l4.008-.06c.144-.012.18-.012.288-.024-.06.132-.06.156-.1.24A12.994,12.994,0,0,1-6.1-3.432,12,12,0,0,1-10.08-.708a2.4,2.4,0,0,1,.588.792,14.406,14.406,0,0,0,4.644-3.6A24.262,24.262,0,0,1-1.008.192ZM-2.3-9.516A8.439,8.439,0,0,1-1.08-7.608l.612-.36A9.11,9.11,0,0,0-1.7-9.828Zm1.368-.648A9.5,9.5,0,0,1,.288-8.28l.6-.336A9.725,9.725,0,0,0-.348-10.488Zm6.84.456a5.31,5.31,0,0,1-.756,1.74,9.205,9.205,0,0,1-3.012,3.3,1.758,1.758,0,0,1,.672.612,11.618,11.618,0,0,0,2.868-3.12l4.044-.06A10.323,10.323,0,0,1,3.42-.192a1.9,1.9,0,0,1,.6.708,11.25,11.25,0,0,0,6.528-7.368,1.152,1.152,0,0,1,.2-.468l-.72-.756a1.322,1.322,0,0,1-.624.084l-2.9.048a1.713,1.713,0,0,0-.432.036,9.339,9.339,0,0,0,.552-1.056,2.081,2.081,0,0,1,.264-.492ZM10-9.516A8.376,8.376,0,0,1,11.22-7.668l.6-.36A8.309,8.309,0,0,0,10.6-9.84Zm1.356-.66A8.434,8.434,0,0,1,12.576-8.34l.6-.348a9.776,9.776,0,0,0-1.236-1.824Zm5.436,1.032a5.338,5.338,0,0,1,.048.852,16.371,16.371,0,0,1-.54,5.148,5.936,5.936,0,0,1-2.028,2.76,2.217,2.217,0,0,1,.72.648A7.335,7.335,0,0,0,17.064-2.7c.456-1.212.552-2.1.648-5.352a5.978,5.978,0,0,1,.072-1.032Zm2.988-.084a4.815,4.815,0,0,1,.048,1.068l-.072,7.02a2.022,2.022,0,0,1-.084.816l.48.552A2,2,0,0,1,20.424.1c.168-.06.168-.06.384-.144a7.91,7.91,0,0,0,1.716-.876,6.818,6.818,0,0,0,2.412-3.084,3.355,3.355,0,0,1-.672-.7,5.934,5.934,0,0,1-1.416,2.4A5.546,5.546,0,0,1,20.616-.912l.072-7.248a4.652,4.652,0,0,1,.072-1.056Zm7.788,5.112a13.109,13.109,0,0,1,1.488-.048h6.96a13.728,13.728,0,0,1,1.464.048v-.972a9.465,9.465,0,0,1-1.452.06H29.052A8.489,8.489,0,0,1,27.564-5.1ZM46.836-8.388h-5.9a8.507,8.507,0,0,1-1.356-.072v.96a8.86,8.86,0,0,1,1.344-.072h6.108a9.725,9.725,0,0,1-2.1,4.272A9.636,9.636,0,0,1,40.536-.576a2.374,2.374,0,0,1,.588.828,11.136,11.136,0,0,0,4.368-2.844A10.717,10.717,0,0,0,47.94-7.368l.024-.072a1.414,1.414,0,0,0,.42.06,1.367,1.367,0,0,0,1.368-1.368A1.362,1.362,0,0,0,48.4-10.1a1.367,1.367,0,0,0-1.368,1.368,1.272,1.272,0,0,0,.048.348ZM48.4-9.6a.855.855,0,0,1,.852.852.858.858,0,0,1-.852.864.86.86,0,0,1-.864-.864A.858.858,0,0,1,48.4-9.6ZM74.64.732A11.639,11.639,0,0,1,74.568-.66V-8.112a8.993,8.993,0,0,1,.06-1.2,12.221,12.221,0,0,1-1.368.06H66.444a12.31,12.31,0,0,1-1.38-.06c.036.384.06.756.06,1.2V-.66A11.925,11.925,0,0,1,65.052.732h.84V0H73.8V.732ZM65.892-8.556h3.444v3.444H65.892Zm4.2,0H73.8v3.444H70.092Zm-4.2,4.128h3.444V-.7H65.892Zm4.2,0H73.8V-.7H70.092Zm12.216-3.3H78.972a6.562,6.562,0,0,1-.9-.048,7.565,7.565,0,0,1,.06.948v3.276a7.6,7.6,0,0,1-.072,1.068h.864V-3.3h3.384V-.5A8.269,8.269,0,0,1,82.224.864h.96A6.775,6.775,0,0,1,83.1-.5V-3.3h3.576v.816h.864a7.6,7.6,0,0,1-.072-1.068V-6.828a5.728,5.728,0,0,1,.06-.948,6.417,6.417,0,0,1-.912.048H83.1V-8.784a7.157,7.157,0,0,1,.084-1.224h-.96a6.914,6.914,0,0,1,.084,1.248Zm0,.72V-4.02H78.924V-7.008ZM83.1-4.02V-7.008h3.576V-4.02Zm9,.24a8.236,8.236,0,0,1,1.488,1.14A8.869,8.869,0,0,1,90.3.24a2.458,2.458,0,0,1,.516.612,10.376,10.376,0,0,0,3.372-3.036A10.172,10.172,0,0,0,95.64-5.532,3.014,3.014,0,0,1,95.8-6l-.372-.4a5.556,5.556,0,0,1-.888.048H93.264c.144-.324.216-.516.324-.78a2.794,2.794,0,0,1,.144-.36l-.8-.192a4.6,4.6,0,0,1-.42,1.248,8.217,8.217,0,0,1-2.292,3.06,2.167,2.167,0,0,1,.5.6A11.1,11.1,0,0,0,92.964-5.7h1.98a9.641,9.641,0,0,1-.96,2.424A12.748,12.748,0,0,0,92.6-4.332Zm3.18-4.908h-3.4a8.159,8.159,0,0,1-1.2-.06,5.6,5.6,0,0,1,.048.828V-7.3a5.666,5.666,0,0,1-.048.84h.78v-1.56h8.688V-6.66c-.276.024-.5.036-.912.036H97.08a7.759,7.759,0,0,1-.828-.036c.024.276.036.576.036.936V-.4c0,.48.1.684.384.8a4.324,4.324,0,0,0,1.716.18c1.536,0,2.016-.084,2.268-.372a3.317,3.317,0,0,0,.42-1.812,2,2,0,0,1-.72-.336C100.3-.708,100.2-.336,99.9-.24a6.756,6.756,0,0,1-1.7.12C97.14-.12,97.02-.168,97.02-.6V-5.976h2.364c-.012,1.08-.036,1.74-.084,2.208-.084.852-.18,1.008-.6,1.008a5.776,5.776,0,0,1-.96-.1,2.419,2.419,0,0,1,.132.72c.336.036.648.06.852.06.84,0,1.092-.168,1.224-.84a16.6,16.6,0,0,0,.18-2.772c0-.42.012-.732.036-.96h.768a5.666,5.666,0,0,1-.048-.84V-7.92a5.394,5.394,0,0,1,.048-.828,8.259,8.259,0,0,1-1.2.06H96.048v-.42a3.8,3.8,0,0,1,.084-.852H95.2a3.947,3.947,0,0,1,.084.852Z" transform="translate(196.5 14072.493)" fill="#505050"/>
    <g id="グループ_3679" data-name="グループ 3679" transform="translate(-6.25 -57)">
      <path id="パス_10023" data-name="パス 10023" d="M-26.842,1.693h-.967A8.462,8.462,0,0,1-29.081-.8a9.347,9.347,0,0,1-.439-2.859,9.347,9.347,0,0,1,.439-2.859,8.543,8.543,0,0,1,1.271-2.5h.967A8.8,8.8,0,0,0-28.2-6.5a8.7,8.7,0,0,0-.469,2.827A8.706,8.706,0,0,0-28.2-.844,8.872,8.872,0,0,0-26.842,1.693ZM-23.1-6.7a11.252,11.252,0,0,1-1.476-.06c.024.324.048.588.048.9V-5.1a6.052,6.052,0,0,1-.06.852h.816v-1.74h8.688v1.68h.816a3.525,3.525,0,0,1-.06-.744v-.78a7.1,7.1,0,0,1,.048-.912,12.791,12.791,0,0,1-1.368.048h-1.02a20.327,20.327,0,0,0,.972-1.86l-.78-.276A10.068,10.068,0,0,1-17.487-6.7h-1.392a11.845,11.845,0,0,0-.636-1.836,33.835,33.835,0,0,0,4.1-.684,3.459,3.459,0,0,1,.48-.108l-.528-.708a12.443,12.443,0,0,1-3.144.7,38.518,38.518,0,0,1-5.616.348,2.1,2.1,0,0,1,.276.708c.624-.012.816-.012,1.068-.024A10.179,10.179,0,0,1-22.239-6.7Zm1.632,0a11.454,11.454,0,0,0-.672-1.644c.876-.036,1.284-.072,1.884-.12A11.016,11.016,0,0,1-19.623-6.7Zm5.064,1.98a5.739,5.739,0,0,1-1.056.06h-4.464a7.789,7.789,0,0,1-1.2-.072v.8A8.306,8.306,0,0,1-22.239-4,7.937,7.937,0,0,0-20.091-1.44,12.96,12.96,0,0,1-24.759.072a2.994,2.994,0,0,1,.432.756,14.484,14.484,0,0,0,4.884-1.8,12.162,12.162,0,0,0,5,1.824,3.676,3.676,0,0,1,.432-.78,12.607,12.607,0,0,1-4.74-1.488,10.927,10.927,0,0,0,2.436-2.3,3.524,3.524,0,0,1,.408-.432Zm-.636.72a9.426,9.426,0,0,1-2.376,2.16,6.536,6.536,0,0,1-2-2.16ZM-2.859-6.408h.588c.384,0,.768.012,1.14.048v-.816a7.36,7.36,0,0,1-1.14.072h-.588v-1.38a11.434,11.434,0,0,1,.072-1.4h-.924a8.957,8.957,0,0,1,.084,1.4V-7.1h-3.8a8.847,8.847,0,0,1-1.248-.072v.84a9.293,9.293,0,0,1,1.284-.072h3.768V-.48c0,.252-.108.312-.6.312A9.825,9.825,0,0,1-5.871-.312,2.658,2.658,0,0,1-5.643.5c.528.048.984.072,1.452.072,1.08,0,1.332-.192,1.332-.984Zm-6.492-.744c.36-.684.744-1.512.912-1.932a4.92,4.92,0,0,1,.3-.684L-9-10.044a6.606,6.606,0,0,1-.528,1.536,11.843,11.843,0,0,1-2.412,3.66,1.847,1.847,0,0,1,.444.528l.084.132a10.037,10.037,0,0,0,1.344-1.848c-.036.552-.048.924-.048,1.452V-.576A12.157,12.157,0,0,1-10.191.876h.9c-.036-.42-.06-.876-.06-1.428Zm1.464,2.244a12.265,12.265,0,0,1,1.98,2.8l.672-.516A15.218,15.218,0,0,0-7.263-5.34ZM7.8-7.848v1.56H6.2A7.964,7.964,0,0,1,4.989-6.36v.8A8.77,8.77,0,0,1,6.2-5.628H9.573v1.4H6.2A7.645,7.645,0,0,1,4.989-4.3v.828a8.957,8.957,0,0,1,1.2-.072H9.573v3.3c0,.264-.084.312-.54.312A8.71,8.71,0,0,1,7.665-.072,2.135,2.135,0,0,1,7.857.72c.7.036.888.048,1.08.048,1.116,0,1.38-.18,1.38-.948V-3.54h.372a7.99,7.99,0,0,1,1.176.072V-4.3a7.341,7.341,0,0,1-1.176.072h-.372v-1.4h.4a7.7,7.7,0,0,1,1.164.072v-.8a7.856,7.856,0,0,1-1.212.072H8.541v-1.56h1.7a9.9,9.9,0,0,1,1.14.06V-8.58a7.253,7.253,0,0,1-1.14.072h-1.7v-.384a5.844,5.844,0,0,1,.072-.972H7.725a6.161,6.161,0,0,1,.072.972v.384H6.525a7.045,7.045,0,0,1-1.14-.072v.792a10.459,10.459,0,0,1,1.152-.06ZM1.641-1.272A9.6,9.6,0,0,1,1.569,0h.78V-.984H3.921v.6h.744c-.024-.264-.036-.576-.036-1.152V-8.112a8.891,8.891,0,0,1,.036-1.176,10.313,10.313,0,0,1-1.08.036H2.7a10.765,10.765,0,0,1-1.1-.036,9.934,9.934,0,0,1,.048,1.152ZM2.349-8.58H3.921V-5.6H2.349Zm0,3.624H3.921v3.3H2.349Zm5.76,3.84A12.913,12.913,0,0,0,6.381-3.072l-.588.42A10.89,10.89,0,0,1,7.461-.636Zm7.236-4.74h2.2c.48,0,.888.012,1.212.036-.024-.3-.036-.636-.036-1.116V-8.424c0-.444.012-.8.036-1.14a10.529,10.529,0,0,1-1.224.048H15.813a11.107,11.107,0,0,1-1.26-.048c.036.384.048.732.048,1.32V-.492A8.969,8.969,0,0,1,14.529.852h.888a8.645,8.645,0,0,1-.072-1.344Zm0-3.072h2.688v.96H15.345Zm0,1.524h2.688v.972H15.345Zm8.916-.84a11.355,11.355,0,0,1,.06-1.32,11.107,11.107,0,0,1-1.26.048h-1.98a10.4,10.4,0,0,1-1.224-.048c.024.36.036.72.036,1.14v1.488c0,.444-.012.8-.036,1.116.324-.024.708-.036,1.212-.036h2.46v5.5c0,.288-.1.348-.588.348a13.05,13.05,0,0,1-1.32-.12,2.754,2.754,0,0,1,.216.768c.3.024.948.048,1.2.048.972,0,1.224-.2,1.224-1Zm-3.684-.684h2.952v.96H20.577Zm0,1.524h2.952v.972H20.577ZM21.645-3.78c0-.48.012-.792.036-1.128a10.63,10.63,0,0,1-1.188.048H18.3a10.769,10.769,0,0,1-1.188-.048c.024.348.036.7.036,1.128v2.664a7.4,7.4,0,0,1-.06,1.128h.744v-.84h2.628c.492,0,.888.012,1.224.036-.024-.312-.036-.636-.036-1.092Zm-3.816-.48h3.132v1.068H17.829Zm0,1.668h3.132v1.164H17.829Zm9.98,4.285h-.973A8.794,8.794,0,0,0,28.2-.844a8.706,8.706,0,0,0,.469-2.824A8.7,8.7,0,0,0,28.2-6.5a8.722,8.722,0,0,0-1.359-2.528h.973a8.543,8.543,0,0,1,1.271,2.5,9.347,9.347,0,0,1,.439,2.859A9.347,9.347,0,0,1,29.081-.8,8.462,8.462,0,0,1,27.809,1.693Z" transform="translate(130.75 14154.493)" fill="#505050"/>
      <path id="パス_10022" data-name="パス 10022" d="M-38.022,0h-1.031V-7.77l-1.629.592-.328-.832,2.145-.779h.844Zm5.87.176A2.467,2.467,0,0,1-33.745-.36a3.357,3.357,0,0,1-1.025-1.559A7.563,7.563,0,0,1-35.128-4.4a7.516,7.516,0,0,1,.357-2.473,3.357,3.357,0,0,1,1.025-1.556,2.467,2.467,0,0,1,1.594-.536,2.464,2.464,0,0,1,1.6.536,3.368,3.368,0,0,1,1.022,1.556A7.516,7.516,0,0,1-29.175-4.4a7.621,7.621,0,0,1-.354,2.481A3.339,3.339,0,0,1-30.552-.36,2.476,2.476,0,0,1-32.152.176Zm0-.914a1.557,1.557,0,0,0,1.415-.967,5.885,5.885,0,0,0,.507-2.7,5.847,5.847,0,0,0-.507-2.689,1.557,1.557,0,0,0-1.415-.961,1.559,1.559,0,0,0-1.412.961,5.818,5.818,0,0,0-.51,2.689,5.856,5.856,0,0,0,.51,2.7A1.559,1.559,0,0,0-32.152-.738Zm5.788-3.832a.561.561,0,0,1-.413-.167.561.561,0,0,1-.167-.413.581.581,0,0,1,.167-.419.551.551,0,0,1,.413-.173.551.551,0,0,1,.413.173.581.581,0,0,1,.167.419.561.561,0,0,1-.167.413A.561.561,0,0,1-26.363-4.57Zm0,4.688a.556.556,0,0,1-.413-.17.571.571,0,0,1-.167-.416.574.574,0,0,1,.167-.413.551.551,0,0,1,.413-.173.551.551,0,0,1,.413.173.574.574,0,0,1,.167.413.571.571,0,0,1-.167.416A.556.556,0,0,1-26.363.117Zm5.788.059A2.467,2.467,0,0,1-22.169-.36a3.357,3.357,0,0,1-1.025-1.559A7.563,7.563,0,0,1-23.552-4.4a7.516,7.516,0,0,1,.357-2.473,3.357,3.357,0,0,1,1.025-1.556,2.467,2.467,0,0,1,1.594-.536,2.464,2.464,0,0,1,1.6.536,3.368,3.368,0,0,1,1.022,1.556A7.516,7.516,0,0,1-17.6-4.4a7.621,7.621,0,0,1-.354,2.481A3.339,3.339,0,0,1-18.976-.36,2.476,2.476,0,0,1-20.575.176Zm0-.914a1.557,1.557,0,0,0,1.415-.967,5.885,5.885,0,0,0,.507-2.7A5.847,5.847,0,0,0-19.16-7.09a1.557,1.557,0,0,0-1.415-.961,1.559,1.559,0,0,0-1.412.961A5.818,5.818,0,0,0-22.5-4.4a5.856,5.856,0,0,0,.51,2.7A1.559,1.559,0,0,0-20.575-.738Zm7.909.914A2.467,2.467,0,0,1-14.26-.36a3.357,3.357,0,0,1-1.025-1.559A7.563,7.563,0,0,1-15.643-4.4a7.516,7.516,0,0,1,.357-2.473A3.357,3.357,0,0,1-14.26-8.429a2.467,2.467,0,0,1,1.594-.536,2.464,2.464,0,0,1,1.6.536,3.368,3.368,0,0,1,1.022,1.556A7.516,7.516,0,0,1-9.69-4.4a7.621,7.621,0,0,1-.354,2.481A3.339,3.339,0,0,1-11.066-.36,2.476,2.476,0,0,1-12.666.176Zm0-.914a1.557,1.557,0,0,0,1.415-.967,5.885,5.885,0,0,0,.507-2.7,5.847,5.847,0,0,0-.507-2.689,1.557,1.557,0,0,0-1.415-.961,1.559,1.559,0,0,0-1.412.961,5.818,5.818,0,0,0-.51,2.689,5.856,5.856,0,0,0,.51,2.7A1.559,1.559,0,0,0-12.666-.738ZM1.254-2.572H-3.434v-.756H1.254ZM13.422,0H8.143V-.65q1.084-.926,1.849-1.693a12.672,12.672,0,0,0,1.245-1.424A5.519,5.519,0,0,0,11.942-5a3.1,3.1,0,0,0,.226-1.125,2.231,2.231,0,0,0-.217-1,1.649,1.649,0,0,0-.6-.68,1.648,1.648,0,0,0-.9-.243,2.037,2.037,0,0,0-1.1.331,2.57,2.57,0,0,0-.858.911L7.92-7.453A3.213,3.213,0,0,1,9.086-8.566a3.1,3.1,0,0,1,1.535-.4,2.655,2.655,0,0,1,1.348.337,2.429,2.429,0,0,1,.92.929,2.73,2.73,0,0,1,.334,1.365,3.876,3.876,0,0,1-.234,1.292,6.038,6.038,0,0,1-.7,1.354A9.874,9.874,0,0,1,11.146-2.3,16.012,16.012,0,0,1,9.572-.908h3.85Zm7.692,0H15.835V-.65q1.084-.926,1.849-1.693a12.672,12.672,0,0,0,1.245-1.424A5.519,5.519,0,0,0,19.635-5a3.1,3.1,0,0,0,.226-1.125,2.231,2.231,0,0,0-.217-1,1.649,1.649,0,0,0-.6-.68,1.648,1.648,0,0,0-.9-.243,2.037,2.037,0,0,0-1.1.331,2.57,2.57,0,0,0-.858.911l-.568-.639a3.213,3.213,0,0,1,1.166-1.113,3.1,3.1,0,0,1,1.535-.4,2.655,2.655,0,0,1,1.348.337,2.429,2.429,0,0,1,.92.929,2.73,2.73,0,0,1,.334,1.365,3.876,3.876,0,0,1-.234,1.292,6.038,6.038,0,0,1-.7,1.354A9.874,9.874,0,0,1,18.838-2.3,16.012,16.012,0,0,1,17.265-.908h3.85Zm3.163-4.57a.561.561,0,0,1-.413-.167A.561.561,0,0,1,23.7-5.15a.581.581,0,0,1,.167-.419.551.551,0,0,1,.413-.173.551.551,0,0,1,.413.173.581.581,0,0,1,.167.419.561.561,0,0,1-.167.413A.561.561,0,0,1,24.278-4.57Zm0,4.688a.556.556,0,0,1-.413-.17A.571.571,0,0,1,23.7-.469a.574.574,0,0,1,.167-.413.551.551,0,0,1,.413-.173.551.551,0,0,1,.413.173.574.574,0,0,1,.167.413.571.571,0,0,1-.167.416A.556.556,0,0,1,24.278.117Zm5.788.059A2.467,2.467,0,0,1,28.472-.36a3.357,3.357,0,0,1-1.025-1.559A7.563,7.563,0,0,1,27.089-4.4a7.516,7.516,0,0,1,.357-2.473,3.357,3.357,0,0,1,1.025-1.556,2.467,2.467,0,0,1,1.594-.536,2.464,2.464,0,0,1,1.6.536,3.368,3.368,0,0,1,1.022,1.556A7.516,7.516,0,0,1,33.042-4.4a7.621,7.621,0,0,1-.354,2.481A3.339,3.339,0,0,1,31.665-.36,2.476,2.476,0,0,1,30.066.176Zm0-.914a1.557,1.557,0,0,0,1.415-.967,5.885,5.885,0,0,0,.507-2.7,5.847,5.847,0,0,0-.507-2.689,1.557,1.557,0,0,0-1.415-.961,1.559,1.559,0,0,0-1.412.961,5.818,5.818,0,0,0-.51,2.689,5.856,5.856,0,0,0,.51,2.7A1.559,1.559,0,0,0,30.066-.738Zm7.909.914A2.467,2.467,0,0,1,36.381-.36a3.357,3.357,0,0,1-1.025-1.559A7.563,7.563,0,0,1,35-4.4a7.516,7.516,0,0,1,.357-2.473,3.357,3.357,0,0,1,1.025-1.556,2.467,2.467,0,0,1,1.594-.536,2.464,2.464,0,0,1,1.6.536,3.368,3.368,0,0,1,1.022,1.556A7.516,7.516,0,0,1,40.951-4.4,7.621,7.621,0,0,1,40.6-1.919,3.339,3.339,0,0,1,39.574-.36,2.476,2.476,0,0,1,37.975.176Zm0-.914a1.557,1.557,0,0,0,1.415-.967A5.885,5.885,0,0,0,39.9-4.4,5.847,5.847,0,0,0,39.39-7.09a1.557,1.557,0,0,0-1.415-.961,1.559,1.559,0,0,0-1.412.961,5.818,5.818,0,0,0-.51,2.689,5.856,5.856,0,0,0,.51,2.7A1.559,1.559,0,0,0,37.975-.738Z" transform="translate(219.75 14154.493)" fill="#505050"/>
    </g>
    <path id="パス_9159" data-name="パス 9159" d="M338.328,14248.547h315" transform="translate(-299.078 -310.563)" fill="none" stroke="#505050" stroke-width="1"/>
    <path id="パス_9510" data-name="パス 9510" d="M338.328,14248.547h315" transform="translate(-299.078 -120.903)" fill="none" stroke="#505050" stroke-width="1"/>
    <path id="パス_10021" data-name="パス 10021" d="M-118.519,1.411h-.806a7.052,7.052,0,0,1-1.06-2.08,7.789,7.789,0,0,1-.366-2.383,7.789,7.789,0,0,1,.366-2.383,7.119,7.119,0,0,1,1.06-2.085h.806a7.333,7.333,0,0,0-1.128,2.107,7.248,7.248,0,0,0-.391,2.356A7.255,7.255,0,0,0-119.647-.7,7.393,7.393,0,0,0-118.519,1.411Zm5.826-7.321V-.3c0,.23-.08.28-.46.28a8.363,8.363,0,0,1-1.31-.12,2.272,2.272,0,0,1,.16.66c.41.04.86.06,1.26.06.77,0,.99-.17.99-.75V-3.12c-.01-.3-.05-1.38-.06-1.66a6.54,6.54,0,0,0,.64,1.47,8.883,8.883,0,0,0,1.36,1.83,8.058,8.058,0,0,0,1.74,1.39,3.206,3.206,0,0,1,.47-.59,6.8,6.8,0,0,1-1.72-1.21,8.655,8.655,0,0,1-1.06-1.19,12.843,12.843,0,0,0,1.38-1.28c.52-.57.52-.57.59-.65l-.56-.43A7.306,7.306,0,0,1-111-3.55a8.191,8.191,0,0,1-1.03-2.36h2.95a6.933,6.933,0,0,1,1.03.06v-.69a7.027,7.027,0,0,1-1.03.06h-2.97v-.77a7.644,7.644,0,0,1,.06-1.07h-.76a7.449,7.449,0,0,1,.06,1.07v.77h-2.91a6.933,6.933,0,0,1-1.03-.06v.69a7.011,7.011,0,0,1,1.01-.06Zm1.5-1.94a6.094,6.094,0,0,1,1.53,1.17l.45-.43a8.008,8.008,0,0,0-1.55-1.13Zm-4.49,2.87a7.418,7.418,0,0,1,1.36,1.76l.53-.42a10.031,10.031,0,0,0-1.4-1.72Zm2.53,1.95a13,13,0,0,1-1.92,1.25,6.607,6.607,0,0,1-1.5.66l.33.68a5.3,5.3,0,0,1,.49-.29,20.825,20.825,0,0,0,2.78-1.7Zm11.19-5.16a6.827,6.827,0,0,1,.04.88,8.19,8.19,0,0,1-2.07,5.87,7.061,7.061,0,0,1-2.04,1.51,1.908,1.908,0,0,1,.54.59,8.5,8.5,0,0,0,1.84-1.46,6.726,6.726,0,0,0,1.43-2.05,8.471,8.471,0,0,0,.69-2.23,8.628,8.628,0,0,0,1.3,3.18A9.158,9.158,0,0,0-97.582.66a2.275,2.275,0,0,1,.52-.63,7.365,7.365,0,0,1-1.16-.78A8.841,8.841,0,0,1-99.7-2.33a8.753,8.753,0,0,1-1.29-2.8,12.977,12.977,0,0,1-.22-2.17,6.8,6.8,0,0,1,.05-.89ZM-93.622.3a2.676,2.676,0,0,1,.43-.05,42.327,42.327,0,0,0,5.62-.72,12.092,12.092,0,0,1,.58,1.19l.59-.39a20.407,20.407,0,0,0-2.5-3.82l-.55.33a16.971,16.971,0,0,1,1.57,2.17c-.68.13-1.08.19-1.94.29-.34.04-1.04.11-2.12.21a29.367,29.367,0,0,0,1.77-4.63c.09-.3.13-.42.2-.61l-.79-.2a21.229,21.229,0,0,1-1.9,5.48c-.24.02-.61.03-.79.03a1.668,1.668,0,0,1-.32-.02Zm2.85-7.33h-2.55a7.587,7.587,0,0,1-1-.05,12.242,12.242,0,0,1,.04,1.25,19.456,19.456,0,0,1-.33,4.17,5.964,5.964,0,0,1-.77,1.82,2.458,2.458,0,0,1,.55.48,7,7,0,0,0,.89-2.35,25.161,25.161,0,0,0,.32-4.73h6.21a6.781,6.781,0,0,1,1.08.05v-.7a6.957,6.957,0,0,1-1.08.06h-2.71v-.58a2.391,2.391,0,0,1,.06-.65h-.77a2.442,2.442,0,0,1,.06.64Zm10.62.76v1.72h-3.13a7.411,7.411,0,0,1-1.01-.06v.71a8.116,8.116,0,0,1,1.02-.06h6.69a7.518,7.518,0,0,1,1.03.06v-.71a7.027,7.027,0,0,1-1.03.06h-2.94V-6.27h2.13a6.821,6.821,0,0,1,1.01.06V-6.9a6.784,6.784,0,0,1-1.02.06h-2.12v-.5a4.959,4.959,0,0,1,.07-.96h-.76a4.618,4.618,0,0,1,.06.94v.52h-1.9c.1-.2.18-.36.34-.71.12-.26.12-.26.2-.41l-.66-.23a5.017,5.017,0,0,1-.3.82,4.956,4.956,0,0,1-1.64,2.02,1.325,1.325,0,0,1,.5.43A6.29,6.29,0,0,0-82.4-6.27ZM-82.382.71V.22h4.91V.71h.7a6.636,6.636,0,0,1-.06-1.01V-2.11a6.512,6.512,0,0,1,.04-.85,9.009,9.009,0,0,1-.98.04h-4.3a9.09,9.09,0,0,1-.99-.04,6.32,6.32,0,0,1,.04.85v1.8a7.066,7.066,0,0,1-.06,1.02Zm0-3.06h4.91V-.36h-4.91Zm11.7-4.38a13.992,13.992,0,0,1-2.14-.11l-.01.69a1.773,1.773,0,0,1,.22-.01h.16c.37.01,1.31.03,1.47.03a1.108,1.108,0,0,0,.19-.02l-.09.15a9.951,9.951,0,0,1-2.24,2.86l.56.56a3.309,3.309,0,0,1,.77-.83,3.757,3.757,0,0,1,2.23-1.06c.47,0,.71.24.79.79a7.763,7.763,0,0,0-1.49.8,2.068,2.068,0,0,0-1.02,1.58c0,1.03.87,1.54,2.66,1.54a15.514,15.514,0,0,0,2.43-.2,3.935,3.935,0,0,1,.4-.05l-.09-.77a8.379,8.379,0,0,1-2.67.39c-1.41,0-2.03-.29-2.03-.95,0-.6.52-1.07,1.88-1.71a2.627,2.627,0,0,1,.01.3,14.382,14.382,0,0,1-.06,1.44l.68-.01a2.173,2.173,0,0,1-.02-.36c0-.09,0-.23.01-.45.01-.2.01-.42.01-.55,0-.25,0-.35-.02-.61a16.6,16.6,0,0,1,2.67-.88l-.32-.7a2.2,2.2,0,0,1-.68.29c-.44.16-1.01.37-1.74.66a1.214,1.214,0,0,0-1.32-1.11,2.661,2.661,0,0,0-1.51.49c-.1.07-.1.07-.46.35a.077.077,0,0,1-.02-.03v-.01a.01.01,0,0,0,.01-.01,1.639,1.639,0,0,1,.13-.1c.04-.03.24-.26.34-.38a7.374,7.374,0,0,0,.9-1.42,32.289,32.289,0,0,0,3.3-.26,3.117,3.117,0,0,1,.4-.05l-.06-.68a14.074,14.074,0,0,1-3.15.38,1.7,1.7,0,0,0-.21.01c.05-.09.18-.36.31-.68a2.124,2.124,0,0,1,.26-.54l-.8-.14a4.244,4.244,0,0,1-.48,1.37Zm10.95,4.56a2.346,2.346,0,0,1-.18.69A2.5,2.5,0,0,1-61.3-.19a5.964,5.964,0,0,1-1.53.42,2.01,2.01,0,0,1,.35.6,4.895,4.895,0,0,0,2.56-1.18,2.939,2.939,0,0,0,.88-1.82h1.22V-.16c0,.32.06.45.24.56a3.519,3.519,0,0,0,1.47.17c1.9,0,2.01-.09,2.24-1.88a3.024,3.024,0,0,1-.63-.27,3.342,3.342,0,0,1-.24,1.31c-.14.21-.37.25-1.32.25-1.02,0-1.12-.03-1.12-.34V-2.17h.87c.54,0,.84.01,1.12.03a7.566,7.566,0,0,1-.05-1.05V-6.58a13.172,13.172,0,0,1,.05-1.33,10.686,10.686,0,0,1-1.07.05h-4.18a8.539,8.539,0,0,1-1.07-.05,13.028,13.028,0,0,1,.05,1.33v3.39a7.744,7.744,0,0,1-.05,1.05c.31-.02.57-.03,1.13-.03Zm-1.11-5.1h4.98v1.09h-4.98Zm0,1.65h4.98v1.15h-4.98Zm0,1.71h4.98v1.19h-4.98Zm9.32-1.9a29.372,29.372,0,0,1,3.45-.33,19.379,19.379,0,0,0,2.2-.22,6.546,6.546,0,0,0-.95.53,3.791,3.791,0,0,0-1.87,3.07,2.434,2.434,0,0,0,1.11,2.04,5.044,5.044,0,0,0,2.16.77c.16.03.2.04.31.06l.13-.81h-.1a5.125,5.125,0,0,1-1.5-.32,1.961,1.961,0,0,1-1.4-1.85,3.056,3.056,0,0,1,1.23-2.31,5.078,5.078,0,0,1,1.92-1.01,4.638,4.638,0,0,1,1.12-.13l-.06-.75a6.713,6.713,0,0,1-1.19.11c-1.29.06-4.49.24-5.68.33-.31.02-.43.03-.57.03h-.36Zm12.57-2.04a3.345,3.345,0,0,1,.17.63,20.37,20.37,0,0,0,.73,2.8,6.227,6.227,0,0,0-1.31.81,2.163,2.163,0,0,0-.89,1.7,1.66,1.66,0,0,0,1.24,1.64,6.8,6.8,0,0,0,2.22.27,20.06,20.06,0,0,0,2.21-.13,5.183,5.183,0,0,1,.74-.06l-.08-.83a9.929,9.929,0,0,1-2.86.34c-1.96,0-2.73-.35-2.73-1.26,0-.83.74-1.49,2.45-2.17a23,23,0,0,1,3.01-.97l-.3-.76a5.407,5.407,0,0,1-.64.26c-1.55.54-1.83.65-2.42.89A17.393,17.393,0,0,1-38.162-8Zm13.57,1.26a10.106,10.106,0,0,1-2.04.43v-.96a5.719,5.719,0,0,1,.05-.93h-.74a6.643,6.643,0,0,1,.05.95v.99c-.3.02-.69.03-.96.03a5.664,5.664,0,0,1-1.02-.07v.66h.41c.11.01.38.01.53.01.29,0,.46,0,.64-.01.31-.02.31-.02.4-.03v1.89a5.349,5.349,0,0,0-1.41.82,1.81,1.81,0,0,0-.79,1.33,1.206,1.206,0,0,0,.46.94,2.641,2.641,0,0,0,1.65.64c.49,0,.73-.26.73-.8V-3.2a6.747,6.747,0,0,1,2.12-.39c1.31,0,2.14.61,2.14,1.59A1.327,1.327,0,0,1-24.5-.59c-.73,0-1.03-.43-1.03-1.47a2.97,2.97,0,0,1,.02-.39,2.167,2.167,0,0,1-.66.26,3.649,3.649,0,0,0,.12,1.13A1.475,1.475,0,0,0-24.512.07,2.024,2.024,0,0,0-22.472-2,2.012,2.012,0,0,0-23.5-3.77a3.386,3.386,0,0,0-1.77-.42,7.085,7.085,0,0,0-2.15.36V-5.56a17.551,17.551,0,0,0,1.77-.3c.14-.03.18-.04.3-.06Zm-2.68,5.52c0,.43-.03.49-.23.49a1.868,1.868,0,0,1-.89-.29c-.29-.19-.43-.39-.43-.6,0-.48.56-1.02,1.55-1.5Zm6.01-4.23a8.4,8.4,0,0,0-2.02-1.9l-.52.39a8.19,8.19,0,0,1,2.02,1.96Zm6.8,1.07a21.259,21.259,0,0,1-.69,2.06c-.26.7-.26.7-.7,1.68-.41.03-.53.04-.81.04h-.15l.18.69c.16-.03.24-.04.48-.07,1.89-.21,3.63-.48,4.92-.76.21.42.29.6.49,1.07l.59-.33a20.513,20.513,0,0,0-1.99-3.43l-.57.23a15.5,15.5,0,0,1,1.21,1.95,35.312,35.312,0,0,1-3.64.53,31.045,31.045,0,0,0,1.36-3.66H-12a8,8,0,0,1,1.06.06v-.7A7.586,7.586,0,0,1-12-4.81h-4.41a7.084,7.084,0,0,1-1.04-.06v.7a7.629,7.629,0,0,1,1.05-.06Zm-2.91-1.65c.47-1.09.54-1.28.7-1.73.1-.28.15-.43.22-.59l-.7-.23a7.832,7.832,0,0,1-.49,1.6,9.614,9.614,0,0,1-1.82,2.85,2.5,2.5,0,0,1,.43.55,6.663,6.663,0,0,0,1.04-1.55c-.03.47-.03.76-.03,1.21V-.45a10.014,10.014,0,0,1-.06,1.21h.76a9.959,9.959,0,0,1-.05-1.18Zm1.36-.91a7.332,7.332,0,0,1,1.05-.06h3.12a8,8,0,0,1,1.06.06v-.7a7.586,7.586,0,0,1-1.06.06h-3.13a7.084,7.084,0,0,1-1.04-.06Zm10.07-.53A14.247,14.247,0,0,0-3-6.64l.14-.67a12.229,12.229,0,0,1-3.62-.62Zm-.86,2.58c.26-.03.47-.05.95-.08a19.181,19.181,0,0,0,2.98-.32c-.72.69-1.23,1.19-1.52,1.48-.81.8-1.64,1.6-2.36,2.27a7.2,7.2,0,0,1-1.08.92l.56.62c.35-.4,1.01-1.08,1.5-1.53.83-.77,1.32-1.05,1.84-1.05a.488.488,0,0,1,.46.24,1.73,1.73,0,0,1,.11.69,2.53,2.53,0,0,0,.22,1.1c.21.39.65.57,1.4.57A7.952,7.952,0,0,0-1.162.04c.71-.11.71-.11.81-.12l-.11-.77a5.392,5.392,0,0,1-2.02.37c-.46,0-.69-.08-.83-.27-.11-.16-.14-.31-.18-.94-.04-.57-.11-.8-.31-1a.928.928,0,0,0-.68-.26,2.122,2.122,0,0,0-1,.33A22.189,22.189,0,0,0-3.5-4.42a9.21,9.21,0,0,1,.89-.83l-.44-.55a1.9,1.9,0,0,1-.48.11,34.1,34.1,0,0,1-3.51.24c-.22,0-.35,0-.6-.02Zm9.8-2.35a5.41,5.41,0,0,1,.03.59,15.024,15.024,0,0,0,.54,4.69c.34.96.86,1.52,1.42,1.52.71,0,1.17-.67,1.66-2.42a3.2,3.2,0,0,1-.59-.57,7.2,7.2,0,0,1-.52,1.71c-.15.33-.32.5-.5.5-.38,0-.79-.69-1.01-1.71a17.125,17.125,0,0,1-.26-3.11,7.249,7.249,0,0,1,.07-1.19Zm5.06.85a8.832,8.832,0,0,1,2.08,4.93l.71-.29a9.575,9.575,0,0,0-.75-2.67,8.68,8.68,0,0,0-1.43-2.28Zm5.49.66a1.489,1.489,0,0,1,.17-.01h.04c.39.02.48.02.83.02.37,0,.49,0,.69-.01a20.112,20.112,0,0,1-1.88,5.53l.73.31a26.35,26.35,0,0,0,1.15-3.05c.27-.91.55-2.04.7-2.83a14.617,14.617,0,0,0,1.69-.24c.2-.04.2-.04.28-.05l-.05-.69a8.246,8.246,0,0,1-1.8.34c.05-.3.08-.44.13-.76a9.455,9.455,0,0,1,.18-.95l-.79-.08a9.779,9.779,0,0,1-.22,1.84c-.29.02-.4.02-.6.02a6.9,6.9,0,0,1-1.25-.09Zm7.55.49c-.75-.03-.9-.03-1.09-.03a11.33,11.33,0,0,0-2.65.33l.07.68a8.7,8.7,0,0,1,2.5-.34,10.04,10.04,0,0,1,1.18.07Zm-3.64,2.16c-.53.68-.67.99-.67,1.44,0,.99.85,1.5,2.49,1.5a10.02,10.02,0,0,0,1.78-.17c.33-.05.33-.05.44-.07l-.07-.75a7.43,7.43,0,0,1-2.21.34c-1.14,0-1.75-.32-1.75-.92a1.2,1.2,0,0,1,.25-.71,3.351,3.351,0,0,1,.3-.38Zm6.8-2.65a1.489,1.489,0,0,1,.17-.01h.04c.39.02.48.02.83.02.37,0,.49,0,.69-.01a20.352,20.352,0,0,1-1.88,5.53l.73.31A26.738,26.738,0,0,0,25.9-5.62a13.343,13.343,0,0,0,1.69-.24l.18-.04.1-.01-.05-.69a8.131,8.131,0,0,1-1.8.34c.05-.27.07-.41.13-.76s.09-.54.1-.6c.03-.14.04-.19.08-.35l-.79-.08v.07a12.332,12.332,0,0,1-.22,1.77c-.29.02-.4.02-.6.02a6.9,6.9,0,0,1-1.25-.09Zm7.55.49c-.75-.03-.9-.03-1.09-.03a11.33,11.33,0,0,0-2.65.33l.07.68a8.7,8.7,0,0,1,2.5-.34,10.04,10.04,0,0,1,1.18.07Zm-3.64,2.16c-.53.68-.67.99-.67,1.44,0,.99.85,1.5,2.49,1.5a10.948,10.948,0,0,0,1.78-.16l.31-.06.13-.02-.07-.75a7.43,7.43,0,0,1-2.21.34c-1.14,0-1.75-.32-1.75-.92a1.2,1.2,0,0,1,.25-.71,3.351,3.351,0,0,1,.3-.38Zm1.65-4.69a7.32,7.32,0,0,1,1.03,1.58l.5-.3a7.592,7.592,0,0,0-1.03-1.55Zm1.14-.54a7.491,7.491,0,0,1,1.02,1.57l.5-.29a8.032,8.032,0,0,0-1.03-1.55Zm9.27.1a15.9,15.9,0,0,1-2.93,2.74,7.727,7.727,0,0,0-.85.68.968.968,0,0,0-.29.67c0,.34.16.56.72,1,1.46,1.14,1.86,1.47,2.53,2.09A9.44,9.44,0,0,1,39.908.49l.63-.62a2.546,2.546,0,0,1-.28-.25,29.484,29.484,0,0,0-3.2-2.73c-.81-.63-.89-.7-.89-.88,0-.14.07-.22.44-.5a29.131,29.131,0,0,0,2.3-1.89c1.04-1,1.12-1.07,1.23-1.16Zm7.71.21a3.345,3.345,0,0,1,.17.63,20.37,20.37,0,0,0,.73,2.8,6.227,6.227,0,0,0-1.31.81,2.163,2.163,0,0,0-.89,1.7,1.66,1.66,0,0,0,1.24,1.64,6.8,6.8,0,0,0,2.22.27,20.06,20.06,0,0,0,2.21-.13,5.183,5.183,0,0,1,.74-.06l-.08-.83a9.929,9.929,0,0,1-2.86.34c-1.96,0-2.73-.35-2.73-1.26,0-.83.74-1.49,2.45-2.17a23,23,0,0,1,3.01-.97l-.3-.76a5.407,5.407,0,0,1-.64.26c-1.55.54-1.83.65-2.42.89A17.393,17.393,0,0,1,47.938-8ZM63.858-.54a24.87,24.87,0,0,0-3.33-3,12.093,12.093,0,0,0,1.65-2.8,1.866,1.866,0,0,1,.28-.49l-.42-.43a1.865,1.865,0,0,1-.64.08l-3.57.04h-.26a4.7,4.7,0,0,1-.79-.05l.02.81a6.729,6.729,0,0,1,1.03-.08l3.34-.05a1.7,1.7,0,0,0,.24-.01.212.212,0,0,1-.03.07c-.02.05-.03.06-.05.12a10.839,10.839,0,0,1-3.57,4.51,8.05,8.05,0,0,1-2.03,1.15,2.226,2.226,0,0,1,.49.66,12.878,12.878,0,0,0,1.96-1.2A10.855,10.855,0,0,0,60.088-3a18.6,18.6,0,0,1,3.2,3.09Zm5.99-7.41a18.974,18.974,0,0,1-.79,2.88,38.139,38.139,0,0,1-1.51,3.96c-.23.02-.78.05-.85.05-.05,0-.05,0-.28-.01l.1.83a6.954,6.954,0,0,1,.85-.11,61.773,61.773,0,0,0,6.15-.83,13.575,13.575,0,0,1,.59,1.35l.7-.38a25.9,25.9,0,0,0-2.49-4.52l-.62.34a19.454,19.454,0,0,1,1.54,2.59c-1.18.23-3.53.54-4.86.63a54.178,54.178,0,0,0,2.08-5.85,3.953,3.953,0,0,1,.27-.72Zm7.17,4.52a10.924,10.924,0,0,1,1.24-.04h5.8a11.439,11.439,0,0,1,1.22.04v-.81a7.887,7.887,0,0,1-1.21.05h-5.81a7.074,7.074,0,0,1-1.24-.06ZM94.678-.47a24.476,24.476,0,0,0-3.33-2.99,12.083,12.083,0,0,0,1.64-2.79,3.367,3.367,0,0,1,.19-.38l-.44-.52a2.3,2.3,0,0,1-.54.05l-3.55.04h-.26a4.7,4.7,0,0,1-.79-.05l.02.8a6.636,6.636,0,0,1,1.03-.07l3.34-.05c.12-.01.15-.01.24-.02-.05.11-.05.13-.08.2a10.828,10.828,0,0,1-2.28,3.39,10,10,0,0,1-3.32,2.27,2,2,0,0,1,.49.66,12.005,12.005,0,0,0,3.87-3,20.219,20.219,0,0,1,3.2,3.09Zm-1.65-7.46a7.033,7.033,0,0,1,1.02,1.59l.51-.3a7.591,7.591,0,0,0-1.03-1.55Zm1.14-.54a7.914,7.914,0,0,1,1.02,1.57l.5-.28a8.1,8.1,0,0,0-1.03-1.56ZM97.5-5.83a33.291,33.291,0,0,1,3.45-.33,20.466,20.466,0,0,0,2.2-.22,6.546,6.546,0,0,0-.95.53,3.8,3.8,0,0,0-1.87,3.07,2.421,2.421,0,0,0,1.11,2.04,5.044,5.044,0,0,0,2.16.77c.18.03.2.04.31.06l.13-.81h-.1a5.125,5.125,0,0,1-1.5-.32,1.961,1.961,0,0,1-1.4-1.85,3.056,3.056,0,0,1,1.23-2.31,4.918,4.918,0,0,1,1.92-1,4.194,4.194,0,0,1,1.12-.14l-.06-.74a6.754,6.754,0,0,1-1.19.11l-.57.02c-.33.01-.46.02-1.69.09l-1.57.1c-1.23.07-1.29.08-1.85.12-.31.02-.43.03-.57.03-.07,0-.17,0-.36-.01Zm6.14.96a7.033,7.033,0,0,1,1.02,1.59l.51-.3a7.592,7.592,0,0,0-1.03-1.55Zm1.14-.54a7.913,7.913,0,0,1,1.02,1.57l.5-.28a8.1,8.1,0,0,0-1.03-1.56Zm8.1-1.25c-.68.02-1.46.04-2.42.08-1.61.06-1.61.06-1.9.06-.15,0-.22,0-.4-.01l.03.73c.67-.11,2.69-.21,4.7-.25v.52c0,.12.01.22.01.26,0,.37,0,.41.01.55a1.535,1.535,0,0,0-1.16-.45,1.664,1.664,0,0,0-1.77,1.65,1.55,1.55,0,0,0,1.64,1.58,1.563,1.563,0,0,0,1.26-.54,1.4,1.4,0,0,0,.27-.49,2.59,2.59,0,0,1-1.12,2.11,5.125,5.125,0,0,1-1.62.75,2.2,2.2,0,0,1,.44.63,6.361,6.361,0,0,0,1.58-.81,3.219,3.219,0,0,0,1.34-2.61,2.865,2.865,0,0,0-.24-1.18V-6.06c.81-.02.92-.02,1.07-.02a17.773,17.773,0,0,1,1.91.05v-.71c-.33.04-1.1.06-2.99.07v-.11a8.278,8.278,0,0,1,.05-1.25h-.75a3.37,3.37,0,0,1,.04.58Zm-.03,2.92a1.121,1.121,0,0,1-1.17,1.18.967.967,0,0,1-1.03-.99,1.058,1.058,0,0,1,1.11-1.05,1.279,1.279,0,0,1,.67.16A.724.724,0,0,1,112.848-3.74Zm6.477,5.151h-.811A7.328,7.328,0,0,0,119.647-.7a7.255,7.255,0,0,0,.391-2.354,7.248,7.248,0,0,0-.391-2.356,7.268,7.268,0,0,0-1.133-2.107h.811a7.119,7.119,0,0,1,1.06,2.085,7.789,7.789,0,0,1,.366,2.383,7.789,7.789,0,0,1-.366,2.383A7.052,7.052,0,0,1,119.324,1.411Z" transform="translate(196.75 14039.587)" fill="#505050"/>
    <path id="パス_10026" data-name="パス 10026" d="M9.93.18c4.86,0,8.4-3.99,8.4-10.68s-3.54-10.68-8.4-10.68S1.56-17.19,1.56-10.5,5.07.18,9.93.18Zm0-1.98c-3.66,0-6.18-3.09-6.18-8.7s2.52-8.7,6.18-8.7,6.18,3.09,6.18,8.7S13.59-1.8,9.93-1.8ZM29.94-12.39h-2.7l.72-6.69h9.6V-21H26.07L24.99-10.47h4.47c5.34,0,7.02,1.68,7.02,4.38,0,2.55-1.89,4.29-5.46,4.29a9.1,9.1,0,0,1-6.45-2.43L23.52-2.52A10.842,10.842,0,0,0,31.05.18c5.13,0,7.62-2.79,7.62-6.36C38.67-9.9,36.27-12.39,29.94-12.39ZM47.04-1.92l7.14-7.02c2.82-2.76,3.45-4.56,3.45-6.57,0-3.51-2.7-5.67-6.96-5.67a9.435,9.435,0,0,0-7.44,3l1.53,1.32a7.129,7.129,0,0,1,5.73-2.34c3.21,0,4.92,1.5,4.92,3.93,0,1.44-.45,2.85-2.82,5.19L43.86-1.53V0H58.59V-1.92ZM64.29-7.2h7.86V-9.06H64.29Zm19.74-5.19h-2.7l.72-6.69h9.6V-21H80.16L79.08-10.47h4.47c5.34,0,7.02,1.68,7.02,4.38,0,2.55-1.89,4.29-5.46,4.29a9.1,9.1,0,0,1-6.45-2.43L77.61-2.52A10.842,10.842,0,0,0,85.14.18c5.13,0,7.62-2.79,7.62-6.36C92.76-9.9,90.36-12.39,84.03-12.39Zm26.49,1.38a4.756,4.756,0,0,0,3.36-4.62c0-3.42-2.97-5.55-7.41-5.55s-7.35,2.13-7.35,5.55a4.738,4.738,0,0,0,3.3,4.62c-2.61.87-4.05,2.64-4.05,5.16,0,3.72,3.06,6.03,8.1,6.03,5.01,0,8.16-2.31,8.16-6.03C114.63-8.34,113.16-10.14,110.52-11.01Zm-9.24-4.56c0-2.34,2.01-3.78,5.19-3.78,3.15,0,5.22,1.44,5.22,3.81,0,2.28-1.95,3.75-5.22,3.75S101.28-13.26,101.28-15.57Zm5.19,13.92c-3.72,0-5.91-1.62-5.91-4.23,0-2.58,2.19-4.2,5.91-4.2s5.94,1.62,5.94,4.2C112.41-3.27,110.19-1.65,106.47-1.65ZM127.77-12l5.94-7.47V-21h-13.5v1.92h10.74l-5.82,7.29v1.59h1.5c3.9,0,5.67,1.65,5.67,4.17,0,2.61-1.92,4.23-5.4,4.23a9.2,9.2,0,0,1-6.51-2.43l-1.05,1.71A10.921,10.921,0,0,0,126.9.18c5.07,0,7.62-2.7,7.62-6.21C134.52-9.39,132.27-11.76,127.77-12Zm13.02,4.8h7.86V-9.06h-7.86Zm23.16-5.37c-2.91,0-5.37,1.29-6.42,3.6-.06-.63-.09-1.23-.09-1.71,0-5.7,2.91-8.61,7.44-8.61a7.361,7.361,0,0,1,4.08.99l.87-1.74a9.634,9.634,0,0,0-4.98-1.14c-5.7,0-9.6,3.72-9.6,10.86,0,6.63,3.03,10.5,8.61,10.5,4.08,0,7.17-2.52,7.17-6.45C171.03-10.11,168.12-12.57,163.95-12.57Zm-.18,10.92c-3.63,0-5.55-2.19-5.55-4.5,0-2.61,2.19-4.59,5.4-4.59,3.24,0,5.28,1.77,5.28,4.53C168.9-3.42,166.8-1.65,163.77-1.65ZM175.23-21v1.92h4.95V0h2.16V-21ZM198.72.18c4.86,0,8.4-3.99,8.4-10.68s-3.54-10.68-8.4-10.68-8.37,3.99-8.37,10.68S193.86.18,198.72.18Zm0-1.98c-3.66,0-6.18-3.09-6.18-8.7s2.52-8.7,6.18-8.7,6.18,3.09,6.18,8.7S202.38-1.8,198.72-1.8ZM221.58.18c4.86,0,8.4-3.99,8.4-10.68s-3.54-10.68-8.4-10.68-8.37,3.99-8.37,10.68S216.72.18,221.58.18Zm0-1.98c-3.66,0-6.18-3.09-6.18-8.7s2.52-8.7,6.18-8.7,6.18,3.09,6.18,8.7S225.24-1.8,221.58-1.8Z" transform="translate(80.5 14016.737)" fill="#4a4a4a"/>
  </g>
</svg>
