<svg xmlns="http://www.w3.org/2000/svg" xmlns:xlink="http://www.w3.org/1999/xlink" width="457.654" height="189.374" viewBox="0 0 457.654 189.374">
  <defs>
    <clipPath id="clip-path">
      <rect id="長方形_1741" data-name="長方形 1741" width="457.654" height="189.374" fill="#efefef"/>
    </clipPath>
  </defs>
  <g id="グループ_3638" data-name="グループ 3638" clip-path="url(#clip-path)">
    <g id="グループ_4017" data-name="グループ 4017">
      <path id="パス_9935" data-name="パス 9935" d="M103.722,71.68q0-.291-.367,3.968-.735,8.524-.734,16.458a33.477,33.477,0,0,0,.367,3.6,50.2,50.2,0,0,1,.367,6.539v1.322q0,1.908-1.468,1.91t-2.571-2.2q-2.572-4.849-5.14-6.319-13.218,9.259-31.759,9.258-26.986,0-44.7-15.063T0,53.164Q0,30.1,16.247,15.472T58.194.85A71.521,71.521,0,0,1,73.157,2.1a71.862,71.862,0,0,1,13.86,5.07q4.035,1.911,6.058,1.91,1.651,0,3.121-2.351,2.382-4.113,3.855-4.115t1.468,1.176a8.192,8.192,0,0,1-.367,1.911q-2.022,7.053-2.02,26.451,0,2.792-.551,3.233a2.284,2.284,0,0,1-1.468.44q-1.838,0-2.387-2.793-2.387-11.754-6.792-17.487-9-11.755-28.271-11.756-14.87,0-23.5,7.936Q20.56,25.979,20.561,53.458q0,24.542,12.851,38.061,11.2,11.757,29.739,11.755a40.164,40.164,0,0,0,17.44-3.747A28.8,28.8,0,0,0,92.708,89.314,51.63,51.63,0,0,0,99.5,73q.732-3.527,2.387-3.527,1.832,0,1.836,2.2" transform="translate(0 -0.262)" fill="#efefef"/>
      <path id="パス_9936" data-name="パス 9936" d="M283,54.047q0,21.9-16.432,37.03t-40.295,15.137q-25.333,0-42.59-15.356t-17.257-37.84q0-22.924,16.614-37.546T225.537.85q24.413,0,40.938,15.282T283,54.047m-20.562.739q0-26.97-13.769-42.005-8.63-9.43-24.049-9.431-14.69,0-22.764,7.221-14.869,13.266-14.868,43.183,0,23.731,10.371,36.848t29.1,13.115q17.438,0,26.251-12.381,9.729-13.705,9.729-36.55" transform="translate(-50.403 -0.262)" fill="#efefef"/>
      <path id="パス_9937" data-name="パス 9937" d="M472.731,104.1q0,1.25-3.84,1.248H423.15q-3.842,0-3.84-1.324,0-1.47,5.323-1.472,9.361,0,11.381-1.619.918-.737.919-9.862V14.83q0,.148-2.206,5.143-7.374,17.772-21.39,53.465l-8.525,23.391q-2.572,6.909-3.675,6.907-1.291,0-2.757-3.527-5.3-13.377-29.98-66.752l-7.288-15.687q0,2.794,0,7.641V73.17q0,26.893.552,27.186,1.282,1.911,8.811,1.91,6.057,0,6.058,1.463,0,1.626-3.857,1.623a30.879,30.879,0,0,1-4.4-.293,41.06,41.06,0,0,0-4.588-.294l-21.111.588q-3.3,0-3.3-1.324,0-1.471,10.464-1.619,4.405,0,5.139-1.175t.735-7.656V23.084q0-12.213-.367-13.243a4.464,4.464,0,0,0-3.12-2.8q-2.388-.737-10.281-1.178-2.94-.144-2.938-1.322,0-1.614,5.385-1.615H357.1q10.954,0,15.412-.11.9,1.914,10.65,23.122,4.183,8.827,23.464,51.472,3.468-9.568,7.119-18.841l19.625-48.559q1.815-4.19,3.231-6.941l27.226-.144q5.99,0,6.9.442a1.42,1.42,0,0,1,.908,1.325q0,1.475-3.12,1.474a52.765,52.765,0,0,0-6.975.3q-4.408.589-6.059,2.358-.92,1.032-.918,17.243V94.6q0,5.9,1.469,6.928,2.384,1.33,11.933,1.328h1.1q3.67,0,3.671,1.249" transform="translate(-102.64 -0.871)" fill="#efefef"/>
      <path id="パス_9938" data-name="パス 9938" d="M622.977,75.532q0,12.639-12.023,21.528t-28.914,8.891q-9.912,0-23.681-4.85a18.221,18.221,0,0,0-5.507-1.323q-2.2,0-2.754,4.069a2.1,2.1,0,0,1-2.387,2.1q-1.838,0-1.836-1.764a6.3,6.3,0,0,1,.184-1.763,103.4,103.4,0,0,0,1.468-16.605q0-1.467-.368-8.229a11.955,11.955,0,0,1-.183-2.352,1.948,1.948,0,0,1,2.2-2.2q1.833,0,2.571,3.563,4.771,26.415,31.025,26.415,11.2,0,17.347-5.069t6.151-14.328a18.865,18.865,0,0,0-5.967-14.034q-5.967-5.8-20.469-11.535Q562.394,51.14,555.6,44.672a21.215,21.215,0,0,1-6.792-16.017q0-12.2,9.822-20.132T583.508.588q6.24,0,17.257,3.379a21.917,21.917,0,0,0,5.691,1.176,4.177,4.177,0,0,0,2.663-.588,6.7,6.7,0,0,0,1.193-3.086A1.846,1.846,0,0,1,612.33,0c1.222,0,1.837.588,1.837,1.763a6.426,6.426,0,0,1-.184,1.763,56.362,56.362,0,0,0-.552,8.523,53.63,53.63,0,0,0,.918,11.168l.184,2.351q.181,1.62-1.652,1.617-2.023,0-2.753-3.38a25.139,25.139,0,0,0-9.546-14.474,26.982,26.982,0,0,0-16.89-5.8q-9.181,0-14.595,4.7t-5.415,12.784a17.838,17.838,0,0,0,7.895,15.137q4.4,3.233,19.091,9.11,17.253,6.909,24.783,14.033t7.526,16.239" transform="translate(-165.323)" fill="#efefef"/>
    </g>
    <g id="wearethecreaters">
      <path id="パス_9939" data-name="パス 9939" d="M101.581,218.294q0,.345-1.391.383a2.179,2.179,0,0,0-2.065,1.014,34.735,34.735,0,0,0-1.574,4.135q-1.843,5.556-3.275,9.447-2.451,6.65-4.455,12.855c-.112.35-.252.527-.419.527-.14,0-.273-.135-.4-.4s-.5-1.21-1.111-2.822q-1.139-3.168-2.481-6.376-1.058-2.52-2.075-5.2-2.847,6.854-5.656,14.315-.165.484-.412.485-.206,0-.494-.69-1.268-3-9.407-24.857a9.931,9.931,0,0,0-.858-1.927q-.288-.385-1.431-.426-1.963-.08-1.963-.568,0-.365.655-.365a2.637,2.637,0,0,1,.49.041q2.169.121,4.662.122.491,0,1.7-.081t3.128-.082H73.2q.694,0,.694.373,0,.455-1.259.5-2.518.084-2.518.663,0,1.135,7.516,21.129,2.734-6.849,4.08-10.092l-4.039-10.386a2.054,2.054,0,0,0-.761-1.091,3.856,3.856,0,0,0-1.582-.283q-1.151-.04-1.151-.364,0-.445.859-.444.654,0,1.594.081t3.272.082h7.606q1.513,0,3.64-.131a4.407,4.407,0,0,1,.572-.032q.982,0,.982.427,0,.384-.7.384h-.7a6.239,6.239,0,0,0-2.78.486q-.41.2-1.514,2.917-.5,1.134-1.651,3.849-.242.61-.722,1.831.285.812,1.79,4.505,1.943,4.694,3.2,8.051,2.3-6.565,5.423-15.522a40.908,40.908,0,0,0,1.653-5.3q0-.773-1.432-.774-2,0-2-.449,0-.406.817-.407a9.167,9.167,0,0,1,1.105.054,13.945,13.945,0,0,0,1.636.109h3.272a4.471,4.471,0,0,1,1.349.095.271.271,0,0,1,.123.211m-17.3.464H83.1q-1.472.083-1.472.529,0,.082,2.408,7.051.934-2.028,2.195-5.357.168-.446.508-1.173l.084-.323q0-.727-2.536-.728" transform="translate(-18.813 -67.258)" fill="#efefef"/>
      <path id="パス_9940" data-name="パス 9940" d="M134.1,246.238a3.566,3.566,0,0,1-.634,1.44,8.956,8.956,0,0,1-1.288,1.682,6.3,6.3,0,0,1-4.7,1.785,8.1,8.1,0,0,1-6.155-2.636,9.175,9.175,0,0,1-2.474-6.529,9.984,9.984,0,0,1,2.351-6.772,7.442,7.442,0,0,1,5.869-2.717,7.219,7.219,0,0,1,4.867,1.682,5.812,5.812,0,0,1,2.086,4.319,21.034,21.034,0,0,1-3.477.162h-2.862q-.286,0-4.908.121a16.845,16.845,0,0,0-.2,2.547,10.691,10.691,0,0,0,1.575,6.282,5.136,5.136,0,0,0,4.437,2.2,4.288,4.288,0,0,0,2.617-.73,8.934,8.934,0,0,0,2.126-2.8.5.5,0,0,1,.45-.325c.219,0,.328.095.328.283m-3.558-8.271q-.163-4.866-3.517-4.865-3.312,0-4.131,4.865Z" transform="translate(-35.993 -71.785)" fill="#efefef"/>
      <path id="パス_9941" data-name="パス 9941" d="M179.194,245.685q0,.345-.614.346a6.131,6.131,0,0,1-.736-.041l-5.194-.162-5.194.162a4.461,4.461,0,0,1-.613.041q-.819,0-.818-.425,0-.467,1.1-.467,3.6-.04,3.6-.715a2.266,2.266,0,0,0-.084-.318l-.334-1.073-.21-.565q-.368-1.26-1.8-5.561h-8.743q-2.452,6.488-2.451,7.461a.624.624,0,0,0,.491.689q.122.042,2.044.162c.791.028,1.186.162,1.186.405q0,.406-1.063.406-1.881,0-4.376-.163-.613-.039-1.268-.04a5.829,5.829,0,0,0-1.267.135,2.811,2.811,0,0,1-.532.068c-.382,0-.572-.122-.573-.367s.429-.38,1.288-.407a3.982,3.982,0,0,0,1.861-.386,2.332,2.332,0,0,0,.9-1.322q5.261-14.972,8.564-24.047a4.7,4.7,0,0,1,.381-1.076l.175-.74q.122-.447.327-.447c.082,0,.15.081.2.243q.531,1.581,2.413,6.61,1.472,3.933,7.321,19.747a1.942,1.942,0,0,0,.838,1.168,6.014,6.014,0,0,0,2.106.292q1.065.038,1.064.384m-11.079-9.711-2.207-6.044-1.965-5.62q-1.724,4.486-4.146,11.664Z" transform="translate(-45.959 -67.076)" fill="#efefef"/>
      <path id="パス_9942" data-name="パス 9942" d="M202.363,235.367a2.159,2.159,0,0,1-.572,1.541,1.935,1.935,0,0,1-1.472.609,1.806,1.806,0,0,1-1.226-.426,1.361,1.361,0,0,1-.491-1.075,1.4,1.4,0,0,1,.368-.973q.367-.4.367-.568,0-.609-.9-.608a2.329,2.329,0,0,0-1.963,1.411q-.941,1.656-.94,6.133V249.4a.561.561,0,0,0,.347.605,10.661,10.661,0,0,0,2.107.162c.3.055.45.162.45.324,0,.189-.178.284-.532.284h-7.934q-.654,0-.655-.244t.532-.243h.573q1.39,0,1.635-.326a6.678,6.678,0,0,0,.082-1.508V237.248q0-2.242-.674-2.589a5.262,5.262,0,0,0-2.148-.386c-.327,0-.491-.1-.491-.283s.137-.284.409-.284h.286q.614,0,1.227.061a4.352,4.352,0,0,1,.532.061,8.082,8.082,0,0,0,3.353-.852l.531-.243.327-.122a11.7,11.7,0,0,1,.164,1.947v.81q1.309-2.757,3.681-2.757a3.078,3.078,0,0,1,2.167.791,2.563,2.563,0,0,1,.859,1.966" transform="translate(-57.188 -71.822)" fill="#efefef"/>
      <path id="パス_9943" data-name="パス 9943" d="M225.376,246.239a3.559,3.559,0,0,1-.634,1.44,8.975,8.975,0,0,1-1.288,1.682,6.306,6.306,0,0,1-4.7,1.785,8.1,8.1,0,0,1-6.155-2.636,9.172,9.172,0,0,1-2.474-6.529,9.983,9.983,0,0,1,2.351-6.772,7.441,7.441,0,0,1,5.869-2.717,7.216,7.216,0,0,1,4.867,1.682,5.807,5.807,0,0,1,2.086,4.319,21.2,21.2,0,0,1-3.476.162h-2.862q-.286,0-4.908.121a16.852,16.852,0,0,0-.2,2.546,10.692,10.692,0,0,0,1.575,6.283,5.138,5.138,0,0,0,4.437,2.2,4.284,4.284,0,0,0,2.618-.731,8.922,8.922,0,0,0,2.126-2.8.5.5,0,0,1,.449-.326c.218,0,.328.1.328.283m-3.558-8.271q-.163-4.866-3.517-4.866-3.312,0-4.13,4.866Z" transform="translate(-63.637 -71.785)" fill="#efefef"/>
      <path id="パス_9944" data-name="パス 9944" d="M266.37,238.8a6.5,6.5,0,0,1-3.8,6.123,13.629,13.629,0,0,1-5.276,1.216q-.941.041-5.562.041H246.74q-.7,0-.7-.345t1.268-.344q1.471,0,1.737-.3a3.622,3.622,0,0,0,.266-1.845V221.408a6.741,6.741,0,0,0-.163-2.068q-.287-.486-2.086-.527-1.1,0-1.1-.427,0-.384,1.023-.384h.49a3.154,3.154,0,0,0,.818.122h7.975q4.416.039,6.585,1.459a5.421,5.421,0,0,1,2.536,4.826,5.654,5.654,0,0,1-2.086,4.521,10.863,10.863,0,0,1-5.848,2.211v.243a12.6,12.6,0,0,1,5.808,1.541,6.475,6.475,0,0,1,3.107,5.88m-5.479-13.991q0-3.892-1.8-5.191a6.461,6.461,0,0,0-3.558-.689q-.7,0-2.167.122v11.759h.367l2.25-.081a4.656,4.656,0,0,0,3.62-1.642,6.526,6.526,0,0,0,1.288-4.279m1.186,13.544q0-5.109-4.172-6.325a18.556,18.556,0,0,0-4.539-.366v12.084q0,1.177.245,1.338a5.262,5.262,0,0,0,2.29.284,5.884,5.884,0,0,0,4.5-1.784,7.379,7.379,0,0,0,1.676-5.231" transform="translate(-74.492 -67.313)" fill="#efefef"/>
      <path id="パス_9945" data-name="パス 9945" d="M295.007,246.239a3.562,3.562,0,0,1-.633,1.44,8.981,8.981,0,0,1-1.288,1.682,6.3,6.3,0,0,1-4.7,1.785,8.1,8.1,0,0,1-6.155-2.636,9.175,9.175,0,0,1-2.474-6.529,9.984,9.984,0,0,1,2.351-6.772,7.44,7.44,0,0,1,5.869-2.717,7.215,7.215,0,0,1,4.867,1.682,5.81,5.81,0,0,1,2.086,4.319,21.039,21.039,0,0,1-3.476.162h-2.863q-.286,0-4.908.121a16.815,16.815,0,0,0-.2,2.546,10.692,10.692,0,0,0,1.575,6.282,5.138,5.138,0,0,0,4.438,2.2,4.288,4.288,0,0,0,2.617-.73,8.936,8.936,0,0,0,2.126-2.8.5.5,0,0,1,.45-.325c.218,0,.327.095.327.283m-3.558-8.271q-.163-4.866-3.517-4.866-3.312,0-4.131,4.866Z" transform="translate(-84.726 -71.785)" fill="#efefef"/>
      <path id="パス_9946" data-name="パス 9946" d="M321.379,248.833q0,.691-1.445,1.439a6.051,6.051,0,0,1-2.786.751q-2.809,0-2.929-2.879a5.075,5.075,0,0,1-4.8,3,4.132,4.132,0,0,1-2.889-1.034,3.428,3.428,0,0,1-1.139-2.656q0-3.325,4.011-5.273a22.316,22.316,0,0,1,4.781-1.3v-1.014a18.772,18.772,0,0,0-.368-4.7,2.788,2.788,0,0,0-2.944-2.068,3.7,3.7,0,0,0-2.393.771,2.391,2.391,0,0,0-.961,1.946c0,.217.166.324.5.324a1.152,1.152,0,0,1,.9.487,1.678,1.678,0,0,1,.4,1.095,1.574,1.574,0,0,1-1.781,1.783,2.046,2.046,0,0,1-1.539-.628,2.209,2.209,0,0,1-.606-1.6,4.3,4.3,0,0,1,1.514-3.285,6.752,6.752,0,0,1,4.662-1.5q4.5,0,5.521,2.434a11.9,11.9,0,0,1,.368,3.689V246.2q0,1.866.04,2.19.205,1.46,1.186,1.46a2.43,2.43,0,0,0,1.881-.811q.409-.446.614-.446c.137,0,.2.081.2.243m-7.2-4.3v-2.96a10.39,10.39,0,0,0-4.334,1.8,3.711,3.711,0,0,0-1.31,2.98,3.066,3.066,0,0,0,.746,2.129,2.411,2.411,0,0,0,1.875.832,3.13,3.13,0,0,0,2.78-1.946,8.938,8.938,0,0,0,.243-2.839" transform="translate(-92.49 -71.785)" fill="#efefef"/>
      <path id="パス_9947" data-name="パス 9947" d="M346.943,249.5q0,.285-.9.324a14.86,14.86,0,0,0-5.6,1.379.665.665,0,0,1-.287.082c-.164,0-.246-.109-.246-.324v-2.271a6.078,6.078,0,0,1-5.234,2.6,5.03,5.03,0,0,1-4.3-1.732,3.235,3.235,0,0,1-.629-1.329,29.323,29.323,0,0,1-.1-3.263v-9.221a4.409,4.409,0,0,0-.163-1.651q-.164-.24-1.1-.281h-.532q-1.1.082-1.1-.324,0-.284.7-.284.736,0,2.127.108.694.055.817.055a20.451,20.451,0,0,0,2.659-.162v11.26a13.159,13.159,0,0,0,.409,4.115,2.585,2.585,0,0,0,2.659,1.574,3.424,3.424,0,0,0,3.19-1.776,8.677,8.677,0,0,0,.736-4.116V238a12.72,12.72,0,0,0-.123-2.059v-1.331q-.042-.6-.265-.707a2.706,2.706,0,0,0-.92-.1q-1.718.042-1.718-.363,0-.242.859-.241h5.562v11.313a32.551,32.551,0,0,0,.121,3.69q.12.77.626.893a12.893,12.893,0,0,0,2.284.122q.483,0,.484.283" transform="translate(-98.957 -72.004)" fill="#efefef"/>
      <path id="パス_9948" data-name="パス 9948" d="M367.69,246.978q0,.366-1.023,1.3a6.026,6.026,0,0,1-4.171,1.582,4.635,4.635,0,0,1-3.394-1.133q-.656-.646-.655-3.8V232.866a.452.452,0,0,0-.449-.445h-1.555q-.9,0-.9-.283c0-.19.148-.3.447-.324a6.3,6.3,0,0,0,4.957-3.118.718.718,0,0,1,.61-.37.251.251,0,0,1,.283.214.229.229,0,0,1,0,.07v.851a8.806,8.806,0,0,0,.164,2.19,6.345,6.345,0,0,0,1.228.081,13.843,13.843,0,0,0,2.985-.2,1.256,1.256,0,0,1,.286-.041c.217,0,.327.117.327.351q0,.583-3.312.583h-1.678v7.5a50.681,50.681,0,0,0,.287,7.117,1.689,1.689,0,0,0,1.882,1.439,4.82,4.82,0,0,0,3.026-1.5.467.467,0,0,1,.368-.2c.191,0,.287.067.287.2" transform="translate(-107.68 -70.5)" fill="#efefef"/>
      <path id="パス_9949" data-name="パス 9949" d="M388.77,233.426q0,.289-.981.33a4.143,4.143,0,0,0-1.247.165,1.167,1.167,0,0,0-.47.7l-.287.743-.327,1.014q-.574,1.866-1.718,5.555-3.231,10.3-5.358,15.977-1.309,3.446-3.6,3.447a2.334,2.334,0,0,1-1.616-.568,1.873,1.873,0,0,1-.634-1.46,1.657,1.657,0,0,1,.511-1.257,1.842,1.842,0,0,1,1.329-.486,1.682,1.682,0,0,1,1.6.892q.369.688.614.689.368,0,1.145-1.986,1.145-2.961,1.8-5.313-3.027-7.864-5.153-13.746a27.034,27.034,0,0,0-1.635-4.055,2.564,2.564,0,0,0-1.329-.2q-1.083,0-1.084-.4c0-.216.178-.325.532-.325.3,0,.763.028,1.39.081s1.1.082,1.432.082h.736q.857-.055,2.371-.109l2.085-.055c.3,0,.451.116.451.345q0,.3-1.513.345-1.269.039-1.268.4a14.336,14.336,0,0,0,.832,2.475q.323.934.688,1.949l.715,2.02q.278.9,1.48,4.067.421.975.927,2.357,3.922-12.208,3.922-12.815a.407.407,0,0,0-.309-.449,10.31,10.31,0,0,0-1.75-.082c-.275,0-.411-.108-.411-.326,0-.189.164-.285.491-.285a.857.857,0,0,1,.328.055q1.389.108,2.29.109h1.144a3.514,3.514,0,0,0,.961-.082,1.624,1.624,0,0,1,.552-.082c.246,0,.368.1.368.29" transform="translate(-112.157 -71.984)" fill="#efefef"/>
      <path id="パス_9950" data-name="パス 9950" d="M431.974,236.962c0-.055-.027.311-.082,1.094q-.163,2.352-.164,4.542c0,.162.028.494.083.993a16.942,16.942,0,0,1,.081,1.8v.365c0,.352-.108.527-.327.527s-.409-.2-.572-.608a4.153,4.153,0,0,0-1.145-1.743,10.43,10.43,0,0,1-7.074,2.555,13.149,13.149,0,0,1-9.959-4.156,14.615,14.615,0,0,1-3.946-10.483,14.992,14.992,0,0,1,3.618-10.4,11.973,11.973,0,0,1,9.345-4.034,12.966,12.966,0,0,1,3.333.344,14.028,14.028,0,0,1,3.088,1.4,3.1,3.1,0,0,0,1.349.526c.246,0,.477-.215.7-.648q.531-1.134.859-1.135a.289.289,0,0,1,.327.244.309.309,0,0,1,0,.08,2.733,2.733,0,0,1-.082.527,38.542,38.542,0,0,0-.45,7.3,1.733,1.733,0,0,1-.123.892.445.445,0,0,1-.326.122q-.411,0-.532-.771a13.676,13.676,0,0,0-1.513-4.826,6.867,6.867,0,0,0-6.3-3.244,6.609,6.609,0,0,0-5.234,2.189q-3.477,3.935-3.477,11.517,0,6.773,2.863,10.5a7.939,7.939,0,0,0,6.625,3.244,7.52,7.52,0,0,0,3.885-1.034,7.007,7.007,0,0,0,2.7-2.818,16.3,16.3,0,0,0,1.513-4.5q.163-.974.531-.973.409,0,.409.608" transform="translate(-123.83 -67.131)" fill="#efefef"/>
      <path id="パス_9951" data-name="パス 9951" d="M458.483,235.367a2.157,2.157,0,0,1-.572,1.541,1.932,1.932,0,0,1-1.473.609,1.809,1.809,0,0,1-1.227-.426,1.364,1.364,0,0,1-.491-1.075,1.4,1.4,0,0,1,.368-.973q.368-.4.369-.568,0-.609-.9-.608a2.328,2.328,0,0,0-1.963,1.411q-.942,1.656-.941,6.133V249.4a.561.561,0,0,0,.349.605,10.529,10.529,0,0,0,2.106.162c.3.055.449.162.449.324,0,.189-.178.284-.531.284h-7.934c-.437,0-.654-.082-.654-.244s.177-.243.531-.243h.573q1.391,0,1.635-.326a6.61,6.61,0,0,0,.082-1.508V237.248q0-2.242-.675-2.589a5.255,5.255,0,0,0-2.146-.386c-.328,0-.491-.1-.491-.283s.135-.284.409-.284h.286q.613,0,1.227.061a4.353,4.353,0,0,1,.532.061,8.084,8.084,0,0,0,3.353-.852l.532-.243.327-.122a11.742,11.742,0,0,1,.164,1.947v.81q1.308-2.757,3.681-2.757a3.08,3.08,0,0,1,2.168.791,2.566,2.566,0,0,1,.858,1.966" transform="translate(-134.756 -71.822)" fill="#efefef"/>
      <path id="パス_9952" data-name="パス 9952" d="M481.494,246.238a3.562,3.562,0,0,1-.634,1.44,8.914,8.914,0,0,1-1.289,1.682,6.3,6.3,0,0,1-4.7,1.785,8.1,8.1,0,0,1-6.154-2.636,9.173,9.173,0,0,1-2.475-6.529,9.986,9.986,0,0,1,2.351-6.772,7.442,7.442,0,0,1,5.869-2.717,7.22,7.22,0,0,1,4.867,1.682,5.8,5.8,0,0,1,2.085,4.319,21.017,21.017,0,0,1-3.476.162h-2.864q-.285,0-4.908.121a16.831,16.831,0,0,0-.2,2.547,10.692,10.692,0,0,0,1.575,6.282,5.137,5.137,0,0,0,4.438,2.2,4.287,4.287,0,0,0,2.617-.73,8.936,8.936,0,0,0,2.126-2.8.5.5,0,0,1,.45-.325c.218,0,.328.095.328.283m-3.558-8.271q-.165-4.866-3.517-4.865-3.312,0-4.131,4.865Z" transform="translate(-141.205 -71.785)" fill="#efefef"/>
      <path id="パス_9953" data-name="パス 9953" d="M507.864,248.833q0,.691-1.444,1.439a6.057,6.057,0,0,1-2.787.751q-2.809,0-2.93-2.879a5.075,5.075,0,0,1-4.8,3,4.139,4.139,0,0,1-2.89-1.034,3.425,3.425,0,0,1-1.138-2.656q0-3.325,4.011-5.273a22.319,22.319,0,0,1,4.781-1.3v-1.014a18.773,18.773,0,0,0-.368-4.7,2.788,2.788,0,0,0-2.945-2.068,3.7,3.7,0,0,0-2.393.771,2.392,2.392,0,0,0-.961,1.946c0,.217.166.324.5.324a1.154,1.154,0,0,1,.9.487,1.682,1.682,0,0,1,.4,1.095,1.575,1.575,0,0,1-1.782,1.783,2.044,2.044,0,0,1-1.538-.628,2.208,2.208,0,0,1-.606-1.6,4.3,4.3,0,0,1,1.513-3.285,6.754,6.754,0,0,1,4.662-1.5q4.5,0,5.521,2.434a11.905,11.905,0,0,1,.368,3.689V246.2q0,1.866.04,2.19.2,1.46,1.187,1.46a2.428,2.428,0,0,0,1.881-.811q.409-.446.614-.446c.137,0,.2.081.2.243m-7.2-4.3v-2.96a10.4,10.4,0,0,0-4.334,1.8,3.715,3.715,0,0,0-1.309,2.98,3.065,3.065,0,0,0,.745,2.129,2.414,2.414,0,0,0,1.875.832,3.131,3.131,0,0,0,2.781-1.946,8.939,8.939,0,0,0,.242-2.839" transform="translate(-148.969 -71.785)" fill="#efefef"/>
      <path id="パス_9954" data-name="パス 9954" d="M525.433,246.979q0,.366-1.023,1.3a6.026,6.026,0,0,1-4.171,1.582,4.637,4.637,0,0,1-3.395-1.133q-.655-.646-.656-3.8V232.866a.45.45,0,0,0-.449-.445h-1.554q-.9,0-.9-.283t.446-.324a6.3,6.3,0,0,0,4.958-3.118.717.717,0,0,1,.609-.37.252.252,0,0,1,.285.215.212.212,0,0,1,0,.069v.852a8.771,8.771,0,0,0,.164,2.19,6.347,6.347,0,0,0,1.227.082,13.858,13.858,0,0,0,2.986-.2,1.234,1.234,0,0,1,.285-.041c.218,0,.327.117.327.35q0,.583-3.312.583h-1.677v7.5a50.792,50.792,0,0,0,.286,7.117,1.69,1.69,0,0,0,1.882,1.439,4.825,4.825,0,0,0,3.027-1.5.466.466,0,0,1,.367-.2c.191,0,.286.067.286.2" transform="translate(-155.454 -70.5)" fill="#efefef"/>
      <path id="パス_9955" data-name="パス 9955" d="M546.668,246.239a3.567,3.567,0,0,1-.633,1.44,8.926,8.926,0,0,1-1.288,1.682,6.306,6.306,0,0,1-4.7,1.785,8.1,8.1,0,0,1-6.155-2.636,9.174,9.174,0,0,1-2.474-6.529,9.979,9.979,0,0,1,2.352-6.772,7.44,7.44,0,0,1,5.868-2.717,7.215,7.215,0,0,1,4.866,1.682,5.81,5.81,0,0,1,2.086,4.319,21.2,21.2,0,0,1-3.476.162h-2.863q-.287,0-4.908.121a16.687,16.687,0,0,0-.2,2.546,10.7,10.7,0,0,0,1.574,6.283,5.138,5.138,0,0,0,4.438,2.2,4.28,4.28,0,0,0,2.617-.731,8.923,8.923,0,0,0,2.127-2.8.5.5,0,0,1,.449-.325c.219,0,.327.1.327.283m-3.558-8.271q-.165-4.866-3.517-4.866-3.311,0-4.13,4.866Z" transform="translate(-160.944 -71.785)" fill="#efefef"/>
      <path id="パス_9956" data-name="パス 9956" d="M568.709,235.367a2.158,2.158,0,0,1-.573,1.541,1.93,1.93,0,0,1-1.472.609,1.806,1.806,0,0,1-1.226-.426,1.366,1.366,0,0,1-.491-1.075,1.4,1.4,0,0,1,.368-.973q.368-.4.369-.568,0-.609-.9-.608a2.327,2.327,0,0,0-1.963,1.411q-.942,1.656-.941,6.133V249.4a.561.561,0,0,0,.349.605,10.521,10.521,0,0,0,2.105.162c.3.055.45.162.45.324,0,.189-.178.284-.531.284h-7.933q-.655,0-.655-.244t.532-.243h.572q1.391,0,1.635-.326a6.561,6.561,0,0,0,.083-1.508V237.248q0-2.242-.675-2.589a5.265,5.265,0,0,0-2.147-.386c-.327,0-.49-.1-.49-.283s.135-.284.408-.284h.287q.613,0,1.227.061a4.347,4.347,0,0,1,.532.061,8.08,8.08,0,0,0,3.352-.852l.533-.243.328-.122a11.84,11.84,0,0,1,.163,1.947v.81q1.307-2.757,3.681-2.757a3.077,3.077,0,0,1,2.167.791,2.567,2.567,0,0,1,.859,1.966" transform="translate(-168.139 -71.822)" fill="#efefef"/>
      <path id="パス_9957" data-name="パス 9957" d="M589.259,245.223a5.327,5.327,0,0,1-1.724,4,5.769,5.769,0,0,1-4.123,1.646,8.016,8.016,0,0,1-3.371-.973,2.052,2.052,0,0,0-.935-.284q-.568,0-.853.771-.163.486-.447.486t-.285-.324v-5.434c0-.3.1-.445.286-.445q.327,0,.369.449a6.036,6.036,0,0,0,1.063,2.941,5.236,5.236,0,0,0,4.377,2.124,3.3,3.3,0,0,0,2.371-.854,2.989,2.989,0,0,0,.9-2.275,3.247,3.247,0,0,0-1.022-2.52,4.422,4.422,0,0,0-1.042-.753q-.471-.223-2.762-1.076-4.537-1.708-4.539-5.121a5.271,5.271,0,0,1,5.355-5.365,9.4,9.4,0,0,1,2.435.487,2.59,2.59,0,0,0,.731.122.983.983,0,0,0,1.055-.812c.08-.269.2-.4.365-.4.19,0,.285.109.285.325v1.947a22.431,22.431,0,0,0,.2,3.121v.082a.287.287,0,0,1-.245.324.293.293,0,0,1-.082,0q-.245,0-.613-1.228a4.735,4.735,0,0,0-1.575-2.374,4.037,4.037,0,0,0-2.6-.9,3.194,3.194,0,0,0-2.29.853,2.845,2.845,0,0,0-.9,2.155q0,2.031,2.741,3.089a19.1,19.1,0,0,1,5.4,2.764,4.621,4.621,0,0,1,1.471,3.455" transform="translate(-174.908 -71.514)" fill="#efefef"/>
    </g>
  </g>
</svg>
